<svg width="20" height="20" viewBox="0 0 20 20" fill="none" xmlns="http://www.w3.org/2000/svg">
<path d="M11.3692 9.48487C11.4282 9.60022 11.5456 9.66686 11.6669 9.66686C11.7175 9.66686 11.7695 9.65518 11.8179 9.63053C11.8375 9.62053 13.7996 8.62385 14.7672 8.31819C14.9426 8.26253 15.0399 8.07518 14.9842 7.89987C14.9289 7.72452 14.7429 7.62686 14.5659 7.68221C13.5466 8.00456 11.5979 8.99456 11.5152 9.03655C11.3512 9.11987 11.2859 9.32057 11.3692 9.48487Z" fill="#898888"/>
<path d="M11.6669 5.66674C11.7175 5.66674 11.7695 5.65506 11.8179 5.63041C11.8375 5.62041 13.7996 4.62373 14.7672 4.31807C14.9426 4.2624 15.0399 4.07506 14.9842 3.89975C14.9289 3.7244 14.7429 3.62674 14.5659 3.68209C13.5466 4.00443 11.5979 4.99443 11.5152 5.03643C11.3512 5.11975 11.2859 5.32041 11.3692 5.48474C11.4282 5.60006 11.5455 5.66674 11.6669 5.66674Z" fill="#898888"/>
<path d="M19.6666 5.00015C19.4823 5.00015 19.3333 5.14948 19.3333 5.33347V18.3334C19.3333 18.8848 18.8847 19.3334 18.3333 19.3334H10.3333V18.5665C10.8194 18.3965 12.0853 18.0001 13.3333 18.0001C16.237 18.0001 18.2087 18.6431 18.2283 18.6498C18.3286 18.6831 18.4407 18.6665 18.5283 18.6038C18.6153 18.5411 18.6666 18.4404 18.6666 18.3334V3.66683C18.6666 3.5105 18.5583 3.37515 18.4056 3.34148C18.4056 3.34148 18.1443 3.28316 17.6976 3.20113C17.5173 3.16781 17.343 3.28781 17.3096 3.46847C17.2763 3.6498 17.3959 3.82347 17.577 3.85679C17.7473 3.88812 17.89 3.91578 18 3.93781V17.8904C17.2446 17.6924 15.5673 17.3334 13.3333 17.3334C11.881 17.3334 10.4543 17.8104 10.0129 17.9721C9.62061 17.7988 8.43463 17.3334 6.99995 17.3334C4.70394 17.3334 2.81261 17.7121 1.99996 17.9045V3.9248C2.66562 3.76113 4.63163 3.33347 6.99995 3.33347C8.2153 3.33347 9.2576 3.71179 9.66662 3.88281V17.0001C9.66662 17.1201 9.73127 17.2311 9.83561 17.2901C9.93994 17.3495 10.0686 17.3478 10.1716 17.2858C10.2046 17.2661 13.5073 15.2935 16.4386 14.3165C16.5749 14.2708 16.6666 14.1438 16.6666 14.0001V0.333478C16.6666 0.224143 16.6129 0.121799 16.5229 0.0594946C16.4336 -0.00284905 16.319 -0.017185 16.2159 0.0211743C13.549 1.02148 10.8503 2.70082 10.8233 2.7175C10.6673 2.81515 10.6196 3.02082 10.7173 3.17683C10.8146 3.33285 11.0203 3.3805 11.1766 3.28285C11.2013 3.26718 13.549 1.80652 15.9999 0.82086V13.7615C13.7246 14.5522 11.3489 15.8432 10.3333 16.4211V3.66683C10.3333 3.5405 10.2619 3.42515 10.1489 3.36851C10.0916 3.34019 8.72561 2.66683 6.99995 2.66683C3.98796 2.66683 1.6723 3.31851 1.57496 3.34648C1.43195 3.38714 1.33328 3.51816 1.33328 3.66683V18.3335C1.33328 18.4378 1.38261 18.5365 1.46562 18.5995C1.52429 18.6438 1.59496 18.6668 1.66664 18.6668C1.6973 18.6668 1.72797 18.6625 1.75797 18.6538C1.78097 18.6475 4.08597 18.0002 6.99995 18.0002C8.21862 18.0002 9.25994 18.3795 9.66662 18.5498V19.3335H1.66664C1.11531 19.3335 0.666639 18.8848 0.666639 18.3335V5.33351C0.666639 5.14952 0.517304 5.00019 0.33332 5.00019C0.149336 5.00019 0 5.14952 0 5.33351V18.3335C0 19.2525 0.747655 20.0002 1.66668 20.0002H18.3333C19.2523 20.0002 20 19.2525 20 18.3335V5.33351C20 5.14948 19.851 5.00015 19.6666 5.00015Z" fill="#898888"/>
<path d="M11.3692 7.48481C11.4282 7.60016 11.5456 7.6668 11.6669 7.6668C11.7175 7.6668 11.7695 7.65512 11.8179 7.63047C11.8375 7.62047 13.7996 6.62379 14.7672 6.31813C14.9426 6.26246 15.0399 6.07512 14.9842 5.89981C14.9289 5.72446 14.7429 5.6268 14.5659 5.68215C13.5466 6.0045 11.5979 6.99449 11.5152 7.03649C11.3512 7.11981 11.2859 7.32051 11.3692 7.48481Z" fill="#898888"/>
<path d="M11.3692 11.4849C11.4282 11.6003 11.5456 11.6669 11.6669 11.6669C11.7175 11.6669 11.7695 11.6552 11.8179 11.6306C11.8375 11.6206 13.7996 10.6239 14.7672 10.3183C14.9426 10.2626 15.0399 10.0752 14.9842 9.89993C14.9289 9.72458 14.7429 9.62692 14.5659 9.68227C13.5466 10.0046 11.5979 10.9946 11.5152 11.0366C11.3512 11.1199 11.2859 11.3206 11.3692 11.4849Z" fill="#898888"/>
<path d="M8.07576 6.18631C6.01745 5.7033 3.67843 6.31865 3.58011 6.34498C3.40245 6.39264 3.29679 6.57529 3.34444 6.7533C3.38444 6.90229 3.51909 7.00029 3.66612 7.00029C3.69479 7.00029 3.72378 6.99662 3.7528 6.98897C3.77515 6.98264 6.02713 6.39029 7.92381 6.83529C8.10213 6.87697 8.28248 6.76596 8.32447 6.58662C8.36643 6.40764 8.2551 6.2283 8.07576 6.18631Z" fill="#898888"/>
<path d="M8.07576 8.1862C6.01745 7.70355 3.67843 8.31855 3.58011 8.34488C3.40245 8.39253 3.29679 8.57523 3.34444 8.75319C3.38444 8.90218 3.51909 9.00019 3.66612 9.00019C3.69479 9.00019 3.72378 8.99651 3.7528 8.98886C3.77515 8.98253 6.02713 8.39019 7.92381 8.83519C8.10213 8.87687 8.28248 8.76585 8.32447 8.58651C8.36643 8.40753 8.2551 8.2282 8.07576 8.1862Z" fill="#898888"/>
<path d="M11.3692 13.4848C11.4282 13.6001 11.5456 13.6668 11.6669 13.6668C11.7175 13.6668 11.7695 13.6551 11.8179 13.6304C11.8375 13.6204 13.7996 12.6238 14.7672 12.3181C14.9426 12.2624 15.0399 12.0751 14.9842 11.8998C14.9289 11.7245 14.7429 11.6268 14.5659 11.6821C13.5466 12.0045 11.5979 12.9945 11.5152 13.0365C11.3512 13.1198 11.2859 13.3205 11.3692 13.4848Z" fill="#898888"/>
<path d="M8.07576 10.1861C6.01745 9.70345 3.67843 10.3181 3.58011 10.3448C3.40245 10.3924 3.29679 10.5751 3.34444 10.7531C3.38444 10.9021 3.51909 11.0004 3.66612 11.0004C3.69479 11.0004 3.72378 10.9965 3.7528 10.9888C3.77515 10.9824 6.02713 10.3901 7.92381 10.8351C8.10213 10.8768 8.28248 10.7658 8.32447 10.5864C8.36643 10.4074 8.2551 10.2281 8.07576 10.1861Z" fill="#898888"/>
<path d="M8.07576 14.1861C6.01745 13.7031 3.67843 14.3185 3.58011 14.3448C3.40245 14.3924 3.29679 14.5751 3.34444 14.7531C3.38444 14.9021 3.51909 15.0004 3.66612 15.0004C3.69479 15.0004 3.72378 14.9965 3.7528 14.9888C3.77515 14.9824 6.02713 14.3901 7.92381 14.8351C8.10213 14.8764 8.28248 14.7658 8.32447 14.5864C8.36643 14.4074 8.2551 14.2281 8.07576 14.1861Z" fill="#898888"/>
<path d="M8.07576 12.1861C6.01745 11.7031 3.67843 12.3181 3.58011 12.3448C3.40245 12.3924 3.29679 12.5751 3.34444 12.7531C3.38444 12.9021 3.51909 13.0004 3.66612 13.0004C3.69479 13.0004 3.72378 12.9965 3.7528 12.9888C3.77515 12.9824 6.02713 12.3901 7.92381 12.8351C8.10213 12.8768 8.28248 12.7658 8.32447 12.5864C8.36643 12.4074 8.2551 12.2281 8.07576 12.1861Z" fill="#898888"/>
</svg>
