<svg width="115" height="97" viewBox="0 0 115 97" fill="none" xmlns="http://www.w3.org/2000/svg">
<path d="M115 26.1921L57.5 97L57.1561 96.5777L0 26.1921L25.4905 0H89.5095L115 26.1921Z" fill="#00E8F2"/>
<path d="M115 26.1921L57.5 97V0H89.5095L115 26.1921Z" fill="#00CEF5"/>
<path d="M76.7603 26.1335H38.2397L57.1561 0.467095L57.5 0L76.7603 26.1335Z" fill="#9CFDFF"/>
<path d="M89.5086 0L76.4795 26.1335H115L89.5086 0Z" fill="#00F8FE"/>
<path d="M25.4914 0L38.5205 26.1335H0L25.4914 0Z" fill="#9CFDFF"/>
<path d="M76.4795 26.1333L57.5 96.9998L57.1561 95.7176L38.5205 26.1333H76.4795Z" fill="#00F8FE"/>
<path d="M76.7603 26.1335H76.4795L57.5 97V0L76.7603 26.1335Z" fill="#9CFDFF"/>
<path d="M76.7603 26.1335H57.5V0L76.7603 26.1335Z" fill="#00F8FE"/>
</svg>
