<svg width="31" height="30" viewBox="0 0 31 30" fill="none" xmlns="http://www.w3.org/2000/svg">
<path d="M14.6219 21.1764C14.9002 21.1764 15.1261 20.974 15.1261 20.7241V20.1161C15.1261 19.8663 14.9002 19.6638 14.6219 19.6638C14.3433 19.6638 14.1177 19.8663 14.1177 20.1161V20.7241C14.1177 20.974 14.3433 21.1764 14.6219 21.1764Z" fill="#898888"/>
<path d="M21.6805 21.1764C21.9588 21.1764 22.1847 20.974 22.1847 20.7241V20.1161C22.1847 19.8663 21.9588 19.6638 21.6805 19.6638C21.4018 19.6638 21.1763 19.8663 21.1763 20.1161V20.7241C21.1763 20.974 21.4018 21.1764 21.6805 21.1764Z" fill="#898888"/>
<path d="M18.1511 21.6806C18.5974 21.6806 19.0168 21.4544 19.3016 21.0601C19.4634 20.8365 19.4446 20.4965 19.2595 20.3009C19.0745 20.1053 18.7935 20.1283 18.6317 20.3519C18.5159 20.5125 18.3407 20.6044 18.1511 20.6044C17.9616 20.6044 17.7864 20.5125 17.6705 20.3519C17.5088 20.1283 17.2277 20.1053 17.0428 20.3009C16.8577 20.4965 16.8389 20.8365 17.0006 21.0601C17.2854 21.4544 17.7048 21.6806 18.1511 21.6806Z" fill="#898888"/>
<path d="M19.6461 2.44988C18.7606 2.44988 18.0402 3.17082 18.0402 4.05679C18.0402 4.94276 18.7606 5.66346 19.6461 5.66346H20.8508C20.8921 5.92451 20.959 6.33909 21.0674 7.00181L18.2786 9.85434C18.1045 10.0323 18.1078 10.3178 18.2856 10.4919C18.4635 10.6659 18.7486 10.6628 18.9227 10.4847L21.2399 8.11456L21.6918 10.8234L16.4479 16.2123L13.7688 15.7568L17.6737 11.7624C17.8475 11.5845 17.8445 11.299 17.6666 11.1248C17.4888 10.9509 17.2034 10.9539 17.0296 11.1321L12.6878 15.573L9.56063 15.0413C9.25441 14.9892 8.9435 14.9627 8.63634 14.9627C8.52207 14.9627 8.40803 14.9669 8.29446 14.9742L6.67255 10.9335H7.62101C8.67224 10.9335 9.36728 9.81279 8.95711 8.86508C8.56782 7.96033 7.66958 7.35583 6.6688 7.32507C5.28694 7.28258 4.9582 7.10722 4.61021 6.92129C4.15898 6.68043 3.66035 6.53958 3.14364 6.53958C1.46519 6.53958 0.0997598 7.90657 0.0997598 9.58672C0.0997598 10.3295 0.70375 10.9338 1.44595 10.9338H3.21099L3.84408 12.5111H3.07653C2.89445 12.1749 2.54036 11.951 2.13512 11.951C2.09922 11.951 2.06261 11.9528 2.02671 11.9566L0.965385 12.0634C0.376882 12.1228 -0.0537015 12.6501 0.00543037 13.2388C0.00543037 13.2388 0.176725 14.9401 0.17696 14.9425C0.235388 15.5221 0.773441 15.9608 1.35185 15.9029L2.41318 15.7958C2.82757 15.754 3.16265 15.4801 3.30462 15.1164L4.89015 15.1169L5.29398 16.1226C5.07857 16.2911 4.8749 16.4764 4.68553 16.6773C3.64861 17.7781 3.12698 19.2174 3.21662 20.7304C3.28913 21.9556 3.76523 23.0667 4.50908 23.939L1.77094 26.7402H1.6278C0.801365 26.7402 0.128856 27.413 0.128856 28.24V28.9908C0.128856 29.5472 0.581262 29.9998 1.13738 29.9998H6.72347C7.27959 29.9998 7.732 29.5472 7.732 28.9908V28.24C7.732 27.7597 7.50486 27.3315 7.15265 27.0569L8.33341 25.8436C8.43548 25.8493 8.53802 25.853 8.6415 25.853C8.83016 25.853 9.0214 25.8425 9.21076 25.823C9.17674 26.0784 9.21874 26.338 9.33466 26.5747C9.55781 27.0294 10.0112 27.3118 10.5178 27.3118C10.72 27.3118 10.915 27.2665 11.0976 27.1768L14.2752 25.6162C14.4878 25.5117 14.6633 25.3549 14.7908 25.1626L19.5886 24.5938C20.7596 25.7331 22.2942 26.358 23.9363 26.358C24.051 26.358 24.1664 26.3542 24.2819 26.3479L24.3474 26.7402H24.0458C23.2192 26.7402 22.5467 27.413 22.5467 28.24V28.9908C22.5467 29.5472 22.9993 30 23.5554 30H29.1413C29.6976 30 30.15 29.5472 30.15 28.9908V28.24C30.15 27.413 29.4775 26.7402 28.6508 26.7402H27.9042L27.6369 25.1417C28.312 24.6431 28.8888 24.006 29.3149 23.2838C29.4414 23.0695 29.3705 22.7932 29.1563 22.6667C28.942 22.5399 28.6656 22.611 28.5392 22.8254C28.2533 23.3094 27.8887 23.7491 27.4663 24.1222L25.9693 15.1683C27.9485 15.981 29.2781 17.9229 29.2781 20.1123C29.2781 20.51 29.2342 20.9062 29.1478 21.2908C29.0932 21.5335 29.2457 21.7746 29.4883 21.8293C29.7314 21.884 29.9724 21.7314 30.0268 21.4887C30.128 21.0393 30.1791 20.5764 30.1791 20.1123C30.1791 17.3689 28.3925 14.9589 25.7991 14.1502L25.2801 11.0462H26.5977C26.7936 11.3889 27.1608 11.6127 27.5761 11.6127C27.6386 11.6127 28.7046 11.4397 28.7053 11.4394C29.3121 11.3378 29.7338 10.7469 29.6322 10.1396C29.6322 10.1396 29.099 6.9504 29.0983 6.94664C28.9974 6.34355 28.4019 5.91818 27.7991 6.01936C27.7991 6.01936 26.8579 6.17688 26.8569 6.17688C26.4418 6.24637 26.0936 6.55061 25.9669 6.95181H24.5954L24.3802 5.6637H24.6303C26.0845 5.6637 27.4928 5.14183 28.5964 4.19436L30.197 2.81962C30.869 2.24259 30.9464 1.22609 30.3697 0.553747C29.7997 -0.11038 28.7682 -0.188554 28.1046 0.381201L26.504 1.7557C25.9829 2.20338 25.3174 2.44988 24.6303 2.44988H19.6461ZM1.00082 9.58672C1.00082 8.40355 1.96218 7.44104 3.14388 7.44104C3.51181 7.44104 3.86308 7.54434 4.1862 7.71665C4.61021 7.94295 5.04877 8.17724 6.64111 8.22607C7.29391 8.24626 7.87819 8.63689 8.12973 9.22214C8.29047 9.59564 8.04056 10.0321 7.62101 10.0321H1.44618C1.20074 10.0321 1.00082 9.83228 1.00082 9.58672ZM6.06223 15.6176L4.18221 10.9338H5.70157L7.37885 15.1122C6.92152 15.2225 6.47756 15.393 6.06223 15.6176ZM2.32307 14.8988L1.26151 15.0058C1.16578 15.0155 1.08295 14.9462 1.07356 14.8521L0.90203 13.1485C0.892644 13.0541 0.961631 12.9698 1.05573 12.9604L2.11705 12.8534C2.12315 12.8529 2.12925 12.8524 2.13512 12.8524C2.22311 12.8524 2.29609 12.9189 2.305 13.0071L2.47653 14.7108C2.48615 14.8049 2.41717 14.8894 2.32307 14.8988ZM4.52832 14.2154L3.3323 14.215L3.25158 13.4126H4.20614L4.52832 14.2154ZM29.2492 28.24V28.9905C29.2492 29.0499 29.2009 29.0983 29.1415 29.0983H23.5556C23.4963 29.0983 23.4479 29.0499 23.4479 28.9905V28.24C23.4479 27.91 23.7162 27.6416 24.0461 27.6416H28.6511C28.9808 27.6416 29.2492 27.91 29.2492 28.24ZM25.4873 17.7495L23.7108 17.4473C23.1894 14.3131 22.0684 7.56171 21.7617 5.66346H23.4665L25.4873 17.7495ZM22.7703 17.2874L19.7644 16.7764C20.4395 15.9331 21.3577 15.3092 22.388 14.9962L22.7703 17.2874ZM24.7998 23.9761L26.4946 23.7752L26.9905 26.7402H25.2609L24.7998 23.9761ZM21.8795 11.923C21.9889 12.5815 22.1088 13.3055 22.2409 14.1006C20.8337 14.4983 19.5973 15.3897 18.7702 16.6074L17.527 16.3958L21.8795 11.923ZM6.83094 28.9905C6.83094 29.0499 6.78284 29.0983 6.72347 29.0983H1.13738C1.07802 29.0983 1.02991 29.0499 1.02991 28.9905V28.24C1.02991 27.91 1.29812 27.6416 1.6278 27.6416H6.23305C6.55804 27.6416 6.83118 27.9151 6.83118 28.24V28.9905H6.83094ZM6.20325 26.7402H3.03125L5.14779 24.5755C5.75648 25.087 6.47685 25.4643 7.24533 25.6692L6.20325 26.7402ZM8.6415 24.9499C7.47834 24.944 6.32926 24.4842 5.48991 23.6698C4.70102 22.9042 4.18596 21.8537 4.11627 20.6771C4.04142 19.4146 4.47646 18.2138 5.34115 17.2957C6.19832 16.386 7.39926 15.8641 8.63658 15.8641C8.89328 15.8641 9.15328 15.8862 9.40975 15.9298L25.6445 18.6908L26.3459 22.8852L14.9968 24.2304C15.0038 24.2294 14.9367 23.9933 14.9297 23.9743C14.6631 23.2545 13.804 22.9118 13.1144 23.2503L12.5639 23.5205L11.9015 22.5216C12.3206 21.9211 12.5487 21.203 12.5487 20.4656C12.5487 18.4842 10.9376 16.8724 8.95711 16.8724C6.97666 16.8724 5.36531 18.4842 5.36531 20.4656C5.36531 22.4472 6.97666 24.059 8.95711 24.059C9.2103 24.059 9.46114 24.032 9.70682 23.9797L10.1792 24.6917C10.1792 24.6917 9.90486 24.8269 9.88867 24.8358C9.47498 24.8849 9.05918 24.952 8.6415 24.9499ZM11.3515 21.6924L10.0548 19.7371C9.69978 19.2019 8.9794 18.9986 8.39747 19.2726C7.68084 19.6099 7.42156 20.5337 7.85965 21.1943L9.1568 23.15C9.09039 23.155 9.02398 23.1575 8.95711 23.1575C7.47365 23.1575 6.26661 21.95 6.26661 20.4656C6.26661 18.9815 7.47365 17.7739 8.95711 17.7739C10.4408 17.7739 11.6476 18.9815 11.6476 20.4656C11.6478 20.8947 11.5448 21.3152 11.3515 21.6924ZM8.61053 20.6959C8.48358 20.5046 8.53591 20.2456 8.72692 20.1189C8.91393 19.9947 9.18003 20.0487 9.30392 20.2355L11.7483 23.9212L10.9948 24.2912L8.61053 20.6959ZM13.8784 24.8069C13.8784 24.8069 10.7095 26.3634 10.7006 26.3676C10.4959 26.4681 10.2437 26.3812 10.1437 26.1775C10.0459 25.9784 10.1348 25.7183 10.3338 25.6201C10.3338 25.6201 13.507 24.0618 13.5117 24.0595C13.9918 23.8235 14.359 24.5708 13.8784 24.8069ZM20.8116 24.4489L23.9039 24.0825L24.1327 25.4528C22.9205 25.4971 21.7657 25.1412 20.8116 24.4489ZM26.8591 7.1591C26.8933 7.11121 26.9452 7.07623 27.0057 7.0659L27.9476 6.90838C28.0706 6.88819 28.1891 6.972 28.2095 7.09525L28.7433 10.2884C28.7637 10.4105 28.6783 10.5297 28.5565 10.5502L27.6144 10.7079C27.4893 10.7288 27.3732 10.6438 27.3528 10.5211C27.3528 10.5211 26.822 7.34691 26.8187 7.32765C26.8086 7.26685 26.825 7.20676 26.8591 7.1591ZM25.993 7.85304L26.3761 10.1445H25.1294L24.7463 7.85304H25.993ZM27.0909 2.43978C27.0909 2.43978 28.6905 1.06599 28.6914 1.06505C28.9833 0.814562 29.4353 0.848836 29.6857 1.14087C29.9388 1.43596 29.9051 1.882 29.6101 2.13554L28.0093 3.51004C27.0693 4.31737 25.8693 4.762 24.6303 4.762H19.6461C19.2576 4.762 18.9412 4.44555 18.9412 4.05679C18.9412 3.6678 19.2576 3.35134 19.6461 3.35134H24.6303C25.5326 3.35134 26.4064 3.02761 27.0909 2.43978Z" fill="#898888"/>
</svg>
