<svg width="467" height="636" viewBox="0 0 467 636" fill="none" xmlns="http://www.w3.org/2000/svg">
<path d="M274.57 27.9939C379.805 28.2298 465.456 119.661 465.456 231.975C465.456 344.288 379.923 435.72 274.57 435.956V27.9939Z" fill="#353434"/>
<path d="M274.57 27.5222V436.546C380.513 436.546 466.4 344.996 466.4 231.975C466.4 119.072 380.513 27.5222 274.57 27.5222ZM409.535 375.788C391.957 394.429 371.547 409.176 348.896 419.44C325.654 429.939 300.997 435.248 275.514 435.484V28.584C300.997 28.702 325.654 34.1289 348.896 44.6288C371.665 54.8927 392.075 69.5218 409.535 88.28C427.114 106.92 440.799 128.746 450.473 152.931C460.383 178.06 465.456 204.605 465.456 232.093C465.456 259.582 460.383 286.244 450.473 311.255C440.799 335.44 427.114 357.148 409.535 375.788Z" fill="#EE422B"/>
<path d="M369.658 9C408.236 9 439.618 38.6121 439.618 75.0667C439.618 111.521 408.354 141.133 369.658 141.133V9Z" fill="#EE422B"/>
<path d="M226.464 162.335H39L132.791 0L226.464 162.335ZM40.8876 161.274H224.695L132.791 2.12358L40.8876 161.274Z" fill="#EE422B"/>
<path d="M180.807 216.133L163.583 186.403L146.358 216.133H180.807Z" fill="#EE422B"/>
<path d="M64.0099 216.133H99.0489L81.4704 185.931L64.0099 216.133Z" fill="#EE422B"/>
<path d="M122.409 115.145L81.5888 185.931H163.346L122.409 115.145Z" fill="#EE422B"/>
<path d="M163.935 185.931H163.345L163.581 186.403L163.935 185.931Z" fill="#353434"/>
<path d="M163.583 186.403L163.347 185.931H81.5893H81.4713L99.0498 216.133H146.358L163.583 186.403Z" fill="#353434"/>
<path d="M146.122 201.032H98.6954L122.409 241.97L146.122 201.032Z" fill="#CBC9C9"/>
<path d="M51.4 444.6H31.7V463.9H51.4V444.6Z" fill="#EE422B"/>
<path d="M13.4 385.3H0V398.5H13.4V385.3Z" fill="#EE422B"/>
<path d="M111.4 372H83.3V399.5H111.4V372Z" fill="#353434"/>
<path d="M193.2 389.1V427.6H232.5V389.1H193.2ZM222.7 398.7V417.9H203.1V398.7H222.7Z" fill="#EE422B"/>
<path d="M383.991 553.374H406.391V531.374H383.991V553.374Z" fill="#CBC9C9"/>
<path d="M419.903 592.982H437.103V576.182H419.903V592.982Z" fill="#EE422B"/>
<path d="M418.313 519.676V553.376H452.713V519.676H418.313Z" fill="#EE422B"/>
<path d="M418.389 486V519.7H452.789V486H418.389Z" fill="#EE422B"/>
<path d="M384.031 486.043V519.743H418.431V486.043H384.031Z" fill="#EE422B"/>
<path d="M358.194 618.287H383.994V592.987H358.194V618.287Z" fill="#CBC9C9"/>
<path d="M320.961 635.682H332.061V624.782H320.961V635.682Z" fill="#EE422B"/>
<path d="M329.825 552.991H360.625V522.791H329.825V552.991Z" fill="#EE422B"/>
<path d="M270 592.288H283.3V579.288H270V592.288Z" fill="#EE422B"/>
</svg>
