<svg width="80" height="80" viewBox="0 0 80 80" fill="none" xmlns="http://www.w3.org/2000/svg">
<path d="M80 40.0002C80 62.0916 62.0914 80.0002 40 80.0002C17.9086 80.0002 0 62.0916 0 40.0002C0 17.9089 17.9086 0.000244141 40 0.000244141C62.0914 0.000244141 80 17.9089 80 40.0002Z" fill="#F4F4F4"/>
<path d="M37.8245 11.3831C39.1707 10.6059 40.8293 10.6059 42.1755 11.3831L63.8245 23.8821C65.1707 24.6594 66 26.0958 66 27.6502V52.6483C66 54.2028 65.1707 55.6392 63.8245 56.4164L42.1755 68.9154C40.8293 69.6927 39.1707 69.6927 37.8245 68.9154L16.1755 56.4164C14.8293 55.6392 14 54.2028 14 52.6483V27.6502C14 26.0958 14.8293 24.6594 16.1755 23.8821L37.8245 11.3831Z" fill="#00589C"/>
<path fill-rule="evenodd" clip-rule="evenodd" d="M39.9121 40.1926L14.5781 54.8192C14.9538 55.4716 15.4986 56.0266 16.1732 56.4161L37.8221 68.9151C39.1684 69.6923 40.827 69.6923 42.1732 68.9151L63.8221 56.4161C64.4712 56.0414 65 55.5134 65.3738 54.8929L39.9121 40.1926Z" fill="#004482"/>
<path fill-rule="evenodd" clip-rule="evenodd" d="M42.1755 11.3831C40.8293 10.6059 39.1707 10.6059 37.8245 11.3831L16.1755 23.8821C14.8293 24.6594 14 26.0958 14 27.6502V52.6483C14 53.4238 14.2064 54.1699 14.5804 54.8194L65.4145 25.4703C65.039 24.8217 64.4961 24.2699 63.8245 23.8821L42.1755 11.3831Z" fill="#649AD2"/>
<path fill-rule="evenodd" clip-rule="evenodd" d="M43.3519 32.0835C41.5878 31.3365 39.6265 31.1925 37.7722 31.674C35.9179 32.1554 34.2742 33.2352 33.0963 34.746C31.9183 36.2568 31.2718 38.1141 31.257 40.0299C31.2423 41.9456 31.8601 43.8126 33.0147 45.3414C34.1693 46.8701 35.7961 47.9752 37.6428 48.485C39.4895 48.9949 41.4528 48.8812 43.2282 48.1614C45.0037 47.4417 46.4919 46.1562 47.4622 44.5043L54.9656 48.9117C53.025 52.2155 50.0484 54.7865 46.4976 56.226C42.9467 57.6655 39.0201 57.893 35.3267 56.8733C31.6334 55.8535 28.3798 53.6434 26.0706 50.5859C23.7614 47.5284 22.5257 43.7943 22.5552 39.9629C22.5847 36.1315 23.8777 32.4169 26.2336 29.3952C28.5896 26.3736 31.8768 24.2139 35.5854 23.2511C39.294 22.2883 43.2167 22.5762 46.745 24.0701C50.2733 25.5641 53.2099 28.1806 55.0995 31.5139L47.5292 35.8053C46.5844 34.1387 45.1161 32.8305 43.3519 32.0835Z" fill="#F4F4F4"/>
</svg>
