<svg width="26" height="18" viewBox="0 0 26 18" fill="none" xmlns="http://www.w3.org/2000/svg">
    <path d="M23.1523 0H3.35234C2.63626 0 1.9495 0.284464 1.44316 0.790812C0.936807 1.29716 0.652344 1.98392 0.652344 2.7V15.3C0.652344 16.0161 0.936807 16.7028 1.44316 17.2092C1.9495 17.7155 2.63626 18 3.35234 18H23.1523C23.8684 18 24.5552 17.7155 25.0615 17.2092C25.5679 16.7028 25.8523 16.0161 25.8523 15.3V2.7C25.8523 1.98392 25.5679 1.29716 25.0615 0.790812C24.5552 0.284464 23.8684 0 23.1523 0ZM22.2523 1.8L13.2523 7.911L4.25234 1.8H22.2523ZM23.1523 16.2H3.35234C3.11365 16.2 2.88473 16.1052 2.71595 15.9364C2.54717 15.7676 2.45234 15.5387 2.45234 15.3V2.772L12.7483 9.747C12.8972 9.8476 13.0727 9.90136 13.2523 9.90136C13.432 9.90136 13.6075 9.8476 13.7563 9.747L24.0523 2.772V15.3C24.0523 15.5387 23.9575 15.7676 23.7887 15.9364C23.62 16.1052 23.391 16.2 23.1523 16.2Z"
          fill="#000000"/>
</svg>
