<svg width="485" height="156" viewBox="0 0 485 156" fill="none" xmlns="http://www.w3.org/2000/svg">
<path d="M53.566 65.6692H33.0762V45.5954H53.566V65.6692Z" fill="#EE422B"/>
<path d="M13.9372 127.346H0V113.617H13.9372V127.346Z" fill="white"/>
<path d="M115.867 141.18H86.6406V112.577H115.867V141.18Z" fill="#EE422B"/>
<path d="M200.945 123.394V83.3507H241.821V123.394H200.945ZM231.628 113.409V93.4396H211.138V113.409H231.628Z" fill="white"/>
<path d="M412.636 85.6072H435.934V108.489H412.636V85.6072Z" fill="#EE422B"/>
<path d="M449.985 44.4113H467.875V61.8848H449.985V44.4113Z" fill="white"/>
<path d="M448.309 120.633V85.582H484.088V120.633H448.309Z" fill="white"/>
<path d="M448.387 155.659V120.608H484.166V155.659H448.387Z" fill="white"/>
<path d="M412.652 155.615V120.564H448.431V155.615H412.652Z" fill="white"/>
<path d="M385.802 18.0916L412.637 18.0916V44.4058H385.802V18.0916Z" fill="#EE422B"/>
<path d="M347.076 0L358.621 0V11.337L347.076 11.337V0Z" fill="white"/>
<path d="M356.297 86.0055H388.332V117.416H356.297V86.0055Z" fill="white"/>
<path d="M293.97 45.1338H307.803V58.655H293.97V45.1338Z" fill="white"/>
</svg>
