<svg width="80" height="80" viewBox="0 0 80 80" fill="none" xmlns="http://www.w3.org/2000/svg">
<path d="M80 40C80 62.0914 62.0914 80 40 80C17.9086 80 0 62.0914 0 40C0 17.9086 17.9086 0 40 0C62.0914 0 80 17.9086 80 40Z" fill="#F4F4F4"/>
<path d="M32.502 55.3079C32.502 55.3079 30.362 56.5523 34.025 56.9735C38.4625 57.4797 40.7305 57.4071 45.6208 56.4816C45.6208 56.4816 46.9065 57.2877 48.702 57.986C37.7394 62.6844 23.8914 57.7138 32.502 55.3079ZM31.1624 49.1768C31.1624 49.1768 28.7622 50.9535 32.4279 51.3326C37.1682 51.8216 40.9118 51.8616 47.3896 50.6143C47.3896 50.6143 48.2857 51.5226 49.6946 52.0194C36.44 55.8952 21.6769 52.325 31.1624 49.1768Z" fill="#5382A1"/>
<path d="M42.4541 38.776C45.1553 41.8859 41.7446 44.6846 41.7446 44.6846C41.7446 44.6846 48.603 41.1439 45.4533 36.7101C42.5113 32.5751 40.2552 30.5209 52.4687 23.4375C52.4689 23.4373 33.2976 28.2254 42.4541 38.776Z" fill="#E76F00"/>
<path d="M56.9532 59.8428C56.9532 59.8428 58.5368 61.1478 55.2091 62.1571C48.8813 64.074 28.8722 64.6529 23.3138 62.2337C21.3156 61.3642 25.0627 60.158 26.2413 59.9048C27.4706 59.6383 28.1731 59.6879 28.1731 59.6879C25.9509 58.1225 13.8102 62.7615 22.0062 64.0902C44.3577 67.715 62.751 62.4579 56.9532 59.8428ZM33.5298 42.8242C33.5298 42.8242 23.3519 45.2417 29.9256 46.1195C32.7012 46.4911 38.2343 46.407 43.3881 45.9752C47.6001 45.6199 51.8297 44.8646 51.8297 44.8646C51.8297 44.8646 50.3445 45.5007 49.27 46.2342C38.9345 48.9526 18.9682 47.6879 24.7163 44.9075C29.5774 42.5577 33.5298 42.8242 33.5298 42.8242ZM51.7878 53.0297C62.2943 47.5702 57.4366 42.3234 54.0458 43.0304C53.2147 43.2034 52.8442 43.3533 52.8442 43.3533C52.8442 43.3533 53.1529 42.87 53.7418 42.6608C60.4497 40.3025 65.6084 49.6161 51.5765 53.3051C51.5765 53.3051 51.7393 53.1599 51.7878 53.0297Z" fill="#5382A1"/>
<path d="M45.4526 12C45.4526 12 51.2713 17.8205 39.9338 26.7711C30.8424 33.9508 37.8607 38.0445 39.9301 42.7219C34.6234 37.9337 30.7289 33.7189 33.3416 29.7961C37.1764 24.0376 47.8003 21.2457 45.4526 12Z" fill="#E76F00"/>
<path d="M34.5657 67.8243C44.6507 68.4698 60.1372 67.4661 60.5038 62.6943C60.5038 62.6943 59.799 64.5032 52.1692 65.94C43.5616 67.5597 32.9451 67.3707 26.6484 66.3325C26.6487 66.3322 27.9376 67.3992 34.5657 67.8243Z" fill="#5382A1"/>
</svg>
