<svg width="283" height="48" viewBox="0 0 283 48" fill="none" xmlns="http://www.w3.org/2000/svg">
<path d="M52.376 11.32V35H49.464V11.32H52.376ZM62.811 19.864V30.2C62.811 31.0533 62.9923 31.6613 63.355 32.024C63.7177 32.3653 64.347 32.536 65.243 32.536H67.387V35H64.763C63.1417 35 61.9257 34.6267 61.115 33.88C60.3043 33.1333 59.899 31.9067 59.899 30.2V19.864H57.627V17.464H59.899V13.048H62.811V17.464H67.387V19.864H62.811ZM75.7473 20.312C76.2593 19.3093 76.9846 18.5307 77.9233 17.976C78.8833 17.4213 80.0459 17.144 81.4113 17.144V20.152H80.6433C77.3793 20.152 75.7473 21.9227 75.7473 25.464V35H72.8353V17.464H75.7473V20.312ZM85.6047 26.168C85.6047 24.376 85.9674 22.808 86.6927 21.464C87.4181 20.0987 88.4101 19.0427 89.6687 18.296C90.9487 17.5493 92.3674 17.176 93.9247 17.176C95.4607 17.176 96.7941 17.5067 97.9247 18.168C99.0554 18.8293 99.8981 19.6613 100.453 20.664V17.464H103.397V35H100.453V31.736C99.8767 32.76 99.0127 33.6133 97.8607 34.296C96.7301 34.9573 95.4074 35.288 93.8927 35.288C92.3354 35.288 90.9274 34.904 89.6687 34.136C88.4101 33.368 87.4181 32.2907 86.6927 30.904C85.9674 29.5173 85.6047 27.9387 85.6047 26.168ZM100.453 26.2C100.453 24.8773 100.186 23.7253 99.6527 22.744C99.1194 21.7627 98.3941 21.016 97.4767 20.504C96.5807 19.9707 95.5887 19.704 94.5007 19.704C93.4127 19.704 92.4207 19.96 91.5247 20.472C90.6287 20.984 89.9141 21.7307 89.3807 22.712C88.8474 23.6933 88.5807 24.8453 88.5807 26.168C88.5807 27.512 88.8474 28.6853 89.3807 29.688C89.9141 30.6693 90.6287 31.4267 91.5247 31.96C92.4207 32.472 93.4127 32.728 94.5007 32.728C95.5887 32.728 96.5807 32.472 97.4767 31.96C98.3941 31.4267 99.1194 30.6693 99.6527 29.688C100.186 28.6853 100.453 27.5227 100.453 26.2ZM131.326 17.144C132.691 17.144 133.907 17.432 134.974 18.008C136.04 18.5627 136.883 19.4053 137.502 20.536C138.12 21.6667 138.43 23.0427 138.43 24.664V35H135.55V25.08C135.55 23.3307 135.112 21.9973 134.238 21.08C133.384 20.1413 132.222 19.672 130.75 19.672C129.235 19.672 128.03 20.1627 127.134 21.144C126.238 22.104 125.79 23.5013 125.79 25.336V35H122.91V25.08C122.91 23.3307 122.472 21.9973 121.598 21.08C120.744 20.1413 119.582 19.672 118.11 19.672C116.595 19.672 115.39 20.1627 114.494 21.144C113.598 22.104 113.15 23.5013 113.15 25.336V35H110.238V17.464H113.15V19.992C113.726 19.0747 114.494 18.3707 115.454 17.88C116.435 17.3893 117.512 17.144 118.686 17.144C120.158 17.144 121.459 17.4747 122.59 18.136C123.72 18.7973 124.563 19.768 125.118 21.048C125.608 19.8107 126.419 18.8507 127.55 18.168C128.68 17.4853 129.939 17.144 131.326 17.144ZM144.038 26.168C144.038 24.376 144.401 22.808 145.126 21.464C145.852 20.0987 146.844 19.0427 148.102 18.296C149.382 17.5493 150.801 17.176 152.358 17.176C153.894 17.176 155.228 17.5067 156.358 18.168C157.489 18.8293 158.332 19.6613 158.886 20.664V17.464H161.83V35H158.886V31.736C158.31 32.76 157.446 33.6133 156.294 34.296C155.164 34.9573 153.841 35.288 152.326 35.288C150.769 35.288 149.361 34.904 148.102 34.136C146.844 33.368 145.852 32.2907 145.126 30.904C144.401 29.5173 144.038 27.9387 144.038 26.168ZM158.886 26.2C158.886 24.8773 158.62 23.7253 158.086 22.744C157.553 21.7627 156.828 21.016 155.91 20.504C155.014 19.9707 154.022 19.704 152.934 19.704C151.846 19.704 150.854 19.96 149.958 20.472C149.062 20.984 148.348 21.7307 147.814 22.712C147.281 23.6933 147.014 24.8453 147.014 26.168C147.014 27.512 147.281 28.6853 147.814 29.688C148.348 30.6693 149.062 31.4267 149.958 31.96C150.854 32.472 151.846 32.728 152.934 32.728C154.022 32.728 155.014 32.472 155.91 31.96C156.828 31.4267 157.553 30.6693 158.086 29.688C158.62 28.6853 158.886 27.5227 158.886 26.2ZM171.583 20.312C172.095 19.3093 172.821 18.5307 173.759 17.976C174.719 17.4213 175.882 17.144 177.247 17.144V20.152H176.479C173.215 20.152 171.583 21.9227 171.583 25.464V35H168.671V17.464H171.583V20.312ZM181.441 26.168C181.441 24.376 181.804 22.808 182.529 21.464C183.254 20.0987 184.246 19.0427 185.505 18.296C186.785 17.5493 188.204 17.176 189.761 17.176C191.297 17.176 192.63 17.5067 193.761 18.168C194.892 18.8293 195.734 19.6613 196.289 20.664V17.464H199.233V35H196.289V31.736C195.713 32.76 194.849 33.6133 193.697 34.296C192.566 34.9573 191.244 35.288 189.729 35.288C188.172 35.288 186.764 34.904 185.505 34.136C184.246 33.368 183.254 32.2907 182.529 30.904C181.804 29.5173 181.441 27.9387 181.441 26.168ZM196.289 26.2C196.289 24.8773 196.022 23.7253 195.489 22.744C194.956 21.7627 194.23 21.016 193.313 20.504C192.417 19.9707 191.425 19.704 190.337 19.704C189.249 19.704 188.257 19.96 187.361 20.472C186.465 20.984 185.75 21.7307 185.217 22.712C184.684 23.6933 184.417 24.8453 184.417 26.168C184.417 27.512 184.684 28.6853 185.217 29.688C185.75 30.6693 186.465 31.4267 187.361 31.96C188.257 32.472 189.249 32.728 190.337 32.728C191.425 32.728 192.417 32.472 193.313 31.96C194.23 31.4267 194.956 30.6693 195.489 29.688C196.022 28.6853 196.289 27.5227 196.289 26.2ZM209.626 19.864V30.2C209.626 31.0533 209.807 31.6613 210.17 32.024C210.533 32.3653 211.162 32.536 212.058 32.536H214.202V35H211.578C209.957 35 208.741 34.6267 207.93 33.88C207.119 33.1333 206.714 31.9067 206.714 30.2V19.864H204.442V17.464H206.714V13.048H209.626V17.464H214.202V19.864H209.626ZM228.354 17.144C229.677 17.144 230.872 17.432 231.938 18.008C233.005 18.5627 233.837 19.4053 234.434 20.536C235.053 21.6667 235.362 23.0427 235.362 24.664V35H232.482V25.08C232.482 23.3307 232.045 21.9973 231.17 21.08C230.296 20.1413 229.101 19.672 227.586 19.672C226.05 19.672 224.824 20.152 223.906 21.112C223.01 22.072 222.562 23.4693 222.562 25.304V35H219.65V11.32H222.562V19.96C223.138 19.064 223.928 18.3707 224.93 17.88C225.954 17.3893 227.096 17.144 228.354 17.144ZM249.687 35.288C248.044 35.288 246.551 34.9147 245.207 34.168C243.884 33.4213 242.839 32.3653 242.071 31C241.324 29.6133 240.951 28.0133 240.951 26.2C240.951 24.408 241.335 22.8293 242.103 21.464C242.892 20.0773 243.959 19.0213 245.303 18.296C246.647 17.5493 248.151 17.176 249.815 17.176C251.479 17.176 252.983 17.5493 254.327 18.296C255.671 19.0213 256.727 20.0667 257.495 21.432C258.284 22.7973 258.679 24.3867 258.679 26.2C258.679 28.0133 258.274 29.6133 257.463 31C256.674 32.3653 255.596 33.4213 254.231 34.168C252.866 34.9147 251.351 35.288 249.687 35.288ZM249.687 32.728C250.732 32.728 251.714 32.4827 252.631 31.992C253.548 31.5013 254.284 30.7653 254.839 29.784C255.415 28.8027 255.703 27.608 255.703 26.2C255.703 24.792 255.426 23.5973 254.871 22.616C254.316 21.6347 253.591 20.9093 252.695 20.44C251.799 19.9493 250.828 19.704 249.783 19.704C248.716 19.704 247.735 19.9493 246.839 20.44C245.964 20.9093 245.26 21.6347 244.727 22.616C244.194 23.5973 243.927 24.792 243.927 26.2C243.927 27.6293 244.183 28.8347 244.695 29.816C245.228 30.7973 245.932 31.5333 246.807 32.024C247.682 32.4933 248.642 32.728 249.687 32.728ZM272.972 17.144C275.105 17.144 276.833 17.7947 278.156 19.096C279.478 20.376 280.14 22.232 280.14 24.664V35H277.26V25.08C277.26 23.3307 276.822 21.9973 275.948 21.08C275.073 20.1413 273.878 19.672 272.364 19.672C270.828 19.672 269.601 20.152 268.684 21.112C267.788 22.072 267.34 23.4693 267.34 25.304V35H264.428V17.464H267.34V19.96C267.916 19.064 268.694 18.3707 269.676 17.88C270.678 17.3893 271.777 17.144 272.972 17.144Z" fill="white"/>
<path d="M19.6633 44C16.0302 44 12.7156 43.1573 9.71927 41.4719C6.72297 39.749 4.34465 37.3707 2.58432 34.3369C0.861439 31.2657 0 27.8199 0 23.9997V4H5.22481V23.9997C5.22481 27.1083 5.8428 29.8424 7.07878 32.202C8.35221 34.5616 10.0751 36.3781 12.2474 37.6516C14.4572 38.925 16.9291 39.5617 19.6633 39.5617C22.3974 39.5617 24.8506 38.925 27.023 37.6516C29.2327 36.3781 30.9556 34.5616 32.1916 32.202C33.465 29.8424 34.1017 27.1083 34.1017 23.9997V4H39.3265V23.9997C39.3265 27.8574 38.4651 31.3031 36.7422 34.3369C35.0193 37.3707 32.6598 39.749 29.6634 41.4719C26.6671 43.1573 23.3337 44 19.6633 44Z" fill="white"/>
</svg>
