<svg width="129" height="48" viewBox="0 0 129 48" fill="none" xmlns="http://www.w3.org/2000/svg">
<path fill-rule="evenodd" clip-rule="evenodd" d="M38.9335 10.0495C39.9694 11.0854 40.1805 12.6372 39.569 13.8842C43.6985 18.6905 43.4867 25.9661 38.9337 30.5192L34.8631 34.5897C35.4567 35.8314 35.2391 37.3625 34.2097 38.3919C32.9078 39.6946 30.7887 39.6946 29.486 38.3919C28.1811 37.0863 28.1804 34.9738 29.486 33.6682C30.5126 32.6424 32.0461 32.4249 33.2871 33.0165H33.2872L37.3591 28.9445C41.0001 25.3036 41.2473 19.5352 38.1023 15.6044L36.6273 17.0795C36.1507 16.0782 35.4983 15.1399 34.6707 14.3123C33.8535 13.4951 32.9204 12.8367 31.9087 12.3513L33.4225 10.837L31.848 9.26251L31.0608 10.0497C30.626 10.4845 29.921 10.4846 29.4862 10.0497C29.0514 9.61493 29.0514 8.90993 29.4862 8.47519C30.6137 7.34777 31.5075 6.45395 32.6354 5.32608C33.0703 4.89127 33.7753 4.89134 34.21 5.32608C34.6448 5.7609 34.6448 6.4659 34.21 6.90064L33.4226 7.68795L35.1326 9.39789C36.3742 8.80676 37.9075 9.0235 38.9335 10.0495ZM33.0964 15.8867C36.1357 18.9261 36.1349 23.8706 33.0964 26.9092L32.3103 27.6967L21.2878 16.6742L22.0738 15.8874C25.1336 12.8276 30.0635 12.8538 33.0964 15.8867ZM8.28412 40.7213C5.23863 37.675 5.23863 32.7449 8.28412 29.6987L9.07091 28.9104L20.0927 39.933L19.3067 40.7205C16.2679 43.7593 11.3237 43.7601 8.28412 40.7213ZM19.7142 18.2501L10.6445 27.3353L21.6663 38.3571L30.7367 29.2726L19.7142 18.2501Z" fill="white"/>
<path d="M62.26 17.04C63.7267 17.04 65.0133 17.3267 66.12 17.9C67.24 18.4733 68.1 19.2933 68.7 20.36C69.3133 21.4133 69.62 22.64 69.62 24.04C69.62 25.44 69.3133 26.6667 68.7 27.72C68.1 28.76 67.24 29.5667 66.12 30.14C65.0133 30.7133 63.7267 31 62.26 31H57.38V17.04H62.26ZM62.16 28.62C63.6267 28.62 64.76 28.22 65.56 27.42C66.36 26.62 66.76 25.4933 66.76 24.04C66.76 22.5867 66.36 21.4533 65.56 20.64C64.76 19.8133 63.6267 19.4 62.16 19.4H60.18V28.62H62.16ZM75.1159 17.04V31H72.3159V17.04H75.1159ZM91.0223 17.04L85.9023 31H82.5023L77.3823 17.04H80.3823L84.2223 28.14L88.0423 17.04H91.0223ZM96.1011 17.04V31H93.3011V17.04H96.1011ZM111.408 31H108.608L102.268 21.42V31H99.4675V17.02H102.268L108.608 26.62V17.02H111.408V31ZM124.495 21.24C124.175 20.6533 123.735 20.2067 123.175 19.9C122.615 19.5933 121.961 19.44 121.215 19.44C120.388 19.44 119.655 19.6267 119.015 20C118.375 20.3733 117.875 20.9067 117.515 21.6C117.155 22.2933 116.975 23.0933 116.975 24C116.975 24.9333 117.155 25.7467 117.515 26.44C117.888 27.1333 118.401 27.6667 119.055 28.04C119.708 28.4133 120.468 28.6 121.335 28.6C122.401 28.6 123.275 28.32 123.955 27.76C124.635 27.1867 125.081 26.3933 125.295 25.38H120.495V23.24H128.055V25.68C127.868 26.6533 127.468 27.5533 126.855 28.38C126.241 29.2067 125.448 29.8733 124.475 30.38C123.515 30.8733 122.435 31.12 121.235 31.12C119.888 31.12 118.668 30.82 117.575 30.22C116.495 29.6067 115.641 28.76 115.015 27.68C114.401 26.6 114.095 25.3733 114.095 24C114.095 22.6267 114.401 21.4 115.015 20.32C115.641 19.2267 116.495 18.38 117.575 17.78C118.668 17.1667 119.881 16.86 121.215 16.86C122.788 16.86 124.155 17.2467 125.315 18.02C126.475 18.78 127.275 19.8533 127.715 21.24H124.495Z" fill="white"/>
</svg>
