<svg width="69" height="60" viewBox="0 0 69 60" fill="none" xmlns="http://www.w3.org/2000/svg">
<path d="M28.2812 14.0173C20.4074 14.0173 14.0016 20.4313 14.0016 28.3152C14.0016 36.199 20.4074 42.613 28.2812 42.613C36.1549 42.613 42.5607 36.199 42.5607 28.3152C42.5607 20.4313 36.1551 14.0173 28.2812 14.0173ZM28.2812 36.2759C23.8903 36.2759 20.3307 32.7117 20.3307 28.3152C20.3307 23.9187 23.8903 20.3545 28.2812 20.3545C32.6721 20.3545 36.2316 23.9187 36.2316 28.3152C36.2316 32.7117 32.6722 36.2759 28.2812 36.2759Z" fill="#EE422B"/>
<path d="M66.7674 28.1639L68.6403 24.2391C68.839 23.8229 68.8101 23.334 68.5642 22.944C68.3181 22.554 67.8892 22.3174 67.4281 22.3174H57.8106C57.3164 22.3174 56.8622 22.5887 56.6279 23.0237L56.2043 23.8104C54.043 10.3306 42.3442 0 28.281 0C12.6868 0 0 12.7023 0 28.3155C0 38.8969 5.82702 48.1411 14.437 53.0008L9.73597 57.7077C9.21173 58.2326 9.2124 59.083 9.73718 59.6073C9.99937 59.8692 10.3428 60 10.6863 60C11.0303 60 11.3744 59.8686 11.6367 59.6059L16.9692 54.2667C20.435 55.787 24.2614 56.631 28.281 56.631C32.3006 56.631 36.1271 55.787 39.5929 54.2667L44.9253 59.6059C45.1876 59.8686 45.5316 60 45.8756 60C46.219 60 46.5625 59.869 46.8247 59.6073C47.3496 59.083 47.3501 58.2326 46.8259 57.7077L42.1251 53.0008C49.5543 48.8076 54.9115 41.3498 56.2411 32.5855L56.6281 33.3041C56.8623 33.7392 57.3166 34.0105 57.8107 34.0105H67.4281C67.8892 34.0105 68.3181 33.774 68.5642 33.3839C68.8101 32.9938 68.839 32.5049 68.6403 32.0888L66.7674 28.1639ZM28.281 53.9446C14.1681 53.9446 2.68638 42.4475 2.68638 28.3155C2.68638 14.1835 14.1681 2.68638 28.281 2.68638C41.8927 2.68638 53.0569 13.3817 53.8326 26.8207H50.1826C49.4126 15.3963 39.8837 6.3373 28.2811 6.3373C16.1768 6.3373 6.32924 16.1967 6.32924 28.3156C6.32924 40.4346 16.1768 50.2938 28.2811 50.2938C39.9862 50.2938 49.5809 41.0741 50.201 29.507H53.8483C53.2246 43.088 41.9951 53.9446 28.281 53.9446ZM37.4547 26.8207C36.7382 22.3986 32.8973 19.0118 28.281 19.0118C23.1565 19.0118 18.9873 23.1855 18.9873 28.3156C18.9873 33.4458 23.1565 37.6195 28.281 37.6195C33.0023 37.6195 36.9127 34.0767 37.4988 29.5072H47.5101C46.8934 39.592 38.5045 47.6076 28.281 47.6076C17.658 47.6076 9.01549 38.9533 9.01549 28.3158C9.01549 17.6781 17.658 9.02381 28.281 9.02381C38.4018 9.02381 46.7247 16.8791 47.4893 26.8208H37.4547V26.8207ZM28.281 29.507H34.7808C34.219 32.5893 31.5182 34.933 28.281 34.933C24.6377 34.933 21.6737 31.9644 21.6737 28.3155C21.6737 24.6666 24.6377 21.698 28.281 21.698C31.4112 21.698 34.0398 23.8893 34.7182 26.8205H28.281C27.5391 26.8205 26.9378 27.4219 26.9378 28.1637C26.9378 28.9057 27.5391 29.507 28.281 29.507ZM64.0669 28.7422L65.2989 31.324H58.613L56.9113 28.1639L58.613 25.0037H65.2989L64.0669 27.5853C63.8923 27.9512 63.8923 28.3764 64.0669 28.7422Z" fill="white"/>
</svg>
