<svg width="37" height="60" viewBox="0 0 37 60" fill="none" xmlns="http://www.w3.org/2000/svg">
<path d="M24.4214 32.5622C27.8299 29.1537 27.8299 23.6273 24.4214 20.2188C21.0128 16.8103 15.4865 16.8103 12.078 20.2188C8.66942 23.6273 8.66942 29.1537 12.078 32.5622C15.4865 35.9707 21.0128 35.9707 24.4214 32.5622Z" fill="#EE422B"/>
<path d="M35.8712 38.0076L31.1565 35.6019C31.8314 31.6397 32.3552 27.5604 32.3552 24.4424C32.3552 15.6703 28.6873 9.53737 25.6101 5.93713C22.2745 2.03455 18.9519 0.21627 18.812 0.140801C18.4645 -0.0469336 18.0459 -0.0469336 17.6985 0.140801C17.5587 0.216153 14.2359 2.03455 10.9003 5.93713C7.82318 9.53737 4.15521 15.6703 4.15521 24.4424C4.15521 27.5602 4.67892 31.6395 5.35392 35.6019L0.639345 38.0076C0.175985 38.2441 -0.0759687 38.7575 0.0203595 39.2687L2.64396 53.1793C2.71696 53.566 2.97911 53.8903 3.34204 54.0427C3.48782 54.1038 3.64204 54.1339 3.79544 54.1339C4.02419 54.1339 4.25142 54.067 4.44712 53.936L9.67838 50.4366H12.6585C12.5727 50.8331 12.5288 51.2399 12.5288 51.6503C12.5288 54.4989 16.6006 58.8114 17.417 59.647C17.6375 59.8727 17.9397 60 18.2552 60C18.5707 60 18.873 59.8727 19.0935 59.647C19.9098 58.8114 23.9816 54.4987 23.9816 51.6503C23.9816 51.2399 23.9378 50.8331 23.852 50.4366H26.8321L32.0634 53.936C32.2593 54.0669 32.4864 54.1339 32.7151 54.1339C32.8686 54.1339 33.0229 54.1038 33.1685 54.0427C33.5314 53.8903 33.7936 53.566 33.8666 53.1793L36.4902 39.2687C36.5866 38.7575 36.3346 38.2441 35.8712 38.0076ZM12.621 7.53183C14.9072 4.83803 17.2226 3.20069 18.2553 2.54057C19.289 3.20127 21.6039 4.83838 23.8897 7.53183C24.5564 8.31745 25.1692 9.12745 25.7278 9.96101H10.7829C11.3414 9.12745 11.9542 8.31745 12.621 7.53183ZM9.38763 12.3048H27.123C29.0425 15.9662 30.0115 20.0291 30.0115 24.4424C30.0115 31.6064 27.0062 44.5957 26.1646 48.0928H10.3461C9.50435 44.5962 6.49919 31.609 6.49919 24.4424C6.49919 20.0291 7.46822 15.9662 9.38763 12.3048ZM2.48634 39.6964L5.78482 38.0133C6.6615 42.7166 7.6488 46.9203 8.07748 48.6879L4.61857 51.0017L2.48634 39.6964ZM21.638 51.6504C21.638 52.8396 19.8634 55.2923 18.2553 57.1061C16.6471 55.2923 14.8727 52.8395 14.8727 51.6504C14.8727 51.2326 14.9494 50.8215 15.0971 50.4367H21.4137C21.5613 50.8215 21.638 51.2326 21.638 51.6504ZM31.8922 51.0017L28.4333 48.688C28.862 46.9206 29.8492 42.7167 30.726 38.0134L34.0245 39.6965L31.8922 51.0017Z" fill="white"/>
<path d="M18.255 30.1327C20.3186 30.1327 21.9975 28.4538 21.9975 26.3901C21.9975 24.3264 20.3186 22.6477 18.255 22.6477C16.1915 22.6477 14.5125 24.3265 14.5125 26.3902C14.5125 28.4539 16.1915 30.1327 18.255 30.1327ZM18.255 24.9915C19.0263 24.9915 19.6538 25.619 19.6538 26.3902C19.6538 27.1615 19.0263 27.7891 18.255 27.7891C17.4837 27.7891 16.8563 27.1615 16.8563 26.3902C16.8563 25.6189 17.4837 24.9915 18.255 24.9915Z" fill="white"/>
</svg>
