<svg width="50" height="60" viewBox="0 0 50 60" fill="none" xmlns="http://www.w3.org/2000/svg">
<path d="M46.6882 50.4812H41.4894C40.8422 50.4812 40.3175 49.9565 40.3175 49.3094C40.3175 48.6623 40.8422 48.1375 41.4894 48.1375H46.6881C47.1845 48.1375 47.5884 47.7336 47.5884 47.237V3.2441C47.5884 2.74769 47.1846 2.34375 46.6881 2.34375H12.7699C12.2734 2.34375 11.8695 2.74757 11.8695 3.2441V7.83163C11.8695 8.47874 11.3449 9.0035 10.6976 9.0035C10.0504 9.0035 9.52576 8.47874 9.52576 7.83163V3.2441C9.52564 1.45523 10.981 0 12.7699 0H46.6882C48.4771 0 49.9323 1.45523 49.9323 3.2441V47.2371C49.9322 49.0259 48.4769 50.4812 46.6882 50.4812Z" fill="white"/>
<path d="M41.9257 5.93115H8.0074C6.86295 5.93115 5.93518 6.85892 5.93518 8.00338V10.2454L6.27678 10.6905H30.6339L39.235 19.2851V53.6257L39.5751 54.0686H41.9257C43.0702 54.0686 43.998 53.1409 43.998 51.9964V8.00338C43.998 6.85892 43.0702 5.93115 41.9257 5.93115Z" fill="#EE422B"/>
<path d="M40.4065 19.2527C40.4065 18.9517 40.2802 18.6649 40.0633 18.4563C40.0632 18.4562 40.0631 18.4561 40.0631 18.4561C40.0631 18.4561 31.4494 9.84926 31.4432 9.84316L31.4328 9.83344C31.2159 9.63105 30.9303 9.51855 30.6336 9.51855H3.24492C1.45277 9.51855 0 10.9713 0 12.7635V56.7565C0 58.5477 1.45207 59.9999 3.24339 59.9999H37.1617C38.9538 59.9999 40.4065 58.5471 40.4065 56.755V19.2908C40.4065 19.2905 40.4065 19.2763 40.4065 19.2527ZM36.404 18.1131H31.8055V13.5179L36.404 18.1131ZM37.1617 57.6561H3.24492C2.74804 57.6561 2.34375 57.2526 2.34375 56.7564V12.7618C2.34375 12.2658 2.74804 11.8622 3.24492 11.8622H29.4617V19.2849C29.4617 19.9321 29.9865 20.4568 30.6336 20.4568H38.0628V56.7564C38.0628 57.2526 37.6586 57.6561 37.1617 57.6561Z" fill="white"/>
</svg>
