<svg width="80" height="80" viewBox="0 0 80 80" fill="none" xmlns="http://www.w3.org/2000/svg">
<path d="M80 40C80 62.0914 62.0914 80 40 80C17.9086 80 0 62.0914 0 40C0 17.9086 17.9086 0 40 0C62.0914 0 80 17.9086 80 40Z" fill="#F4F4F4"/>
<path d="M39.6899 13.6001C37.5456 13.6099 35.4981 13.7928 33.6967 14.1118C28.3892 15.0497 27.4256 17.0121 27.4256 20.6317V25.412H39.9677V27.0053H22.7183C19.0734 27.0053 15.8812 29.1963 14.883 33.3643C13.7313 38.1417 13.6803 41.1229 14.883 46.1113C15.7746 49.8245 17.9039 52.4703 21.5489 52.4703H25.8613V46.74C25.8613 42.6001 29.4431 38.9486 33.6967 38.9486H46.2243C49.7116 38.9486 52.4954 36.0774 52.4954 32.5751V20.6313C52.4954 17.2324 49.6279 14.6788 46.2243 14.1114C44.0692 13.753 41.8342 13.5898 39.6899 13.6001ZM32.907 17.4443C34.2028 17.4443 35.2604 18.5197 35.2604 19.8417C35.2604 21.1589 34.2023 22.2245 32.907 22.2245C31.6071 22.2245 30.5536 21.1594 30.5536 19.8417C30.5536 18.5197 31.6071 17.4443 32.907 17.4443Z" fill="#5A9FD4"/>
<path d="M54.0637 27.0049V32.5743C54.0637 36.8924 50.4029 40.5266 46.2284 40.5266H33.7008C30.2691 40.5266 27.4297 43.4633 27.4297 46.9001V58.843C27.4297 62.2423 30.3851 64.2416 33.7008 65.2165C37.6708 66.3841 41.4781 66.595 46.2284 65.2165C49.3859 64.3024 52.4995 62.4622 52.4995 58.843V54.0632H39.9718V52.4699H58.7705C62.4159 52.4699 63.7739 49.9271 65.0416 46.1109C66.3514 42.1825 66.2957 38.4038 65.0416 33.3639C64.1406 29.7353 62.4201 27.0049 58.7705 27.0049H54.0637ZM47.0175 57.2497C48.3175 57.2497 49.3709 58.3148 49.3709 59.6326C49.3709 60.9545 48.3175 62.03 47.0175 62.03C45.7218 62.03 44.6641 60.9545 44.6641 59.6326C44.6641 58.3153 45.7222 57.2497 47.0175 57.2497Z" fill="#FFD43B"/>
</svg>
