<svg width="150" height="150" viewBox="0 0 150 150" fill="none" xmlns="http://www.w3.org/2000/svg">
<path d="M0 0H73.0559V25.576H0V0ZM0 47.4798V73.0559H73.0559V47.4798H0Z" fill="#E2F3FF"/>
<path d="M76.9014 36.5495C76.9014 56.7252 93.2752 73.0991 113.451 73.0991C133.627 73.0991 150 56.7252 150 36.5495C150 16.3738 133.627 0 113.451 0C93.2752 0 76.9014 16.3738 76.9014 36.5495ZM135.398 36.5495C135.398 48.6463 125.591 58.4533 113.494 58.4533C101.397 58.4533 91.5903 48.6463 91.5903 36.5495C91.5903 24.4528 101.397 14.6457 113.494 14.6457C125.548 14.6025 135.398 24.4096 135.398 36.5495Z" fill="#F36573"/>
<path d="M25.792 76.9009H42.9867L0 119.888V102.693L25.792 76.9009ZM68.7788 76.9009H51.5841L0 128.485V145.68L68.7788 76.9009ZM73.0559 98.4159V81.2212L4.27707 150H21.4718L73.0559 98.4159ZM73.0559 150V132.805L55.8612 150H73.0559ZM73.0559 124.208V107.013L30.0691 150H47.2638L73.0559 124.208ZM17.1947 76.9009H0V94.0956L17.1947 76.9009Z" fill="#FFEEE4"/>
<path d="M150 102.693V119.888L107.014 76.9009H124.208L150 102.693ZM150 145.68V128.485L98.4163 76.9009H81.2216L150 145.68ZM128.485 150H145.68L76.9014 81.2212V98.4159L128.485 150ZM76.9014 150H94.0961L76.9014 132.805V150ZM102.693 150H119.888L76.9014 107.013V124.208L102.693 150ZM150 94.0956V76.9009H132.806L150 94.0956Z" fill="#376CBB"/>
</svg>
