<svg width="64" height="64" viewBox="0 0 64 64" fill="none" xmlns="http://www.w3.org/2000/svg">
<path d="M39.5632 40.0347C39.6745 38.8648 39.6409 37.6992 39.4718 36.5612L42.1024 35.3886C41.8539 34.1143 41.4631 32.8572 40.9213 31.6407C40.3794 30.425 39.7065 29.2939 38.9265 28.256L36.2941 29.4277C35.5616 28.5416 34.7178 27.7375 33.774 27.0369L34.8058 24.3484C33.7282 23.6237 32.5635 23.0111 31.3202 22.534C30.0821 22.0586 28.8104 21.7299 27.517 21.5479L26.4843 24.2389C25.3144 24.1276 24.1487 24.1612 23.0107 24.3303L21.8451 21.7126C19.2412 22.2243 16.8082 23.3286 14.7194 24.9067L15.8772 27.5071C14.9894 28.2396 14.1853 29.0843 13.4847 30.0273L10.8032 28.9989C10.0715 30.0739 9.45811 31.2395 8.98012 32.4819C8.50645 33.7243 8.18205 34.9995 8 36.2842L10.6884 37.3161C10.5771 38.486 10.6108 39.6517 10.7799 40.7897L8.14926 41.9613C8.39774 43.2365 8.78858 44.4927 9.33041 45.7093C9.8731 46.9258 10.5452 48.056 11.326 49.094L13.9567 47.9223C14.6892 48.8092 15.533 49.6134 16.4777 50.3139L15.4458 53.0041C16.5234 53.7297 17.6882 54.3414 18.9315 54.8185C20.1696 55.2939 21.4413 55.6227 22.7346 55.8047L23.7674 53.1137C24.9373 53.2241 26.1029 53.1905 27.241 53.0214L28.4066 55.6382C31.0105 55.1266 33.4452 54.0222 35.5332 52.4442L34.3745 49.8437C35.2614 49.1112 36.0664 48.2674 36.767 47.3235L39.4468 48.352C40.1784 47.2769 40.7918 46.1113 41.2698 44.8698C41.7469 43.6274 42.0705 42.3513 42.2525 41.0658L39.5632 40.0347ZM32.4168 41.473C30.8716 45.5005 26.3549 47.5108 22.3265 45.9655C18.3034 44.4211 16.2905 39.9053 17.8349 35.8787C19.3801 31.8521 23.8968 29.8418 27.9226 31.3853C31.9492 32.9297 33.9612 37.4472 32.4168 41.473Z" fill="#F4F4F4"/>
<path d="M54.1287 18.5959C54.1287 18.0747 54.0753 17.5648 53.9838 17.0696L56.0001 15.9048C55.5118 14.0481 54.542 12.3855 53.2159 11.0724L51.1944 12.2397C50.4231 11.5788 49.5292 11.0612 48.5517 10.716V8.38394C47.6613 8.13977 46.7286 8 45.7632 8C44.7977 8 43.8659 8.1415 42.9747 8.38394V10.7169C41.9971 11.062 41.1042 11.5806 40.332 12.2406L38.3096 11.0732C36.9852 12.3864 36.0146 14.049 35.5254 15.9057L37.5426 17.0705C37.4511 17.5666 37.3968 18.0747 37.3968 18.5967C37.3968 19.1187 37.4511 19.6277 37.5426 20.123L35.5254 21.2877C36.0146 23.1445 36.9852 24.8079 38.3096 26.1202L40.3311 24.9528C41.1033 25.6137 41.9963 26.1314 42.9738 26.4765V28.8095C43.8651 29.0528 44.7969 29.1934 45.7623 29.1934C46.7278 29.1934 47.6613 29.0519 48.5508 28.8095V26.4765C49.5284 26.1314 50.4222 25.6129 51.1936 24.9528L53.2151 26.1202C54.5412 24.807 55.5109 23.1445 55.9993 21.2877L53.9829 20.123C54.0753 19.626 54.1287 19.1178 54.1287 18.5959ZM45.7641 22.5008C43.6071 22.5008 41.8582 20.7528 41.8582 18.5967C41.8582 16.4406 43.6071 14.6918 45.7641 14.6918C47.9184 14.6918 49.6673 16.4398 49.6673 18.5959C49.6673 20.752 47.9184 22.5008 45.7641 22.5008Z" fill="#F4F4F4"/>
</svg>
