<svg width="64" height="64" viewBox="0 0 64 64" fill="none" xmlns="http://www.w3.org/2000/svg">
<path fill-rule="evenodd" clip-rule="evenodd" d="M27.6879 13.7187C27.6879 10.6165 30.3043 8 33.4066 8C36.5089 8 39.0316 10.6165 39.0316 13.7187C39.0316 16.821 36.5089 19.4375 33.4066 19.4375C30.3043 19.4375 27.6879 16.821 27.6879 13.7187ZM33.4066 22.25C35.8906 22.25 38.1041 21.1511 39.6496 19.4375C40.9988 20.9336 41.8441 22.8937 41.8441 25.0625V26.4687C41.8441 27.246 41.2151 27.875 40.4378 27.875H26.2816C25.5043 27.875 24.8754 27.246 24.8754 26.4687V25.0625C24.8754 22.8937 25.7206 20.9336 27.0699 19.4375C28.6153 21.1511 30.9226 22.25 33.4066 22.25ZM21.5864 51.1628L14.42 36.7951C13.7281 35.4077 12.044 34.8419 10.6549 35.5302L8.78183 36.458C8.08443 36.8039 7.80065 37.6514 8.14874 38.3476L16.5862 55.2226C16.9332 55.9185 17.7772 56.1954 18.469 55.8543L20.3179 54.9383C21.7125 54.2475 22.2809 52.5554 21.5864 51.1628ZM51.1348 31.5875C52.091 30.5468 53.6941 30.3781 54.8473 31.2218C56.1128 32.15 56.366 33.9499 55.4378 35.1874L47.188 46.9999C45.613 49.1093 43.0816 50.3749 40.4379 50.3749H26.7034H24.3364L16.343 34.3465L18.377 32.5565L18.4187 32.5903C19.6708 31.5986 20.9054 30.859 22.7361 30.4347C26.0333 29.6705 29.2902 30.6138 31.466 32.5717C31.5551 32.6497 31.6389 32.7266 31.7197 32.8008C32.1405 33.1872 32.4812 33.4999 33.0691 33.4999H40.4379C41.9847 33.4999 43.2504 34.7656 43.2504 36.3124C43.2504 37.8593 41.9847 39.1249 40.4379 39.1249H34.8129C34.0253 39.1249 33.4066 39.7436 33.4066 40.5312C33.4066 41.3188 34.0253 41.9374 34.8129 41.9374H41.3661C41.9005 41.9374 42.913 41.5999 43.4473 41.0374L51.1348 31.5875Z" fill="#F4F4F4"/>
</svg>
