<svg width="64" height="64" viewBox="0 0 64 64" fill="none" xmlns="http://www.w3.org/2000/svg">
<path fill-rule="evenodd" clip-rule="evenodd" d="M27.0432 38.7777C27.0007 38.7951 26.9585 38.8099 26.9159 38.8219C25.9284 38.925 25.0682 38.0598 25.1817 37.0699C25.1934 37.0324 25.2068 36.9949 25.2219 36.9574L27.0017 32.4971L27.6727 30.871C27.807 30.5455 27.9831 30.2401 28.1961 29.9615L34.0401 35.8055C33.7618 36.0185 33.4564 36.1953 33.1309 36.3292L31.7212 36.9105L27.0432 38.7777ZM55.5894 14.3905L53.0022 16.9783L52.959 16.9341L47.0658 11.0405L47.0223 10.9977L49.6098 8.40987C50.1573 7.86338 51.0447 7.86338 51.5921 8.40987L55.5894 12.4081C56.1369 12.9559 56.1369 13.8426 55.5894 14.3905ZM45.0835 13.0229L50.9773 18.9165L36.0473 33.8486L30.1534 27.955L37.5648 20.5425L37.6234 20.4836L37.6311 20.4756L37.7289 20.3778L45.0835 13.0229ZM9.21487 24.8087H29.1665L27.0519 26.9236L26.4354 27.5398C25.7998 28.176 25.2959 28.9301 24.953 29.7619L22.5768 35.5229C22.2996 36.1939 22.1988 36.8663 22.242 37.5066C22.2734 37.9687 22.3799 38.4134 22.549 38.8286H15.1885C14.3664 38.8286 13.7 39.4555 13.7 40.2297C13.7 41.0039 14.3664 41.6321 15.1885 41.6321H26.6015C26.7324 41.6321 26.8593 41.616 26.9806 41.5852C27.4179 41.5477 27.8649 41.4419 28.312 41.257L34.0722 38.8808C34.903 38.5379 35.6581 38.0343 36.2937 37.3981L44.6301 29.0614V54.6166C44.6301 55.2877 44.0859 55.8315 43.4152 55.8315H9.21487C8.54381 55.8315 8 55.2877 8 54.6166V26.0235C8 25.3525 8.54381 24.8087 9.21487 24.8087ZM13.7 45.8741C13.7 45.0999 14.3275 44.473 15.1017 44.473H37.6214C38.3956 44.473 39.0232 45.0999 39.0232 45.8741C39.0232 46.6483 38.3956 47.2765 37.6214 47.2765H15.1017C14.3275 47.2765 13.7 46.6483 13.7 45.8741Z" fill="#F4F4F4"/>
</svg>
