<svg width="51" height="51" viewBox="0 0 51 51" fill="none" xmlns="http://www.w3.org/2000/svg">
<mask id="mask0" mask-type="alpha" maskUnits="userSpaceOnUse" x="0" y="0" width="51" height="51">
<rect width="51" height="51" fill="#C4C4C4"/>
</mask>
<g mask="url(#mask0)">
<path d="M9.22335 8.30964C9.22335 7.80203 9.62944 7.4467 10.0863 7.4467H42.7766C43.2843 7.4467 43.6396 7.85279 43.6396 8.30964C43.6396 8.81726 43.2335 9.17259 42.7766 9.17259H10.0863C9.62944 9.22335 9.22335 8.81726 9.22335 8.30964ZM10.0863 13.8426H42.7766C43.2843 13.8426 43.6396 13.4365 43.6396 12.9797C43.6396 12.4721 43.2335 12.1168 42.7766 12.1168H10.0863C9.57868 12.1168 9.22335 12.5228 9.22335 12.9797C9.22335 13.4365 9.62944 13.8426 10.0863 13.8426ZM43.6904 17.599C43.6904 17.0914 43.2843 16.736 42.8274 16.736H10.0863C9.57868 16.736 9.22335 17.1421 9.22335 17.599C9.22335 18.1066 9.62944 18.4619 10.0863 18.4619H42.7766C43.2843 18.4619 43.6904 18.0558 43.6904 17.599ZM4.90863 21.3553V4.50254H2.77665C1.76142 4.50254 1 3.74112 1 2.77665C1 1.76142 1.76142 1 2.77665 1H39.0711C45.67 1 51 6.32995 51 12.9289C51 19.5279 45.67 24.8579 39.0711 24.8579H2.77665C1.76142 24.8579 1 24.0964 1 23.132C1 22.1675 1.76142 21.3553 2.77665 21.3553H4.90863ZM6.68528 21.3553H39.0711C43.7411 21.3553 47.4975 17.599 47.4975 12.9289C47.4975 8.25888 43.7411 4.50254 39.0711 4.50254H6.68528V21.3553ZM42.7766 32.5736H10.0863C9.57868 32.5736 9.22335 32.9797 9.22335 33.4365C9.22335 33.9442 9.62944 34.2995 10.0863 34.2995H42.7766C43.2843 34.2995 43.6396 33.8934 43.6396 33.4365C43.6904 32.9289 43.2843 32.5736 42.7766 32.5736ZM42.7766 37.1929H10.0863C9.57868 37.1929 9.22335 37.599 9.22335 38.0558C9.22335 38.5635 9.62944 38.9188 10.0863 38.9188H42.7766C43.2843 38.9188 43.6396 38.5127 43.6396 38.0558C43.6904 37.5482 43.2843 37.1929 42.7766 37.1929ZM42.7766 41.8122H10.0863C9.57868 41.8122 9.22335 42.2183 9.22335 42.6751C9.22335 43.1827 9.62944 43.5381 10.0863 43.5381H42.7766C43.2843 43.5381 43.6396 43.132 43.6396 42.6751C43.6904 42.1675 43.2843 41.8122 42.7766 41.8122ZM51 38.0051C51 44.6041 45.67 49.934 39.0711 49.934H2.77665C1.76142 49.9848 1 49.1726 1 48.2081C1 47.2437 1.76142 46.4315 2.77665 46.4315H4.95939V29.5787H2.77665C1.81218 29.5787 1 28.8173 1 27.802C1 26.8376 1.76142 26.0254 2.77665 26.0254H39.0711C45.67 26.0761 51 31.4569 51 38.0051ZM47.4975 38.0051C47.4975 33.335 43.7411 29.5787 39.0711 29.5787H6.68528V46.4315H39.0711C43.7411 46.4822 47.4975 42.6751 47.4975 38.0051Z" fill="white"/>
</g>
</svg>
