<svg width="110" height="110" viewBox="0 0 110 110" fill="none" xmlns="http://www.w3.org/2000/svg">
<path d="M78.8335 36.6668H75.1668C74.1548 36.6668 73.3335 37.4881 73.3335 38.5C73.3335 39.512 74.1548 40.3333 75.1668 40.3333H78.8335C79.8454 40.3333 80.6668 39.512 80.6668 38.5C80.6668 37.4881 79.8456 36.6668 78.8335 36.6668Z" fill="#898888"/>
<path d="M78.8335 44H75.1668C74.1548 44 73.3335 44.8214 73.3335 45.8333C73.3335 46.8452 74.1548 47.6665 75.1668 47.6665H78.8335C79.8454 47.6665 80.6668 46.8452 80.6668 45.8333C80.667 44.8214 79.8456 44 78.8335 44Z" fill="#898888"/>
<path d="M78.8335 29.3333H75.1668C74.1548 29.3333 73.3335 30.1546 73.3335 31.1666C73.3335 32.1785 74.1548 32.9998 75.1668 32.9998H78.8335C79.8454 32.9998 80.6668 32.1785 80.6668 31.1666C80.667 30.1546 79.8456 29.3333 78.8335 29.3333Z" fill="#898888"/>
<path d="M78.8335 88H75.1668C74.1548 88 73.3335 88.8213 73.3335 89.8332C73.3335 90.8451 74.1548 91.6665 75.1668 91.6665H78.8335C79.8454 91.6665 80.6668 90.8451 80.6668 89.8332C80.6668 88.8213 79.8456 88 78.8335 88Z" fill="#898888"/>
<path d="M38.5003 29.3333H27.5003C26.4883 29.3333 25.667 30.1546 25.667 31.1666V56.8333C25.667 57.8452 26.4883 58.6666 27.5003 58.6666H38.5003C39.5122 58.6666 40.3335 57.8452 40.3335 56.8333V31.1668C40.3335 30.1546 39.5122 29.3333 38.5003 29.3333ZM36.667 55H29.3337V33H36.667V55Z" fill="#898888"/>
<path d="M38.5003 88H27.5003C26.4883 88 25.667 88.8213 25.667 89.8332C25.667 90.8451 26.4883 91.6665 27.5003 91.6665H38.5003C39.5122 91.6665 40.3335 90.8451 40.3335 89.8332C40.3335 88.8213 39.5122 88 38.5003 88Z" fill="#898888"/>
<path d="M38.5003 95.3333H27.5003C26.4883 95.3333 25.667 96.1547 25.667 97.1666C25.667 98.1785 26.4883 98.9998 27.5003 98.9998H38.5003C39.5122 98.9998 40.3335 98.1785 40.3335 97.1666C40.3335 96.1547 39.5122 95.3333 38.5003 95.3333Z" fill="#898888"/>
<path d="M78.8335 95.3333H75.1668C74.1548 95.3333 73.3335 96.1547 73.3335 97.1666C73.3335 98.1785 74.1548 98.9998 75.1668 98.9998H78.8335C79.8454 98.9998 80.6668 98.1785 80.6668 97.1666C80.667 96.1547 79.8456 95.3333 78.8335 95.3333Z" fill="#898888"/>
<path d="M100.833 95.3333H93.4998C92.4879 95.3333 91.6665 96.1547 91.6665 97.1666C91.6665 98.1785 92.4879 98.9998 93.4998 98.9998H100.833C101.845 98.9998 102.666 98.1785 102.666 97.1666C102.667 96.1547 101.845 95.3333 100.833 95.3333Z" fill="#898888"/>
<path d="M62.3333 31.1667C62.3333 30.1548 61.5119 29.3335 60.5 29.3335H53.1668C52.1548 29.3335 51.3335 30.1548 51.3335 31.1667V56.8335C51.3335 57.8454 52.1548 58.6667 53.1668 58.6667H60.5C61.5119 58.6667 62.3333 57.8454 62.3333 56.8335V31.1667ZM58.6668 55H55V33H58.6668V55Z" fill="#898888"/>
<path d="M100.833 88H93.4998C92.4879 88 91.6665 88.8213 91.6665 89.8332C91.6665 90.8451 92.4879 91.6665 93.4998 91.6665H100.833C101.845 91.6665 102.666 90.8451 102.666 89.8332C102.666 88.8213 101.845 88 100.833 88Z" fill="#898888"/>
<path d="M60.5 95.3333H53.1668C52.1548 95.3333 51.3335 96.1547 51.3335 97.1666C51.3335 98.1785 52.1548 98.9998 53.1668 98.9998H60.5C61.5119 98.9998 62.3333 98.1785 62.3333 97.1666C62.3333 96.1547 61.5119 95.3333 60.5 95.3333Z" fill="#898888"/>
<path d="M93.4998 66C94.5117 66 95.333 65.1786 95.333 64.1667V45.8334C95.333 44.8215 94.5117 44.0002 93.4998 44.0002C92.4879 44.0002 91.6665 44.8215 91.6665 45.8334V64.1667C91.6665 65.1786 92.4879 66 93.4998 66Z" fill="#898888"/>
<path d="M102.667 45.8333C102.667 44.8214 101.846 44 100.834 44C99.8218 44 99.0005 44.8214 99.0005 45.8333V64.1665C99.0005 65.1784 99.8218 65.9998 100.834 65.9998C101.846 65.9998 102.667 65.1784 102.667 64.1665V45.8333Z" fill="#898888"/>
<path d="M104.5 14.6667H93.5C92.4881 14.6667 91.6667 15.4881 91.6667 16.5C91.6667 17.5119 92.4881 18.3333 93.5 18.3333H104.5C105.51 18.3333 106.333 19.1563 106.333 20.1665V104.5C106.333 105.51 105.51 106.333 104.5 106.333H88V29.3333H99C100.012 29.3333 100.833 28.5119 100.833 27.5C100.833 26.4881 100.012 25.6667 99 25.6667H88V9.16674C88 6.08309 85.5836 3.66674 82.5 3.66674H71.5C68.4677 3.66674 66 6.13443 66 9.16674V106.333H47.6667V11H60.5C61.5119 11 62.3333 10.1787 62.3333 9.16674C62.3333 8.15482 61.5119 7.33348 60.5 7.33348H47.6667V5.5C47.6667 2.41635 45.2504 0 42.1667 0H23.8335C20.8012 0 18.3335 2.4677 18.3335 5.5V22H9.16674C8.15482 22 7.33348 22.8213 7.33348 23.8333C7.33348 24.8452 8.15482 25.6665 9.16674 25.6665H18.3335V106.333H5.5C4.4898 106.333 3.66674 105.51 3.66674 104.5V16.5C3.66674 15.4898 4.4898 14.6667 5.5 14.6667H12.8333C13.8452 14.6667 14.6665 13.8454 14.6665 12.8335C14.6665 11.8216 13.8454 11 12.8333 11H5.5C2.4677 11 0 13.4677 0 16.5V104.5C0 107.532 2.4677 110 5.5 110H104.5C107.532 110 110 107.532 110 104.5V20.1667C110 17.1344 107.532 14.6667 104.5 14.6667ZM44 106.333H22V14.6667H38.5C39.5119 14.6667 40.3333 13.8454 40.3333 12.8335C40.3333 11.8216 39.5119 11 38.5 11H22V5.5C22 4.47154 22.8048 3.66674 23.8333 3.66674H42.1665C43.2115 3.66674 43.9998 4.455 43.9998 5.5V106.333H44ZM84.3333 106.333H69.6665V18.3333H78.8333C79.8452 18.3333 80.6665 17.5119 80.6665 16.5C80.6665 15.4881 79.8452 14.6667 78.8333 14.6667H69.6665V9.16674C69.6665 8.13828 70.4713 7.33348 71.4998 7.33348H82.5C83.545 7.33348 84.3333 8.12174 84.3333 9.16674V106.333Z" fill="#898888"/>
<path d="M12.8333 88H9.16676C8.15484 88 7.3335 88.8213 7.3335 89.8332C7.3335 90.8451 8.15484 91.6665 9.16676 91.6665H12.8335C13.8454 91.6665 14.6668 90.8451 14.6668 89.8332C14.6668 88.8213 13.8454 88 12.8333 88Z" fill="#898888"/>
<path d="M12.8333 95.3333H9.16676C8.15484 95.3333 7.3335 96.1547 7.3335 97.1666C7.3335 98.1785 8.15484 98.9998 9.16676 98.9998H12.8335C13.8454 98.9998 14.6668 98.1785 14.6668 97.1666C14.6668 96.1547 13.8454 95.3333 12.8333 95.3333Z" fill="#898888"/>
<path d="M60.5 88H53.1668C52.1548 88 51.3335 88.8213 51.3335 89.8332C51.3335 90.8451 52.1548 91.6665 53.1668 91.6665H60.5C61.5119 91.6665 62.3333 90.8451 62.3333 89.8332C62.3333 88.8213 61.5119 88 60.5 88Z" fill="#898888"/>
<path d="M12.8333 44H9.16676C8.15484 44 7.3335 44.8214 7.3335 45.8333C7.3335 46.8452 8.15484 47.6665 9.16676 47.6665H12.8335C13.8454 47.6665 14.6668 46.8452 14.6668 45.8333C14.6668 44.8214 13.8454 44 12.8333 44Z" fill="#898888"/>
<path d="M12.8333 51.3332H9.16676C8.15484 51.3332 7.3335 52.1546 7.3335 53.1665C7.3335 54.1784 8.15463 55 9.16676 55H12.8335C13.8454 55 14.6668 54.1786 14.6668 53.1667C14.6668 52.1548 13.8454 51.3332 12.8333 51.3332Z" fill="#898888"/>
</svg>
