<svg width="112" height="108" viewBox="0 0 112 108" fill="none" xmlns="http://www.w3.org/2000/svg">
<path d="M111.768 58.9201C110.763 48.8068 106.245 39.2725 99.0457 32.0733C92.8935 25.9213 85.3633 21.9679 77.4399 20.2101V14.6528C80.6761 13.8477 83.0816 10.9184 83.0816 7.43653C83.0816 3.33594 79.7457 0 75.6451 0H59.8971C55.7966 0 52.4606 3.33594 52.4606 7.43653C52.4606 10.9181 54.8661 13.8475 58.1021 14.6528V20.2256C50.203 21.9909 42.6978 25.9388 36.5631 32.0735C35.2205 33.416 33.9826 34.8244 32.8494 36.2881C32.7945 36.2839 32.7396 36.2798 32.6836 36.2798H17.0973C15.8895 36.2798 14.9101 37.259 14.9101 38.467C14.9101 39.675 15.8895 40.6542 17.0973 40.6542H29.8732C28.2696 43.339 26.9765 46.1585 25.9923 49.061H2.1877C0.979923 49.061 0.000488281 50.0402 0.000488281 51.2482C0.000488281 52.4562 0.979923 53.4354 2.1877 53.4354H24.7563C24.1259 56.2024 23.7641 59.0185 23.6707 61.8424H13.9987C12.7909 61.8424 11.8114 62.8216 11.8114 64.0296C11.8114 65.2376 12.7909 66.2168 13.9987 66.2168H23.7405C23.9251 69.048 24.3803 71.8642 25.1062 74.6238H10.9366C9.72878 74.6238 8.74935 75.603 8.74935 76.811C8.74935 78.019 9.72878 78.9983 10.9366 78.9983H26.5021C28.6478 84.6743 32.001 89.9943 36.5631 94.5563C43.7691 101.762 53.3132 106.282 63.4369 107.282C64.8818 107.424 66.3278 107.495 67.7718 107.495C76.3067 107.495 84.7332 105.025 91.8832 100.369C92.8954 99.7096 93.1817 98.3547 92.5225 97.3424C91.8633 96.3302 90.5083 96.0439 89.4961 96.7031C73.845 106.895 52.8843 104.691 39.6562 91.4632C24.1353 75.9423 24.1353 50.688 39.6562 35.1669C55.1769 19.6462 80.4312 19.6462 95.9523 35.1669C109.163 48.3777 111.378 69.3205 101.22 84.9639C100.562 85.977 100.851 87.3318 101.863 87.9895C102.877 88.6474 104.231 88.3593 104.889 87.3462C110.316 78.9878 112.759 68.8927 111.768 58.9201ZM56.835 7.43675C56.835 5.74822 58.2086 4.37465 59.8971 4.37465H75.6451C77.3336 4.37465 78.7072 5.74822 78.7072 7.43675C78.7072 9.12528 77.3336 10.4988 75.6451 10.4988H75.2527H60.2893H59.8971C58.2086 10.4988 56.835 9.12506 56.835 7.43675ZM62.4765 19.4736V14.8733H73.0655V19.4658C69.5493 19.0476 65.992 19.0502 62.4765 19.4736Z" fill="#898888"/>
<path d="M97.4992 90.8216C96.9218 90.8216 96.3597 91.0556 95.9531 91.4624C95.5441 91.8692 95.312 92.4335 95.312 93.0088C95.312 93.584 95.5441 94.1483 95.9531 94.5551C96.3597 94.9641 96.922 95.1959 97.4992 95.1959C98.0744 95.1959 98.6365 94.9641 99.0455 94.5551C99.4523 94.1483 99.6864 93.584 99.6864 93.0088C99.6864 92.4335 99.4526 91.8692 99.0455 91.4624C98.6365 91.0556 98.0742 90.8216 97.4992 90.8216Z" fill="#898888"/>
<path d="M67.8036 29.3846C49.0946 29.3846 33.8735 44.6054 33.8735 63.3146C33.8735 82.0238 49.0946 97.2446 67.8036 97.2446C86.5126 97.2446 101.734 82.0238 101.734 63.3146C101.734 44.6054 86.5126 29.3846 67.8036 29.3846ZM67.8036 92.8702C51.5064 92.8702 38.248 79.6115 38.248 63.3146C38.248 47.0177 51.5064 33.759 67.8036 33.759C84.1007 33.759 97.3592 47.0177 97.3592 63.3146C97.3592 79.6115 84.1007 92.8702 67.8036 92.8702Z" fill="#898888"/>
<path d="M81.6392 46.3861L70.8059 57.2192C69.9 56.7712 68.881 56.5182 67.8038 56.5182C66.7263 56.5182 65.7075 56.7712 64.8016 57.2192L59.9532 52.3708C59.0989 51.5167 57.7144 51.5167 56.8598 52.3708C56.0057 53.2249 56.0057 54.6098 56.8598 55.4639L61.7082 60.3123C61.2601 61.2183 61.0072 62.2373 61.0072 63.3145C61.0072 67.0621 64.056 70.1111 67.8038 70.1111C71.5516 70.1111 74.6003 67.0621 74.6003 63.3145C74.6003 62.2373 74.3473 61.2183 73.8993 60.3123L84.4146 49.7971L84.7324 49.4793C85.5865 48.6252 85.5865 47.2402 84.7324 46.3861C83.8783 45.532 82.4938 45.532 81.6392 46.3861ZM67.8038 65.7368C66.4683 65.7368 65.3816 64.6502 65.3816 63.3147C65.3816 61.9792 66.4683 60.8926 67.8038 60.8926C69.1393 60.8926 70.2259 61.9792 70.2259 63.3147C70.2259 64.6502 69.1393 65.7368 67.8038 65.7368Z" fill="#898888"/>
<path d="M91.1897 61.154H89.1633C87.9555 61.154 86.9761 62.1332 86.9761 63.3412C86.9761 64.5492 87.9555 65.5284 89.1633 65.5284H91.1897C92.3974 65.5284 93.3769 64.5492 93.3769 63.3412C93.3769 62.1332 92.3974 61.154 91.1897 61.154Z" fill="#898888"/>
<path d="M46.4448 61.1006H44.4186C43.2109 61.1006 42.2314 62.0798 42.2314 63.2878C42.2314 64.4958 43.2109 65.475 44.4186 65.475H46.4448C47.6526 65.475 48.632 64.4958 48.632 63.2878C48.632 62.0798 47.6526 61.1006 46.4448 61.1006Z" fill="#898888"/>
<path d="M67.8307 44.1425C69.0385 44.1425 70.0179 43.1633 70.0179 41.9554V39.9292C70.0179 38.7212 69.0385 37.742 67.8307 37.742C66.623 37.742 65.6436 38.7212 65.6436 39.9292V41.9554C65.6436 43.1633 66.623 44.1425 67.8307 44.1425Z" fill="#898888"/>
<path d="M67.777 82.4867C66.5693 82.4867 65.5898 83.4659 65.5898 84.6738V86.7C65.5898 87.908 66.5693 88.8872 67.777 88.8872C68.9848 88.8872 69.9642 87.908 69.9642 86.7V84.6738C69.9642 83.4659 68.9848 82.4867 67.777 82.4867Z" fill="#898888"/>
<path d="M2.18718 74.6229C1.61195 74.6229 1.04766 74.8569 0.640844 75.2637C0.234028 75.6705 0 76.2348 0 76.8101C0 77.3875 0.23381 77.9496 0.640844 78.3564C1.04788 78.7632 1.61195 78.9972 2.18718 78.9972C2.76241 78.9972 3.3267 78.7632 3.7333 78.3564C4.14011 77.9496 4.37436 77.3853 4.37436 76.8101C4.37436 76.2348 4.14033 75.6705 3.7333 75.2637C3.3267 74.8569 2.76241 74.6229 2.18718 74.6229Z" fill="#898888"/>
</svg>
