<svg width="28" height="29" viewBox="0 0 28 29" fill="none" xmlns="http://www.w3.org/2000/svg">
<path d="M13.526 27.3383H6.22292C4.23821 27.3383 2.62785 25.6643 2.62785 23.6148V5.38519C2.62785 3.32958 4.24415 1.66171 6.22292 1.66171H13.6448C14.0905 1.66171 14.447 1.29244 14.447 0.830857C14.447 0.36927 14.0905 0 13.6448 0H6.22292C3.35281 0 1.02344 2.41872 1.02344 5.38519V23.6148C1.02344 26.5874 3.35875 29 6.22292 29H13.526C13.9716 29 14.3282 28.6307 14.3282 28.1691C14.3282 27.7076 13.9657 27.3383 13.526 27.3383Z" fill="white"/>
<path d="M26.7414 13.9153L21.6429 8.63478C21.328 8.30859 20.8229 8.30859 20.508 8.63478C20.193 8.96097 20.193 9.4841 20.508 9.81029L24.2397 13.6753H7.96383C7.51816 13.6753 7.16162 14.0446 7.16162 14.5062C7.16162 14.9678 7.51816 15.337 7.96383 15.337H24.2397L20.508 19.2021C20.193 19.5282 20.193 20.0514 20.508 20.3776C20.6625 20.5376 20.8704 20.6237 21.0725 20.6237C21.2745 20.6237 21.4825 20.5437 21.637 20.3776L26.7355 15.097C27.0564 14.7647 27.0564 14.2354 26.7414 13.9153Z" fill="white"/>
</svg>
