<svg width="34" height="34" viewBox="0 0 34 34" fill="none" xmlns="http://www.w3.org/2000/svg">
<g clip-path="url(#clip0)">
<path d="M17 29.8164C16.6334 29.8164 16.3359 30.1139 16.3359 30.4805C16.3359 30.847 16.6334 31.1445 17 31.1445C17.3666 31.1445 17.6641 30.847 17.6641 30.4805C17.6641 30.1139 17.3666 29.8164 17 29.8164Z" fill="#E2CE19"/>
<path d="M17 0C16.6332 0 16.3359 0.297367 16.3359 0.664062V5.04688C16.3359 5.41357 16.6333 5.71094 17 5.71094C17.3667 5.71094 17.6641 5.41357 17.6641 5.04688V0.664062C17.6641 0.297367 17.3667 0 17 0Z" fill="#E2CE19"/>
<path d="M7.60894 9.99013L3.85633 6.23752C3.59694 5.9782 3.17646 5.9782 2.91714 6.23752C2.65783 6.49683 2.65783 6.91732 2.91714 7.1767L6.66976 10.9293C6.92914 11.1886 7.34956 11.1886 7.60894 10.9293C7.86826 10.67 7.86826 10.2495 7.60894 9.99013Z" fill="#E2CE19"/>
<path d="M31.087 6.23344C30.8276 5.97419 30.4072 5.97419 30.1478 6.23344L26.3913 9.98998C26.1319 10.2493 26.1319 10.6698 26.3913 10.9292C26.6507 11.1885 27.071 11.1884 27.3304 10.9292L31.087 7.17262C31.3463 6.91331 31.3463 6.49282 31.087 6.23344Z" fill="#E2CE19"/>
<path d="M33.8686 12.6192C33.7434 12.4508 33.5458 12.3516 33.3359 12.3516C31.9979 12.3516 30.7512 12.9644 29.9349 13.9891C29.5558 13.7869 29.1302 13.6797 28.6875 13.6797C27.2228 13.6797 26.0312 14.8713 26.0312 16.336C26.0312 17.4363 26.7039 18.3826 27.6596 18.7853L27.5374 18.9323C26.8471 19.7625 25.5782 20.3203 24.3797 20.3203C23.3628 20.3203 22.1827 19.9155 21.4613 19.194L21.1325 18.8652C22.2011 18.5213 22.9765 17.5175 22.9765 16.336C22.9765 14.8713 21.785 13.6797 20.3203 13.6797H20.253C20.3483 13.2087 20.3419 12.7154 20.2294 12.2299C19.9462 11.0104 18.929 10.0207 17.6982 9.76738C15.5867 9.33248 13.6797 10.9297 13.6797 13.0156C13.6797 13.2395 13.7023 13.4621 13.7466 13.6797H13.6797C12.215 13.6797 11.0234 14.8713 11.0234 16.336C11.0234 17.5175 11.7989 18.5213 12.8675 18.8652L12.5387 19.194C11.8546 19.8783 10.709 20.3203 9.62026 20.3203C8.46107 20.3203 7.18242 19.7994 6.46271 18.9324L6.34045 18.7853C7.29611 18.3826 7.96874 17.4363 7.96874 16.336C7.96874 14.8713 6.77714 13.6797 5.31249 13.6797C4.86975 13.6797 4.44416 13.7869 4.06511 13.9891C3.24878 12.9644 2.00213 12.3516 0.664047 12.3516C0.454137 12.3516 0.256578 12.4508 0.13127 12.6192C0.00596112 12.7876 -0.0322889 13.0053 0.028008 13.2064L4.15436 26.961H3.71873C3.35197 26.961 3.05467 27.2583 3.05467 27.625C3.05467 27.9917 3.35197 28.2891 3.71873 28.2891H4.3828V32.0078C4.3828 33.1063 5.27649 34 6.37499 34H27.625C28.7235 34 29.6172 33.1063 29.6172 32.0078V28.2891H30.2812C30.6479 28.2891 30.9453 27.9917 30.9453 27.625C30.9453 27.2583 30.6479 26.961 30.2812 26.961H29.8456L33.972 13.2064C34.0323 13.0054 33.994 12.7876 33.8686 12.6192ZM28.289 29.8164H19.6562C19.2895 29.8164 18.9922 30.1138 18.9922 30.4805C18.9922 30.8472 19.2895 31.1446 19.6562 31.1446H28.289V32.0078C28.289 32.374 27.9912 32.6719 27.625 32.6719H6.37499C6.00882 32.6719 5.71092 32.374 5.71092 32.0078V31.1446H14.3437C14.7105 31.1446 15.0078 30.8472 15.0078 30.4805C15.0078 30.1138 14.7105 29.8164 14.3437 29.8164H5.71092V28.2891H28.289V29.8164ZM28.459 26.961H5.54092L1.60117 13.8283C2.32241 14.0634 2.94052 14.5656 3.31525 15.2517C3.52895 15.6429 4.05887 15.7152 4.37025 15.4004C4.6206 15.1473 4.95522 15.0078 5.31249 15.0078C6.04481 15.0078 6.64061 15.6036 6.64061 16.336C6.64061 17.1379 5.93471 17.7463 5.16374 17.6559C4.89393 17.6248 4.63235 17.7602 4.50293 17.999C4.3735 18.2376 4.40239 18.5311 4.57591 18.7399L5.44098 19.781C6.42612 20.9675 8.08554 21.6485 9.62026 21.6485C11.065 21.6485 12.5432 21.0679 13.4779 20.1332L14.8133 18.7978C15.0032 18.6078 15.06 18.3222 14.9572 18.0741C14.8545 17.8259 14.6123 17.6641 14.3437 17.6641H13.6797C12.9473 17.6641 12.3515 17.0683 12.3515 16.336C12.3515 15.6036 12.9473 15.0078 13.6797 15.0078H14.699C14.9363 15.0078 15.1556 14.8812 15.2742 14.6756C15.3928 14.47 15.3927 14.2168 15.2739 14.0113C15.0998 13.7103 15.0078 13.3659 15.0078 13.0156C15.0078 11.7895 16.1218 10.7989 17.4305 11.0683C18.1513 11.2166 18.7702 11.8179 18.9356 12.5301C19.0887 13.1904 18.9062 13.7 18.7261 14.0113C18.6073 14.2168 18.6072 14.47 18.7258 14.6756C18.8443 14.8813 19.0636 15.0079 19.301 15.0079H20.3203C21.0526 15.0079 21.6484 15.6037 21.6484 16.336C21.6484 17.0683 21.0526 17.6641 20.3203 17.6641H19.6562C19.3876 17.6641 19.1455 17.826 19.0427 18.0741C18.9399 18.3222 18.9968 18.6078 19.1867 18.7978L20.5221 20.1332C21.4948 21.1059 23.0098 21.6485 24.3797 21.6485C25.9754 21.6485 27.6157 20.9156 28.5588 19.7812L29.4241 18.7399C29.5976 18.531 29.6265 18.2376 29.4971 17.999C29.3676 17.7602 29.1058 17.6244 28.8363 17.6559C28.7892 17.6614 28.7406 17.6641 28.6875 17.6641C27.9552 17.6641 27.3594 17.0683 27.3594 16.336C27.3594 15.6036 27.9552 15.0078 28.6875 15.0078C29.0448 15.0078 29.3794 15.1473 29.6297 15.4004C29.7773 15.5496 29.9869 15.6204 30.1946 15.591C30.4024 15.5617 30.5841 15.4359 30.6847 15.2517C31.0595 14.5656 31.6776 14.0634 32.3988 13.8283L28.459 26.961Z" fill="#E2CE19"/>
<path d="M17 20.3203C15.5353 20.3203 14.3438 21.5119 14.3438 22.9766C14.3438 24.4412 15.5353 25.6328 17 25.6328C18.4647 25.6328 19.6562 24.4412 19.6562 22.9766C19.6562 21.5119 18.4647 20.3203 17 20.3203ZM17 24.3047C16.2677 24.3047 15.6719 23.7089 15.6719 22.9766C15.6719 22.2442 16.2677 21.6484 17 21.6484C17.7323 21.6484 18.3281 22.2442 18.3281 22.9766C18.3281 23.7089 17.7323 24.3047 17 24.3047Z" fill="#E2CE19"/>
</g>
<defs>
<clipPath id="clip0">
<rect width="34" height="34" fill="white"/>
</clipPath>
</defs>
</svg>
