<svg width="46" height="46" viewBox="0 0 46 46" fill="none" xmlns="http://www.w3.org/2000/svg">
<g clip-path="url(#clip0)">
<path d="M36.5959 15.0681C36.7454 15.2176 36.9409 15.292 37.1363 15.292C37.3318 15.292 37.5276 15.2173 37.6771 15.0681L43.0039 9.74136C44.5298 8.21507 44.5298 5.73138 43.0039 4.20509C41.4776 2.67845 38.9936 2.67915 37.4676 4.20509L37.1363 4.53569L36.8057 4.20509C35.2787 2.6788 32.7958 2.6788 31.2695 4.20509C30.53 4.94455 30.1226 5.92756 30.1226 6.97305C30.1226 8.01854 30.53 9.0019 31.2695 9.74101L36.5959 15.0681ZM32.3508 5.28637C32.8161 4.82101 33.4268 4.58903 34.0374 4.58903C34.6481 4.58903 35.2594 4.82136 35.7245 5.28637L36.5959 6.15814C36.7394 6.30133 36.9338 6.38205 37.1363 6.38205C37.3392 6.38205 37.5336 6.30133 37.6771 6.15814L38.5489 5.28637C39.4796 4.3553 40.9926 4.35635 41.9226 5.28637C42.8526 6.2164 42.8526 7.73005 41.9226 8.66008L37.1363 13.446L32.3508 8.66008C31.9001 8.20945 31.6517 7.61003 31.6517 6.9734C31.652 6.33607 31.9001 5.73664 32.3508 5.28637Z" fill="#898888"/>
<path d="M44.3063 44.3516C37.7705 45.0766 32.5873 42.1827 32.5354 42.1535C32.3595 42.0532 32.1511 42.0261 31.9556 42.0798C31.8731 42.102 23.6521 44.3056 17.0307 42.8358C12.9028 41.9181 9.00929 39.0104 6.16623 36.8875C5.78439 36.6025 5.42256 36.332 5.08284 36.0838C4.61888 35.7445 3.88118 35.4623 3.23087 35.2131C2.93887 35.1015 2.53879 34.9481 2.4528 34.8945C2.3784 34.8362 2.33769 34.7506 2.33769 34.6526V32.8803C2.37454 31.4779 8.25439 9.89894 9.16617 7.15379C9.18863 7.1215 9.27637 7.05798 9.34094 7.02745L20.9771 1.71263L24.739 6.61017C24.9246 6.86391 24.9071 7.21872 24.6979 7.4528L20.9806 11.62C20.7374 11.893 20.3279 11.9229 20.0738 11.7106L18.5706 10.3246C18.3945 10.1625 18.1439 10.1088 17.9091 10.152C17.6736 10.1941 17.463 10.3618 17.3542 10.5752C17.2286 10.8226 16.0905 11.1259 14.9295 11.1346L14.5512 11.0964C14.248 11.0602 13.9539 11.2185 13.8058 11.4856C13.657 11.7527 13.6822 12.0826 13.8689 12.3247C14.1918 12.742 14.4434 13.0772 14.5859 13.2695L15.3299 25.9167C14.8688 27.7129 14.4462 28.2232 14.3413 28.3253C14.0314 28.4232 13.8065 28.7128 13.8065 29.0546C13.8065 29.4768 14.149 29.8193 14.5712 29.8193C15.4384 29.8193 16.1754 28.6798 16.7671 26.4551C22.8487 21.9047 28.1562 26.1993 28.5724 26.5527C30.5041 28.4913 30.6237 29.779 30.6276 29.8362C30.6367 30.2503 30.9754 30.5837 31.3923 30.5837C31.8145 30.5837 32.157 30.2415 32.157 29.8193C32.157 29.6435 32.0932 28.1348 30.1142 25.955C31.9805 23.6605 34.1055 22.3388 36.446 22.051C40.4813 21.5541 43.8732 24.2676 43.9073 24.2946C44.2351 24.5614 44.7159 24.5122 44.9826 24.1851C45.2493 23.8584 45.2012 23.3776 44.8748 23.1105C44.7169 22.9817 40.9621 19.9611 36.2748 20.5314C33.5349 20.8637 31.0754 22.3455 28.9553 24.939C27.2346 23.7689 22.3009 21.1206 16.7832 24.5842L16.0989 12.9533C16.0919 12.8276 16.0533 12.7059 15.9876 12.5988C16.672 12.5177 17.4869 12.3391 18.0779 11.9503L19.063 12.8582C19.9801 13.6278 21.3232 13.532 22.1212 12.6385L25.8385 8.47091C26.5243 7.70268 26.5815 6.54103 25.9627 5.69383L21.8187 0.298644C21.6025 0.0168298 21.22 -0.0789801 20.8946 0.0691217L8.71484 5.63241C8.58745 5.68822 7.94135 6.00091 7.72902 6.63965C7.29594 7.93957 0.808594 31.0754 0.808594 32.8779V34.653C0.808594 35.2226 1.06444 35.7494 1.5098 36.0986C1.73265 36.273 2.0657 36.4049 2.68443 36.6415C3.1898 36.8352 3.88153 37.0995 4.18019 37.3181C4.5164 37.5638 4.87367 37.8309 5.2513 38.113C8.20526 40.3191 12.2507 43.3401 16.6994 44.3287C23.0323 45.7361 30.4665 44.0346 32.0598 43.6332C33.1239 44.1831 37.0279 46 42.1388 46C42.893 46 43.6739 45.9607 44.4751 45.8712C44.8949 45.8249 45.197 45.4465 45.1507 45.0271C45.1037 44.6067 44.7243 44.3021 44.3063 44.3516Z" fill="#898888"/>
<path d="M40.5635 35.0871C40.5213 34.7046 40.1974 34.407 39.8033 34.407C39.3811 34.407 39.0386 34.7495 39.0386 35.1717C39.0386 35.6823 39.4158 37.4114 44.2653 38.2193C44.3078 38.2264 44.3502 38.2299 44.3916 38.2299C44.7587 38.2299 45.0827 37.9649 45.1451 37.5911C45.2143 37.1746 44.9328 36.7808 44.5166 36.7109C41.1253 36.1459 40.6087 35.1889 40.5635 35.0871Z" fill="#898888"/>
<path d="M25.8801 39.0115C15.8657 41.1565 11.5802 34.3045 11.403 34.0122C11.1843 33.651 10.7158 33.5349 10.3547 33.7518C9.99249 33.969 9.87527 34.4386 10.0925 34.8008C10.143 34.8846 11.3598 36.8819 13.9614 38.5833C15.7541 39.7551 18.4876 40.9491 22.1849 40.9491C23.4164 40.9491 24.7546 40.8168 26.2002 40.5072C26.6132 40.4188 26.8765 40.012 26.788 39.5993C26.6992 39.1866 26.2932 38.9223 25.8801 39.0115Z" fill="#898888"/>
</g>
<defs>
<clipPath id="clip0">
<rect width="46" height="46" fill="white"/>
</clipPath>
</defs>
</svg>
