<svg width="197" height="48" viewBox="0 0 197 48" fill="none" xmlns="http://www.w3.org/2000/svg">
<path fill-rule="evenodd" clip-rule="evenodd" d="M18.6303 29.6602C20.1015 35.7968 22.3397 40.2663 22.3397 40.2663C22.3397 40.2663 25.4397 40.1373 29.25 36.9777C33.0604 33.818 33.3833 29.949 33.3833 29.949C33.3833 29.7724 33.3807 29.5955 33.3756 29.4182C32.8943 29.4987 32.3961 29.5727 31.8852 29.6398C27.9077 30.1623 22.9276 30.2936 18.6303 29.6602ZM18.0542 26.9294C22.4009 27.0954 26.8676 26.7368 30.2768 26.2618C31.2781 26.1223 32.1809 25.9737 32.9565 25.8272C31.6614 19.2754 27.7027 12.8537 25.0522 9.44354C21.1772 4.80078 18.271 4.80078 18.271 4.80078C18.271 4.80078 16.6564 14.3442 17.5606 23.4363C17.6792 24.6288 17.8489 25.7979 18.0542 26.9294ZM36.0002 26.2618C36.0073 26.1907 36.1007 25.8839 35.1125 25.8196C34.8598 25.8031 34.5648 25.7839 34.2229 25.7576C36.0002 25.6008 38.747 25.4496 38.8002 25.7576C39.0937 27.4572 26.473 29.8201 17.7544 28.208C26.7959 28.5949 35.9421 26.8421 36.0002 26.2618ZM9.25543 40.3388C12.1164 41.2387 20.7222 42.5376 34.2707 41.0561C34.3472 41.0477 34.4159 41.1076 34.4178 41.1844C34.4182 41.2003 34.4186 41.216 34.419 41.2314C34.4327 41.7434 34.4393 41.9906 33.3186 42.2008C11.9769 44.4995 9.99761 42.3689 9.12981 40.4801C9.09234 40.3986 9.16973 40.3119 9.25543 40.3388Z" fill="white"/>
<path d="M75.06 17.06L71.02 31H68.98L65.74 19.78L62.38 31L60.36 31.02L56.46 17.06H58.4L61.44 28.88L64.8 17.06H66.84L70.04 28.84L73.1 17.06H75.06ZM79.4717 17.06V31H77.6517V17.06H79.4717ZM94.1336 31H92.3136L84.9936 19.9V31H83.1736V17.04H84.9936L92.3136 28.12V17.04H94.1336V31ZM102.176 17.06C103.696 17.06 105.009 17.3467 106.116 17.92C107.236 18.48 108.089 19.2867 108.676 20.34C109.276 21.3933 109.576 22.6333 109.576 24.06C109.576 25.4867 109.276 26.7267 108.676 27.78C108.089 28.82 107.236 29.62 106.116 30.18C105.009 30.7267 103.696 31 102.176 31H97.8361V17.06H102.176ZM102.176 29.5C103.976 29.5 105.349 29.0267 106.296 28.08C107.243 27.12 107.716 25.78 107.716 24.06C107.716 22.3267 107.236 20.9733 106.276 20C105.329 19.0267 103.963 18.54 102.176 18.54H99.6561V29.5H102.176ZM116.997 31.14C116.077 31.14 115.25 30.98 114.517 30.66C113.797 30.3267 113.23 29.8733 112.817 29.3C112.403 28.7133 112.19 28.04 112.177 27.28H114.117C114.183 27.9333 114.45 28.4867 114.917 28.94C115.397 29.38 116.09 29.6 116.997 29.6C117.863 29.6 118.543 29.3867 119.037 28.96C119.543 28.52 119.797 27.96 119.797 27.28C119.797 26.7467 119.65 26.3133 119.357 25.98C119.063 25.6467 118.697 25.3933 118.257 25.22C117.817 25.0467 117.223 24.86 116.477 24.66C115.557 24.42 114.817 24.18 114.257 23.94C113.71 23.7 113.237 23.3267 112.837 22.82C112.45 22.3 112.257 21.6067 112.257 20.74C112.257 19.98 112.45 19.3067 112.837 18.72C113.223 18.1333 113.763 17.68 114.457 17.36C115.163 17.04 115.97 16.88 116.877 16.88C118.183 16.88 119.25 17.2067 120.077 17.86C120.917 18.5133 121.39 19.38 121.497 20.46H119.497C119.43 19.9267 119.15 19.46 118.657 19.06C118.163 18.6467 117.51 18.44 116.697 18.44C115.937 18.44 115.317 18.64 114.837 19.04C114.357 19.4267 114.117 19.9733 114.117 20.68C114.117 21.1867 114.257 21.6 114.537 21.92C114.83 22.24 115.183 22.4867 115.597 22.66C116.023 22.82 116.617 23.0067 117.377 23.22C118.297 23.4733 119.037 23.7267 119.597 23.98C120.157 24.22 120.637 24.6 121.037 25.12C121.437 25.6267 121.637 26.32 121.637 27.2C121.637 27.88 121.457 28.52 121.097 29.12C120.737 29.72 120.203 30.2067 119.497 30.58C118.79 30.9533 117.957 31.14 116.997 31.14ZM126.695 17.06V25.88C126.695 27.12 126.995 28.04 127.595 28.64C128.208 29.24 129.055 29.54 130.135 29.54C131.202 29.54 132.035 29.24 132.635 28.64C133.248 28.04 133.555 27.12 133.555 25.88V17.06H135.375V25.86C135.375 27.02 135.142 28 134.675 28.8C134.208 29.5867 133.575 30.1733 132.775 30.56C131.988 30.9467 131.102 31.14 130.115 31.14C129.128 31.14 128.235 30.9467 127.435 30.56C126.648 30.1733 126.022 29.5867 125.555 28.8C125.102 28 124.875 27.02 124.875 25.86V17.06H126.695ZM146.351 31L143.031 25.3H140.831V31H139.011V17.06H143.511C144.564 17.06 145.451 17.24 146.171 17.6C146.904 17.96 147.451 18.4467 147.811 19.06C148.171 19.6733 148.351 20.3733 148.351 21.16C148.351 22.12 148.071 22.9667 147.511 23.7C146.964 24.4333 146.138 24.92 145.031 25.16L148.531 31H146.351ZM140.831 23.84H143.511C144.498 23.84 145.238 23.6 145.731 23.12C146.224 22.6267 146.471 21.9733 146.471 21.16C146.471 20.3333 146.224 19.6933 145.731 19.24C145.251 18.7867 144.511 18.56 143.511 18.56H140.831V23.84ZM159.659 17.06V18.54H153.599V23.24H158.519V24.72H153.599V31H151.779V17.06H159.659ZM164.277 17.06V31H162.457V17.06H164.277ZM178.939 31H177.119L169.799 19.9V31H167.979V17.04H169.799L177.119 28.12V17.04H178.939V31ZM193.202 21.1C192.815 20.2867 192.255 19.66 191.522 19.22C190.788 18.7667 189.935 18.54 188.962 18.54C187.988 18.54 187.108 18.7667 186.322 19.22C185.548 19.66 184.935 20.3 184.482 21.14C184.042 21.9667 183.822 22.9267 183.822 24.02C183.822 25.1133 184.042 26.0733 184.482 26.9C184.935 27.7267 185.548 28.3667 186.322 28.82C187.108 29.26 187.988 29.48 188.962 29.48C190.322 29.48 191.442 29.0733 192.322 28.26C193.202 27.4467 193.715 26.3467 193.862 24.96H188.302V23.48H195.802V24.88C195.695 26.0267 195.335 27.08 194.722 28.04C194.108 28.9867 193.302 29.74 192.302 30.3C191.302 30.8467 190.188 31.12 188.962 31.12C187.668 31.12 186.488 30.82 185.422 30.22C184.355 29.6067 183.508 28.76 182.882 27.68C182.268 26.6 181.962 25.38 181.962 24.02C181.962 22.66 182.268 21.44 182.882 20.36C183.508 19.2667 184.355 18.42 185.422 17.82C186.488 17.2067 187.668 16.9 188.962 16.9C190.442 16.9 191.748 17.2667 192.882 18C194.028 18.7333 194.862 19.7667 195.382 21.1H193.202Z" fill="white"/>
</svg>
