<svg width="64" height="64" viewBox="0 0 64 64" fill="none" xmlns="http://www.w3.org/2000/svg">
<path d="M51.5129 15.4379C51.4303 14.8448 51.0035 14.357 50.4267 14.1966L31.9384 9.05502C31.6748 8.98166 31.3964 8.98166 31.1326 9.05502L12.6443 14.1966C12.0674 14.357 11.6407 14.8446 11.5581 15.4379C11.4509 16.209 9.00456 34.4279 15.2792 43.4913C21.5465 52.5438 30.7921 54.8637 31.1825 54.9581C31.2986 54.9862 31.4168 55 31.5355 55C31.6541 55 31.7724 54.986 31.8885 54.9581C32.2791 54.8637 41.5247 52.5438 47.7917 43.4913C54.0664 34.4281 51.6201 16.2092 51.5129 15.4379ZM43.4581 26.0743L30.8472 38.6852C30.5537 38.9787 30.1689 39.1256 29.7843 39.1256C29.3996 39.1256 29.0148 38.9789 28.7214 38.6852L20.9242 30.888C20.6421 30.6062 20.4838 30.2238 20.4838 29.8251C20.4838 29.4264 20.6423 29.044 20.9242 28.7622L22.4723 27.214C23.0594 26.6271 24.0113 26.6269 24.5982 27.214L29.7843 32.4001L39.7841 22.4001C40.0659 22.1181 40.4483 21.9598 40.847 21.9598C41.2457 21.9598 41.6281 22.1181 41.9099 22.4001L43.4581 23.9483C44.0452 24.5354 44.0452 25.4872 43.4581 26.0743Z" fill="#F4F4F4"/>
</svg>
