<svg width="64" height="64" viewBox="0 0 64 64" fill="none" xmlns="http://www.w3.org/2000/svg">
<g clip-path="url(#clip0)">
<path d="M32 58.223L33.2519 35.5693L32 20.8226C32.006 16.7175 29.0211 13.3896 25.3391 13.3896H23.9673H1.881C0.8455 13.3896 0.006 14.2293 0 15.265V57.6085L32 58.223Z" fill="#F5EAD8"/>
<path d="M31.9999 58.223V20.8226C31.994 16.7175 34.9788 13.3896 38.6608 13.3896H40.0326H62.1187C63.1542 13.3896 63.9937 14.2293 63.9997 15.265V57.6085L31.9999 58.223Z" fill="#EAD5B0"/>
<path d="M37.417 51.3945C34.5653 51.3945 32.9339 53.2438 32 55.36C31.0661 53.2438 29.4349 51.3945 26.583 51.3945H0V59.3507H26.583C28.2434 59.3507 29.654 59.6184 30.8377 60.0764L32 60.6244L33.1623 60.0764C34.346 59.6184 35.7566 59.3507 37.417 59.3507H64V51.3945H37.417Z" fill="#EAD5B0"/>
<path d="M37.4172 51.3945C34.5718 51.3945 32.9416 53.2355 32.0067 55.3458V60.6213L33.1625 60.0764C34.3462 59.6184 35.7568 59.3507 37.4172 59.3507H64.0002V51.3945H37.4172Z" fill="#C3A78F"/>
<path d="M32.408 61.7902L32 59.8206C30.2738 58.7728 28.1347 58.2236 25.7237 58.2236H0V61.9742H25.7237C27.8619 61.9742 29.5625 62.5039 30.7785 63.5482L30.7801 63.5465C31.1278 63.8457 31.5625 64.0009 32.0009 64.0009L32.408 61.7902Z" fill="#6B64AF"/>
<path d="M38.2765 58.2228C35.8683 58.2228 33.7318 58.7707 32.0067 59.816V63.9997C32.4372 63.9984 32.8695 63.8498 33.2216 63.5473C34.4377 62.5029 36.1385 61.9733 38.2765 61.9733H64.0002V58.2227H38.2765V58.2228Z" fill="#524A95"/>
<path d="M21.5032 47.5955H9.38562C8.35012 47.5955 7.51062 46.7559 7.51062 45.7201C7.51062 44.6844 8.35012 43.8447 9.38562 43.8447H21.5032C22.5387 43.8447 23.3782 44.6844 23.3782 45.7201C23.3782 46.7559 22.5389 47.5955 21.5032 47.5955Z" fill="#7D5D43"/>
<path d="M21.5032 40.2185H9.38562C8.35012 40.2185 7.51062 39.3789 7.51062 38.3431C7.51062 37.3074 8.35012 36.4678 9.38562 36.4678H21.5032C22.5387 36.4678 23.3782 37.3074 23.3782 38.3431C23.3782 39.3789 22.5389 40.2185 21.5032 40.2185Z" fill="#7D5D43"/>
<path d="M21.5032 32.5926H9.38562C8.35012 32.5926 7.51062 31.7529 7.51062 30.7172C7.51062 29.6814 8.35012 28.8418 9.38562 28.8418H21.5032C22.5387 28.8418 23.3782 29.6814 23.3782 30.7172C23.3782 31.7529 22.5389 32.5926 21.5032 32.5926Z" fill="#7D5D43"/>
<path d="M9.38456 24.4665C8.60344 24.4665 7.88194 23.9599 7.62081 23.223C7.35981 22.4865 7.58781 21.637 8.19569 21.1409C8.80394 20.6445 9.67444 20.5826 10.3479 20.9834C11.0191 21.3826 11.3793 22.1914 11.2233 22.9575C11.0471 23.8234 10.2708 24.4665 9.38456 24.4665Z" fill="#C73C50"/>
<path d="M47.1248 47.6892H39.6183C38.5828 47.6892 37.7433 46.8496 37.7433 45.8139C37.7433 44.7781 38.5828 43.9385 39.6183 43.9385H47.1248C48.1603 43.9385 48.9998 44.7781 48.9998 45.8139C48.9998 46.8496 48.1603 47.6892 47.1248 47.6892Z" fill="#5B4431"/>
<path d="M53.9493 27.9324L48.3178 32.622C47.6227 33.2009 46.6134 33.2009 45.9183 32.622L40.2868 27.9324C39.8589 27.5761 39.6116 27.048 39.6116 26.4912V19.8085L40.8616 17.4657L39.6116 14.928V7.50775C39.6116 3.36137 42.9723 0 47.1181 0C51.2638 0 54.6246 3.36137 54.6246 7.50775V14.928L53.3746 17.4656L54.6246 19.8084V26.491C54.6246 27.0481 54.3772 27.5761 53.9493 27.9324Z" fill="#E16C6C"/>
<path d="M54.6248 7.50775C54.6248 3.36137 51.264 0 47.1183 0V33.0563C47.5444 33.0563 47.9704 32.9115 48.318 32.6221L53.9495 27.9325C54.3774 27.5763 54.6248 27.0481 54.6248 26.4914V19.8088L53.3748 17.466L54.6248 14.9284V7.50775Z" fill="#C73C50"/>
<path d="M54.6246 14.9287L47.1181 21.1798L39.6116 14.9287V19.8092L45.9183 25.0612C46.2688 25.3531 46.6941 25.4955 47.1171 25.4955C47.5438 25.4955 47.9666 25.3482 48.3089 25.0655C48.3116 25.0637 48.3153 25.0632 48.3178 25.0612L54.6246 19.8091V14.9287Z" fill="#C73C50"/>
<path d="M47.1183 21.1789V25.4945C47.5447 25.4942 47.967 25.347 48.3092 25.0646C48.3118 25.0629 48.3155 25.0624 48.318 25.0604L54.6248 19.8082V14.9277L47.1183 21.1789Z" fill="#952A3A"/>
<path d="M47.1183 46.4395C46.0828 46.4395 45.2433 45.5999 45.2433 44.5642V12.2797C45.2433 11.2439 46.0828 10.4043 47.1183 10.4043C48.1538 10.4043 48.9933 11.2439 48.9933 12.2797V44.5643C48.9933 45.5999 48.1538 46.4395 47.1183 46.4395Z" fill="#E2E9EE"/>
<path d="M47.1183 10.4043V46.4395C48.1538 46.4395 48.9933 45.5999 48.9933 44.5642V12.2797C48.9933 11.244 48.1538 10.4043 47.1183 10.4043Z" fill="#BBD0D5"/>
</g>
<defs>
<clipPath id="clip0">
<rect width="64" height="64" fill="white"/>
</clipPath>
</defs>
</svg>
