<svg width="64" height="64" viewBox="0 0 64 64" fill="none" xmlns="http://www.w3.org/2000/svg">
<path d="M57.951 49.6398C60.9114 44.9265 62.6253 39.3509 62.6253 33.3743C62.6253 16.4604 48.9139 2.74902 32 2.74902C15.0861 2.74902 1.37476 16.4604 1.37476 33.3743C1.37476 39.3509 3.08851 44.9265 6.04901 49.6398H57.951Z" fill="#7E6DD1"/>
<path d="M47.1491 25.8207C46.9438 23.6152 44.5228 23.1623 44.4639 20.9354C44.4629 20.9003 44.4639 20.8658 44.4643 20.8311H19.5352C19.5356 20.8658 19.5364 20.9004 19.5356 20.9354C19.4767 23.1622 17.0557 23.6151 16.8504 25.8207C16.7271 27.1462 17.4944 28.2199 18.1819 29.0224C18.8694 29.825 19.6333 30.9099 19.4997 32.233C19.3494 33.7209 18.1791 34.3699 17.7068 35.6838C17.2184 37.0427 17.6164 38.8403 18.3506 39.8964C19.0846 40.9525 20.0732 41.4423 21.0273 41.9019H31.7256H32.2737H42.9719C43.9261 41.4423 44.9147 40.9525 45.6487 39.8964C46.3827 38.8403 46.7807 37.0427 46.2924 35.6838C45.8203 34.3699 44.6498 33.7209 44.4996 32.233C44.3659 30.9099 45.1299 29.825 45.8173 29.0224C46.5051 28.2199 47.2724 27.1462 47.1491 25.8207Z" fill="#945230"/>
<path d="M45.6488 39.8963C46.3828 38.8402 46.7808 37.0426 46.2926 35.6837C45.8204 34.3698 44.6499 33.7208 44.4997 32.2329C44.4466 31.7074 44.5366 31.2202 44.7056 30.7726C40.6883 31.3214 41.0221 28.2663 41.0221 28.2663C41.0221 28.2663 38.7244 25.0494 36.3076 20.8311H19.5352C19.5354 20.8658 19.5364 20.9004 19.5356 20.9354C19.4767 23.1622 17.0557 23.6151 16.8504 25.8207C16.7271 27.1462 17.4944 28.2199 18.1819 29.0224C18.8694 29.8251 19.6333 30.9099 19.4998 32.2331C19.3496 33.7209 18.1791 34.3699 17.7069 35.6838C17.2186 37.0427 17.6167 38.8403 18.3507 39.8964C19.0847 40.9526 20.0733 41.4423 21.0274 41.9019H31.7257H32.2738H42.9721C43.9262 41.4422 44.9148 40.9524 45.6488 39.8963Z" fill="#753616"/>
<path d="M39.1719 34.1413C34.6946 31.9217 29.4374 31.9217 24.9601 34.1413L24.5006 38.244H39.696L39.1719 34.1413Z" fill="#FFC839"/>
<path d="M26.1774 2.31775C26.3973 2.2735 26.5947 2.15712 26.7594 2.005C27.3961 1.4165 29.2938 0 32.8067 0C36.7551 0 46.5221 3.01737 45.1398 18.8574H18.9339C18.7017 16.0807 18.6194 12.7881 19.5896 9.50113C21.0442 4.5725 23.8251 2.791 26.1774 2.31775Z" fill="#945230"/>
<path d="M18.9338 18.8574H35.2119C33.7221 16.0857 32.3127 13.0581 31.5032 10.3014C29.1904 2.42575 38.0587 1.366 38.0587 1.366C36.0806 0.335375 34.1211 0 32.8066 0C29.2936 0 27.3959 1.4165 26.7592 2.00487C26.5944 2.15712 26.3971 2.27338 26.1772 2.31763C23.8249 2.79087 21.0439 4.57238 19.5893 9.50113C18.6193 12.7881 18.7016 16.0807 18.9338 18.8574Z" fill="#753616"/>
<path d="M21.7554 23.4413C21.7554 23.4413 21.1204 19.4224 21.8518 17.0291C21.1882 16.5867 19.906 16.3707 19.3294 16.9344C18.1488 18.0886 19.0138 19.8316 19.4278 20.9326C19.5549 21.2706 19.6369 21.6124 19.6739 21.9551C19.7544 22.6993 20.158 23.7887 21.8313 23.7631C21.806 23.6558 21.7802 23.5503 21.7554 23.4413Z" fill="#F9C98A"/>
<path d="M44.6708 16.9344C44.0942 16.3707 42.8121 16.5867 42.1484 17.0291C42.8798 19.4224 42.2448 23.4413 42.2448 23.4413C42.2201 23.5503 42.1942 23.6558 42.1689 23.7631C43.8422 23.7888 44.2458 22.6993 44.3263 21.9551C44.3633 21.6124 44.4453 21.2706 44.5724 20.9326C44.9864 19.8316 45.8516 18.0887 44.6708 16.9344Z" fill="#FFD9A1"/>
<path d="M29.0343 42.3275C29.5666 42.6799 29.6888 43.457 29.1875 43.9705C29.153 44.0244 28.9133 44.2003 29.0867 44.3645C33.9005 48.9278 30.0926 48.878 35.0045 44.2788C35.2287 44.0688 34.8297 43.9573 34.7002 43.49C34.4995 42.7624 35.1241 42.3394 35.1348 42.3267C36.991 41.098 38.2535 39.3787 38.9906 37.3158C37.954 36.5109 37.2801 35.5889 37.2801 34.5505C37.2801 33.8168 37.2801 34.0366 37.2801 33.5615C36.0008 34.7051 33.807 36.1623 32.0003 36.206C30.1936 36.1623 27.9998 34.7051 26.7206 33.5615V34.5505C26.7206 35.5444 26.1036 36.4319 25.1417 37.212C25.856 39.3314 27.1963 41.1109 29.0343 42.3275Z" fill="#FFD9A1"/>
<path d="M32.064 36.203C32.0427 36.2039 32.0213 36.2055 32.0002 36.206C30.1935 36.1623 27.9997 34.7051 26.7205 33.5615V34.5505C26.7205 35.5444 26.1035 36.4319 25.1416 37.212C25.8559 39.3315 27.1962 41.111 29.0342 42.3276C29.198 42.436 29.3226 42.5849 29.4025 42.7538C31.4618 41.0474 31.9497 37.7825 32.064 36.203Z" fill="#F9C98A"/>
<path d="M22.4404 47.0668C22.0239 46.7321 21.7129 46.4537 21.4387 46.2081C20.8324 45.6653 20.4667 45.3377 19.7951 45.1774L19.5632 45.1221V45.2103C19.1076 45.3103 17.7209 45.6593 16.3152 46.4612C14.0666 47.7439 12.8779 49.5762 12.8779 51.7599V57.2943C15.2943 59.2286 18.0096 60.8049 20.9444 61.9414C19.8246 59.6568 18.4347 56.5947 17.3363 53.4294C16.9548 52.3301 17.3309 51.1258 18.2724 50.4329L22.4342 47.3696C22.5349 47.2954 22.5383 47.1454 22.4404 47.0668Z" fill="#FFC839"/>
<path d="M13.0661 51.7598C13.0661 46.5932 19.7513 45.363 19.7513 45.363V45.1667L16.6047 44.4157C16.1199 44.2999 15.8979 43.7389 16.1728 43.3229L18.1111 40.3887C15.8288 41.0534 13.9871 41.3899 13.9871 41.3899C12.4356 41.6879 9.03044 42.7714 7.09019 46.6517C6.67169 47.4888 6.32831 48.4999 6.04944 49.6397C7.92606 52.6274 10.3047 55.2672 13.0662 57.4428C13.0661 55.7744 13.0661 53.7862 13.0661 51.7598Z" fill="#FFB332"/>
<path d="M33.4828 51.999C33.4828 48.573 30.4959 45.3964 28.9866 44.0098L26.0162 47.4119C25.8084 47.6511 25.5451 47.7994 25.2677 47.863C25.831 55.7188 26.7528 60.9544 27.3096 63.6429C28.8388 63.878 30.4053 64.0003 32.0003 64.0003C32.4974 64.0003 32.9916 63.9874 33.4828 63.964C33.4828 59.9556 33.4828 54.6484 33.4828 51.999Z" fill="#BEC8F7"/>
<path d="M29.1394 42.1683C26.8209 40.6335 25.7724 38.4997 25.313 37.1236C25.2202 36.8453 25.0318 36.6351 24.8008 36.5068C24.8572 40.8555 25.0374 44.7107 25.2833 48.0797C25.668 48.0405 26.0434 47.8637 26.3269 47.5371L29.3882 44.0308C29.8845 43.4622 29.7688 42.585 29.1394 42.1683Z" fill="#DEEEFF"/>
<path d="M43.3018 61.8463C49.3862 59.429 54.511 55.1175 57.9512 49.6403C57.6723 48.5005 57.329 47.4894 56.9103 46.6523C54.9701 42.7719 51.565 41.6884 50.0135 41.3905C50.0135 41.3905 48.2587 41.07 46.0523 40.4365L47.9593 43.3236C48.2342 43.7396 48.0126 44.3006 47.5275 44.4164L44.3365 45.178C43.6683 45.3375 43.3055 45.662 42.7043 46.1996C42.4417 46.4345 42.1148 46.727 41.6911 47.0674C41.5932 47.1461 41.5967 47.296 41.6975 47.3701L45.8592 50.4335C46.8007 51.1265 47.1768 52.3306 46.7953 53.43C45.7866 56.3375 44.4613 59.405 43.3018 61.8463Z" fill="#FFC839"/>
<path d="M38.8494 47.8841C38.5299 47.8386 38.2211 47.6845 37.9844 47.4119L35.0141 44.0098C33.5047 45.3964 30.5178 48.5731 30.5178 51.999V63.9639C31.0092 63.9873 31.5032 64.0001 32.0004 64.0001C33.6454 64.0001 35.2597 63.8688 36.8346 63.619C37.4087 60.7165 38.2966 55.4543 38.8494 47.8841Z" fill="#D3DCFB"/>
<path d="M38.8349 48.075C39.086 44.6898 39.2704 40.8395 39.3293 36.5273C39.1151 36.6571 38.9421 36.8607 38.8541 37.1241C38.3948 38.5002 37.3463 40.634 35.0276 42.169C34.3983 42.5856 34.2825 43.4628 34.7789 44.0315L37.8401 47.5377C38.1116 47.8503 38.4674 48.0261 38.8349 48.075Z" fill="#DEEEFF"/>
<path d="M47.5716 44.602L44.3806 45.3636C44.004 45.4535 43.6541 45.6321 43.3604 45.8845L41.8104 47.2162L42.0971 47.4272L41.8104 47.4709L38.8636 45.1912C39.1126 40.9362 39.1716 34.1416 39.1716 34.1416L40.8771 34.8009C42.3461 35.3687 43.6018 36.3799 44.4698 37.694L48.1186 43.2182C48.466 43.7442 48.1849 44.4556 47.5716 44.602Z" fill="#FFDD40"/>
<path d="M45.9721 50.2794L41.8102 47.216L38.8773 44.9473C38.5961 49.8756 37.9792 56.8384 36.6322 63.6513C39.0156 63.2896 41.3079 62.6516 43.4777 61.7739C44.6728 59.3254 45.9524 56.4398 46.9752 53.4923C47.3827 52.3184 46.9727 51.0159 45.9721 50.2794Z" fill="#FEE77F"/>
<path d="M16.5599 44.602L19.7509 45.3636C20.1275 45.4535 20.4774 45.6321 20.771 45.8845L22.321 47.2162L22.0343 47.4272L22.321 47.4709L25.2679 45.1912C25.0189 40.9362 24.9599 34.1416 24.9599 34.1416L23.2544 34.8009C21.7854 35.3687 20.5298 36.3799 19.6618 37.694L16.0129 43.2182C15.6655 43.7442 15.9466 44.4556 16.5599 44.602Z" fill="#FFDD40"/>
<path d="M25.2542 44.9473L22.3213 47.216L18.1595 50.2794C17.1588 51.0159 16.7488 52.3184 17.1562 53.4923C18.1885 56.467 19.4823 59.3783 20.6868 61.8413C22.8487 62.7011 25.1317 63.3213 27.503 63.6703C26.1535 56.8514 25.5357 49.8803 25.2542 44.9473Z" fill="#FEE77F"/>
<path d="M51.7674 9.98535C49.6746 11.684 48.1446 14.1424 49.3498 17.4227C54.4724 31.3666 43.7076 30.756 54.2224 37.3916C57.4728 39.4429 59.5663 41.8056 60.8509 43.6656C61.9989 40.4494 62.6253 36.9855 62.6253 33.3747C62.6253 23.9957 58.4078 15.6031 51.7674 9.98535Z" fill="#9589E8"/>
<path d="M12.2326 9.98535C14.3255 11.684 15.8554 14.1424 14.6503 17.4227C9.52763 31.3666 20.2924 30.756 9.77763 37.3916C6.52726 39.4429 4.43376 41.8056 3.14913 43.6656C2.00113 40.4494 1.37476 36.9855 1.37476 33.3747C1.37476 23.9957 5.59226 15.6031 12.2326 9.98535Z" fill="#9589E8"/>
<path d="M54.7934 53.8246C54.0957 51.7245 52.72 50.4631 51.5855 49.7459C50.8042 49.2519 49.7853 49.808 49.7853 50.7324V58.3071C51.615 56.9991 53.2944 55.4946 54.7934 53.8246Z" fill="#FFB332"/>
<path d="M42.9231 17.8786C42.8396 17.0233 42.1058 16.3767 41.2467 16.3923C38.5893 16.4404 34.8457 15.1819 33.1086 12.3303C32.5373 11.3924 31.9488 10.7018 31.3809 10.1904C29.8856 11.7562 29.4126 13.9053 29.4126 13.9053C29.4023 14.2491 29.2638 14.5806 29.0117 14.8646C27.6227 16.4298 27.9268 21.0027 28.2509 22.8854C28.9686 26.0532 30.0082 28.8153 31.3404 31.0953C32.3401 32.8061 33.7214 34.2337 35.3919 35.3038C37.1697 34.2314 38.6337 32.7588 39.6767 30.9741C40.9896 28.7273 42.0143 26.0046 42.7232 22.8761C42.9071 21.7074 43.0974 19.6646 42.9231 17.8786Z" fill="#FCE6CA"/>
<path d="M31.4005 30.9732C30.0873 28.7258 29.0626 26.0032 28.3552 22.8808C28.0357 21.025 27.7358 16.5174 29.1051 14.9747C29.3536 14.6948 29.4902 14.3679 29.5002 14.0292C29.5002 14.0292 29.9791 11.8495 31.5032 10.3014C29.5587 8.46915 27.8251 8.7984 27.8251 8.7984C23.6872 9.05615 22.5957 14.0292 22.5957 14.0292C22.5856 14.3679 22.4491 14.6948 22.2006 14.9747C20.8315 16.5175 21.1313 21.025 21.4507 22.8808C22.1581 26.0032 23.1828 28.7258 24.496 30.9732C25.8291 33.2547 27.848 35.029 30.3342 36.1047C31.4478 36.5863 32.7247 36.5863 33.8382 36.1047C34.433 35.8473 35.0001 35.5489 35.5385 35.2143C33.8266 34.1499 32.4146 32.7088 31.4005 30.9732Z" fill="#FFD9A1"/>
</svg>
