<svg width="64" height="64" viewBox="0 0 64 64" fill="none" xmlns="http://www.w3.org/2000/svg">
<path d="M58.6251 48.5155C61.1703 44.0498 62.6253 38.8821 62.6253 33.3743C62.6253 16.4604 48.9139 2.74902 32 2.74902C15.0861 2.74902 1.37476 16.4604 1.37476 33.3743C1.37476 38.8821 2.82976 44.0498 5.37488 48.5155H58.6251Z" fill="#88CE65"/>
<path d="M28.8109 63.8353C29.8592 63.9438 30.9231 64 32.0002 64C33.0904 64 34.1669 63.942 35.2276 63.8309V47.125H28.811V63.8353H28.8109Z" fill="#73C3F9"/>
<path d="M35.2276 47.125H28.8109V50.984C29.8262 51.3209 30.9012 51.5 32.0005 51.5C33.1134 51.5 34.2011 51.3162 35.2275 50.9712V47.125H35.2276Z" fill="#49B1F7"/>
<path d="M39.1021 44.2936L42.125 39.6251C41.4981 39.4316 40.8604 39.2586 40.2084 39.1081C38.9394 37.8391 38.6176 35.4332 38.5598 33.75C37.8975 34.5214 37.2025 35.1666 36.5384 35.6823C35.2444 36.6871 33.6476 37.2329 32.0031 37.2329C30.3586 37.2329 28.7619 36.6871 27.468 35.6823C26.8039 35.1666 26.1088 34.5213 25.4465 33.75C25.3886 35.4332 25.0669 37.8391 23.7979 39.1081C23.1445 39.2589 22.5055 39.4324 21.8773 39.6263L24.8983 44.2929C26.4575 46.7015 29.1311 48.1556 32.0004 48.1556C34.8694 48.1557 37.5429 46.7019 39.1021 44.2936Z" fill="#FFAA7B"/>
<path d="M27.4681 35.6822C26.804 35.1665 26.109 34.5212 25.4466 33.75C25.3888 35.4332 25.067 37.8391 23.798 39.1081C23.1446 39.2589 22.5056 39.4324 21.8774 39.6264L23.9711 42.8607C25.445 43.525 27.0238 43.8651 28.3676 43.3136C31.2694 42.1227 31.8668 38.7201 31.9884 37.2327C30.3493 37.2294 28.7581 36.6841 27.4681 35.6822Z" fill="#FC9460"/>
<path d="M26.2795 41.334C26.1418 41.3707 25.9998 41.4155 25.8543 41.4709C24.8342 41.8592 23.4672 42.8399 22.6967 45.3051C21.9519 45.3177 18.5498 45.4976 16.3284 47.6846C15.0644 48.9292 14.4234 50.6 14.4234 52.6505V58.4537C18.7239 61.4729 23.8358 63.4146 29.3678 63.8856V42.9047L26.2795 41.334Z" fill="#6C5475"/>
<path d="M22.5343 39.4297C10.8244 43.2481 7.48463 43.9308 6.07451 46.8071C5.82401 47.3179 5.59138 47.8926 5.37476 48.5161C7.66076 52.5273 10.8273 55.9712 14.6109 58.5856C14.6109 56.9954 14.6109 55.0204 14.6109 52.6509C14.6109 45.3644 22.8358 45.4924 22.8358 45.4924C23.6926 42.6109 25.3458 41.7179 26.5371 41.4656L22.5343 39.4297Z" fill="#56415E"/>
<path d="M58.6254 48.5161C58.4087 47.8926 58.1761 47.3179 57.9256 46.8071C56.5156 43.9308 53.1757 43.2481 41.4659 39.4297L37.4359 41.4793V63.5189C46.5189 61.8919 54.2121 56.2599 58.6254 48.5161Z" fill="#6C5475"/>
<path d="M43.9293 19.7602C44.7423 16.4448 45.4062 11.4771 43.6484 7.34358C40.2493 -0.649416 30.9984 -0.156667 28.5469 0.124833C28.2896 0.154333 28.1604 0.447958 28.3068 0.661583C29.7763 2.80683 24.0192 0.863209 20.8901 7.42696C18.9068 11.5868 19.4052 16.4846 20.1302 19.7603H43.9293V19.7602Z" fill="#56415E"/>
<path d="M31.8658 8.80647C31.8658 8.80647 30.9443 6.68722 33.2779 4.93722C35.6084 3.18947 32.1343 0.0493484 32.1253 0.0412234C30.5622 -0.0577766 29.2636 0.0422234 28.5468 0.124598C28.2894 0.154098 28.1603 0.447723 28.3067 0.661348C29.7762 2.8066 24.0191 0.862974 20.8899 7.42672C18.9067 11.5866 19.4051 16.4843 20.1301 19.7601H25.5702L27.2982 19.0736L31.8658 8.80647Z" fill="#45304C"/>
<path d="M44.4071 19.3405C43.8942 18.8705 42.7476 19.1088 42.3059 19.3966C42.4026 19.9992 42.4081 20.6157 42.3246 21.2244L41.8034 25.0209C41.8034 25.3269 41.7938 25.6272 41.776 25.9222C43.0471 26.3055 43.8035 25.1644 43.9099 24.3813C43.9556 24.0442 44.0305 23.7119 44.1344 23.3877C44.4724 22.3319 45.6921 20.5182 44.4071 19.3405Z" fill="#FFAA7B"/>
<path d="M19.593 19.3405C20.1059 18.8705 21.2525 19.1088 21.6943 19.3966C21.5975 19.9992 21.592 20.6157 21.6756 21.2244L22.1969 25.0209C22.1969 25.3269 22.2065 25.6272 22.2243 25.9222C20.9531 26.3055 20.1968 25.1644 20.0904 24.3813C20.0446 24.0442 19.9698 23.7119 19.8659 23.3877C19.5278 22.3319 18.308 20.5182 19.593 19.3405Z" fill="#FC9460"/>
<path d="M41.6655 17.314C41.0878 16.4079 41.2792 15.6678 41.2886 14.8012C41.2886 14.8012 41.7758 10.8115 36.8622 9.39491C35.4397 8.98478 33.4323 8.73953 31.3755 8.81841C29.9441 9.82753 29.0016 11.3083 29.0016 13.4065C29.0016 14.371 29.2095 15.1245 28.6177 16.1023C27.9795 17.1567 27.6082 18.6775 27.8191 20.295L28.3502 24.3687C28.3502 30.225 31.3187 34.2058 33.8438 36.2708C34.2031 36.5645 34.5865 36.8187 34.9863 37.0372C35.5355 36.7954 36.0562 36.4867 36.5352 36.1147C39.0141 34.1897 41.9282 30.479 41.9282 25.0198L42.4495 21.2233C42.6548 19.7275 42.2983 18.3069 41.6655 17.314Z" fill="#FFC7AB"/>
<path d="M33.8692 36.032C31.3903 34.0048 28.476 30.097 28.476 24.3477L27.9547 20.3485C27.7477 18.7608 28.1122 17.2677 28.7387 16.2325C29.3197 15.2727 29.1155 14.5329 29.1155 13.586C29.1155 11.3269 30.2265 9.79491 31.8654 8.80566C27.4983 8.86604 22.711 10.3463 22.711 14.8009C22.711 15.6999 22.915 16.4024 22.3342 17.3139C21.7077 18.2968 21.3432 19.7145 21.5502 21.2223L22.0715 25.0197C22.0715 30.4789 24.9857 34.1895 27.4647 36.1145C28.7585 37.1193 30.3553 37.665 31.9998 37.665C33.1312 37.665 34.2398 37.4068 35.2428 36.9184C34.7582 36.6775 34.2968 36.3818 33.8692 36.032Z" fill="#FFAA7B"/>
<path d="M34.632 63.8865C35.7838 63.7885 36.9175 63.6274 38.0294 63.4054V41.416L34.632 42.9055V63.8865Z" fill="#876D93"/>
<path d="M42.9531 39.1059C41.894 37.9505 40.653 36.9733 39.2775 36.214C39.1336 36.1347 38.9549 36.2178 38.922 36.3787C38.7201 37.3673 37.8821 40.3622 34.8915 42.3422C34.2736 42.7513 34.1597 43.6124 34.6471 44.1707L37.6522 47.6127C38.3752 48.4454 39.7065 48.2955 40.2282 47.324C41.1105 45.6815 42.3396 43.1817 43.2494 40.4938C43.4122 40.0127 43.2965 39.4804 42.9531 39.1059Z" fill="#A98BBC"/>
<path d="M29.1107 42.3423C28.5754 41.9879 28.1102 41.6007 27.7041 41.1985C27.3407 41.1693 26.6444 41.1709 25.8545 41.4715C24.8427 41.8567 23.4904 42.8252 22.7165 45.2455C23.0931 46.0284 23.4561 46.7325 23.774 47.3242C24.2959 48.2957 25.627 48.4455 26.35 47.6128L29.3551 44.1709C29.8425 43.6125 29.7286 42.7513 29.1107 42.3423Z" fill="#876D93"/>
<path d="M27.9312 41.4159C25.8892 39.5275 25.2523 37.2225 25.08 36.3788C25.0472 36.2178 24.8683 36.1347 24.7244 36.214C23.349 36.9733 22.1079 37.9504 21.0489 39.1059C20.7055 39.4804 20.5898 40.0127 20.7527 40.4939C21.3694 42.3164 22.1329 44.0515 22.8358 45.4924C24.2689 40.6729 27.9308 41.4158 27.9312 41.4159Z" fill="#6C5475"/>
<path d="M51.7627 9.98145C50.3391 11.8111 48.861 14.4872 48.861 17.7137C48.861 23.9376 41.1109 34.1793 48.861 36.1834C55.2322 37.8311 58.7501 38.5652 61.1815 42.6907C62.1188 39.7532 62.6253 36.6233 62.6253 33.3748C62.6252 23.9934 58.4057 15.5992 51.7627 9.98145Z" fill="#B4D667"/>
<path d="M12.2373 9.98145C13.6609 11.8111 15.139 14.4872 15.139 17.7137C15.139 23.9376 22.889 34.1793 15.139 36.1834C8.76776 37.8311 5.24976 38.5652 2.81863 42.6907C1.88126 39.7532 1.37476 36.6233 1.37476 33.3748C1.37476 23.9934 5.59426 15.5992 12.2373 9.98145Z" fill="#B4D667"/>
<path d="M54.701 53.9263C54.095 51.4213 52.5499 49.9745 51.3001 49.1844C50.5188 48.6904 49.5 49.2464 49.5 50.1709V58.5069C51.4029 57.1794 53.1475 55.6411 54.701 53.9263Z" fill="#56415E"/>
</svg>
