<svg width="40" height="40" viewBox="0 0 40 40" fill="none" xmlns="http://www.w3.org/2000/svg">
<path d="M0.982363 24.9273C1.20155 25.0796 1.43301 25.2134 1.67436 25.3273C1.96236 25.4747 2.4457 25.7213 2.4797 25.894C2.5216 26.1219 2.49419 26.3572 2.40103 26.5693C2.3017 26.7827 2.1977 26.966 2.1077 27.124C1.8637 27.5553 1.45503 28.278 2.07103 28.7813C2.21503 28.9147 2.4637 29.1073 2.69036 29.2813C2.5235 29.5731 2.44802 29.9082 2.4737 30.2433C2.50907 30.5073 2.65219 30.7448 2.86903 30.8993C3.01703 31.0033 3.17503 31.094 3.33036 31.1827C3.72503 31.4067 3.87903 31.5113 3.93036 31.7207C3.9674 31.989 3.94464 32.2622 3.8637 32.5207C3.82436 32.6987 3.78636 32.8773 3.7637 33.054C3.6975 33.6616 3.77256 34.2762 3.98303 34.85C4.28291 35.9092 5.241 36.6472 6.3417 36.6667C6.52542 36.6661 6.70861 36.6467 6.88836 36.6087C8.79288 36.1572 10.6696 35.5956 12.509 34.9267C14.011 35.808 14.9597 38.488 15.207 39.494C15.2809 39.7914 15.5479 40.0001 15.8544 40L32.5877 39.9533C32.7998 39.9529 32.999 39.8516 33.1243 39.6806C33.2496 39.5095 33.286 39.289 33.2224 39.0867C33.0575 38.635 32.8302 38.2086 32.547 37.82C32.3872 37.5895 32.2431 37.3486 32.1157 37.0987C31.8137 36.4877 31.562 35.8532 31.363 35.2013C30.9823 33.9135 30.7184 32.5939 30.5744 31.2587C30.4003 29.7145 30.5479 28.151 31.0077 26.6667H32.6677C33.7723 26.6667 34.6677 25.7712 34.6677 24.6667V16C34.6677 15.6318 34.3692 15.3333 34.001 15.3333H31.3104C31.326 15.2229 31.334 15.1115 31.3344 15C31.3344 13.7113 30.2897 12.6667 29.001 12.6667C27.7124 12.6667 26.6677 13.7113 26.6677 15C26.668 15.1115 26.676 15.2229 26.6917 15.3333H24.6677V13.31C25.0361 13.3625 25.4116 13.3271 25.7637 13.2067C26.5248 12.9475 27.0969 12.312 27.275 11.528C27.4495 10.7772 27.2419 9.98865 26.7203 9.42108C26.1988 8.85351 25.4306 8.58015 24.6677 8.69067V6C24.6677 5.63181 24.3692 5.33333 24.001 5.33333H15.3344C14.2298 5.33333 13.3344 6.22876 13.3344 7.33333V24.6667C13.3344 25.7712 14.2298 26.6667 15.3344 26.6667H29.6077C29.1881 28.2141 29.0675 29.8274 29.2524 31.42C29.4061 32.8356 29.6868 34.2346 30.091 35.6C30.3104 36.3166 30.5871 37.0144 30.9184 37.6867C31.0705 37.9886 31.2431 38.2797 31.435 38.558L31.4797 38.6247L16.3584 38.6667C15.9158 37.0852 15.1125 35.6279 14.0117 34.4093L14.6117 34.1993C15.0584 34.0433 15.395 33.926 15.5677 33.8707C18.4237 32.9673 19.8517 31.6667 19.813 30.004C19.8044 29.6358 19.4989 29.3443 19.1307 29.353C18.7625 29.3617 18.471 29.6671 18.4797 30.0353C18.4957 30.7213 17.9337 31.722 15.1624 32.5987C14.9817 32.6567 14.6337 32.778 14.1717 32.9393C13.6764 33.1127 13.0464 33.3327 12.3517 33.5687H12.347C10.4709 34.2564 8.55659 34.8351 6.6137 35.302C5.99332 35.4198 5.39025 35.028 5.2457 34.4133C5.10327 34.0341 5.04968 33.6272 5.08903 33.224C5.10636 33.084 5.13836 32.9453 5.16903 32.806C5.30487 32.3451 5.3248 31.8578 5.22703 31.3873C5.03313 30.7749 4.5825 30.2771 3.99236 30.0233L3.85436 29.9447C3.92635 29.7993 4.01231 29.6613 4.11103 29.5327C4.22287 29.391 4.27246 29.21 4.24846 29.031C4.22446 28.8521 4.12893 28.6906 3.9837 28.5833C3.8237 28.466 3.44636 28.1833 3.17036 27.9607C3.20236 27.9027 3.23703 27.8387 3.27036 27.7807C3.37503 27.5973 3.49436 27.384 3.61103 27.1373C3.82199 26.67 3.88414 26.1492 3.78903 25.6453C3.62903 24.832 2.8497 24.4333 2.2817 24.1427C2.0899 24.0515 1.90594 23.9447 1.7317 23.8233C1.58994 23.7275 1.45698 23.6193 1.33436 23.5C1.33436 23.3987 1.44303 23.1533 1.95103 22.5353C3.14508 20.9982 4.16884 19.336 5.00436 17.578C5.16059 17.3026 5.2486 16.9937 5.26103 16.6773C5.19217 16.0072 4.83706 15.3996 4.28703 15.0107C4.02036 14.7633 3.7637 14.53 3.7337 14.3127C3.73812 14.1553 3.77346 14.0004 3.8377 13.8567C3.94636 13.5707 4.0717 13.2907 4.1977 13.01C4.47106 12.4463 4.68941 11.8576 4.8497 11.252L4.91636 10.968C5.05709 10.3015 5.23854 9.64428 5.4597 9C5.98523 7.5495 6.7989 6.22038 7.8517 5.09267C9.12703 3.74333 11.1344 2.78867 13.8277 2.25333C15.8872 1.80112 17.977 1.5001 20.0804 1.35267C23.118 1.20093 26.1253 2.01875 28.6677 3.688V4.33333C28.6677 4.58585 28.8104 4.81669 29.0362 4.92962C29.2621 5.04255 29.5324 5.01818 29.7344 4.86667C30.17 4.5593 30.7683 4.63601 31.1124 5.04333C31.3061 5.28556 31.3772 5.60366 31.305 5.90533C31.2268 6.2336 30.9865 6.49928 30.6677 6.61C30.3509 6.72158 29.9993 6.66782 29.7304 6.46667C29.5284 6.31752 29.2597 6.29451 29.0353 6.40714C28.8109 6.51976 28.6688 6.74892 28.6677 7V10C28.6677 10.7364 29.2647 11.3333 30.001 11.3333H33.001C33.2535 11.3333 33.4844 11.1907 33.5973 10.9648C33.7102 10.739 33.6859 10.4687 33.5344 10.2667C33.2249 9.85411 33.28 9.27392 33.6615 8.92692C34.043 8.57992 34.6258 8.57992 35.0072 8.92692C35.3887 9.27392 35.4438 9.85411 35.1344 10.2667C34.9829 10.4687 34.9585 10.739 35.0714 10.9648C35.1843 11.1907 35.4152 11.3333 35.6677 11.3333H39.3344C39.7026 11.3333 40.001 11.0349 40.001 10.6667V2C40.001 0.895431 39.1056 0 38.001 0H29.3344C28.9662 0 28.6677 0.298477 28.6677 0.666667V2.09133C26.0409 0.585746 23.0368 -0.133017 20.013 0.0206667C17.8438 0.171126 15.6884 0.480399 13.5644 0.946C10.5584 1.546 8.3737 2.6 6.88236 4.176C5.70597 5.43478 4.79639 6.91854 4.20836 8.538C3.96828 9.23485 3.77102 9.94574 3.6177 10.6667L3.55103 10.948C3.40874 11.4709 3.21791 11.9793 2.98103 12.4667C2.8477 12.7707 2.70903 13.0747 2.5897 13.3893C2.43626 13.7396 2.37565 14.1235 2.4137 14.504C2.54784 15.1015 2.89265 15.6306 3.38503 15.9947C3.71103 16.2933 3.92503 16.504 3.9277 16.6873C3.90384 16.7887 3.86568 16.8861 3.81436 16.9767C3.01601 18.6575 2.0381 20.247 0.897696 21.7173C0.414363 22.3053 -0.0923038 22.9913 0.0143629 23.678C0.155776 24.2077 0.504732 24.6581 0.982363 24.9273ZM14.6677 7.33333C14.6677 6.96514 14.9662 6.66667 15.3344 6.66667H23.3344V9.66667C23.3344 9.91918 23.477 10.15 23.7029 10.263C23.9287 10.3759 24.199 10.3515 24.401 10.2C24.8367 9.89264 25.435 9.96935 25.779 10.3767C25.9728 10.6189 26.0439 10.937 25.9717 11.2387C25.8934 11.5669 25.6531 11.8326 25.3344 11.9433C25.0165 12.0549 24.664 12.0001 24.395 11.7973C24.1927 11.6491 23.9242 11.627 23.7003 11.7401C23.4765 11.8532 23.335 12.0825 23.3344 12.3333V15.3333H21.3117C21.3633 14.9653 21.3277 14.5904 21.2077 14.2387C20.9491 13.4771 20.3139 12.9042 19.5297 12.7253C18.8361 12.564 18.1067 12.7282 17.5492 13.1713C16.9917 13.6144 16.6671 14.2879 16.6677 15C16.668 15.1115 16.676 15.2229 16.6917 15.3333H14.6677V7.33333ZM14.6677 24.6667V16.6667H17.6677C17.9202 16.6667 18.1511 16.524 18.264 16.2981C18.3769 16.0723 18.3525 15.802 18.201 15.6C17.8787 15.1679 17.9569 14.5582 18.3777 14.2213C18.6202 14.0277 18.9386 13.9568 19.2404 14.0293C19.5687 14.1071 19.8344 14.3476 19.9444 14.6667C20.0567 14.9843 20.0016 15.3371 19.7977 15.6053C19.649 15.8078 19.6267 16.0767 19.7401 16.3008C19.8534 16.525 20.0832 16.6664 20.3344 16.6667H23.3344V18.6907C22.4298 18.5599 21.5323 18.9693 21.038 19.738C20.5437 20.5067 20.5437 21.4933 21.038 22.262C21.5323 23.0307 22.4298 23.4401 23.3344 23.3093V25.3333H15.3344C14.9662 25.3333 14.6677 25.0349 14.6677 24.6667ZM24.2977 21.7333C24.0707 21.6219 23.8003 21.6477 23.5984 21.8C23.1858 22.1094 22.6056 22.0544 22.2586 21.6729C21.9116 21.2914 21.9116 20.7086 22.2586 20.3271C22.6056 19.9456 23.1858 19.8906 23.5984 20.2C23.8004 20.3515 24.0707 20.3759 24.2965 20.263C24.5224 20.15 24.665 19.9192 24.665 19.6667V16.6667H27.665C27.9175 16.6667 28.1484 16.524 28.2613 16.2981C28.3742 16.0723 28.3499 15.802 28.1984 15.6C27.8889 15.1874 27.944 14.6073 28.3255 14.2603C28.707 13.9132 29.2898 13.9132 29.6712 14.2603C30.0527 14.6073 30.1078 15.1874 29.7984 15.6C29.6469 15.802 29.6225 16.0723 29.7354 16.2981C29.8483 16.524 30.0792 16.6667 30.3317 16.6667H33.3344V24.6667C33.3344 25.0349 33.0359 25.3333 32.6677 25.3333H24.6677V22.3333C24.6688 22.0792 24.5253 21.8464 24.2977 21.7333ZM30.001 1.33333H38.001C38.3692 1.33333 38.6677 1.63181 38.6677 2V10H36.6437C36.6594 9.88957 36.6674 9.7782 36.6677 9.66667C36.6677 8.378 35.623 7.33333 34.3344 7.33333C33.0457 7.33333 32.001 8.378 32.001 9.66667C32.0013 9.7782 32.0094 9.88957 32.025 10H30.001V7.97667C30.3694 8.02915 30.745 7.99375 31.097 7.87333C31.8581 7.61413 32.4302 6.97867 32.6084 6.19467C32.7828 5.44385 32.5752 4.65532 32.0537 4.08775C31.5321 3.52018 30.7639 3.24681 30.001 3.35733V1.33333Z" fill="#4125B2"/>
<path d="M7.44529 11.8606L7.51196 11.5713C7.63027 11.0141 7.78029 10.4641 7.96129 9.92395C8.36234 8.80968 8.98638 7.78889 9.79529 6.92395C10.3141 6.40223 10.9302 5.98729 11.6086 5.70262C11.8335 5.6101 11.9901 5.40251 12.0174 5.1609C12.0447 4.91929 11.9383 4.68199 11.7397 4.54167C11.5411 4.40134 11.2819 4.38025 11.0633 4.48662C10.2243 4.84193 9.4638 5.35938 8.82529 6.00929C7.89178 7.00566 7.17152 8.18213 6.70862 9.46662C6.50745 10.0588 6.34116 10.6623 6.21062 11.274L6.14396 11.5673C6.10415 11.7402 6.13488 11.9218 6.22935 12.0719C6.32382 12.222 6.47422 12.3284 6.64729 12.3673C6.69561 12.3784 6.74504 12.384 6.79462 12.384C7.10743 12.3838 7.37804 12.1661 7.44529 11.8606Z" fill="#4125B2"/>
<path d="M6.00114 14.6667C6.36933 14.6667 6.66781 14.3682 6.66781 14C6.66781 13.6319 6.36933 13.3334 6.00114 13.3334C5.63295 13.3334 5.33447 13.6319 5.33447 14C5.33447 14.3682 5.63295 14.6667 6.00114 14.6667Z" fill="#4125B2"/>
</svg>
