<svg width="39" height="40" viewBox="0 0 39 40" fill="none" xmlns="http://www.w3.org/2000/svg">
<path d="M37.1807 8.73244C35.7698 7.32583 33.6131 6.98825 31.8399 7.89672V4.58716C31.837 2.0549 29.785 0.00286697 27.2527 0H4.58716C2.0549 0.00286697 0.00286697 2.0549 0 4.58716V35.4128C0.00286697 37.9451 2.0549 39.9971 4.58716 40H27.2527C29.785 39.9971 31.837 37.9451 31.8399 35.4128V21.3647L37.5831 15.6214C39.3746 13.8299 39.3746 10.9257 37.5831 9.13417L37.1807 8.73244ZM16.9707 25.9744L20.3125 29.347L15.764 30.5537L16.9707 25.9744ZM22.0829 28.5267L17.7881 24.1926L30.1842 11.832L34.4811 16.1285L22.0829 28.5267ZM30.005 35.4128C30.0032 36.9323 28.7722 38.1633 27.2527 38.1651H4.58716C3.06766 38.1633 1.83665 36.9323 1.83486 35.4128V4.58716C1.83665 3.06766 3.06766 1.83665 4.58716 1.83486H27.2527C28.7722 1.83665 30.0036 3.06766 30.005 4.58716V9.41872L15.845 23.5386C15.7296 23.6536 15.6469 23.7973 15.6056 23.9546L13.588 31.6112C13.5049 31.927 13.5959 32.2631 13.8271 32.4943C14.0582 32.7251 14.3944 32.8154 14.7104 32.7315L22.3151 30.7139C22.4713 30.6727 22.614 30.5906 22.7286 30.4759L30.005 23.1995V35.4128ZM36.2855 14.3241L35.7784 14.8312L31.4833 10.5361L31.9947 10.0262C33.0709 8.95678 34.809 8.95857 35.8834 10.0297L36.2855 10.4318C37.3588 11.5073 37.3584 13.2486 36.2855 14.3241Z" fill="#9C00C3"/>
</svg>
