<svg width="41" height="40" viewBox="0 0 41 40" fill="none" xmlns="http://www.w3.org/2000/svg">
<path d="M0.982335 24.9278C1.20152 25.08 1.43297 25.2138 1.67431 25.3278C1.96231 25.4751 2.44563 25.7217 2.47962 25.8944C2.52152 26.1223 2.49412 26.3575 2.40096 26.5697C2.30163 26.783 2.19763 26.9664 2.10764 27.1244C1.86364 27.5557 1.45499 28.2783 2.07097 28.7817C2.21497 28.915 2.46363 29.1076 2.69029 29.2816C2.52343 29.5734 2.44795 29.9085 2.47363 30.2436C2.509 30.5075 2.65212 30.745 2.86895 30.8996C3.01694 31.0036 3.17494 31.0943 3.33027 31.1829C3.72492 31.4069 3.87892 31.5116 3.93025 31.7209C3.96729 31.9892 3.94452 32.2624 3.86359 32.5209C3.82425 32.6989 3.78625 32.8775 3.76359 33.0542C3.69739 33.6618 3.77245 34.2764 3.98292 34.8501C4.28278 35.9094 5.24085 36.6473 6.34151 36.6668C6.52524 36.6662 6.70842 36.6468 6.88817 36.6088C8.79263 36.1573 10.6693 35.5957 12.5087 34.9268C14.0106 35.8081 14.9593 38.488 15.2066 39.494C15.2804 39.7914 15.5475 40.0001 15.8539 40L32.5868 39.9533C32.7988 39.9529 32.998 39.8516 33.1233 39.6806C33.2486 39.5095 33.285 39.289 33.2214 39.0867C33.0566 38.635 32.8293 38.2086 32.5461 37.8201C32.3862 37.5896 32.2421 37.3486 32.1148 37.0987C31.8128 36.4878 31.5611 35.8533 31.3621 35.2015C30.9813 33.9132 30.7174 32.5932 30.5735 31.2576C30.3954 29.7151 30.5368 28.1525 30.9888 26.667C31.1164 26.3211 30.9394 25.9373 30.5935 25.8097C30.2476 25.6822 29.8638 25.8592 29.7362 26.2051C29.2126 27.8911 29.0475 29.668 29.2515 31.4216C29.4054 32.8367 29.686 34.2352 30.0902 35.6001C30.3095 36.3167 30.5862 37.0145 30.9175 37.6867C31.0696 37.9886 31.2422 38.2798 31.4341 38.558L31.4788 38.6247L16.3579 38.6667C15.9153 37.0853 15.1121 35.6281 14.0113 34.4095L14.6113 34.1995C15.0579 34.0435 15.3946 33.9262 15.5673 33.8708C18.4232 32.9675 19.8511 31.6669 19.8125 30.0043C19.8038 29.6424 19.5078 29.3535 19.1458 29.3536H19.1338C18.7659 29.3624 18.4746 29.6677 18.4832 30.0356C18.4992 30.7216 17.9372 31.7222 15.1659 32.5989C14.9853 32.6569 14.6373 32.7782 14.1753 32.9395C13.68 33.1129 13.05 33.3329 12.3553 33.5688H12.3507C10.4746 34.2565 8.56035 34.8353 6.61751 35.3021C5.99591 35.4216 5.39072 35.0296 5.24555 34.4135C5.10313 34.0342 5.04953 33.6274 5.08888 33.2242C5.10622 33.0842 5.13822 32.9455 5.16888 32.8062C5.30472 32.3453 5.32464 31.858 5.22688 31.3876C5.03313 30.7753 4.58244 30.2776 3.99225 30.0243L3.85425 29.945C3.92624 29.7996 4.01219 29.6616 4.11091 29.533C4.22275 29.3913 4.27234 29.2103 4.24834 29.0313C4.22434 28.8524 4.12881 28.6909 3.98358 28.5837C3.82359 28.4663 3.44626 28.1837 3.17027 27.961C3.20227 27.903 3.23694 27.839 3.27027 27.781C3.37493 27.5977 3.49426 27.3844 3.61093 27.1377C3.82188 26.6704 3.88402 26.1495 3.78892 25.6457C3.62893 24.8324 2.84961 24.4338 2.28163 24.1431C2.08984 24.052 1.90589 23.9452 1.73165 23.8238C1.5899 23.728 1.45693 23.6198 1.33432 23.5005C1.33432 23.3991 1.44299 23.1538 1.95097 22.5358C3.14499 20.9987 4.16872 19.3366 5.00422 17.5786C5.16044 17.3032 5.24845 16.9944 5.26088 16.678C5.19202 16.0079 4.83692 15.4003 4.28691 15.0114C4.02025 14.7641 3.76359 14.5307 3.73359 14.3134C3.73801 14.1561 3.77335 14.0011 3.83759 13.8574C3.94625 13.5714 4.07158 13.2914 4.19758 13.0108C4.47094 12.4471 4.68927 11.8584 4.84956 11.2528L4.91622 10.9688C5.05694 10.3024 5.23839 9.64515 5.45954 9.00089C5.98506 7.55043 6.7987 6.22134 7.85147 5.09366C9.12677 3.74437 11.134 2.78973 13.8273 2.25441C15.887 1.80226 17.9769 1.50102 20.0805 1.3531C23.8443 1.16711 27.0889 2.29974 30.5848 5.03367C31.0559 5.40054 31.498 5.80304 31.9074 6.23763C32.1598 6.50585 32.5819 6.51868 32.8501 6.2663C33.1183 6.01391 33.1311 5.59188 32.8788 5.32366C32.4224 4.83931 31.9294 4.39088 31.4041 3.98236C27.6396 1.03778 24.121 -0.182186 20.0125 0.0218086C17.8432 0.172263 15.688 0.481528 13.564 0.947115C10.5581 1.5471 8.37346 2.60107 6.88216 4.17702C5.70581 5.43577 4.79626 6.91949 4.20824 8.5389C3.96816 9.23573 3.77091 9.9466 3.61759 10.6675L3.55093 10.9488C3.40865 11.4717 3.21782 11.9801 2.98094 12.4675C2.84761 12.7714 2.70895 13.0754 2.58962 13.3901C2.43619 13.7404 2.37558 14.1242 2.41363 14.5047C2.54776 15.1022 2.89257 15.6313 3.38493 15.9954C3.71092 16.294 3.92492 16.5047 3.92758 16.688C3.90373 16.7893 3.86557 16.8868 3.81425 16.9773C3.01593 18.6581 2.03804 20.2475 0.897671 21.7179C0.414351 22.3058 -0.0923012 22.9918 0.0143625 23.6785C0.155771 24.2082 0.504718 24.6585 0.982335 24.9278Z" fill="#FFC223"/>
<path d="M7.44529 11.8674L7.51196 11.5774C7.62891 11.0205 7.77782 10.4707 7.95795 9.93082C8.36 8.81812 8.98215 7.79784 9.78723 6.9309C10.6513 6.11636 11.7088 5.53563 12.8598 5.24362C13.0922 5.17813 13.271 4.99209 13.3273 4.75728C13.3836 4.52248 13.3084 4.2756 13.1309 4.11191C12.9535 3.94821 12.7013 3.89329 12.4718 3.96832C11.0981 4.32531 9.83966 5.03043 8.81792 6.0156C7.88956 7.01258 7.17193 8.18665 6.70798 9.4675C6.50812 10.0586 6.3434 10.6609 6.21466 11.2714L6.148 11.5601C6.09108 11.7929 6.16349 12.0383 6.33764 12.2029C6.5118 12.3675 6.76091 12.426 6.99012 12.3561C7.21932 12.2861 7.39336 12.0986 7.44596 11.8648L7.44529 11.8674Z" fill="#FFC223"/>
<path d="M6.00063 14.6674C6.36881 14.6674 6.66728 14.3689 6.66728 14.0008C6.66728 13.6326 6.36881 13.3341 6.00063 13.3341C5.63245 13.3341 5.33398 13.6326 5.33398 14.0008C5.33398 14.3689 5.63245 14.6674 6.00063 14.6674Z" fill="#FFC223"/>
<path d="M36.276 7.40092C36.1938 7.04953 35.8469 6.82733 35.4933 6.8996C33.4467 7.38155 31.5122 8.25342 29.7955 9.46753C29.0123 7.52478 27.8829 5.74034 26.4623 4.20102C26.3371 4.07329 26.1658 4.00123 25.9869 4.00102C25.8044 3.9925 25.628 4.06759 25.5076 4.20502C24.0993 5.75758 22.9835 7.55223 22.2144 9.5022C20.4858 8.27034 18.5337 7.38723 16.4672 6.90227C16.1141 6.82991 15.7674 7.0514 15.6846 7.40226C15.3566 9.01134 15.2712 10.6604 15.4312 12.2948C14.4725 12.2026 13.5073 12.1997 12.548 12.2861C12.1903 12.327 11.9296 12.6446 11.9593 13.0034C11.9793 13.2421 12.488 18.8753 16.3592 22.0545C19.1311 24.3304 22.7997 24.6711 24.749 24.6711C25.2156 24.6711 25.579 24.6518 25.8156 24.6344C25.8693 24.6526 25.9251 24.6638 25.9816 24.6678C26.044 24.6645 26.1055 24.6521 26.1643 24.6311C26.3789 24.6458 26.7116 24.6631 27.1582 24.6631C29.0789 24.6631 32.8181 24.3351 35.598 22.0565C39.4666 18.8733 39.9779 13.2408 39.9999 13.0008C40.0292 12.6424 39.7691 12.3253 39.4119 12.2841C38.4534 12.1983 37.4889 12.203 36.5313 12.2981C36.6913 10.6621 36.6053 9.0114 36.276 7.40092ZM35.164 12.4841C33.1648 12.7786 31.2764 13.5877 29.6842 14.832C29.5708 14.922 29.4662 15.012 29.3609 15.11L29.3462 15.1247L29.3382 15.1334C29.3289 15.1427 29.3195 15.152 29.3109 15.162C28.1884 16.2157 27.2892 17.4844 26.6669 18.8926C26.6669 18.6606 26.6603 18.4219 26.6496 18.1793C26.6921 16.3694 27.2077 14.6023 28.1449 13.0534C28.6325 12.3059 29.2285 11.635 29.9135 11.0628C31.4454 9.82918 33.2099 8.91663 35.102 8.37956C35.3036 9.73947 35.3244 11.1201 35.164 12.4854V12.4841ZM25.9916 5.68031C27.1516 7.07719 28.0683 8.65921 28.7035 10.3602C27.4431 11.4841 26.5026 12.9216 25.9776 14.5267C25.4573 12.9464 24.5373 11.5275 23.307 10.4075C23.93 8.69218 24.8376 7.09408 25.9916 5.68031ZM16.8619 8.37956C18.7746 8.92222 20.5563 9.84981 22.0977 11.1055C22.7621 11.6678 23.3401 12.3248 23.813 13.0554C24.7493 14.6023 25.2663 16.3664 25.313 18.174C25.3016 18.4166 25.2963 18.6513 25.295 18.8786C24.6744 17.4979 23.7893 16.2523 22.6897 15.212C22.6576 15.1753 22.6214 15.1424 22.5817 15.114C22.4817 15.0247 22.3884 14.93 22.2837 14.8474C20.6869 13.601 18.7968 12.7855 16.7945 12.4788C16.6372 11.1153 16.6599 9.73711 16.8619 8.37956ZM17.2072 21.0232C14.5119 18.8106 13.6353 15.09 13.3813 13.5694C14.9146 13.5201 18.7338 13.6521 21.4371 15.8713C24.1403 18.0906 25.009 21.8045 25.263 23.3251C23.7337 23.3771 19.9104 23.2425 17.2072 21.0232ZM38.5766 13.5681C38.3253 15.0854 37.4546 18.8033 34.7507 21.0252C32.0268 23.2578 28.2176 23.3785 26.6956 23.3245C26.7409 23.0418 26.8076 22.6892 26.9023 22.2878C26.9023 22.2738 26.9083 22.2592 26.9109 22.2452C27.3937 19.9121 28.5585 17.7749 30.2575 16.1047C30.2789 16.0852 30.2991 16.0645 30.3182 16.0427C30.3848 15.9847 30.4515 15.9287 30.5228 15.8693C32.0749 14.6914 33.9136 13.9496 35.8487 13.7207C36.7518 13.5902 37.6646 13.5391 38.5766 13.5681Z" fill="#FFC223"/>
</svg>
