<svg width="20" height="21" viewBox="0 0 20 21" fill="none" xmlns="http://www.w3.org/2000/svg">
<path fill-rule="evenodd" clip-rule="evenodd" d="M19.9472 11.737C20.1346 14.4955 19.9103 17.6097 17.8288 19.4295C15.8087 21.1955 12.801 20.6285 10.1363 20.3143C7.87631 20.0477 5.80402 19.2765 4.06684 17.8065C2.13422 16.1711 0.00269078 14.2687 3.43279e-06 11.737C-0.00268582 9.20411 2.13382 7.30657 4.05394 5.65466C5.79551 4.15636 7.84172 3.12982 10.1363 3.0166C12.5615 2.89693 15.0352 3.41011 16.8501 5.02325C18.765 6.72537 19.7735 9.18084 19.9472 11.737Z" fill="#C3ECA6"/>
<path d="M4.58709 10.2242H4.92928L6.29754 19.5931C6.33181 19.8268 6.53217 20 6.7687 20H14.8198C15.0563 20 15.2567 19.8268 15.291 19.5931L16.6592 10.2242H17.0209C17.5459 10.2242 17.9728 9.79726 17.9728 9.27232V7.60661C17.9728 7.08167 17.5459 6.65477 17.0209 6.65477H16.5241C16.9781 6.13983 17.4593 5.41595 17.4926 4.62974C17.5178 4.03341 17.2746 3.48277 16.7887 3.03731C16.7716 3.02208 16.7539 3.0078 16.7349 2.99495C15.9335 2.44908 15.0511 2.40196 14.183 2.86122C13.9974 2.95926 13.8175 3.07872 13.6452 3.21483C13.7024 2.48763 13.6272 1.69284 13.206 1.06891C12.7272 0.359795 11.9191 0 10.8035 0C9.68798 0 8.87988 0.359319 8.4011 1.06891C7.97991 1.69284 7.90472 2.48763 7.96183 3.21483C7.78955 3.07919 7.61012 2.95974 7.42404 2.8617C6.55596 2.40291 5.67361 2.44955 4.87217 2.99543C4.85313 3.00828 4.83552 3.02256 4.81839 3.03779C4.33295 3.48325 4.08976 4.03389 4.1145 4.63021C4.14782 5.41643 4.62897 6.1403 5.083 6.65524H4.58709C4.06215 6.65524 3.63525 7.08214 3.63525 7.60708V9.2728C3.63525 9.79726 4.06168 10.2242 4.58709 10.2242ZM14.4077 19.0482H7.1799L5.89111 10.2237H15.6965L14.4077 19.0482ZM14.628 3.70265C15.1691 3.41662 15.6741 3.43566 16.1705 3.76214C16.4327 4.01199 16.5541 4.28279 16.5417 4.58833C16.5079 5.41881 15.5332 6.35589 15.1515 6.65477H12.6206C12.8029 5.69437 13.59 4.25091 14.628 3.70265ZM9.19065 1.60004C9.48572 1.16362 10.0135 0.951837 10.8035 0.951837C11.5936 0.951837 12.1214 1.16362 12.4164 1.60004C13.0166 2.48715 12.5644 4.17428 12.3203 4.8063C11.9686 5.42547 11.7344 6.08176 11.6583 6.65429H9.94927C9.87312 6.08081 9.63801 5.42357 9.28583 4.80392C9.04121 4.17 8.59099 2.4862 9.19065 1.60004ZM5.06539 4.58976C5.05254 4.28327 5.17437 4.01247 5.43661 3.76214C5.93299 3.43566 6.43699 3.41614 6.97906 3.70265C8.01704 4.25138 8.8042 5.69437 8.98648 6.65477H6.45555C6.07481 6.35827 5.10061 5.425 5.06539 4.58976ZM4.58709 7.60661H17.0205L17.0209 9.27232H16.2471H5.34047H4.58709V7.60661Z" fill="#121E52"/>
</svg>
