<svg width="40" height="40" viewBox="0 0 40 40" fill="none" xmlns="http://www.w3.org/2000/svg">
<path d="M0.982524 24.9282C1.20175 25.0807 1.43345 25.2145 1.67515 25.3281C1.96314 25.4755 2.44578 25.7221 2.47978 25.8948C2.52172 26.1227 2.49431 26.3579 2.40111 26.5701C2.30179 26.7834 2.19779 26.9667 2.1078 27.1247C1.86381 27.556 1.45517 28.2786 2.07113 28.782C2.21512 28.9153 2.46378 29.1079 2.69043 29.2819C2.52358 29.5737 2.4481 29.9088 2.47378 30.2439C2.50901 30.5077 2.65218 30.745 2.86909 30.8992C3.01708 31.0038 3.17507 31.0945 3.33106 31.1832C3.72504 31.4078 3.87903 31.5125 3.93103 31.7211C3.96807 31.9894 3.9453 32.2626 3.86437 32.5211C3.82503 32.6991 3.78704 32.8777 3.76437 33.0544C3.69817 33.6619 3.77323 34.2765 3.98369 34.8503C4.28348 35.9092 5.24118 36.6471 6.34156 36.6669C6.52528 36.6663 6.70846 36.6469 6.8882 36.6089C8.79261 36.1574 10.6692 35.5958 12.5086 34.9269C14.0105 35.8082 14.9591 38.4881 15.2064 39.494C15.2803 39.7914 15.5473 40.0001 15.8537 40L32.5861 39.9533C32.7982 39.9529 32.9974 39.8517 33.1227 39.6806C33.248 39.5095 33.2844 39.289 33.2208 39.0867C33.0559 38.635 32.8286 38.2087 32.5455 37.8201C32.3856 37.5897 32.2415 37.3487 32.1141 37.0988C31.8124 36.4883 31.5607 35.8542 31.3615 35.2029C30.986 33.9287 30.7241 32.6236 30.5789 31.3031C30.557 31.0608 30.4049 30.8496 30.1819 30.7522C29.959 30.6547 29.7006 30.6865 29.5079 30.8351C29.3152 30.9836 29.2188 31.2254 29.2563 31.4658C29.4105 32.8654 29.6887 34.2485 30.0876 35.5989C30.3069 36.3155 30.5836 37.0133 30.9149 37.6855C31.067 37.9874 31.2396 38.2785 31.4315 38.5567L31.4762 38.6234L16.3577 38.6667C15.9151 37.0854 15.1119 35.6282 14.0111 34.4096L14.6111 34.1997C15.0578 34.0437 15.3944 33.9263 15.5671 33.871C18.4229 32.9677 19.8508 31.6671 19.8122 30.0046C19.8127 29.8269 19.7404 29.6568 19.6122 29.5339C19.484 29.4109 19.311 29.3459 19.1335 29.3539C18.7656 29.3627 18.4743 29.6679 18.4829 30.0359C18.4989 30.7218 17.9369 31.7225 15.1657 32.5991C14.9851 32.6571 14.6371 32.7784 14.1751 32.9397C13.6798 33.113 13.0499 33.333 12.3552 33.569H12.3506C10.4745 34.2567 8.56034 34.8354 6.61755 35.3023C5.9959 35.4221 5.39049 35.0299 5.24562 34.4136C5.10321 34.0344 5.04962 33.6276 5.08896 33.2244C5.1063 33.0844 5.1383 32.9457 5.16896 32.8064C5.3048 32.3453 5.32472 31.8578 5.22696 31.3871C5.03241 30.7757 4.58227 30.2786 3.99303 30.0245L3.85437 29.9452C3.92635 29.7999 4.0123 29.6619 4.11102 29.5332C4.22285 29.3915 4.27244 29.2105 4.24844 29.0316C4.22444 28.8527 4.12891 28.6912 3.98369 28.584C3.8237 28.4666 3.44639 28.184 3.1704 27.9613C3.2024 27.9033 3.23707 27.8393 3.2704 27.7813C3.37506 27.598 3.49439 27.3847 3.61105 27.138C3.822 26.6708 3.88414 26.1499 3.78904 25.6461C3.62905 24.8328 2.85042 24.4342 2.28179 24.1435C2.09057 24.053 1.90727 23.9467 1.73382 23.8256C1.59087 23.7295 1.45699 23.6206 1.33384 23.5002C1.33384 23.3996 1.44183 23.1556 1.9498 22.5363C3.14364 21 4.16671 19.3383 5.00097 17.5806C5.15837 17.3051 5.24688 16.9957 5.25896 16.6786C5.1901 16.0085 4.83501 15.4009 4.28501 15.012C4.01502 14.7647 3.76104 14.5314 3.73171 14.3161C3.73616 14.1581 3.77149 14.0025 3.8357 13.8581C3.94436 13.5721 4.06969 13.2921 4.19568 13.0115C4.46903 12.4478 4.68737 11.8592 4.84765 11.2536L4.91431 10.9696C5.05568 10.3031 5.23779 9.64591 5.45961 9.00171C5.98511 7.55129 6.79874 6.22224 7.85148 5.09459C9.12674 3.74533 11.134 2.79071 13.8272 2.25541C15.8872 1.80317 17.9775 1.50194 20.0815 1.35413C21.1308 1.29731 22.1832 1.35701 23.2193 1.53212C23.5775 1.5858 23.913 1.3437 23.9749 0.986874C24.0369 0.630044 23.8026 0.289031 23.4473 0.218854C22.3131 0.0260982 21.1609 -0.0396374 20.0121 0.0228652C17.843 0.173316 15.6878 0.482572 13.5638 0.948148C10.558 1.54811 8.37345 2.60206 6.8822 4.17797C5.70587 5.43668 4.79635 6.92036 4.20835 8.53973C3.96827 9.23655 3.77103 9.94739 3.61771 10.6683L3.55105 10.9496C3.40877 11.4724 3.21795 11.9808 2.98108 12.4682C2.84775 12.7722 2.7091 13.0761 2.58977 13.3908C2.43629 13.7413 2.37546 14.1253 2.41311 14.5061C2.54764 15.103 2.89268 15.6314 3.38506 15.9947C3.71104 16.294 3.92503 16.5046 3.9277 16.688C3.90356 16.7895 3.86519 16.8871 3.8137 16.9779C3.01508 18.6605 2.03606 20.2513 0.893863 21.7223C0.411889 22.3096 -0.0927499 22.9943 0.0145775 23.6789C0.155775 24.2087 0.504769 24.6591 0.982524 24.9282Z" fill="#FF7223"/>
<path d="M7.44523 11.8634L7.51189 11.5668C7.62873 11.0126 7.77719 10.4655 7.95653 9.92822C8.35801 8.81528 8.9802 7.79493 9.78576 6.92839C10.6497 6.11376 11.7072 5.53304 12.8583 5.24114C13.0907 5.17566 13.2695 4.98962 13.3257 4.75482C13.382 4.52002 13.3069 4.27315 13.1294 4.10946C12.9519 3.94577 12.6998 3.89085 12.4703 3.96588C11.0966 4.32286 9.83819 5.02796 8.81648 6.0131C7.88813 7.01107 7.17094 8.18629 6.70793 9.46824C6.50792 10.06 6.34298 10.663 6.21396 11.2741L6.1473 11.5628C6.0641 11.9212 6.28697 12.2792 6.64527 12.3628C6.69487 12.3744 6.74565 12.3802 6.7966 12.3801C7.10664 12.3797 7.37547 12.1655 7.44523 11.8634Z" fill="#FF7223"/>
<path d="M6.00062 14.668C6.36879 14.668 6.66725 14.3695 6.66725 14.0013C6.66725 13.6332 6.36879 13.3347 6.00062 13.3347C5.63245 13.3347 5.33398 13.6332 5.33398 14.0013C5.33398 14.3695 5.63245 14.668 6.00062 14.668Z" fill="#FF7223"/>
<path d="M18.0004 13.4749C17.9547 15.7475 18.7579 17.9556 20.2529 19.6679C20.7235 20.1568 21.2366 20.603 21.7862 21.0011C22.7614 21.7551 23.6854 22.4757 23.9307 23.4783C23.1691 23.7798 22.6683 24.5151 22.6668 25.3342V26.6675C22.6703 27.512 23.2039 28.2632 24 28.5447V28.6674C24 30.1401 25.1939 31.3339 26.6666 31.3339C28.1392 31.3339 29.3331 30.1401 29.3331 28.6674V28.5447C30.1293 28.2632 30.6628 27.512 30.6663 26.6675V25.3342C30.6644 24.5145 30.1624 23.7789 29.3997 23.4783C29.6444 22.4784 30.569 21.7551 31.5443 21.0011C32.0937 20.6028 32.6068 20.1567 33.0775 19.6679C34.5732 17.9558 35.3772 15.7478 35.3328 13.4749C35.3142 8.6734 31.4671 4.76423 26.6666 4.6687C21.866 4.76423 18.019 8.6734 18.0004 13.4749ZM24.6667 14.6681H24C23.6319 14.6681 23.3334 14.3697 23.3334 14.0015C23.3334 13.6334 23.6319 13.3349 24 13.3349C24.3682 13.3349 24.6667 13.6334 24.6667 14.0015V14.6681ZM27.3332 23.3343H25.9999V16.0014H27.3332V23.3343ZM26.6666 30.0006C25.9302 30.0006 25.3333 29.4037 25.3333 28.6674H27.9998C27.9998 29.4037 27.4029 30.0006 26.6666 30.0006ZM29.3331 26.6675C29.3331 27.0357 29.0346 27.3341 28.6665 27.3341H24.6667C24.2985 27.3341 24 27.0357 24 26.6675V25.3342C24 24.9661 24.2985 24.6676 24.6667 24.6676H28.6665C29.0346 24.6676 29.3331 24.9661 29.3331 25.3342V26.6675ZM33.9995 13.4955C34.041 15.4312 33.3606 17.313 32.0909 18.7746C31.6728 19.2033 31.2185 19.5952 30.733 19.9459C29.947 20.4934 29.25 21.1587 28.6665 21.9184V16.0014H29.3331C30.4376 16.0014 31.333 15.106 31.333 14.0015C31.333 12.897 30.4376 12.0016 29.3331 12.0016C28.2286 12.0016 27.3332 12.897 27.3332 14.0015V14.6681H25.9999V14.0015C25.9999 12.897 25.1046 12.0016 24 12.0016C22.8955 12.0016 22.0002 12.897 22.0002 14.0015C22.0002 15.106 22.8955 16.0014 24 16.0014H24.6667V21.9184C24.0842 21.1591 23.3883 20.494 22.6035 19.9465C22.1178 19.5956 21.6632 19.2035 21.2449 18.7746C19.9739 17.3136 19.2925 15.4316 19.3336 13.4955C19.4003 9.4331 22.7548 6.00196 26.6666 6.00196C30.5783 6.00196 33.9362 9.4331 33.9995 13.4955ZM28.6665 14.6681V14.0015C28.6665 13.6334 28.9649 13.3349 29.3331 13.3349C29.7013 13.3349 29.9997 13.6334 29.9997 14.0015C29.9997 14.3697 29.7013 14.6681 29.3331 14.6681H28.6665Z" fill="#FF7223"/>
<path d="M37.3326 14.0015H39.3325C39.7007 14.0015 39.9992 13.703 39.9992 13.3348C39.9992 12.9667 39.7007 12.6682 39.3325 12.6682H37.3326C36.9645 12.6682 36.666 12.9667 36.666 13.3348C36.666 13.703 36.9645 14.0015 37.3326 14.0015Z" fill="#FF7223"/>
<path d="M34.2077 6.45991C34.3847 6.46005 34.5545 6.38978 34.6797 6.26459L36.0936 4.85C36.2669 4.68263 36.3364 4.43477 36.2754 4.2017C36.2144 3.96863 36.0324 3.78661 35.7993 3.7256C35.5662 3.66459 35.3184 3.73409 35.151 3.90739L33.7364 5.32131C33.5453 5.5119 33.488 5.79889 33.5912 6.04824C33.6944 6.2976 33.9378 6.46012 34.2077 6.45991Z" fill="#FF7223"/>
<path d="M26.6666 3.33535C27.0348 3.33535 27.3333 3.03689 27.3333 2.66872V0.668827C27.3333 0.300658 27.0348 0.00219727 26.6666 0.00219727C26.2985 0.00219727 26 0.300658 26 0.668827V2.66872C26 3.03689 26.2985 3.33535 26.6666 3.33535Z" fill="#FF7223"/>
<path d="M19.5959 6.26459C19.7211 6.13955 19.7914 5.96988 19.7914 5.79295C19.7914 5.61602 19.7211 5.44635 19.5959 5.32131L18.1813 3.90739C18.0139 3.73409 17.7661 3.66459 17.533 3.7256C17.2999 3.78661 17.1179 3.96863 17.0569 4.2017C16.9959 4.43477 17.0654 4.68263 17.2387 4.85L18.6526 6.26459C18.7776 6.38977 18.9473 6.4601 19.1242 6.4601C19.3012 6.4601 19.4708 6.38977 19.5959 6.26459Z" fill="#FF7223"/>
<path d="M14.0006 12.6682C13.6324 12.6682 13.334 12.9667 13.334 13.3348C13.334 13.703 13.6324 14.0015 14.0006 14.0015H16.0005C16.3687 14.0015 16.6671 13.703 16.6671 13.3348C16.6671 12.9667 16.3687 12.6682 16.0005 12.6682H14.0006Z" fill="#FF7223"/>
</svg>
