<svg width="41" height="40" viewBox="0 0 41 40" fill="none" xmlns="http://www.w3.org/2000/svg">
<path d="M3.02569 23.7478C2.92095 26.1007 2.88293 28.5344 5.66011 31.1714C5.91628 31.4143 6.14777 31.6571 6.36392 31.8986V37.9987C6.36392 39.104 7.25994 40 8.36525 40H19.6868C20.7921 40 21.6881 39.104 21.6881 37.9987V31.8986C21.9043 31.6571 22.1358 31.4143 22.3919 31.1714C24.0925 29.7058 25.0651 27.5685 25.053 25.3235H28.0804C28.7925 25.3221 29.369 24.7442 29.3686 24.032L29.3239 23.3222H38.7535C39.0959 23.3217 39.424 23.1852 39.6657 22.9427C39.9074 22.7003 40.0429 22.3717 40.0424 22.0294V5.93462C40.0427 5.22222 39.4659 4.6442 38.7535 4.6431H37.5527C37.4917 4.64666 37.4314 4.65902 37.3739 4.67979V3.93062C37.381 3.22708 36.8173 2.65055 36.1138 2.64176H28.4053C27.469 2.64977 26.5908 3.09655 26.033 3.84857C25.9511 3.73747 25.8619 3.63184 25.7662 3.53235C25.7271 3.48925 25.6822 3.45176 25.6328 3.42095C25.0947 2.92585 24.3919 2.64818 23.6608 2.64176H22.2131C20.0408 1.09301 17.4808 0.178394 14.8189 0H13.2025C13.0977 0.00533689 2.70815 0.55904 2.2912 9.64176C2.20514 11.485 2.1938 12.9773 2.22449 14.2195C1.80871 14.0143 1.32062 14.0168 0.906945 14.2261C-0.127745 14.7478 -0.0937224 17.2081 0.123089 19.2015C0.431826 21.0487 1.47994 22.6904 3.02569 23.7478ZM20.3519 37.9987C20.3519 38.3671 20.0532 38.6658 19.6848 38.6658H8.36325C7.99481 38.6658 7.69614 38.3671 7.69614 37.9987V33.6351C7.85491 33.8699 8.00568 34.1021 8.15044 34.3235C9.21048 35.9526 10.1258 37.3582 12.442 37.3582H15.6041C17.9203 37.3582 18.8356 35.9526 19.8956 34.3235C20.0404 34.1007 20.1911 33.8699 20.3499 33.6351L20.3519 37.9987ZM37.5554 5.97732L38.7081 5.93462L38.7535 21.988H29.3239C28.6122 21.9891 28.0355 22.5658 28.0344 23.2775L28.0804 23.9893L24.5487 24.0267C24.4915 24.007 24.4322 23.9944 24.3719 23.9893C24.3084 23.9941 24.246 24.0081 24.1865 24.0307H24.0404V23.2775C24.0393 22.566 23.463 21.9895 22.7515 21.988L13.3579 22.0294L13.3125 5.97732H14.6921V19.3195C14.6731 20.0354 15.2365 20.632 15.9523 20.6538H25.3659C25.3659 20.6644 25.3713 20.6731 25.3719 20.6838C25.3726 20.6945 25.3659 20.7038 25.3659 20.7145V21.9573C25.3659 22.3257 25.6646 22.6244 26.033 22.6244C26.4015 22.6244 26.7001 22.3257 26.7001 21.9573V20.7145C26.7001 20.7038 26.6948 20.6945 26.6941 20.6838C26.6935 20.6731 26.7001 20.6644 26.7001 20.6538H36.1138C36.8296 20.632 37.393 20.0354 37.3739 19.3195V5.94063C37.4323 5.96165 37.4934 5.97401 37.5554 5.97732ZM16.0264 19.3195V17.3182H23.6608C24.6805 17.4074 25.4398 18.2986 25.3659 19.3195H16.0264ZM26.7001 19.3195C26.6263 18.2986 27.3856 17.4074 28.4053 17.3182H36.0397L36.035 19.3195H26.7001ZM28.4053 3.97598H36.0397V15.984H28.4053C27.7894 15.9861 27.191 16.1884 26.7001 16.5604V5.79586C26.6705 4.82324 27.4328 4.0097 28.4053 3.97598ZM25.3659 5.79586V16.5604C24.8751 16.1884 24.2766 15.9861 23.6608 15.984H16.0264V3.97598H23.6608C24.6333 4.0097 25.3955 4.82324 25.3659 5.79586ZM3.62409 9.7038C3.98433 1.84456 12.8823 1.35023 13.2312 1.33422H14.7895C16.487 1.47013 18.1457 1.91316 19.6848 2.64176H15.949C15.2466 2.65201 14.6847 3.22821 14.6921 3.93062V4.6431H13.3125C12.6003 4.64457 12.0237 5.22237 12.0237 5.93462V22.0294C12.023 22.7421 12.5998 23.3207 13.3125 23.3222L22.7061 23.2795V24.034C22.7066 24.6397 23.128 25.1637 23.7195 25.2942C23.7436 27.1852 22.9185 28.9874 21.4713 30.2048C20.4381 31.2204 19.5338 32.3592 18.7789 33.5957C17.6828 35.2795 17.1344 36.024 15.6061 36.024H12.444C10.9156 36.024 10.3673 35.2795 9.27119 33.5957C8.51634 32.3585 7.61205 31.219 6.57873 30.2028C4.17179 27.9186 4.25784 26.0247 4.36658 23.6264C4.38927 23.1301 4.41195 22.6257 4.41195 22.1081C4.39869 21.1437 4.29099 20.1829 4.0904 19.2395C3.76752 17.4603 3.36525 15.2448 3.62409 9.7038ZM1.55604 15.4036C1.74217 15.3863 2.11175 15.7185 2.31455 16.0007C2.40294 17.1679 2.55886 18.3291 2.78153 19.4783C2.96567 20.3432 3.06487 21.2239 3.07773 22.1081V22.1147C2.23996 21.2746 1.67262 20.2031 1.44864 19.038C1.27919 17.4516 1.32989 15.7985 1.55471 15.4036H1.55604Z" fill="#745DCF"/>
<path d="M18.0275 7.31152H23.3643C23.7328 7.31152 24.0315 7.01284 24.0315 6.64441C24.0315 6.27597 23.7328 5.97729 23.3643 5.97729H18.0275C17.659 5.97729 17.3604 6.27597 17.3604 6.64441C17.3604 7.01284 17.659 7.31152 18.0275 7.31152Z" fill="#745DCF"/>
<path d="M18.0275 10.647H23.3643C23.7328 10.647 24.0315 10.3483 24.0315 9.97986C24.0315 9.61142 23.7328 9.31274 23.3643 9.31274H18.0275C17.659 9.31274 17.3604 9.61142 17.3604 9.97986C17.3604 10.3483 17.659 10.647 18.0275 10.647Z" fill="#745DCF"/>
<path d="M18.0275 13.9827H23.3643C23.7328 13.9827 24.0315 13.684 24.0315 13.3155C24.0315 12.9471 23.7328 12.6484 23.3643 12.6484H18.0275C17.659 12.6484 17.3604 12.9471 17.3604 13.3155C17.3604 13.684 17.659 13.9827 18.0275 13.9827Z" fill="#745DCF"/>
<path d="M28.7013 7.31152H34.0382C34.4066 7.31152 34.7053 7.01284 34.7053 6.64441C34.7053 6.27597 34.4066 5.97729 34.0382 5.97729H28.7013C28.3329 5.97729 28.0342 6.27597 28.0342 6.64441C28.0342 7.01284 28.3329 7.31152 28.7013 7.31152Z" fill="#745DCF"/>
<path d="M28.7013 10.647H34.0382C34.4066 10.647 34.7053 10.3483 34.7053 9.97986C34.7053 9.61142 34.4066 9.31274 34.0382 9.31274H28.7013C28.3329 9.31274 28.0342 9.61142 28.0342 9.97986C28.0342 10.3483 28.3329 10.647 28.7013 10.647Z" fill="#745DCF"/>
<path d="M28.7013 13.9827H34.0382C34.4066 13.9827 34.7053 13.684 34.7053 13.3155C34.7053 12.9471 34.4066 12.6484 34.0382 12.6484H28.7013C28.3329 12.6484 28.0342 12.9471 28.0342 13.3155C28.0342 13.684 28.3329 13.9827 28.7013 13.9827Z" fill="#745DCF"/>
</svg>
