<svg width="596" height="526" viewBox="0 0 596 526" fill="none" xmlns="http://www.w3.org/2000/svg">
<path d="M424.647 28.8295C344.218 -2.63868 232.842 9.31656 171.293 65.5066C127.834 105.181 161.47 116.489 191.099 189.086C212.543 241.628 0 234.397 0 329.34C0 439.102 153.938 418.296 211.063 430.86C298.404 450.071 374.598 521.932 467.917 512.459C549.157 504.211 580.128 440.461 591.426 367.378C612.473 231.22 560.779 82.0921 424.647 28.8295Z" fill="#E4F8FC"/>
<path opacity="0.11" d="M478.833 115.065H411.753V64.5601C411.753 51.9379 401.526 41.7112 388.903 41.7112H165.151C152.53 41.7112 142.302 51.9391 142.302 64.5601V115.065H75.2222C62.6012 115.065 52.3733 125.293 52.3733 137.915V445.21C52.3733 457.832 62.6012 468.059 75.2222 468.059H142.301V502.423C142.301 515.045 152.529 525.273 165.15 525.273H388.902C401.524 525.273 411.752 515.045 411.752 502.423V468.059H478.831C491.452 468.059 501.68 457.831 501.68 445.21V137.914C501.681 125.292 491.454 115.065 478.833 115.065Z" fill="#2626BC"/>
<path d="M522.633 116.963V424.257C522.633 436.879 512.405 447.107 499.783 447.107H341.316C328.695 447.107 318.466 436.879 318.466 424.257V116.963C318.466 104.34 328.694 94.1125 341.316 94.1125H499.784C512.405 94.1137 522.633 104.34 522.633 116.963Z" fill="#B7C5FF"/>
<path d="M277.491 116.963V424.257C277.491 436.879 267.263 447.107 254.641 447.107H96.1739C83.5529 447.107 73.3238 436.879 73.3238 424.257V116.963C73.3238 104.34 83.5517 94.1125 96.1739 94.1125H254.642C267.263 94.1137 277.491 104.34 277.491 116.963Z" fill="#CBF2FB"/>
<path d="M428.993 403.177H477.558C480.772 403.177 483.378 400.571 483.378 397.357V326.627C483.378 323.413 480.772 320.807 477.558 320.807H428.993V403.177Z" fill="#D2DEFF"/>
<path d="M166.965 403.177H118.4C115.186 403.177 112.58 400.571 112.58 397.357V326.627C112.58 323.413 115.186 320.807 118.4 320.807H166.965V403.177Z" fill="#B6EEFA"/>
<path d="M522.632 153.097V116.959C522.632 104.339 512.402 94.1091 499.782 94.1091H341.319C328.699 94.1091 318.469 104.339 318.469 116.959V153.097H522.632Z" fill="#889FFF"/>
<path d="M522.633 116.959V153.094H498.826V116.959C498.826 104.337 488.598 94.1091 475.976 94.1091H499.783C512.405 94.1102 522.633 104.338 522.633 116.959Z" fill="#8399FE"/>
<path d="M356.172 130.871C359.531 130.871 362.254 128.148 362.254 124.789C362.254 121.43 359.531 118.707 356.172 118.707C352.813 118.707 350.09 121.43 350.09 124.789C350.09 128.148 352.813 130.871 356.172 130.871Z" fill="white"/>
<path d="M377.836 130.871C381.195 130.871 383.918 128.148 383.918 124.789C383.918 121.43 381.195 118.707 377.836 118.707C374.477 118.707 371.754 121.43 371.754 124.789C371.754 128.148 374.477 130.871 377.836 130.871Z" fill="white"/>
<path d="M399.5 130.871C402.859 130.871 405.582 128.148 405.582 124.789C405.582 121.43 402.859 118.707 399.5 118.707C396.141 118.707 393.418 121.43 393.418 124.789C393.418 128.148 396.141 130.871 399.5 130.871Z" fill="white"/>
<path d="M277.489 153.097V116.959C277.489 104.339 267.259 94.1091 254.639 94.1091H96.1762C83.5563 94.1091 73.3261 104.339 73.3261 116.959V153.097H277.489Z" fill="#89E4F8"/>
<path d="M277.491 116.959V153.094H253.684V116.959C253.684 104.337 243.456 94.1091 230.834 94.1091H254.641C267.263 94.1102 277.491 104.338 277.491 116.959Z" fill="#8399FE"/>
<path d="M111.03 130.871C114.389 130.871 117.112 128.148 117.112 124.789C117.112 121.43 114.389 118.707 111.03 118.707C107.671 118.707 104.948 121.43 104.948 124.789C104.948 128.148 107.671 130.871 111.03 130.871Z" fill="white"/>
<path d="M132.694 130.871C136.053 130.871 138.776 128.148 138.776 124.789C138.776 121.43 136.053 118.707 132.694 118.707C129.335 118.707 126.612 121.43 126.612 124.789C126.612 128.148 129.335 130.871 132.694 130.871Z" fill="white"/>
<path d="M154.358 130.871C157.717 130.871 160.44 128.148 160.44 124.789C160.44 121.43 157.717 118.707 154.358 118.707C150.999 118.707 148.276 121.43 148.276 124.789C148.276 128.148 150.999 130.871 154.358 130.871Z" fill="white"/>
<path d="M432.704 43.6074V481.47C432.704 494.092 422.476 504.32 409.854 504.32H186.102C173.481 504.32 163.252 494.092 163.252 481.47V43.6074C163.252 30.9852 173.48 20.7573 186.102 20.7573H409.854C422.476 20.7584 432.704 30.9863 432.704 43.6074Z" fill="#FFF0F7"/>
<path d="M222.326 504.32H373.633V239.042C373.633 235.207 370.524 232.096 366.688 232.096H229.27C225.435 232.096 222.325 235.205 222.325 239.042V504.32H222.326Z" fill="#FFDBED"/>
<path d="M432.703 79.7432V43.6039C432.703 30.9841 422.473 20.7538 409.853 20.7538H186.105C173.485 20.7538 163.255 30.9841 163.255 43.6039V79.7421H432.703V79.7432Z" fill="#FFC4DF"/>
<path d="M432.704 43.6039V79.7397H408.897V43.6039C408.897 30.9817 398.669 20.7538 386.047 20.7538H409.854C422.476 20.755 432.704 30.9829 432.704 43.6039Z" fill="#8399FE"/>
<path d="M200.959 57.5156C204.318 57.5156 207.041 54.7927 207.041 51.4338C207.041 48.075 204.318 45.3521 200.959 45.3521C197.6 45.3521 194.877 48.075 194.877 51.4338C194.877 54.7927 197.6 57.5156 200.959 57.5156Z" fill="white"/>
<path d="M222.623 57.5156C225.982 57.5156 228.705 54.7927 228.705 51.4338C228.705 48.075 225.982 45.3521 222.623 45.3521C219.264 45.3521 216.541 48.075 216.541 51.4338C216.541 54.7927 219.264 57.5156 222.623 57.5156Z" fill="white"/>
<path d="M244.287 57.5156C247.646 57.5156 250.369 54.7927 250.369 51.4338C250.369 48.075 247.646 45.3521 244.287 45.3521C240.928 45.3521 238.205 48.075 238.205 51.4338C238.205 54.7927 240.928 57.5156 244.287 57.5156Z" fill="white"/>
<path d="M229.27 182.745H366.688C370.523 182.745 373.633 179.636 373.633 175.799V139.148C373.633 135.313 370.524 132.202 366.688 132.202H229.27C225.435 132.202 222.325 135.311 222.325 139.148V175.799C222.326 179.635 225.435 182.745 229.27 182.745Z" fill="#FFDBED"/>
<path d="M239.758 138.022H220.311C217.096 138.022 214.491 135.416 214.491 132.202C214.491 128.989 217.096 126.383 220.311 126.383H239.758C242.973 126.383 245.578 128.989 245.578 132.202C245.578 135.416 242.973 138.022 239.758 138.022Z" fill="#FFC4DF"/>
<path d="M280.617 169.964H220.311C217.096 169.964 214.491 167.357 214.491 164.144C214.491 160.93 217.096 158.324 220.311 158.324H280.617C283.832 158.324 286.437 160.93 286.437 164.144C286.437 167.357 283.832 169.964 280.617 169.964Z" fill="#FFC4DF"/>
<path d="M309.379 189.616H220.311C217.096 189.616 214.491 187.01 214.491 183.796C214.491 180.582 217.096 177.976 220.311 177.976H309.379C312.594 177.976 315.199 180.582 315.199 183.796C315.199 187.01 312.594 189.616 309.379 189.616Z" fill="#FFC4DF"/>
<path d="M375.081 265.521H220.877C217.662 265.521 215.057 262.915 215.057 259.701C215.057 256.487 217.662 253.881 220.877 253.881H375.081C378.296 253.881 380.901 256.487 380.901 259.701C380.901 262.915 378.295 265.521 375.081 265.521Z" fill="#FFC4DF"/>
<path d="M375.081 291.171H220.877C217.662 291.171 215.057 288.565 215.057 285.351C215.057 282.137 217.662 279.531 220.877 279.531H375.081C378.296 279.531 380.901 282.137 380.901 285.351C380.901 288.565 378.295 291.171 375.081 291.171Z" fill="#FFC4DF"/>
<path d="M375.081 316.821H220.877C217.662 316.821 215.057 314.215 215.057 311.002C215.057 307.788 217.662 305.182 220.877 305.182H375.081C378.296 305.182 380.901 307.788 380.901 311.002C380.901 314.215 378.295 316.821 375.081 316.821Z" fill="#FFC4DF"/>
<path d="M375.081 342.473H220.877C217.662 342.473 215.057 339.867 215.057 336.653C215.057 333.44 217.662 330.833 220.877 330.833H375.081C378.296 330.833 380.901 333.44 380.901 336.653C380.901 339.867 378.295 342.473 375.081 342.473Z" fill="#FFC4DF"/>
<path d="M481.695 501.123C477.342 501.123 472.989 499.466 469.677 496.151C463.05 489.524 463.05 478.739 469.677 472.114C476.301 465.488 487.085 465.486 493.714 472.113C500.341 478.739 500.341 489.524 493.715 496.151L493.714 496.153C490.4 499.465 486.047 501.123 481.695 501.123ZM489.599 492.037H489.611H489.599ZM481.695 478.777C480.322 478.777 478.951 479.299 477.906 480.343C475.818 482.433 475.818 485.833 477.907 487.922C479.994 490.009 483.393 490.011 485.485 487.922C487.573 485.832 487.573 482.433 485.485 480.343C484.439 479.3 483.067 478.777 481.695 478.777Z" fill="#8399FE"/>
<path d="M115.498 20.8306H111.715V17.0476C111.715 13.8327 109.11 11.2277 105.896 11.2277C102.681 11.2277 100.076 13.8327 100.076 17.0476V20.8306H96.2927C93.0778 20.8306 90.4728 23.4356 90.4728 26.6505C90.4728 29.8654 93.0778 32.4704 96.2927 32.4704H100.076V36.2533C100.076 39.4682 102.681 42.0732 105.896 42.0732C109.11 42.0732 111.715 39.4682 111.715 36.2533V32.4704H115.498C118.713 32.4704 121.318 29.8654 121.318 26.6505C121.318 23.4356 118.712 20.8306 115.498 20.8306Z" fill="#FFC4DF"/>
<path d="M490.728 9.60284H486.945V5.8199C486.945 2.60499 484.34 0 481.126 0C477.911 0 475.306 2.60499 475.306 5.8199V9.60284H471.523C468.308 9.60284 465.703 12.2078 465.703 15.4227C465.703 18.6377 468.308 21.2426 471.523 21.2426H475.306V25.0256C475.306 28.2405 477.911 30.8455 481.126 30.8455C484.34 30.8455 486.945 28.2405 486.945 25.0256V21.2426H490.728C493.943 21.2426 496.548 18.6377 496.548 15.4227C496.548 12.2078 493.942 9.60284 490.728 9.60284Z" fill="#8399FE"/>
<path d="M522.952 39.061H519.169V35.278C519.169 32.0631 516.564 29.4581 513.349 29.4581C510.134 29.4581 507.529 32.0631 507.529 35.278V39.061H503.746C500.532 39.061 497.927 41.666 497.927 44.8809C497.927 48.0958 500.532 50.7008 503.746 50.7008H507.529V54.4837C507.529 57.6986 510.134 60.3036 513.349 60.3036C516.564 60.3036 519.169 57.6986 519.169 54.4837V50.7008H522.952C526.167 50.7008 528.772 48.0958 528.772 44.8809C528.772 41.666 526.167 39.061 522.952 39.061Z" fill="#FFC4DF"/>
<path d="M122.401 501.248H118.618V497.466C118.618 494.251 116.013 491.646 112.798 491.646C109.583 491.646 106.978 494.251 106.978 497.466V501.248H103.195C99.9801 501.248 97.3751 503.853 97.3751 507.068C97.3751 510.283 99.9801 512.888 103.195 512.888H106.978V516.671C106.978 519.886 109.583 522.491 112.798 522.491C116.013 522.491 118.618 519.886 118.618 516.671V512.888H122.401C125.616 512.888 128.221 510.283 128.221 507.068C128.221 503.853 125.616 501.248 122.401 501.248Z" fill="#FFC4DF"/>
<path d="M300.205 456.997L297.979 459.225L295.754 456.997C293.484 454.723 289.799 454.721 287.524 456.99C285.249 459.261 285.246 462.945 287.517 465.22L293.861 471.574C294.953 472.667 296.435 473.283 297.979 473.283C299.524 473.283 301.007 472.668 302.097 471.574L308.441 465.22C310.712 462.945 310.71 459.261 308.434 456.99C306.161 454.719 302.476 454.722 300.205 456.997Z" fill="#89E4F8"/>
<path d="M393.54 132.203C393.54 121.541 384.864 112.865 374.202 112.865C363.54 112.865 354.865 121.541 354.865 132.203C354.865 137.462 356.981 142.23 360.4 145.72C356.981 149.21 354.865 153.98 354.865 159.237C354.865 162.452 357.47 165.057 360.685 165.057C363.9 165.057 366.505 162.452 366.505 159.237C366.505 154.993 369.958 151.54 374.202 151.54C378.446 151.54 381.9 154.993 381.9 159.237C381.9 162.452 384.505 165.057 387.72 165.057C390.935 165.057 393.54 162.452 393.54 159.237C393.54 153.978 391.423 149.21 388.005 145.72C391.422 142.232 393.54 137.462 393.54 132.203ZM374.201 124.505C378.445 124.505 381.899 127.959 381.899 132.203C381.899 136.447 378.445 139.9 374.201 139.9C369.957 139.9 366.504 136.447 366.504 132.203C366.504 127.959 369.957 124.505 374.201 124.505Z" fill="#FFC4DF"/>
<path d="M288.27 425.985H282.064C274.489 425.985 268.325 419.822 268.325 412.247V393.091C268.325 385.516 274.489 379.353 282.064 379.353H288.27C295.845 379.353 302.007 385.516 302.007 393.091V412.247C302.007 419.822 295.845 425.985 288.27 425.985ZM282.064 390.993C280.907 390.993 279.965 391.934 279.965 393.091V412.247C279.965 413.404 280.907 414.346 282.064 414.346H288.27C289.426 414.346 290.368 413.404 290.368 412.247V393.091C290.368 391.934 289.426 390.993 288.27 390.993H282.064Z" fill="#FFA8CF"/>
<path d="M321.813 425.985C318.598 425.985 315.993 423.38 315.993 420.165V390.993H315.476C312.261 390.993 309.656 388.388 309.656 385.173C309.656 381.958 312.261 379.353 315.476 379.353H321.813C325.028 379.353 327.633 381.958 327.633 385.173V420.165C327.633 423.38 325.026 425.985 321.813 425.985Z" fill="#FFA8CF"/>
<path d="M123.305 241.925H117.099C109.524 241.925 103.362 235.762 103.362 228.187V209.031C103.362 201.456 109.524 195.293 117.099 195.293H123.305C130.88 195.293 137.044 201.456 137.044 209.031V228.187C137.042 235.762 130.879 241.925 123.305 241.925ZM117.099 206.933C115.943 206.933 115.001 207.874 115.001 209.031V228.187C115.001 229.344 115.943 230.285 117.099 230.285H123.305C124.462 230.285 125.404 229.344 125.404 228.187V209.031C125.404 207.874 124.462 206.933 123.305 206.933H117.099Z" fill="#89E4F8"/>
<path d="M130.741 295.374H109.663C107.193 295.374 104.993 293.814 104.174 291.485C103.354 289.156 104.095 286.563 106.02 285.015C111.889 280.3 120.971 271.685 122.787 267.288C123.486 265.599 123.375 263.737 122.5 262.427C121.819 261.409 120.806 260.893 119.49 260.893C117.28 260.893 115.483 262.691 115.483 264.9C115.483 268.115 112.878 270.72 109.663 270.72C106.448 270.72 103.843 268.115 103.843 264.9C103.843 256.272 110.862 249.254 119.49 249.254C124.703 249.254 129.326 251.698 132.175 255.958C135.229 260.524 135.74 266.422 133.545 271.736C131.969 275.547 128.425 279.88 124.705 283.734H130.741C133.956 283.734 136.561 286.339 136.561 289.554C136.561 292.769 133.956 295.374 130.741 295.374Z" fill="#89E4F8"/>
<path d="M478.859 240.879H472.653C465.078 240.879 458.914 234.716 458.914 227.14V207.985C458.914 200.41 465.078 194.248 472.653 194.248H478.859C486.434 194.248 492.597 200.41 492.597 207.985V227.14C492.597 234.716 486.434 240.879 478.859 240.879ZM472.653 205.887C471.496 205.887 470.554 206.829 470.554 207.985V227.14C470.554 228.297 471.496 229.239 472.653 229.239H478.859C480.015 229.239 480.957 228.297 480.957 227.14V207.985C480.957 206.829 480.015 205.887 478.859 205.887H472.653Z" fill="#8399FE"/>
<path d="M491.419 264.356C491.419 256.324 484.884 249.788 476.85 249.788H465.915C462.7 249.788 460.095 252.393 460.095 255.608C460.095 258.823 462.7 261.428 465.915 261.428H476.85C478.465 261.428 479.779 262.742 479.779 264.356C479.779 265.971 478.465 267.285 476.85 267.285H465.915C462.7 267.285 460.095 269.89 460.095 273.105C460.095 276.32 462.7 278.925 465.915 278.925H476.85C478.465 278.925 479.779 280.239 479.779 281.853C479.779 283.468 478.465 284.781 476.85 284.781H465.915C462.7 284.781 460.095 287.386 460.095 290.6C460.095 293.815 462.7 296.42 465.915 296.42H476.85C484.883 296.42 491.419 289.886 491.419 281.853C491.419 278.568 490.313 275.544 488.473 273.105C490.313 270.665 491.419 267.641 491.419 264.356Z" fill="#8399FE"/>
</svg>
