<svg width="33" height="24" viewBox="0 0 33 24" fill="none" xmlns="http://www.w3.org/2000/svg">
<path d="M27.4444 2H5.22224C3.99661 2 3 2.99661 3 4.22224V19.7778C3 21.0034 3.99661 22 5.22224 22H27.4445C28.6701 22 29.6667 21.0034 29.6667 19.7778V4.22224C29.6667 2.99661 28.6701 2 27.4444 2ZM5.22224 3.11109H27.4445C27.5264 3.11109 27.5985 3.14094 27.6753 3.15781C25.7514 4.91859 19.372 10.7546 17.1396 12.766C16.9649 12.9234 16.6833 13.1111 16.3334 13.1111C15.9834 13.1111 15.7019 12.9234 15.5266 12.7655C13.2944 10.7544 6.91464 4.91807 4.99104 3.15792C5.06802 3.14104 5.14031 3.11109 5.22224 3.11109ZM4.11109 19.7778V4.22224C4.11109 4.11339 4.14391 4.01464 4.17328 3.91516C5.64578 5.26286 10.097 9.33495 12.9833 11.9596C10.1064 14.4308 5.65401 18.652 4.16979 20.0673C4.14359 19.9729 4.11109 19.8805 4.11109 19.7778ZM27.4444 20.8889H5.22224C5.13349 20.8889 5.05458 20.858 4.97172 20.8382C6.50542 19.3761 10.9861 15.1306 13.8124 12.7127C14.1809 13.0469 14.5174 13.3517 14.7828 13.5907C15.2407 14.0042 15.7767 14.2222 16.3333 14.2222C16.89 14.2222 17.426 14.0041 17.8833 13.5912C18.1488 13.3521 18.4856 13.0471 18.8542 12.7127C21.6807 15.1303 26.1608 19.3755 27.6949 20.8382C27.6121 20.858 27.5333 20.8889 27.4444 20.8889ZM28.5556 19.7778C28.5556 19.8804 28.5231 19.9729 28.4969 20.0673C27.0121 18.6513 22.5603 14.4305 19.6834 11.9596C22.5698 9.335 27.0204 5.26328 28.4934 3.91505C28.5228 4.01453 28.5556 4.11333 28.5556 4.22219V19.7778Z" fill="white"/>
</svg>
