<svg width="638" height="692" viewBox="0 0 638 692" fill="none" xmlns="http://www.w3.org/2000/svg">
<path fill-rule="evenodd" clip-rule="evenodd" d="M96 654.974V692H616.194C614.672 681.987 599.52 599.778 510.093 581.496C459.217 571.095 430.786 587.808 406.844 608.32L363.948 525.218H336.515L292.123 608.32C274.666 593.768 237.755 569.626 180.894 584.126C117.682 600.245 98.8348 646.869 96 654.974ZM616.966 692H617V691.948C616.989 691.965 616.977 691.983 616.966 692Z" fill="#FEFEFE"/>
<circle cx="358.5" cy="148.5" r="148.5" fill="#FFC5C3"/>
<path d="M318.689 494.149L300.013 546.077C299.906 546.396 299.843 546.715 299.843 547.033C299.843 553.726 323.809 559.144 353.343 559.144V494.17H318.689V494.149Z" fill="url(#paint0_linear)"/>
<path d="M388.04 494.149L406.716 546.077C406.822 546.396 406.886 546.715 406.886 547.033C406.886 553.726 382.919 559.144 353.385 559.144V494.17H388.04V494.149Z" fill="url(#paint1_linear)"/>
<path opacity="0.21" d="M392.714 507.195C386.149 509.256 371 510.701 353.364 510.701C335.729 510.701 320.559 509.256 314.015 507.195L318.71 494.149H388.04L392.714 507.195Z" fill="black"/>
<path d="M396.199 488.774V501.374C396.199 504.582 377.034 507.174 353.364 507.174C329.695 507.174 310.53 504.582 310.53 501.374V488.774H396.199Z" fill="url(#paint2_linear)"/>
<path opacity="0.21" d="M396.199 488.774V495.956C388.337 498.08 372.104 499.525 353.364 499.525C334.624 499.525 318.413 498.08 310.53 495.956V488.774H396.199Z" fill="black"/>
<path d="M305.473 476.259V490.346C305.473 493.915 326.912 496.826 353.364 496.826C379.817 496.826 401.255 493.936 401.255 490.346V476.259H305.473Z" fill="url(#paint3_linear)"/>
<path opacity="0.64" d="M406.036 544.226C401.574 549.899 379.689 554.191 353.364 554.191C327.039 554.191 305.133 549.878 300.692 544.226L301.054 543.228C306.238 548.688 327.698 552.789 353.364 552.789C379.031 552.789 400.512 548.688 405.675 543.228L406.036 544.226Z" fill="white"/>
<path opacity="0.4" d="M405.675 543.207C400.491 548.667 379.031 552.768 353.364 552.768C327.698 552.768 306.217 548.667 301.054 543.207L301.372 542.336C307.067 547.647 328.186 551.578 353.386 551.578C378.585 551.578 399.704 547.647 405.399 542.336L405.675 543.207Z" fill="black"/>
<path opacity="0.64" d="M401.277 530.991C397.431 536.196 377.437 540.148 353.364 540.148C329.291 540.148 309.298 536.196 305.452 530.991L305.771 530.098C310.318 535.112 329.886 538.873 353.364 538.873C376.842 538.873 396.411 535.112 400.958 530.098L401.277 530.991Z" fill="white"/>
<path opacity="0.4" d="M400.958 530.077C396.411 535.091 376.842 538.852 353.364 538.852C329.886 538.852 310.317 535.091 305.771 530.077L306.047 529.291C311.082 534.156 330.354 537.768 353.364 537.768C376.375 537.768 395.646 534.156 400.682 529.291L400.958 530.077Z" fill="black"/>
<path opacity="0.64" d="M396.389 517.371C392.353 521.918 374.632 525.318 353.364 525.318C332.096 525.318 314.375 521.897 310.338 517.371L310.636 516.521C315.204 520.898 332.584 524.17 353.343 524.17C374.101 524.17 391.481 520.92 396.05 516.521L396.389 517.371Z" fill="white"/>
<path opacity="0.4" d="M396.071 516.521C391.503 520.897 374.122 524.169 353.364 524.169C332.605 524.169 315.225 520.919 310.657 516.521L310.933 515.777C315.884 520.026 333.009 523.171 353.385 523.171C373.761 523.171 390.886 520.026 395.837 515.777L396.071 516.521Z" fill="black"/>
<path opacity="0.21" d="M401.255 472.221V482.229C394.626 483.588 384.258 484.63 371.892 485.161C366.091 485.416 359.866 485.543 353.364 485.543C346.799 485.543 340.489 485.394 334.624 485.139C322.343 484.608 312.06 483.546 305.452 482.207V472.221H401.255Z" fill="black"/>
<path d="M444.769 305.856C444.769 369.81 431.214 429.366 409.095 475.493C408.649 476.428 406.439 477.321 402.849 478.128C396.347 479.552 385.298 480.678 371.891 481.209C366.091 481.443 359.866 481.57 353.364 481.57C346.799 481.57 340.488 481.443 334.624 481.209C321.174 480.657 310.105 479.53 303.667 478.086C300.182 477.299 298.057 476.428 297.633 475.515C275.493 429.366 261.958 369.852 261.958 305.877C261.958 198.366 299.332 105.644 353.236 63.128L353.258 63.1067C353.3 63.0855 353.321 63.043 353.364 63.0217C407.332 105.474 444.769 198.26 444.769 305.856Z" fill="url(#paint4_linear)"/>
<path d="M405.781 129.695C391.333 101.691 373.507 78.8504 353.364 63C333.222 78.8504 315.395 101.691 300.947 129.695C298.78 133.881 296.698 138.173 294.701 142.592C307.916 145.099 329.27 146.735 353.364 146.735C377.458 146.735 398.812 145.099 412.028 142.592C410.03 138.173 407.948 133.881 405.781 129.695Z" fill="url(#paint5_linear)"/>
<path d="M353.364 308.659C381.198 308.659 403.762 286.095 403.762 258.261C403.762 230.427 381.198 207.863 353.364 207.863C325.53 207.863 302.966 230.427 302.966 258.261C302.966 286.095 325.53 308.659 353.364 308.659Z" fill="url(#paint6_linear)"/>
<path d="M353.364 296.316C374.381 296.316 391.418 279.279 391.418 258.262C391.418 237.246 374.381 220.208 353.364 220.208C332.348 220.208 315.311 237.246 315.311 258.262C315.311 279.279 332.348 296.316 353.364 296.316Z" fill="url(#paint7_linear)"/>
<path d="M353.364 294.169C373.196 294.169 389.272 278.093 389.272 258.261C389.272 238.43 373.196 222.354 353.364 222.354C333.533 222.354 317.457 238.43 317.457 258.261C317.457 278.093 333.533 294.169 353.364 294.169Z" fill="url(#paint8_radial)"/>
<path d="M274.601 383.088H268.694L230.959 406.991L237.27 410.179L274.601 383.088Z" fill="#F95A5A"/>
<path d="M285.097 441.625C285.012 442.687 284.884 443.749 284.778 444.854L235.506 467.78L227.878 412.197L228.261 411.964L274.579 383.11C280.72 392.799 287.838 411.029 285.097 441.625Z" fill="url(#paint9_linear)"/>
<path d="M222.542 495.168L227.322 508.448C227.344 508.533 227.365 508.618 227.365 508.681C227.365 510.381 221.246 511.784 213.682 511.784V495.168H222.542Z" fill="url(#paint10_linear)"/>
<path d="M204.822 495.168L200.041 508.448C200.02 508.533 199.999 508.618 199.999 508.681C199.999 510.381 206.118 511.784 213.682 511.784V495.168H204.822Z" fill="url(#paint11_linear)"/>
<path opacity="0.21" d="M202.463 501.713C204.779 502.223 208.922 502.562 213.682 502.562C218.441 502.562 222.584 502.223 224.9 501.713L223.392 497.484H203.993L202.463 501.713Z" fill="black"/>
<path d="M200.551 495.85V499.717C200.551 500.694 206.437 501.501 213.682 501.501C220.927 501.501 226.813 500.715 226.813 499.717V495.85H200.551Z" fill="url(#paint12_linear)"/>
<path opacity="0.21" d="M200.551 495.85V498.059C202.973 498.718 207.945 499.164 213.682 499.164C219.419 499.164 224.391 498.718 226.813 498.059V495.85H200.551Z" fill="black"/>
<path d="M228.364 492.003V496.316C228.364 497.421 221.798 498.292 213.682 498.292C205.565 498.292 199 497.4 199 496.316V492.003H228.364Z" fill="url(#paint13_linear)"/>
<path d="M242.05 439.755C242.05 459.366 237.886 477.617 231.108 491.768C230.98 492.065 230.3 492.32 229.196 492.575C227.198 493.021 223.82 493.361 219.698 493.531C217.913 493.595 216.001 493.637 214.025 493.637C212.007 493.637 210.073 493.595 208.288 493.531C204.166 493.361 200.767 493.021 198.791 492.575C197.728 492.341 197.07 492.065 196.942 491.789C190.143 477.638 186 459.387 186 439.755C186 406.8 197.452 378.371 213.983 365.326C214.004 365.326 214.004 365.304 214.025 365.304C230.577 378.329 242.05 406.779 242.05 439.755Z" fill="url(#paint14_linear)"/>
<path d="M432.127 383.088H438.034L475.769 406.991L469.459 410.179L432.127 383.088Z" fill="#F95A5A"/>
<path d="M421.632 441.625C421.716 442.687 421.844 443.749 421.95 444.854L471.201 467.78L478.829 412.197L478.446 411.964L432.128 383.11C426.008 392.799 418.891 411.029 421.632 441.625Z" fill="url(#paint15_linear)"/>
<path d="M501.563 495.168L506.344 508.448C506.365 508.533 506.386 508.618 506.386 508.681C506.386 510.381 500.267 511.784 492.703 511.784V495.168H501.563Z" fill="url(#paint16_linear)"/>
<path d="M483.843 495.168L479.063 508.448C479.041 508.533 479.02 508.618 479.02 508.681C479.02 510.381 485.139 511.784 492.703 511.784V495.168H483.843Z" fill="url(#paint17_linear)"/>
<path opacity="0.21" d="M481.485 501.713C483.801 502.223 487.944 502.562 492.703 502.562C497.463 502.562 501.606 502.223 503.922 501.713L502.413 497.484H483.015L481.485 501.713Z" fill="black"/>
<path d="M479.573 495.85V499.717C479.573 500.694 485.458 501.501 492.704 501.501C499.949 501.501 505.834 500.715 505.834 499.717V495.85H479.573Z" fill="url(#paint18_linear)"/>
<path opacity="0.21" d="M479.573 495.85V498.059C481.995 498.718 486.967 499.164 492.704 499.164C498.44 499.164 503.412 498.718 505.834 498.059V495.85H479.573Z" fill="black"/>
<path d="M507.385 492.003V496.316C507.385 497.421 500.82 498.292 492.703 498.292C484.587 498.292 478.021 497.4 478.021 496.316V492.003H507.385Z" fill="url(#paint19_linear)"/>
<path d="M464.678 439.758C464.678 459.369 468.843 477.62 475.621 491.771C475.748 492.068 476.428 492.323 477.533 492.578C479.53 493.024 482.908 493.364 487.03 493.534C488.815 493.598 490.727 493.64 492.703 493.64C494.722 493.64 496.655 493.598 498.44 493.534C502.562 493.364 505.962 493.024 507.937 492.578C509 492.344 509.659 492.068 509.786 491.792C516.564 477.641 520.728 459.39 520.728 439.779C520.728 406.824 509.276 378.396 492.746 365.35C492.725 365.35 492.725 365.329 492.703 365.329C476.152 378.332 464.678 406.782 464.678 439.758Z" fill="url(#paint20_linear)"/>
<path d="M626.217 108C633.382 101.754 638 92.4662 638 82.0569C638 63.8007 623.829 48.9075 605.995 47.7865C602.651 30.8114 587.684 18 569.85 18C550.265 18 534.342 33.2135 532.909 52.4306C523.514 54.5125 516.03 61.3986 512.846 70.3666C510.298 69.4057 507.432 68.7651 504.407 68.7651C491.509 68.9253 481 79.4947 481 92.4662C481 98.3915 483.229 103.836 486.732 108H626.217Z" fill="white"/>
<circle cx="78" cy="426" r="9" fill="white"/>
<circle cx="537" cy="281" r="6" fill="#F2FDFF"/>
<path d="M8.33694 569H167.815C171.714 564.774 174 559.267 174 553.247C174 539.928 162.705 529.298 148.72 529.298C146.165 529.298 143.611 529.682 141.325 530.323C139.711 520.974 131.24 513.93 121.02 513.93C118.331 513.93 115.91 514.442 113.624 515.211C107.977 503.94 95.8748 496 81.8903 496C67.7713 496 55.6692 503.94 50.1561 515.339C47.7357 514.442 45.0464 513.93 42.2226 513.93C32.9444 513.93 25.0108 519.565 22.0526 527.505C9.68161 528.914 0 539.032 0 551.198C0 558.242 3.2272 564.646 8.33694 569Z" fill="white"/>
<defs>
<linearGradient id="paint0_linear" x1="305.794" y1="518.784" x2="359.514" y2="530.202" gradientUnits="userSpaceOnUse">
<stop stop-color="#666666"/>
<stop offset="0.0576457" stop-color="#737373"/>
<stop offset="0.1655" stop-color="#979797"/>
<stop offset="0.7098" stop-color="#959595"/>
<stop offset="0.8112" stop-color="#858585"/>
<stop offset="0.8895" stop-color="#7F7F7F"/>
</linearGradient>
<linearGradient id="paint1_linear" x1="400.935" y1="518.784" x2="347.215" y2="530.202" gradientUnits="userSpaceOnUse">
<stop stop-color="#666666"/>
<stop offset="0.0576457" stop-color="#737373"/>
<stop offset="0.7098" stop-color="#959595"/>
<stop offset="0.8112" stop-color="#858585"/>
<stop offset="0.8895" stop-color="#7F7F7F"/>
</linearGradient>
<linearGradient id="paint2_linear" x1="310.536" y1="497.975" x2="396.193" y2="497.975" gradientUnits="userSpaceOnUse">
<stop stop-color="#999999"/>
<stop offset="0.9518" stop-color="#999999"/>
<stop offset="0.9891" stop-color="#737373"/>
</linearGradient>
<linearGradient id="paint3_linear" x1="305.47" y1="486.553" x2="401.259" y2="486.553" gradientUnits="userSpaceOnUse">
<stop stop-color="#999999"/>
<stop offset="0.08867" stop-color="#CCCCCC"/>
<stop offset="0.9891" stop-color="#737373"/>
<stop offset="1" stop-color="#666666"/>
</linearGradient>
<linearGradient id="paint4_linear" x1="261.952" y1="272.292" x2="444.776" y2="272.292" gradientUnits="userSpaceOnUse">
<stop stop-color="#F1F1F1"/>
<stop offset="0.1882" stop-color="#E8E8E8"/>
<stop offset="0.4547" stop-color="#E5E5E5"/>
<stop offset="0.5629" stop-color="#DFDFDF"/>
<stop offset="0.7099" stop-color="#D7D6D6"/>
<stop offset="0.8784" stop-color="#BDBDBD"/>
<stop offset="1" stop-color="#B5B3B3"/>
</linearGradient>
<linearGradient id="paint5_linear" x1="306.553" y1="104.862" x2="395.431" y2="104.862" gradientUnits="userSpaceOnUse">
<stop stop-color="#E71A3C"/>
<stop offset="0.2766" stop-color="#CE193B"/>
<stop offset="0.41641" stop-color="#BC193B"/>
<stop offset="0.609375" stop-color="#AB1A3B"/>
<stop offset="1" stop-color="#901A3B"/>
</linearGradient>
<linearGradient id="paint6_linear" x1="353.364" y1="305.294" x2="353" y2="200" gradientUnits="userSpaceOnUse">
<stop stop-color="#6C6C6C"/>
<stop offset="1" stop-color="#F2F2F2"/>
</linearGradient>
<linearGradient id="paint7_linear" x1="353.364" y1="222.736" x2="353.364" y2="295.89" gradientUnits="userSpaceOnUse">
<stop stop-color="#333333"/>
<stop offset="1" stop-color="white"/>
</linearGradient>
<radialGradient id="paint8_radial" cx="0" cy="0" r="1" gradientUnits="userSpaceOnUse" gradientTransform="translate(353.364 258.255) scale(35.8982)">
<stop stop-color="#68A9E8"/>
<stop offset="0.1653" stop-color="#6DAEEE"/>
<stop offset="0.36" stop-color="#5A99D9"/>
<stop offset="0.5695" stop-color="#478DD7"/>
<stop offset="0.7879" stop-color="#276DBA"/>
<stop offset="1" stop-color="#004699"/>
</radialGradient>
<linearGradient id="paint9_linear" x1="290" y1="423" x2="248" y2="433" gradientUnits="userSpaceOnUse">
<stop stop-color="#E71A3C"/>
<stop offset="0.2766" stop-color="#CE193B"/>
<stop offset="0.419004" stop-color="#BC193B"/>
<stop offset="0.609375" stop-color="#AB1A3B"/>
<stop offset="1" stop-color="#901A3B"/>
</linearGradient>
<linearGradient id="paint10_linear" x1="225.843" y1="501.475" x2="212.106" y2="504.395" gradientUnits="userSpaceOnUse">
<stop stop-color="#666666"/>
<stop offset="0.0576457" stop-color="#737373"/>
<stop offset="0.1655" stop-color="#979797"/>
<stop offset="0.8112" stop-color="#858585"/>
<stop offset="0.8895" stop-color="#7F7F7F"/>
</linearGradient>
<linearGradient id="paint11_linear" x1="201.514" y1="501.475" x2="215.251" y2="504.395" gradientUnits="userSpaceOnUse">
<stop stop-color="#666666"/>
<stop offset="0.0576457" stop-color="#737373"/>
<stop offset="0.1655" stop-color="#979797"/>
<stop offset="0.8112" stop-color="#858585"/>
<stop offset="0.8895" stop-color="#7F7F7F"/>
</linearGradient>
<linearGradient id="paint12_linear" x1="226.81" y1="498.666" x2="200.548" y2="498.666" gradientUnits="userSpaceOnUse">
<stop stop-color="#999999"/>
<stop offset="0.9891" stop-color="#737373"/>
<stop offset="1" stop-color="#666666"/>
</linearGradient>
<linearGradient id="paint13_linear" x1="228.363" y1="495.163" x2="198.994" y2="495.163" gradientUnits="userSpaceOnUse">
<stop stop-color="#999999"/>
<stop offset="0.9891" stop-color="#737373"/>
<stop offset="1" stop-color="#666666"/>
</linearGradient>
<linearGradient id="paint14_linear" x1="186" y1="429.471" x2="242.053" y2="429.471" gradientUnits="userSpaceOnUse">
<stop stop-color="#F1F1F1"/>
<stop offset="0.1882" stop-color="#E8E8E8"/>
<stop offset="0.4547" stop-color="#E5E5E5"/>
<stop offset="0.5629" stop-color="#DFDFDF"/>
<stop offset="0.7099" stop-color="#CDCDCD"/>
<stop offset="0.8784" stop-color="#B1B1B1"/>
<stop offset="1" stop-color="#989898"/>
</linearGradient>
<linearGradient id="paint15_linear" x1="426.866" y1="425.439" x2="470.653" y2="425.439" gradientUnits="userSpaceOnUse">
<stop stop-color="#E71A3C"/>
<stop offset="0.2766" stop-color="#CE193B"/>
<stop offset="0.41641" stop-color="#BC193B"/>
<stop offset="0.609375" stop-color="#AB1A3B"/>
<stop offset="1" stop-color="#901A3B"/>
</linearGradient>
<linearGradient id="paint16_linear" x1="504.864" y1="501.475" x2="491.127" y2="504.395" gradientUnits="userSpaceOnUse">
<stop stop-color="#666666"/>
<stop offset="0.0576457" stop-color="#737373"/>
<stop offset="0.1655" stop-color="#979797"/>
<stop offset="0.8112" stop-color="#858585"/>
<stop offset="0.8895" stop-color="#7F7F7F"/>
</linearGradient>
<linearGradient id="paint17_linear" x1="480.536" y1="501.475" x2="494.272" y2="504.395" gradientUnits="userSpaceOnUse">
<stop stop-color="#666666"/>
<stop offset="0.0576457" stop-color="#737373"/>
<stop offset="0.1655" stop-color="#979797"/>
<stop offset="0.8112" stop-color="#858585"/>
<stop offset="0.8895" stop-color="#7F7F7F"/>
</linearGradient>
<linearGradient id="paint18_linear" x1="505.831" y1="498.666" x2="479.569" y2="498.666" gradientUnits="userSpaceOnUse">
<stop stop-color="#999999"/>
<stop offset="0.9891" stop-color="#737373"/>
<stop offset="1" stop-color="#666666"/>
</linearGradient>
<linearGradient id="paint19_linear" x1="507.384" y1="495.163" x2="478.016" y2="495.163" gradientUnits="userSpaceOnUse">
<stop stop-color="#999999"/>
<stop offset="0.9891" stop-color="#737373"/>
<stop offset="1" stop-color="#666666"/>
</linearGradient>
<linearGradient id="paint20_linear" x1="520.726" y1="429.474" x2="464.674" y2="429.474" gradientUnits="userSpaceOnUse">
<stop stop-color="#F1F1F1"/>
<stop offset="0.1882" stop-color="#E8E8E8"/>
<stop offset="0.4547" stop-color="#E5E5E5"/>
<stop offset="0.5629" stop-color="#DFDFDF"/>
<stop offset="0.7099" stop-color="#CDCDCD"/>
<stop offset="0.8784" stop-color="#B1B1B1"/>
<stop offset="1" stop-color="#989898"/>
</linearGradient>
</defs>
</svg>
