<svg width="223" height="48" viewBox="0 0 223 48" fill="none" xmlns="http://www.w3.org/2000/svg">
    <path d="M69.3045 23.576C70.4992 23.7893 71.5125 24.4187 72.3445 25.464C73.1765 26.5093 73.5925 27.6933 73.5925 29.016C73.5925 30.1467 73.2938 31.1707 72.6965 32.088C72.1205 32.984 71.2778 33.6987 70.1685 34.232C69.0592 34.744 67.7685 35 66.2965 35H57.4005V12.76H65.8805C67.3952 12.76 68.6965 13.016 69.7845 13.528C70.8725 14.04 71.6938 14.7333 72.2485 15.608C72.8032 16.4613 73.0805 17.4213 73.0805 18.488C73.0805 19.768 72.7392 20.8347 72.0565 21.688C71.3738 22.5413 70.4565 23.1707 69.3045 23.576ZM61.0485 22.104H65.5605C66.7552 22.104 67.6832 21.8373 68.3445 21.304C69.0272 20.7493 69.3685 19.96 69.3685 18.936C69.3685 17.9333 69.0272 17.1547 68.3445 16.6C67.6832 16.024 66.7552 15.736 65.5605 15.736H61.0485V22.104ZM65.9765 32.024C67.2138 32.024 68.1845 31.7253 68.8885 31.128C69.5925 30.5307 69.9445 29.6987 69.9445 28.632C69.9445 27.544 69.5712 26.68 68.8245 26.04C68.0778 25.4 67.0858 25.08 65.8485 25.08H61.0485V32.024H65.9765ZM83.1247 12.76V35H79.4767V12.76H83.1247ZM103.242 30.456H93.9302L92.3302 35H88.5222L96.4902 12.728H100.714L108.682 35H104.842L103.242 30.456ZM102.218 27.48L98.6022 17.144L94.9542 27.48H102.218ZM128.435 12.76V15.736H122.515V35H118.867V15.736H112.915V12.76H128.435ZM151.809 12.76V35H148.161V25.272H137.697V35H134.049V12.76H137.697V22.296H148.161V12.76H151.809ZM162.18 32.056H169.7V35H158.532V12.76H162.18V32.056ZM184.814 35.224C182.745 35.224 180.836 34.744 179.086 33.784C177.358 32.8027 175.982 31.448 174.958 29.72C173.956 27.9707 173.454 26.008 173.454 23.832C173.454 21.656 173.956 19.704 174.958 17.976C175.982 16.248 177.358 14.904 179.086 13.944C180.836 12.9627 182.745 12.472 184.814 12.472C186.905 12.472 188.814 12.9627 190.542 13.944C192.292 14.904 193.668 16.248 194.67 17.976C195.673 19.704 196.174 21.656 196.174 23.832C196.174 26.008 195.673 27.9707 194.67 29.72C193.668 31.448 192.292 32.8027 190.542 33.784C188.814 34.744 186.905 35.224 184.814 35.224ZM184.814 32.056C186.286 32.056 187.598 31.7253 188.75 31.064C189.902 30.3813 190.798 29.4213 191.438 28.184C192.1 26.9253 192.43 25.4747 192.43 23.832C192.43 22.1893 192.1 20.7493 191.438 19.512C190.798 18.2747 189.902 17.3253 188.75 16.664C187.598 16.0027 186.286 15.672 184.814 15.672C183.342 15.672 182.03 16.0027 180.878 16.664C179.726 17.3253 178.82 18.2747 178.158 19.512C177.518 20.7493 177.198 22.1893 177.198 23.832C177.198 25.4747 177.518 26.9253 178.158 28.184C178.82 29.4213 179.726 30.3813 180.878 31.064C182.03 31.7253 183.342 32.056 184.814 32.056ZM219.956 35H216.308L205.332 18.392V35H201.684V12.728H205.332L216.308 29.304V12.728H219.956V35Z"
          fill="white"/>
    <path d="M20 43.2789C16.3048 43.2789 12.9333 42.4303 9.88571 40.7331C6.8381 38.9983 4.41905 36.6034 2.62857 33.5486C0.87619 30.456 0 26.9863 0 23.1394C0 19.2926 0.87619 15.8417 2.62857 12.7869C4.41905 9.69429 6.8381 7.29943 9.88571 5.60229C12.9333 3.86743 16.3048 3 20 3C23.7333 3 27.1238 3.86743 30.1714 5.60229C33.219 7.29943 35.619 9.67543 37.3714 12.7303C39.1238 15.7851 40 19.2549 40 23.1394C40 27.024 39.1238 30.4937 37.3714 33.5486C35.619 36.6034 33.219 38.9983 30.1714 40.7331C27.1238 42.4303 23.7333 43.2789 20 43.2789ZM20 38.8097C22.781 38.8097 25.2762 38.1686 27.4857 36.8863C29.7333 35.604 31.4857 33.7749 32.7429 31.3989C34.0381 29.0229 34.6857 26.2697 34.6857 23.1394C34.6857 19.9714 34.0381 17.2183 32.7429 14.88C31.4857 12.504 29.7524 10.6749 27.5429 9.39257C25.3333 8.11029 22.819 7.46914 20 7.46914C17.181 7.46914 14.6667 8.11029 12.4571 9.39257C10.2476 10.6749 8.49524 12.504 7.2 14.88C5.94286 17.2183 5.31429 19.9714 5.31429 23.1394C5.31429 26.2697 5.94286 29.0229 7.2 31.3989C8.49524 33.7749 10.2476 35.604 12.4571 36.8863C14.7048 38.1686 17.219 38.8097 20 38.8097Z"
          fill="white"/>
    <path d="M19.6428 27.7497C20.6572 27.7497 21.5675 27.5327 22.3735 27.0987C23.1934 26.6648 23.8326 26.0457 24.2912 25.2415C24.7637 24.4374 24.9999 23.5056 24.9999 22.4461C24.9999 21.3739 24.7637 20.4422 24.2912 19.6508C23.8326 18.8466 23.2003 18.2275 22.3943 17.7936C21.5883 17.3596 20.6711 17.1426 19.6428 17.1426C18.6144 17.1426 17.6973 17.3596 16.8913 17.7936C16.0853 18.2275 15.446 18.8466 14.9735 19.6508C14.5149 20.4422 14.2856 21.3739 14.2856 22.4461C14.2856 23.5056 14.5149 24.4374 14.9735 25.2415C15.446 26.0457 16.0853 26.6648 16.8913 27.0987C17.7112 27.5327 18.6283 27.7497 19.6428 27.7497Z"
          fill="white"/>
</svg>
