<svg width="167" height="48" viewBox="0 0 167 48" fill="none" xmlns="http://www.w3.org/2000/svg">
<path d="M42.6615 37.1057L38.8025 33.2468C36.9501 31.3944 34.4276 30.2936 31.8167 30.1822L30.0736 28.4391C34.1278 24.1118 36.7015 19.227 38.1721 15.7981C39.8689 11.842 40.4956 8.97114 40.5214 8.85091C40.6039 8.46734 40.4861 8.06827 40.2087 7.79084C39.9313 7.51341 39.5322 7.39555 39.1486 7.47809C39.0283 7.50391 36.1575 8.13069 32.2014 9.82748C28.7725 11.2981 23.8877 13.8718 19.5604 17.9259L17.8182 16.1837C17.7069 13.5727 16.6058 11.0499 14.7533 9.19751L10.8943 5.33851C10.6775 5.12179 10.3836 5 10.077 5C9.77051 5 9.47653 5.12172 9.25981 5.33851L5.33855 9.25985C4.88715 9.71125 4.88715 10.443 5.33855 10.8943L9.19755 14.7533C11.05 16.6057 13.5724 17.7064 16.1834 17.8178L17.926 19.5604C13.872 23.8876 11.2985 28.7721 9.82796 32.2009C8.13117 36.157 7.5044 39.0279 7.47857 39.1481C7.39611 39.5316 7.5139 39.9308 7.79133 40.2082C8.01034 40.4273 8.30521 40.5468 8.60855 40.5468C8.68937 40.5468 8.77071 40.5382 8.85139 40.521C8.9717 40.4951 11.8425 39.8683 15.7986 38.1716C19.2274 36.701 24.112 34.1275 28.4391 30.0736L30.1818 31.8163C30.2931 34.4272 31.3943 36.95 33.2467 38.8025L37.1057 42.6615C37.3313 42.8872 37.6271 43 37.9229 43C38.2187 43 38.5145 42.8871 38.7401 42.6615L42.6615 38.7402C42.8782 38.5234 43 38.2295 43 37.9229C43 37.6164 42.8783 37.3224 42.6615 37.1057ZM22.2131 29.506C21.2344 30.0124 20.4687 30.1989 19.8719 30.1989C19.1552 30.1989 18.6822 29.9301 18.3758 29.6237C17.8143 29.0622 17.3788 27.9406 18.4934 25.7864C19.0298 24.7496 19.8533 23.6059 20.8577 22.4922L22.4948 24.1293C21.8021 24.9074 21.209 25.6998 20.7809 26.4258C20.3848 27.0975 20.2123 27.5691 20.1456 27.8538C20.4303 27.7872 20.9018 27.6146 21.5736 27.2185C22.2996 26.7904 23.0921 26.1972 23.8703 25.5047L25.5073 27.1417C24.3936 28.1462 23.2499 28.9696 22.2131 29.506ZM27.1418 25.5074L25.5048 23.8704C26.1976 23.092 26.7908 22.2995 27.2192 21.5732C27.6153 20.9016 27.7878 20.43 27.8545 20.1453C27.5698 20.2118 27.0983 20.3845 26.4265 20.7806C25.7003 21.2088 24.9077 21.8021 24.1294 22.495L22.4923 20.8579C23.6062 19.8533 24.7501 19.0295 25.787 18.4932C27.9411 17.3786 29.0628 17.8138 29.6243 18.3755C30.1858 18.937 30.6213 20.0586 29.5067 22.2128C28.9701 23.2496 28.1465 24.3935 27.1418 25.5074Z" fill="white"/>
<path d="M56.7 24C56.7 22.6267 57.0067 21.4 57.62 20.32C58.2467 19.2267 59.0933 18.38 60.16 17.78C61.24 17.1667 62.4467 16.86 63.78 16.86C65.34 16.86 66.7067 17.26 67.88 18.06C69.0533 18.86 69.8733 19.9667 70.34 21.38H67.12C66.8 20.7133 66.3467 20.2133 65.76 19.88C65.1867 19.5467 64.52 19.38 63.76 19.38C62.9467 19.38 62.22 19.5733 61.58 19.96C60.9533 20.3333 60.46 20.8667 60.1 21.56C59.7533 22.2533 59.58 23.0667 59.58 24C59.58 24.92 59.7533 25.7333 60.1 26.44C60.46 27.1333 60.9533 27.6733 61.58 28.06C62.22 28.4333 62.9467 28.62 63.76 28.62C64.52 28.62 65.1867 28.4533 65.76 28.12C66.3467 27.7733 66.8 27.2667 67.12 26.6H70.34C69.8733 28.0267 69.0533 29.14 67.88 29.94C66.72 30.7267 65.3533 31.12 63.78 31.12C62.4467 31.12 61.24 30.82 60.16 30.22C59.0933 29.6067 58.2467 28.76 57.62 27.68C57.0067 26.6 56.7 25.3733 56.7 24ZM81.8916 28.34H76.3316L75.4116 31H72.4716L77.4916 17.02H80.7516L85.7716 31H82.8116L81.8916 28.34ZM81.1316 26.1L79.1116 20.26L77.0916 26.1H81.1316ZM100.188 31H97.388L91.048 21.42V31H88.248V17.02H91.048L97.388 26.62V17.02H100.188V31ZM110.035 31.14C108.728 31.14 107.528 30.8333 106.435 30.22C105.342 29.6067 104.475 28.76 103.835 27.68C103.195 26.5867 102.875 25.3533 102.875 23.98C102.875 22.62 103.195 21.4 103.835 20.32C104.475 19.2267 105.342 18.3733 106.435 17.76C107.528 17.1467 108.728 16.84 110.035 16.84C111.355 16.84 112.555 17.1467 113.635 17.76C114.728 18.3733 115.588 19.2267 116.215 20.32C116.855 21.4 117.175 22.62 117.175 23.98C117.175 25.3533 116.855 26.5867 116.215 27.68C115.588 28.76 114.728 29.6067 113.635 30.22C112.542 30.8333 111.342 31.14 110.035 31.14ZM110.035 28.64C110.875 28.64 111.615 28.4533 112.255 28.08C112.895 27.6933 113.395 27.1467 113.755 26.44C114.115 25.7333 114.295 24.9133 114.295 23.98C114.295 23.0467 114.115 22.2333 113.755 21.54C113.395 20.8333 112.895 20.2933 112.255 19.92C111.615 19.5467 110.875 19.36 110.035 19.36C109.195 19.36 108.448 19.5467 107.795 19.92C107.155 20.2933 106.655 20.8333 106.295 21.54C105.935 22.2333 105.755 23.0467 105.755 23.98C105.755 24.9133 105.935 25.7333 106.295 26.44C106.655 27.1467 107.155 27.6933 107.795 28.08C108.448 28.4533 109.195 28.64 110.035 28.64ZM122.658 19.3V22.8H127.358V25.02H122.658V28.72H127.958V31H119.858V17.02H127.958V19.3H122.658ZM133.903 17.04V31H131.103V17.04H133.903ZM149.209 31H146.409L140.069 21.42V31H137.269V17.02H140.069L146.409 26.62V17.02H149.209V31ZM162.296 21.24C161.976 20.6533 161.536 20.2067 160.976 19.9C160.416 19.5933 159.763 19.44 159.016 19.44C158.189 19.44 157.456 19.6267 156.816 20C156.176 20.3733 155.676 20.9067 155.316 21.6C154.956 22.2933 154.776 23.0933 154.776 24C154.776 24.9333 154.956 25.7467 155.316 26.44C155.689 27.1333 156.203 27.6667 156.856 28.04C157.509 28.4133 158.269 28.6 159.136 28.6C160.203 28.6 161.076 28.32 161.756 27.76C162.436 27.1867 162.883 26.3933 163.096 25.38H158.296V23.24H165.856V25.68C165.669 26.6533 165.269 27.5533 164.656 28.38C164.043 29.2067 163.249 29.8733 162.276 30.38C161.316 30.8733 160.236 31.12 159.036 31.12C157.689 31.12 156.469 30.82 155.376 30.22C154.296 29.6067 153.443 28.76 152.816 27.68C152.203 26.6 151.896 25.3733 151.896 24C151.896 22.6267 152.203 21.4 152.816 20.32C153.443 19.2267 154.296 18.38 155.376 17.78C156.469 17.1667 157.683 16.86 159.016 16.86C160.589 16.86 161.956 17.2467 163.116 18.02C164.276 18.78 165.076 19.8533 165.516 21.24H162.296Z" fill="white"/>
</svg>
