<svg width="1920" height="7064" viewBox="0 0 1920 7064" fill="none" xmlns="http://www.w3.org/2000/svg">
<path d="M789.898 6899.59L801.139 6904.3L892.897 6942.73L838.914 6879.14L841.92 6852.41L844.6 6829.27L821.399 6826.72L590.959 6801.63L570.046 6679.42L991.451 6355.32L908.386 6360.68L530.768 6651.18L519.658 6659.68L522.01 6673.47L548.217 6826.66L551.158 6843.91L568.543 6845.81L793.231 6870.32L791.793 6882.99L789.898 6899.59Z" fill="#1C3541" fill-opacity="0.22"/>
<path d="M768.529 6670.86L822.577 6715.23L887.67 6712.75L999.164 6397.35L611.547 6690.46L624.357 6779.87L771.862 6790.06L709.187 6742.03L648.015 6731.24L904.008 6527.4L854.47 6667.65L768.529 6670.86Z" fill="#1C3541" fill-opacity="0.22"/>
<path d="M1289.27 6495.44L969.103 6227.56L429.275 6623.28L443.196 6720.59L236.676 6409.31L166.877 6388L518.157 6917.44L479.14 6644.26L966.815 6286.7L1180.2 6470.54L1101.71 6486.69L958.515 6829.01L1261.37 6531.85L1160.13 6566.22L1089.81 6635.24L1134.97 6527.14L1289.27 6495.44Z" fill="#1C3541" fill-opacity="0.22"/>
<path d="M926.1 6019.01L1622.84 6323.37L1774.86 6241.61L1508.28 5997.64L1528.01 6135.34L1251.04 6013.65L1188.82 5891.18L1058.51 6026.13L1010.34 6005.09L1229.41 5806.41L1329.53 5551.86L783.039 6025.74L1268.95 6432.83L1352.99 6442.77L854.471 6025.15L1217.32 5710.6L1190.26 5779.42L926.1 6019.01ZM1177 5970.32L1217.25 6049.53L1585.79 6211.41L1572.59 6119.33L1695.45 6231.74L1620.82 6271.87L1103.93 6046.07L1177 5970.32Z" fill="#1C3541" fill-opacity="0.22"/>
<path d="M1735.9 5191.49L1700.48 5191.49L1690.16 5221.82L1735.9 5191.49Z" fill="#1C3541" fill-opacity="0.22"/>
<path d="M600.241 7035.21L1033.93 7101.48L1007.14 6926.13L917.537 6858.03L1056.81 6493.03L1043.67 6397.35L907.995 6752.88L908.192 6750.33L749.642 6737.65L819.898 6789.74L891.722 6795.55L861.855 6873.91L964.135 6951.68L978.578 7046.12L607.234 6989.39L600.241 7035.21Z" fill="#1C3541" fill-opacity="0.22"/>
<path d="M53.159 6898.68L71.6544 6390.22L72.9615 6353.63L39.3039 6368.07L-114.998 6434.47L-114.998 6484.99L23.9456 6425.19L10.744 6790.06L53.159 6898.68Z" fill="#1C3541" fill-opacity="0.22"/>
<path d="M505.999 6526.42L941.26 6207.36L760.685 6054.76L541.421 6224.75L586.385 6032.74L611.546 6133.06L635.728 6038.75L584.947 5835.82L556.976 5955.1L378.362 5931.37L429.992 5985.03L546.388 6000.45L528.22 6077.83L423.326 6071.43L519.658 6114.49L466.46 6341.54L759.443 6114.36L866.363 6204.75L834.013 6228.47L762.188 6167.43L478.419 6380.16L488.941 6503.09L522.142 6403.36L760.424 6224.68L796.892 6255.66L544.754 6440.55L505.999 6526.42Z" fill="#1C3541" fill-opacity="0.22"/>
<path d="M309.154 6230.69L301.181 6286.83L377.711 6247.62L387.187 6167.1L193.999 6084.36L241.904 5892.81L208.377 5835.82L139.494 6111.42L337.125 6196.05L334.577 6217.69L309.154 6230.69Z" fill="#1C3541" fill-opacity="0.22"/>
<path d="M-30.2975 5911.37L-11.7368 5931.17L91.7846 6041.69L122.24 6074.17L130.736 6033L173.085 5827.72L101.98 5984.77L40.6121 5919.28L79.4327 5893.01L110.084 5872.22L81.0665 5855.82L-38.0746 5788.64L32.0507 5869.09L-7.81549 5896.14L-30.2975 5911.37Z" fill="#1C3541" fill-opacity="0.22"/>
<path d="M1065.56 5412.19L1064.26 5402.39L1041.9 5235.35L1038.38 5208.75L1012.56 5216.13L234.647 5438.86L197.46 5449.51L224.386 5477.29L553.184 5816.28L552.465 5748.97L346.011 5536.11C358.232 5532.64 373.917 5528.13 394.177 5522.32C446.199 5507.42 515.409 5487.55 584.554 5467.62C665.594 5444.28 746.568 5421.02 799.701 5405.72L721.08 5517.35L727.288 5468.01L418.162 5562.25L564.164 5712.63L642.458 5574.67L554.687 5638.58L501.423 5583.68L674.221 5531.01L654.091 5690.21L909.497 5327.5L848.39 5345.14C682.455 5392.98 381.825 5479.44 310.589 5499.7L284.577 5472.91L999.49 5268.22L1017 5398.86L941.586 5493.5L899.628 5546.11L963.806 5530.75L1087.52 5486.76L1007.01 5485.78L1059.35 5420.04L1065.56 5412.19Z" fill="#1C3541" fill-opacity="0.22"/>
<path d="M1572.45 5347.36L1445.6 5331.55L704.873 5989.21L644.812 5758.9L731.211 5732.43L752.908 5785.11L1049.94 5537.15L842.444 5581.66L949.364 5437.29L981.78 5315.73L732.126 5652.7L876.167 5621.85L771.73 5709.04L758.006 5675.7L588.803 5727.6L679.123 6074.04L1351.03 5477.42L1397.17 5483.3L1263.91 5822.23L1213.4 5864.12L1224.44 5901.83L1282.15 5934.05L1266.46 5880.33L1302.67 5850.33L1462.13 5444.81L1397.11 5436.57L1460.7 5380.11L1508.34 5386.05L1277.84 5997.31L1489.39 6089.4L1476.84 5997.18L1608.79 5916.27L1564.41 6000.06L1629.12 5976.99L1729.17 5788.05L1426.84 5973.46L1432.33 6014.04L1336.78 5972.41L1572.45 5347.36Z" fill="#1C3541" fill-opacity="0.22"/>
<path d="M43.0964 5335.66L81.6555 5339.39L58.1933 5515.06L144.657 5503.89L419.799 5793.6L-104.474 5724.65L-114.996 5731.65L-114.996 5770.01L79.2373 5795.56L137.141 5863.21L115.836 5800.4L543.581 5856.67L162.041 5454.87L112.176 5461.34L148.252 5191.49L101.458 5191.49L87.8641 5293.38L-19.3825 5283.12L43.0964 5335.66Z" fill="#1C3541" fill-opacity="0.22"/>
<path d="M294.316 5294.36L418.228 5240.9L343.201 5191.49L258.828 5191.49L320.98 5232.4L275.951 5251.81L294.316 5294.36Z" fill="#1C3541" fill-opacity="0.22"/>
<path d="M2034.44 6779.48L1764.79 6515.38L2034.44 6400.49L2034.44 6350.1L1682.77 6499.89L2034.44 6844.37L2034.44 6779.48Z" fill="#1C3541" fill-opacity="0.22"/>
<path d="M1819.17 6533.87L1900.6 6540.47L2034.44 6540.67L2034.44 6494.33L2012.75 6494.33L2034.44 6484.99L2034.44 6434.47L1891.51 6496.03L1819.17 6533.87Z" fill="#1C3541" fill-opacity="0.22"/>
<path d="M1942.82 5826.61L2018.24 5850.33L1938.44 5742.95L2034.44 5556.5L2034.44 5455.26L1884 5747.4L1942.82 5826.61Z" fill="#1C3541" fill-opacity="0.22"/>
<path d="M1618.07 6855.09L1664.21 6898.68L1664.93 6723.53L2029.74 6881.23L1647.28 6507.14L1569.32 6569.82L1574.81 6518.45L2034.44 6321.8L2034.44 6263.96L1789.95 6021.04L1869.55 5866.41L1895.7 5898.76L1833.28 6004.44L2034.44 6208.93L2034.44 6142.79L1891.32 5997.31L1926.81 5937.19L2025.23 6058.88L2034.44 6062.6L2034.44 5996.53L1860.86 5781.97L1733.16 6030.06L1993.73 6288.79L1531.54 6486.49L1511.48 6675.82L1644.28 6569.03L1818.45 6739.41L1618.86 6653.14L1618.07 6855.09Z" fill="#1C3541" fill-opacity="0.22"/>
<path d="M1735.9 7125.98L1958.11 6978.61L1738.32 6877.9L1737.93 6829.73L2004.58 6953.51L1956.41 6880.06L1690.94 6756.86L1692.18 6907.77L1863.02 6986.06L1778.06 7042.4L1800.21 6977.5L1622.65 6922.86L1622.65 7125.98L1668.98 7125.98L1668.98 6985.6L1740.87 7007.76L1700.48 7125.98L1735.9 7125.98Z" fill="#1C3541" fill-opacity="0.22"/>
<path d="M1024.13 7122.06L924.528 7106.7L628.015 7061.15L600.631 7056.97L601.415 7081.61L602.919 7125.98L628.538 7125.98L636.511 7109.38L744.542 7125.98L1011.38 7125.98L1024.13 7122.06Z" fill="#1C3541" fill-opacity="0.22"/>
<path d="M1453.51 5248.81L1383.32 5239.59L1064.84 5458.27L1200.13 5444.81L746.83 5834.32L718.728 5763.54L702.912 5849.28L727.747 5911.83L1341.95 5384.09L1240.06 5394.22L1394.95 5287.89L1613.76 5316.45L1375.28 5972.94L1809.75 5702.17L1620.95 6049.99L1839.03 6259.45L1626.5 6357.61L1546.96 6445.38L1920.14 6273.04L1678.59 6041.03L1934.25 5569.96L1464.68 5862.55L1677.09 5278.02L1499.52 5254.82L1511.48 5193.85L1509.84 5191.49L1464.68 5191.49L1453.51 5248.81Z" fill="#1C3541" fill-opacity="0.22"/>
<path d="M1743.94 5229.01L1769.96 5267.37L1881.84 5191.49L1799.3 5191.49L1743.94 5229.01Z" fill="#1C3541" fill-opacity="0.22"/>
<path d="M2002.22 5279.92L1776.69 5430.1L1710.42 5611.07L1612.32 5672.76L1733.75 5339.72L1779.89 5369.45L1892.36 5292.34L1921.18 5216.33L1779.1 5313.71L1710.09 5269.27L1522.39 5784.06L1991.44 5489.12L1913.21 5483.56L1893.41 5495.98L2034.44 5363.44L2034.44 5356.84L1846.75 5476.5L2006.73 5289.07L2034.44 5345.27L2034.44 5240.44L2010.33 5191.56L1958.63 5191.56L2002.22 5279.92ZM1817.86 5543.49L1756.69 5581.92L1839.69 5484.67L1817.86 5543.49Z" fill="#1C3541" fill-opacity="0.22"/>
<path d="M500.183 6060.18L461.362 6006.85L330.784 5985.55L288.957 5992.21L313.727 5898.56L478.354 5923.92L539.918 5886.47L279.611 5846.41L225.89 6049.33L330.719 6032.47L500.183 6060.18Z" fill="#1C3541" fill-opacity="0.22"/>
<path d="M2034.44 6739.8L2034.44 6676.54L1963.34 6610.6L2034.44 6592.95L2034.44 6583.8L1914.39 6575.63L1852.89 6571.45L1900.66 6615.7L2034.44 6739.8Z" fill="#1C3541" fill-opacity="0.22"/>
<path d="M1157.59 5191.49L1144.32 5191.49L1146.21 5206.33L1157.59 5191.49Z" fill="#1C3541" fill-opacity="0.22"/>
<path d="M828.526 6989.46L925.904 6962.93L543.384 6881.04L522.406 7061.74L167.4 6808.3L173.936 6572.5L331.309 6820.78L209.881 6696.67L297.129 6856.79L500.708 6997.04L115.574 6372.97L117.47 6833.26L141.259 6849.93L117.47 6873.32L117.796 6937.96L179.948 6876.92L536.326 7125.98L561.553 7125.98L583.577 6937.04L828.526 6989.46Z" fill="#1C3541" fill-opacity="0.22"/>
<path d="M1091.19 6917.18L1090.34 6909.27L1084.78 6903.52L1046.74 6864.44L1547.1 6361.08L1571.28 6336.76L1539.71 6323.37L1128.05 6148.94L989.298 6090.12L1104 6187.89L1375.28 6419.31L1368.29 6352.38L1248.69 6250.43L1490.04 6352.65L997.794 6847.9L981.717 6864.11L997.598 6880.45L1045.96 6930.12L1067.27 7125.98L1113.86 7125.98L1091.19 6917.18Z" fill="#1C3541" fill-opacity="0.22"/>
<path d="M1186.27 7088.47L1163.14 6908.16L1341.36 6757.58L1333.39 6858.1L1205.55 6915.41L1190 6922.41L1192.02 6939.33L1205.36 7051.94L1211.11 7100.5L1243.2 7067.1L1383.51 6920.9L1247.05 7009.65L1240.06 6950.77L1364.89 6894.76L1377.37 6889.14L1378.48 6875.48L1392.01 6705.82L1396.39 6650.4L1353.91 6686.28L1123.53 6880.91L1113.93 6889.01L1115.56 6901.56L1144.32 7125.98L1157.58 7125.98L1186.27 7088.47Z" fill="#1C3541" fill-opacity="0.22"/>
<path d="M1465.01 7029.46L1513.63 7081.8L1503.63 6845.68L1216.66 7125.98L1308.16 7125.98L1377.11 7096.12L1439.65 7024.88L1355.87 7054.81L1461.74 6951.49L1465.01 7029.46Z" fill="#1C3541" fill-opacity="0.22"/>
<path d="M-74.8062 7125.98L17.8011 7125.98L12.1805 7123.11L70.4114 7083.77L104.134 7105.79L101.455 7125.98L148.248 7125.98L154 7082.92L69.9539 7028.15L-74.8062 7125.98Z" fill="#1C3541" fill-opacity="0.22"/>
<path d="M135.572 6982.66L65.5773 6935.28L-114.997 7072.85L-114.997 7102L-100.946 7120.43L67.2112 6992.33L140.474 7041.94L191.515 6993.58L383.2 7125.98L464.828 7125.98L186.875 6934.1L135.572 6982.66Z" fill="#1C3541" fill-opacity="0.22"/>
<path d="M172.954 7125.98L219.617 7125.98L222.231 7101.93L258.83 7125.98L343.202 7125.98L184.326 7021.48L172.954 7125.98Z" fill="#1C3541" fill-opacity="0.22"/>
<path d="M1622.65 5236.65L1668.98 5191.49L1622.65 5191.49L1622.65 5236.65Z" fill="#1C3541" fill-opacity="0.22"/>
<path d="M-114.999 7022.53L31.6565 6923.06L-114.999 6779.48L-114.999 6844.37L-41.2791 6916.52L-114.999 6966.52L-114.999 7022.53Z" fill="#1C3541" fill-opacity="0.22"/>
<path d="M559.656 5207.83L561.551 5191.49L536.324 5191.49L559.656 5207.83Z" fill="#1C3541" fill-opacity="0.22"/>
<path d="M1590.23 6703.99L1590.23 6649.62L1551.02 6687.26L1467.17 6767.65L1504.35 6507.8L1514.16 6439.31L1465.79 6487.41L1091.97 6858.88L1449.91 6560.86L1411.75 6827.58L1402.27 6894.11L1450.76 6847.64L1543.89 6758.3L1543.89 7125.98L1590.23 7125.98L1590.23 6703.99Z" fill="#1C3541" fill-opacity="0.22"/>
<path d="M2034.44 7022.53L2034.44 6966.52L1799.3 7125.98L1881.84 7125.98L2034.44 7022.53Z" fill="#1C3541" fill-opacity="0.22"/>
<path d="M1590.23 5236.65L1590.23 5191.49L1543.89 5191.49L1590.23 5236.65Z" fill="#1C3541" fill-opacity="0.22"/>
<path d="M244.516 6250.76L171.842 6169.85L309.152 6214.03L139.034 6133.32L-65.4597 5905.69L-25.9855 5877.32L-60.8849 5832.16L-114.998 5807.13L-114.998 5837.98L-92.0589 5867.72L-114.998 5884.18L-114.998 5919.87L174.26 6241.87L113.285 6282.39L4.53493 6136.32L-68.662 6115.6L102.37 6345.39L244.516 6250.76Z" fill="#1C3541" fill-opacity="0.22"/>
<path d="M-114.999 6350.1L-114.999 6400.48L63.6799 6324.41L-114.999 6142.79L-114.999 6208.93L-17.0982 6308.47L-114.999 6350.1Z" fill="#1C3541" fill-opacity="0.22"/>
<path d="M-114.999 5689.89L318.562 5749.82L139.622 5549.31L10.0896 5556.37L51.3283 5600.55L118.513 5596.89L203.277 5693.61L-77.8121 5648.26L30.0227 5460.23L36.5582 5401.61L-3.17736 5340.04L-15.0064 5445.46L-114.999 5619.89L-114.999 5689.89Z" fill="#1C3541" fill-opacity="0.22"/>
<path d="M238.895 6344.02L406.594 6605.18L480.183 6542.89L457.375 6464.08L431.886 6375.91L488.941 6129.53L294.25 6059.27L337.841 6124.3L434.501 6159.2L413.587 6249.65L325.032 6325.92L395.876 6326.05L384.047 6377.22L427.312 6526.95L417.051 6535.64L252.031 6278.67L148.183 6350.29L222.556 6355.33L238.895 6344.02Z" fill="#1C3541" fill-opacity="0.22"/>
<path d="M10.2226 5239.66L69.499 5217.7L17.8038 5191.49L-74.8034 5191.49L-79.0515 5194.37L10.2226 5239.66Z" fill="#1C3541" fill-opacity="0.22"/>
<path d="M383.198 5191.49L492.732 5267.11L201.382 5359.26L219.616 5191.49L172.953 5191.49L147.595 5424.87L596.973 5282.79L464.826 5191.49L383.198 5191.49Z" fill="#1C3541" fill-opacity="0.22"/>
<path d="M1086.02 5364.49L1090.14 5402.26L1120.59 5382.13L1409.46 5191.49L1403.64 5191.49L1128.56 5326.65L1113.86 5191.49L1067.26 5191.49L1086.02 5364.49Z" fill="#1C3541" fill-opacity="0.22"/>
<path d="M628.54 5191.49L602.921 5191.49L604.555 5241.16L628.54 5191.49Z" fill="#1C3541" fill-opacity="0.22"/>
<path d="M1216.66 5191.49L1143.79 5262.66L1308.16 5191.49L1216.66 5191.49Z" fill="#1C3541" fill-opacity="0.22"/>
<path d="M817.87 5202.8L693.304 5241.29L624.682 5311.03L927.861 5217.31L1011.38 5191.49L744.542 5191.49L817.87 5202.8Z" fill="#1C3541" fill-opacity="0.22"/>
<path d="M789.898 4965.1L801.139 4969.81L892.896 5008.24L838.914 4944.65L841.92 4917.92L844.599 4894.78L821.399 4892.23L590.959 4867.14L570.045 4744.92L991.451 4420.83L908.385 4426.26L530.767 4716.69L519.657 4725.25L522.01 4738.98L548.217 4892.23L551.158 4909.42L568.542 4911.32L793.231 4935.82L791.793 4948.5L789.898 4965.1Z" fill="#1C3541" fill-opacity="0.22"/>
<path d="M768.528 4736.43L822.576 4780.74L887.669 4778.26L999.164 4462.92L611.547 4755.97L624.356 4845.38L771.861 4855.57L709.186 4807.54L648.014 4796.75L904.008 4592.91L854.469 4733.16L768.528 4736.43Z" fill="#1C3541" fill-opacity="0.22"/>
<path d="M1289.27 4561.02L969.102 4293.06L429.275 4688.79L443.195 4786.16L236.675 4474.81L166.877 4453.51L518.157 4982.95L479.14 4709.76L966.815 4352.21L1180.2 4536.05L1101.71 4552.19L958.515 4894.52L1261.37 4597.35L1160.13 4631.73L1089.81 4700.74L1134.97 4592.65L1289.27 4561.02Z" fill="#1C3541" fill-opacity="0.22"/>
<path d="M926.099 4084.52L1622.84 4388.87L1774.86 4307.12L1508.28 4063.15L1528.01 4200.85L1251.04 4079.16L1188.82 3956.68L1058.51 4091.64L1010.34 4070.6L1229.41 3871.92L1329.53 3617.36L783.038 4091.25L1268.95 4498.34L1352.99 4508.28L854.471 4090.66L1217.32 3776.11L1190.26 3844.93L926.099 4084.52ZM1177 4035.83L1217.25 4115.04L1585.79 4276.92L1572.59 4184.84L1695.45 4297.25L1620.82 4337.37L1103.93 4111.57L1177 4035.83Z" fill="#1C3541" fill-opacity="0.22"/>
<path d="M1735.9 3257L1700.48 3257L1690.16 3287.39L1735.9 3257Z" fill="#1C3541" fill-opacity="0.22"/>
<path d="M600.241 5100.72L1033.93 5167.05L1007.14 4991.64L917.537 4923.54L1056.81 4558.53L1043.67 4462.92L907.995 4818.38L908.191 4815.83L749.641 4803.16L819.897 4855.31L891.722 4861.06L861.855 4939.42L964.135 5017.19L978.578 5111.69L607.234 5054.9L600.241 5100.72Z" fill="#1C3541" fill-opacity="0.22"/>
<path d="M53.1588 4964.19L71.6541 4455.73L72.9612 4419.14L39.3037 4433.64L-114.998 4500.04L-114.998 4550.5L23.9454 4490.7L10.7438 4855.57L53.1588 4964.19Z" fill="#1C3541" fill-opacity="0.22"/>
<path d="M505.999 4592L941.26 4272.87L760.685 4120.27L541.421 4290.25L586.385 4098.24L611.546 4198.56L635.728 4104.32L584.947 3901.4L556.976 4020.6L378.362 3996.94L429.992 4050.53L546.388 4065.96L528.22 4143.34L423.326 4137L519.658 4180L466.46 4407.04L759.443 4179.87L866.363 4270.26L834.013 4293.98L762.188 4232.94L478.419 4445.73L488.941 4568.6L522.142 4468.87L760.424 4290.19L796.892 4321.23L544.754 4506.12L505.999 4592Z" fill="#1C3541" fill-opacity="0.22"/>
<path d="M309.153 4296.2L301.18 4352.41L377.71 4313.19L387.187 4232.61L193.999 4149.87L241.904 3958.38L208.377 3901.39L139.493 4176.93L337.125 4261.63L334.576 4283.19L309.153 4296.2Z" fill="#1C3541" fill-opacity="0.22"/>
<path d="M-30.2976 3976.88L-11.7369 3996.68L91.7845 4107.2L122.24 4139.68L130.736 4098.51L173.085 3893.29L101.98 4050.27L40.6119 3984.79L79.4326 3958.52L110.084 3937.73L81.0664 3921.33L-38.0747 3854.15L32.0506 3934.6L-7.81561 3961.65L-30.2976 3976.88Z" fill="#1C3541" fill-opacity="0.22"/>
<path d="M1065.56 3477.77L1064.26 3467.97L1041.9 3300.92L1038.38 3274.32L1012.56 3281.71L234.646 3504.43L197.46 3515.09L224.386 3542.86L553.184 3881.79L552.465 3814.47L346.01 3601.62C358.232 3598.15 373.917 3593.64 394.177 3587.83C446.199 3572.93 515.409 3553.06 584.554 3533.12C665.594 3509.79 746.568 3486.53 799.701 3471.23L721.079 3582.86L727.288 3533.52L418.162 3627.76L564.163 3778.14L642.458 3640.17L554.687 3704.09L501.423 3649.19L674.22 3596.52L654.091 3755.72L909.496 3393L848.39 3410.65C682.455 3458.49 381.825 3544.95 310.588 3565.21L284.577 3538.42L999.489 3333.73L1017 3464.37L941.585 3559L899.628 3611.61L963.806 3596.26L1087.52 3552.27L1007.01 3551.29L1059.35 3485.55L1065.56 3477.77Z" fill="#1C3541" fill-opacity="0.22"/>
<path d="M1572.45 3412.87L1445.6 3397.05L704.872 4054.72L644.812 3824.47L731.21 3797.94L752.908 3850.68L1049.94 3602.72L842.444 3647.17L949.363 3502.86L981.779 3381.24L732.125 3718.27L876.166 3687.36L771.73 3774.54L758.006 3741.28L588.803 3793.17L679.123 4139.61L1351.03 3542.99L1397.17 3548.81L1263.91 3887.8L1213.4 3929.63L1224.44 3967.34L1282.15 3999.56L1266.46 3945.9L1302.67 3915.84L1462.13 3510.38L1397.11 3502.08L1460.7 3445.61L1508.34 3451.56L1277.83 4062.82L1489.39 4154.97L1476.84 4062.69L1608.79 3981.78L1564.41 4065.63L1629.11 4042.49L1729.17 3853.62L1426.84 4039.03L1432.33 4079.55L1336.78 4037.92L1572.45 3412.87Z" fill="#1C3541" fill-opacity="0.22"/>
<path d="M43.096 3401.17L81.6551 3404.9L58.1929 3580.57L144.657 3569.4L419.799 3859.11L-104.474 3790.16L-114.996 3797.16L-114.996 3835.52L79.237 3861.07L137.141 3928.71L115.835 3865.91L543.58 3922.18L162.041 3520.44L112.176 3526.85L148.251 3257L101.458 3257L87.8638 3358.89L-19.3829 3348.63L43.096 3401.17Z" fill="#1C3541" fill-opacity="0.22"/>
<path d="M294.316 3359.87L418.228 3306.41L343.201 3257L258.828 3257L320.98 3297.91L275.951 3317.32L294.316 3359.87Z" fill="#1C3541" fill-opacity="0.22"/>
<path d="M2034.44 4844.98L1764.79 4580.89L2034.44 4466.06L2034.44 4415.67L1682.77 4565.46L2034.44 4909.88L2034.44 4844.98Z" fill="#1C3541" fill-opacity="0.22"/>
<path d="M1819.17 4599.38L1900.6 4606.05L2034.44 4606.24L2034.44 4559.84L2012.75 4559.84L2034.44 4550.5L2034.44 4500.04L1891.51 4561.54L1819.17 4599.38Z" fill="#1C3541" fill-opacity="0.22"/>
<path d="M1942.82 3892.11L2018.24 3915.9L1938.44 3808.46L2034.44 3622L2034.44 3520.77L1884 3812.97L1942.82 3892.11Z" fill="#1C3541" fill-opacity="0.22"/>
<path d="M1618.07 4920.67L1664.21 4964.19L1664.93 4789.04L2029.74 4946.74L1647.28 4572.65L1569.32 4635.33L1574.81 4583.96L2034.44 4387.31L2034.44 4329.47L1789.95 4086.61L1869.55 3931.92L1895.7 3964.27L1833.28 4069.95L2034.44 4274.44L2034.44 4208.37L1891.32 4062.82L1926.8 4002.76L2025.23 4124.39L2034.44 4128.11L2034.44 4062.04L1860.86 3847.48L1733.16 4095.57L1993.73 4354.37L1531.54 4552.07L1511.48 4741.33L1644.28 4634.54L1818.45 4804.92L1618.85 4718.65L1618.07 4920.67Z" fill="#1C3541" fill-opacity="0.22"/>
<path d="M1735.9 5191.49L1958.11 5044.12L1738.32 4943.41L1737.93 4895.31L2004.58 5019.09L1956.41 4945.56L1690.94 4822.37L1692.18 4973.27L1863.02 5051.57L1778.06 5107.9L1800.21 5043.01L1622.65 4988.37L1622.65 5191.49L1668.98 5191.49L1668.98 5051.18L1740.87 5073.27L1700.48 5191.49L1735.9 5191.49Z" fill="#1C3541" fill-opacity="0.22"/>
<path d="M1024.13 5187.57L924.527 5172.28L628.014 5126.73L600.631 5122.48L601.415 5147.12L602.918 5191.49L628.537 5191.49L636.51 5174.89L744.541 5191.49L1011.38 5191.49L1024.13 5187.57Z" fill="#1C3541" fill-opacity="0.22"/>
<path d="M1453.51 3314.32L1383.32 3305.17L1064.84 3523.78L1200.13 3510.32L746.83 3899.83L718.727 3829.05L702.912 3914.79L727.746 3977.34L1341.95 3449.6L1240.06 3459.73L1394.95 3353.4L1613.76 3382.02L1375.28 4038.44L1809.75 3767.68L1620.95 4115.5L1839.03 4324.96L1626.5 4423.12L1546.96 4510.89L1920.14 4338.55L1678.59 4106.54L1934.25 3635.47L1464.68 3928.13L1677.08 3343.53L1499.52 3320.33L1511.48 3259.42L1509.84 3257L1464.68 3257L1453.51 3314.32Z" fill="#1C3541" fill-opacity="0.22"/>
<path d="M1743.94 3294.58L1769.96 3332.95L1881.84 3257L1799.3 3257L1743.94 3294.58Z" fill="#1C3541" fill-opacity="0.22"/>
<path d="M2002.22 3345.49L1776.69 3495.68L1710.42 3676.58L1612.32 3738.27L1733.75 3405.23L1779.89 3434.96L1892.36 3357.84L1921.18 3281.84L1779.1 3379.21L1710.09 3334.77L1522.39 3849.57L1991.44 3554.63L1913.21 3549.07L1893.41 3561.49L2034.44 3428.95L2034.44 3422.35L1846.75 3542.01L2006.73 3354.58L2034.44 3410.78L2034.44 3305.95L2010.33 3257.07L1958.63 3257.07L2002.22 3345.49ZM1817.86 3609L1756.69 3647.43L1839.69 3550.18L1817.86 3609Z" fill="#1C3541" fill-opacity="0.22"/>
<path d="M500.182 4125.69L461.362 4072.36L330.784 4051.06L288.957 4057.79L313.726 3964.07L478.354 3989.43L539.918 3951.98L279.611 3911.92L225.89 4114.84L330.718 4097.98L500.182 4125.69Z" fill="#1C3541" fill-opacity="0.22"/>
<path d="M2034.44 4805.31L2034.44 4742.05L1963.34 4676.17L2034.44 4658.46L2034.44 4649.31L1914.39 4641.14L1852.89 4636.96L1900.66 4681.21L2034.44 4805.31Z" fill="#1C3541" fill-opacity="0.22"/>
<path d="M1157.58 3257L1144.32 3257L1146.21 3271.84L1157.58 3257Z" fill="#1C3541" fill-opacity="0.22"/>
<path d="M828.525 5055.03L925.904 5028.43L543.384 4946.54L522.405 5127.25L167.4 4873.81L173.935 4638.01L331.309 4886.35L209.88 4762.25L297.129 4922.3L500.708 5062.55L115.574 4438.54L117.469 4898.77L141.258 4915.44L117.469 4938.83L117.796 5003.47L179.948 4942.43L536.326 5191.49L561.553 5191.49L583.577 5002.55L828.525 5055.03Z" fill="#1C3541" fill-opacity="0.22"/>
<path d="M1091.19 4982.75L1090.34 4974.78L1084.78 4969.09L1046.74 4929.94L1547.1 4426.59L1571.28 4402.27L1539.71 4388.88L1128.05 4214.44L989.298 4155.69L1103.99 4253.46L1375.28 4484.82L1368.29 4417.89L1248.69 4315.94L1490.04 4418.22L997.794 4913.41L981.716 4929.62L997.598 4945.96L1045.96 4995.69L1067.27 5191.49L1113.86 5191.49L1091.19 4982.75Z" fill="#1C3541" fill-opacity="0.22"/>
<path d="M1186.27 5153.98L1163.14 4973.67L1341.36 4823.09L1333.39 4923.61L1205.55 4980.99L1190 4987.91L1192.02 5004.84L1205.36 5117.51L1211.11 5166L1243.2 5132.61L1383.51 4986.41L1247.05 5075.16L1240.06 5016.28L1364.89 4960.33L1377.37 4954.71L1378.48 4940.99L1392.01 4771.33L1396.39 4715.91L1353.91 4751.79L1123.53 4946.41L1113.93 4954.52L1115.56 4967.07L1144.32 5191.49L1157.58 5191.49L1186.27 5153.98Z" fill="#1C3541" fill-opacity="0.22"/>
<path d="M1465.01 5094.96L1513.63 5147.31L1503.63 4911.25L1216.66 5191.49L1308.16 5191.49L1377.11 5161.69L1439.65 5090.39L1355.87 5120.32L1461.74 5017L1465.01 5094.96Z" fill="#1C3541" fill-opacity="0.22"/>
<path d="M-74.8062 5191.49L17.8011 5191.49L12.1805 5188.68L70.4114 5149.27L104.134 5171.3L101.455 5191.49L148.248 5191.49L154 5148.42L69.9539 5093.66L-74.8062 5191.49Z" fill="#1C3541" fill-opacity="0.22"/>
<path d="M135.572 5048.17L65.577 5000.85L-114.997 5138.43L-114.997 5167.51L-100.946 5186L67.2108 5057.91L140.473 5107.45L191.515 5059.08L383.199 5191.49L464.827 5191.49L186.875 4999.61L135.572 5048.17Z" fill="#1C3541" fill-opacity="0.22"/>
<path d="M172.953 5191.49L219.617 5191.49L222.231 5167.44L258.829 5191.49L343.202 5191.49L184.325 5087.06L172.953 5191.49Z" fill="#1C3541" fill-opacity="0.22"/>
<path d="M1403.64 5191.49L1409.46 5191.49L1426.38 5180.32L1403.64 5191.49Z" fill="#1C3541" fill-opacity="0.22"/>
<path d="M1474.81 5139.99L1464.68 5191.49L1509.84 5191.49L1474.81 5139.99Z" fill="#1C3541" fill-opacity="0.22"/>
<path d="M1622.65 3302.16L1668.98 3257L1622.65 3257L1622.65 3302.16Z" fill="#1C3541" fill-opacity="0.22"/>
<path d="M-114.999 5088.04L31.6563 4988.63L-114.999 4844.98L-114.999 4909.88L-41.2794 4982.03L-114.999 5032.03L-114.999 5088.04Z" fill="#1C3541" fill-opacity="0.22"/>
<path d="M559.656 3273.34L561.551 3257L536.324 3257L559.656 3273.34Z" fill="#1C3541" fill-opacity="0.22"/>
<path d="M1590.23 4769.5L1590.23 4715.19L1551.02 4752.77L1467.17 4833.15L1504.35 4573.31L1514.16 4504.88L1465.79 4552.91L1091.97 4924.39L1449.91 4626.37L1411.75 4893.15L1402.27 4959.68L1450.76 4913.15L1543.89 4823.87L1543.89 5191.49L1590.23 5191.49L1590.23 4769.5Z" fill="#1C3541" fill-opacity="0.22"/>
<path d="M2034.44 5088.03L2034.44 5032.03L1799.3 5191.49L1881.84 5191.49L2034.44 5088.03Z" fill="#1C3541" fill-opacity="0.22"/>
<path d="M1590.23 3302.16L1590.23 3257L1543.89 3257L1590.23 3302.16Z" fill="#1C3541" fill-opacity="0.22"/>
<path d="M244.516 4316.27L171.842 4235.36L309.152 4279.6L139.034 4198.82L-65.46 3971.19L-25.9858 3942.83L-60.8851 3897.67L-114.998 3872.64L-114.998 3903.55L-92.0592 3933.22L-114.998 3949.69L-114.998 3985.38L174.26 4307.38L113.284 4347.96L4.53469 4201.83L-68.6623 4181.18L102.37 4410.9L244.516 4316.27Z" fill="#1C3541" fill-opacity="0.22"/>
<path d="M-115 4415.67L-115 4466.06L63.6795 4389.92L-115 4208.37L-115 4274.44L-17.0987 4373.97L-115 4415.67Z" fill="#1C3541" fill-opacity="0.22"/>
<path d="M-114.999 3755.46L318.562 3815.33L139.622 3614.88L10.0891 3621.88L51.3278 3666.06L118.512 3662.4L203.277 3759.19L-77.8126 3713.76L30.0222 3525.74L36.5577 3467.12L-3.17785 3405.55L-15.0069 3511.04L-114.999 3685.4L-114.999 3755.46Z" fill="#1C3541" fill-opacity="0.22"/>
<path d="M238.895 4409.53L406.594 4670.75L480.183 4608.47L457.374 4529.58L431.886 4441.48L488.941 4195.1L294.25 4124.78L337.841 4189.8L434.5 4224.7L413.587 4315.15L325.032 4391.42L395.876 4391.62L384.047 4442.73L427.311 4592.45L417.051 4601.15L252.031 4344.17L148.183 4415.8L222.556 4420.83L238.895 4409.53Z" fill="#1C3541" fill-opacity="0.22"/>
<path d="M10.2221 3305.17L69.4985 3283.21L17.8033 3257L-74.8039 3257L-79.052 3259.88L10.2221 3305.17Z" fill="#1C3541" fill-opacity="0.22"/>
<path d="M383.198 3257L492.732 3332.68L201.382 3424.77L219.616 3257L172.953 3257L147.595 3490.38L596.972 3348.3L464.826 3257L383.198 3257Z" fill="#1C3541" fill-opacity="0.22"/>
<path d="M1086.02 3430.06L1090.14 3467.77L1120.59 3447.64L1409.46 3257L1403.64 3257L1128.56 3392.22L1113.86 3257L1067.26 3257L1086.02 3430.06Z" fill="#1C3541" fill-opacity="0.22"/>
<path d="M628.54 3257L602.921 3257L604.555 3306.67L628.54 3257Z" fill="#1C3541" fill-opacity="0.22"/>
<path d="M1216.66 3257L1143.79 3328.24L1308.16 3257L1216.66 3257Z" fill="#1C3541" fill-opacity="0.22"/>
<path d="M817.87 3268.31L693.304 3306.8L624.682 3376.54L927.861 3282.82L1011.38 3257L744.542 3257L817.87 3268.31Z" fill="#1C3541" fill-opacity="0.22"/>
<path d="M789.898 3030.59L801.139 3035.3L892.897 3073.73L838.914 3010.14L841.92 2983.41L844.6 2960.27L821.399 2957.72L590.959 2932.63L570.046 2810.42L991.451 2486.32L908.386 2491.68L530.768 2782.18L519.658 2790.68L522.01 2804.47L548.217 2957.66L551.158 2974.91L568.543 2976.81L793.231 3001.32L791.793 3013.99L789.898 3030.59Z" fill="#1C3541" fill-opacity="0.22"/>
<path d="M768.529 2801.86L822.577 2846.23L887.67 2843.75L999.164 2528.35L611.547 2821.46L624.357 2910.87L771.862 2921.06L709.187 2873.03L648.015 2862.24L904.008 2658.4L854.47 2798.65L768.529 2801.86Z" fill="#1C3541" fill-opacity="0.22"/>
<path d="M1289.27 2626.44L969.103 2358.56L429.275 2754.28L443.196 2851.59L236.676 2540.31L166.877 2519L518.157 3048.44L479.14 2775.25L966.815 2417.7L1180.2 2601.54L1101.71 2617.69L958.515 2960.01L1261.37 2662.85L1160.13 2697.22L1089.81 2766.24L1134.97 2658.14L1289.27 2626.44Z" fill="#1C3541" fill-opacity="0.22"/>
<path d="M926.1 2150.01L1622.84 2454.37L1774.86 2372.61L1508.28 2128.64L1528.01 2266.34L1251.04 2144.65L1188.82 2022.18L1058.51 2157.13L1010.34 2136.09L1229.41 1937.41L1329.53 1682.86L783.039 2156.74L1268.95 2563.83L1352.99 2573.77L854.471 2156.15L1217.32 1841.6L1190.26 1910.42L926.1 2150.01ZM1177 2101.32L1217.25 2180.53L1585.79 2342.41L1572.59 2250.33L1695.45 2362.74L1620.82 2402.87L1103.93 2177.07L1177 2101.32Z" fill="#1C3541" fill-opacity="0.22"/>
<path d="M1735.9 1322.49L1700.48 1322.49L1690.16 1352.82L1735.9 1322.49Z" fill="#1C3541" fill-opacity="0.22"/>
<path d="M600.241 3166.21L1033.93 3232.48L1007.14 3057.13L917.537 2989.03L1056.81 2624.03L1043.67 2528.35L907.995 2883.87L908.192 2881.33L749.642 2868.65L819.898 2920.73L891.722 2926.55L861.855 3004.91L964.135 3082.68L978.578 3177.12L607.234 3120.39L600.241 3166.21Z" fill="#1C3541" fill-opacity="0.22"/>
<path d="M53.159 3029.68L71.6544 2521.23L72.9615 2484.63L39.3039 2499.07L-114.998 2565.47L-114.998 2615.99L23.9456 2556.19L10.744 2921.06L53.159 3029.68Z" fill="#1C3541" fill-opacity="0.22"/>
<path d="M505.999 2657.42L941.26 2338.36L760.685 2185.76L541.421 2355.75L586.385 2163.74L611.546 2264.05L635.728 2169.75L584.947 1966.82L556.976 2086.09L378.362 2062.37L429.992 2116.03L546.388 2131.45L528.22 2208.83L423.326 2202.43L519.658 2245.49L466.46 2472.54L759.443 2245.36L866.363 2335.75L834.013 2359.47L762.188 2298.43L478.419 2511.16L488.941 2634.09L522.142 2534.36L760.424 2355.68L796.892 2386.66L544.754 2571.55L505.999 2657.42Z" fill="#1C3541" fill-opacity="0.22"/>
<path d="M309.154 2361.69L301.181 2417.83L377.711 2378.62L387.187 2298.1L193.999 2215.36L241.904 2023.81L208.377 1966.82L139.494 2242.42L337.125 2327.05L334.577 2348.69L309.154 2361.69Z" fill="#1C3541" fill-opacity="0.22"/>
<path d="M-30.2975 2042.37L-11.7368 2062.17L91.7846 2172.69L122.24 2205.17L130.736 2164L173.085 1958.72L101.98 2115.77L40.6121 2050.28L79.4327 2024.01L110.084 2003.22L81.0665 1986.82L-38.0746 1919.64L32.0507 2000.09L-7.81549 2027.14L-30.2975 2042.37Z" fill="#1C3541" fill-opacity="0.22"/>
<path d="M1065.56 1543.19L1064.26 1533.39L1041.9 1366.35L1038.38 1339.75L1012.56 1347.13L234.647 1569.86L197.46 1580.51L224.386 1608.29L553.184 1947.28L552.465 1879.97L346.011 1667.11C358.232 1663.64 373.917 1659.13 394.177 1653.32C446.199 1638.42 515.409 1618.55 584.554 1598.62C665.594 1575.28 746.568 1552.02 799.701 1536.72L721.08 1648.35L727.288 1599.01L418.162 1693.25L564.164 1843.63L642.458 1705.67L554.687 1769.58L501.423 1714.68L674.221 1662.01L654.091 1821.21L909.497 1458.5L848.39 1476.14C682.455 1523.98 381.825 1610.44 310.589 1630.7L284.577 1603.91L999.49 1399.22L1017 1529.86L941.586 1624.5L899.628 1677.11L963.806 1661.75L1087.52 1617.76L1007.01 1616.78L1059.35 1551.04L1065.56 1543.19Z" fill="#1C3541" fill-opacity="0.22"/>
<path d="M1572.45 1478.36L1445.6 1462.55L704.873 2120.21L644.812 1889.9L731.211 1863.43L752.908 1916.11L1049.94 1668.15L842.444 1712.66L949.364 1568.29L981.78 1446.73L732.126 1783.7L876.167 1752.85L771.73 1840.04L758.006 1806.7L588.803 1858.6L679.123 2205.04L1351.03 1608.42L1397.17 1614.3L1263.91 1953.23L1213.4 1995.12L1224.44 2032.83L1282.15 2065.05L1266.46 2011.33L1302.67 1981.33L1462.13 1575.81L1397.11 1567.57L1460.7 1511.11L1508.34 1517.05L1277.84 2128.31L1489.39 2220.4L1476.84 2128.18L1608.79 2047.27L1564.41 2131.06L1629.12 2107.99L1729.17 1919.05L1426.84 2104.46L1432.33 2145.04L1336.78 2103.41L1572.45 1478.36Z" fill="#1C3541" fill-opacity="0.22"/>
<path d="M43.0964 1466.66L81.6555 1470.39L58.1933 1646.06L144.657 1634.89L419.799 1924.6L-104.474 1855.65L-114.996 1862.65L-114.996 1901.01L79.2373 1926.56L137.141 1994.21L115.836 1931.4L543.581 1987.67L162.041 1585.87L112.176 1592.34L148.252 1322.49L101.458 1322.49L87.8641 1424.38L-19.3825 1414.12L43.0964 1466.66Z" fill="#1C3541" fill-opacity="0.22"/>
<path d="M294.316 1425.36L418.228 1371.9L343.201 1322.49L258.828 1322.49L320.98 1363.4L275.951 1382.81L294.316 1425.36Z" fill="#1C3541" fill-opacity="0.22"/>
<path d="M2034.44 2910.48L1764.79 2646.38L2034.44 2531.48L2034.44 2481.1L1682.77 2630.89L2034.44 2975.37L2034.44 2910.48Z" fill="#1C3541" fill-opacity="0.22"/>
<path d="M1819.17 2664.87L1900.6 2671.47L2034.44 2671.67L2034.44 2625.33L2012.75 2625.33L2034.44 2615.99L2034.44 2565.47L1891.51 2627.03L1819.17 2664.87Z" fill="#1C3541" fill-opacity="0.22"/>
<path d="M1942.82 1957.61L2018.24 1981.33L1938.44 1873.95L2034.44 1687.5L2034.44 1586.26L1884 1878.4L1942.82 1957.61Z" fill="#1C3541" fill-opacity="0.22"/>
<path d="M1618.07 2986.09L1664.21 3029.68L1664.93 2854.53L2029.74 3012.23L1647.28 2638.14L1569.32 2700.82L1574.81 2649.45L2034.44 2452.8L2034.44 2394.96L1789.95 2152.04L1869.55 1997.41L1895.7 2029.76L1833.28 2135.44L2034.44 2339.93L2034.44 2273.79L1891.32 2128.31L1926.81 2068.19L2025.23 2189.88L2034.44 2193.6L2034.44 2127.53L1860.86 1912.97L1733.16 2161.06L1993.73 2419.79L1531.54 2617.49L1511.48 2806.82L1644.28 2700.03L1818.45 2870.41L1618.86 2784.15L1618.07 2986.09Z" fill="#1C3541" fill-opacity="0.22"/>
<path d="M1735.9 3256.98L1958.11 3109.61L1738.32 3008.9L1737.93 2960.73L2004.58 3084.51L1956.41 3011.06L1690.94 2887.86L1692.18 3038.77L1863.02 3117.06L1778.06 3173.4L1800.21 3108.5L1622.65 3053.86L1622.65 3256.98L1668.98 3256.98L1668.98 3116.6L1740.87 3138.76L1700.48 3256.98L1735.9 3256.98Z" fill="#1C3541" fill-opacity="0.22"/>
<path d="M1024.13 3253.06L924.528 3237.7L628.015 3192.15L600.631 3187.97L601.415 3212.61L602.919 3256.98L628.538 3256.98L636.511 3240.38L744.542 3256.98L1011.38 3256.98L1024.13 3253.06Z" fill="#1C3541" fill-opacity="0.22"/>
<path d="M1453.51 1379.81L1383.32 1370.59L1064.84 1589.27L1200.13 1575.81L746.83 1965.32L718.728 1894.54L702.912 1980.29L727.747 2042.83L1341.95 1515.09L1240.06 1525.22L1394.95 1418.89L1613.76 1447.45L1375.28 2103.94L1809.75 1833.17L1620.95 2180.99L1839.03 2390.45L1626.5 2488.61L1546.96 2576.38L1920.14 2404.04L1678.59 2172.04L1934.25 1700.96L1464.68 1993.55L1677.09 1409.02L1499.52 1385.82L1511.48 1324.85L1509.84 1322.49L1464.68 1322.49L1453.51 1379.81Z" fill="#1C3541" fill-opacity="0.22"/>
<path d="M1743.94 1360L1769.96 1398.37L1881.84 1322.49L1799.3 1322.49L1743.94 1360Z" fill="#1C3541" fill-opacity="0.22"/>
<path d="M2002.22 1410.92L1776.69 1561.1L1710.42 1742.07L1612.32 1803.76L1733.75 1470.72L1779.89 1500.45L1892.36 1423.33L1921.18 1347.33L1779.1 1444.71L1710.09 1400.26L1522.39 1915.06L1991.44 1620.12L1913.21 1614.56L1893.41 1626.98L2034.44 1494.44L2034.44 1487.84L1846.75 1607.5L2006.73 1420.07L2034.44 1476.27L2034.44 1371.44L2010.33 1322.56L1958.63 1322.56L2002.22 1410.92ZM1817.86 1674.49L1756.69 1712.92L1839.69 1615.67L1817.86 1674.49Z" fill="#1C3541" fill-opacity="0.22"/>
<path d="M500.183 2191.18L461.362 2137.86L330.784 2116.55L288.957 2123.22L313.727 2029.56L478.354 2054.92L539.918 2017.47L279.611 1977.41L225.89 2180.34L330.719 2163.47L500.183 2191.18Z" fill="#1C3541" fill-opacity="0.22"/>
<path d="M2034.44 2870.81L2034.44 2807.54L1963.34 2741.6L2034.44 2723.95L2034.44 2714.8L1914.39 2706.64L1852.89 2702.45L1900.66 2746.7L2034.44 2870.81Z" fill="#1C3541" fill-opacity="0.22"/>
<path d="M1157.59 1322.49L1144.32 1322.49L1146.21 1337.33L1157.59 1322.49Z" fill="#1C3541" fill-opacity="0.22"/>
<path d="M828.526 3120.46L925.904 3093.93L543.384 3012.04L522.406 3192.74L167.4 2939.3L173.936 2703.5L331.309 2951.78L209.881 2827.67L297.129 2987.79L500.708 3128.04L115.574 2503.97L117.47 2964.26L141.259 2980.93L117.47 3004.32L117.796 3068.96L179.948 3007.92L536.326 3256.98L561.553 3256.98L583.577 3068.04L828.526 3120.46Z" fill="#1C3541" fill-opacity="0.22"/>
<path d="M1091.19 3048.18L1090.34 3040.27L1084.78 3034.52L1046.74 2995.44L1547.1 2492.08L1571.28 2467.76L1539.71 2454.37L1128.05 2279.94L989.298 2221.12L1104 2318.89L1375.28 2550.31L1368.29 2483.38L1248.69 2381.43L1490.04 2483.65L997.794 2978.9L981.717 2995.11L997.598 3011.45L1045.96 3061.12L1067.27 3256.98L1113.86 3256.98L1091.19 3048.18Z" fill="#1C3541" fill-opacity="0.22"/>
<path d="M1186.27 3219.47L1163.14 3039.16L1341.36 2888.58L1333.39 2989.1L1205.55 3046.41L1190 3053.41L1192.02 3070.33L1205.36 3182.94L1211.11 3231.5L1243.2 3198.1L1383.51 3051.9L1247.05 3140.65L1240.06 3081.77L1364.89 3025.76L1377.37 3020.14L1378.48 3006.48L1392.01 2836.82L1396.39 2781.4L1353.91 2817.28L1123.53 3011.91L1113.93 3020.01L1115.56 3032.56L1144.32 3256.98L1157.58 3256.98L1186.27 3219.47Z" fill="#1C3541" fill-opacity="0.22"/>
<path d="M1465.01 3160.46L1513.63 3212.8L1503.63 2976.68L1216.66 3256.98L1308.16 3256.98L1377.11 3227.12L1439.65 3155.88L1355.87 3185.81L1461.74 3082.49L1465.01 3160.46Z" fill="#1C3541" fill-opacity="0.22"/>
<path d="M-74.8062 3256.98L17.8011 3256.98L12.1805 3254.11L70.4114 3214.77L104.134 3236.79L101.455 3256.98L148.248 3256.98L154 3213.92L69.9539 3159.15L-74.8062 3256.98Z" fill="#1C3541" fill-opacity="0.22"/>
<path d="M135.572 3113.66L65.5773 3066.28L-114.997 3203.85L-114.997 3233L-100.946 3251.43L67.2112 3123.33L140.474 3172.94L191.515 3124.58L383.2 3256.98L464.828 3256.98L186.875 3065.1L135.572 3113.66Z" fill="#1C3541" fill-opacity="0.22"/>
<path d="M172.954 3256.98L219.617 3256.98L222.231 3232.93L258.83 3256.98L343.202 3256.98L184.326 3152.48L172.954 3256.98Z" fill="#1C3541" fill-opacity="0.22"/>
<path d="M1403.64 3256.98L1409.46 3256.98L1426.38 3245.81L1403.64 3256.98Z" fill="#1C3541" fill-opacity="0.22"/>
<path d="M1474.81 3205.42L1464.68 3256.98L1509.84 3256.98L1474.81 3205.42Z" fill="#1C3541" fill-opacity="0.22"/>
<path d="M1622.65 1367.65L1668.98 1322.49L1622.65 1322.49L1622.65 1367.65Z" fill="#1C3541" fill-opacity="0.22"/>
<path d="M-114.999 3153.53L31.6565 3054.06L-114.999 2910.48L-114.999 2975.37L-41.2791 3047.52L-114.999 3097.52L-114.999 3153.53Z" fill="#1C3541" fill-opacity="0.22"/>
<path d="M559.656 1338.83L561.551 1322.49L536.324 1322.49L559.656 1338.83Z" fill="#1C3541" fill-opacity="0.22"/>
<path d="M1590.23 2834.99L1590.23 2780.62L1551.02 2818.26L1467.17 2898.65L1504.35 2638.8L1514.16 2570.31L1465.79 2618.41L1091.97 2989.88L1449.91 2691.86L1411.75 2958.58L1402.27 3025.11L1450.76 2978.64L1543.89 2889.3L1543.89 3256.98L1590.23 3256.98L1590.23 2834.99Z" fill="#1C3541" fill-opacity="0.22"/>
<path d="M2034.44 3153.53L2034.44 3097.52L1799.3 3256.98L1881.84 3256.98L2034.44 3153.53Z" fill="#1C3541" fill-opacity="0.22"/>
<path d="M1590.23 1367.65L1590.23 1322.49L1543.89 1322.49L1590.23 1367.65Z" fill="#1C3541" fill-opacity="0.22"/>
<path d="M244.516 2381.76L171.842 2300.85L309.152 2345.03L139.034 2264.32L-65.4597 2036.69L-25.9855 2008.32L-60.8849 1963.16L-114.998 1938.13L-114.998 1968.98L-92.0589 1998.72L-114.998 2015.19L-114.998 2050.87L174.26 2372.87L113.285 2413.39L4.53493 2267.32L-68.662 2246.61L102.37 2476.39L244.516 2381.76Z" fill="#1C3541" fill-opacity="0.22"/>
<path d="M-114.999 2481.1L-114.999 2531.49L63.6799 2455.41L-114.999 2273.79L-114.999 2339.93L-17.0982 2439.47L-114.999 2481.1Z" fill="#1C3541" fill-opacity="0.22"/>
<path d="M-114.999 1820.89L318.562 1880.82L139.622 1680.31L10.0896 1687.37L51.3283 1731.55L118.513 1727.89L203.277 1824.61L-77.8121 1779.26L30.0227 1591.23L36.5582 1532.61L-3.17736 1471.04L-15.0064 1576.46L-114.999 1750.89L-114.999 1820.89Z" fill="#1C3541" fill-opacity="0.22"/>
<path d="M238.895 2475.02L406.594 2736.17L480.183 2673.89L457.375 2595.07L431.886 2506.91L488.941 2260.53L294.25 2190.27L337.841 2255.3L434.501 2290.2L413.587 2380.65L325.032 2456.92L395.876 2457.05L384.047 2508.22L427.312 2657.95L417.051 2666.64L252.031 2409.66L148.183 2481.29L222.556 2486.32L238.895 2475.02Z" fill="#1C3541" fill-opacity="0.22"/>
<path d="M10.2226 1370.66L69.499 1348.7L17.8038 1322.49L-74.8034 1322.49L-79.0515 1325.37L10.2226 1370.66Z" fill="#1C3541" fill-opacity="0.22"/>
<path d="M383.198 1322.5L492.732 1398.11L201.382 1490.26L219.616 1322.5L172.953 1322.5L147.595 1555.88L596.973 1413.8L464.826 1322.5L383.198 1322.5Z" fill="#1C3541" fill-opacity="0.22"/>
<path d="M1086.02 1495.49L1090.14 1533.26L1120.59 1513.13L1409.46 1322.49L1403.64 1322.49L1128.56 1457.65L1113.86 1322.49L1067.26 1322.49L1086.02 1495.49Z" fill="#1C3541" fill-opacity="0.22"/>
<path d="M628.54 1322.49L602.921 1322.49L604.555 1372.16L628.54 1322.49Z" fill="#1C3541" fill-opacity="0.22"/>
<path d="M1216.66 1322.49L1143.79 1393.66L1308.16 1322.49L1216.66 1322.49Z" fill="#1C3541" fill-opacity="0.22"/>
<path d="M817.87 1333.8L693.304 1372.29L624.682 1442.02L927.861 1348.31L1011.38 1322.49L744.542 1322.49L817.87 1333.8Z" fill="#1C3541" fill-opacity="0.22"/>
<path d="M789.898 1096.1L801.139 1100.81L892.896 1139.24L838.914 1075.65L841.92 1048.92L844.599 1025.78L821.399 1023.23L590.959 998.137L570.045 875.924L991.451 551.831L908.385 557.256L530.767 847.691L519.657 856.253L522.01 869.977L548.217 1023.23L551.158 1040.42L568.542 1042.32L793.231 1066.82L791.793 1079.5L789.898 1096.1Z" fill="#1C3541" fill-opacity="0.22"/>
<path d="M768.528 867.43L822.576 911.74L887.669 909.257L999.164 593.922L611.547 886.971L624.356 976.376L771.861 986.571L709.186 938.536L648.014 927.752L904.008 723.912L854.469 864.162L768.528 867.43Z" fill="#1C3541" fill-opacity="0.22"/>
<path d="M1289.27 692.017L969.102 424.064L429.275 819.785L443.195 917.163L236.675 605.814L166.877 584.509L518.157 1113.95L479.14 840.764L966.815 483.21L1180.2 667.052L1101.71 683.194L958.515 1025.52L1261.37 728.354L1160.13 762.731L1089.81 831.745L1134.97 723.649L1289.27 692.017Z" fill="#1C3541" fill-opacity="0.22"/>
<path d="M926.099 215.518L1622.84 519.874L1774.86 438.115L1508.28 194.147L1528.01 331.849L1251.04 210.159L1188.82 87.6849L1058.51 222.642L1010.34 201.597L1229.41 2.92006L1329.53 -251.635L783.038 222.25L1268.95 629.342L1352.99 639.276L854.471 221.661L1217.32 -92.8896L1190.26 -24.0712L926.099 215.518ZM1177 166.829L1217.25 246.039L1585.79 407.922L1572.59 315.837L1695.45 428.247L1620.82 468.374L1103.93 242.575L1177 166.829Z" fill="#1C3541" fill-opacity="0.22"/>
<path d="M600.241 1231.72L1033.93 1298.05L1007.14 1122.64L917.537 1054.54L1056.81 689.535L1043.67 593.921L907.995 949.384L908.191 946.835L749.641 934.156L819.897 986.309L891.722 992.06L861.855 1070.42L964.135 1148.19L978.578 1242.69L607.234 1185.9L600.241 1231.72Z" fill="#1C3541" fill-opacity="0.22"/>
<path d="M53.1588 1095.19L71.6541 586.734L72.9612 550.136L39.3037 564.644L-114.998 631.044L-114.998 681.498L23.9454 621.699L10.7438 986.572L53.1588 1095.19Z" fill="#1C3541" fill-opacity="0.22"/>
<path d="M505.999 722.996L941.26 403.87L760.685 251.268L541.421 421.255L586.385 229.243L611.546 329.563L635.728 235.321L584.947 32.3958L556.976 151.602L378.362 127.944L429.992 181.535L546.388 196.958L528.22 274.338L423.326 267.998L519.658 311.002L466.46 538.043L759.443 310.871L866.363 401.256L834.013 424.98L762.188 363.939L478.419 576.733L488.941 699.599L522.142 599.868L760.424 421.189L796.892 452.233L544.754 637.12L505.999 722.996Z" fill="#1C3541" fill-opacity="0.22"/>
<path d="M309.153 427.2L301.18 483.405L377.71 444.193L387.187 363.61L193.999 280.872L241.904 89.3834L208.377 32.3942L139.493 307.929L337.125 392.628L334.576 414.195L309.153 427.2Z" fill="#1C3541" fill-opacity="0.22"/>
<path d="M-30.2976 107.881L-11.7369 127.683L91.7845 238.197L122.24 270.679L130.736 229.505L173.085 24.2925L101.98 181.274L40.6119 115.789L79.4326 89.5161L110.084 68.7335L81.0664 52.3295L-38.0747 -14.8548L32.0506 65.5963L-7.81561 92.6533L-30.2976 107.881Z" fill="#1C3541" fill-opacity="0.22"/>
<path d="M1065.56 -391.231L1064.26 -401.034L1041.9 -568.08L1038.38 -594.679L1012.56 -587.295L234.646 -364.566L197.46 -353.914L224.386 -326.138L553.184 12.79L552.465 -54.5251L346.01 -267.385C358.232 -270.848 373.917 -275.358 394.177 -281.174C446.199 -296.075 515.409 -315.943 584.554 -335.876C665.594 -359.207 746.568 -382.474 799.701 -397.767L721.079 -286.141L727.288 -335.484L418.162 -241.243L564.163 -90.8622L642.458 -228.825L554.687 -164.909L501.423 -219.806L674.22 -272.482L654.091 -113.279L909.496 -475.996L848.39 -458.35C682.455 -410.511 381.825 -324.047 310.588 -303.787L284.577 -330.582L999.489 -535.272L1017 -404.629L941.585 -309.995L899.628 -257.385L963.806 -272.743L1087.52 -316.727L1007.01 -317.707L1059.35 -383.454L1065.56 -391.231Z" fill="#1C3541" fill-opacity="0.22"/>
<path d="M1572.45 -456.13L1445.6 -471.946L704.872 185.716L644.812 -44.5279L731.21 -71.0615L752.908 -18.3207L1049.94 -266.275L842.444 -221.834L949.363 -366.137L981.779 -487.761L732.125 -150.729L876.166 -181.641L771.73 -94.4586L758.006 -127.724L588.803 -75.8326L679.123 270.611L1351.03 -326.009L1397.17 -320.193L1263.91 18.8009L1213.4 60.6277L1224.44 98.337L1282.15 130.557L1266.46 76.9009L1302.67 46.8379L1462.13 -358.621L1397.11 -366.921L1460.7 -423.387L1508.34 -417.44L1277.83 193.82L1489.39 285.97L1476.84 193.689L1608.79 112.78L1564.41 196.63L1629.11 173.495L1729.17 -15.3796L1426.84 170.031L1432.33 210.551L1336.78 168.92L1572.45 -456.13Z" fill="#1C3541" fill-opacity="0.22"/>
<path d="M43.096 -467.827L81.6551 -464.102L58.1929 -288.429L144.657 -299.605L419.799 -9.88862L-104.474 -78.8376L-114.996 -71.8445L-114.996 -33.4814L79.237 -7.92802L137.141 59.7138L115.835 -3.09153L543.58 53.1784L162.041 -348.555L112.176 -342.151L148.251 -611.999L101.458 -611.999L87.8638 -510.111L-19.3829 -520.372L43.096 -467.827Z" fill="#1C3541" fill-opacity="0.22"/>
<path d="M2034.44 975.984L1764.79 711.887L2034.44 597.059L2034.44 546.67L1682.77 696.463L2034.44 1040.88L2034.44 975.984Z" fill="#1C3541" fill-opacity="0.22"/>
<path d="M1819.17 730.381L1900.6 737.047L2034.44 737.243L2034.44 690.842L2012.75 690.842L2034.44 681.496L2034.44 631.042L1891.51 692.541L1819.17 730.381Z" fill="#1C3541" fill-opacity="0.22"/>
<path d="M1942.82 23.114L2018.24 46.9033L1938.44 -60.5396L2034.44 -246.996L2034.44 -348.23L1884 -56.0299L1942.82 23.114Z" fill="#1C3541" fill-opacity="0.22"/>
<path d="M1618.07 1051.67L1664.21 1095.19L1664.93 920.041L2029.74 1077.74L1647.28 703.653L1569.32 766.328L1574.81 714.959L2034.44 518.308L2034.44 460.469L1789.95 217.612L1869.55 62.9182L1895.7 95.2687L1833.28 200.947L2034.44 405.441L2034.44 339.367L1891.32 193.823L1926.8 133.762L2025.23 255.387L2034.44 259.112L2034.44 193.039L1860.86 -21.5198L1733.16 226.566L1993.73 485.369L1531.54 683.066L1511.48 872.333L1644.28 765.544L1818.45 935.923L1618.85 849.655L1618.07 1051.67Z" fill="#1C3541" fill-opacity="0.22"/>
<path d="M1735.9 1322.49L1958.11 1175.12L1738.32 1074.41L1737.93 1026.31L2004.58 1150.09L1956.41 1076.56L1690.94 953.371L1692.18 1104.27L1863.02 1182.57L1778.06 1238.9L1800.21 1174.01L1622.65 1119.37L1622.65 1322.49L1668.98 1322.49L1668.98 1182.18L1740.87 1204.27L1700.48 1322.49L1735.9 1322.49Z" fill="#1C3541" fill-opacity="0.22"/>
<path d="M1024.13 1318.57L924.527 1303.28L628.014 1257.73L600.631 1253.48L601.415 1278.12L602.918 1322.49L628.537 1322.49L636.51 1305.89L744.541 1322.49L1011.38 1322.49L1024.13 1318.57Z" fill="#1C3541" fill-opacity="0.22"/>
<path d="M1453.51 -554.683L1383.32 -563.832L1064.84 -345.222L1200.13 -358.685L746.83 30.8275L718.727 -39.9515L702.912 45.7936L727.746 108.338L1341.95 -419.399L1240.06 -409.269L1394.95 -515.601L1613.76 -486.976L1375.28 169.444L1809.75 -101.319L1620.95 246.497L1839.03 455.958L1626.5 554.12L1546.96 641.892L1920.14 469.552L1678.59 237.544L1934.25 -233.531L1464.68 59.1259L1677.08 -525.47L1499.52 -548.67L1511.48 -609.58L1509.84 -611.999L1464.68 -611.999L1453.51 -554.683Z" fill="#1C3541" fill-opacity="0.22"/>
<path d="M500.182 256.693L461.362 203.364L330.784 182.058L288.957 188.79L313.726 95.0716L478.354 120.429L539.918 82.9811L279.611 42.9189L225.89 245.844L330.718 228.983L500.182 256.693Z" fill="#1C3541" fill-opacity="0.22"/>
<path d="M2034.44 936.314L2034.44 873.051L1963.34 807.174L2034.44 789.463L2034.44 780.313L1914.39 772.144L1852.89 767.961L1900.66 812.206L2034.44 936.314Z" fill="#1C3541" fill-opacity="0.22"/>
<path d="M828.525 1186.03L925.904 1159.43L543.384 1077.54L522.405 1258.25L167.4 1004.81L173.935 769.006L331.309 1017.35L209.88 893.245L297.129 1053.3L500.708 1193.55L115.574 569.545L117.469 1029.77L141.258 1046.44L117.469 1069.83L117.796 1134.47L179.948 1073.43L536.326 1322.49L561.553 1322.49L583.577 1133.55L828.525 1186.03Z" fill="#1C3541" fill-opacity="0.22"/>
<path d="M1091.19 1113.75L1090.34 1105.78L1084.78 1100.09L1046.74 1060.94L1547.1 557.585L1571.28 533.273L1539.71 519.875L1128.05 345.444L989.298 286.691L1103.99 384.461L1375.28 615.816L1368.29 548.893L1248.69 446.94L1490.04 549.219L997.794 1044.41L981.716 1060.62L997.598 1076.96L1045.96 1126.69L1067.27 1322.49L1113.86 1322.49L1091.19 1113.75Z" fill="#1C3541" fill-opacity="0.22"/>
<path d="M1186.27 1284.98L1163.14 1104.67L1341.36 954.09L1333.39 1054.61L1205.55 1111.99L1190 1118.91L1192.02 1135.84L1205.36 1248.51L1211.11 1297L1243.2 1263.61L1383.51 1117.41L1247.05 1206.16L1240.06 1147.28L1364.89 1091.33L1377.37 1085.71L1378.48 1071.99L1392.01 902.33L1396.39 846.909L1353.91 882.788L1123.53 1077.41L1113.93 1085.52L1115.56 1098.07L1144.32 1322.49L1157.58 1322.49L1186.27 1284.98Z" fill="#1C3541" fill-opacity="0.22"/>
<path d="M1465.01 1225.96L1513.63 1278.31L1503.63 1042.25L1216.66 1322.49L1308.16 1322.49L1377.11 1292.69L1439.65 1221.39L1355.87 1251.32L1461.74 1148L1465.01 1225.96Z" fill="#1C3541" fill-opacity="0.22"/>
<path d="M-74.8062 1322.49L17.8011 1322.49L12.1805 1319.68L70.4114 1280.27L104.134 1302.3L101.455 1322.49L148.248 1322.49L154 1279.42L69.9539 1224.66L-74.8062 1322.49Z" fill="#1C3541" fill-opacity="0.22"/>
<path d="M135.572 1179.17L65.577 1131.85L-114.997 1269.43L-114.997 1298.51L-100.946 1317L67.2108 1188.91L140.473 1238.45L191.515 1190.08L383.199 1322.49L464.827 1322.49L186.875 1130.61L135.572 1179.17Z" fill="#1C3541" fill-opacity="0.22"/>
<path d="M172.953 1322.49L219.617 1322.49L222.231 1298.44L258.829 1322.49L343.202 1322.49L184.325 1218.06L172.953 1322.49Z" fill="#1C3541" fill-opacity="0.22"/>
<path d="M1403.64 1322.49L1409.46 1322.49L1426.38 1311.32L1403.64 1322.49Z" fill="#1C3541" fill-opacity="0.22"/>
<path d="M1474.81 1270.99L1464.68 1322.49L1509.84 1322.49L1474.81 1270.99Z" fill="#1C3541" fill-opacity="0.22"/>
<path d="M-114.999 1219.04L31.6563 1119.63L-114.999 975.982L-114.999 1040.88L-41.2794 1113.03L-114.999 1163.03L-114.999 1219.04Z" fill="#1C3541" fill-opacity="0.22"/>
<path d="M1590.23 900.5L1590.23 846.19L1551.02 883.769L1467.17 964.155L1504.35 704.306L1514.16 635.879L1465.79 683.915L1091.97 1055.39L1449.91 757.373L1411.75 1024.15L1402.27 1090.68L1450.76 1044.15L1543.89 954.874L1543.89 1322.49L1590.23 1322.49L1590.23 900.5Z" fill="#1C3541" fill-opacity="0.22"/>
<path d="M2034.44 1219.03L2034.44 1163.03L1799.3 1322.49L1881.84 1322.49L2034.44 1219.03Z" fill="#1C3541" fill-opacity="0.22"/>
<path d="M244.516 447.266L171.842 366.357L309.152 410.602L139.034 329.824L-65.46 102.195L-25.9858 73.8308L-60.8851 28.6708L-114.998 3.64016L-114.998 34.5527L-92.0592 64.2239L-114.998 80.693L-114.998 116.377L174.26 438.378L113.284 478.963L4.53469 332.831L-68.6623 312.179L102.37 541.899L244.516 447.266Z" fill="#1C3541" fill-opacity="0.22"/>
<path d="M-115 546.67L-115 597.059L63.6795 520.921L-115 339.366L-115 405.439L-17.0987 504.974L-115 546.67Z" fill="#1C3541" fill-opacity="0.22"/>
<path d="M238.895 540.526L406.594 801.748L480.183 739.465L457.374 660.582L431.886 572.485L488.941 326.098L294.25 255.777L337.841 320.805L434.5 355.704L413.587 446.155L325.032 522.423L395.876 522.619L384.047 573.726L427.311 723.453L417.051 732.146L252.031 475.172L148.183 546.8L222.556 551.833L238.895 540.526Z" fill="#1C3541" fill-opacity="0.22"/>
</svg>
