<svg width="80" height="80" viewBox="0 0 80 80" fill="none" xmlns="http://www.w3.org/2000/svg">
<path fill-rule="evenodd" clip-rule="evenodd" d="M69.2847 28.9754C69.3481 28.9789 69.4116 28.9805 69.4746 28.9805C70.3702 28.9805 71.244 28.6282 71.8976 27.9974C72.5978 27.3216 73 26.3703 73 25.3877V20.593C73 19.6099 72.5978 18.6587 71.8976 17.9829C71.1979 17.3081 70.2452 16.9518 69.2847 17.0054C62.7481 17.3698 59.3913 19.1571 58.2998 19.8657H44.0177H47.9901H22.7235C21.632 19.1571 18.2747 17.3698 11.7381 17.0054C10.7776 16.9513 9.82494 17.3081 9.12521 17.9829C8.42499 18.6592 8.02331 19.6099 8.02331 20.593V25.3877C8.02331 26.3703 8.42499 27.3216 9.12521 27.9974C9.77882 28.6282 10.6526 28.9805 11.5482 28.9805C11.6112 28.9805 11.6747 28.9789 11.7377 28.9754C18.2747 28.6105 21.632 26.8232 22.723 26.1146H23.0101C22.8152 26.6038 22.7096 27.1325 22.7096 27.6769C22.7096 28.381 22.8891 29.0805 23.2293 29.7007L30.6401 43.1972V51.617C29.8154 52.1952 29.0567 52.8806 28.3798 53.6671C26.9888 55.282 26.0475 57.1936 25.6087 59.2629C24.1056 59.0228 22.5142 59.4909 21.3582 60.6691L21.3359 60.6923C20.8847 61.1518 20.2856 61.4045 19.6484 61.4045H19.6449C19.0057 61.4035 18.4061 61.1488 17.9558 60.6873C17.026 59.734 15.7882 59.2083 14.4701 59.2063H14.4622C13.1465 59.2063 11.9102 59.7284 10.9784 60.6782L10.9571 60.6999C10.5063 61.1594 9.90676 61.4121 9.26952 61.4121C8.56831 61.4121 8 61.9918 8 62.706C8 63.4208 8.56831 64 9.26952 64C10.5852 64 11.822 63.4779 12.7538 62.5286L12.7751 62.5064C13.2259 62.0469 13.8249 61.7942 14.4622 61.7942H14.4661C15.1049 61.7952 15.7044 62.05 16.1547 62.5115C17.0845 63.4647 18.3223 63.9904 19.6409 63.9924H19.6484C20.964 63.9924 22.2003 63.4703 23.1311 62.5221L23.1534 62.4988C23.9603 61.6765 25.205 61.5683 26.1284 62.1718C26.3345 62.3061 26.5141 62.4759 26.694 62.6459C26.8417 62.7856 26.9896 62.9254 27.1524 63.0457C27.9875 63.6649 28.9893 64 30.0416 64C31.1792 64 32.2573 63.6088 33.1296 62.8905C33.2393 62.8005 33.342 62.7027 33.4446 62.605C33.6092 62.4483 33.7735 62.2919 33.9657 62.1683C34.3421 61.9256 34.778 61.7942 35.2347 61.7942H35.2382C35.5094 61.7942 35.7723 61.8432 36.0207 61.9312C36.3579 62.051 36.6679 62.2461 36.9272 62.512C37.2615 62.8547 37.6359 63.1407 38.0391 63.3682C38.0447 63.3714 38.0503 63.3746 38.0559 63.3779L38.0656 63.3836C38.0744 63.3888 38.0832 63.394 38.0921 63.399C38.0983 63.4023 38.1044 63.4055 38.1106 63.4086C38.1173 63.412 38.124 63.4154 38.1307 63.4188C38.1428 63.4249 38.155 63.4311 38.167 63.4374C38.2136 63.4622 38.2602 63.487 38.3078 63.5102C38.3093 63.5107 38.3113 63.5117 38.3128 63.5122C38.961 63.8256 39.6746 63.9914 40.4135 63.9924H40.4209C41.7365 63.9924 42.9728 63.4703 43.9037 62.5221C44.8513 61.5516 46.3862 61.5668 47.3309 62.5302C48.2914 63.5087 49.553 63.9985 50.8141 63.9985C52.0757 63.9985 53.3373 63.5087 54.2979 62.5302C54.4818 62.3406 54.6931 62.1773 54.9277 62.0581C55.2584 61.8862 55.6254 61.7942 56.0073 61.7942H56.0107C56.6495 61.7947 57.2495 62.05 57.6998 62.5115C58.6291 63.4642 59.8674 63.9904 61.1855 63.9924H61.193C62.5086 63.9924 63.7454 63.4703 64.6757 62.5216L64.6985 62.4988C65.1493 62.0394 65.7484 61.7861 66.3861 61.7861C67.0233 61.7861 67.6229 62.0394 68.0732 62.4988L68.1034 62.5296C69.0714 63.5163 70.4124 64.05 71.7796 63.996C72.4803 63.9682 73.0263 63.3667 72.9985 62.6525C72.9712 61.9383 72.3801 61.3823 71.6804 61.4101C71.0079 61.4359 70.3747 61.1846 69.8991 60.6994L69.8688 60.6686C68.9385 59.7204 67.7017 59.1982 66.3856 59.1982C65.07 59.1982 63.8332 59.7204 62.9028 60.6686L62.88 60.6918C62.4293 61.1513 61.8302 61.404 61.1925 61.404H61.189C60.5503 61.403 59.9507 61.1483 59.5004 60.6868C58.5706 59.7335 57.3328 59.2078 56.0147 59.2058H56.0068C55.8059 59.2058 55.6066 59.2195 55.4102 59.2437C54.9664 57.1663 54.0152 55.2492 52.6143 53.6337C51.9443 52.8609 51.1955 52.1866 50.3822 51.6165V43.1972L57.793 29.7012C58.4134 28.5726 58.4531 27.2498 58.0038 26.1146H58.2993C59.3913 26.8237 62.7486 28.6105 69.2847 28.9754ZM47.9901 22.4536H44.0177H57.4231V23.5267H23.5997V22.4536H47.9901ZM69.424 19.5892C69.6953 19.5741 69.9536 19.6711 70.152 19.8622C70.3509 20.0542 70.461 20.314 70.461 20.593V25.3877C70.461 25.6667 70.3509 25.926 70.152 26.1181C69.9536 26.3097 69.6948 26.4057 69.424 26.391C63.9566 26.0863 61.0263 24.7286 59.9621 24.1155V21.8632C61.0248 21.2501 63.9487 19.895 69.424 19.5892ZM40.5117 34.8998C38.7884 34.8998 37.386 33.4709 37.386 31.7144C37.386 29.958 38.7879 28.5291 40.5117 28.5291C42.2349 28.5291 43.6369 29.958 43.6369 31.7144C43.6369 33.4709 42.2349 34.8998 40.5117 34.8998ZM11.5993 26.391C11.3265 26.4057 11.0692 26.3092 10.8713 26.1181C10.6719 25.926 10.5624 25.6667 10.5624 25.3877V20.593C10.5624 20.3135 10.6719 20.0542 10.8713 19.8622C11.0558 19.6842 11.2928 19.5877 11.5442 19.5877C11.5626 19.5877 11.5809 19.5882 11.5993 19.5892C17.0662 19.8945 19.9965 21.2521 21.0607 21.8648V24.117C19.9985 24.7306 17.0741 26.0858 11.5993 26.391ZM39.1335 26.1146C36.6738 26.7439 34.8469 29.0153 34.8469 31.7144C34.8469 32.8689 35.1826 33.945 35.7579 34.8482C35.4554 34.7567 35.194 34.5495 35.0368 34.2614L30.5861 26.1146H39.1335ZM55.5783 28.4361L55.5779 28.4363L55.5778 28.4366L48.0053 42.2278C47.8992 42.4209 47.8436 42.6387 47.8436 42.8596V50.2604C47.2406 50.0269 46.6158 49.8414 45.9726 49.7059L45.8918 49.6897C45.8852 49.6884 45.8786 49.6871 45.8721 49.6858C45.8674 49.6848 45.8628 49.6839 45.8582 49.683C45.8449 49.6803 45.8318 49.6776 45.8189 49.6746C45.8109 49.673 45.803 49.6715 45.795 49.6695C43.0339 49.125 41.314 47.8227 41.286 47.8016L41.2858 47.8014C41.2805 47.7971 41.275 47.7932 41.2694 47.7893C41.2649 47.7862 41.2604 47.783 41.256 47.7796C41.2457 47.772 41.2353 47.7644 41.2247 47.7569C41.2185 47.7525 41.2122 47.7481 41.2059 47.7437C41.197 47.7376 41.1879 47.7321 41.1788 47.7265L41.1787 47.7264C41.1767 47.7252 41.1747 47.724 41.1727 47.7228C41.1696 47.7209 41.1664 47.719 41.1633 47.717C41.1564 47.7129 41.1496 47.7087 41.1428 47.7046C41.1311 47.6974 41.1195 47.6903 41.1072 47.6836C40.6738 47.4481 40.1258 47.4956 39.737 47.8014C39.7202 47.8145 37.9939 49.1236 35.2283 49.6695L35.2245 49.6704C35.2174 49.672 35.2106 49.6733 35.2035 49.6746C35.1964 49.6762 35.1893 49.6778 35.1821 49.6793C35.1727 49.6813 35.1633 49.6832 35.1538 49.6851C35.1463 49.6866 35.1387 49.6881 35.1311 49.6897L35.0473 49.7064C35.0289 49.7103 35.0108 49.7147 34.9928 49.7191C34.9758 49.7233 34.9587 49.7275 34.9416 49.7312C34.3366 49.8641 33.748 50.04 33.1797 50.2604V42.8596C33.1797 42.6387 33.1236 42.4209 33.018 42.2278L25.446 28.4376C25.3171 28.2031 25.2491 27.9403 25.2491 27.6769C25.2491 27.1568 25.502 26.6726 25.9251 26.382C26.2851 26.1348 26.7155 26.0554 27.137 26.1585C27.5586 26.2611 27.9072 26.5306 28.118 26.9157L32.8182 35.5195C33.4812 36.7341 34.7403 37.4882 36.104 37.4882H44.9188C46.283 37.4882 47.5421 36.7341 48.2047 35.52L52.9049 26.9162C53.1161 26.5306 53.4642 26.2611 53.8858 26.1585C54.3078 26.0549 54.7382 26.1348 55.0973 26.3814C55.7529 26.8318 55.9641 27.7345 55.5783 28.4361ZM45.986 34.2619C45.8288 34.55 45.5674 34.7567 45.2649 34.8477C45.8402 33.945 46.1759 32.8689 46.1759 31.7144C46.1759 29.0153 44.349 26.7439 41.8898 26.1146H50.4367L45.986 34.2619ZM36.9763 59.5288C37.6265 59.779 38.223 60.1697 38.7279 60.6873C38.8833 60.8461 39.0559 60.9803 39.2421 61.0883V58.1475V51.0509C39.0775 51.1282 38.9029 51.2066 38.7204 51.2839C37.8923 51.6362 36.8846 51.9779 35.7222 52.2084C35.3027 52.2978 34.8881 52.3994 34.4809 52.5374C31.1003 53.6883 28.5633 56.7256 27.9895 60.3582C28.0862 60.4402 28.1779 60.5262 28.269 60.6116C28.4779 60.8074 28.6842 61.0009 28.9431 61.1392C29.6969 61.5369 30.6158 61.4975 31.3369 61.0224C31.3433 61.0184 31.3503 61.0148 31.3567 61.0103C31.4088 60.9754 31.4594 60.936 31.5095 60.896C31.5228 60.8854 31.5367 60.8763 31.5501 60.8652C31.6081 60.8167 31.6647 60.7646 31.7192 60.7095C31.7206 60.7081 31.7221 60.7068 31.7235 60.7055C31.7255 60.7037 31.7274 60.702 31.7291 60.6999L31.752 60.6772C32.6828 59.7284 33.9191 59.2063 35.2347 59.2063H35.2426C35.8447 59.2073 36.4293 59.3185 36.9763 59.5288ZM52.6367 60.5772C52.4751 60.7325 52.3135 60.8877 52.1278 61.0108C51.2019 61.6335 49.9408 61.5294 49.1265 60.6994L49.1117 60.6842C49.1084 60.6806 49.1051 60.6771 49.1018 60.6737C49.1002 60.672 49.0985 60.6703 49.0968 60.6686C48.9361 60.5053 48.767 60.3572 48.5915 60.2213C46.9912 58.9809 44.8112 58.8717 43.1097 59.8952C42.7596 60.1055 42.4303 60.3633 42.1303 60.6691L42.1075 60.6923C42.0059 60.7959 41.8967 60.889 41.7812 60.971V58.1475V51.0509C42.5141 51.3961 43.4271 51.753 44.4948 52.0259C44.7402 52.0885 44.9874 52.1407 45.2348 52.1929C45.3113 52.2091 45.3878 52.2253 45.4643 52.2417C46.4898 52.4586 47.4643 52.8402 48.3604 53.376C48.3713 53.382 48.3827 53.3866 48.3936 53.3926C49.2525 53.9097 50.0336 54.5653 50.712 55.3477C51.922 56.7428 52.7095 58.4209 53.0145 60.2384C52.8815 60.3421 52.7591 60.4597 52.6367 60.5772Z" fill="#F4F4F4"/>
</svg>
