<svg width="80" height="80" viewBox="0 0 80 80" fill="none" xmlns="http://www.w3.org/2000/svg">
<g clip-path="url(#clip0)">
<path fill-rule="evenodd" clip-rule="evenodd" d="M17.8715 10.73C18.4288 10.1727 19.3324 10.1727 19.8898 10.73L27.6809 18.5212C27.8826 18.7229 28.0193 18.9804 28.0732 19.2606L29.2249 25.2448L32.9904 29.0103C42.7945 19.9857 54.3671 14.3964 65.7713 12.4774C66.7376 12.3148 67.5753 13.1525 67.4127 14.1187C65.4936 25.523 59.9044 37.0957 50.8799 46.8998L54.6454 50.6653L60.6296 51.817C60.9097 51.8709 61.1673 52.0076 61.369 52.2093L69.1604 60.0005C69.7177 60.5578 69.7177 61.4614 69.1604 62.0188L61.7943 69.3848C61.237 69.9421 60.3334 69.9421 59.7761 69.3848L51.985 61.5937C51.7833 61.392 51.6466 61.1344 51.5927 60.8543L50.4409 54.87L46.6754 51.1045C36.8712 60.1292 25.2985 65.7184 13.8943 67.6375C12.928 67.8001 12.0903 66.9624 12.2529 65.9961C14.172 54.5919 19.7614 43.0193 28.7859 33.2152L25.0204 29.4497L19.0361 28.2978C18.756 28.2439 18.4985 28.1073 18.2967 27.9056L10.5055 20.1144C9.94817 19.5571 9.94816 18.6535 10.5055 18.0962L17.8715 10.73ZM12.8601 19.1053L18.8807 13.0846L25.7927 19.9967L26.9444 25.9809C26.9983 26.261 27.1349 26.5186 27.3367 26.7203L31.9579 31.3415C32.5082 31.8919 33.3906 31.8959 33.9482 31.3692C43.1845 22.6446 54.0771 17.1557 64.8237 15.0663C62.7344 25.813 57.2455 36.7057 48.5209 45.942C47.9943 46.4996 47.9983 47.3819 48.5487 47.9323L53.1699 52.5535C53.3716 52.7552 53.6291 52.8919 53.9093 52.9458L59.8935 54.0975L66.8058 61.0097L60.7852 67.0302L53.8732 60.1182L52.7213 54.1339C52.6674 53.8538 52.5308 53.5962 52.3291 53.3945L47.7079 48.7733C47.1575 48.223 46.2752 48.2189 45.7176 48.7456C36.4811 57.4703 25.5885 62.9591 14.8419 65.0485C16.9313 54.3019 22.4203 43.4093 31.1448 34.1729C31.6715 33.6154 31.6674 32.733 31.1171 32.1827L26.4959 27.5614C26.2942 27.3597 26.0366 27.2231 25.7565 27.1692L19.7722 26.0174L12.8601 19.1053ZM38.6006 31.4777C39.9094 30.1689 41.6556 29.4455 43.5066 29.4455C45.3577 29.4455 47.1038 30.1687 48.4127 31.4777C49.7214 32.7866 50.4448 34.5327 50.4448 36.3837C50.4448 38.2347 49.7214 39.9808 48.4127 41.2897L46.1684 43.5339C45.6111 44.0913 44.7075 44.0913 44.1502 43.5339L41.9638 41.3476C41.4065 40.7902 41.4065 39.8866 41.9638 39.3293L44.208 37.0851C44.3969 36.8962 44.4985 36.6509 44.4985 36.3837C44.4985 36.1165 44.3969 35.8712 44.208 35.6823C44.0191 35.4934 43.7738 35.3917 43.5066 35.3917C43.2396 35.3917 42.9943 35.4933 42.8052 35.6823L42.8051 35.6824L40.561 37.9265C40.0037 38.4838 39.1001 38.4838 38.5427 37.9265L36.3564 35.7401C35.799 35.1828 35.799 34.2792 36.3564 33.7219L38.6006 31.4777ZM40.2824 33.1595C41.1452 32.2968 42.2865 31.824 43.5066 31.824C44.7269 31.824 45.868 32.2967 46.7307 33.1595C47.5936 34.0224 48.0663 35.1636 48.0663 36.3837C48.0663 37.6038 47.5935 38.745 46.7307 39.6079L45.1593 41.1793L44.3184 40.3384L45.8899 38.767C46.5248 38.132 46.877 37.2817 46.877 36.3837C46.877 35.4857 46.5248 34.6354 45.8899 34.0004C45.2549 33.3655 44.4046 33.0132 43.5066 33.0132C42.6086 33.0132 41.7584 33.3655 41.1234 34.0003L41.1233 34.0004L39.5519 35.5719L38.711 34.731L40.2824 33.1595ZM31.2529 38.825C29.9441 40.1338 29.2207 41.8801 29.2207 43.7311C29.2207 45.5821 29.944 47.3283 31.253 48.6371C32.5618 49.9459 34.3079 50.6693 36.159 50.6693C38.01 50.6693 39.7561 49.9459 41.0649 48.6371L43.3092 46.3929C43.8665 45.8356 43.8665 44.932 43.3092 44.3746L41.1228 42.1883C40.5655 41.6309 39.6619 41.6309 39.1046 42.1883L36.8604 44.4325C36.6714 44.6214 36.4261 44.723 36.159 44.723C35.8918 44.723 35.6465 44.6214 35.4575 44.4325C35.2686 44.2435 35.167 43.9982 35.167 43.7311C35.167 43.4641 35.2685 43.2188 35.4575 43.0296L35.4577 43.0295L37.7018 40.7854C38.2591 40.2281 38.2591 39.3245 37.7018 38.7672L35.5154 36.5808C34.958 36.0235 34.0545 36.0235 33.4971 36.5808L31.2529 38.825ZM32.9348 40.5069C32.072 41.3697 31.5992 42.5109 31.5992 43.7311C31.5992 44.9513 32.0719 46.0925 32.9347 46.9552C33.7977 47.818 34.9389 48.2908 36.159 48.2908C37.379 48.2908 38.5202 47.818 39.3832 46.9552L40.9546 45.3838L40.1137 44.5429L38.5422 46.1143C37.9072 46.7493 37.057 47.1015 36.159 47.1015C35.2609 47.1015 34.4107 46.7493 33.7757 46.1143C33.1407 45.4794 32.7885 44.6291 32.7885 43.7311C32.7885 42.8331 33.1408 41.9829 33.7756 41.3479L33.7757 41.3478L35.3472 39.7763L34.5063 38.9354L32.9348 40.5069Z" fill="#F4F4F4"/>
</g>
<defs>
<clipPath id="clip0">
<rect width="80" height="80" rx="40" fill="white"/>
</clipPath>
</defs>
</svg>
