<svg width="80" height="80" viewBox="0 0 80 80" fill="none" xmlns="http://www.w3.org/2000/svg">
<path d="M45.0786 43.1018C44.9751 43.0673 44.881 43.0091 44.8038 42.9319L42.869 40.9972C42.5944 40.7226 42.5944 40.2774 42.869 40.0028L56.9689 25.9031C57.1794 25.6925 57.498 25.6434 57.7807 25.7368C59.1587 26.1919 60.7401 25.8757 61.8388 24.7769C63.3871 23.2286 63.3871 20.7095 61.8388 19.1612C60.2906 17.6129 57.7713 17.6129 56.2231 19.1612C55.1272 20.2571 54.8076 21.8392 55.2633 23.2193C55.3566 23.502 55.3075 23.8207 55.097 24.0312L40.9972 38.131C40.7226 38.4056 40.2775 38.4056 40.0029 38.131L25.903 24.0313C25.6925 23.8207 25.6434 23.5021 25.7367 23.2194C26.1924 21.8393 25.8728 20.2572 24.7769 19.1612C23.2287 17.613 20.7094 17.613 19.1612 19.1612C17.6129 20.7096 17.6129 23.2287 19.1612 24.777C20.2603 25.8761 21.8417 26.1919 23.2193 25.7369C23.502 25.6435 23.8206 25.6926 24.0312 25.9032L38.1309 40.0029C38.4055 40.2775 38.4055 40.7227 38.1309 40.9973L36.1961 42.932C36.1189 43.0092 36.0248 43.0674 35.9213 43.1019L27.8127 45.8047C27.7091 45.8392 27.615 45.8974 27.5378 45.9746L18.572 54.9404C18.2974 55.215 18.2974 55.6602 18.572 55.9348L25.0653 62.4281C25.3398 62.7026 25.785 62.7026 26.0596 62.4281L35.0256 53.4622C35.1027 53.385 35.1609 53.2909 35.1954 53.1874L37.8982 45.0788C37.9327 44.9752 37.9909 44.8811 38.0681 44.8039L40.0029 42.8691C40.2775 42.5946 40.7226 42.5946 40.9972 42.8691L42.932 44.8039C43.0092 44.8811 43.0673 44.9752 43.1019 45.0788L45.8047 53.1874C45.8392 53.2909 45.8974 53.385 45.9745 53.4622L54.9405 62.4281C55.2151 62.7026 55.6603 62.7026 55.9348 62.4281L62.4281 55.9348C62.7027 55.6602 62.7027 55.215 62.4281 54.9404L53.4621 45.9745C53.3849 45.8974 53.2908 45.8392 53.1873 45.8047L45.0786 43.1018ZM58.095 21.0331C58.6112 20.517 59.4507 20.517 59.9669 21.0331C60.483 21.5492 60.483 22.3889 59.9669 22.905C59.4496 23.4223 58.6123 23.4223 58.095 22.905C57.579 22.389 57.579 21.5492 58.095 21.0331ZM21.0331 22.905C20.517 22.3889 20.517 21.5492 21.0331 21.0331C21.5493 20.517 22.3888 20.517 22.905 21.0331C23.4211 21.5492 23.4211 22.3889 22.905 22.905C22.3877 23.4224 21.5505 23.4224 21.0331 22.905ZM32.8816 51.7573C32.8471 51.8609 32.7889 51.955 32.7117 52.0321L26.0595 58.6843C25.7849 58.9589 25.3397 58.9589 25.0652 58.6843L22.3157 55.9348C22.0411 55.6602 22.0411 55.215 22.3157 54.9404L28.9679 48.2883C29.0451 48.2111 29.1392 48.1529 29.2427 48.1184L33.3669 46.7437C33.9166 46.5605 34.4395 47.0834 34.2563 47.6331L32.8816 51.7573ZM46.7438 47.6332C46.5605 47.0835 47.0835 46.5606 47.6332 46.7438L51.7574 48.1185C51.8609 48.153 51.955 48.2112 52.0322 48.2884L54.9167 51.1728C55.1912 51.4474 55.1912 51.8926 54.9167 52.1672L52.1672 54.9167C51.8926 55.1913 51.4474 55.1913 51.1728 54.9167L48.2883 52.0322C48.2112 51.955 48.153 51.8609 48.1185 51.7574L46.7438 47.6332ZM55.9348 58.6843C55.6603 58.9589 55.2151 58.9589 54.9405 58.6843L54.0391 57.7829C53.7645 57.5083 53.7645 57.0631 54.0391 56.7885L56.7886 54.039C57.0631 53.7645 57.5083 53.7645 57.7829 54.039L58.6843 54.9404C58.9589 55.215 58.9589 55.6602 58.6843 55.9348L55.9348 58.6843Z" fill="#F4F4F4"/>
</svg>
