<svg width="40" height="38" viewBox="0 0 40 38" fill="none" xmlns="http://www.w3.org/2000/svg">
<path fill-rule="evenodd" clip-rule="evenodd" d="M6.62138 11.6266C8.4468 7.90272 11.0738 4.02546 15.1426 3.22263C19.0913 2.44351 22.5731 5.43588 25.799 7.84265C28.5349 9.88388 30.6485 12.44 31.8026 15.6524C33.0867 19.2263 34.4288 23.2963 32.5335 26.587C30.6373 29.8794 26.4388 30.742 22.7055 31.4478C19.3195 32.088 15.8914 31.8868 12.8258 30.313C9.58557 28.6495 6.75702 26.1276 5.60931 22.6709C4.39829 19.0236 4.92983 15.0775 6.62138 11.6266Z" fill="#C3ECA6"/>
<path d="M24.9282 20.4059L20.5626 18.7688C20.4387 18.7224 20.3028 18.7224 20.1795 18.7688L15.8139 20.4059C15.6011 20.4861 15.4597 20.6897 15.4597 20.9172C15.4597 23.1382 16.5206 25.2599 18.2974 26.5925L20.0436 27.9022C20.1408 27.9748 20.2559 28.0114 20.371 28.0114C20.4862 28.0114 20.6013 27.9748 20.6985 27.9022L22.4447 26.5925C24.2215 25.2599 25.2824 23.1382 25.2824 20.9172C25.2824 20.6897 25.141 20.4861 24.9282 20.4059ZM21.7899 25.7194L20.371 26.7835L18.9522 25.7194C17.5487 24.6668 16.6734 23.0324 16.5631 21.291L20.371 19.8629L24.1795 21.291C24.0687 23.0324 23.1934 24.6668 21.7899 25.7194Z" fill="#EE422B"/>
<path d="M32.9179 15.1525C32.9479 14.2526 32.8066 13.3659 32.4955 12.5097C31.611 10.0747 29.4936 8.31265 26.9692 7.91101C25.5138 7.68072 24.0781 7.88809 22.7777 8.5151C21.8472 5.65562 19.0407 3.75766 15.9727 4.02506C13.6169 4.22806 11.475 5.81769 10.5162 8.07472C10.0158 9.25289 9.88214 10.4742 10.1168 11.7146C6.63793 12.1926 4 15.1618 4 18.7891C4.02019 21.4674 6.27613 23.6458 9.02975 23.6458H13.9405C14.6887 25.7511 16.0409 27.6289 17.8609 28.9937L20.0437 30.6308C20.1408 30.7034 20.256 30.74 20.3711 30.74C20.4862 30.74 20.6014 30.7034 20.6985 30.6308L22.8813 28.9937C24.7013 27.6289 26.0535 25.7511 26.8017 23.6458H32.3766C34.7837 23.6458 36.7422 21.6873 36.7422 19.2802C36.7422 16.5822 34.788 15.6278 32.9179 15.1525ZM22.2265 28.1206L20.3711 29.5121L18.5157 28.1206C16.7133 26.7683 15.4183 24.8595 14.7929 22.7334C14.7575 22.6117 14.722 22.49 14.6909 22.3678C14.6685 22.2805 14.6483 22.1926 14.6287 22.1048C14.5997 21.9771 14.573 21.8494 14.549 21.7211C14.5332 21.6371 14.5179 21.5531 14.5037 21.469C14.4808 21.3282 14.4622 21.1863 14.4453 21.045C14.4366 20.9735 14.4262 20.902 14.4191 20.83C14.3978 20.6161 14.382 20.4022 14.3744 20.1872L20.3711 17.6884L26.3662 20.1861C26.364 20.2434 26.3597 20.3001 26.3564 20.3569C26.352 20.4431 26.3466 20.5293 26.34 20.615L26.3291 20.7383C26.3215 20.8267 26.3116 20.9162 26.3013 21.0084C26.2985 21.0319 26.2958 21.0559 26.2925 21.0794C26.2816 21.1694 26.2696 21.2616 26.2549 21.3648L26.2445 21.4352C26.2407 21.4597 26.2352 21.4837 26.2314 21.5083C26.1981 21.7108 26.1572 21.9121 26.1119 22.1119C26.0966 22.1779 26.0813 22.2445 26.065 22.3099C26.0273 22.4616 25.9853 22.6117 25.9411 22.7607C25.3125 24.8764 24.0213 26.7743 22.2265 28.1206ZM32.3766 22.5544H27.1324C27.1351 22.543 27.1367 22.531 27.1395 22.5189C27.2071 22.2417 27.2628 21.9607 27.3092 21.678C27.3114 21.6638 27.3152 21.6507 27.3174 21.6365L27.3403 21.4799C27.343 21.4603 27.3447 21.4406 27.3474 21.421C27.3736 21.2376 27.3949 21.0537 27.4118 20.8693C27.4129 20.8573 27.415 20.8458 27.4161 20.8338L27.4341 20.6314C27.4347 20.6259 27.4341 20.621 27.4347 20.6155C27.4532 20.3536 27.4653 20.09 27.4653 19.8259C27.4653 19.6054 27.3326 19.4068 27.1296 19.3222L20.5812 16.5937C20.447 16.5375 20.2958 16.5375 20.161 16.5937L13.6126 19.3222C13.4096 19.4068 13.277 19.6054 13.277 19.8259C13.277 20.0524 13.2841 20.2788 13.2977 20.5037C13.3032 20.5953 13.3146 20.6859 13.3223 20.7776C13.3337 20.9108 13.343 21.0439 13.3588 21.1765C13.3725 21.2911 13.3926 21.4046 13.4096 21.5187C13.4259 21.6262 13.4396 21.7348 13.4587 21.8417C13.4821 21.9727 13.5122 22.1026 13.54 22.2325C13.5591 22.3203 13.5755 22.4087 13.5967 22.4955C13.6017 22.5151 13.6044 22.5348 13.6093 22.5544H9.02975C6.87422 22.5544 5.10723 20.8616 5.09141 18.7345C5.09141 15.523 7.60655 12.8927 10.818 12.7465C10.985 12.7388 11.1394 12.6554 11.2371 12.5189C11.3343 12.383 11.3643 12.2101 11.3173 12.0496C10.9621 10.8212 11.0287 9.66108 11.5209 8.50201C12.3236 6.61224 14.1075 5.28181 16.0666 5.11264C18.8262 4.87362 21.3348 6.73393 21.8947 9.43625C21.9307 9.61033 22.0486 9.75549 22.2118 9.82643C22.3749 9.89682 22.5616 9.88427 22.7133 9.79205C23.9493 9.03898 25.3616 8.76122 26.7984 8.98932C28.8988 9.32329 30.7329 10.8513 31.4707 12.8824C31.7807 13.7353 31.8915 14.6237 31.8009 15.523C31.773 15.7986 31.9564 16.0513 32.2265 16.1108C34.6904 16.6526 35.6508 17.541 35.6508 19.2802C35.6508 21.0859 34.1823 22.5544 32.3766 22.5544Z" fill="#121E52"/>
<path d="M10.6946 26.8341C10.4137 26.9427 10.2727 27.2591 10.3952 27.5343C10.4021 27.5497 10.4089 27.565 10.4159 27.5804C10.5398 27.8553 10.8702 27.9608 11.1385 27.8232L11.1665 27.8088C11.419 27.6792 11.5174 27.3701 11.4013 27.1113C11.2851 26.8523 10.9887 26.7203 10.724 26.8227L10.6946 26.8341Z" fill="#121E52"/>
<path d="M28.3186 28.8742C28.1514 29.1038 28.1842 29.4268 28.4049 29.6057L28.4294 29.6256C28.6636 29.8155 29.0085 29.7804 29.1865 29.537C29.1966 29.5233 29.2066 29.5095 29.2166 29.4957C29.3934 29.2516 29.3206 28.9129 29.0681 28.7485L29.0415 28.7312C28.8035 28.5763 28.4858 28.6446 28.3186 28.8742Z" fill="#121E52"/>
<path d="M26.0035 31.7686C25.8488 31.5308 25.5305 31.4651 25.285 31.6073C25.0394 31.7496 24.9391 32.0576 25.0681 32.3104L25.0825 32.3386C25.2195 32.607 25.5488 32.7146 25.81 32.5644C25.8245 32.556 25.8391 32.5476 25.8536 32.5392C26.1143 32.3876 26.1854 32.0481 26.021 31.7954L26.0035 31.7686Z" fill="#121E52"/>
<path d="M11.6827 28.7606C11.4302 28.9255 11.3582 29.2647 11.5354 29.5086C11.5452 29.5221 11.5551 29.5356 11.5649 29.549C11.7432 29.792 12.088 29.8267 12.3218 29.6366L12.3463 29.6167C12.5667 29.4375 12.5988 29.1142 12.4315 28.8847C12.2643 28.6554 11.9471 28.5879 11.7096 28.743L11.6827 28.7606Z" fill="#121E52"/>
<path d="M13.8758 31.1418C14.0544 30.921 14.0189 30.598 13.8077 30.4083C13.5965 30.2184 13.272 30.2181 13.0715 30.4192L13.0494 30.4413C12.8366 30.6547 12.8363 31.0013 13.0601 31.2031C13.0726 31.2145 13.0852 31.2258 13.0978 31.237C13.3224 31.4377 13.6666 31.4004 13.8561 31.1662L13.8758 31.1418Z" fill="#121E52"/>
<path d="M23.4135 32.4426C23.1436 32.5303 22.9801 32.811 23.0535 33.0853L23.0617 33.1157C23.1396 33.407 23.4394 33.5812 23.7264 33.4888C23.7425 33.4836 23.7585 33.4783 23.7746 33.4731C24.0614 33.3793 24.2013 33.0618 24.0928 32.7802L24.0814 32.7504C23.9794 32.4858 23.6832 32.355 23.4135 32.4426Z" fill="#121E52"/>
<path d="M26.9442 30.3994C26.7331 30.5894 26.6988 30.9117 26.8775 31.1324L26.8973 31.1569C27.0871 31.3913 27.4319 31.4283 27.6565 31.227C27.6689 31.2158 27.6814 31.2046 27.6938 31.1934C27.9174 30.9909 27.9164 30.644 27.703 30.4308L27.6806 30.4085C27.4799 30.2081 27.155 30.2097 26.9442 30.3994Z" fill="#121E52"/>
<path d="M19.3519 32.8707C19.0695 32.8416 18.8072 33.0323 18.7635 33.3129L18.7586 33.344C18.7122 33.642 18.9163 33.9226 19.2162 33.9542C19.2328 33.9559 19.2494 33.9576 19.2659 33.9593C19.5657 33.9894 19.8219 33.7563 19.8372 33.4554L19.8388 33.4235C19.8531 33.14 19.6343 32.8998 19.3519 32.8707Z" fill="#121E52"/>
<path d="M15.4706 31.615C15.2244 31.4729 14.9054 31.5392 14.7508 31.7777L14.7339 31.8038C14.57 32.0567 14.6417 32.396 14.9025 32.5471C14.9171 32.5556 14.9318 32.5641 14.9464 32.5725C15.2079 32.7225 15.5372 32.6144 15.6739 32.3458L15.6882 32.3178C15.817 32.0648 15.7166 31.7569 15.4706 31.615Z" fill="#121E52"/>
<path d="M17.3447 32.4476C17.0749 32.3604 16.7784 32.4914 16.6768 32.7563L16.6652 32.7866C16.5574 33.0679 16.6976 33.3848 16.9842 33.478C17.0008 33.4834 17.0175 33.4888 17.0342 33.4942C17.3211 33.586 17.6203 33.4114 17.6977 33.1203L17.706 33.0893C17.7789 32.8151 17.6147 32.5349 17.3447 32.4476Z" fill="#121E52"/>
<path d="M31.0535 25.3471C31.1153 25.0521 30.9107 24.7723 30.6129 24.7253L30.5812 24.7203C30.3009 24.676 30.0389 24.8695 29.9801 25.1471C29.9213 25.4246 30.0829 25.7044 30.3568 25.778L30.3878 25.7863C30.679 25.8646 30.9798 25.692 31.0429 25.3971C31.0465 25.3805 31.05 25.3638 31.0535 25.3471Z" fill="#121E52"/>
<path d="M10.1325 24.743C9.8348 24.7904 9.63057 25.0705 9.69285 25.3655C9.69634 25.382 9.69986 25.3985 9.70342 25.415C9.76707 25.7097 10.0679 25.8819 10.359 25.8035L10.3901 25.7952C10.6641 25.7214 10.825 25.4391 10.7657 25.1616C10.7065 24.884 10.4446 24.6932 10.1643 24.7379L10.1325 24.743Z" fill="#121E52"/>
<path d="M29.3462 27.098C29.2305 27.3572 29.3299 27.6654 29.5826 27.7947L29.6105 27.809C29.8789 27.9464 30.2093 27.8406 30.3329 27.5655C30.34 27.5498 30.347 27.534 30.354 27.5183C30.4763 27.2426 30.3345 26.9262 30.053 26.8181L30.0235 26.8068C29.7585 26.705 29.4619 26.8387 29.3462 27.098Z" fill="#121E52"/>
<path d="M21.9957 33.3096C21.9513 33.0293 21.6893 32.8391 21.4071 32.8687C21.1248 32.8983 20.9058 33.1388 20.9205 33.4222L20.9222 33.4539C20.9378 33.7549 21.1947 33.9876 21.4946 33.9571C21.5113 33.9554 21.528 33.9536 21.5447 33.9518C21.8446 33.9199 22.0479 33.6388 22.0007 33.3409L21.9957 33.3096Z" fill="#121E52"/>
<path d="M7.87403 18.1853C7.81424 17.8899 7.5756 17.6431 7.27422 17.6431C6.97284 17.6431 6.72442 17.8888 6.76714 18.1871C7.03198 20.0368 8.6267 21.463 10.5484 21.463H11.6398C11.9412 21.463 12.1856 21.2187 12.1856 20.9173C12.1856 20.6159 11.9412 20.3716 11.6398 20.3716H10.5484C9.22952 20.3716 8.12617 19.4309 7.87403 18.1853Z" fill="#EE422B"/>
<path d="M26.9172 10.0482C26.6199 9.99841 26.3738 10.2475 26.3738 10.5489C26.3738 10.8503 26.6219 11.0876 26.9139 11.1622C27.6845 11.359 28.2922 11.9667 28.489 12.7373C28.5636 13.0293 28.8009 13.2774 29.1023 13.2774C29.4037 13.2774 29.6528 13.0312 29.6029 12.734C29.3731 11.3628 28.2883 10.2781 26.9172 10.0482Z" fill="#EE422B"/>
</svg>
