<svg width="61" height="52" viewBox="0 0 61 52" fill="none" xmlns="http://www.w3.org/2000/svg">
<path d="M17.8137 8.94412C17.7382 8.93137 17.6618 8.91863 17.5853 8.90882C17.2882 8.86961 16.9892 8.84314 16.6863 8.84314C12.9029 8.84314 9.82353 11.9225 9.82353 15.7059C9.82353 15.7798 9.8288 15.8529 9.83406 15.9259C9.8348 15.9362 9.83555 15.9465 9.83627 15.9569L17.8137 8.94412ZM17.8137 8.94412C18.0755 8.98725 18.3333 9.04412 18.5873 9.11765C18.6044 9.12255 18.6218 9.12672 18.6392 9.13088C18.6566 9.13505 18.674 9.13922 18.6912 9.14412M17.8137 8.94412L19.5098 9.45882M18.6912 9.14412C18.9706 9.22941 19.2431 9.33726 19.5098 9.45882M18.6912 9.14412L18.6182 9.38322C18.619 9.38347 18.6198 9.38371 18.6206 9.38396M18.6912 9.14412L18.6225 9.3845C18.6219 9.38432 18.6212 9.38414 18.6206 9.38396M19.5098 9.45882C19.5605 9.48166 19.6101 9.50605 19.6598 9.53049C19.6784 9.53962 19.697 9.54877 19.7157 9.55784L19.5098 9.45882ZM18.6206 9.38396C18.8864 9.46526 19.1478 9.56854 19.4061 9.6863L19.4071 9.68675C19.4537 9.70774 19.4977 9.72941 19.546 9.75312C19.565 9.76249 19.5847 9.77217 19.6055 9.78226M18.6206 9.38396C18.61 9.38099 18.5983 9.37814 18.581 9.37401C18.5645 9.37006 18.5418 9.36467 18.5186 9.35803L18.5177 9.35778C18.2742 9.28726 18.026 9.23248 17.7731 9.19079L17.7721 9.19063C17.6963 9.17783 17.6244 9.16588 17.5535 9.15679L17.5526 9.15668C17.2624 9.11836 16.9749 9.09314 16.6863 9.09314C13.041 9.09314 10.0735 12.0606 10.0735 15.7059C10.0735 15.7701 10.0781 15.8337 10.0834 15.9076C10.0841 15.9179 10.0849 15.9285 10.0857 15.9393L10.0857 15.9401L10.0985 16.1303L10.0995 16.1461L10.0986 16.1619L10.0878 16.3426M19.6055 9.78226L44.149 17.8147C44.2226 18.3 44.6402 18.648 45.1167 18.648C45.1657 18.648 45.2157 18.6441 45.2647 18.6363L45.3021 18.8835C45.3024 18.8834 45.3027 18.8834 45.303 18.8833C47.4207 18.563 49.6353 18.8561 49.8162 18.8811C54.2575 19.7284 57.6127 23.8265 57.6127 28.4235C57.6127 33.706 53.3139 38.0049 48.0314 38.0049H44.1373C43.457 38.0049 42.9069 38.5551 42.9069 39.2353C42.9069 39.9155 43.457 40.4657 44.1373 40.4657H48.0314C54.6714 40.4657 60.0735 35.0636 60.0735 28.4235C60.0735 22.9906 56.3308 18.1134 51.2146 16.682C50.6019 7.81502 43.2625 0.75 34.4157 0.75C29.0788 0.75 23.9123 3.33399 20.6644 7.56208C20.6513 7.55643 20.6389 7.55091 20.6266 7.54509C20.4289 7.44929 20.2267 7.3577 20.0193 7.27474L20.0183 7.27432C19.9019 7.22841 19.7866 7.18694 19.6723 7.14721C19.4672 7.07547 19.2596 7.01202 19.0488 6.95481L19.0484 6.95469C19.0309 6.94998 19.0132 6.94517 18.9952 6.9403C18.9011 6.91475 18.8011 6.88759 18.7 6.86493M19.6055 9.78226C19.8338 9.8955 20.0553 10.0182 20.268 10.1559C22.0897 11.3357 23.299 13.3811 23.299 15.7059C23.299 16.3861 23.8492 16.9363 24.5294 16.9363C25.2096 16.9363 25.7598 16.3861 25.7598 15.7059C25.7598 13.0149 24.5798 10.598 22.7153 8.93614C25.4924 5.42718 29.9692 3.21078 34.4157 3.21078C41.7768 3.21078 47.9164 8.96843 48.6965 16.3083C47.698 16.2513 46.3176 16.2402 44.933 16.4509C44.2611 16.553 43.7998 17.1806 43.9019 17.8523L19.6055 9.78226ZM10.0878 16.3426L9.83824 16.3284L10.0878 16.3433L10.0878 16.3426ZM10.0878 16.3426C10.087 16.3572 10.0862 16.3715 10.0854 16.3857C10.0792 16.4927 10.0735 16.5903 10.0735 16.6863V17.3039V17.4615L9.93134 17.5295L9.37571 17.795C5.80811 19.5052 3.21078 23.6446 3.21078 27.6216C3.21078 33.3472 7.86848 38.0049 13.5931 38.0049H18.6471C19.3273 38.0049 19.8775 38.5551 19.8775 39.2353C19.8775 39.9155 19.3273 40.4657 18.6471 40.4657H13.5931C6.51092 40.4657 0.75 34.7037 0.75 27.6216C0.75 22.9208 3.53799 18.2326 7.61971 15.9374C7.61559 15.8622 7.61275 15.7849 7.61275 15.7059C7.61275 10.7021 11.6825 6.63235 16.6863 6.63235C17.0318 6.63235 17.3706 6.65566 17.7032 6.69272C17.7734 6.70032 17.851 6.71326 17.9186 6.72452C17.9516 6.73001 17.9821 6.7351 18.0083 6.73899L18.0089 6.73907C18.2388 6.77375 18.4709 6.81302 18.7 6.86493M18.7 6.86493C18.7001 6.86496 18.7002 6.86498 18.7004 6.86501L18.6451 7.10882L18.6998 6.86488C18.6999 6.86489 18.6999 6.86491 18.7 6.86493ZM17.9716 6.98627C17.936 6.98099 17.9006 6.97507 17.8653 6.96915C17.8024 6.95861 17.7395 6.94808 17.6755 6.94118C17.35 6.9049 17.0206 6.88235 16.6863 6.88235C11.8206 6.88235 7.86275 10.8402 7.86275 15.7059C7.86275 15.8324 7.87059 15.9559 7.87941 16.0794L17.9716 6.98627Z" fill="white" stroke="white" stroke-width="0.5"/>
<path d="M31.7662 50.9245L31.8619 51.1555C32.011 51.0936 32.148 51.0042 32.2629 50.8882C32.2631 50.888 32.2633 50.8878 32.2635 50.8876L40.1047 43.0464C40.5857 42.5655 40.5857 41.7876 40.1047 41.3066C39.6237 40.8256 38.8458 40.8256 38.3649 41.3066L32.622 47.0494V27.4706C32.622 26.7904 32.0719 26.2402 31.3916 26.2402C30.7114 26.2402 30.1613 26.7904 30.1613 27.4706V47.0494L24.4184 41.3066C23.9375 40.8256 23.1596 40.8256 22.6786 41.3066C22.1976 41.7876 22.1976 42.5655 22.6786 43.0464L30.5198 50.8876C30.52 50.8878 30.5202 50.888 30.5204 50.8882C30.6353 51.0042 30.7722 51.0936 30.9214 51.1555L31.0171 50.9245M31.7662 50.9245L31.8626 51.1552C31.7126 51.2179 31.5524 51.25 31.3916 51.25C31.2309 51.25 31.0707 51.2179 30.9207 51.1552L31.0171 50.9245M31.7662 50.9245C31.6465 50.9745 31.5191 51 31.3916 51C31.2642 51 31.1367 50.9745 31.0171 50.9245M31.7662 50.9245C31.8867 50.8745 31.9956 50.803 32.0858 50.7118L39.9279 42.8696C40.3113 42.4863 40.3113 41.8667 39.9279 41.4834C39.5446 41.1 38.925 41.1 38.5416 41.4834L30.6975 50.7118C30.7877 50.803 30.8965 50.8745 31.0171 50.9245" fill="white" stroke="white" stroke-width="0.5"/>
</svg>
