<svg width="40" height="50" viewBox="0 0 40 50" fill="none" xmlns="http://www.w3.org/2000/svg">
<path d="M38.4766 0H5.04723C4.98581 0 4.9263 0.00648498 4.86832 0.0171661C2.1492 0.225067 0 2.50206 0 5.27344V44.7266C0 47.6345 2.36588 50 5.27344 50H38.4766C39.016 50 39.4531 49.5628 39.4531 49.0234V24.6094C39.4531 24.07 39.016 23.6328 38.4766 23.6328C37.9372 23.6328 37.5 24.07 37.5 24.6094V39.4531H6.64062V1.95312H37.5V16.7969C37.5 17.3363 37.9372 17.7734 38.4766 17.7734C39.016 17.7734 39.4531 17.3363 39.4531 16.7969V0.976562C39.4531 0.437164 39.016 0 38.4766 0ZM1.95312 5.27344C1.95312 3.64265 3.1353 2.28348 4.6875 2.00577V39.4863C3.65829 39.6008 2.71721 40.0124 1.95312 40.6334V5.27344ZM37.5 43.75H13.4766C12.9372 43.75 12.5 44.1872 12.5 44.7266C12.5 45.266 12.9372 45.7031 13.4766 45.7031H37.5V48.0469H5.27344C3.44276 48.0469 1.95312 46.5572 1.95312 44.7266C1.95312 42.8959 3.44276 41.4062 5.27344 41.4062H37.5V43.75Z" fill="white"/>
<path d="M38.4766 19.7266C38.2198 19.7266 37.9677 19.8311 37.7861 20.0127C37.6045 20.1942 37.5 20.4464 37.5 20.7031C37.5 20.9599 37.6045 21.212 37.7861 21.3936C37.9677 21.5752 38.2198 21.6797 38.4766 21.6797C38.7333 21.6797 38.9854 21.5752 39.167 21.3936C39.3486 21.212 39.4531 20.9599 39.4531 20.7031C39.4531 20.4464 39.3486 20.1942 39.167 20.0127C38.9854 19.8311 38.7333 19.7266 38.4766 19.7266Z" fill="white"/>
<path d="M9.57031 45.7031C9.82704 45.7031 10.0792 45.5986 10.2608 45.417C10.4424 45.2354 10.5469 44.9833 10.5469 44.7266C10.5469 44.4698 10.4424 44.2177 10.2608 44.0361C10.0792 43.8545 9.82704 43.75 9.57031 43.75C9.31358 43.75 9.06143 43.8545 8.87985 44.0361C8.69827 44.2177 8.59375 44.4698 8.59375 44.7266C8.59375 44.9833 8.69827 45.2354 8.87985 45.417C9.06143 45.5986 9.31358 45.7031 9.57031 45.7031Z" fill="white"/>
<path d="M35.4492 17.3256C35.4492 13.3679 32.2292 10.1479 28.2715 10.1479C26.841 10.1479 25.5081 10.5706 24.3874 11.2946C25.1549 10.1876 26.2192 9.28348 27.4979 8.71242C27.9903 8.49269 28.2112 7.91515 27.9915 7.42267C27.7714 6.93019 27.1942 6.70932 26.7014 6.92905C24.6452 7.84763 23.0293 9.44865 22.0703 11.3938C21.1113 9.44865 19.4958 7.84763 17.4393 6.92905C16.9464 6.70894 16.3692 6.93019 16.1491 7.42267C15.9294 7.91515 16.1503 8.49269 16.6428 8.71242C17.9214 9.28348 18.9857 10.1876 19.7533 11.2946C18.6325 10.5702 17.2997 10.1479 15.8691 10.1479C11.9114 10.1479 8.69141 13.3679 8.69141 17.3256C8.69141 20.3274 10.5442 22.9031 13.1657 23.9731C11.8637 25.0759 11.0352 26.7208 11.0352 28.5561C11.0352 31.868 13.7295 34.562 17.041 34.562C19.1441 34.562 20.9972 33.4744 22.0703 31.8333C23.1434 33.4744 24.9966 34.562 27.0996 34.562C30.4111 34.562 33.1055 31.868 33.1055 28.5561C33.1055 26.7208 32.2769 25.0759 30.975 23.9731C33.5964 22.9031 35.4492 20.3274 35.4492 17.3256ZM15.8691 22.5502C12.9883 22.5502 10.6445 20.2065 10.6445 17.3256C10.6445 14.4448 12.9883 12.101 15.8691 12.101C18.75 12.101 21.0938 14.4448 21.0938 17.3256V22.5502H15.8691ZM17.041 32.6088C14.8064 32.6088 12.9883 30.7911 12.9883 28.5561C12.9883 26.3214 14.8064 24.5034 17.041 24.5034H21.0938V28.5561C21.0938 30.7911 19.2757 32.6088 17.041 32.6088ZM27.0996 32.6088C24.865 32.6088 23.0469 30.7911 23.0469 28.5561V24.5034H27.0996C29.3343 24.5034 31.1523 26.3214 31.1523 28.5561C31.1523 30.7911 29.3343 32.6088 27.0996 32.6088ZM28.2715 22.5502H23.0469V17.3256C23.0469 14.4448 25.3906 12.101 28.2715 12.101C31.1523 12.101 33.4961 14.4448 33.4961 17.3256C33.4961 20.2065 31.1523 22.5502 28.2715 22.5502Z" fill="white"/>
<path d="M28.2715 16.3499C28.0148 16.3499 27.7626 16.4532 27.581 16.6348C27.3994 16.8175 27.2949 17.0685 27.2949 17.3264C27.2949 17.5831 27.3994 17.8349 27.581 18.0165C27.7626 18.1985 28.0148 18.303 28.2715 18.303C28.5282 18.303 28.7804 18.1985 28.9619 18.0165C29.1435 17.8349 29.248 17.5831 29.248 17.3264C29.248 17.0685 29.1435 16.8175 28.9619 16.6348C28.7804 16.4532 28.5282 16.3499 28.2715 16.3499Z" fill="white"/>
<path d="M15.8691 16.3499C15.6124 16.3499 15.3603 16.4532 15.1787 16.636C14.9971 16.8164 14.8926 17.0685 14.8926 17.3264C14.8926 17.5831 14.9971 17.8349 15.1787 18.0165C15.3603 18.1985 15.6124 18.303 15.8691 18.303C16.1259 18.303 16.378 18.1985 16.5596 18.0165C16.7412 17.8342 16.8457 17.5831 16.8457 17.3264C16.8457 17.0685 16.7412 16.8175 16.5596 16.636C16.378 16.4532 16.1259 16.3499 15.8691 16.3499Z" fill="white"/>
<path d="M26.8877 27.5802C26.631 27.5802 26.3792 27.6836 26.1976 27.8663C26.0157 28.0479 25.9111 28.2989 25.9111 28.5568C25.9111 28.8135 26.0157 29.0653 26.1976 29.2468C26.3792 29.4288 26.631 29.5333 26.8877 29.5333C27.1456 29.5333 27.3966 29.4288 27.5782 29.2468C27.7609 29.0645 27.8643 28.8135 27.8643 28.5568C27.8643 28.2997 27.7609 28.0479 27.5782 27.8663C27.3966 27.6836 27.1448 27.5802 26.8877 27.5802Z" fill="white"/>
<path d="M17.2532 27.5802C16.9953 27.5802 16.7443 27.6836 16.5627 27.8663C16.38 28.0479 16.2766 28.2989 16.2766 28.5568C16.2766 28.8135 16.38 29.0653 16.5627 29.2468C16.7443 29.4288 16.9953 29.5333 17.2532 29.5333C17.5099 29.5333 17.7617 29.4288 17.9433 29.2468C18.1248 29.0645 18.2297 28.8135 18.2297 28.5568C18.2297 28.2997 18.1252 28.0479 17.9433 27.8663C17.7617 27.6836 17.5099 27.5802 17.2532 27.5802Z" fill="white"/>
</svg>
