<svg width="51" height="50" viewBox="0 0 51 50" fill="none" xmlns="http://www.w3.org/2000/svg">
<path d="M23.2706 18.358C23.81 18.358 24.2472 17.9208 24.2472 17.3814C24.2472 16.8423 23.81 16.4048 23.2706 16.4048H22.4893C21.9499 16.4048 21.5127 16.8423 21.5127 17.3814C21.5127 17.9208 21.9499 18.358 22.4893 18.358H23.2706Z" fill="white"/>
<path d="M23.941 45.7027C24.48 45.7027 24.9176 45.2655 24.9176 44.7261C24.9176 44.1871 24.48 43.7495 23.941 43.7495H23.1597C22.6203 43.7495 22.1831 44.1871 22.1831 44.7261C22.1831 45.2655 22.6203 45.7027 23.1597 45.7027H23.941Z" fill="white"/>
<path d="M28.6285 45.7027C29.1675 45.7027 29.6051 45.2655 29.6051 44.7261C29.6051 44.1871 29.1675 43.7495 28.6285 43.7495H27.8472C27.3078 43.7495 26.8706 44.1871 26.8706 44.7261C26.8706 45.2655 27.3078 45.7027 27.8472 45.7027H28.6285Z" fill="white"/>
<path d="M38.0035 45.7027C38.5425 45.7027 38.9801 45.2655 38.9801 44.7261C38.9801 44.1871 38.5425 43.7495 38.0035 43.7495H37.2222C36.6828 43.7495 36.2456 44.1871 36.2456 44.7261C36.2456 45.2655 36.6828 45.7027 37.2222 45.7027H38.0035Z" fill="white"/>
<path d="M9.09671 45.7027H9.87799C10.417 45.7027 10.8546 45.2655 10.8546 44.7261C10.8546 44.1871 10.417 43.7495 9.87799 43.7495H9.09671C8.5573 43.7495 8.12012 44.1871 8.12012 44.7261C8.12012 45.2655 8.5573 45.7027 9.09671 45.7027Z" fill="white"/>
<path d="M9.20806 18.358C9.74748 18.358 10.1847 17.9208 10.1847 17.3814C10.1847 16.8423 9.74748 16.4048 9.20806 16.4048H8.42679C7.88737 16.4048 7.4502 16.8423 7.4502 17.3814C7.4502 17.9208 7.88737 18.358 8.42679 18.358H9.20806Z" fill="white"/>
<path d="M14.5655 43.7495H13.7842C13.2448 43.7495 12.8076 44.1871 12.8076 44.7261C12.8076 45.2655 13.2448 45.7027 13.7842 45.7027H14.5655C15.1045 45.7027 15.5421 45.2655 15.5421 44.7261C15.5421 44.1871 15.1045 43.7495 14.5655 43.7495Z" fill="white"/>
<path d="M18.5831 16.4048H17.8018C17.2624 16.4048 16.8252 16.8423 16.8252 17.3814C16.8252 17.9208 17.2624 18.358 17.8018 18.358H18.5831C19.1225 18.358 19.5597 17.9208 19.5597 17.3814C19.5597 16.8423 19.1225 16.4048 18.5831 16.4048Z" fill="white"/>
<path d="M18.4717 43.7495C17.9323 43.7495 17.4951 44.1871 17.4951 44.7261C17.4951 45.2655 17.9323 45.7027 18.4717 45.7027H19.253C19.792 45.7027 20.2296 45.2655 20.2296 44.7261C20.2296 44.1871 19.792 43.7495 19.253 43.7495H18.4717Z" fill="white"/>
<path d="M13.8956 18.358C14.435 18.358 14.8722 17.9208 14.8722 17.3814C14.8722 16.8423 14.435 16.4048 13.8956 16.4048H13.1143C12.5749 16.4048 12.1377 16.8423 12.1377 17.3814C12.1377 17.9208 12.5749 18.358 13.1143 18.358H13.8956Z" fill="white"/>
<path d="M33.316 45.7027C33.855 45.7027 34.2926 45.2655 34.2926 44.7261C34.2926 44.1871 33.855 43.7495 33.316 43.7495H32.5347C31.9953 43.7495 31.5581 44.1871 31.5581 44.7261C31.5581 45.2655 31.9953 45.7027 32.5347 45.7027H33.316Z" fill="white"/>
<path d="M5.66409 21.0367C6.20351 21.0367 6.64069 20.5995 6.64069 20.0601V19.2788C6.64069 18.7394 6.20351 18.3022 5.66409 18.3022C5.12468 18.3022 4.6875 18.7394 4.6875 19.2788V20.0601C4.6875 20.5995 5.12468 21.0367 5.66409 21.0367Z" fill="white"/>
<path d="M4.6875 24.7479C4.6875 25.2873 5.12468 25.7245 5.66409 25.7245C6.20351 25.7245 6.64069 25.2873 6.64069 24.7479V23.9666C6.64069 23.4272 6.20351 22.99 5.66409 22.99C5.12468 22.99 4.6875 23.4272 4.6875 23.9666V24.7479Z" fill="white"/>
<path d="M42.6276 43.7479C42.6116 43.7491 42.5952 43.7498 42.5792 43.7498H41.9097C41.3703 43.7498 40.9331 44.187 40.9331 44.7264C40.9331 45.2654 41.3703 45.703 41.9097 45.703H42.5792C42.6379 45.703 42.6959 45.7011 42.7535 45.6973C43.2918 45.6626 43.7 45.1979 43.6653 44.6596C43.6302 44.1214 43.1663 43.7143 42.6276 43.7479Z" fill="white"/>
<path d="M44.3374 21.4831C44.8768 21.4831 45.314 21.0459 45.314 20.5065V19.7253C45.314 19.1862 44.8768 18.7487 44.3374 18.7487C43.798 18.7487 43.3608 19.1862 43.3608 19.7253V20.5065C43.3608 21.0459 43.798 21.4831 44.3374 21.4831Z" fill="white"/>
<path d="M4.6875 34.1231C4.6875 34.6625 5.12468 35.0997 5.66409 35.0997C6.20351 35.0997 6.64069 34.6625 6.64069 34.1231V33.3418C6.64069 32.8024 6.20351 32.3652 5.66409 32.3652C5.12468 32.3652 4.6875 32.8024 4.6875 33.3418V34.1231Z" fill="white"/>
<path d="M4.6875 42.9682C4.6875 43.2444 4.7287 43.5175 4.81034 43.78C4.94042 44.1985 5.3261 44.4671 5.74268 44.4671C5.83843 44.4671 5.93609 44.4529 6.03261 44.4228C6.54761 44.263 6.83563 43.7159 6.6754 43.2005C6.65251 43.1261 6.64069 43.0479 6.64069 42.9682V42.7172C6.64069 42.1778 6.20351 41.7406 5.66409 41.7406C5.12468 41.7406 4.6875 42.1778 4.6875 42.7172V42.9682Z" fill="white"/>
<path d="M4.6875 38.8107C4.6875 39.3501 5.12468 39.7873 5.66409 39.7873C6.20351 39.7873 6.64069 39.3501 6.64069 38.8107V38.0295C6.64069 37.49 6.20351 37.0529 5.66409 37.0529C5.12468 37.0529 4.6875 37.49 4.6875 38.0295V38.8107Z" fill="white"/>
<path d="M4.6875 29.4355C4.6875 29.9749 5.12468 30.4121 5.66409 30.4121C6.20351 30.4121 6.64069 29.9749 6.64069 29.4355V28.6542C6.64069 28.1148 6.20351 27.6776 5.66409 27.6776C5.12468 27.6776 4.6875 28.1148 4.6875 28.6542V29.4355Z" fill="white"/>
<path d="M44.3374 42.6893C44.8768 42.6893 45.314 42.2521 45.314 41.7127V40.9314C45.314 40.392 44.8768 39.9548 44.3374 39.9548C43.798 39.9548 43.3608 40.392 43.3608 40.9314V41.7127C43.3608 42.2521 43.798 42.6893 44.3374 42.6893Z" fill="white"/>
<path d="M27.9581 18.358C28.4975 18.358 28.9347 17.9208 28.9347 17.3814C28.9347 16.8423 28.4975 16.4048 27.9581 16.4048H27.1768C26.6374 16.4048 26.2002 16.8423 26.2002 17.3814C26.2002 17.9208 26.6374 18.358 27.1768 18.358H27.9581Z" fill="white"/>
<path d="M42.0211 18.358C42.5605 18.358 42.9976 17.9208 42.9976 17.3814C42.9976 16.8423 42.5605 16.4048 42.0211 16.4048H41.2398C40.7004 16.4048 40.2632 16.8423 40.2632 17.3814C40.2632 17.9208 40.7004 18.358 41.2398 18.358H42.0211Z" fill="white"/>
<path d="M32.6461 18.358C33.1855 18.358 33.6226 17.9208 33.6226 17.3814C33.6226 16.8423 33.1855 16.4048 32.6461 16.4048H31.8648C31.3254 16.4048 30.8882 16.8423 30.8882 17.3814C30.8882 17.9208 31.3254 18.358 31.8648 18.358H32.6461Z" fill="white"/>
<path d="M37.3336 18.358C37.873 18.358 38.3101 17.9208 38.3101 17.3814C38.3101 16.8423 37.873 16.4048 37.3336 16.4048H36.5523C36.0129 16.4048 35.5757 16.8423 35.5757 17.3814C35.5757 17.9208 36.0129 18.358 36.5523 18.358H37.3336Z" fill="white"/>
<path d="M28.3614 27.951C26.6508 27.951 25.2588 29.3431 25.2588 31.054C25.2588 32.7646 26.6508 34.1566 28.3614 34.1566C30.0723 34.1566 31.4644 32.7646 31.4644 31.054C31.4644 29.3431 30.0723 27.951 28.3614 27.951ZM28.3614 32.203C27.7277 32.203 27.212 31.6877 27.212 31.0536C27.212 30.42 27.7277 29.9042 28.3614 29.9042C28.9954 29.9042 29.5112 30.42 29.5112 31.0536C29.5112 31.6877 28.9954 32.203 28.3614 32.203Z" fill="white"/>
<path d="M45.8999 12.1078H36.5387L31.5684 7.13782C31.3853 6.9547 31.1369 6.8517 30.8779 6.8517C30.6189 6.8517 30.3706 6.9547 30.1874 7.13782C29.7999 7.5254 29.2849 7.73865 28.737 7.73865C28.1892 7.73865 27.6742 7.52502 27.2867 7.13782C27.1035 6.9547 26.8552 6.8517 26.5962 6.8517C26.3371 6.8517 26.0888 6.9547 25.9057 7.13782L20.9357 12.1081H18.0117L27.7196 2.40019C28.3167 1.80279 29.2887 1.80279 29.8861 2.40019L35.3573 7.87102C35.7388 8.25251 36.3572 8.25251 36.7383 7.87102C37.1197 7.48992 37.1197 6.87154 36.7383 6.49006L31.2674 1.01884C29.9086 -0.339614 27.6971 -0.339614 26.3383 1.01884L15.2494 12.1078H4.1017C1.83989 12.1078 0 13.948 0 16.2095V45.8979C0 48.1597 1.83989 49.9996 4.1017 49.9996H10.0635C10.6025 49.9996 11.0401 49.5624 11.0401 49.023C11.0401 48.484 10.6025 48.0464 10.0635 48.0464H4.1017C2.91681 48.0464 1.95319 47.0828 1.95319 45.8979V16.2095C1.95319 15.025 2.91681 14.061 4.1017 14.061H45.8999C47.0848 14.061 48.0484 15.025 48.0484 16.2095V21.48C48.0484 23.0578 46.8491 24.3606 45.314 24.525V24.4132C45.314 23.8738 44.8768 23.4366 44.3374 23.4366C43.798 23.4366 43.3608 23.8738 43.3608 24.4132V24.5429H28.4025C24.8158 24.5429 21.8982 27.4605 21.8982 31.0472C21.8982 34.6335 24.8158 37.5515 28.4025 37.5515H43.5157C43.6892 37.8219 43.9921 38.0016 44.3374 38.0016C44.6845 38.0016 44.9886 37.82 45.1618 37.5469C46.2463 37.5091 47.2439 37.1261 48.0484 36.5035V45.8983C48.0484 47.0828 47.0844 48.0468 45.8999 48.0468H17.8763C17.3368 48.0468 16.8997 48.484 16.8997 49.0234C16.8997 49.5624 17.3368 50 17.8763 50H45.8999C48.1617 50 50.0016 48.1597 50.0016 45.8983V16.2095C50.0016 13.948 48.1617 12.1078 45.8999 12.1078ZM23.6977 12.1078L26.6805 9.12534C27.2954 9.49461 28.0012 9.69184 28.737 9.69184C29.4729 9.69184 30.1787 9.49461 30.7936 9.12534L33.7764 12.1078H23.6977ZM44.9855 35.5979H28.4025C25.8931 35.5979 23.8514 33.5566 23.8514 31.0468C23.8514 28.5374 25.8931 26.4957 28.4025 26.4957H44.9855C46.1384 26.4957 47.2004 26.104 48.0484 25.4482V32.5354C48.0484 34.2242 46.6743 35.5979 44.9855 35.5979Z" fill="white"/>
<path d="M12.993 37.4443V37.846C12.993 38.3854 13.4302 38.8226 13.9696 38.8226C14.5087 38.8226 14.9462 38.3854 14.9462 37.846V37.4443C16.7091 37.0368 18.0194 35.5533 18.0194 33.7897C18.0194 31.7133 16.2024 30.0237 13.9696 30.0237C12.8134 30.0237 11.8726 29.2107 11.8726 28.2109C11.8726 27.2114 12.8134 26.3984 13.9696 26.3984C15.1255 26.3984 16.0663 27.2114 16.0663 28.2109C16.0663 28.7503 16.5034 29.1875 17.0428 29.1875C17.5823 29.1875 18.0194 28.7503 18.0194 28.2109C18.0194 26.4477 16.7091 24.9641 14.9462 24.5567V24.2614C14.9462 23.7223 14.5087 23.2848 13.9696 23.2848C13.4302 23.2848 12.993 23.7223 12.993 24.2614V24.5567C11.2298 24.9641 9.91943 26.4477 9.91943 28.2109C9.91943 30.2877 11.7364 31.9769 13.9696 31.9769C15.1255 31.9769 16.0663 32.7902 16.0663 33.7897C16.0663 34.7891 15.1255 35.6025 13.9696 35.6025C12.8134 35.6025 11.8726 34.7891 11.8726 33.7897C11.8726 33.2502 11.4354 32.8131 10.896 32.8131C10.3566 32.8131 9.91943 33.2502 9.91943 33.7897C9.91943 35.5533 11.2298 37.0368 12.993 37.4443Z" fill="white"/>
<path d="M13.9688 48.0465C13.712 48.0465 13.461 48.151 13.2783 48.3326C13.0967 48.5146 12.9922 48.7664 12.9922 49.0231C12.9922 49.2802 13.0967 49.532 13.2783 49.7136C13.4599 49.8952 13.712 49.9997 13.9688 49.9997C14.2267 49.9997 14.4777 49.8952 14.6604 49.7136C14.842 49.532 14.9454 49.2802 14.9454 49.0231C14.9454 48.7664 14.842 48.5146 14.6604 48.3326C14.4777 48.151 14.2267 48.0465 13.9688 48.0465Z" fill="white"/>
<path d="M38.7735 10.9553C39.0233 10.9553 39.2736 10.86 39.464 10.6692L39.5002 10.6334C39.8817 10.2519 39.8817 9.63349 39.5002 9.25201C39.1187 8.87091 38.5003 8.87091 38.1188 9.25201L38.083 9.28825C37.7015 9.66935 37.7015 10.2877 38.083 10.6692C38.2737 10.86 38.5236 10.9553 38.7735 10.9553Z" fill="white"/>
</svg>
