<svg width="40" height="38" viewBox="0 0 40 38" fill="none" xmlns="http://www.w3.org/2000/svg">
<path fill-rule="evenodd" clip-rule="evenodd" d="M6.62138 11.6266C8.4468 7.90272 11.0738 4.02546 15.1426 3.22263C19.0913 2.44351 22.5731 5.43588 25.799 7.84265C28.5349 9.88388 30.6485 12.44 31.8026 15.6524C33.0867 19.2263 34.4288 23.2963 32.5335 26.587C30.6373 29.8794 26.4388 30.742 22.7055 31.4478C19.3195 32.088 15.8914 31.8868 12.8258 30.313C9.58557 28.6495 6.75702 26.1276 5.60931 22.6709C4.39829 19.0236 4.92983 15.0775 6.62138 11.6266Z" fill="#C3ECA6"/>
<path d="M25.9219 23.2031C25.5984 23.2031 25.3359 23.4656 25.3359 23.7891C25.3359 24.1125 25.5984 24.375 25.9219 24.375C26.2453 24.375 26.5078 24.1125 26.5078 23.7891C26.5078 23.4656 26.2453 23.2031 25.9219 23.2031Z" fill="#EE422B"/>
<path d="M27.3646 21.3084L24.5796 20.3803L23.5798 18.3806C24.4805 17.4639 25.1059 16.2509 25.3168 14.9856L25.4415 14.2383H26.5078C27.4771 14.2383 28.2656 13.4497 28.2656 12.4805V8.78906C28.2656 3.94277 24.3229 0 19.4766 0C14.6179 0 10.6875 3.93146 10.6875 8.78906V12.4805C10.6875 13.2443 11.1774 13.8956 11.8594 14.1375V14.8242C11.8594 15.7935 12.6479 16.582 13.6172 16.582H14.1318C14.3858 17.1338 14.7145 17.6449 15.1146 18.1039C15.1976 18.1993 15.2841 18.2918 15.3728 18.3817L14.3735 20.3803L11.5885 21.3084C8.35031 22.3882 6 25.7971 6 29.4141C6 29.7377 6.26232 30 6.58594 30H32.3672C32.6907 30 32.9531 29.7377 32.9531 29.4141C32.9531 25.7971 30.6029 22.3882 27.3646 21.3084ZM27.0938 12.4805C27.0938 12.8036 26.8309 13.0664 26.5078 13.0664H25.6136C25.7625 11.9127 25.8618 10.685 25.9017 9.47578C25.9028 9.44168 25.9038 9.40852 25.9048 9.375H27.0938V12.4805ZM12.4453 13.0664C12.1222 13.0664 11.8594 12.8036 11.8594 12.4805V9.375H13.0487C13.0506 9.43611 13.0527 9.49752 13.055 9.55934C13.055 9.56145 13.0552 9.5635 13.0552 9.56561C13.0552 9.56578 13.0552 9.56596 13.0552 9.56613C13.0962 10.7422 13.1942 11.9381 13.3397 13.0663H12.4453V13.0664ZM13.6172 15.4102C13.2941 15.4102 13.0312 15.1473 13.0312 14.8242V14.2383H13.5116L13.6363 14.9859C13.6601 15.128 13.6893 15.2695 13.7231 15.4102H13.6172ZM13.0322 8.20312H11.8816C12.1784 4.27611 15.4557 1.17188 19.4766 1.17188C23.4796 1.17188 26.7712 4.2757 27.0714 8.20312H25.9209C25.8787 4.96717 23.2436 2.34375 20.001 2.34375H18.9522C15.7097 2.34375 13.0744 4.96717 13.0322 8.20312ZM18.9521 3.51562H20.001C22.6265 3.51562 24.7515 5.66314 24.75 8.28574C24.75 8.47014 24.7485 8.63068 24.7454 8.77676C24.7454 8.77863 24.7454 8.78057 24.7454 8.7825L24.0125 8.67779C22.0215 8.3935 20.1415 7.45354 18.719 6.031C18.6091 5.92113 18.4601 5.85938 18.3047 5.85938C16.7311 5.85938 15.2248 6.57633 14.229 7.78758C14.4744 5.4017 16.4914 3.51562 18.9521 3.51562ZM14.9379 15.4102C14.6446 14.4344 14.3089 11.5633 14.2348 9.72346L15.0234 8.67193C15.7477 7.70654 16.8745 7.10672 18.0731 7.03787C19.6503 8.53881 21.6906 9.52998 23.8468 9.83783L24.7094 9.96111C24.6517 11.1848 24.5339 12.4129 24.3651 13.5422C24.365 13.5426 24.365 13.543 24.3649 13.5434C24.3113 13.9065 24.2689 14.1402 24.1609 14.7929C23.8506 16.6541 22.4618 18.3372 20.6285 18.7956C19.8739 18.984 19.0791 18.9839 18.325 18.7956C17.1802 18.5094 16.1306 17.7173 15.4532 16.582H16.6477C16.8895 17.264 17.5408 17.7539 18.3047 17.7539H19.4766C20.4478 17.7539 21.2344 16.9673 21.2344 15.9961C21.2344 15.0268 20.4458 14.2383 19.4766 14.2383H18.3047C17.5238 14.2383 16.8821 14.7427 16.6467 15.4102H14.9379ZM18.2554 19.9814C18.6573 20.0661 19.0671 20.1094 19.4766 20.1094C19.7971 20.1094 20.1178 20.0825 20.4347 20.0305L19.3994 21.1254L18.2554 19.9814ZM18.5938 21.9773L16.7354 23.9426C16.2237 22.9633 15.7841 21.9441 15.4235 20.9006L16.1214 19.5048L18.5938 21.9773ZM22.7324 19.3063L23.5295 20.9006C23.1683 21.9458 22.7286 22.9654 22.2175 23.9435L20.2283 21.9544L22.7324 19.3063ZM17.7188 15.9961C17.7188 15.6726 17.9811 15.4102 18.3047 15.4102H19.4766C19.7996 15.4102 20.0625 15.673 20.0625 15.9961C20.0625 16.3196 19.8001 16.582 19.4766 16.582H18.3047C17.9816 16.582 17.7188 16.3192 17.7188 15.9961ZM7.19531 28.8281C7.42752 25.9254 9.3593 23.2871 11.9591 22.4201L14.4255 21.5982C14.8774 22.8477 15.4372 24.0622 16.0933 25.2158C16.0944 25.2178 16.0955 25.2197 16.0966 25.2217C16.0966 25.2217 16.0966 25.2217 16.0966 25.2218C16.576 26.0649 17.1155 26.8888 17.7005 27.671L18.4213 28.8281H7.19531ZM19.4766 28.3058L18.6819 27.0301C18.673 27.0158 18.6635 27.0019 18.6534 26.9884C18.1789 26.3555 17.7363 25.6935 17.3332 25.016L19.4228 22.8062L21.6247 25.008C21.2188 25.6905 20.7747 26.3552 20.2998 26.9883C20.2711 27.0265 20.3118 26.9662 19.4766 28.3058ZM20.5318 28.8281L21.2526 27.671C21.8401 26.8859 22.3835 26.0554 22.8677 25.2023C22.8706 25.1972 22.8734 25.1919 22.8763 25.1868C22.8766 25.1861 22.877 25.1855 22.8773 25.1849C23.5251 24.0423 24.079 22.8384 24.5276 21.5982L26.994 22.4201C29.5938 23.2871 31.5256 25.9254 31.7578 28.8281H20.5318Z" fill="#121E52"/>
<path d="M29.9967 26.4568C29.6052 25.673 29.0316 24.9767 28.338 24.4431C28.0815 24.2457 27.7136 24.2937 27.5163 24.5503C27.319 24.8068 27.367 25.1746 27.6235 25.372C28.1774 25.7981 28.6355 26.3544 28.9483 26.9805C29.0932 27.2705 29.4454 27.3872 29.7344 27.2429C30.0238 27.0983 30.1413 26.7463 29.9967 26.4568Z" fill="#EE422B"/>
</svg>
