<svg width="40" height="38" viewBox="0 0 40 38" fill="none" xmlns="http://www.w3.org/2000/svg">
<path fill-rule="evenodd" clip-rule="evenodd" d="M6.62138 11.6266C8.4468 7.90272 11.0738 4.02546 15.1426 3.22263C19.0913 2.44351 22.5731 5.43588 25.799 7.84265C28.5349 9.88388 30.6485 12.44 31.8026 15.6524C33.0867 19.2263 34.4288 23.2963 32.5335 26.587C30.6373 29.8794 26.4388 30.742 22.7055 31.4478C19.3195 32.088 15.8914 31.8868 12.8258 30.313C9.58557 28.6495 6.75702 26.1276 5.60931 22.6709C4.39829 19.0236 4.92983 15.0775 6.62138 11.6266Z" fill="#C3ECA6"/>
<path d="M31.6094 9.26992C31.6094 8.94637 31.347 8.68398 31.0234 8.68398C31.0079 8.68398 30.9927 8.68516 30.9774 8.68633C28.7371 8.66148 26.9219 6.83207 26.9219 4.58594C26.9219 4.26238 26.6595 4 26.3359 4H12.2734C11.9499 4 11.6875 4.26238 11.6875 4.58594C11.6875 6.84754 9.84754 8.6875 7.58594 8.6875C7.26238 8.6875 7 8.94988 7 9.27344V18.9643C7 26.331 11.6412 29.2056 15.7362 31.7419C16.8849 32.4535 17.9701 33.1255 18.9471 33.8782C19.0525 33.9595 19.1786 34 19.3047 34C19.4309 34 19.557 33.9595 19.6623 33.8782C20.6467 33.12 21.7353 32.4447 22.8879 31.7298C27.0912 29.1226 31.6094 26.2854 31.6094 18.9643V9.27344C31.6094 9.27285 31.6093 9.27227 31.6093 9.27168C31.6093 9.27109 31.6094 9.27051 31.6094 9.26992ZM30.4375 18.9643C30.4375 25.6681 26.2854 28.2435 22.2701 30.734C21.2718 31.3531 20.2435 31.991 19.3046 32.681C18.3719 31.996 17.3476 31.3615 16.3532 30.7456C12.331 28.2544 8.17188 25.6784 8.17188 18.9643V9.82703C10.6124 9.55598 12.556 7.61242 12.827 5.17188H25.7823C26.0534 7.61242 27.997 9.55598 30.4375 9.82703V18.9643Z" fill="#121E52"/>
<path d="M19.3047 9.03906C14.4584 9.03906 10.5156 12.9818 10.5156 17.8281C10.5156 22.6744 14.4584 26.6172 19.3047 26.6172C24.151 26.6172 28.0938 22.6744 28.0938 17.8281C28.0938 12.9818 24.151 9.03906 19.3047 9.03906ZM19.3047 25.4453C15.1045 25.4453 11.6875 22.0283 11.6875 17.8281C11.6875 13.6279 15.1045 10.2109 19.3047 10.2109C23.5049 10.2109 26.9219 13.6279 26.9219 17.8281C26.9219 22.0283 23.5049 25.4453 19.3047 25.4453Z" fill="#121E52"/>
<path d="M19.5787 17.352C18.7053 16.8902 18.1328 16.5546 18.1328 16.1118C18.1328 15.4656 18.6585 14.9399 19.3047 14.9399C19.9509 14.9399 20.4766 15.4656 20.4766 16.1118C20.4766 16.4354 20.7389 16.6978 21.0625 16.6978C21.3861 16.6978 21.6484 16.4354 21.6484 16.1118C21.6484 15.0217 20.9004 14.1031 19.8906 13.8422V13.1821C19.8906 12.8586 19.6282 12.5962 19.3047 12.5962C18.9811 12.5962 18.7188 12.8586 18.7188 13.1821V13.8422C17.709 14.1031 16.9609 15.0217 16.9609 16.1118C16.9609 17.2938 18.0608 17.8751 19.0311 18.388C19.9042 18.8496 20.4766 19.1851 20.4766 19.6274C20.4766 20.2736 19.9509 20.7993 19.3047 20.7993C18.6585 20.7993 18.1328 20.2736 18.1328 19.6274C18.1328 19.3039 17.8704 19.0415 17.5469 19.0415C17.2233 19.0415 16.9609 19.3039 16.9609 19.6274C16.9609 20.7175 17.709 21.6362 18.7188 21.897V22.5571C18.7188 22.8807 18.9811 23.1431 19.3047 23.1431C19.6282 23.1431 19.8906 22.8807 19.8906 22.5571V21.897C20.9004 21.6362 21.6484 20.7175 21.6484 19.6274C21.6484 18.446 20.5489 17.8647 19.5787 17.352Z" fill="#EE422B"/>
</svg>
