<svg width="1440" height="1302" viewBox="0 0 1440 1302" fill="none" xmlns="http://www.w3.org/2000/svg">
<path d="M1672 619.47C1672 396.906 1505.04 217.618 1300.35 217.618C1286.63 217.618 1272.9 218.855 1260.32 220.091C1197.43 89.0256 1072.78 0 927.553 0C818.917 0 720.572 50.6952 651.959 132.302C590.208 70.4786 506.729 32.1481 416.389 32.1481C264.298 32.1481 135.077 137.248 88.1922 284.387C-92.4877 311.59 -232 479.749 -232 682.53C-232 897.675 -75.3345 1073.25 121.355 1084.38C188.824 1180.83 296.317 1242.65 417.533 1242.65C479.284 1242.65 537.605 1226.58 587.921 1198.14C635.95 1261.2 707.993 1302 789.184 1302C872.663 1302 945.85 1259.96 993.879 1194.43C1038.48 1214.21 1086.51 1225.34 1136.82 1225.34C1293.49 1225.34 1428.43 1120.24 1483.32 970.627C1595.38 901.385 1672 770.319 1672 619.47Z" fill="#F2FDFF"/>
</svg>
