<svg width="552" height="476" viewBox="0 0 552 476" fill="none" xmlns="http://www.w3.org/2000/svg">
<path fill-rule="evenodd" clip-rule="evenodd" d="M275.36 51.7165C227.089 54.9908 184.1 78.5728 149.765 112.596C115.283 146.765 91.7428 189.65 87.4123 237.956C82.6276 291.329 89.8697 347.504 125.08 387.955C162.387 430.815 218.498 452.322 275.36 453.88C333.856 455.482 396.733 441.355 434.119 396.419C469.569 353.811 457.725 293.274 455.006 237.956C452.488 186.731 454.908 131.26 419.27 94.3147C383.193 56.9143 327.255 48.1963 275.36 51.7165Z" fill="#E4F8FC"/>
<path opacity="0.5" fill-rule="evenodd" clip-rule="evenodd" d="M8.4827 287.387C10.9584 295.516 25.2674 294.385 38.2336 290.32C42.9333 288.854 57.0325 282.191 58.0395 286.758C58.5431 288.351 53.6755 294.385 48.4722 300.712C43.8145 306.327 29.3377 320.741 35.9257 330.169C41.9262 338.759 64.2079 321.998 70.67 315.587C92.7419 293.672 94.4204 299.916 77.1741 322.208C70.2504 331.174 64.7115 343.033 63.6205 349.821C63.033 353.299 63.4106 356.274 67.3131 356.19C71.803 356.106 80.1534 352.251 92.5321 346.846C120.898 334.485 142.551 315.671 179.015 347.139C170.707 304.273 161.727 270.123 151.95 230.903C149.768 222.146 147.334 213.011 144.775 204.547C141.166 192.605 137.263 182.046 133.445 176.012C132.438 174.378 131.431 173.12 130.549 172.157L130.466 172.073C125.011 166.332 122.199 172.911 124.465 188.834C125.472 195.831 126.563 202.494 127.822 210.204C129.626 220.972 130.298 227.886 129.081 228.263C127.738 228.682 124.717 220.512 117.835 201.572C108.981 177.143 96.4765 147.099 90.2662 151.332C88.252 152.714 87.5386 160.592 89.385 180.495C93.2874 215.944 85.3566 191.725 77.1741 175.677C72.6842 166.374 61.7322 136.079 54.6406 145.507C51.7033 149.446 55.1022 162.896 58.2493 173.288C58.9627 175.635 59.6761 177.855 60.3055 179.741C60.809 181.249 61.2286 182.632 61.6063 183.889C66.6417 200.482 62.4875 196.125 53.8434 182.842C49.6891 176.431 45.451 170.229 41.2129 166.249C26.5682 152.505 26.6102 166.29 30.6805 179.783C31.1001 181.208 31.6036 182.674 32.1071 184.057C33.9954 189.127 36.0096 193.862 37.1006 197.507C38.863 203.374 38.2756 206.433 30.9323 203.541C27.8271 202.326 23.6309 201.195 18.3437 200.692C7.43365 199.644 2.44022 202.159 0.258194 212.131C-0.203384 214.352 -0.0355377 216.698 0.677811 219.045C2.77591 225.959 9.4478 233.166 17.3786 238.236C24.596 242.887 31.3938 246.323 32.9044 251.309C33.1562 252.106 33.2402 252.986 33.1982 253.865C32.7786 260.276 23.5889 266.855 16.5813 272.302C9.3219 278.085 7.22385 283.281 8.4827 287.387Z" fill="#CBF2FB"/>
<path opacity="0.5" fill-rule="evenodd" clip-rule="evenodd" d="M4.66422 213.221C28.8762 223.403 52.123 237.23 74.4046 253.279C63.2428 258.307 53.0461 264.09 44.3181 270.459C55.5219 265.388 67.1033 260.528 78.2232 256.086C90.8956 265.43 103.274 275.445 115.317 285.92C119.849 289.859 124.549 294.133 129.291 298.533C115.233 307.584 103.442 318.436 92.7419 328.702C106.715 319.819 119.262 310.223 133.109 302.136C150.104 318.227 167.644 336.161 182.708 350.743C170.203 331.133 148.257 306.955 128.032 288.225C123.416 269.914 113.765 232.537 106.379 217.578C109.988 230.777 117.248 263.629 121.654 282.443C120.353 281.311 119.094 280.18 117.835 279.132C104.575 267.777 86.028 254.913 66.6837 243.306L66.6417 243.139C61.8581 229.101 55.0603 215.651 49.1017 204.547C53.4238 217.034 58.2494 228.557 62.2777 240.708C41.8423 228.724 20.9034 218.458 4.66422 213.221Z" fill="#89E4F8"/>
<path opacity="0.5" fill-rule="evenodd" clip-rule="evenodd" d="M99.4978 63.9659C91.2733 56.675 57.9557 46.1157 59.2145 62.8764C60.4314 79.5953 82.2935 59.6081 99.4978 63.9659ZM152.118 163.315C151.95 162.603 151.866 161.807 151.782 160.927C136.172 153.845 111.583 166.123 114.646 150.158C117.583 134.822 143.306 150.074 151.698 159.67C151.153 146.471 158.118 119.318 170.791 127.657C184.219 136.498 159.125 145.381 152.873 161.095C152.999 161.304 153.167 161.472 153.293 161.681C153.125 161.597 152.957 161.514 152.789 161.388C152.495 162.016 152.286 162.645 152.118 163.315ZM142.551 134.78C142.676 134.068 142.844 133.355 143.054 132.685C143.18 132.727 143.306 132.811 143.432 132.853C143.348 132.727 143.222 132.601 143.096 132.476C147.964 116.301 172.134 105.239 157.992 97.6131C144.649 90.4479 140.117 117.894 141.795 131.051C132.648 122.251 105.54 109.178 103.946 124.766C102.309 140.982 125.766 126.484 141.963 132.224C142.131 133.188 142.299 134.068 142.551 134.78ZM130.759 107.544C130.424 106.873 130.088 106.119 129.794 105.281C112.716 101.845 91.609 120.827 90.3921 104.401C89.2172 88.3528 119.807 97.3617 129.542 104.611C125.43 92.2078 124.885 63.4631 139.529 68.2818C155.475 73.5195 130.759 89.8194 130.759 107.544ZM48.9758 31.0729C40.7513 23.782 7.4337 13.2227 8.69255 29.9834C9.90944 46.7442 31.7715 26.757 48.9758 31.0729ZM78.0134 45.9062C69.2014 39.2857 52.2069 8.82299 68.9077 6.68599C85.5665 4.54899 70.3344 29.9416 78.0134 45.9062ZM98.4907 63.0441C91.651 54.4123 83.0908 20.5974 99.7496 22.8182C116.408 25.039 95.1757 45.6548 98.4907 63.0441ZM116.492 84.2883C115.401 66.6057 139.068 48.7974 122.787 44.5234C106.547 40.2494 110.786 74.8604 116.492 84.2883ZM115.275 82.9056C98.0711 78.5897 76.209 98.535 74.9921 81.8161C73.7752 65.0553 107.051 75.6146 115.275 82.9056ZM79.0205 46.9118C61.8161 42.5959 39.9541 62.5412 38.7372 45.8224C37.4783 29.1035 70.796 39.6209 79.0205 46.9118Z" fill="#CBF2FB"/>
<path opacity="0.5" fill-rule="evenodd" clip-rule="evenodd" d="M149.642 147.267C147.628 141.317 145.404 135.409 143.012 129.584C144.061 122.587 147.334 108.466 156.985 99.6664C146.327 105.952 143.348 120.869 142.676 128.746C139.026 120.073 134.955 111.525 130.382 103.312C130.13 96.6913 130.549 81.3133 138.942 70.4188C129.123 78.8411 129.207 95.0152 129.962 102.558C125.682 94.9314 120.982 87.6405 115.905 80.7267C115.191 74.5252 114.394 58.4768 122.325 46.7442C112.674 56.0884 114.226 73.1424 115.527 80.182C109.988 72.7234 103.946 65.7677 97.4416 59.4405C95.973 53.2809 93.2454 37.6096 99.5816 25.081C91.2313 35.5145 94.798 52.1077 96.98 59.0215C90.434 52.7781 83.4264 47.1633 75.9152 42.4283C72.852 36.6459 66.4319 22.483 69.2853 8.94873C63.9981 20.9327 71.3414 35.724 75.2438 42.0512C64.2918 35.2212 52.3327 30.193 39.3246 27.4694C35.7998 26.5475 31.5617 25.7095 27.1976 25.6257C26.6102 25.5838 26.0647 25.5419 25.4772 25.4581C25.771 25.5 26.1066 25.5419 26.4004 25.5838C21.0293 25.5838 15.5323 26.6313 10.9585 29.8578C19.9383 25.9609 30.1769 26.5475 37.6042 27.8884C51.5355 31.492 63.9561 37.4839 75.034 45.1101C68.2362 42.5122 51.9131 38.0287 41.0031 45.7386C54.263 39.998 70.2504 43.9787 75.9572 45.7805C82.8809 50.6411 89.2591 56.1303 95.1337 62.0384C88.1261 59.4405 72.1806 55.2084 61.4384 62.7927C74.1528 57.2616 89.3849 60.7395 95.6372 62.5832C101.428 68.4494 106.715 74.7347 111.499 81.2295C104.869 78.6735 88.252 73.9386 77.216 81.7323C90.2242 76.0756 105.834 79.8048 111.834 81.6485C117.038 88.73 121.695 96.0628 125.85 103.354C118.632 100.756 103.106 96.8589 92.616 104.276C104.869 98.954 119.472 101.971 126.101 103.857C131.053 112.698 135.291 121.497 138.774 129.794C132.018 125.981 117.583 119.654 106.128 125.059C119.01 121.958 132.731 127.364 139.026 130.38C141.627 136.624 143.851 142.574 145.698 148.063C146.831 151.373 147.88 154.767 148.929 158.245C142.55 153.846 128.703 146.219 116.786 150.619C129.92 148.65 143.138 155.27 149.138 158.832C160.552 197.424 166.93 246.449 160.762 284.789C172.259 243.432 162.105 189.504 152.957 158.078C154.635 151.206 159.125 137.462 169.532 129.542C158.37 134.864 154.09 149.362 152.705 157.198C151.698 153.552 150.607 150.2 149.642 147.267Z" fill="#89E4F8"/>
<path fill-rule="evenodd" clip-rule="evenodd" d="M183.17 164.154L253.749 123.215L237.384 45.5712V45.5293V45.4874V45.4455V45.4036V45.3617V45.3198V45.2779V45.236V45.1941V45.1521V45.1102V45.0683V45.0264V44.9845V44.9426V44.9007V44.8588V44.8169V44.775V44.7331V44.6912V44.6493V44.6074V44.5655V44.5236V44.4817V44.4398V44.3979V44.356L237.342 44.3141V44.2722V44.2303L237.3 44.1884L237.258 44.1465L237.216 44.1046V44.0627L237.174 44.0208L237.132 43.9789L237.09 43.937L237.048 43.8951L237.006 43.8532H236.965H236.923H236.881C236.587 43.6856 236.251 43.6437 235.832 43.8113L164.706 84.6656C167.014 83.4086 176.414 141.275 183.17 164.154Z" fill="#FFC5C3"/>
<path fill-rule="evenodd" clip-rule="evenodd" d="M237.342 45.571L183.547 77.7517L179.561 147.812C180.19 153.887 182.037 159.796 182.792 165.83L253.749 123.215L237.342 45.571Z" fill="#D0C0EB"/>
<path fill-rule="evenodd" clip-rule="evenodd" d="M201.381 105.449C201.255 105.323 201.129 105.239 201.045 105.197C200.5 104.862 199.996 105.03 199.828 105.574L183.17 164.153L166.804 86.5091C166.679 85.7967 166.175 85.0844 165.63 84.7492C165.504 84.6654 165.378 84.6235 165.294 84.6235C164.622 84.4559 164.203 85.0006 164.413 85.8805L180.904 164.028C181.197 165.368 181.533 166.416 181.911 167.086C182.288 167.799 182.75 168.302 183.253 168.595C183.757 168.888 184.177 168.888 184.554 168.637C184.932 168.343 185.226 167.757 185.519 166.793L202.346 107.711C202.472 107.083 202.052 106.035 201.381 105.449Z" fill="#AE8EE1"/>
<path fill-rule="evenodd" clip-rule="evenodd" d="M316.692 6.76985C316.692 5.05187 318.035 3.6691 317.447 2.53775C316.818 1.3645 314.132 0.610265 312.999 0.233148C311.363 -0.269675 309.349 0.0236385 307.125 1.2807L190.932 67.8628C185.687 70.8798 181.407 78.2545 181.449 84.2884L181.659 148.692C181.659 151.667 182.708 153.762 184.386 154.767C185.394 155.396 188.289 156.527 189.674 156.276C190.681 156.108 190.093 154.809 191.226 154.139L307.418 87.5986C312.664 84.5817 316.944 77.2069 316.902 71.1731L316.692 6.76985Z" fill="url(#paint0_linear)"/>
<path fill-rule="evenodd" clip-rule="evenodd" d="M319.042 7.60787C319.042 1.57399 314.762 -0.856318 309.474 2.16062L193.282 68.7427C188.037 71.7597 183.757 79.1344 183.799 85.1683L184.051 149.613C184.051 155.647 188.373 158.078 193.618 155.061L309.768 88.4366C315.013 85.4197 319.294 78.045 319.252 72.0111L319.042 7.60787Z" fill="white"/>
<path fill-rule="evenodd" clip-rule="evenodd" d="M319.042 7.60787C319.042 1.57399 314.762 -0.856318 309.474 2.16062L193.282 68.7428C188.037 71.7597 183.757 79.1344 183.799 85.1683L183.841 94.9314L319.084 17.4129L319.042 7.60787Z" fill="url(#paint1_linear)"/>
<path opacity="0.2" fill-rule="evenodd" clip-rule="evenodd" d="M292.941 40.6266C282.913 42.9312 275.234 54.8313 275.737 67.2343C276.283 79.6373 284.801 87.85 294.83 85.5454C304.859 83.2408 312.538 71.3407 312.034 58.9377C311.531 46.5348 302.97 38.3639 292.941 40.6266Z" fill="#8E92DD"/>
<path fill-rule="evenodd" clip-rule="evenodd" d="M293.403 50.9764C287.99 52.1915 283.836 58.6444 284.13 65.3487C284.423 72.053 289.039 76.4527 294.41 75.2376C299.823 74.0224 303.977 67.5695 303.684 60.8652C303.432 54.2028 298.816 49.7612 293.403 50.9764ZM293.655 56.675C296.508 56.0046 298.984 58.3511 299.11 61.9128C299.278 65.4744 297.054 68.8685 294.2 69.5389C291.347 70.2094 288.871 67.8629 288.745 64.3012C288.577 60.7395 290.759 57.3455 293.655 56.675Z" fill="url(#paint2_linear)"/>
<path opacity="0.2" fill-rule="evenodd" clip-rule="evenodd" d="M269.695 63.2536C269.485 60.4043 267.429 59.1891 265.037 60.5719L193.114 99.8759C190.765 101.259 189.002 104.653 189.17 107.502L189.548 113.159C189.758 116.008 191.814 117.223 194.205 115.841L266.128 76.5365C268.478 75.1538 270.24 71.7597 270.072 68.9104L269.695 63.2536Z" fill="#8E92DD"/>
<path opacity="0.2" fill-rule="evenodd" clip-rule="evenodd" d="M268.981 86.0481C268.772 84.372 267.471 83.6597 266.128 84.4558L225.131 107.669C223.789 108.466 222.865 110.477 223.075 112.195L223.495 115.505C223.705 117.181 225.005 117.894 226.348 117.097L267.345 93.8838C268.688 93.0876 269.611 91.0763 269.401 89.3583L268.981 86.0481Z" fill="#8E92DD"/>
<path fill-rule="evenodd" clip-rule="evenodd" d="M201.842 106.873L184.806 163.609C184.596 164.237 184.764 168.344 184.428 168.679L255.008 127.741C255.637 127.405 255.973 126.442 256.057 125.855L272.884 66.7733L276.031 55.7112C276.199 54.8732 275.611 53.8676 275.443 53.7C272.506 56.3817 256.854 65.9353 254.001 67.6114C249.175 71.3826 249.007 75.2794 241.664 83.0313C240.279 84.4979 239.776 84.9169 238.055 85.9225L201.842 106.873Z" fill="#9694DD"/>
<path fill-rule="evenodd" clip-rule="evenodd" d="M201.381 105.449C201.255 105.323 201.129 105.239 201.045 105.197C200.5 104.862 199.996 105.03 199.828 105.575L183.17 164.153L181.827 167.087C182.204 167.799 182.666 168.302 183.17 168.595C183.673 168.888 184.093 168.888 184.47 168.637C184.848 168.344 185.142 167.757 185.435 166.793L202.262 107.712C202.472 107.083 202.052 106.036 201.381 105.449Z" fill="#AE8EE1"/>
<path fill-rule="evenodd" clip-rule="evenodd" d="M235.747 84.4559L200.163 105.114C201.087 104.653 202.513 106.748 202.262 107.712L238.223 86.8444C239.44 86.132 240.153 85.7549 241.202 84.9169C246.321 80.8943 248.713 75.3632 252.07 70.8797C253.035 69.6227 253.958 68.7008 254.924 67.9885C255.805 67.4857 256.266 67.2343 256.14 67.3181L275.988 55.6693C276.156 54.8313 275.527 53.8676 275.359 53.6999C274.981 53.2809 274.394 52.82 273.848 53.0714L253.958 64.762C254.126 64.6782 253.665 64.9297 252.741 65.4325C251.776 66.1448 250.811 67.0667 249.888 68.3237C246.363 73.0586 243.846 78.3802 238.097 82.8637C237.342 83.5341 236.67 83.9531 235.747 84.4559Z" fill="#DFB6E7"/>
<path fill-rule="evenodd" clip-rule="evenodd" d="M403.553 50.0126C405.483 48.9232 407.791 48.5042 409.931 49.3003L414.715 51.1859C416.435 60.1529 168.315 472.132 166.091 474.395L161.811 472.803C159 471.713 157.531 468.78 157.111 465.973L121.066 220.176C121.066 220.176 121.066 220.176 121.066 220.134C120.479 215.986 121.738 211.712 124.003 208.234C125.22 206.391 126.857 204.673 128.829 203.583L403.553 50.0126Z" fill="url(#paint3_linear)"/>
<path fill-rule="evenodd" clip-rule="evenodd" d="M133.529 205.385L408.253 51.8143C413.456 48.9231 418.407 51.6886 419.33 57.9739L455.376 303.77C456.299 310.014 452.858 317.431 447.655 320.322L172.931 473.892C167.728 476.783 162.776 474.018 161.853 467.775L125.808 221.978C124.843 215.693 128.326 208.276 133.529 205.385Z" fill="#3FB0F7"/>
<path opacity="0.5" fill-rule="evenodd" clip-rule="evenodd" d="M167.35 252.985C168.357 252.441 169.364 252.985 169.574 254.2C169.742 255.457 169.07 256.966 168.021 257.553C166.93 258.139 165.965 257.594 165.755 256.296C165.588 255.08 166.259 253.572 167.35 252.985ZM426.506 286.423L411.651 185.23L413.456 184.224L428.31 285.417L426.506 286.423ZM411.651 178.232C412.658 177.688 413.666 178.232 413.875 179.489C414.043 180.746 413.372 182.255 412.323 182.8C411.232 183.386 410.225 182.841 410.057 181.584C409.847 180.369 410.56 178.861 411.651 178.232ZM397.007 302.89L383.033 207.731L384.838 206.726L398.811 301.885L397.007 302.89ZM383.033 200.776C384.082 200.189 385.09 200.776 385.257 202.033C385.425 203.29 384.754 204.798 383.705 205.385C382.656 205.971 381.649 205.427 381.439 204.17C381.271 202.871 381.984 201.362 383.033 200.776ZM367.969 319.106L349.002 193.066L350.807 192.06L369.815 318.101L367.969 319.106ZM348.96 186.152C350.01 185.565 351.017 186.11 351.226 187.409C351.394 188.666 350.723 190.174 349.632 190.761C348.625 191.306 347.618 190.761 347.408 189.504C347.24 188.205 347.911 186.696 348.96 186.152ZM337.925 335.909L314.929 178.4L316.692 177.436L339.687 334.945L337.925 335.909ZM314.888 171.486C315.937 170.899 316.902 171.486 317.112 172.785C317.279 174 316.608 175.509 315.559 176.095C314.468 176.682 313.503 176.095 313.335 174.88C313.167 173.539 313.838 172.073 314.888 171.486ZM308.425 352.418L284.507 188.582L286.312 187.576L310.23 351.413L308.425 352.418ZM284.465 181.626C285.514 181.04 286.521 181.626 286.689 182.883C286.857 184.14 286.186 185.649 285.137 186.236C284.088 186.822 283.081 186.277 282.871 185.02C282.703 183.721 283.416 182.213 284.465 181.626ZM279.598 368.551L256.812 217.327L258.617 216.321L281.402 367.503L279.598 368.551ZM256.812 210.371C257.82 209.784 258.827 210.329 259.036 211.628C259.204 212.843 258.491 214.352 257.484 214.938C256.393 215.525 255.428 214.98 255.26 213.723C255.05 212.424 255.721 210.958 256.812 210.371ZM250.896 381.079L249.091 382.085L230.041 252.231L231.845 251.225L250.896 381.079ZM229.999 245.275C231.048 244.689 232.055 245.233 232.265 246.532C232.433 247.789 231.761 249.298 230.67 249.885C229.621 250.471 228.614 249.885 228.446 248.627C228.236 247.37 228.95 245.862 229.999 245.275ZM220.096 401.779L201.423 274.565L203.227 273.559L221.9 400.773L220.096 401.779ZM201.381 267.651C202.43 267.064 203.395 267.609 203.605 268.866C203.773 270.123 203.101 271.632 202.052 272.218C201.003 272.805 199.996 272.26 199.786 270.961C199.619 269.704 200.332 268.238 201.381 267.651ZM188.247 388.789L186.443 389.795L167.392 259.941L169.196 258.935L188.247 388.789Z" fill="#3856D8"/>
<path opacity="0.5" fill-rule="evenodd" clip-rule="evenodd" d="M155.978 265.765C156.272 265.179 156.734 264.76 157.195 264.508C157.783 264.173 158.412 264.173 158.916 264.508C163.322 267.902 167.392 270.877 171.168 273.391C174.903 275.947 178.428 278.084 181.701 279.886C196.891 288.141 207.885 288.728 218.711 282.736C229.286 276.66 239.524 263.796 252.868 245.736C267.806 225.498 280.94 211.838 294.2 204.463C296.173 203.373 298.103 202.452 300.075 201.613C315.349 195.328 330.875 197.507 349.464 207.941C351.394 208.988 353.241 210.078 355.129 211.167C369.438 219.464 382.866 227.174 397.342 219.17C404.854 215.022 412.7 206.558 421.051 191.725C421.345 191.138 421.806 190.719 422.226 190.468C422.813 190.132 423.485 190.132 423.988 190.509C424.827 191.18 424.911 192.814 424.198 194.113C414.84 210.706 406.196 220.05 397.93 224.66C382.32 233.291 368.011 224.995 352.737 216.195C350.849 215.148 349.002 214.058 347.072 213.011C329.322 203.038 314.636 200.901 300.327 206.767C298.564 207.48 296.802 208.36 295.04 209.323C282.535 216.237 269.905 229.394 255.512 248.921C241.664 267.609 231.048 280.976 219.55 287.596C219.341 287.722 219.089 287.848 218.879 287.973C207.465 294.3 195.548 293.756 179.393 284.998C176.036 283.196 172.469 280.976 168.609 278.378C164.79 275.738 160.636 272.763 156.23 269.369C155.307 268.74 155.223 267.148 155.978 265.765Z" fill="#3856D8"/>
<path fill-rule="evenodd" clip-rule="evenodd" d="M158.454 256.212C158.79 255.625 159.209 255.206 159.671 254.955C160.258 254.62 160.93 254.62 161.391 254.997C165.797 258.475 169.868 261.45 173.644 264.047C177.379 266.687 180.904 268.824 184.177 270.71C199.367 279.174 210.361 279.928 221.187 274.104C231.761 268.154 242 255.458 255.344 237.565C270.282 217.536 283.416 204.044 296.676 196.879C298.648 195.831 300.579 194.909 302.551 194.113C317.825 188.037 333.351 190.426 351.982 201.153C353.912 202.2 355.758 203.332 357.647 204.463C371.914 212.927 385.341 220.847 399.818 213.053C407.329 208.988 415.176 200.692 423.527 185.942C423.82 185.356 424.282 184.937 424.702 184.727C425.289 184.392 425.96 184.392 426.464 184.811C427.303 185.523 427.387 187.157 426.674 188.456C417.316 204.924 408.672 214.142 400.406 218.626C384.796 227.048 370.487 218.542 355.213 209.533C353.325 208.444 351.478 207.354 349.548 206.265C331.798 196.041 317.112 193.694 302.761 199.351C300.998 200.063 299.236 200.901 297.473 201.823C284.969 208.569 272.338 221.559 257.945 240.876C244.098 259.396 233.482 272.595 221.984 279.048C221.774 279.174 221.523 279.3 221.313 279.425C209.899 285.585 197.982 284.873 181.827 275.864C178.47 274.02 174.903 271.757 171.043 269.076C167.224 266.394 163.07 263.335 158.664 259.899C157.783 259.187 157.699 257.595 158.454 256.212Z" fill="#6BB6FF"/>
<path fill-rule="evenodd" clip-rule="evenodd" d="M161.391 255.039C168.651 260.737 176.162 266.185 184.177 270.752C199.367 279.216 210.361 279.97 221.187 274.146C231.761 268.196 242 255.5 255.344 237.608C267.135 221.769 283.584 201.698 302.593 194.155C322.944 186.068 340.023 194.071 357.647 204.463C371.914 212.927 385.341 220.847 399.818 213.053C407.329 208.989 415.176 200.692 423.527 185.942C423.82 185.356 424.282 184.937 424.701 184.727C422.31 190.803 411.651 208.905 401.371 214.478C385.761 222.9 372.375 215.525 357.101 206.474C340.065 196.795 322.483 188.079 302.803 195.873C284.927 202.997 267.723 223.822 256.603 238.739C242.755 257.26 232.81 269.872 221.313 276.367C211.745 281.73 203.689 281.437 195.255 278.294C186.401 274.984 165.881 262.078 161.391 255.039Z" fill="#00FFFF"/>
<path opacity="0.5" fill-rule="evenodd" clip-rule="evenodd" d="M444.801 298.658C444.591 297.108 443.416 296.438 442.2 297.192L173.099 451.265C171.882 452.019 171.043 453.863 171.294 455.413L172.008 460.106C172.217 461.657 173.392 462.327 174.609 461.573L443.668 307.458C444.885 306.704 445.724 304.86 445.473 303.309L444.801 298.658Z" fill="white"/>
<path opacity="0.5" fill-rule="evenodd" clip-rule="evenodd" d="M444.13 299.245C443.92 297.863 442.871 297.234 441.738 297.905L339.645 356.358C338.554 357.028 337.799 358.704 338.009 360.129L338.638 364.403C338.848 365.786 339.897 366.414 341.03 365.744L443.123 307.249C444.256 306.578 444.969 304.902 444.759 303.477L444.13 299.245Z" fill="white"/>
<path opacity="0.5" fill-rule="evenodd" clip-rule="evenodd" d="M317.405 226.587L323.196 268.489L287.654 269.453L317.405 226.587Z" fill="white"/>
<path opacity="0.5" fill-rule="evenodd" clip-rule="evenodd" d="M312.244 285.25C326.175 276.744 336.036 256.128 334.316 239.2C332.595 222.271 319.923 215.441 306.034 223.947C292.102 232.453 282.241 253.069 283.962 269.998C285.682 286.884 298.355 293.714 312.244 285.25ZM312.957 292.415C295.795 302.891 280.185 294.468 278.045 273.601C275.947 252.734 288.116 227.299 305.32 216.782C322.483 206.307 338.092 214.729 340.232 235.596C342.331 256.463 330.162 281.898 312.957 292.415Z" fill="white"/>
<path opacity="0.5" fill-rule="evenodd" clip-rule="evenodd" d="M220.18 286.046L141.25 328.702L136.55 326.02L132.438 299.915L127.444 231.49L206.962 188.54C214.137 184.685 220.977 188.54 222.236 197.214L230.838 263.377C232.139 272.009 227.355 282.191 220.18 286.046Z" fill="url(#paint4_linear)"/>
<path fill-rule="evenodd" clip-rule="evenodd" d="M66.6417 283.448L76.5027 350.366L75.3278 350.491L72.0967 349.192C68.5719 347.768 66.7256 344.08 66.1801 340.477L58.2913 280.096V280.054C57.536 274.816 59.1306 269.453 61.984 265.137C63.5365 262.832 65.5507 260.695 68.0684 259.355L197.227 189.546C199.702 188.205 202.556 187.702 205.241 188.75L208.095 189.881C209.521 190.426 209.983 190.887 209.941 190.971C208.64 203.416 64.7954 270.626 66.6417 283.448Z" fill="#D0E7FF"/>
<path fill-rule="evenodd" clip-rule="evenodd" d="M71.3414 260.696L200.458 190.845C203.311 189.295 206.123 189.085 208.472 190.049C211.494 191.264 213.718 194.323 214.389 198.765L222.278 259.145C223.453 267.065 219.089 276.325 212.543 279.887L83.3845 349.737C76.8385 353.257 70.5861 349.737 69.4112 341.818L61.5224 281.437C60.4314 273.517 64.7954 264.215 71.3414 260.696Z" fill="#ECF5FF"/>
<path opacity="0.5" fill-rule="evenodd" clip-rule="evenodd" d="M68.9496 285.795L142.508 246.323C143.18 245.946 143.851 245.904 144.439 246.114C145.152 246.407 145.698 247.119 145.865 248.209L146.369 251.184C146.663 253.069 145.614 255.29 144.019 256.128L70.4602 295.6C68.9077 296.438 67.397 295.6 67.1033 293.714L66.5998 290.739C66.3061 288.854 67.3551 286.633 68.9496 285.795Z" fill="#22D2FB"/>
<path opacity="0.5" fill-rule="evenodd" clip-rule="evenodd" d="M71.5932 304.022L145.152 264.55C145.824 264.173 146.495 264.131 147.082 264.341C147.796 264.634 148.341 265.346 148.509 266.436L149.013 269.411C149.306 271.296 148.257 273.517 146.663 274.355L73.1038 313.827C71.5512 314.665 70.0406 313.827 69.7469 311.941L69.2433 308.966C68.9915 307.081 70.0406 304.86 71.5932 304.022Z" fill="#FFC5C3"/>
<path opacity="0.5" fill-rule="evenodd" clip-rule="evenodd" d="M118.548 297.946L147.838 282.736C148.509 282.359 149.18 282.317 149.768 282.526C150.481 282.82 151.027 283.532 151.195 284.621L151.698 287.596C151.992 289.482 150.943 291.703 149.348 292.541L120.101 307.709C118.548 308.547 117.038 307.709 116.786 305.824L116.282 302.849C115.947 301.005 116.996 298.784 118.548 297.946Z" fill="#FFC5C3"/>
<path fill-rule="evenodd" clip-rule="evenodd" d="M212.375 228.557C214.641 248.921 203.353 273.643 187.114 283.7C170.875 293.756 155.307 280.347 153.586 265.011C151.866 249.675 154.761 243.348 159.377 233.292C162.189 234.884 165.042 236.476 167.853 238.026C164.832 244.479 162.986 248.628 164.077 258.475C165.168 268.322 175.197 276.953 185.603 270.5C196.01 264.048 203.269 248.167 201.842 235.093C205.325 232.914 208.85 230.736 212.375 228.557Z" fill="#22D2FB"/>
<path fill-rule="evenodd" clip-rule="evenodd" d="M200.835 207.815C206.92 211.168 211.242 218.375 212.375 228.557C208.85 230.736 205.325 232.915 201.884 235.052C201.171 228.515 198.402 223.864 194.499 221.727C196.597 217.118 198.695 212.467 200.835 207.815Z" fill="#12A3EB"/>
<path fill-rule="evenodd" clip-rule="evenodd" d="M178.847 209.868C186.988 204.84 194.751 204.421 200.835 207.773C198.737 212.424 196.597 217.117 194.457 221.726C190.555 219.548 185.519 219.841 180.358 223.067C175.155 226.294 170.707 231.867 167.769 238.278C164.958 236.727 162.105 235.135 159.293 233.543C163.867 223.57 170.707 214.896 178.847 209.868Z" fill="#1C8DF3"/>
<path opacity="0.5" fill-rule="evenodd" clip-rule="evenodd" d="M319.335 199.477C320.678 209.659 328.357 214.1 336.54 209.366L433.136 152.882L430.954 137.588L413.246 56.2979L323.112 109.01C314.93 113.745 309.391 125.813 310.733 135.995L319.335 199.477Z" fill="url(#paint5_linear)"/>
<path fill-rule="evenodd" clip-rule="evenodd" d="M467.167 44.1462C466.705 40.5426 467.67 38.3218 465.866 36.2687C464.733 34.9697 461.082 33.2936 459.572 32.707C456.634 31.6175 453.152 31.9528 449.585 34.0059L330.12 104.024C321.811 108.843 316.146 121.162 317.489 131.554L324.581 183.68C325 186.906 326.217 191.054 328.945 193.443C330.917 195.119 334.19 196.879 336.498 197.172C338.848 197.465 339.477 195.328 342.163 193.82L461.628 123.802C469.978 118.983 475.601 106.664 474.258 96.2722L467.167 44.1462Z" fill="#D0E7FF"/>
<path fill-rule="evenodd" clip-rule="evenodd" d="M469.978 45.7804C468.635 35.3887 460.747 30.8633 452.438 35.682L332.973 105.7C324.665 110.519 319 122.838 320.343 133.23L327.434 185.398C328.819 195.789 336.666 200.315 345.016 195.496L464.439 125.478C472.79 120.659 478.413 108.34 477.07 97.9483L469.978 45.7804Z" fill="#ECF5FF"/>
<path fill-rule="evenodd" clip-rule="evenodd" d="M412.868 92.4591C412.449 89.3584 410.141 88.0594 407.665 89.526L332.553 132.056C330.078 133.523 328.399 137.252 328.819 140.311L329.616 146.429C330.036 149.53 332.344 150.828 334.819 149.362L409.931 106.831C412.407 105.365 414.085 101.636 413.666 98.5768L412.868 92.4591Z" fill="#86E4FD"/>
<path fill-rule="evenodd" clip-rule="evenodd" d="M415.764 114.919C415.512 113.117 414.169 112.321 412.7 113.201L368.347 138.3C366.878 139.18 365.913 141.359 366.123 143.161L366.584 146.764C366.836 148.566 368.221 149.362 369.648 148.482L414.001 123.383C415.47 122.503 416.435 120.324 416.225 118.522L415.764 114.919Z" fill="#86E4FD"/>
<path opacity="0.2" fill-rule="evenodd" clip-rule="evenodd" d="M444.13 60.3206C430.366 63.4633 419.834 79.805 420.547 96.8591C421.261 113.871 433.01 125.143 446.773 122C460.537 118.858 471.069 102.516 470.356 85.4618C469.601 68.4496 457.893 57.178 444.13 60.3206Z" fill="#8E92DD"/>
<path fill-rule="evenodd" clip-rule="evenodd" d="M436.073 116.888C439.22 118.271 442.829 118.648 446.564 117.81C456.844 115.463 465.027 104.611 466.705 92.2077L447.109 91.8306L436.073 116.888Z" fill="url(#paint6_linear)"/>
<path fill-rule="evenodd" clip-rule="evenodd" d="M437.542 67.4019C429.149 72.891 423.401 84.2883 423.904 96.0628C424.282 104.653 427.891 111.566 433.22 115.296L444.256 90.1127L437.542 67.4019Z" fill="#FFC5C3"/>
<path fill-rule="evenodd" clip-rule="evenodd" d="M444.298 64.5106C442.997 64.8039 441.696 65.2648 440.479 65.8095L447.235 88.5623L466.999 88.9394C467.041 88.0595 467.041 87.1376 466.999 86.2158C466.328 71.5082 456.173 61.7869 444.298 64.5106Z" fill="url(#paint7_linear)"/>
<path opacity="0.5" fill-rule="evenodd" clip-rule="evenodd" d="M421.428 178.316L400.154 190.761C391.552 195.747 385.719 208.486 387.146 219.171L394.447 272.973C395.874 283.7 403.972 288.351 412.575 283.406L449.207 261.952L440.605 209.282L421.428 178.316Z" fill="url(#paint8_linear)"/>
<path fill-rule="evenodd" clip-rule="evenodd" d="M540.978 121.707C540.516 118.103 541.481 115.882 539.677 113.829C538.544 112.53 534.893 110.854 533.382 110.268C530.445 109.178 526.962 109.513 523.396 111.566L403.93 181.585C395.622 186.403 389.957 198.722 391.3 209.114L398.391 261.24C398.811 264.467 400.028 268.615 402.755 270.961C404.728 272.637 408.001 274.397 410.309 274.691C412.658 274.984 413.288 272.847 415.973 271.338L535.481 201.362C543.789 196.544 549.454 184.224 548.069 173.833L540.978 121.707Z" fill="#D0E7FF"/>
<path fill-rule="evenodd" clip-rule="evenodd" d="M543.789 123.341C542.446 112.949 534.557 108.424 526.249 113.243L406.784 183.261C398.475 188.079 392.811 200.399 394.153 210.79L401.245 262.916C402.588 273.308 410.476 277.833 418.827 273.015L538.25 203.038C546.6 198.22 552.265 185.859 550.881 175.509L543.789 123.341Z" fill="#9694DD"/>
<path fill-rule="evenodd" clip-rule="evenodd" d="M510.765 140.772C510.597 139.431 509.59 138.845 508.499 139.515L411.022 195.454C409.931 196.083 409.218 197.717 409.385 199.058L409.721 201.698C409.889 203.038 410.896 203.625 411.987 202.955L509.464 147.057C510.555 146.429 511.269 144.795 511.101 143.454L510.765 140.772Z" fill="#FFC5C3"/>
<path opacity="0.5" fill-rule="evenodd" clip-rule="evenodd" d="M530.151 131.344L532.291 146.68L519.283 147.016L530.151 131.344Z" fill="white"/>
<path opacity="0.5" fill-rule="evenodd" clip-rule="evenodd" d="M528.263 152.756C533.341 149.655 536.949 142.113 536.32 135.953C535.69 129.752 531.075 127.28 525.997 130.38C520.92 133.481 517.311 141.023 517.941 147.183C518.57 153.385 523.186 155.899 528.263 152.756ZM528.557 155.396C522.305 159.209 516.598 156.15 515.8 148.524C515.045 140.898 519.493 131.596 525.745 127.782C531.998 123.969 537.705 127.028 538.502 134.654C539.257 142.281 534.809 151.541 528.557 155.396Z" fill="white"/>
<path opacity="0.5" fill-rule="evenodd" clip-rule="evenodd" d="M535.732 167.966L537.83 183.26L524.864 183.638L535.732 167.966Z" fill="white"/>
<path opacity="0.5" fill-rule="evenodd" clip-rule="evenodd" d="M533.844 189.379C538.921 186.278 542.53 178.735 541.901 172.576C541.271 166.374 536.656 163.902 531.578 167.003C526.501 170.104 522.892 177.646 523.521 183.806C524.109 190.007 528.767 192.479 533.844 189.379ZM534.096 192.018C527.844 195.831 522.137 192.773 521.339 185.146C520.584 177.52 525.032 168.218 531.284 164.405C537.537 160.592 543.244 163.651 544.041 171.277C544.838 178.903 540.39 188.163 534.096 192.018Z" fill="white"/>
<path opacity="0.5" fill-rule="evenodd" clip-rule="evenodd" d="M512.36 153.301C512.234 152.253 511.436 151.792 510.555 152.295L433.723 196.376C432.884 196.879 432.297 198.136 432.422 199.225L432.674 201.32C432.8 202.368 433.597 202.829 434.479 202.326L511.353 158.245C512.192 157.742 512.779 156.485 512.653 155.396L512.36 153.301Z" fill="white"/>
<path fill-rule="evenodd" clip-rule="evenodd" d="M515.381 179.909C515.213 178.568 514.206 177.981 513.115 178.652L415.638 234.591C414.547 235.219 413.833 236.853 414.001 238.194L414.337 240.834C414.505 242.175 415.512 242.762 416.603 242.091L514.08 186.194C515.171 185.565 515.884 183.931 515.717 182.59L515.381 179.909Z" fill="#86E4FD"/>
<path opacity="0.5" fill-rule="evenodd" clip-rule="evenodd" d="M516.975 192.479C516.85 191.432 516.052 190.971 515.171 191.474L438.381 235.512C437.542 236.015 436.954 237.272 437.08 238.362L437.332 240.457C437.458 241.504 438.255 241.965 439.136 241.463L515.968 197.382C516.808 196.879 517.395 195.622 517.269 194.532L516.975 192.479Z" fill="white"/>
<path fill-rule="evenodd" clip-rule="evenodd" d="M325.881 248.744C324.874 240.699 318.748 237.556 312.244 241.788L173.686 325.592C167.182 329.824 162.692 339.797 163.741 347.842L171.085 408.265C172.092 416.31 178.218 419.452 184.722 415.22L323.28 331.417C329.784 327.184 334.274 317.212 333.225 309.167L325.881 248.744Z" fill="white"/>
<path fill-rule="evenodd" clip-rule="evenodd" d="M238.433 311.723C237.72 305.94 233.314 303.678 228.656 306.736L180.736 336.361C176.078 339.378 172.847 346.543 173.602 352.326L178.889 395.694C179.603 401.477 184.009 403.739 188.666 400.681L236.587 371.056C241.245 368.039 244.476 360.874 243.72 355.091L238.433 311.723Z" fill="#D4E5FF"/>
<path fill-rule="evenodd" clip-rule="evenodd" d="M312.789 264.751C312.076 258.968 307.67 256.705 303.012 259.764L255.092 289.389C250.434 292.406 247.203 299.571 247.958 305.354L253.246 348.722C253.959 354.505 258.365 356.767 263.023 353.708L310.943 324.084C315.601 321.067 318.832 313.902 318.077 308.119L312.789 264.751Z" fill="#D4E5FF"/>
<path fill-rule="evenodd" clip-rule="evenodd" d="M311.027 316.593L286.605 282.82L281.864 318.646L269.988 305.74L262.981 344.038L311.027 316.593Z" fill="#9694DD"/>
<path fill-rule="evenodd" clip-rule="evenodd" d="M270.786 284.328C268.184 284.873 266.212 287.931 266.38 291.158C266.548 294.384 268.813 296.563 271.457 296.06C274.059 295.516 276.031 292.457 275.863 289.23C275.653 286.004 273.387 283.783 270.786 284.328Z" fill="#FFDB59"/>
<path fill-rule="evenodd" clip-rule="evenodd" d="M213.886 335.071L217.62 361.805L194.919 362.391L213.886 335.071Z" fill="url(#paint9_linear)"/>
<path fill-rule="evenodd" clip-rule="evenodd" d="M210.613 372.49C219.508 367.084 225.803 353.927 224.712 343.116C223.621 332.306 215.522 327.948 206.668 333.395C197.814 338.8 191.478 351.958 192.569 362.768C193.66 373.537 201.759 377.895 210.613 372.49ZM211.074 377.057C200.122 383.761 190.135 378.356 188.792 365.073C187.45 351.748 195.213 335.532 206.165 328.828C217.117 322.124 227.104 327.487 228.446 340.812C229.831 354.137 222.026 370.353 211.074 377.057Z" fill="url(#paint10_linear)"/>
<defs>
<linearGradient id="paint0_linear" x1="245.692" y1="46.1295" x2="257.621" y2="137.571" gradientUnits="userSpaceOnUse">
<stop stop-color="#C4E0F5"/>
<stop offset="1" stop-color="#E1E8F6"/>
</linearGradient>
<linearGradient id="paint1_linear" x1="259.796" y1="58.7251" x2="241.439" y2="38.6131" gradientUnits="userSpaceOnUse">
<stop stop-color="#6D6AFE"/>
<stop offset="1" stop-color="#3FB0F7"/>
</linearGradient>
<linearGradient id="paint2_linear" x1="296.056" y1="72.3552" x2="291.202" y2="51.3615" gradientUnits="userSpaceOnUse">
<stop stop-color="#6D6AFE"/>
<stop offset="1" stop-color="#3FB0F7"/>
</linearGradient>
<linearGradient id="paint3_linear" x1="272.003" y1="174.348" x2="312.93" y2="423.104" gradientUnits="userSpaceOnUse">
<stop stop-color="#E8F5FF"/>
<stop offset="1" stop-color="#F5F9FF"/>
</linearGradient>
<linearGradient id="paint4_linear" x1="167.111" y1="232.261" x2="200.826" y2="311.029" gradientUnits="userSpaceOnUse">
<stop stop-color="#8E67CD"/>
<stop offset="1" stop-color="#FFC5C3"/>
</linearGradient>
<linearGradient id="paint5_linear" x1="387.372" y1="93.3206" x2="343.687" y2="226.761" gradientUnits="userSpaceOnUse">
<stop stop-color="#7D64A6"/>
<stop offset="1" stop-color="#FFC5C3"/>
</linearGradient>
<linearGradient id="paint6_linear" x1="454.158" y1="110.496" x2="447.109" y2="95.305" gradientUnits="userSpaceOnUse">
<stop stop-color="#6D6AFE"/>
<stop offset="1" stop-color="#3FB0F7"/>
</linearGradient>
<linearGradient id="paint7_linear" x1="461.55" y1="78.7889" x2="438.525" y2="74.3766" gradientUnits="userSpaceOnUse">
<stop stop-color="#1C8EF4"/>
<stop offset="1" stop-color="#00CFDD"/>
</linearGradient>
<linearGradient id="paint8_linear" x1="413.693" y1="261.197" x2="430.451" y2="170.741" gradientUnits="userSpaceOnUse">
<stop stop-color="#8E67CD"/>
<stop offset="1" stop-color="#FFC5C3"/>
</linearGradient>
<linearGradient id="paint9_linear" x1="217.61" y1="348.739" x2="194.935" y2="348.739" gradientUnits="userSpaceOnUse">
<stop stop-color="#6D6AFE"/>
<stop offset="1" stop-color="#3FB0F7"/>
</linearGradient>
<linearGradient id="paint10_linear" x1="228.628" y1="352.925" x2="188.666" y2="352.925" gradientUnits="userSpaceOnUse">
<stop stop-color="#6D6AFE"/>
<stop offset="1" stop-color="#3FB0F7"/>
</linearGradient>
</defs>
</svg>
