<?xml version="1.0" standalone="no"?>
<!DOCTYPE svg PUBLIC "-//W3C//DTD SVG 1.1//EN" "http://www.w3.org/Graphics/SVG/1.1/DTD/svg11.dtd" >
<svg xmlns="http://www.w3.org/2000/svg" xmlns:xlink="http://www.w3.org/1999/xlink" version="1.1">
<metadata>
Created by FontForge 20170731 at Fri Aug 16 05:18:54 2019
 By Aleksey,,,
(c) 2017-2019 Apple Inc. All rights reserved.
</metadata>
<defs>
<font id="NewYorkExtraLarge-Bold" horiz-adv-x="0" >
  <font-face 
    font-family="New York Extra Large"
    font-weight="600"
    font-stretch="normal"
    units-per-em="2048"
    panose-1="2 2 5 2 6 4 0 0 0 4"
    ascent="1638"
    descent="-410"
    x-height="994"
    cap-height="1444"
    bbox="-513 -515.008 3458 2007"
    underline-thickness="70"
    underline-position="-304"
    unicode-range="U+0020-1F16B"
  />
<missing-glyph horiz-adv-x="2048" 
d="M146 -494v2444h117v-2444h-117zM556 -494v2444h117v-2444h-117zM965 -494v2444h118v-2444h-118zM1375 -494v2444h118v-2444h-118zM1785 -494v2444h118v-2444h-118z" />
    <glyph glyph-name=".notdef" horiz-adv-x="2048" 
d="M146 -494v2444h117v-2444h-117zM556 -494v2444h117v-2444h-117zM965 -494v2444h118v-2444h-118zM1375 -494v2444h118v-2444h-118zM1785 -494v2444h118v-2444h-118z" />
    <glyph glyph-name=".null" 
 />
    <glyph glyph-name="nonmarkingreturn" 
 />
    <glyph glyph-name="space" unicode=" " horiz-adv-x="462" 
 />
    <glyph glyph-name="exclam" unicode="!" horiz-adv-x="712" 
d="M356 1464q83 0 134.5 -55t51.5 -144q0 -133 -73 -423l-97 -411h-34l-97 411q-70 283 -70 423q0 89 51 144t134 55zM354 -20q-66 0 -112.5 45t-46.5 109t46.5 109t112.5 45t113 -45t47 -109t-47 -109t-113 -45z" />
    <glyph glyph-name="quotedbl" unicode="&#x22;" horiz-adv-x="977" 
d="M274 1476q68 0 111 -40.5t43 -107.5q0 -13 -0.5 -24.5t-3.5 -27t-5 -24.5t-8 -31.5t-9 -32t-13 -41.5t-14 -45l-83 -270h-35l-83 270q-4 12 -13 40.5t-11.5 37t-8.5 29.5t-8 29t-5.5 23t-4.5 24t-2 20.5t-1 22.5q1 67 44 107.5t110 40.5zM703 1476q67 0 110 -40.5
t44 -107.5q0 -9 -0.5 -18t-1.5 -17t-3 -19t-3 -17.5t-5 -20.5t-5.5 -21t-7 -24.5t-8 -25.5t-9.5 -30.5t-10 -32.5l-84 -270h-35l-83 270q-5 18 -16 53t-14.5 46.5t-9.5 34.5t-8 34.5t-3.5 27t-1.5 30.5q1 67 44 107.5t110 40.5z" />
    <glyph glyph-name="numbersign" unicode="#" horiz-adv-x="1253" 
d="M290 0l29 417h-239l7 90h238l30 430h-238l6 90h239l29 417h93l-29 -417h382l29 417h93l-29 -417h241l-6 -90h-241l-30 -430h241l-6 -90h-241l-30 -417h-93l30 417h-383l-29 -417h-93zM418 507h383l30 430h-383z" />
    <glyph glyph-name="dollar" unicode="$" horiz-adv-x="1139" 
d="M537 13q-129 0 -245 25.5t-191 69.5l-13 333h47q41 -183 149.5 -273.5t253.5 -90.5q6 0 10 1v490l-121 47q-336 132 -336 412q0 178 123 283.5t334 119.5v202h43v-200h15q111 0 213.5 -22.5t158.5 -53.5l12 -316h-46q-32 156 -122.5 241.5t-221.5 85.5h-9v-446h1l123 -49
q180 -72 265.5 -174.5t85.5 -249.5q0 -188 -132 -303.5t-343 -130.5v-203h-43v202h-11zM361 1168q0 -75 44.5 -129t142.5 -99v424q-90 -12 -138.5 -65t-48.5 -131zM796 305q0 82 -46.5 138.5t-158.5 106.5v-469q95 14 150 74.5t55 149.5z" />
    <glyph glyph-name="percent" unicode="%" horiz-adv-x="1866" 
d="M414 686q-148 0 -246.5 106t-98.5 279q0 175 98 280.5t249 105.5q149 0 247 -106t98 -280q0 -175 -98 -280t-249 -105zM453 0l861 1444h99l-861 -1444h-99zM418 732q59 0 86.5 74.5t27.5 257.5q0 184 -30 265t-90 81q-58 0 -85.5 -74.5t-27.5 -256.5q0 -184 30 -265.5
t89 -81.5zM1449 -13q-149 0 -247 106t-98 280q0 175 98.5 280t249.5 105q148 0 246.5 -106t98.5 -279q0 -175 -98.5 -280.5t-249.5 -105.5zM1453 34q59 0 87 74.5t28 256.5q0 184 -30 265.5t-90 81.5q-58 0 -86 -75t-28 -257q0 -184 30 -265t89 -81z" />
    <glyph glyph-name="ampersand" unicode="&#x26;" horiz-adv-x="1660" 
d="M511 -21q-195 0 -318.5 110.5t-122.5 280.5q1 142 98 247t278 157q-85 100 -122.5 179.5t-37.5 164.5q0 151 124 250t328 99q195 0 305.5 -81t110.5 -208q0 -107 -91.5 -187t-254.5 -130l32 -32l308 -324l104 157q47 72 54 115.5t-19.5 64t-88.5 28.5v49l408 2v-49
q-77 -11 -131.5 -54.5t-153.5 -170.5l-137 -180l186 -194q110 -114 172 -162t116 -64v-47h-478l-203 212q-111 -120 -220 -176.5t-246 -56.5zM580 1233q0 -73 42 -145.5t148 -185.5q130 93 132 269q0 99 -44 163.5t-120 64.5q-71 0 -114.5 -43t-43.5 -123zM361 516
q0 -154 101.5 -256.5t247.5 -102.5q126 0 234 90l-355 371q-73 77 -108 116q-120 -77 -120 -218z" />
    <glyph glyph-name="quotesingle" unicode="'" horiz-adv-x="549" 
d="M274 1476q68 0 111 -40.5t43 -107.5q0 -13 -0.5 -24.5t-3.5 -27t-5 -24.5t-8 -31.5t-9 -32t-13 -41.5t-14 -45l-83 -270h-35l-83 270q-4 12 -13 40.5t-11.5 37t-8.5 29.5t-8 29t-5.5 23t-4.5 24t-2 20.5t-1 22.5q1 67 44 107.5t110 40.5z" />
    <glyph glyph-name="parenleft" unicode="(" horiz-adv-x="735" 
d="M393 650q0 -293 84 -538.5t233 -391.5h-54q-161 72 -291 208.5t-208 326t-78 395.5q0 308 164.5 563t412.5 367h54q-149 -146 -233 -391.5t-84 -538.5z" />
    <glyph glyph-name="parenright" unicode=")" horiz-adv-x="735" 
d="M341 650q0 294 -84 539t-233 391h54q248 -111 412.5 -366t164.5 -564q0 -206 -77.5 -395t-207.5 -325.5t-292 -209.5h-54q149 146 233 391t84 539z" />
    <glyph glyph-name="asterisk" unicode="*" horiz-adv-x="775" 
d="M377 1124l-66 191q-25 66 2 108.5t75 42.5q46 0 73.5 -43t2.5 -108l-66 -191h-21zM406 1120l129 154q30 37 65 48t62 -1t42 -39q11 -18 11.5 -40t-9.5 -42.5t-34.5 -36.5t-59.5 -22l-196 -39zM359 1102l-195 38q-47 8 -74.5 33t-29 53.5t10.5 55.5q15 26 42 37.5t62.5 1
t64.5 -47.5l129 -153zM369 1075l-129 -153q-29 -37 -64 -48t-62 1t-43 39q-11 18 -11 40t10 42.5t34.5 36.5t59.5 22l196 39zM417 1094l196 -39q46 -8 73.5 -33t29 -53t-11.5 -55q-15 -26 -42 -38t-62 -1t-64 48l-129 153zM398 1070l66 -190q26 -66 -1 -109t-75 -43
q-47 0 -74.5 43.5t-1.5 108.5l66 190h20z" />
    <glyph glyph-name="plus" unicode="+" horiz-adv-x="1226" 
d="M123 535v104h437v439h104v-439h439v-104h-439v-438h-104v438h-437z" />
    <glyph glyph-name="comma" unicode="," horiz-adv-x="529" 
d="M109 -246l-16 46q67 13 108.5 54t41.5 102q0 63 -44 103t-116 44q0 92 49 153.5t131 61.5t133 -60t51 -157q0 -135 -99 -230.5t-239 -116.5z" />
    <glyph glyph-name="hyphen" unicode="&#x2011;" horiz-adv-x="718" 
d="M631 530h-544v115h544v-115z" />
    <glyph glyph-name="hyphen" unicode="-" horiz-adv-x="718" 
d="M631 530h-544v115h544v-115z" />
    <glyph glyph-name="period" unicode="." horiz-adv-x="529" 
d="M264 -20q-70 0 -120.5 50.5t-50.5 121.5q0 70 50.5 120.5t120.5 50.5q71 0 121.5 -50t50.5 -121t-50.5 -121.5t-121.5 -50.5z" />
    <glyph glyph-name="slash" unicode="/" horiz-adv-x="735" 
d="M60 -280l498 1860h117l-498 -1860h-117z" />
    <glyph glyph-name="zero" unicode="0" horiz-adv-x="1381" 
d="M689 -23q-124 0 -232.5 51t-190 144.5t-128.5 235t-47 313.5q0 175 46.5 317.5t128.5 235.5t191.5 143t235.5 50q124 0 232.5 -51t189.5 -144.5t128 -235t47 -313.5q0 -175 -46.5 -317t-128 -235.5t-191 -143.5t-235.5 -50zM696 44q78 0 127.5 62t76 208t26.5 386
q0 700 -240 700q-78 0 -127.5 -62t-76.5 -208.5t-27 -385.5q0 -700 241 -700z" />
    <glyph glyph-name="one" unicode="1" horiz-adv-x="878" 
d="M615 1446v-1233q0 -81 42 -114t165 -50v-49h-743v49q123 17 165 50t42 114v1021l-218 -64v45l401 231h146z" />
    <glyph glyph-name="two" unicode="2" horiz-adv-x="1059" 
d="M991 0h-942v186l194 199q206 220 288 359.5t82 273.5q0 120 -66 191t-179 71q-102 0 -175.5 -56.5t-108.5 -154.5l-46 19q46 179 174.5 278.5t323.5 100.5q194 1 310 -104t115 -274q0 -79 -29 -149t-97 -148t-164.5 -158.5t-248.5 -191.5l-226 -178h795v-264z" />
    <glyph glyph-name="three" unicode="3" horiz-adv-x="1122" 
d="M485 -23q-188 0 -312.5 86.5t-124.5 209.5q0 60 40.5 100.5t99.5 40.5q58 0 98.5 -39.5t40.5 -97.5t-39.5 -97t-96.5 -39h-8q83 -76 205 -76q127 0 210 88.5t82 233.5q-1 154 -96 247t-247 93q-51 0 -85 -8v56q201 29 300 104t99 188q0 99 -61.5 156.5t-169.5 57.5
q-104 0 -183 -52t-119 -147l-44 22q47 167 177.5 265t324.5 98q188 0 301 -85t113 -224q0 -124 -98.5 -209t-263.5 -109q184 -18 294 -133t110 -283q0 -105 -45 -191t-121.5 -141t-174.5 -85t-206 -30z" />
    <glyph glyph-name="four" unicode="4" horiz-adv-x="1225" 
d="M678 0v326h-627v148l676 972h252v-904h208v-216h-208v-326h-301zM679 541v724l-461 -724h461z" />
    <glyph glyph-name="five" unicode="5" horiz-adv-x="1128" 
d="M501 -23q-191 0 -307.5 86t-116.5 207q0 59 40.5 100t99.5 41q58 0 98.5 -39.5t40.5 -97.5t-39.5 -97.5t-96.5 -39.5q-8 0 -12 1q78 -73 198 -73q123 0 207 91.5t84 245.5q0 145 -76 238t-195 93q-84 0 -148 -31t-99 -85h-54l151 827h708v-267h-675l-108 -470
q56 82 162 130.5t240 48.5q193 0 317 -120.5t124 -310.5q0 -143 -75 -253.5t-197.5 -167.5t-270.5 -57z" />
    <glyph glyph-name="six" unicode="6" horiz-adv-x="1294" 
d="M1217 458q0 -213 -152 -347t-404 -134q-126 0 -231.5 42.5t-181 121.5t-117.5 198t-42 266q1 176 72.5 330.5t201 270t324.5 182t430 65.5l1 -48q-168 -12 -299.5 -81t-214.5 -181t-126.5 -256t-46.5 -313q24 143 121 227.5t256 84.5q183 0 296 -119.5t113 -308.5z
M875 390q0 164 -56.5 260t-161.5 96q-98 0 -160 -79t-62 -219q0 -109 25 -199t77.5 -147.5t125.5 -57.5q100 0 156 94.5t56 251.5z" />
    <glyph glyph-name="seven" unicode="7" horiz-adv-x="1015" 
d="M464 0h-334v11l739 1165h-825v268h904l-1 -234z" />
    <glyph glyph-name="eight" unicode="8" horiz-adv-x="1269" 
d="M629 -23q-241 0 -389.5 92.5t-148.5 246.5q0 124 97 211t265 112q-152 65 -239.5 170t-87.5 247q0 183 145 297t375 114t362.5 -91.5t132.5 -236.5q0 -112 -93 -186t-241 -95q187 -80 279 -189.5t92 -262.5q0 -123 -72.5 -221.5t-198 -153t-278.5 -54.5zM640 929l122 -52
q53 35 82.5 98.5t29.5 142.5q0 124 -63 202t-170 78t-167.5 -57t-60.5 -147q0 -86 54.5 -149.5t172.5 -115.5zM364 354q0 -134 75.5 -221t196.5 -87q112 0 182 63t71 163q1 97 -60.5 164t-207.5 131l-122 53q-66 -35 -100.5 -104.5t-34.5 -161.5z" />
    <glyph glyph-name="nine" unicode="9" horiz-adv-x="1294" 
d="M78 986q0 212 152.5 346.5t403.5 134.5q257 0 415 -166t157 -458q-1 -141 -45.5 -269.5t-132.5 -234.5t-210.5 -184.5t-286.5 -121.5t-352 -42l-1 48q136 10 247.5 56.5t191.5 122t135.5 177.5t82.5 221.5t29 255.5q-23 -144 -119.5 -229.5t-259.5 -85.5
q-180 0 -293.5 120.5t-113.5 308.5zM421 1054q0 -163 56 -259.5t159 -96.5q99 0 161.5 79t62.5 219q0 112 -24 201.5t-76.5 146t-126.5 56.5q-101 0 -156.5 -95t-55.5 -251z" />
    <glyph glyph-name="colon" unicode=":" horiz-adv-x="529" 
d="M264 628q-70 0 -120.5 50.5t-50.5 121.5q0 70 50.5 120.5t120.5 50.5q71 0 121.5 -50t50.5 -121t-50.5 -121.5t-121.5 -50.5zM264 -20q-70 0 -120.5 50.5t-50.5 121.5t50 121t121 50t121.5 -50t50.5 -121t-50.5 -121.5t-121.5 -50.5z" />
    <glyph glyph-name="semicolon" unicode=";" horiz-adv-x="529" 
d="M264 630q-70 0 -120.5 50t-50.5 121t50 121.5t121 50.5t121.5 -50.5t50.5 -121.5t-50.5 -121t-121.5 -50zM109 -246l-16 46q67 13 108.5 54t41.5 102q0 63 -44 103t-116 44q0 92 49 153.5t131 61.5t133 -60t51 -157q0 -135 -99 -230.5t-239 -116.5z" />
    <glyph glyph-name="less" unicode="&#x3c;" horiz-adv-x="1215" 
d="M1133 155v-111l-1041 504v54l1041 503v-103l-891 -423z" />
    <glyph glyph-name="equal" unicode="=" horiz-adv-x="1226" 
d="M123 756v104h980v-104h-980zM123 314v105h980v-105h-980z" />
    <glyph glyph-name="greater" unicode="&#x3e;" horiz-adv-x="1215" 
d="M82 994v111l1041 -504v-54l-1041 -503v103l891 423z" />
    <glyph glyph-name="question" unicode="?" horiz-adv-x="762" 
d="M299 1465q165 1 274.5 -120.5t109.5 -326.5q0 -193 -104.5 -320t-266.5 -162l5 -102h-38l-84 406q411 7 409 165q-1 96 -125.5 142t-382.5 46q-13 33 -13 78q0 84 57.5 139t158.5 55zM319 -20q-66 0 -113 45t-47 109t47 108.5t113 44.5q65 0 112 -44.5t47 -108.5
t-46.5 -109t-112.5 -45z" />
    <glyph glyph-name="at" unicode="@" horiz-adv-x="2033" 
d="M550 377q0 116 33 227t91.5 197t145 138.5t185.5 52.5q82 0 136 -38t78 -106l162 126h136l-152 -708q-35 -167 99 -167q71 0 143.5 39t134 109t100.5 180.5t39 240.5q0 208 -102.5 367.5t-282.5 245t-409 85.5q-143 0 -280.5 -41.5t-256 -123t-209 -194t-142 -264
t-51.5 -322.5q0 -177 61.5 -326t167 -248.5t246 -154.5t297.5 -55q274 0 441 107l1 -52q-81 -62 -202.5 -92t-252.5 -30q-168 0 -320 60t-266 167.5t-181.5 268.5t-67.5 351q0 183 55 345.5t152 283.5t224.5 209t277 133t305.5 45q185 0 346 -55t276.5 -152.5t182 -239.5
t66.5 -309q0 -136 -43 -258t-119 -213t-188 -144.5t-243 -53.5q-146 0 -212 67t-57 182q0 21 9 57q-45 -128 -131.5 -199t-187.5 -71q-112 0 -173.5 88.5t-61.5 244.5zM839 369q0 -185 89 -185q62 0 115.5 67t73.5 159l78 366q-1 59 -28 91.5t-73 32.5q-56 0 -105.5 -53
t-81.5 -134t-50 -172t-18 -172z" />
    <glyph glyph-name="A" unicode="A" horiz-adv-x="1441" 
d="M1259 266q43 -120 80 -161.5t113 -55.5v-49h-672v49q97 14 117 58.5t-19 167.5l-74 220h-448l-65 -197q-30 -94 -30.5 -142.5t28.5 -72t100 -34.5v-49h-401v49q79 14 117 60t90 193l411 1145h234zM378 565h403l-204 610z" />
    <glyph glyph-name="B" unicode="B" horiz-adv-x="1445" 
d="M1371 418q0 -84 -37.5 -153.5t-101.5 -118t-151.5 -82t-186.5 -49t-207 -15.5h-634v49q84 16 109.5 41.5t25.5 93.5v1076q0 68 -25 93.5t-110 41.5v49h634q295 0 458.5 -87t163.5 -256q0 -96 -62.5 -167.5t-159 -107t-215.5 -41.5q230 -9 364.5 -103.5t134.5 -263.5z
M950 1080q0 137 -81.5 218t-249.5 86l-76 3v-595l128 1q135 2 207 74t72 213zM997 403q0 146 -85.5 236t-240.5 93l-128 3v-678l76 3q182 6 280 95t98 248z" />
    <glyph glyph-name="C" unicode="C" horiz-adv-x="1426" 
d="M83 726q0 140 40.5 260t113.5 207.5t173 149.5t220.5 93t254.5 31q309 0 449 -92l10 -393h-47q-38 188 -141.5 302.5t-253.5 114.5q-197 0 -311.5 -181t-114.5 -482q0 -187 48.5 -342t147.5 -252t233 -97q144 0 248.5 113t147.5 312h47l-11 -394q-60 -42 -183 -70.5
t-265 -28.5q-230 0 -411.5 88t-288 260t-106.5 401z" />
    <glyph glyph-name="D" unicode="D" horiz-adv-x="1612" 
d="M1538 746q0 -140 -45.5 -260.5t-126.5 -208.5t-191.5 -151t-243 -94.5t-278.5 -31.5h-600v49q84 16 109.5 41.5t25.5 93.5v1076q0 68 -25.5 93.5t-109.5 41.5v49h591q271 0 471 -79t311.5 -237.5t111.5 -381.5zM1146 723q1 193 -61 339.5t-184 232t-291 90.5l-67 2v-1330
l67 2q251 8 393.5 185.5t142.5 478.5z" />
    <glyph glyph-name="E" unicode="E" horiz-adv-x="1282" 
d="M1167 1444l14 -393h-47q-22 94 -50.5 152.5t-77.5 97.5t-117 56.5t-174 22.5l-172 7v-620l201 5q93 4 130 48t61 164h43v-490h-43q-23 119 -60.5 163t-130.5 48l-201 5v-653l204 9q110 5 179.5 22.5t120.5 60t80.5 107.5t53.5 172h47l-14 -428h-1161v49q84 16 109.5 41.5
t25.5 93.5v1076q0 68 -25.5 93.5t-109.5 41.5v49h1114z" />
    <glyph glyph-name="F" unicode="F" horiz-adv-x="1188" 
d="M1136 1444l13 -393h-47q-28 125 -71.5 191.5t-120.5 98t-214 39.5l-153 7v-634l175 5q91 4 127 47.5t60 164.5h44v-490h-44q-23 119 -59.5 163t-127.5 48l-175 5v-497q0 -77 27.5 -107t118.5 -43v-49h-636v49q84 16 109.5 41.5t25.5 93.5v1076q0 68 -25.5 93.5
t-109.5 41.5v49h1083z" />
    <glyph glyph-name="G" unicode="G" horiz-adv-x="1562" 
d="M83 722q0 143 41 264.5t114.5 209t174.5 149.5t222 92t255 30q158 0 277.5 -25t182.5 -67l10 -391h-47q-42 187 -147.5 301t-260.5 114q-201 0 -315 -180t-114 -483q0 -189 46.5 -343.5t142.5 -251t227 -96.5q136 0 204 59v417q0 68 -25.5 92.5t-109.5 34.5v49h579v-49
q-79 -10 -103.5 -35t-24.5 -92v-403q-89 -66 -234.5 -103.5t-303.5 -37.5q-232 0 -412 92.5t-279.5 262t-99.5 390.5z" />
    <glyph glyph-name="H" unicode="H" horiz-adv-x="1660" 
d="M543 177q0 -65 24 -89.5t102 -38.5v-49h-616v49q84 16 109.5 41.5t25.5 93.5v1076q0 68 -25 93.5t-110 41.5v49h616v-50q-78 -13 -102 -38t-24 -89v-497h574v497q0 65 -24 89.5t-102 38.5v49h616v-49q-84 -15 -109.5 -40.5t-25.5 -94.5v-1076q0 -68 25.5 -94t109.5 -41
v-49h-616v49q78 14 102 38.5t24 89.5v530h-574v-530z" />
    <glyph glyph-name="I" unicode="I" horiz-adv-x="731" 
d="M543 184q0 -68 25 -93.5t109 -41.5v-49h-624v49q85 16 110 41.5t25 93.5v1076q0 68 -25 93.5t-110 41.5v49h624v-49q-84 -16 -109 -41.5t-25 -93.5v-1076z" />
    <glyph glyph-name="J" unicode="J" horiz-adv-x="731" 
d="M543 276q0 -133 -38 -236t-119 -182.5t-187 -139t-262 -119.5l-20 43q154 101 212.5 241.5t58.5 413.5v963q0 68 -25 93.5t-110 41.5v49h624v-49q-84 -16 -109 -41.5t-25 -93.5v-984z" />
    <glyph glyph-name="K" unicode="&#x212a;" horiz-adv-x="1461" 
d="M543 177q0 -65 24 -89.5t102 -38.5v-49h-616v49q84 16 109.5 41.5t25.5 93.5v1076q0 68 -25.5 93.5t-109.5 41.5v49h616v-50q-78 -13 -102 -38t-24 -89v-498l102 1l364 432q84 100 79 139.5t-101 53.5v49h433v-49q-88 -20 -159.5 -67.5t-184.5 -160.5l-186 -194l348 -640
q89 -159 133.5 -213t94.5 -73v-47h-430l-390 707l-103 1v-531z" />
    <glyph glyph-name="K" unicode="K" horiz-adv-x="1461" 
d="M543 177q0 -65 24 -89.5t102 -38.5v-49h-616v49q84 16 109.5 41.5t25.5 93.5v1076q0 68 -25.5 93.5t-109.5 41.5v49h616v-50q-78 -13 -102 -38t-24 -89v-498l102 1l364 432q84 100 79 139.5t-101 53.5v49h433v-49q-88 -20 -159.5 -67.5t-184.5 -160.5l-186 -194l348 -640
q89 -159 133.5 -213t94.5 -73v-47h-430l-390 707l-103 1v-531z" />
    <glyph glyph-name="L" unicode="L" horiz-adv-x="1193" 
d="M1141 0h-1088v49q84 16 109.5 41.5t25.5 93.5v1076q0 68 -25 93.5t-110 41.5v49h636v-49q-91 -14 -118.5 -43t-27.5 -103v-1192l145 6q132 7 210 43.5t127.5 117t82.5 228.5h48z" />
    <glyph glyph-name="M" unicode="M" horiz-adv-x="1848" 
d="M574 1444l361 -1057l332 1058l512 -1v-49q-83 -13 -109 -40t-24 -95l33 -1076q2 -70 27.5 -96t110.5 -39v-49h-623v49q83 13 109 38.5t24 93.5l-30 1083l-321 -924l-94 -340h-179l-439 1267l-5 -1006q-1 -119 23.5 -157.5t114.5 -53.5v-50h-379v49q86 13 112 53t31 158
l36 977q3 76 -24.5 110.5t-105.5 47.5v49h507z" />
    <glyph glyph-name="N" unicode="N" horiz-adv-x="1473" 
d="M535 1444l700 -1100l-19 832q-3 124 -29 164.5t-117 53.5v50h380v-49q-86 -14 -111 -55t-27 -162l-15 -1178h-270l-790 1236l19 -968q2 -123 28.5 -164t116.5 -54v-50h-380v49q86 14 111 55t27 162l13 966q0 78 -27.5 112.5t-105.5 50.5v49h496z" />
    <glyph glyph-name="O" unicode="O" horiz-adv-x="1694" 
d="M83 720q0 209 93.5 378.5t268.5 269t399 99.5q160 0 300.5 -53t243.5 -148.5t163 -235.5t60 -305q0 -156 -55 -293.5t-153 -238t-241.5 -158.5t-311.5 -58q-160 0 -300.5 53.5t-243.5 149t-163 235.5t-60 305zM476 734q0 -204 45 -359.5t131.5 -242.5t202.5 -87
q126 0 208.5 85.5t119 231t36.5 349.5t-45.5 359.5t-132 242t-201.5 86.5q-126 0 -208.5 -85t-119 -230.5t-36.5 -349.5z" />
    <glyph glyph-name="P" unicode="P" horiz-adv-x="1406" 
d="M1332 1026q0 -108 -50 -194t-138 -140t-205 -82.5t-254 -28.5h-142v-382q0 -77 27.5 -107t118.5 -43v-49h-636v49q84 16 109.5 41.5t25.5 93.5v1076q0 68 -25.5 93.5t-109.5 41.5v49h632q311 0 479 -107.5t168 -310.5zM958 1011q0 166 -86 266t-258 107l-71 3v-749l71 3
q167 7 255.5 106t88.5 264z" />
    <glyph glyph-name="Q" unicode="Q" horiz-adv-x="1694" 
d="M83 720q0 156 55 293.5t153 237.5t241.5 158t312.5 58q213 0 387 -90.5t276.5 -261t102.5 -390.5q0 -248 -133 -439.5t-361 -266.5l90 -72q137 -111 228.5 -149.5t179.5 -26.5v-45q-157 -98 -330 -98q-111 0 -203 48.5t-223 180.5l-134 129q-184 26 -328.5 121.5
t-229 255t-84.5 357.5zM476 734q0 -204 45.5 -359.5t132 -242.5t202.5 -87q94 0 164 48t113 137t64.5 209t21.5 272q0 204 -45.5 359.5t-132 242t-202.5 86.5q-126 0 -208.5 -85.5t-118.5 -230.5t-36 -349z" />
    <glyph glyph-name="R" unicode="R" horiz-adv-x="1437" 
d="M1308 1056q1 -123 -75 -210.5t-207 -123.5l202 -422q69 -138 108.5 -187.5t83.5 -65.5v-47h-411l-311 655h-155v-478q0 -64 24 -88.5t102 -39.5v-49h-616v49q84 16 109.5 42t25.5 93v1076q0 69 -25.5 94.5t-109.5 40.5v49h640q305 0 459.5 -103t155.5 -285zM954 1037
q0 153 -84 246.5t-252 101.5l-75 2v-676l90 4q147 6 234 90t87 232z" />
    <glyph glyph-name="S" unicode="S" horiz-adv-x="1250" 
d="M590 -23q-149 0 -275.5 27t-205.5 72l-14 392h47q41 -197 163 -310t279 -113q122 0 196 65.5t74 171.5q0 96 -60.5 160.5t-193.5 110.5l-126 42q-385 130 -385 440q0 202 157 317t419 115q136 0 243.5 -24.5t166.5 -64.5l9 -349h-47q-39 172 -135.5 271t-233.5 99
q-125 0 -194 -59.5t-69 -156.5q0 -92 61.5 -152t191.5 -105l125 -43q387 -130 387 -454q0 -139 -77.5 -243t-208 -156.5t-294.5 -52.5z" />
    <glyph glyph-name="T" unicode="T" horiz-adv-x="1353" 
d="M1300 1444l14 -393h-47q-38 178 -115 246.5t-253 85.5l-45 4v-1188q0 -77 27.5 -107t118.5 -43v-49h-646v49q90 13 117.5 43.5t27.5 106.5v1188l-45 -4q-120 -11 -189 -43t-111 -99.5t-68 -189.5h-47l13 393h1248z" />
    <glyph glyph-name="U" unicode="U" horiz-adv-x="1505" 
d="M161 1265q0 66 -24 91t-102 39v49h616v-49q-84 -16 -109.5 -41.5t-25.5 -93.5v-700q0 -228 101 -343.5t273 -115.5q174 0 277 123t99 339l-10 613q-3 123 -29 163t-117 55v50h372v-50q-82 -13 -106 -53.5t-27 -161.5l-10 -633q-4 -262 -152 -415.5t-419 -153.5
q-102 0 -191.5 21t-166 66.5t-131.5 112t-86.5 163.5t-31.5 215v710z" />
    <glyph glyph-name="V" unicode="V" horiz-adv-x="1436" 
d="M181 1178q-42 119 -79.5 161t-113.5 56v49h672v-49q-96 -14 -116 -58.5t19 -167.5l299 -900l283 877q30 95 30.5 143.5t-28 71.5t-100.5 34v49h400v-49q-79 -14 -117 -60t-90 -193l-409 -1145h-233z" />
    <glyph glyph-name="W" unicode="W" horiz-adv-x="2226" 
d="M176 1178q-37 121 -74 162.5t-111 54.5v49h668v-49q-97 -14 -118 -57t11 -161l242 -868l237 874q17 63 21.5 98t-6.5 59.5t-36 35.5t-74 19v49h623v-49q-63 -10 -86.5 -29.5t-23 -57.5t23.5 -122l240 -878l230 841q28 89 25.5 140.5t-29.5 73t-96 32.5v49h396v-49
q-54 -9 -85 -30.5t-57 -71.5t-57 -151l-359 -1145h-224l-342 1154l-352 -1154h-221z" />
    <glyph glyph-name="X" unicode="X" horiz-adv-x="1418" 
d="M280 299l259 383l-308 507q-63 104 -105 145t-107 60v50h663v-49q-52 -9 -77 -20t-30.5 -34.5t7 -54.5t45.5 -87l218 -358l193 321q54 90 67 134t-9.5 66t-91.5 33v49h398v-49q-78 -14 -130 -60t-145 -185l-248 -365l322 -530q61 -103 105 -144.5t112 -61.5v-49h-668v49
q96 16 106 56t-52 140l-231 380l-205 -340q-55 -91 -68 -136t9.5 -67t91.5 -33v-49h-400v49q78 14 130 60.5t149 189.5z" />
    <glyph glyph-name="Y" unicode="Y" horiz-adv-x="1381" 
d="M206 1194q-65 112 -104.5 149.5t-108.5 51.5v49h654v-49q-91 -13 -103 -54.5t47 -154.5l247 -456l220 433q45 88 53 133.5t-16.5 67t-91.5 31.5v49h385v-49q-73 -14 -116.5 -57t-119.5 -176l-283 -495v-468q0 -77 27.5 -107t118.5 -43v-49h-646v49q90 13 117.5 43.5
t27.5 106.5v446z" />
    <glyph glyph-name="Z" unicode="Z" horiz-adv-x="1302" 
d="M1217 0h-1145v47l753 1340l-221 -8q-164 -7 -253.5 -39t-135.5 -97t-76 -192h-46l15 393h1111v-47l-754 -1340l237 9q125 5 202 22t134 59t89 107t57 174h47z" />
    <glyph glyph-name="bracketleft" unicode="[" horiz-adv-x="735" 
d="M178 -286v1872l499 -6v-51l-215 -11v-1736l215 -11v-51z" />
    <glyph glyph-name="backslash" unicode="\" horiz-adv-x="735" 
d="M558 -280l-498 1860h117l498 -1860h-117z" />
    <glyph glyph-name="bracketright" unicode="]" horiz-adv-x="735" 
d="M556 1586v-1872l-498 6v51l214 11v1736l-214 11v51z" />
    <glyph glyph-name="asciicircum" unicode="^" horiz-adv-x="1215" 
d="M580 1444h54l438 -586l-73 -65l-394 527l-392 -526l-70 65z" />
    <glyph glyph-name="underscore" unicode="_" horiz-adv-x="1024" 
d="M22 -336v112h980v-112h-980z" />
    <glyph glyph-name="grave" unicode="`" horiz-adv-x="1024" 
d="M586 1102l-407 369v7h344l125 -376h-62z" />
    <glyph glyph-name="a" unicode="a" horiz-adv-x="1156" 
d="M359 -20q-129 0 -210 67t-81 175q0 116 98.5 192t322.5 121l196 40v105q0 133 -61.5 193.5t-181.5 60.5q-82 0 -150 -31q48 -10 79.5 -48t31.5 -89q0 -60 -43 -101t-105 -41t-104.5 39.5t-42.5 99.5q0 106 122.5 178t324.5 72q217 0 334 -83.5t117 -254.5v-479
q0 -60 26 -89t70 -29q22 0 39 5v-46q-74 -52 -204 -52q-94 0 -163 43t-83 122q-29 -77 -119.5 -123.5t-212.5 -46.5zM391 273q0 -79 40.5 -123.5t104.5 -44.5q107 0 149 84v330l-70 -16q-121 -28 -172.5 -84t-51.5 -146z" />
    <glyph glyph-name="b" unicode="b" horiz-adv-x="1261" 
d="M1190 507q0 -123 -37 -224t-101 -166t-148.5 -100.5t-180.5 -35.5q-101 0 -178.5 41t-109.5 107l-118 -129h-184v1283q0 49 -11 66.5t-52 31.5l-52 17v46l445 53l-3 -674q37 88 124 139t201 51q174 0 289.5 -136t115.5 -370zM851 476q0 188 -62 294t-163 106
q-114 0 -163 -95v-615q17 -38 59 -63.5t94 -25.5q107 0 171 105.5t64 293.5z" />
    <glyph glyph-name="c" unicode="c" horiz-adv-x="1055" 
d="M601 -20q-227 0 -378.5 141.5t-151.5 373.5q0 228 156 373t396 145q175 0 276.5 -73.5t101.5 -185.5q0 -65 -43 -108t-104 -43q-62 0 -104.5 42t-42.5 103t41 103t99 42q3 0 5 -1q-59 37 -140 37q-136 0 -218.5 -102t-82.5 -273q0 -200 102.5 -316t257.5 -116
q71 0 133.5 22.5t100.5 59.5v-49q-56 -81 -163.5 -128t-240.5 -47z" />
    <glyph glyph-name="d" unicode="d" horiz-adv-x="1282" 
d="M71 487q0 243 132.5 384.5t328.5 141.5q91 0 163 -34t104 -91v395q0 49 -11 66.5t-53 31.5l-52 17v46l445 51v-1298q0 -49 11.5 -66.5t53.5 -31.5l52 -17v-45l-443 -49v185q-37 -89 -124 -141t-201 -52q-175 0 -290.5 136.5t-115.5 370.5zM410 517q0 -187 62 -293
t162 -106q116 0 165 95v616q-17 38 -60 63t-95 25q-106 0 -170 -105.5t-64 -294.5z" />
    <glyph glyph-name="e" unicode="e" horiz-adv-x="1098" 
d="M71 495q0 229 143 373.5t376 144.5q205 0 324 -115t119 -304q0 -26 -5 -69h-623q19 -192 121 -299.5t256 -107.5q71 0 132 24t100 64l1 -49q-55 -83 -163.5 -130t-247.5 -47q-149 0 -269.5 61.5t-192 180t-71.5 273.5zM400 611q0 -19 1 -29l342 4q1 19 1 69
q0 138 -38.5 215t-115.5 77q-91 0 -140.5 -87.5t-49.5 -248.5z" />
    <glyph glyph-name="f" unicode="f" horiz-adv-x="758" 
d="M492 167q0 -60 23.5 -82.5t105.5 -35.5v-49h-572v49q72 12 93.5 33t21.5 75v745h-115v43l116 47v121q0 189 105.5 291.5t277.5 102.5q135 0 205 -52.5t70 -136.5q0 -50 -34 -83.5t-83 -33.5q-50 0 -84 33t-34 84q0 38 21 68t55 41q-18 2 -29 2q-143 0 -143 -208v-242
l240 15v-92l-240 15v-750z" />
    <glyph glyph-name="g" unicode="g" horiz-adv-x="1170" 
d="M82 684q0 147 135 238t343 91q133 0 246 -41l339 23v-92l-277 21q82 -29 129.5 -92.5t47.5 -143.5q0 -146 -136 -232t-342 -86q-51 0 -117 8q-110 -23 -110 -98q0 -89 171 -89h168q211 0 319.5 -80t108.5 -228q0 -163 -156.5 -267t-389.5 -104q-238 0 -377 62.5
t-140 166.5q0 83 92 133t285 59q-152 0 -244.5 58.5t-92.5 156.5q1 97 85 161.5t236 81.5q-144 22 -233.5 98.5t-89.5 194.5zM404 696q0 -122 43.5 -193.5t119.5 -71.5t117 68t41 188q0 121 -43.5 193t-119.5 72q-77 0 -117.5 -68t-40.5 -188zM318 -239q0 -81 67 -132
t181 -51q123 0 198.5 52t75.5 139q0 154 -211 154h-151q-77 -8 -118.5 -50.5t-41.5 -111.5z" />
    <glyph glyph-name="h" unicode="h" horiz-adv-x="1323" 
d="M490 1498l-2 -675q40 87 130 138.5t214 51.5q157 0 248.5 -81t91.5 -238v-535q0 -55 21.5 -76t94.5 -34v-49h-544v49q63 11 81.5 31t18.5 73v522q0 99 -46.5 150t-132.5 51q-60 0 -106 -25.5t-69 -68.5v-629q0 -53 18 -72.5t82 -31.5v-49h-544v49q72 13 93.5 34t21.5 76
v1124q0 49 -11 66.5t-53 31.5l-51 17v46z" />
    <glyph glyph-name="i" unicode="i" horiz-adv-x="644" 
d="M307 1138q-70 0 -119 45.5t-49 112.5q0 68 49 113.5t119 45.5t119 -45.5t49 -113.5q0 -67 -49 -112.5t-119 -45.5zM490 1007v-848q0 -55 21.5 -76t93.5 -34v-49h-559v49q72 13 93.5 34t21.5 76v634q0 49 -11 66.5t-53 31.5l-51 16v46z" />
    <glyph glyph-name="j" unicode="j" horiz-adv-x="616" 
d="M296 1138q-70 0 -119 45.5t-49 112.5q0 68 49 113.5t119 45.5t119 -45.5t49 -113.5q0 -67 -49 -112.5t-119 -45.5zM480 1007v-785q0 -130 -19.5 -220t-71.5 -166t-126.5 -134.5t-200.5 -132.5l-73 -44l-27 40q113 101 151.5 218t38.5 354v656q0 49 -11.5 66.5t-52.5 31.5
l-51 16v46z" />
    <glyph glyph-name="k" unicode="k" horiz-adv-x="1230" 
d="M836 0l-262 479l-84 1v-327q0 -53 18 -72.5t82 -31.5v-49h-544v49q72 13 93.5 34t21.5 76v1124q0 49 -11 66.5t-53 31.5l-51 17v46l444 54v-959l82 2l229 241q68 67 60.5 106.5t-96.5 55.5v50h419v-50q-84 -19 -148.5 -55.5t-169.5 -126.5l-55 -50l233 -426
q68 -129 109 -176.5t88 -62.5v-47h-405z" />
    <glyph glyph-name="l" unicode="l" horiz-adv-x="645" 
d="M490 1498v-1339q0 -55 21.5 -76t93.5 -34v-49h-559v49q72 13 93.5 34t21.5 76v1124q0 49 -11 66.5t-53 31.5l-51 17v46z" />
    <glyph glyph-name="m" unicode="m" horiz-adv-x="1964" 
d="M488 1007v-186q37 87 126.5 139.5t213.5 52.5q119 0 201.5 -50t109.5 -143q38 87 130 140t215 53q153 0 241.5 -81t88.5 -236v-537q0 -55 21.5 -76t93.5 -34v-49h-544v49q64 12 82 31.5t18 72.5v524q0 98 -43.5 148.5t-124.5 50.5q-121 0 -172 -89q7 -34 7 -76v-558
q0 -54 18 -73.5t82 -30.5v-49h-528v49q64 11 81.5 30.5t17.5 73.5v524q0 99 -42.5 149t-122.5 50q-117 0 -168 -94v-629q0 -54 18 -73.5t82 -30.5v-49h-544v49q72 13 93.5 34t21.5 76v634q0 49 -11 66.5t-53 31.5l-51 16v46z" />
    <glyph glyph-name="n" unicode="n" horiz-adv-x="1323" 
d="M488 1007v-186q38 88 128.5 140t215.5 52q157 0 248.5 -81t91.5 -238v-535q0 -55 21.5 -76t94.5 -34v-49h-544v49q63 11 81.5 31t18.5 73v522q0 99 -46.5 150t-132.5 51q-60 0 -106 -25.5t-69 -68.5v-629q0 -53 18 -72.5t82 -31.5v-49h-544v49q72 13 93.5 34t21.5 76v634
q0 49 -11 66.5t-53 31.5l-51 16v46z" />
    <glyph glyph-name="o" unicode="o" horiz-adv-x="1263" 
d="M629 -20q-243 0 -400.5 140.5t-157.5 372.5q0 151 73.5 270t201.5 184.5t287 65.5q244 0 401.5 -140.5t157.5 -371.5q0 -151 -73.5 -270.5t-201.5 -185t-288 -65.5zM636 46q100 0 153.5 117t53.5 327q0 214 -58 335.5t-158 121.5q-101 0 -154.5 -116.5t-53.5 -326.5
q0 -214 58 -336t159 -122z" />
    <glyph glyph-name="p" unicode="p" horiz-adv-x="1279" 
d="M1208 506q0 -121 -37.5 -221.5t-101 -166.5t-148 -102t-178.5 -36q-88 0 -160 34.5t-103 90.5v-398q0 -60 23.5 -82.5t105.5 -35.5v-49h-572v49q72 12 93.5 33t21.5 75v1096q0 49 -11.5 66.5t-52.5 31.5l-51 16v46l441 54v-187q35 87 121.5 140t201.5 53
q174 0 290.5 -137.5t116.5 -369.5zM869 476q0 184 -62.5 292t-164.5 108q-112 0 -162 -96v-616q18 -38 60.5 -62.5t94.5 -24.5q106 0 170 107.5t64 291.5z" />
    <glyph glyph-name="q" unicode="q" horiz-adv-x="1263" 
d="M71 488q0 123 37 223.5t101 166t148.5 101t180.5 35.5q100 0 177.5 -41t110.5 -106l118 127h184v-1297q0 -54 21.5 -75t93.5 -33v-49h-572v49q81 13 104 35.5t24 82.5l2 466q-36 -89 -123 -140.5t-201 -51.5q-175 0 -290.5 136.5t-115.5 370.5zM410 518q0 -187 62 -293
t162 -106q116 0 165 94v616q-18 37 -60 62.5t-94 25.5q-107 0 -171 -105t-64 -294z" />
    <glyph glyph-name="r" unicode="r" horiz-adv-x="936" 
d="M488 1007l-1 -282q72 149 138.5 216.5t142.5 67.5q65 0 99 -45.5t34 -116.5q0 -63 -23 -109q-53 20 -144 20q-75 0 -143 -18.5t-101 -48.5v-524q0 -60 23.5 -82.5t104.5 -35.5v-49h-572v49q72 12 93.5 33t21.5 75v636q0 49 -11.5 66.5t-52.5 31.5l-51 16v46z" />
    <glyph glyph-name="s" unicode="s" horiz-adv-x="977" 
d="M76 691q0 150 123 235.5t337 85.5q102 0 185.5 -17t128.5 -41l4 -263h-47q-29 122 -98.5 189t-168.5 67q-85 0 -132 -36.5t-47 -97.5q0 -55 41 -90t130 -64l83 -26q148 -48 221.5 -126.5t73.5 -201.5q0 -100 -61 -174.5t-165.5 -112t-237.5 -37.5q-106 0 -205.5 22
t-157.5 57l-10 284h47q30 -134 119.5 -215.5t200.5 -81.5q85 0 135 38.5t50 100.5q0 58 -39.5 96t-126.5 67l-83 26q-146 48 -223 123t-77 193z" />
    <glyph glyph-name="t" unicode="t" horiz-adv-x="740" 
d="M151 291v611h-113v43l402 294h38v-260l240 15v-92l-240 15v-627q0 -183 139 -183q70 0 113 40v-50q-33 -48 -111.5 -82.5t-168.5 -34.5q-135 0 -217 76.5t-82 234.5z" />
    <glyph glyph-name="u" unicode="u" horiz-adv-x="1292" 
d="M469 1007v-687q0 -100 44.5 -151t129.5 -51q56 0 100 25t67 67v583q0 49 -11 66.5t-53 31.5l-52 16v46l445 54v-810q0 -49 11 -66.5t52 -32.5l51 -15v-46l-441 -49v184q-39 -88 -128.5 -140t-213.5 -52q-152 0 -241 81.5t-89 240.5v491q0 49 -11 66.5t-52 31.5l-52 16v46
z" />
    <glyph glyph-name="v" unicode="v" horiz-adv-x="1082" 
d="M149 780q-35 89 -64.5 120t-88.5 44v50h601v-50q-87 -11 -102.5 -48t19.5 -147l158 -476l158 474q35 112 20.5 148.5t-99.5 48.5v50h334v-50q-61 -12 -92.5 -49.5t-77.5 -155.5l-286 -741h-180z" />
    <glyph glyph-name="w" unicode="w" horiz-adv-x="1722" 
d="M148 780q-31 88 -61.5 119.5t-90.5 44.5v50h584v-50q-52 -7 -72.5 -25t-19.5 -55.5t22 -114.5l133 -455l140 457q21 75 22 112.5t-19 55.5t-69 25v50h550v-50q-51 -7 -71 -25t-18.5 -56t23.5 -114l136 -455l137 453q32 112 18.5 149t-87.5 48v50h320v-50
q-42 -9 -66.5 -25t-48 -57t-51.5 -122l-263 -742h-176l-259 724l-258 -724h-177z" />
    <glyph glyph-name="x" unicode="x" horiz-adv-x="1080" 
d="M922 186q46 -69 79 -97.5t80 -39.5v-49h-577v49q81 10 91.5 42.5t-44.5 121.5l-123 189l-121 -189q-36 -60 -41.5 -92.5t14 -48t71.5 -23.5v-49h-352v49q68 16 110 50t111 129l170 231l-231 351q-45 69 -77.5 96.5t-78.5 37.5v50h574v-50q-81 -9 -91 -41.5t42 -118.5
l124 -187l120 187q51 88 41.5 118t-88.5 42v50h346v-50q-64 -14 -105.5 -47t-104.5 -123l-172 -235z" />
    <glyph glyph-name="y" unicode="y" horiz-adv-x="1077" 
d="M150 780q-38 92 -66.5 122t-87.5 42v50h595v-50q-86 -11 -100.5 -46t20.5 -135l157 -448l154 444q36 103 21.5 138t-99.5 47v50h338v-50q-62 -12 -94 -47.5t-77 -145.5l-193 -471l-133 -317l-151 -423h-241v4q73 75 161 192t144 215z" />
    <glyph glyph-name="z" unicode="z" horiz-adv-x="968" 
d="M71 994h844v-45l-506 -894l163 6q143 8 206 69t94 224h47l-6 -354h-864v45l506 893l-137 -6q-101 -7 -158.5 -33t-91.5 -80t-58 -155h-47z" />
    <glyph glyph-name="braceleft" unicode="{" horiz-adv-x="735" 
d="M508 1015q0 -169 -91 -256.5t-286 -107.5q194 -21 285.5 -108.5t91.5 -256.5v-242q0 -54 3 -90.5t14 -74t30.5 -59.5t54 -36t82.5 -14v-50h-39q-220 0 -327 93t-107 279v323q0 113 -49 162.5t-142 49.5v47q93 0 142 49t49 160v325q0 186 107 279t327 93h39v-50
q-48 0 -82.5 -14t-54 -36t-30.5 -59.5t-14 -74t-3 -89.5v-242z" />
    <glyph glyph-name="bar" unicode="|" horiz-adv-x="735" 
d="M309 -280v1860h117v-1860h-117z" />
    <glyph glyph-name="braceright" unicode="}" horiz-adv-x="735" 
d="M226 1015v242q0 53 -3 89.5t-14 74t-30.5 59.5t-53.5 36t-82 14v50h38q221 0 327.5 -92.5t106.5 -279.5v-325q0 -111 49.5 -160t141.5 -49v-47q-93 0 -142 -49.5t-49 -162.5v-323q0 -187 -106.5 -279.5t-327.5 -92.5h-38v50q48 0 82 14t53.5 36t30.5 59.5t14 74t3 90.5
v242q0 169 91.5 256.5t285.5 108.5q-194 20 -285.5 107.5t-91.5 256.5z" />
    <glyph glyph-name="asciitilde" unicode="&#x223c;" horiz-adv-x="1215" 
d="M875 496q78 0 123.5 64t46.5 193h91q0 -178 -69.5 -269t-190.5 -91q-53 0 -111 26.5t-109 64.5t-100.5 76t-102 64.5t-97.5 26.5q-78 0 -123.5 -63.5t-46.5 -193.5h-91q0 179 69.5 269.5t191.5 90.5q53 0 111.5 -26.5t109 -64.5t100 -76t102 -64.5t96.5 -26.5z" />
    <glyph glyph-name="asciitilde" unicode="~" horiz-adv-x="1215" 
d="M875 496q78 0 123.5 64t46.5 193h91q0 -178 -69.5 -269t-190.5 -91q-53 0 -111 26.5t-109 64.5t-100.5 76t-102 64.5t-97.5 26.5q-78 0 -123.5 -63.5t-46.5 -193.5h-91q0 179 69.5 269.5t191.5 90.5q53 0 111.5 -26.5t109 -64.5t100 -76t102 -64.5t96.5 -26.5z" />
    <glyph glyph-name="exclamdown" unicode="&#xa1;" horiz-adv-x="712" 
d="M357 970q66 0 113 -45t47 -109t-47 -109t-113 -45t-112.5 45t-46.5 109t47 109t112 45zM356 -513q-83 0 -134 54.5t-51 143.5q0 130 72 423l98 411h33l97 -412q71 -287 71 -422q0 -89 -51.5 -143.5t-134.5 -54.5z" />
    <glyph glyph-name="cent" unicode="&#xa2;" horiz-adv-x="1071" 
d="M639 0h-43v205q-147 1 -265.5 62.5t-189 179t-70.5 271.5q0 222 147.5 366t377.5 154v206h43v-206q175 -2 274.5 -69t99.5 -174q0 -61 -41.5 -102t-100.5 -41q-60 0 -101.5 41.5t-41.5 101.5q0 52 33.5 90t82.5 46q-56 29 -132 29q-42 0 -73 -8v-781q64 -25 132 -25
q75 0 141.5 23t107.5 62v-49q-53 -76 -153 -122t-228 -53v-207zM404 782q0 -139 51.5 -239t140.5 -151v746q-90 -37 -141 -130.5t-51 -225.5z" />
    <glyph glyph-name="sterling" unicode="&#xa3;" horiz-adv-x="1226" 
d="M122 747h177q-27 47 -39.5 71.5t-31.5 68.5t-27 86.5t-8 88.5q0 100 40.5 178.5t110 127t158 73.5t189.5 25q181 0 295.5 -73.5t114.5 -195.5q0 -60 -42.5 -102t-102.5 -42q-61 0 -102.5 41.5t-41.5 100.5t39.5 99.5t96.5 40.5h2q-72 51 -170 51q-114 0 -180 -63.5
t-66 -184.5q0 -63 19 -129t49.5 -142t42.5 -120h282v-44h-271q7 -44 7 -78q0 -119 -84.5 -213t-233.5 -144h753l-1 -268h-952v219q115 37 180 109t65 170q0 89 -66 205h-202v44z" />
    <glyph glyph-name="currency" unicode="&#xa4;" horiz-adv-x="1226" 
d="M612 175q-134 0 -240 79l-165 -169l-74 74l165 168q-86 108 -86 247q0 141 86 249l-165 168l74 73l165 -169q107 80 240 80q134 0 241 -80l165 169l74 -73l-165 -169q85 -109 85 -248q0 -138 -85 -247l165 -168l-74 -73l-166 169q-106 -80 -240 -80zM612 269
q125 0 212.5 88.5t87.5 216.5q0 129 -87.5 217t-212.5 88t-212.5 -88t-87.5 -217q0 -128 87.5 -216.5t212.5 -88.5z" />
    <glyph glyph-name="yen" unicode="&#xa5;" horiz-adv-x="1226" 
d="M127 482h320v229l-2 4h-318v44h295l-231 435q-61 112 -102.5 150t-108.5 51v49h618v-49q-84 -13 -95 -50t40 -138l204 -414l182 375q62 130 49.5 172t-109.5 55v49h375v-49q-76 -14 -118.5 -55.5t-112.5 -171.5l-222 -409h305v-44h-320v-233h320v-44h-320v-239
q0 -76 27.5 -106.5t117.5 -43.5v-49h-619v49q90 13 117.5 43.5t27.5 106.5v239h-320v44z" />
    <glyph glyph-name="brokenbar" unicode="&#xa6;" horiz-adv-x="735" 
d="M309 789v791h117v-791h-117zM309 -280v791h117v-791h-117z" />
    <glyph glyph-name="section" unicode="&#xa7;" horiz-adv-x="1104" 
d="M93 560q0 125 95.5 203.5t238.5 78.5q25 0 47 -3q-159 71 -230.5 148.5t-71.5 186.5q0 137 116 216.5t308 79.5q95 0 174.5 -18.5t122.5 -44.5l3 -232h-47q-24 111 -90 170t-161 59q-83 0 -126.5 -38.5t-43.5 -104.5q-1 -61 42.5 -104t143.5 -89l84 -38
q169 -75 244.5 -156t75.5 -202q0 -127 -96.5 -202t-242.5 -75q-12 0 -40 2q144 -66 213 -148t69 -190q0 -145 -120.5 -225.5t-308.5 -80.5q-199 0 -334 81l-6 243h48q26 -122 101 -189.5t186 -67.5q86 0 132.5 42t46.5 112q0 64 -39 107t-134 87l-84 38q-166 74 -241 152
t-75 202zM778 580q0 111 -137 183q-85 46 -150 46q-69 0 -113 -43.5t-44 -112.5q0 -107 138 -180q82 -46 148 -46q69 0 113.5 42.5t44.5 110.5z" />
    <glyph glyph-name="dieresis" unicode="&#xa8;" horiz-adv-x="1024" 
d="M284 1155q-63 0 -107 41t-44 101q0 61 44 101.5t107 40.5t107 -40.5t44 -101.5q0 -60 -44 -101t-107 -41zM740 1155q-63 0 -107 41t-44 101q0 61 44 101.5t107 40.5t107 -40.5t44 -101.5q0 -60 -44 -101t-107 -41z" />
    <glyph glyph-name="copyright" unicode="&#xa9;" horiz-adv-x="1659" 
d="M829 -23q-151 0 -289 59.5t-238 159.5t-159.5 238t-59.5 289t59.5 289t159.5 238t238 159.5t289 59.5t289 -59.5t238.5 -159.5t160 -238t59.5 -289t-59.5 -289t-160 -238t-238.5 -159.5t-289 -59.5zM829 21q141 0 270 56t222.5 150t149.5 224t56 272q0 190 -94 351.5
t-255 256t-349 94.5t-348.5 -94.5t-254.5 -256.5t-94 -351q0 -190 94 -351.5t254.5 -256t348.5 -94.5zM475 724q0 117 55 202.5t147.5 128t209.5 42.5q157 0 225 -44l5 -210h-28q-20 96 -69.5 154.5t-121.5 58.5q-92 0 -145.5 -89.5t-53.5 -239.5q0 -90 22.5 -165.5
t69 -123.5t108.5 -48q69 0 119.5 58.5t72.5 159.5h27l-4 -211q-30 -21 -92 -34.5t-134 -13.5q-181 0 -297 101t-116 274z" />
    <glyph glyph-name="a.sups" unicode="&#xaa;" horiz-adv-x="707" 
d="M219 855q-73 0 -118 35t-45 91q0 61 56 102.5t183 64.5l108 22v49q0 67 -33 98t-98 31q-28 0 -62 -9q51 -22 51 -75q0 -36 -26 -60.5t-64 -24.5q-39 0 -65 23t-26 58q0 58 71 98t191 40q266 0 266 -187v-234q0 -29 14.5 -44t36.5 -15q11 0 21 2v-33q-45 -29 -124 -29
q-56 0 -98 23.5t-50 66.5q-16 -43 -67 -68t-122 -25zM260 1013q0 -38 20 -58.5t51 -20.5q53 0 72 39v159l-31 -7q-60 -13 -86 -40.5t-26 -71.5z" />
    <glyph glyph-name="guillemetleft" unicode="&#xab;" horiz-adv-x="1114" 
d="M72 503v22l414 431h82l-224 -440l224 -444h-82zM491 503v22l415 431h82l-224 -440l224 -444h-82z" />
    <glyph glyph-name="logicalnot" unicode="&#xac;" horiz-adv-x="1226" 
d="M123 535v104h980v-542h-105v438h-875z" />
    <glyph glyph-name="registered" unicode="&#xae;" horiz-adv-x="1659" 
d="M829 -23q-151 0 -289 59.5t-238 159.5t-159.5 238t-59.5 289t59.5 289t159.5 238t238 159.5t289 59.5t289 -59.5t238.5 -159.5t160 -238t59.5 -289t-59.5 -289t-160 -238t-238.5 -159.5t-289 -59.5zM829 21q141 0 270 56t222.5 150t149.5 224t56 272q0 190 -94 351.5
t-255 256t-349 94.5t-348.5 -94.5t-254.5 -256.5t-94 -351q0 -190 94 -351.5t254.5 -256t348.5 -94.5zM1145 890q0 -62 -36 -105t-101 -61l98 -212q31 -65 50 -89t41 -33v-29h-229l-148 324h-65v-229q0 -31 11.5 -44t49.5 -21v-30h-330v30q41 9 53.5 22.5t12.5 46.5v526
q0 35 -12.5 48t-53.5 21v30h344q157 0 236 -52t79 -143zM943 879q0 74 -39.5 120.5t-117.5 50.5h-31v-330l37 1q68 3 109.5 45t41.5 113z" />
    <glyph glyph-name="macron" unicode="&#xaf;" horiz-adv-x="1024" 
d="M198 1198v167h627v-167h-627z" />
    <glyph glyph-name="degree" unicode="&#xb0;" horiz-adv-x="776" 
d="M388 807q-125 0 -212 84t-87 208q0 123 87.5 208t211.5 85t211.5 -85t87.5 -208t-87.5 -207.5t-211.5 -84.5zM388 877q90 0 154 64t64 158t-64 158.5t-154 64.5q-91 0 -154.5 -64t-63.5 -159q0 -94 63.5 -158t154.5 -64z" />
    <glyph glyph-name="plusminus" unicode="&#xb1;" horiz-adv-x="1226" 
d="M560 290v342h-437v104h437v342h104v-342h439v-104h-439v-342h-104zM123 97v105h980v-105h-980z" />
    <glyph glyph-name="two.sups" unicode="&#xb2;" horiz-adv-x="682" 
d="M608 878h-542v115l117 106q103 98 145 163.5t42 130.5q0 57 -35 91t-96 34q-54 0 -93 -28.5t-58 -77.5l-32 14q28 99 102 154.5t188 55.5q112 0 178.5 -57t65.5 -146q0 -80 -68.5 -149t-234.5 -166l-124 -78h445v-162z" />
    <glyph glyph-name="three.sups" unicode="&#xb3;" horiz-adv-x="718" 
d="M319 865q-111 0 -182.5 48.5t-71.5 116.5q0 35 24 58.5t61 23.5q35 0 59.5 -22.5t24.5 -56.5q0 -33 -23.5 -56.5t-53.5 -23.5q43 -30 98 -30q68 0 111.5 42t43.5 111q0 76 -51 121.5t-132 45.5q-13 0 -46 -3v38q213 24 213 138q0 47 -32.5 75t-90.5 28q-118 0 -165 -101
l-29 16q27 93 103.5 147.5t191.5 54.5q108 0 173 -45t65 -118q0 -65 -53.5 -108t-145.5 -54q101 -12 161.5 -70t60.5 -141q0 -111 -91.5 -173t-222.5 -62z" />
    <glyph glyph-name="acute" unicode="&#xb4;" horiz-adv-x="1024" 
d="M439 1102h-62l133 376h332v-7z" />
    <glyph glyph-name="mugreek" unicode="&#x3bc;" horiz-adv-x="1264" 
d="M130 -460v554q0 643 -5 900h337q-21 -295 -21 -592q0 -271 186 -271q121 0 161 100l-10 763h340q-9 -155 -17.5 -401.5t-8.5 -312.5q-1 -89 23 -127t77 -38q34 0 52 13v-48q-37 -42 -97.5 -68t-129.5 -26q-93 0 -150 53.5t-68 149.5q-20 -90 -93 -149t-173 -59
q-59 0 -109 18q8 -254 35 -459h-329z" />
    <glyph glyph-name="mugreek" unicode="&#xb5;" horiz-adv-x="1264" 
d="M130 -460v554q0 643 -5 900h337q-21 -295 -21 -592q0 -271 186 -271q121 0 161 100l-10 763h340q-9 -155 -17.5 -401.5t-8.5 -312.5q-1 -89 23 -127t77 -38q34 0 52 13v-48q-37 -42 -97.5 -68t-129.5 -26q-93 0 -150 53.5t-68 149.5q-20 -90 -93 -149t-173 -59
q-59 0 -109 18q8 -254 35 -459h-329z" />
    <glyph glyph-name="paragraph" unicode="&#xb6;" horiz-adv-x="1305" 
d="M662 -220v740h-89q-70 0 -140 19t-135.5 59t-116 95.5t-81 134.5t-30.5 170q0 109 43.5 196t116.5 140.5t161 81.5t182 28h170v-1664h-81zM980 1444h268v-49q-114 -10 -150.5 -42.5t-36.5 -127.5v-1445h-81v1664z" />
    <glyph glyph-name="middledot" unicode="&#x2e31;" horiz-adv-x="529" 
d="M264 416q-70 0 -120.5 50.5t-50.5 121.5q0 70 50.5 120.5t120.5 50.5q71 0 121.5 -50t50.5 -121t-50.5 -121.5t-121.5 -50.5z" />
    <glyph glyph-name="middledot" unicode="&#x2027;" horiz-adv-x="529" 
d="M264 416q-70 0 -120.5 50.5t-50.5 121.5q0 70 50.5 120.5t120.5 50.5q71 0 121.5 -50t50.5 -121t-50.5 -121.5t-121.5 -50.5z" />
    <glyph glyph-name="middledot" unicode="&#xb7;" horiz-adv-x="529" 
d="M264 416q-70 0 -120.5 50.5t-50.5 121.5q0 70 50.5 120.5t120.5 50.5q71 0 121.5 -50t50.5 -121t-50.5 -121.5t-121.5 -50.5z" />
    <glyph glyph-name="cedilla" unicode="&#xb8;" horiz-adv-x="1024" 
d="M487 -458q-73 0 -131 26t-85 68l1 47q46 -35 122 -35q45 0 73.5 19.5t28.5 54.5q0 34 -27.5 53.5t-71.5 19.5q-30 0 -48 -9l-1 40l160 201h41v-27l-80 -100q21 3 43 3q92 0 154.5 -49t62.5 -130q0 -84 -70.5 -133t-171.5 -49z" />
    <glyph glyph-name="one.sups" unicode="&#xb9;" horiz-adv-x="629" 
d="M424 1624v-625q0 -43 24.5 -60.5t93.5 -25.5v-35h-446v35q70 8 94 25.5t24 60.5v497l-123 -34v32l237 130h96z" />
    <glyph glyph-name="o.sups" unicode="&#xba;" horiz-adv-x="760" 
d="M379 855q-141 0 -231 73.5t-90 195.5q0 121 91.5 197.5t231.5 76.5q141 0 231 -73.5t90 -195.5q0 -121 -91.5 -197.5t-231.5 -76.5zM382 899q49 0 74 58.5t25 165.5q0 109 -27 169.5t-77 60.5q-99 0 -99 -223q0 -110 27 -170.5t77 -60.5z" />
    <glyph glyph-name="guillemetright" unicode="&#xbb;" horiz-adv-x="1114" 
d="M573 526v-23l-414 -431h-82l224 441l-224 443h82zM993 526v-23l-415 -431h-81l224 441l-224 443h81z" />
    <glyph glyph-name="onequarter" unicode="&#xbc;" horiz-adv-x="1486" 
d="M424 1445v-626q0 -42 24.5 -60t93.5 -26v-34h-446v34q69 8 93.5 25.5t24.5 60.5v498l-123 -34v31l237 131h96zM293 0l861 1444h99l-861 -1444h-99zM1143 0v155h-340v98l364 493h168v-460h111v-131h-111v-155h-192zM1143 286v354l-239 -354h239z" />
    <glyph glyph-name="onehalf" unicode="&#xbd;" horiz-adv-x="1558" 
d="M424 1445v-626q0 -42 24.5 -60t93.5 -26v-34h-446v34q69 8 93.5 25.5t24.5 60.5v498l-123 -34v31l237 131h96zM293 0l861 1444h99l-861 -1444h-99zM1484 0h-542v115l117 106q103 99 145 164t42 130q0 57 -35.5 91t-95.5 34q-54 0 -92.5 -29t-58.5 -77l-32 14
q28 99 102 154.5t188 55.5q112 0 178.5 -57t65.5 -146q0 -80 -68.5 -149.5t-234.5 -165.5l-124 -78h445v-162z" />
    <glyph glyph-name="threequarters" unicode="&#xbe;" horiz-adv-x="1534" 
d="M319 686q-111 0 -182.5 48.5t-71.5 116.5q0 35 24 58t61 23q35 0 59.5 -22.5t24.5 -56.5q0 -33 -23 -56t-54 -23q42 -31 98 -31q68 0 111.5 42t43.5 112q0 75 -51.5 120.5t-131.5 45.5q-30 0 -46 -3v39q213 24 213 138q0 47 -32.5 74.5t-90.5 27.5q-118 0 -165 -101
l-29 17q27 92 103.5 146.5t191.5 54.5q108 0 173 -44.5t65 -117.5q0 -65 -53.5 -108t-145.5 -55q101 -11 161.5 -69t60.5 -142q0 -111 -91.5 -172.5t-222.5 -61.5zM340 0l861 1444h99l-860 -1444h-100zM1191 0v155h-340v98l364 493h168v-460h111v-131h-111v-155h-192z
M1191 286v354l-239 -354h239z" />
    <glyph glyph-name="questiondown" unicode="&#xbf;" horiz-adv-x="762" 
d="M443 970q65 0 112 -45t47 -109t-47 -108.5t-112 -44.5q-66 0 -113 44.5t-47 108.5t47 109t113 45zM462 -515q-164 -1 -274 120.5t-110 326.5q0 193 104.5 320t267.5 162l-5 102h38l83 -406q-209 -4 -310 -45.5t-99 -119.5q2 -96 126 -142.5t382 -46.5q13 -32 13 -77
q0 -84 -57.5 -139t-158.5 -55z" />
    <glyph glyph-name="Agrave" unicode="&#xc0;" horiz-adv-x="1441" 
d="M806 1529l-388 283v6h343l106 -289h-61zM1259 266q43 -120 80 -161.5t113 -55.5v-49h-672v49q97 14 117 58.5t-19 167.5l-74 220h-448l-65 -197q-30 -94 -30.5 -142.5t28.5 -72t100 -34.5v-49h-401v49q79 14 117 60t90 193l411 1145h234zM378 565h403l-204 610z" />
    <glyph glyph-name="Aacute" unicode="&#xc1;" horiz-adv-x="1441" 
d="M656 1529l-62 1l115 289h332v-6zM1259 266q43 -120 80 -161.5t113 -55.5v-49h-672v49q97 14 117 58.5t-19 167.5l-74 220h-448l-65 -197q-30 -94 -30.5 -142.5t28.5 -72t100 -34.5v-49h-401v49q79 14 117 60t90 193l411 1145h234zM378 565h403l-204 610z" />
    <glyph glyph-name="Acircumflex" unicode="&#xc2;" horiz-adv-x="1441" 
d="M490 1529h-60l209 289h185l209 -289h-62l-240 136zM1259 266q43 -120 80 -161.5t113 -55.5v-49h-672v49q97 14 117 58.5t-19 167.5l-74 220h-448l-65 -197q-30 -94 -30.5 -142.5t28.5 -72t100 -34.5v-49h-401v49q79 14 117 60t90 193l411 1145h234zM378 565h403l-204 610
z" />
    <glyph glyph-name="Atilde" unicode="&#xc3;" horiz-adv-x="1441" 
d="M835 1546q-73 0 -156 55l-29 19q-58 37 -93 37t-54 -27.5t-21 -91.5h-56q-9 142 38.5 209.5t132.5 67.5q71 0 157 -56l29 -19q56 -36 93 -36q70 0 75 118h56q8 -142 -39.5 -209t-132.5 -67zM1259 266q43 -120 80 -161.5t113 -55.5v-49h-672v49q97 14 117 58.5t-19 167.5
l-74 220h-448l-65 -197q-30 -94 -30.5 -142.5t28.5 -72t100 -34.5v-49h-401v49q79 14 117 60t90 193l411 1145h234zM378 565h403l-204 610z" />
    <glyph glyph-name="Adieresis" unicode="&#xc4;" horiz-adv-x="1441" 
d="M547 1553q-53 0 -89.5 35t-36.5 87q0 51 36.5 86t89.5 35t90 -34.5t37 -86.5t-36.5 -87t-90.5 -35zM886 1553q-53 0 -90 35t-37 87q0 51 37 86t90 35t89.5 -35t36.5 -86q0 -52 -36.5 -87t-89.5 -35zM1259 266q43 -120 80 -161.5t113 -55.5v-49h-672v49q97 14 117 58.5
t-19 167.5l-74 220h-448l-65 -197q-30 -94 -30.5 -142.5t28.5 -72t100 -34.5v-49h-401v49q79 14 117 60t90 193l411 1145h234zM378 565h403l-204 610z" />
    <glyph glyph-name="Aring" unicode="&#x212b;" horiz-adv-x="1441" 
d="M452 1722q0 79 74.5 127.5t189.5 48.5t190 -48.5t75 -127.5t-74.5 -126.5t-190.5 -47.5q-115 0 -189.5 48t-74.5 126zM634 1722q0 -57 22.5 -92t59.5 -35t59.5 35t22.5 92t-22.5 92.5t-59.5 35.5t-59.5 -35.5t-22.5 -92.5zM1259 266q43 -120 80 -161.5t113 -55.5v-49
h-672v49q97 14 117 58.5t-19 167.5l-74 220h-448l-65 -197q-30 -94 -30.5 -142.5t28.5 -72t100 -34.5v-49h-401v49q79 14 117 60t90 193l411 1145h234zM378 565h403l-204 610z" />
    <glyph glyph-name="Aring" unicode="&#xc5;" horiz-adv-x="1441" 
d="M452 1722q0 79 74.5 127.5t189.5 48.5t190 -48.5t75 -127.5t-74.5 -126.5t-190.5 -47.5q-115 0 -189.5 48t-74.5 126zM634 1722q0 -57 22.5 -92t59.5 -35t59.5 35t22.5 92t-22.5 92.5t-59.5 35.5t-59.5 -35.5t-22.5 -92.5zM1259 266q43 -120 80 -161.5t113 -55.5v-49
h-672v49q97 14 117 58.5t-19 167.5l-74 220h-448l-65 -197q-30 -94 -30.5 -142.5t28.5 -72t100 -34.5v-49h-401v49q79 14 117 60t90 193l411 1145h234zM378 565h403l-204 610z" />
    <glyph glyph-name="AE" unicode="&#xc6;" horiz-adv-x="1920" 
d="M1806 1444l14 -392h-47q-30 125 -73 191t-119.5 98t-210.5 39l-150 7l5 -620l173 5q91 4 126.5 48t57.5 164h44l3 -490h-43q-12 61 -24 97t-33 62.5t-51.5 38t-78.5 13.5l-174 5l6 -653l177 9q105 6 170.5 23.5t113.5 60t76 107t51 171.5h47l-14 -428h-1078v49
q79 14 103 38.5t24 89.5l-5 442h-425l-142 -307q-46 -100 -52.5 -152.5t19.5 -76t94 -34.5v-49h-407v49q77 14 125 63.5t124 203.5l555 1128h1019zM828 1385l-324 -696h392l-7 696h-61z" />
    <glyph glyph-name="Ccedilla" unicode="&#xc7;" horiz-adv-x="1426" 
d="M83 726q0 140 40.5 260t113.5 207.5t173 149.5t220.5 93t254.5 31q309 0 449 -92l10 -393h-47q-38 188 -141.5 302.5t-253.5 114.5q-197 0 -311.5 -181t-114.5 -482q0 -187 48.5 -342t147.5 -252t233 -97q144 0 248.5 113t147.5 312h47l-11 -394q-58 -41 -175 -69
t-255 -30l-64 -77q18 3 39 3q91 0 154 -49t63 -130q0 -84 -70.5 -133t-172.5 -49q-72 0 -130 26t-85 68l1 47q45 -35 121 -35q46 0 74.5 19.5t28.5 54.5q0 34 -27.5 53.5t-71.5 19.5q-30 0 -48 -9l-1 40l126 152q-219 9 -390 99.5t-271 258.5t-100 390z" />
    <glyph glyph-name="Egrave" unicode="&#xc8;" horiz-adv-x="1282" 
d="M771 1529l-388 283v6h343l106 -289h-61zM1167 1444l14 -393h-47q-22 94 -50.5 152.5t-77.5 97.5t-117 56.5t-174 22.5l-172 7v-620l201 5q93 4 130 48t61 164h43v-490h-43q-23 119 -60.5 163t-130.5 48l-201 5v-653l204 9q110 5 179.5 22.5t120.5 60t80.5 107.5t53.5 172
h47l-14 -428h-1161v49q84 16 109.5 41.5t25.5 93.5v1076q0 68 -25.5 93.5t-109.5 41.5v49h1114z" />
    <glyph glyph-name="Eacute" unicode="&#xc9;" horiz-adv-x="1282" 
d="M622 1529l-63 1l116 289h332v-6zM1167 1444l14 -393h-47q-22 94 -50.5 152.5t-77.5 97.5t-117 56.5t-174 22.5l-172 7v-620l201 5q93 4 130 48t61 164h43v-490h-43q-23 119 -60.5 163t-130.5 48l-201 5v-653l204 9q110 5 179.5 22.5t120.5 60t80.5 107.5t53.5 172h47
l-14 -428h-1161v49q84 16 109.5 41.5t25.5 93.5v1076q0 68 -25.5 93.5t-109.5 41.5v49h1114z" />
    <glyph glyph-name="Ecircumflex" unicode="&#xca;" horiz-adv-x="1282" 
d="M456 1529h-61l210 289h184l209 -289h-62l-240 136zM1167 1444l14 -393h-47q-22 94 -50.5 152.5t-77.5 97.5t-117 56.5t-174 22.5l-172 7v-620l201 5q93 4 130 48t61 164h43v-490h-43q-23 119 -60.5 163t-130.5 48l-201 5v-653l204 9q110 5 179.5 22.5t120.5 60
t80.5 107.5t53.5 172h47l-14 -428h-1161v49q84 16 109.5 41.5t25.5 93.5v1076q0 68 -25.5 93.5t-109.5 41.5v49h1114z" />
    <glyph glyph-name="Edieresis" unicode="&#xcb;" horiz-adv-x="1282" 
d="M513 1553q-53 0 -90 35t-37 87q0 51 37 86t90 35t90 -35t37 -86q0 -52 -37 -87t-90 -35zM851 1553q-53 0 -89.5 35t-36.5 87q0 51 36.5 86t89.5 35t90 -35t37 -86q0 -52 -37 -87t-90 -35zM1167 1444l14 -393h-47q-22 94 -50.5 152.5t-77.5 97.5t-117 56.5t-174 22.5
l-172 7v-620l201 5q93 4 130 48t61 164h43v-490h-43q-23 119 -60.5 163t-130.5 48l-201 5v-653l204 9q110 5 179.5 22.5t120.5 60t80.5 107.5t53.5 172h47l-14 -428h-1161v49q84 16 109.5 41.5t25.5 93.5v1076q0 68 -25.5 93.5t-109.5 41.5v49h1114z" />
    <glyph glyph-name="Igrave" unicode="&#xcc;" horiz-adv-x="731" 
d="M455 1529l-388 283v6h343l106 -289h-61zM543 184q0 -68 25 -93.5t109 -41.5v-49h-624v49q85 16 110 41.5t25 93.5v1076q0 68 -25 93.5t-110 41.5v49h624v-49q-84 -16 -109 -41.5t-25 -93.5v-1076z" />
    <glyph glyph-name="Iacute" unicode="&#xcd;" horiz-adv-x="731" 
d="M305 1529l-62 1l115 289h332v-6zM543 184q0 -68 25 -93.5t109 -41.5v-49h-624v49q85 16 110 41.5t25 93.5v1076q0 68 -25 93.5t-110 41.5v49h624v-49q-84 -16 -109 -41.5t-25 -93.5v-1076z" />
    <glyph glyph-name="Icircumflex" unicode="&#xce;" horiz-adv-x="731" 
d="M139 1529h-60l209 289h185l209 -289h-62l-240 136zM543 184q0 -68 25 -93.5t109 -41.5v-49h-624v49q85 16 110 41.5t25 93.5v1076q0 68 -25 93.5t-110 41.5v49h624v-49q-84 -16 -109 -41.5t-25 -93.5v-1076z" />
    <glyph glyph-name="Idieresis" unicode="&#xcf;" horiz-adv-x="731" 
d="M196 1553q-53 0 -89.5 35t-36.5 87q0 51 36.5 86t89.5 35t90 -34.5t37 -86.5t-36.5 -87t-90.5 -35zM535 1553q-53 0 -90 35t-37 87q0 51 37 86t90 35t89.5 -35t36.5 -86q0 -52 -36.5 -87t-89.5 -35zM543 184q0 -68 25 -93.5t109 -41.5v-49h-624v49q85 16 110 41.5
t25 93.5v1076q0 68 -25 93.5t-110 41.5v49h624v-49q-84 -16 -109 -41.5t-25 -93.5v-1076z" />
    <glyph glyph-name="Dbar" unicode="&#x110;" horiz-adv-x="1612" 
d="M53 710v60h135v490q0 68 -25 93.5t-110 41.5v49h591q271 0 471 -79t311.5 -237.5t111.5 -381.5q0 -140 -45.5 -260.5t-126.5 -208.5t-191.5 -151t-243 -94.5t-278.5 -31.5h-600v49q85 16 110 41.5t25 93.5v526h-135zM1146 723q1 193 -61 339.5t-184 232t-291 90.5l-67 2
v-617h267v-60h-267v-653l67 2q251 8 393.5 185.5t142.5 478.5z" />
    <glyph glyph-name="Dbar" unicode="&#xd0;" horiz-adv-x="1612" 
d="M53 710v60h135v490q0 68 -25 93.5t-110 41.5v49h591q271 0 471 -79t311.5 -237.5t111.5 -381.5q0 -140 -45.5 -260.5t-126.5 -208.5t-191.5 -151t-243 -94.5t-278.5 -31.5h-600v49q85 16 110 41.5t25 93.5v526h-135zM1146 723q1 193 -61 339.5t-184 232t-291 90.5l-67 2
v-617h267v-60h-267v-653l67 2q251 8 393.5 185.5t142.5 478.5z" />
    <glyph glyph-name="Ntilde" unicode="&#xd1;" horiz-adv-x="1473" 
d="M890 1546q-73 0 -156 55l-29 19q-58 37 -93 37t-54 -27.5t-21 -91.5h-56q-9 142 38.5 209.5t132.5 67.5q71 0 157 -56l29 -19q56 -36 93 -36q70 0 75 118h56q9 -142 -39 -209t-133 -67zM535 1444l700 -1100l-19 832q-3 124 -29 164.5t-117 53.5v50h380v-49
q-86 -14 -111 -55t-27 -162l-15 -1178h-270l-790 1236l19 -968q2 -123 28.5 -164t116.5 -54v-50h-380v49q86 14 111 55t27 162l13 966q0 78 -27.5 112.5t-105.5 50.5v49h496z" />
    <glyph glyph-name="Ograve" unicode="&#xd2;" horiz-adv-x="1694" 
d="M932 1529l-388 283v6h343l107 -289h-62zM83 720q0 209 93.5 378.5t268.5 269t399 99.5q160 0 300.5 -53t243.5 -148.5t163 -235.5t60 -305q0 -156 -55 -293.5t-153 -238t-241.5 -158.5t-311.5 -58q-160 0 -300.5 53.5t-243.5 149t-163 235.5t-60 305zM476 734
q0 -204 45 -359.5t131.5 -242.5t202.5 -87q126 0 208.5 85.5t119 231t36.5 349.5t-45.5 359.5t-132 242t-201.5 86.5q-126 0 -208.5 -85t-119 -230.5t-36.5 -349.5z" />
    <glyph glyph-name="Oacute" unicode="&#xd3;" horiz-adv-x="1694" 
d="M783 1529l-62 1l115 289h332v-6zM83 720q0 209 93.5 378.5t268.5 269t399 99.5q160 0 300.5 -53t243.5 -148.5t163 -235.5t60 -305q0 -156 -55 -293.5t-153 -238t-241.5 -158.5t-311.5 -58q-160 0 -300.5 53.5t-243.5 149t-163 235.5t-60 305zM476 734q0 -204 45 -359.5
t131.5 -242.5t202.5 -87q126 0 208.5 85.5t119 231t36.5 349.5t-45.5 359.5t-132 242t-201.5 86.5q-126 0 -208.5 -85t-119 -230.5t-36.5 -349.5z" />
    <glyph glyph-name="Ocircumflex" unicode="&#xd4;" horiz-adv-x="1694" 
d="M617 1529h-60l209 289h184l210 -289h-63l-239 136zM83 720q0 209 93.5 378.5t268.5 269t399 99.5q160 0 300.5 -53t243.5 -148.5t163 -235.5t60 -305q0 -156 -55 -293.5t-153 -238t-241.5 -158.5t-311.5 -58q-160 0 -300.5 53.5t-243.5 149t-163 235.5t-60 305zM476 734
q0 -204 45 -359.5t131.5 -242.5t202.5 -87q126 0 208.5 85.5t119 231t36.5 349.5t-45.5 359.5t-132 242t-201.5 86.5q-126 0 -208.5 -85t-119 -230.5t-36.5 -349.5z" />
    <glyph glyph-name="Otilde" unicode="&#xd5;" horiz-adv-x="1694" 
d="M961 1546q-72 0 -155 55l-29 19q-58 37 -93 37t-54 -27.5t-21 -91.5h-57q-8 142 39.5 209.5t132.5 67.5q71 0 157 -56l29 -19q56 -36 93 -36q70 0 75 118h56q8 -142 -40 -209t-133 -67zM83 720q0 209 93.5 378.5t268.5 269t399 99.5q160 0 300.5 -53t243.5 -148.5
t163 -235.5t60 -305q0 -156 -55 -293.5t-153 -238t-241.5 -158.5t-311.5 -58q-160 0 -300.5 53.5t-243.5 149t-163 235.5t-60 305zM476 734q0 -204 45 -359.5t131.5 -242.5t202.5 -87q126 0 208.5 85.5t119 231t36.5 349.5t-45.5 359.5t-132 242t-201.5 86.5
q-126 0 -208.5 -85t-119 -230.5t-36.5 -349.5z" />
    <glyph glyph-name="Odieresis" unicode="&#xd6;" horiz-adv-x="1694" 
d="M674 1553q-53 0 -89.5 35t-36.5 87q0 51 36.5 86t89.5 35t90 -35t37 -86q0 -52 -37 -87t-90 -35zM1013 1553q-53 0 -90 35t-37 87q0 51 37 86t90 35t89.5 -35t36.5 -86q0 -52 -36.5 -87t-89.5 -35zM83 720q0 209 93.5 378.5t268.5 269t399 99.5q160 0 300.5 -53
t243.5 -148.5t163 -235.5t60 -305q0 -156 -55 -293.5t-153 -238t-241.5 -158.5t-311.5 -58q-160 0 -300.5 53.5t-243.5 149t-163 235.5t-60 305zM476 734q0 -204 45 -359.5t131.5 -242.5t202.5 -87q126 0 208.5 85.5t119 231t36.5 349.5t-45.5 359.5t-132 242t-201.5 86.5
q-126 0 -208.5 -85t-119 -230.5t-36.5 -349.5z" />
    <glyph glyph-name="multiply" unicode="&#xd7;" horiz-adv-x="1226" 
d="M1067 208l-75 -75l-381 381l-379 -379l-71 72l378 378l-380 381l75 75l380 -380l380 379l71 -72l-379 -379z" />
    <glyph glyph-name="Oslash" unicode="&#xd8;" horiz-adv-x="1694" 
d="M83 720q0 209 93.5 378.5t268.5 269t399 99.5q290 0 497 -162l133 143l45 -44l-129 -140q221 -210 221 -539q0 -156 -55 -293.5t-153 -238t-241.5 -158.5t-311.5 -58q-291 0 -497 163l-132 -144l-46 44l130 141q-106 99 -164 236.5t-58 302.5zM476 734q0 -182 37 -328
l648 703q-48 138 -130.5 214t-190.5 76q-126 0 -208.5 -85t-119 -230.5t-36.5 -349.5zM1219 711q0 181 -37 327l-648 -702q48 -138 130.5 -214.5t190.5 -76.5q125 0 208 85.5t119.5 231t36.5 349.5z" />
    <glyph glyph-name="Ugrave" unicode="&#xd9;" horiz-adv-x="1505" 
d="M925 1529l-388 283v6h343l106 -289h-61zM161 1265q0 66 -24 91t-102 39v49h616v-49q-84 -16 -109.5 -41.5t-25.5 -93.5v-700q0 -228 101 -343.5t273 -115.5q174 0 277 123t99 339l-10 613q-3 123 -29 163t-117 55v50h372v-50q-82 -13 -106 -53.5t-27 -161.5l-10 -633
q-4 -262 -152 -415.5t-419 -153.5q-102 0 -191.5 21t-166 66.5t-131.5 112t-86.5 163.5t-31.5 215v710z" />
    <glyph glyph-name="Uacute" unicode="&#xda;" horiz-adv-x="1505" 
d="M776 1529l-63 1l116 289h332v-6zM161 1265q0 66 -24 91t-102 39v49h616v-49q-84 -16 -109.5 -41.5t-25.5 -93.5v-700q0 -228 101 -343.5t273 -115.5q174 0 277 123t99 339l-10 613q-3 123 -29 163t-117 55v50h372v-50q-82 -13 -106 -53.5t-27 -161.5l-10 -633
q-4 -262 -152 -415.5t-419 -153.5q-102 0 -191.5 21t-166 66.5t-131.5 112t-86.5 163.5t-31.5 215v710z" />
    <glyph glyph-name="Ucircumflex" unicode="&#xdb;" horiz-adv-x="1505" 
d="M610 1529h-61l210 289h184l209 -289h-62l-240 136zM161 1265q0 66 -24 91t-102 39v49h616v-49q-84 -16 -109.5 -41.5t-25.5 -93.5v-700q0 -228 101 -343.5t273 -115.5q174 0 277 123t99 339l-10 613q-3 123 -29 163t-117 55v50h372v-50q-82 -13 -106 -53.5t-27 -161.5
l-10 -633q-4 -262 -152 -415.5t-419 -153.5q-102 0 -191.5 21t-166 66.5t-131.5 112t-86.5 163.5t-31.5 215v710z" />
    <glyph glyph-name="Udieresis" unicode="&#xdc;" horiz-adv-x="1505" 
d="M667 1553q-53 0 -90 35t-37 87q0 51 37 86t90 35t89.5 -35t36.5 -86q0 -52 -36.5 -87t-89.5 -35zM1005 1553q-53 0 -89.5 35t-36.5 87q0 51 36.5 86t89.5 35t90 -35t37 -86q0 -52 -37 -87t-90 -35zM161 1265q0 66 -24 91t-102 39v49h616v-49q-84 -16 -109.5 -41.5
t-25.5 -93.5v-700q0 -228 101 -343.5t273 -115.5q174 0 277 123t99 339l-10 613q-3 123 -29 163t-117 55v50h372v-50q-82 -13 -106 -53.5t-27 -161.5l-10 -633q-4 -262 -152 -415.5t-419 -153.5q-102 0 -191.5 21t-166 66.5t-131.5 112t-86.5 163.5t-31.5 215v710z" />
    <glyph glyph-name="Yacute" unicode="&#xdd;" horiz-adv-x="1381" 
d="M722 1529l-62 1l116 289h331v-6zM206 1194q-65 112 -104.5 149.5t-108.5 51.5v49h654v-49q-91 -13 -103 -54.5t47 -154.5l247 -456l220 433q45 88 53 133.5t-16.5 67t-91.5 31.5v49h385v-49q-73 -14 -116.5 -57t-119.5 -176l-283 -495v-468q0 -77 27.5 -107t118.5 -43
v-49h-646v49q90 13 117.5 43.5t27.5 106.5v446z" />
    <glyph glyph-name="Thorn" unicode="&#xde;" horiz-adv-x="1390" 
d="M1333 751q0 -133 -82 -228t-225.5 -142t-335.5 -48h-147v-134q0 -77 27.5 -107t118.5 -43v-49h-636v49q84 16 109.5 41.5t25.5 93.5v1076q0 68 -25.5 93.5t-109.5 41.5v49h636v-49q-91 -13 -118.5 -43t-27.5 -107v-103h147q309 0 476 -97.5t167 -293.5zM959 733
q0 152 -89 247.5t-255 102.5l-72 3v-696l72 3q162 7 253 96t91 244z" />
    <glyph glyph-name="germandbls" unicode="&#xdf;" horiz-adv-x="1408" 
d="M494 0h-453v49q72 12 93.5 33t21.5 75l1 801q0 176 74 299.5t203.5 182.5t303.5 59q209 0 339.5 -70.5t130.5 -182.5q0 -42 -18.5 -77t-48 -59t-65.5 -45t-71.5 -40.5t-65 -40t-48 -48.5t-18.5 -62q0 -46 30 -77.5t113 -73.5l79 -41q130 -66 191 -152.5t61 -199.5
q0 -160 -115 -254.5t-287 -94.5q-93 0 -183.5 20.5t-138.5 49.5l-1 302h47q20 -135 97 -220.5t171 -85.5q74 0 116.5 40.5t42.5 107.5t-37.5 117t-129.5 98l-80 41q-107 55 -154 113.5t-47 142.5q0 49 17.5 90t45.5 71.5t61.5 58.5t67.5 57t62 60.5t45.5 75.5t17.5 96
q0 98 -61 157t-166 59q-121 0 -184.5 -87.5t-62.5 -263.5z" />
    <glyph glyph-name="agrave" unicode="&#xe0;" horiz-adv-x="1156" 
d="M609 1102l-406 369v7h343l125 -376h-62zM359 -20q-129 0 -210 67t-81 175q0 116 98.5 192t322.5 121l196 40v105q0 133 -61.5 193.5t-181.5 60.5q-82 0 -150 -31q48 -10 79.5 -48t31.5 -89q0 -60 -43 -101t-105 -41t-104.5 39.5t-42.5 99.5q0 106 122.5 178t324.5 72
q217 0 334 -83.5t117 -254.5v-479q0 -60 26 -89t70 -29q22 0 39 5v-46q-74 -52 -204 -52q-94 0 -163 43t-83 122q-29 -77 -119.5 -123.5t-212.5 -46.5zM391 273q0 -79 40.5 -123.5t104.5 -44.5q107 0 149 84v330l-70 -16q-121 -28 -172.5 -84t-51.5 -146z" />
    <glyph glyph-name="aacute" unicode="&#xe1;" horiz-adv-x="1156" 
d="M463 1102h-63l133 376h332v-7zM359 -20q-129 0 -210 67t-81 175q0 116 98.5 192t322.5 121l196 40v105q0 133 -61.5 193.5t-181.5 60.5q-82 0 -150 -31q48 -10 79.5 -48t31.5 -89q0 -60 -43 -101t-105 -41t-104.5 39.5t-42.5 99.5q0 106 122.5 178t324.5 72
q217 0 334 -83.5t117 -254.5v-479q0 -60 26 -89t70 -29q22 0 39 5v-46q-74 -52 -204 -52q-94 0 -163 43t-83 122q-29 -77 -119.5 -123.5t-212.5 -46.5zM391 273q0 -79 40.5 -123.5t104.5 -44.5q107 0 149 84v330l-70 -16q-121 -28 -172.5 -84t-51.5 -146z" />
    <glyph glyph-name="acircumflex" unicode="&#xe2;" horiz-adv-x="1156" 
d="M278 1102h-62l229 376h181l229 -376h-63l-256 184zM359 -20q-129 0 -210 67t-81 175q0 116 98.5 192t322.5 121l196 40v105q0 133 -61.5 193.5t-181.5 60.5q-82 0 -150 -31q48 -10 79.5 -48t31.5 -89q0 -60 -43 -101t-105 -41t-104.5 39.5t-42.5 99.5q0 106 122.5 178
t324.5 72q217 0 334 -83.5t117 -254.5v-479q0 -60 26 -89t70 -29q22 0 39 5v-46q-74 -52 -204 -52q-94 0 -163 43t-83 122q-29 -77 -119.5 -123.5t-212.5 -46.5zM391 273q0 -79 40.5 -123.5t104.5 -44.5q107 0 149 84v330l-70 -16q-121 -28 -172.5 -84t-51.5 -146z" />
    <glyph glyph-name="atilde" unicode="&#xe3;" horiz-adv-x="1156" 
d="M663 1151q-79 0 -168 60l-32 22q-60 41 -100 41q-39 0 -59.5 -31t-21.5 -102h-57q-9 155 41 228.5t141 73.5q77 0 169 -61l31 -22q61 -41 101 -41q39 0 59.5 30.5t21.5 101.5h57q9 -154 -41 -227t-142 -73zM359 -20q-129 0 -210 67t-81 175q0 116 98.5 192t322.5 121
l196 40v105q0 133 -61.5 193.5t-181.5 60.5q-82 0 -150 -31q48 -10 79.5 -48t31.5 -89q0 -60 -43 -101t-105 -41t-104.5 39.5t-42.5 99.5q0 106 122.5 178t324.5 72q217 0 334 -83.5t117 -254.5v-479q0 -60 26 -89t70 -29q22 0 39 5v-46q-74 -52 -204 -52q-94 0 -163 43
t-83 122q-29 -77 -119.5 -123.5t-212.5 -46.5zM391 273q0 -79 40.5 -123.5t104.5 -44.5q107 0 149 84v330l-70 -16q-121 -28 -172.5 -84t-51.5 -146z" />
    <glyph glyph-name="adieresis" unicode="&#xe4;" horiz-adv-x="1156" 
d="M308 1155q-63 0 -107 41t-44 101q0 61 43.5 101.5t107.5 40.5q63 0 106.5 -40.5t43.5 -101.5q0 -60 -43.5 -101t-106.5 -41zM763 1155q-63 0 -106.5 41t-43.5 101q0 61 43.5 101.5t106.5 40.5q64 0 107.5 -40.5t43.5 -101.5q0 -60 -44 -101t-107 -41zM359 -20
q-129 0 -210 67t-81 175q0 116 98.5 192t322.5 121l196 40v105q0 133 -61.5 193.5t-181.5 60.5q-82 0 -150 -31q48 -10 79.5 -48t31.5 -89q0 -60 -43 -101t-105 -41t-104.5 39.5t-42.5 99.5q0 106 122.5 178t324.5 72q217 0 334 -83.5t117 -254.5v-479q0 -60 26 -89t70 -29
q22 0 39 5v-46q-74 -52 -204 -52q-94 0 -163 43t-83 122q-29 -77 -119.5 -123.5t-212.5 -46.5zM391 273q0 -79 40.5 -123.5t104.5 -44.5q107 0 149 84v330l-70 -16q-121 -28 -172.5 -84t-51.5 -146z" />
    <glyph glyph-name="aring" unicode="&#xe5;" horiz-adv-x="1156" 
d="M242 1301q0 87 82.5 140.5t210.5 53.5t211 -53.5t83 -139.5q0 -88 -82.5 -140.5t-211.5 -52.5q-128 0 -210.5 52.5t-82.5 139.5zM445 1301q0 -64 25 -103t65 -39q41 0 66 39t25 104q0 63 -25 103t-66 40q-40 0 -65 -40.5t-25 -103.5zM359 -20q-129 0 -210 67t-81 175
q0 116 98.5 192t322.5 121l196 40v105q0 133 -61.5 193.5t-181.5 60.5q-82 0 -150 -31q48 -10 79.5 -48t31.5 -89q0 -60 -43 -101t-105 -41t-104.5 39.5t-42.5 99.5q0 106 122.5 178t324.5 72q217 0 334 -83.5t117 -254.5v-479q0 -60 26 -89t70 -29q22 0 39 5v-46
q-74 -52 -204 -52q-94 0 -163 43t-83 122q-29 -77 -119.5 -123.5t-212.5 -46.5zM391 273q0 -79 40.5 -123.5t104.5 -44.5q107 0 149 84v330l-70 -16q-121 -28 -172.5 -84t-51.5 -146z" />
    <glyph glyph-name="ae" unicode="&#xe6;" horiz-adv-x="1663" 
d="M363 -20q-132 0 -214 65t-82 179q0 250 427 320l197 34v79q0 143 -67 212t-186 69q-83 0 -153 -32q48 -9 79.5 -45.5t31.5 -85.5q0 -59 -43 -98.5t-107 -39.5q-61 0 -101.5 38.5t-40.5 96.5q0 102 114 171.5t298 69.5q118 0 205.5 -32t128.5 -94q54 59 137 92.5t178 33.5
q200 0 316.5 -113.5t116.5 -300.5q0 -40 -5 -70h-613q19 -194 119.5 -302.5t252.5 -108.5q69 0 129 22.5t100 59.5v-49q-57 -77 -164.5 -124t-240.5 -47q-156 0 -282.5 79t-176.5 218q-13 -144 -109 -220.5t-245 -76.5zM976 613q0 -5 0.5 -13.5t0.5 -12.5l331 3q1 18 1 67
q0 138 -36.5 214t-111.5 76q-86 0 -135.5 -87t-49.5 -247zM524 110q73 0 120 57t47 175v180l-79 -16q-117 -24 -170.5 -81t-53.5 -148q0 -79 37 -123t99 -44z" />
    <glyph glyph-name="ccedilla" unicode="&#xe7;" horiz-adv-x="1055" 
d="M579 -458q-73 0 -130.5 25.5t-84.5 68.5l1 47q44 -35 121 -35q46 0 74.5 19.5t28.5 54.5q0 34 -27.5 53.5t-71.5 19.5q-32 0 -48 -9l-1 40l128 155q-216 11 -357 150.5t-141 363.5q0 228 156 373t396 145q175 0 276.5 -73.5t101.5 -185.5q0 -65 -43 -108t-104 -43
q-62 0 -104.5 42t-42.5 103t41 103t99 42q3 0 5 -1q-59 37 -140 37q-136 0 -218.5 -102t-82.5 -273q0 -200 102.5 -316t257.5 -116q71 0 133.5 22.5t100.5 59.5v-49q-52 -76 -151 -122.5t-222 -51.5l-67 -81q18 3 39 3q92 0 154.5 -49t62.5 -130q0 -84 -70 -133t-172 -49z
" />
    <glyph glyph-name="egrave" unicode="&#xe8;" horiz-adv-x="1098" 
d="M665 1102l-406 369v7h343l125 -376h-62zM71 495q0 229 143 373.5t376 144.5q205 0 324 -115t119 -304q0 -26 -5 -69h-623q19 -192 121 -299.5t256 -107.5q71 0 132 24t100 64l1 -49q-55 -83 -163.5 -130t-247.5 -47q-149 0 -269.5 61.5t-192 180t-71.5 273.5zM400 611
q0 -19 1 -29l342 4q1 19 1 69q0 138 -38.5 215t-115.5 77q-91 0 -140.5 -87.5t-49.5 -248.5z" />
    <glyph glyph-name="eacute" unicode="&#xe9;" horiz-adv-x="1098" 
d="M518 1102h-62l133 376h332v-7zM71 495q0 229 143 373.5t376 144.5q205 0 324 -115t119 -304q0 -26 -5 -69h-623q19 -192 121 -299.5t256 -107.5q71 0 132 24t100 64l1 -49q-55 -83 -163.5 -130t-247.5 -47q-149 0 -269.5 61.5t-192 180t-71.5 273.5zM400 611q0 -19 1 -29
l342 4q1 19 1 69q0 138 -38.5 215t-115.5 77q-91 0 -140.5 -87.5t-49.5 -248.5z" />
    <glyph glyph-name="ecircumflex" unicode="&#xea;" horiz-adv-x="1098" 
d="M334 1102h-62l229 376h181l229 -376h-63l-256 184zM71 495q0 229 143 373.5t376 144.5q205 0 324 -115t119 -304q0 -26 -5 -69h-623q19 -192 121 -299.5t256 -107.5q71 0 132 24t100 64l1 -49q-55 -83 -163.5 -130t-247.5 -47q-149 0 -269.5 61.5t-192 180t-71.5 273.5z
M400 611q0 -19 1 -29l342 4q1 19 1 69q0 138 -38.5 215t-115.5 77q-91 0 -140.5 -87.5t-49.5 -248.5z" />
    <glyph glyph-name="edieresis" unicode="&#xeb;" horiz-adv-x="1098" 
d="M363 1155q-63 0 -106.5 41t-43.5 101q0 61 43.5 101.5t106.5 40.5q64 0 107.5 -40.5t43.5 -101.5q0 -60 -44 -101t-107 -41zM819 1155q-63 0 -107 41t-44 101q0 61 44 101.5t107 40.5q64 0 107.5 -40.5t43.5 -101.5q0 -60 -44 -101t-107 -41zM71 495q0 229 143 373.5
t376 144.5q205 0 324 -115t119 -304q0 -26 -5 -69h-623q19 -192 121 -299.5t256 -107.5q71 0 132 24t100 64l1 -49q-55 -83 -163.5 -130t-247.5 -47q-149 0 -269.5 61.5t-192 180t-71.5 273.5zM400 611q0 -19 1 -29l342 4q1 19 1 69q0 138 -38.5 215t-115.5 77
q-91 0 -140.5 -87.5t-49.5 -248.5z" />
    <glyph glyph-name="igrave" unicode="&#xec;" horiz-adv-x="644" 
d="M380 1102l-406 369v7h343l126 -376h-63zM490 1007v-848q0 -55 21.5 -76t93.5 -34v-49h-559v49q72 13 93.5 34t21.5 76v634q0 49 -11 66.5t-53 31.5l-51 16v46z" />
    <glyph glyph-name="iacute" unicode="&#xed;" horiz-adv-x="644" 
d="M234 1102h-62l132 376h332v-7zM490 1007v-848q0 -55 21.5 -76t93.5 -34v-49h-559v49q72 13 93.5 34t21.5 76v634q0 49 -11 66.5t-53 31.5l-51 16v46z" />
    <glyph glyph-name="icircumflex" unicode="&#xee;" horiz-adv-x="644" 
d="M75 1102h-56l206 376h163l206 -376h-56l-231 184zM490 1007v-848q0 -55 21.5 -76t93.5 -34v-49h-559v49q72 13 93.5 34t21.5 76v634q0 49 -11 66.5t-53 31.5l-51 16v46z" />
    <glyph glyph-name="idieresis" unicode="&#xef;" horiz-adv-x="644" 
d="M79 1155q-63 0 -107 41t-44 101q0 61 43.5 101.5t107.5 40.5q63 0 106.5 -40.5t43.5 -101.5q0 -60 -43.5 -101t-106.5 -41zM535 1155q-63 0 -107 41t-44 101q0 61 43.5 101.5t107.5 40.5q63 0 106.5 -40.5t43.5 -101.5q0 -60 -43.5 -101t-106.5 -41zM490 1007v-848
q0 -55 21.5 -76t93.5 -34v-49h-559v49q72 13 93.5 34t21.5 76v634q0 49 -11 66.5t-53 31.5l-51 16v46z" />
    <glyph glyph-name="eth" unicode="&#xf0;" horiz-adv-x="1279" 
d="M626 -20q-252 0 -404 139t-152 369q0 219 129.5 355t320.5 136q243 0 311 -188q-69 297 -258 477l-275 -163l-29 50l259 153q-107 88 -261 158l26 47q191 -59 348 -138l235 139l29 -51l-205 -120q251 -143 379 -338.5t128 -431.5q0 -139 -49 -253.5t-131 -187.5
t-185.5 -112.5t-215.5 -39.5zM634 46q45 0 82.5 22.5t69 72t49.5 138.5t18 211q0 398 -213 398q-101 0 -157 -105.5t-56 -301.5q0 -203 53.5 -319t153.5 -116z" />
    <glyph glyph-name="ntilde" unicode="&#xf1;" horiz-adv-x="1323" 
d="M793 1151q-78 0 -167 60l-32 22q-62 41 -101 41q-38 0 -58.5 -30.5t-22.5 -102.5h-57q-9 155 41.5 228.5t141.5 73.5q77 0 168 -61l32 -22q62 -41 100 -41q39 0 59.5 30.5t22.5 101.5h57q9 -154 -42 -227t-142 -73zM488 1007v-186q38 88 128.5 140t215.5 52
q157 0 248.5 -81t91.5 -238v-535q0 -55 21.5 -76t94.5 -34v-49h-544v49q63 11 81.5 31t18.5 73v522q0 99 -46.5 150t-132.5 51q-60 0 -106 -25.5t-69 -68.5v-629q0 -53 18 -72.5t82 -31.5v-49h-544v49q72 13 93.5 34t21.5 76v634q0 49 -11 66.5t-53 31.5l-51 16v46z" />
    <glyph glyph-name="ograve" unicode="&#xf2;" horiz-adv-x="1263" 
d="M705 1102l-407 369v7h344l125 -376h-62zM629 -20q-243 0 -400.5 140.5t-157.5 372.5q0 151 73.5 270t201.5 184.5t287 65.5q244 0 401.5 -140.5t157.5 -371.5q0 -151 -73.5 -270.5t-201.5 -185t-288 -65.5zM636 46q100 0 153.5 117t53.5 327q0 214 -58 335.5t-158 121.5
q-101 0 -154.5 -116.5t-53.5 -326.5q0 -214 58 -336t159 -122z" />
    <glyph glyph-name="oacute" unicode="&#xf3;" horiz-adv-x="1263" 
d="M558 1102h-62l133 376h331v-7zM629 -20q-243 0 -400.5 140.5t-157.5 372.5q0 151 73.5 270t201.5 184.5t287 65.5q244 0 401.5 -140.5t157.5 -371.5q0 -151 -73.5 -270.5t-201.5 -185t-288 -65.5zM636 46q100 0 153.5 117t53.5 327q0 214 -58 335.5t-158 121.5
q-101 0 -154.5 -116.5t-53.5 -326.5q0 -214 58 -336t159 -122z" />
    <glyph glyph-name="ocircumflex" unicode="&#xf4;" horiz-adv-x="1263" 
d="M374 1102h-63l230 376h180l229 -376h-62l-257 184zM629 -20q-243 0 -400.5 140.5t-157.5 372.5q0 151 73.5 270t201.5 184.5t287 65.5q244 0 401.5 -140.5t157.5 -371.5q0 -151 -73.5 -270.5t-201.5 -185t-288 -65.5zM636 46q100 0 153.5 117t53.5 327q0 214 -58 335.5
t-158 121.5q-101 0 -154.5 -116.5t-53.5 -326.5q0 -214 58 -336t159 -122z" />
    <glyph glyph-name="otilde" unicode="&#xf5;" horiz-adv-x="1263" 
d="M758 1151q-79 0 -167 60l-32 22q-62 41 -101 41q-38 0 -58.5 -30.5t-22.5 -102.5h-57q-9 155 41.5 228.5t141.5 73.5q77 0 168 -61l32 -22q60 -41 100 -41q78 0 82 132h57q9 -154 -42 -227t-142 -73zM629 -20q-243 0 -400.5 140.5t-157.5 372.5q0 151 73.5 270
t201.5 184.5t287 65.5q244 0 401.5 -140.5t157.5 -371.5q0 -151 -73.5 -270.5t-201.5 -185t-288 -65.5zM636 46q100 0 153.5 117t53.5 327q0 214 -58 335.5t-158 121.5q-101 0 -154.5 -116.5t-53.5 -326.5q0 -214 58 -336t159 -122z" />
    <glyph glyph-name="odieresis" unicode="&#xf6;" horiz-adv-x="1263" 
d="M403 1155q-63 0 -107 41t-44 101q0 61 44 101.5t107 40.5t107 -40.5t44 -101.5q0 -60 -44 -101t-107 -41zM859 1155q-63 0 -107 41t-44 101q0 61 43.5 101.5t107.5 40.5q63 0 107 -40.5t44 -101.5q0 -60 -44 -101t-107 -41zM629 -20q-243 0 -400.5 140.5t-157.5 372.5
q0 151 73.5 270t201.5 184.5t287 65.5q244 0 401.5 -140.5t157.5 -371.5q0 -151 -73.5 -270.5t-201.5 -185t-288 -65.5zM636 46q100 0 153.5 117t53.5 327q0 214 -58 335.5t-158 121.5q-101 0 -154.5 -116.5t-53.5 -326.5q0 -214 58 -336t159 -122z" />
    <glyph glyph-name="divide" unicode="&#xf7;" horiz-adv-x="1226" 
d="M613 802q-63 0 -108 45.5t-45 107.5q0 64 45 108.5t108 44.5t107.5 -44.5t44.5 -108.5q0 -63 -44.5 -108t-107.5 -45zM123 535v104h980v-104h-980zM613 67q-63 0 -108 45t-45 108t45 108t108 45t107.5 -45t44.5 -108t-44.5 -108t-107.5 -45z" />
    <glyph glyph-name="oslash" unicode="&#xf8;" horiz-adv-x="1254" 
d="M625 -20q-207 0 -355 106l-94 -95l-42 42l90 92q-153 140 -153 367q0 228 158.5 373t399.5 145q211 0 359 -108l98 101l43 -43l-95 -97q149 -141 149 -364q0 -150 -73 -269t-200 -184.5t-285 -65.5zM411 504q0 -98 12 -176l395 402q-26 104 -76.5 160.5t-118.5 56.5
q-102 0 -157 -117t-55 -326zM631 45q102 0 157.5 117.5t55.5 325.5q0 94 -12 170l-394 -401q26 -102 76 -157t117 -55z" />
    <glyph glyph-name="ugrave" unicode="&#xf9;" horiz-adv-x="1292" 
d="M714 1102l-406 369v7h343l126 -376h-63zM469 1007v-687q0 -100 44.5 -151t129.5 -51q56 0 100 25t67 67v583q0 49 -11 66.5t-53 31.5l-52 16v46l445 54v-810q0 -49 11 -66.5t52 -32.5l51 -15v-46l-441 -49v184q-39 -88 -128.5 -140t-213.5 -52q-152 0 -241 81.5
t-89 240.5v491q0 49 -11 66.5t-52 31.5l-52 16v46z" />
    <glyph glyph-name="uacute" unicode="&#xfa;" horiz-adv-x="1292" 
d="M568 1102h-62l132 376h332v-7zM469 1007v-687q0 -100 44.5 -151t129.5 -51q56 0 100 25t67 67v583q0 49 -11 66.5t-53 31.5l-52 16v46l445 54v-810q0 -49 11 -66.5t52 -32.5l51 -15v-46l-441 -49v184q-39 -88 -128.5 -140t-213.5 -52q-152 0 -241 81.5t-89 240.5v491
q0 49 -11 66.5t-52 31.5l-52 16v46z" />
    <glyph glyph-name="ucircumflex" unicode="&#xfb;" horiz-adv-x="1292" 
d="M383 1102h-62l229 376h181l229 -376h-63l-256 184zM469 1007v-687q0 -100 44.5 -151t129.5 -51q56 0 100 25t67 67v583q0 49 -11 66.5t-53 31.5l-52 16v46l445 54v-810q0 -49 11 -66.5t52 -32.5l51 -15v-46l-441 -49v184q-39 -88 -128.5 -140t-213.5 -52
q-152 0 -241 81.5t-89 240.5v491q0 49 -11 66.5t-52 31.5l-52 16v46z" />
    <glyph glyph-name="udieresis" unicode="&#xfc;" horiz-adv-x="1292" 
d="M413 1155q-63 0 -107 41t-44 101q0 61 43.5 101.5t107.5 40.5q63 0 106.5 -40.5t43.5 -101.5q0 -60 -43.5 -101t-106.5 -41zM869 1155q-63 0 -107 41t-44 101q0 61 43.5 101.5t107.5 40.5q63 0 106.5 -40.5t43.5 -101.5q0 -60 -43.5 -101t-106.5 -41zM469 1007v-687
q0 -100 44.5 -151t129.5 -51q56 0 100 25t67 67v583q0 49 -11 66.5t-53 31.5l-52 16v46l445 54v-810q0 -49 11 -66.5t52 -32.5l51 -15v-46l-441 -49v184q-39 -88 -128.5 -140t-213.5 -52q-152 0 -241 81.5t-89 240.5v491q0 49 -11 66.5t-52 31.5l-52 16v46z" />
    <glyph glyph-name="yacute" unicode="&#xfd;" horiz-adv-x="1077" 
d="M505 1102h-62l133 376h331v-7zM150 780q-38 92 -66.5 122t-87.5 42v50h595v-50q-86 -11 -100.5 -46t20.5 -135l157 -448l154 444q36 103 21.5 138t-99.5 47v50h338v-50q-62 -12 -94 -47.5t-77 -145.5l-193 -471l-133 -317l-151 -423h-241v4q73 75 161 192t144 215z" />
    <glyph glyph-name="thorn" unicode="&#xfe;" horiz-adv-x="1261" 
d="M1190 506q0 -121 -37.5 -221.5t-101 -166.5t-148 -102t-178.5 -36q-89 0 -160.5 34.5t-101.5 90.5v-398q0 -60 23 -82.5t104 -35.5v-49h-572v49q72 12 93.5 33t21.5 75v1586q0 49 -11.5 67t-51.5 31l-52 17v46l445 51l-4 -675q36 87 122 140t201 53q174 0 291 -137.5
t117 -369.5zM851 476q0 184 -62.5 292t-164.5 108q-115 0 -161 -96v-615q16 -38 59 -63t94 -25q107 0 171 107.5t64 291.5z" />
    <glyph glyph-name="ydieresis" unicode="&#xff;" horiz-adv-x="1077" 
d="M350 1155q-63 0 -107 41t-44 101q0 61 43.5 101.5t107.5 40.5q63 0 107 -40.5t44 -101.5q0 -60 -44 -101t-107 -41zM806 1155q-63 0 -107 41t-44 101q0 61 43.5 101.5t107.5 40.5q63 0 107 -40.5t44 -101.5q0 -60 -44 -101t-107 -41zM150 780q-38 92 -66.5 122t-87.5 42
v50h595v-50q-86 -11 -100.5 -46t20.5 -135l157 -448l154 444q36 103 21.5 138t-99.5 47v50h338v-50q-62 -12 -94 -47.5t-77 -145.5l-193 -471l-133 -317l-151 -423h-241v4q73 75 161 192t144 215z" />
    <glyph glyph-name="Amacron" unicode="&#x100;" horiz-adv-x="1441" 
d="M434 1588v142h565v-142h-565zM1259 266q43 -120 80 -161.5t113 -55.5v-49h-672v49q97 14 117 58.5t-19 167.5l-74 220h-448l-65 -197q-30 -94 -30.5 -142.5t28.5 -72t100 -34.5v-49h-401v49q79 14 117 60t90 193l411 1145h234zM378 565h403l-204 610z" />
    <glyph glyph-name="amacron" unicode="&#x101;" horiz-adv-x="1156" 
d="M222 1198v167h627v-167h-627zM359 -20q-129 0 -210 67t-81 175q0 116 98.5 192t322.5 121l196 40v105q0 133 -61.5 193.5t-181.5 60.5q-82 0 -150 -31q48 -10 79.5 -48t31.5 -89q0 -60 -43 -101t-105 -41t-104.5 39.5t-42.5 99.5q0 106 122.5 178t324.5 72
q217 0 334 -83.5t117 -254.5v-479q0 -60 26 -89t70 -29q22 0 39 5v-46q-74 -52 -204 -52q-94 0 -163 43t-83 122q-29 -77 -119.5 -123.5t-212.5 -46.5zM391 273q0 -79 40.5 -123.5t104.5 -44.5q107 0 149 84v330l-70 -16q-121 -28 -172.5 -84t-51.5 -146z" />
    <glyph glyph-name="Abreve" unicode="&#x102;" horiz-adv-x="1441" 
d="M716 1567q-134 0 -209 79t-75 187q0 32 4 52h54v-2q0 -68 64 -111.5t162 -43.5t162 43t64 112v2h54q4 -20 4 -52q0 -108 -75 -187t-209 -79zM1259 266q43 -120 80 -161.5t113 -55.5v-49h-672v49q97 14 117 58.5t-19 167.5l-74 220h-448l-65 -197q-30 -94 -30.5 -142.5
t28.5 -72t100 -34.5v-49h-401v49q79 14 117 60t90 193l411 1145h234zM378 565h403l-204 610z" />
    <glyph glyph-name="abreve" unicode="&#x103;" horiz-adv-x="1156" 
d="M535 1133q-77 0 -138.5 26t-99 69.5t-57.5 97t-20 111.5q0 36 5 60h57v-3q0 -77 71.5 -125.5t181.5 -48.5q111 0 182.5 48.5t71.5 125.5v3h57q5 -23 5 -60q0 -123 -83 -213.5t-233 -90.5zM359 -20q-129 0 -210 67t-81 175q0 116 98.5 192t322.5 121l196 40v105
q0 133 -61.5 193.5t-181.5 60.5q-82 0 -150 -31q48 -10 79.5 -48t31.5 -89q0 -60 -43 -101t-105 -41t-104.5 39.5t-42.5 99.5q0 106 122.5 178t324.5 72q217 0 334 -83.5t117 -254.5v-479q0 -60 26 -89t70 -29q22 0 39 5v-46q-74 -52 -204 -52q-94 0 -163 43t-83 122
q-29 -77 -119.5 -123.5t-212.5 -46.5zM391 273q0 -79 40.5 -123.5t104.5 -44.5q107 0 149 84v330l-70 -16q-121 -28 -172.5 -84t-51.5 -146z" />
    <glyph glyph-name="Aogonek" unicode="&#x104;" horiz-adv-x="1441" 
d="M1124 -479q-92 0 -151.5 54t-59.5 140q0 83 50 158t134 127h-317v49q97 14 117 58.5t-19 167.5l-74 220h-448l-65 -197q-30 -94 -30.5 -142.5t28.5 -72t100 -34.5v-49h-401v49q79 14 117 60t90 193l411 1145h234l419 -1181q43 -120 80 -161.5t113 -55.5v-49h-296
q-29 -48 -29 -125q0 -84 41.5 -141.5t97.5 -57.5q49 0 76 32l1 -48q-21 -63 -81 -101t-138 -38zM378 565h403l-204 610z" />
    <glyph glyph-name="aogonek" unicode="&#x105;" horiz-adv-x="1158" 
d="M359 -20q-129 0 -210 67t-81 175q0 116 98.5 192t322.5 121l196 40v105q0 133 -61.5 193.5t-181.5 60.5q-82 0 -150 -31q48 -10 79.5 -48t31.5 -89q0 -60 -43 -101t-105 -41t-104.5 39.5t-42.5 99.5q0 106 122.5 178t324.5 72q217 0 334 -83.5t117 -254.5v-479
q0 -60 26 -89t70 -29q22 0 39 5v-46q-170 -134 -170 -262q0 -51 28 -78.5t70 -27.5q55 0 80 27l1 -48q-29 -58 -91 -92.5t-140 -34.5q-87 0 -144.5 47t-57.5 124q0 80 66 153t213 146q-28 -3 -59 -3q-94 0 -163 42.5t-83 119.5q-29 -77 -119.5 -123.5t-212.5 -46.5zM391 273
q0 -79 40.5 -123.5t104.5 -44.5q107 0 149 84v330l-70 -16q-121 -28 -172.5 -84t-51.5 -146z" />
    <glyph glyph-name="Cacute" unicode="&#x106;" horiz-adv-x="1426" 
d="M817 1529l-62 1l115 289h332v-6zM83 726q0 140 40.5 260t113.5 207.5t173 149.5t220.5 93t254.5 31q309 0 449 -92l10 -393h-47q-38 188 -141.5 302.5t-253.5 114.5q-197 0 -311.5 -181t-114.5 -482q0 -187 48.5 -342t147.5 -252t233 -97q144 0 248.5 113t147.5 312h47
l-11 -394q-60 -42 -183 -70.5t-265 -28.5q-230 0 -411.5 88t-288 260t-106.5 401z" />
    <glyph glyph-name="cacute" unicode="&#x107;" horiz-adv-x="1055" 
d="M536 1102h-62l133 376h332v-7zM601 -20q-227 0 -378.5 141.5t-151.5 373.5q0 228 156 373t396 145q175 0 276.5 -73.5t101.5 -185.5q0 -65 -43 -108t-104 -43q-62 0 -104.5 42t-42.5 103t41 103t99 42q3 0 5 -1q-59 37 -140 37q-136 0 -218.5 -102t-82.5 -273
q0 -200 102.5 -316t257.5 -116q71 0 133.5 22.5t100.5 59.5v-49q-56 -81 -163.5 -128t-240.5 -47z" />
    <glyph glyph-name="Ccircumflex" unicode="&#x108;" horiz-adv-x="1426" 
d="M651 1529h-60l209 289h185l209 -289h-62l-240 136zM83 726q0 140 40.5 260t113.5 207.5t173 149.5t220.5 93t254.5 31q309 0 449 -92l10 -393h-47q-38 188 -141.5 302.5t-253.5 114.5q-197 0 -311.5 -181t-114.5 -482q0 -187 48.5 -342t147.5 -252t233 -97
q144 0 248.5 113t147.5 312h47l-11 -394q-60 -42 -183 -70.5t-265 -28.5q-230 0 -411.5 88t-288 260t-106.5 401z" />
    <glyph glyph-name="ccircumflex" unicode="&#x109;" horiz-adv-x="1055" 
d="M352 1102h-62l229 376h180l230 -376h-63l-256 184zM601 -20q-227 0 -378.5 141.5t-151.5 373.5q0 228 156 373t396 145q175 0 276.5 -73.5t101.5 -185.5q0 -65 -43 -108t-104 -43q-62 0 -104.5 42t-42.5 103t41 103t99 42q3 0 5 -1q-59 37 -140 37q-136 0 -218.5 -102
t-82.5 -273q0 -200 102.5 -316t257.5 -116q71 0 133.5 22.5t100.5 59.5v-49q-56 -81 -163.5 -128t-240.5 -47z" />
    <glyph glyph-name="Cdotaccent" unicode="&#x10a;" horiz-adv-x="1426" 
d="M877 1546q-57 0 -96.5 37t-39.5 91q0 55 39.5 91.5t96.5 36.5q58 0 97.5 -36.5t39.5 -91.5q0 -54 -40 -91t-97 -37zM83 726q0 140 40.5 260t113.5 207.5t173 149.5t220.5 93t254.5 31q309 0 449 -92l10 -393h-47q-38 188 -141.5 302.5t-253.5 114.5q-197 0 -311.5 -181
t-114.5 -482q0 -187 48.5 -342t147.5 -252t233 -97q144 0 248.5 113t147.5 312h47l-11 -394q-60 -42 -183 -70.5t-265 -28.5q-230 0 -411.5 88t-288 260t-106.5 401z" />
    <glyph glyph-name="cdotaccent" unicode="&#x10b;" horiz-adv-x="1055" 
d="M609 1146q-67 0 -113.5 43t-46.5 107q0 65 46.5 108t113.5 43t113.5 -43t46.5 -108q0 -64 -46.5 -107t-113.5 -43zM601 -20q-227 0 -378.5 141.5t-151.5 373.5q0 228 156 373t396 145q175 0 276.5 -73.5t101.5 -185.5q0 -65 -43 -108t-104 -43q-62 0 -104.5 42t-42.5 103
t41 103t99 42q3 0 5 -1q-59 37 -140 37q-136 0 -218.5 -102t-82.5 -273q0 -200 102.5 -316t257.5 -116q71 0 133.5 22.5t100.5 59.5v-49q-56 -81 -163.5 -128t-240.5 -47z" />
    <glyph glyph-name="Ccaron" unicode="&#x10c;" horiz-adv-x="1426" 
d="M1132 1837h60l-209 -289h-184l-210 289h63l240 -135zM83 726q0 140 40.5 260t113.5 207.5t173 149.5t220.5 93t254.5 31q309 0 449 -92l10 -393h-47q-38 188 -141.5 302.5t-253.5 114.5q-197 0 -311.5 -181t-114.5 -482q0 -187 48.5 -342t147.5 -252t233 -97
q144 0 248.5 113t147.5 312h47l-11 -394q-60 -42 -183 -70.5t-265 -28.5q-230 0 -411.5 88t-288 260t-106.5 401z" />
    <glyph glyph-name="ccaron" unicode="&#x10d;" horiz-adv-x="1055" 
d="M866 1503h63l-230 -375h-180l-229 375h62l257 -184zM601 -20q-227 0 -378.5 141.5t-151.5 373.5q0 228 156 373t396 145q175 0 276.5 -73.5t101.5 -185.5q0 -65 -43 -108t-104 -43q-62 0 -104.5 42t-42.5 103t41 103t99 42q3 0 5 -1q-59 37 -140 37q-136 0 -218.5 -102
t-82.5 -273q0 -200 102.5 -316t257.5 -116q71 0 133.5 22.5t100.5 59.5v-49q-56 -81 -163.5 -128t-240.5 -47z" />
    <glyph glyph-name="Dcaron" unicode="&#x10e;" horiz-adv-x="1612" 
d="M1025 1837h61l-210 -289h-184l-209 289h62l240 -135zM1538 746q0 -140 -45.5 -260.5t-126.5 -208.5t-191.5 -151t-243 -94.5t-278.5 -31.5h-600v49q84 16 109.5 41.5t25.5 93.5v1076q0 68 -25.5 93.5t-109.5 41.5v49h591q271 0 471 -79t311.5 -237.5t111.5 -381.5z
M1146 723q1 193 -61 339.5t-184 232t-291 90.5l-67 2v-1330l67 2q251 8 393.5 185.5t142.5 478.5z" />
    <glyph glyph-name="dcaron" unicode="&#x10f;" horiz-adv-x="1282" 
d="M1299 1090h-49l44 414h237zM71 487q0 243 132.5 384.5t328.5 141.5q91 0 163 -34t104 -91v395q0 49 -11 66.5t-53 31.5l-52 17v46l445 51v-1298q0 -49 11.5 -66.5t53.5 -31.5l52 -17v-45l-443 -49v185q-37 -89 -124 -141t-201 -52q-175 0 -290.5 136.5t-115.5 370.5z
M410 517q0 -187 62 -293t162 -106q116 0 165 95v616q-17 38 -60 63t-95 25q-106 0 -170 -105.5t-64 -294.5z" />
    <glyph glyph-name="dbar" unicode="&#x111;" horiz-adv-x="1284" 
d="M71 487q0 243 132.5 384.5t328.5 141.5q91 0 163 -34t104 -90v341h-247v60h247v178l329 26v-204h115v-60h-115v-1033q0 -49 11.5 -66.5t53.5 -31.5l52 -17v-45l-444 -49v185q-36 -89 -122.5 -141t-201.5 -52q-175 0 -290.5 136.5t-115.5 370.5zM410 517q0 -187 62 -293
t162 -106q116 0 165 95v616q-17 37 -60 62t-95 26q-106 -1 -170 -106t-64 -294z" />
    <glyph glyph-name="Emacron" unicode="&#x112;" horiz-adv-x="1282" 
d="M400 1588v142h564v-142h-564zM1167 1444l14 -393h-47q-22 94 -50.5 152.5t-77.5 97.5t-117 56.5t-174 22.5l-172 7v-620l201 5q93 4 130 48t61 164h43v-490h-43q-23 119 -60.5 163t-130.5 48l-201 5v-653l204 9q110 5 179.5 22.5t120.5 60t80.5 107.5t53.5 172h47
l-14 -428h-1161v49q84 16 109.5 41.5t25.5 93.5v1076q0 68 -25.5 93.5t-109.5 41.5v49h1114z" />
    <glyph glyph-name="emacron" unicode="&#x113;" horiz-adv-x="1098" 
d="M278 1198v167h626v-167h-626zM71 495q0 229 143 373.5t376 144.5q205 0 324 -115t119 -304q0 -26 -5 -69h-623q19 -192 121 -299.5t256 -107.5q71 0 132 24t100 64l1 -49q-55 -83 -163.5 -130t-247.5 -47q-149 0 -269.5 61.5t-192 180t-71.5 273.5zM400 611q0 -19 1 -29
l342 4q1 19 1 69q0 138 -38.5 215t-115.5 77q-91 0 -140.5 -87.5t-49.5 -248.5z" />
    <glyph glyph-name="Ebreve" unicode="&#x114;" horiz-adv-x="1282" 
d="M682 1567q-134 0 -209 79t-75 187q0 29 3 52h55v-2q0 -68 64 -111.5t161 -43.5q99 0 163 43t64 112v2h54q4 -30 4 -52q0 -108 -75 -187t-209 -79zM1167 1444l14 -393h-47q-22 94 -50.5 152.5t-77.5 97.5t-117 56.5t-174 22.5l-172 7v-620l201 5q93 4 130 48t61 164h43
v-490h-43q-23 119 -60.5 163t-130.5 48l-201 5v-653l204 9q110 5 179.5 22.5t120.5 60t80.5 107.5t53.5 172h47l-14 -428h-1161v49q84 16 109.5 41.5t25.5 93.5v1076q0 68 -25.5 93.5t-109.5 41.5v49h1114z" />
    <glyph glyph-name="ebreve" unicode="&#x115;" horiz-adv-x="1098" 
d="M591 1133q-77 0 -138.5 26t-99 69.5t-57.5 97t-20 111.5q0 36 5 60h56v-3q0 -77 72 -125.5t182 -48.5q111 0 182.5 48.5t71.5 125.5v3h57q5 -30 5 -60q0 -123 -83 -213.5t-233 -90.5zM71 495q0 229 143 373.5t376 144.5q205 0 324 -115t119 -304q0 -26 -5 -69h-623
q19 -192 121 -299.5t256 -107.5q71 0 132 24t100 64l1 -49q-55 -83 -163.5 -130t-247.5 -47q-149 0 -269.5 61.5t-192 180t-71.5 273.5zM400 611q0 -19 1 -29l342 4q1 19 1 69q0 138 -38.5 215t-115.5 77q-91 0 -140.5 -87.5t-49.5 -248.5z" />
    <glyph glyph-name="Edotaccent" unicode="&#x116;" horiz-adv-x="1282" 
d="M682 1546q-57 0 -96.5 37t-39.5 91q0 55 39.5 91.5t96.5 36.5t96.5 -36.5t39.5 -91.5q0 -54 -39.5 -91t-96.5 -37zM1167 1444l14 -393h-47q-22 94 -50.5 152.5t-77.5 97.5t-117 56.5t-174 22.5l-172 7v-620l201 5q93 4 130 48t61 164h43v-490h-43q-23 119 -60.5 163
t-130.5 48l-201 5v-653l204 9q110 5 179.5 22.5t120.5 60t80.5 107.5t53.5 172h47l-14 -428h-1161v49q84 16 109.5 41.5t25.5 93.5v1076q0 68 -25.5 93.5t-109.5 41.5v49h1114z" />
    <glyph glyph-name="edotaccent" unicode="&#x117;" horiz-adv-x="1098" 
d="M591 1146q-67 0 -113.5 43t-46.5 107q0 65 46.5 108t113.5 43t113.5 -43t46.5 -108q0 -64 -46.5 -107t-113.5 -43zM71 495q0 229 143 373.5t376 144.5q205 0 324 -115t119 -304q0 -26 -5 -69h-623q19 -192 121 -299.5t256 -107.5q71 0 132 24t100 64l1 -49
q-55 -83 -163.5 -130t-247.5 -47q-149 0 -269.5 61.5t-192 180t-71.5 273.5zM400 611q0 -19 1 -29l342 4q1 19 1 69q0 138 -38.5 215t-115.5 77q-91 0 -140.5 -87.5t-49.5 -248.5z" />
    <glyph glyph-name="Eogonek" unicode="&#x118;" horiz-adv-x="1282" 
d="M1009 -479q-92 0 -151.5 54t-59.5 140q0 83 50 158t134 127h-929v49q85 16 110 41.5t25 93.5v1076q0 68 -25 93.5t-110 41.5v49h1114l14 -393h-47q-22 94 -50.5 152.5t-77.5 97.5t-117 56.5t-174 22.5l-172 7v-620l201 5q93 4 130 48t61 164h43v-490h-43
q-23 119 -60.5 163t-130.5 48l-201 5v-653l204 9q110 5 179.5 22.5t120.5 60t80.5 107.5t53.5 172h47l-14 -428h-173q-29 -48 -29 -125q0 -84 41.5 -141.5t97.5 -57.5q49 0 76 32l1 -48q-21 -63 -81 -101t-138 -38z" />
    <glyph glyph-name="eogonek" unicode="&#x119;" horiz-adv-x="1100" 
d="M71 495q0 229 143.5 373.5t375.5 144.5q205 0 324 -115t119 -304q0 -26 -5 -69h-621q20 -192 121 -299.5t254 -107.5q71 0 132 24t100 64l1 -49q-20 -30 -78 -99q-107 -125 -107 -252q0 -63 30.5 -100.5t78.5 -37.5q45 0 70 27l1 -48q-30 -58 -92 -92t-137 -34
q-88 0 -145.5 50.5t-57.5 130.5q0 158 226 302l34 22q-106 -46 -234 -46q-149 0 -269.5 61.5t-192 180t-71.5 273.5zM403 613v-31l340 4q1 19 1 69q0 138 -38.5 215t-115.5 77q-89 0 -138 -87t-49 -247z" />
    <glyph glyph-name="Ecaron" unicode="&#x11a;" horiz-adv-x="1282" 
d="M937 1837h60l-209 -289h-185l-209 289h62l240 -135zM1167 1444l14 -393h-47q-22 94 -50.5 152.5t-77.5 97.5t-117 56.5t-174 22.5l-172 7v-620l201 5q93 4 130 48t61 164h43v-490h-43q-23 119 -60.5 163t-130.5 48l-201 5v-653l204 9q110 5 179.5 22.5t120.5 60
t80.5 107.5t53.5 172h47l-14 -428h-1161v49q84 16 109.5 41.5t25.5 93.5v1076q0 68 -25.5 93.5t-109.5 41.5v49h1114z" />
    <glyph glyph-name="ecaron" unicode="&#x11b;" horiz-adv-x="1098" 
d="M849 1503h62l-229 -375h-181l-229 375h63l256 -184zM71 495q0 229 143 373.5t376 144.5q205 0 324 -115t119 -304q0 -26 -5 -69h-623q19 -192 121 -299.5t256 -107.5q71 0 132 24t100 64l1 -49q-55 -83 -163.5 -130t-247.5 -47q-149 0 -269.5 61.5t-192 180t-71.5 273.5z
M400 611q0 -19 1 -29l342 4q1 19 1 69q0 138 -38.5 215t-115.5 77q-91 0 -140.5 -87.5t-49.5 -248.5z" />
    <glyph glyph-name="Gcircumflex" unicode="&#x11c;" horiz-adv-x="1562" 
d="M649 1529h-60l209 289h185l209 -289h-62l-240 136zM83 722q0 143 41 264.5t114.5 209t174.5 149.5t222 92t255 30q158 0 277.5 -25t182.5 -67l10 -391h-47q-42 187 -147.5 301t-260.5 114q-201 0 -315 -180t-114 -483q0 -189 46.5 -343.5t142.5 -251t227 -96.5
q136 0 204 59v417q0 68 -25.5 92.5t-109.5 34.5v49h579v-49q-79 -10 -103.5 -35t-24.5 -92v-403q-89 -66 -234.5 -103.5t-303.5 -37.5q-232 0 -412 92.5t-279.5 262t-99.5 390.5z" />
    <glyph glyph-name="gcircumflex" unicode="&#x11d;" horiz-adv-x="1170" 
d="M318 1102h-62l229 376h181l229 -376h-63l-256 184zM82 684q0 147 135 238t343 91q133 0 246 -41l339 23v-92l-277 21q82 -29 129.5 -92.5t47.5 -143.5q0 -146 -136 -232t-342 -86q-51 0 -117 8q-110 -23 -110 -98q0 -89 171 -89h168q211 0 319.5 -80t108.5 -228
q0 -163 -156.5 -267t-389.5 -104q-238 0 -377 62.5t-140 166.5q0 83 92 133t285 59q-152 0 -244.5 58.5t-92.5 156.5q1 97 85 161.5t236 81.5q-144 22 -233.5 98.5t-89.5 194.5zM404 696q0 -122 43.5 -193.5t119.5 -71.5t117 68t41 188q0 121 -43.5 193t-119.5 72
q-77 0 -117.5 -68t-40.5 -188zM318 -239q0 -81 67 -132t181 -51q123 0 198.5 52t75.5 139q0 154 -211 154h-151q-77 -8 -118.5 -50.5t-41.5 -111.5z" />
    <glyph glyph-name="Gbreve" unicode="&#x11e;" horiz-adv-x="1562" 
d="M875 1567q-134 0 -209 79t-75 187q0 22 4 52h54v-2q0 -68 64 -111.5t162 -43.5q99 0 162.5 43t63.5 112v2h54q4 -20 4 -52q0 -108 -75 -187t-209 -79zM83 722q0 143 41 264.5t114.5 209t174.5 149.5t222 92t255 30q158 0 277.5 -25t182.5 -67l10 -391h-47
q-42 187 -147.5 301t-260.5 114q-201 0 -315 -180t-114 -483q0 -189 46.5 -343.5t142.5 -251t227 -96.5q136 0 204 59v417q0 68 -25.5 92.5t-109.5 34.5v49h579v-49q-79 -10 -103.5 -35t-24.5 -92v-403q-89 -66 -234.5 -103.5t-303.5 -37.5q-232 0 -412 92.5t-279.5 262
t-99.5 390.5z" />
    <glyph glyph-name="gbreve" unicode="&#x11f;" horiz-adv-x="1170" 
d="M575 1133q-77 0 -138.5 26t-99 69.5t-57.5 97t-20 111.5q0 36 5 60h56v-3q0 -77 72 -125.5t182 -48.5q111 0 182.5 48.5t71.5 125.5v3h57q5 -30 5 -60q0 -123 -83 -213.5t-233 -90.5zM82 684q0 147 135 238t343 91q133 0 246 -41l339 23v-92l-277 21q82 -29 129.5 -92.5
t47.5 -143.5q0 -146 -136 -232t-342 -86q-51 0 -117 8q-110 -23 -110 -98q0 -89 171 -89h168q211 0 319.5 -80t108.5 -228q0 -163 -156.5 -267t-389.5 -104q-238 0 -377 62.5t-140 166.5q0 83 92 133t285 59q-152 0 -244.5 58.5t-92.5 156.5q1 97 85 161.5t236 81.5
q-144 22 -233.5 98.5t-89.5 194.5zM404 696q0 -122 43.5 -193.5t119.5 -71.5t117 68t41 188q0 121 -43.5 193t-119.5 72q-77 0 -117.5 -68t-40.5 -188zM318 -239q0 -81 67 -132t181 -51q123 0 198.5 52t75.5 139q0 154 -211 154h-151q-77 -8 -118.5 -50.5t-41.5 -111.5z" />
    <glyph glyph-name="Gdotaccent" unicode="&#x120;" horiz-adv-x="1562" 
d="M875 1546q-57 0 -96.5 37t-39.5 91q0 55 39.5 91.5t96.5 36.5q58 0 97.5 -36.5t39.5 -91.5q0 -54 -40 -91t-97 -37zM83 722q0 143 41 264.5t114.5 209t174.5 149.5t222 92t255 30q158 0 277.5 -25t182.5 -67l10 -391h-47q-42 187 -147.5 301t-260.5 114q-201 0 -315 -180
t-114 -483q0 -189 46.5 -343.5t142.5 -251t227 -96.5q136 0 204 59v417q0 68 -25.5 92.5t-109.5 34.5v49h579v-49q-79 -10 -103.5 -35t-24.5 -92v-403q-89 -66 -234.5 -103.5t-303.5 -37.5q-232 0 -412 92.5t-279.5 262t-99.5 390.5z" />
    <glyph glyph-name="gdotaccent" unicode="&#x121;" horiz-adv-x="1170" 
d="M575 1146q-67 0 -113.5 43t-46.5 107q0 65 46.5 108t113.5 43t113.5 -43t46.5 -108q0 -64 -46.5 -107t-113.5 -43zM82 684q0 147 135 238t343 91q133 0 246 -41l339 23v-92l-277 21q82 -29 129.5 -92.5t47.5 -143.5q0 -146 -136 -232t-342 -86q-51 0 -117 8
q-110 -23 -110 -98q0 -89 171 -89h168q211 0 319.5 -80t108.5 -228q0 -163 -156.5 -267t-389.5 -104q-238 0 -377 62.5t-140 166.5q0 83 92 133t285 59q-152 0 -244.5 58.5t-92.5 156.5q1 97 85 161.5t236 81.5q-144 22 -233.5 98.5t-89.5 194.5zM404 696
q0 -122 43.5 -193.5t119.5 -71.5t117 68t41 188q0 121 -43.5 193t-119.5 72q-77 0 -117.5 -68t-40.5 -188zM318 -239q0 -81 67 -132t181 -51q123 0 198.5 52t75.5 139q0 154 -211 154h-151q-77 -8 -118.5 -50.5t-41.5 -111.5z" />
    <glyph glyph-name="Gcommaaccent" unicode="&#x122;" horiz-adv-x="1562" 
d="M83 722q0 143 41 264.5t114.5 209t174.5 149.5t222 92t255 30q158 0 277.5 -25t182.5 -67l10 -391h-47q-42 187 -147.5 301t-260.5 114q-201 0 -315 -180t-114 -483q0 -189 46.5 -343.5t142.5 -251t227 -96.5q136 0 204 59v417q0 68 -25.5 92.5t-109.5 34.5v49h579v-49
q-79 -10 -103.5 -35t-24.5 -92v-403q-89 -66 -234.5 -103.5t-303.5 -37.5q-232 0 -412 92.5t-279.5 262t-99.5 390.5zM855 -458q-71 0 -129 25t-86 66v44q52 -42 134 -42q48 0 76 18.5t28 51.5t-28.5 51.5t-73.5 18.5q-43 1 -76 -14v43q23 39 72 64.5t114 25.5q91 0 150 -47
t59 -127q0 -81 -66.5 -129.5t-173.5 -48.5z" />
    <glyph glyph-name="gcommaaccent" unicode="&#x123;" horiz-adv-x="1170" 
d="M588 1466q70 0 128 -25t87 -66l-1 -45q-52 43 -134 43q-48 0 -75.5 -19t-27.5 -52q0 -32 28.5 -50.5t73.5 -19.5q42 0 76 15v-43q-24 -39 -73 -64.5t-113 -25.5q-92 0 -151 47t-59 127q0 81 66.5 129.5t174.5 48.5zM82 684q0 147 135 238t343 91q133 0 246 -41l339 23
v-92l-277 21q82 -29 129.5 -92.5t47.5 -143.5q0 -146 -136 -232t-342 -86q-51 0 -117 8q-110 -23 -110 -98q0 -89 171 -89h168q211 0 319.5 -80t108.5 -228q0 -163 -156.5 -267t-389.5 -104q-238 0 -377 62.5t-140 166.5q0 83 92 133t285 59q-152 0 -244.5 58.5t-92.5 156.5
q1 97 85 161.5t236 81.5q-144 22 -233.5 98.5t-89.5 194.5zM404 696q0 -122 43.5 -193.5t119.5 -71.5t117 68t41 188q0 121 -43.5 193t-119.5 72q-77 0 -117.5 -68t-40.5 -188zM318 -239q0 -81 67 -132t181 -51q123 0 198.5 52t75.5 139q0 154 -211 154h-151
q-77 -8 -118.5 -50.5t-41.5 -111.5z" />
    <glyph glyph-name="Hcircumflex" unicode="&#x124;" horiz-adv-x="1660" 
d="M604 1529h-61l210 288h184l209 -288h-62l-240 136zM543 177q0 -65 24 -89.5t102 -38.5v-49h-616v49q84 16 109.5 41.5t25.5 93.5v1076q0 68 -25 93.5t-110 41.5v49h616v-50q-78 -13 -102 -38t-24 -89v-497h574v497q0 65 -24 89.5t-102 38.5v49h616v-49
q-84 -15 -109.5 -40.5t-25.5 -94.5v-1076q0 -68 25.5 -94t109.5 -41v-49h-616v49q78 14 102 38.5t24 89.5v530h-574v-530z" />
    <glyph glyph-name="hcircumflex" unicode="&#x125;" horiz-adv-x="1323" 
d="M77 1566h-61l210 289h184l209 -289h-62l-240 136zM490 1498l-2 -675q40 87 130 138.5t214 51.5q157 0 248.5 -81t91.5 -238v-535q0 -55 21.5 -76t94.5 -34v-49h-544v49q63 11 81.5 31t18.5 73v522q0 99 -46.5 150t-132.5 51q-60 0 -106 -25.5t-69 -68.5v-629
q0 -53 18 -72.5t82 -31.5v-49h-544v49q72 13 93.5 34t21.5 76v1124q0 49 -11 66.5t-53 31.5l-51 17v46z" />
    <glyph glyph-name="Hbar" unicode="&#x126;" horiz-adv-x="1660" 
d="M543 177q0 -65 24 -89.5t102 -38.5v-49h-616v49q84 16 109.5 41.5t25.5 93.5v859h-135v61h135v156q0 68 -25 93.5t-110 41.5v49h616v-50q-78 -13 -102 -38t-24 -89v-163h574v163q0 65 -24 89.5t-102 38.5v49h616v-49q-84 -15 -109.5 -40.5t-25.5 -94.5v-156h135v-61h-135
v-859q0 -68 25.5 -94t109.5 -41v-49h-616v49q78 14 102 38.5t24 89.5v530h-574v-530zM543 770h574v273h-574v-273z" />
    <glyph glyph-name="hbar" unicode="&#x127;" horiz-adv-x="1324" 
d="M44 1230v60h117v168l329 40v-208h248v-60h-248l-2 -407q40 87 130 138.5t214 51.5q157 0 248.5 -81t91.5 -238v-535q0 -55 21.5 -76t94.5 -34v-49h-544v49q63 11 81.5 31t18.5 73v522q0 99 -46.5 150t-132.5 51q-60 0 -106 -25.5t-69 -68.5v-629q0 -53 18 -72.5t82 -31.5
v-49h-544v49q72 13 93.5 34t21.5 76v1071h-117z" />
    <glyph glyph-name="Itilde" unicode="&#x128;" horiz-adv-x="731" 
d="M484 1546q-73 0 -156 55l-29 19q-58 37 -93 37t-54 -27.5t-21 -91.5h-56q-9 142 38.5 209.5t132.5 67.5q71 0 157 -56l29 -19q56 -36 93 -36q70 0 75 118h56q8 -142 -39.5 -209t-132.5 -67zM543 184q0 -68 25 -93.5t109 -41.5v-49h-624v49q85 16 110 41.5t25 93.5v1076
q0 68 -25 93.5t-110 41.5v49h624v-49q-84 -16 -109 -41.5t-25 -93.5v-1076z" />
    <glyph glyph-name="itilde" unicode="&#x129;" horiz-adv-x="644" 
d="M421 1151q-71 0 -151 60l-28 22q-56 41 -91 41q-34 0 -52.5 -30.5t-20.5 -102.5h-51q-9 155 36.5 228.5t127.5 73.5q69 0 152 -61l28 -22q56 -41 91 -41q70 0 73 132h51q8 -154 -37.5 -227t-127.5 -73zM490 1007v-848q0 -55 21.5 -76t93.5 -34v-49h-559v49q72 13 93.5 34
t21.5 76v634q0 49 -11 66.5t-53 31.5l-51 16v46z" />
    <glyph glyph-name="Imacron" unicode="&#x12a;" horiz-adv-x="731" 
d="M83 1588v142h565v-142h-565zM543 184q0 -68 25 -93.5t109 -41.5v-49h-624v49q85 16 110 41.5t25 93.5v1076q0 68 -25 93.5t-110 41.5v49h624v-49q-84 -16 -109 -41.5t-25 -93.5v-1076z" />
    <glyph glyph-name="imacron" unicode="&#x12b;" horiz-adv-x="644" 
d="M56 1198v167h501v-167h-501zM490 1007v-848q0 -55 21.5 -76t93.5 -34v-49h-559v49q72 13 93.5 34t21.5 76v634q0 49 -11 66.5t-53 31.5l-51 16v46z" />
    <glyph glyph-name="Ibreve" unicode="&#x12c;" horiz-adv-x="731" 
d="M365 1567q-134 0 -209 79t-75 187q0 22 4 52h54v-2q0 -68 64 -111.5t162 -43.5q99 0 162.5 43t63.5 112v2h54q4 -20 4 -52q0 -108 -74.5 -187t-209.5 -79zM543 184q0 -68 25 -93.5t109 -41.5v-49h-624v49q85 16 110 41.5t25 93.5v1076q0 68 -25 93.5t-110 41.5v49h624
v-49q-84 -16 -109 -41.5t-25 -93.5v-1076z" />
    <glyph glyph-name="ibreve" unicode="&#x12d;" horiz-adv-x="644" 
d="M307 1133q-92 0 -158 45.5t-96 112.5t-30 146q0 35 4 60h51v-3q0 -77 65 -125.5t164 -48.5t163.5 48.5t64.5 125.5v3h51q5 -30 5 -60q0 -79 -30 -146t-96.5 -112.5t-157.5 -45.5zM490 1007v-848q0 -55 21.5 -76t93.5 -34v-49h-559v49q72 13 93.5 34t21.5 76v634
q0 49 -11 66.5t-53 31.5l-51 16v46z" />
    <glyph glyph-name="Iogonek" unicode="&#x12e;" horiz-adv-x="731" 
d="M543 184q0 -68 25 -93.5t109 -41.5v-49h-267q-28 -49 -28 -125q0 -84 40.5 -141.5t97.5 -57.5q49 0 76 32l1 -48q-21 -63 -81 -101t-138 -38q-91 0 -151 54t-60 140q0 82 50 157.5t133 127.5h-297v49q85 16 110 41.5t25 93.5v1076q0 68 -25 93.5t-110 41.5v49h624v-49
q-84 -16 -109 -41.5t-25 -93.5v-1076z" />
    <glyph glyph-name="iogonek" unicode="&#x12f;" horiz-adv-x="645" 
d="M307 1144q-64 0 -109 43t-45 105t45 104.5t109 42.5q63 0 108 -42.5t45 -104.5t-45 -105t-108 -43zM330 -479q-85 0 -144.5 52t-59.5 137q0 152 182 290h-262v49q72 13 93.5 34t21.5 76v634q0 49 -11 66.5t-53 31.5l-51 16v46l444 54v-848q0 -55 21.5 -76t93.5 -34v-49
h-239q-23 -49 -23 -106q5 -101 44 -163t94 -62q47 0 72 27v-48q-25 -56 -85.5 -91.5t-137.5 -35.5z" />
    <glyph glyph-name="Idotaccent" unicode="&#x130;" horiz-adv-x="731" 
d="M365 1546q-57 0 -96.5 37t-39.5 91q0 55 39.5 91.5t96.5 36.5t96.5 -36.5t39.5 -91.5q0 -54 -39.5 -91t-96.5 -37zM543 184q0 -68 25 -93.5t109 -41.5v-49h-624v49q85 16 110 41.5t25 93.5v1076q0 68 -25 93.5t-110 41.5v49h624v-49q-84 -16 -109 -41.5t-25 -93.5v-1076z
" />
    <glyph glyph-name="dotlessi" unicode="&#x131;" horiz-adv-x="644" 
d="M490 1007v-848q0 -55 21.5 -76t93.5 -34v-49h-559v49q72 13 93.5 34t21.5 76v634q0 49 -11 66.5t-53 31.5l-51 16v46z" />
    <glyph glyph-name="IJ" unicode="&#x132;" horiz-adv-x="1462" 
d="M543 184q0 -68 25 -93.5t109 -41.5v-49h-624v49q85 16 110 41.5t25 93.5v1076q0 68 -25 93.5t-110 41.5v49h624v-49q-84 -16 -109 -41.5t-25 -93.5v-1076zM1274 276q0 -133 -38 -236t-119 -182.5t-187 -139t-262 -119.5l-21 43q154 101 213 242t59 413v963
q0 68 -25.5 93.5t-109.5 41.5v49h624v-49q-84 -16 -109 -41.5t-25 -93.5v-984z" />
    <glyph glyph-name="ij" unicode="&#x133;" horiz-adv-x="1260" 
d="M307 1138q-70 0 -119 45.5t-49 112.5q0 68 49 113.5t119 45.5t119 -45.5t49 -113.5q0 -67 -49 -112.5t-119 -45.5zM940 1138q-70 0 -119 45.5t-49 112.5q0 68 49 113.5t119 45.5t119 -45.5t49 -113.5q0 -67 -49 -112.5t-119 -45.5zM490 1007v-848q0 -55 21.5 -76
t93.5 -34v-49h-559v49q72 13 93.5 34t21.5 76v634q0 49 -11 66.5t-53 31.5l-51 16v46zM1124 1007v-785q0 -130 -19.5 -220t-71.5 -166t-126.5 -134.5t-200.5 -132.5l-73 -44l-27 40q113 101 151 217.5t38 354.5v656q0 49 -11 66.5t-52 31.5l-52 16v46z" />
    <glyph glyph-name="Jcircumflex" unicode="&#x134;" horiz-adv-x="731" 
d="M140 1529h-61l210 289h184l209 -289h-62l-240 136zM543 276q0 -133 -38 -236t-119 -182.5t-187 -139t-262 -119.5l-20 43q154 101 212.5 241.5t58.5 413.5v963q0 68 -25 93.5t-110 41.5v49h624v-49q-84 -16 -109 -41.5t-25 -93.5v-984z" />
    <glyph glyph-name="jcircumflex" unicode="&#x135;" horiz-adv-x="616" 
d="M39 1102h-62l229 376h180l230 -376h-63l-256 184zM480 1007v-785q0 -130 -19.5 -220t-71.5 -166t-126.5 -134.5t-200.5 -132.5l-73 -44l-27 40q113 101 151.5 218t38.5 354v656q0 49 -11.5 66.5t-52.5 31.5l-51 16v46z" />
    <glyph glyph-name="Kcommaaccent" unicode="&#x136;" horiz-adv-x="1461" 
d="M543 177q0 -65 24 -89.5t102 -38.5v-49h-616v49q84 16 109.5 41.5t25.5 93.5v1076q0 68 -25.5 93.5t-109.5 41.5v49h616v-50q-78 -13 -102 -38t-24 -89v-498l102 1l364 432q84 100 79 139.5t-101 53.5v49h433v-49q-88 -20 -159.5 -67.5t-184.5 -160.5l-186 -194l348 -640
q89 -159 133.5 -213t94.5 -73v-47h-430l-390 707l-103 1v-531zM775 -458q-71 0 -129 25t-86 66v44q52 -42 134 -42q48 0 75.5 18.5t27.5 51.5t-28 51.5t-73 18.5q-42 1 -77 -14v43q24 39 73 64.5t113 25.5q92 0 151 -47t59 -127q0 -81 -66.5 -129.5t-173.5 -48.5z" />
    <glyph glyph-name="kcommaaccent" unicode="&#x137;" horiz-adv-x="1230" 
d="M836 0l-262 479l-84 1v-327q0 -53 18 -72.5t82 -31.5v-49h-544v49q72 13 93.5 34t21.5 76v1124q0 49 -11 66.5t-53 31.5l-51 17v46l444 54v-959l82 2l229 241q68 67 60.5 106.5t-96.5 55.5v50h419v-50q-84 -19 -148.5 -55.5t-169.5 -126.5l-55 -50l233 -426
q68 -129 109 -176.5t88 -62.5v-47h-405zM662 -458q-71 0 -129 25t-86 66v44q53 -42 135 -42q47 0 75 18.5t28 51.5t-28.5 51.5t-73.5 18.5q-43 1 -76 -14v43q23 39 72 64.5t114 25.5q92 0 151 -47t59 -127q0 -81 -67 -129.5t-174 -48.5z" />
    <glyph glyph-name="Lacute" unicode="&#x139;" horiz-adv-x="1193" 
d="M306 1529l-62 1l115 289h332v-6zM1141 0h-1088v49q84 16 109.5 41.5t25.5 93.5v1076q0 68 -25 93.5t-110 41.5v49h636v-49q-91 -14 -118.5 -43t-27.5 -103v-1192l145 6q132 7 210 43.5t127.5 117t82.5 228.5h48z" />
    <glyph glyph-name="lacute" unicode="&#x13a;" horiz-adv-x="645" 
d="M258 1529l-62 1l115 289h332v-6zM490 1498v-1339q0 -55 21.5 -76t93.5 -34v-49h-559v49q72 13 93.5 34t21.5 76v1124q0 49 -11 66.5t-53 31.5l-51 17v46z" />
    <glyph glyph-name="Lcommaaccent" unicode="&#x13b;" horiz-adv-x="1193" 
d="M1141 0h-1088v49q84 16 109.5 41.5t25.5 93.5v1076q0 68 -25 93.5t-110 41.5v49h636v-49q-91 -14 -118.5 -43t-27.5 -103v-1192l145 6q132 7 210 43.5t127.5 117t82.5 228.5h48zM637 -458q-71 0 -129 25t-86 66l1 44q51 -42 134 -42q47 0 75 18.5t28 51.5t-28.5 51.5
t-73.5 18.5q-43 1 -76 -14v43q23 39 72 64.5t114 25.5q92 0 151 -47t59 -127q0 -81 -67 -129.5t-174 -48.5z" />
    <glyph glyph-name="lcommaaccent" unicode="&#x13c;" horiz-adv-x="645" 
d="M490 1498v-1339q0 -55 21.5 -76t93.5 -34v-49h-559v49q72 13 93.5 34t21.5 76v1124q0 49 -11 66.5t-53 31.5l-51 17v46zM316 -458q-71 0 -129 25t-86 66v44q53 -42 135 -42q47 0 75 18.5t28 51.5t-28.5 51.5t-73.5 18.5q-43 1 -76 -14v43q23 39 72 64.5t114 25.5
q92 0 151 -47t59 -127q0 -81 -67 -129.5t-174 -48.5z" />
    <glyph glyph-name="Lcaron" unicode="&#x13d;" horiz-adv-x="1193" 
d="M909 1132h-50l45 413h236zM1141 0h-1088v49q84 16 109.5 41.5t25.5 93.5v1076q0 68 -25 93.5t-110 41.5v49h636v-49q-91 -14 -118.5 -43t-27.5 -103v-1192l145 6q132 7 210 43.5t127.5 117t82.5 228.5h48z" />
    <glyph glyph-name="lcaron" unicode="&#x13e;" horiz-adv-x="645" 
d="M661 1090h-50l45 414h236zM490 1498v-1339q0 -55 21.5 -76t93.5 -34v-49h-559v49q72 13 93.5 34t21.5 76v1124q0 49 -11 66.5t-53 31.5l-51 17v46z" />
    <glyph glyph-name="Ldot" unicode="&#x13f;" horiz-adv-x="1193" 
d="M1141 0h-1088v49q84 16 109.5 41.5t25.5 93.5v1076q0 68 -25 93.5t-110 41.5v49h636v-49q-91 -14 -118.5 -43t-27.5 -103v-1192l145 6q132 7 210 43.5t127.5 117t82.5 228.5h48zM897 679q-67 0 -113.5 43.5t-46.5 107.5q0 65 46.5 108t113.5 43t113.5 -43t46.5 -108
q0 -64 -46.5 -107.5t-113.5 -43.5z" />
    <glyph glyph-name="ldot" unicode="&#x140;" horiz-adv-x="826" 
d="M490 1498v-1339q0 -55 21.5 -76t93.5 -34v-49h-559v49q72 13 93.5 34t21.5 76v1124q0 49 -11 66.5t-53 31.5l-51 17v46zM736 579q-64 0 -108 41t-44 102t44 102t108 41q63 0 107 -41t44 -102t-44 -102t-107 -41z" />
    <glyph glyph-name="Lslash" unicode="&#x141;" horiz-adv-x="1193" 
d="M53 637v65l135 36v522q0 68 -25 93.5t-110 41.5v49h636v-49q-91 -14 -118.5 -43t-27.5 -103v-417l325 86v-65l-325 -87v-709l145 6q132 7 210 43.5t127.5 117t82.5 228.5h48l-15 -452h-1088v49q84 16 109.5 41.5t25.5 93.5v488z" />
    <glyph glyph-name="lslash" unicode="&#x142;" horiz-adv-x="645" 
d="M46 708v66l115 36v473q0 49 -11 66.5t-53 31.5l-51 17v46l444 54v-584l122 39v-65l-122 -39v-690q0 -55 21.5 -76t93.5 -34v-49h-559v49q72 13 93.5 34t21.5 76v586z" />
    <glyph glyph-name="Nacute" unicode="&#x143;" horiz-adv-x="1473" 
d="M711 1529l-62 1l115 289h332v-6zM535 1444l700 -1100l-19 832q-3 124 -29 164.5t-117 53.5v50h380v-49q-86 -14 -111 -55t-27 -162l-15 -1178h-270l-790 1236l19 -968q2 -123 28.5 -164t116.5 -54v-50h-380v49q86 14 111 55t27 162l13 966q0 78 -27.5 112.5t-105.5 50.5
v49h496z" />
    <glyph glyph-name="nacute" unicode="&#x144;" horiz-adv-x="1323" 
d="M593 1102h-62l133 376h331v-7zM488 1007v-186q38 88 128.5 140t215.5 52q157 0 248.5 -81t91.5 -238v-535q0 -55 21.5 -76t94.5 -34v-49h-544v49q63 11 81.5 31t18.5 73v522q0 99 -46.5 150t-132.5 51q-60 0 -106 -25.5t-69 -68.5v-629q0 -53 18 -72.5t82 -31.5v-49h-544
v49q72 13 93.5 34t21.5 76v634q0 49 -11 66.5t-53 31.5l-51 16v46z" />
    <glyph glyph-name="Ncommaaccent" unicode="&#x145;" horiz-adv-x="1473" 
d="M535 1444l700 -1100l-19 832q-3 124 -29 164.5t-117 53.5v50h380v-49q-86 -14 -111 -55t-27 -162l-15 -1178h-270l-790 1236l19 -968q2 -123 28.5 -164t116.5 -54v-50h-380v49q86 14 111 55t27 162l13 966q0 78 -27.5 112.5t-105.5 50.5v49h496zM694 -458
q-71 0 -128.5 25t-85.5 66v44q52 -42 134 -42q48 0 75.5 18.5t27.5 51.5t-28 51.5t-73 18.5q-42 1 -77 -14v43q24 39 73 64.5t113 25.5q92 0 151 -47t59 -127q0 -81 -66.5 -129.5t-174.5 -48.5z" />
    <glyph glyph-name="ncommaaccent" unicode="&#x146;" horiz-adv-x="1323" 
d="M488 1007v-186q38 88 128.5 140t215.5 52q157 0 248.5 -81t91.5 -238v-535q0 -55 21.5 -76t94.5 -34v-49h-544v49q63 11 81.5 31t18.5 73v522q0 99 -46.5 150t-132.5 51q-60 0 -106 -25.5t-69 -68.5v-629q0 -53 18 -72.5t82 -31.5v-49h-544v49q72 13 93.5 34t21.5 76v634
q0 49 -11 66.5t-53 31.5l-51 16v46zM657 -458q-70 0 -128 25t-87 66l1 44q53 -42 134 -42q48 0 75.5 18.5t27.5 51.5t-28.5 51.5t-73.5 18.5q-43 1 -76 -14v43q24 39 72.5 64.5t113.5 25.5q92 0 151 -47t59 -127q0 -81 -66.5 -129.5t-174.5 -48.5z" />
    <glyph glyph-name="Ncaron" unicode="&#x147;" horiz-adv-x="1473" 
d="M1026 1837h60l-209 -289h-184l-210 289h63l239 -135zM535 1444l700 -1100l-19 832q-3 124 -29 164.5t-117 53.5v50h380v-49q-86 -14 -111 -55t-27 -162l-15 -1178h-270l-790 1236l19 -968q2 -123 28.5 -164t116.5 -54v-50h-380v49q86 14 111 55t27 162l13 966
q0 78 -27.5 112.5t-105.5 50.5v49h496z" />
    <glyph glyph-name="ncaron" unicode="&#x148;" horiz-adv-x="1323" 
d="M923 1503h62l-229 -375h-180l-230 375h63l257 -184zM488 1007v-186q38 88 128.5 140t215.5 52q157 0 248.5 -81t91.5 -238v-535q0 -55 21.5 -76t94.5 -34v-49h-544v49q63 11 81.5 31t18.5 73v522q0 99 -46.5 150t-132.5 51q-60 0 -106 -25.5t-69 -68.5v-629
q0 -53 18 -72.5t82 -31.5v-49h-544v49q72 13 93.5 34t21.5 76v634q0 49 -11 66.5t-53 31.5l-51 16v46z" />
    <glyph glyph-name="Omacron" unicode="&#x14c;" horiz-adv-x="1694" 
d="M561 1588v142h565v-142h-565zM83 720q0 209 93.5 378.5t268.5 269t399 99.5q160 0 300.5 -53t243.5 -148.5t163 -235.5t60 -305q0 -156 -55 -293.5t-153 -238t-241.5 -158.5t-311.5 -58q-160 0 -300.5 53.5t-243.5 149t-163 235.5t-60 305zM476 734q0 -204 45 -359.5
t131.5 -242.5t202.5 -87q126 0 208.5 85.5t119 231t36.5 349.5t-45.5 359.5t-132 242t-201.5 86.5q-126 0 -208.5 -85t-119 -230.5t-36.5 -349.5z" />
    <glyph glyph-name="omacron" unicode="&#x14d;" horiz-adv-x="1263" 
d="M317 1198v167h627v-167h-627zM629 -20q-243 0 -400.5 140.5t-157.5 372.5q0 151 73.5 270t201.5 184.5t287 65.5q244 0 401.5 -140.5t157.5 -371.5q0 -151 -73.5 -270.5t-201.5 -185t-288 -65.5zM636 46q100 0 153.5 117t53.5 327q0 214 -58 335.5t-158 121.5
q-101 0 -154.5 -116.5t-53.5 -326.5q0 -214 58 -336t159 -122z" />
    <glyph glyph-name="Obreve" unicode="&#x14e;" horiz-adv-x="1694" 
d="M843 1567q-134 0 -209 79t-75 187q0 32 4 52h54v-2q0 -68 64 -111.5t162 -43.5t162 43t64 112v2h54q4 -30 4 -52q0 -108 -75 -187t-209 -79zM83 720q0 209 93.5 378.5t268.5 269t399 99.5q160 0 300.5 -53t243.5 -148.5t163 -235.5t60 -305q0 -156 -55 -293.5t-153 -238
t-241.5 -158.5t-311.5 -58q-160 0 -300.5 53.5t-243.5 149t-163 235.5t-60 305zM476 734q0 -204 45 -359.5t131.5 -242.5t202.5 -87q126 0 208.5 85.5t119 231t36.5 349.5t-45.5 359.5t-132 242t-201.5 86.5q-126 0 -208.5 -85t-119 -230.5t-36.5 -349.5z" />
    <glyph glyph-name="obreve" unicode="&#x14f;" horiz-adv-x="1263" 
d="M631 1133q-150 0 -233 90.5t-83 213.5q0 28 5 60h57v-3q0 -77 72 -125.5t182 -48.5q111 0 182.5 48.5t71.5 125.5v3h57q4 -24 4 -60q0 -58 -20 -111.5t-57.5 -97t-99 -69.5t-138.5 -26zM629 -20q-243 0 -400.5 140.5t-157.5 372.5q0 151 73.5 270t201.5 184.5t287 65.5
q244 0 401.5 -140.5t157.5 -371.5q0 -151 -73.5 -270.5t-201.5 -185t-288 -65.5zM636 46q100 0 153.5 117t53.5 327q0 214 -58 335.5t-158 121.5q-101 0 -154.5 -116.5t-53.5 -326.5q0 -214 58 -336t159 -122z" />
    <glyph glyph-name="Ohungarumlaut" unicode="&#x150;" horiz-adv-x="1694" 
d="M680 1818l271 1v-6l-232 -284h-64zM1047 1818l296 1v-6l-338 -284h-69zM83 720q0 209 93.5 378.5t268.5 269t399 99.5q160 0 300.5 -53t243.5 -148.5t163 -235.5t60 -305q0 -156 -55 -293.5t-153 -238t-241.5 -158.5t-311.5 -58q-160 0 -300.5 53.5t-243.5 149
t-163 235.5t-60 305zM476 734q0 -204 45 -359.5t131.5 -242.5t202.5 -87q126 0 208.5 85.5t119 231t36.5 349.5t-45.5 359.5t-132 242t-201.5 86.5q-126 0 -208.5 -85t-119 -230.5t-36.5 -349.5z" />
    <glyph glyph-name="ohungarumlaut" unicode="&#x151;" horiz-adv-x="1263" 
d="M457 1478h273v-7l-253 -369h-63zM848 1478h297v-7l-358 -369h-70zM629 -20q-243 0 -400.5 140.5t-157.5 372.5q0 151 73.5 270t201.5 184.5t287 65.5q244 0 401.5 -140.5t157.5 -371.5q0 -151 -73.5 -270.5t-201.5 -185t-288 -65.5zM636 46q100 0 153.5 117t53.5 327
q0 214 -58 335.5t-158 121.5q-101 0 -154.5 -116.5t-53.5 -326.5q0 -214 58 -336t159 -122z" />
    <glyph glyph-name="OE" unicode="&#x152;" horiz-adv-x="2091" 
d="M83 720q0 157 56 294t156.5 237t249 157.5t324.5 57.5q69 0 189 -11t202 -11h723l13 -392h-46q-30 125 -73.5 191t-120.5 98t-213 39l-165 7v-620l195 5q91 4 127.5 48t59.5 164h44v-491h-44q-12 61 -24 97.5t-33 63t-51.5 38t-78.5 13.5l-195 5v-653l194 8
q107 5 173.5 23t115.5 60.5t77.5 107t52.5 172.5h46l-13 -428h-768q-71 0 -199.5 -11t-195.5 -11q-156 0 -297.5 53.5t-248 148.5t-169.5 235.5t-63 304.5zM462 724q0 -303 116 -490t308 -187q81 0 137 20v1306q-54 25 -134 25q-140 0 -237.5 -87t-143.5 -236.5t-46 -350.5z
" />
    <glyph glyph-name="oe" unicode="&#x153;" horiz-adv-x="1864" 
d="M628 -20q-245 0 -401 140.5t-156 373.5q0 149 73.5 268.5t201.5 185t285 65.5q233 0 375 -148q134 148 349 148q205 0 324 -115t119 -304q0 -41 -5 -69h-622q19 -192 120 -299.5t254 -107.5q69 0 130.5 22.5t100.5 59.5v-49q-58 -78 -165.5 -124.5t-239.5 -46.5
q-227 0 -368 153q-71 -73 -167.5 -113t-207.5 -40zM636 46q102 0 153.5 112t51.5 327q0 219 -56.5 340.5t-159.5 121.5q-206 0 -206 -439q0 -219 57 -340.5t160 -121.5zM1166 613q0 -21 1 -31l341 4q2 38 2 69q0 138 -39 215t-117 77q-90 0 -139 -87t-49 -247z" />
    <glyph glyph-name="Racute" unicode="&#x154;" horiz-adv-x="1437" 
d="M625 1529l-62 1l115 289h332v-6zM1308 1056q1 -123 -75 -210.5t-207 -123.5l202 -422q69 -138 108.5 -187.5t83.5 -65.5v-47h-411l-311 655h-155v-478q0 -64 24 -88.5t102 -39.5v-49h-616v49q84 16 109.5 42t25.5 93v1076q0 69 -25.5 94.5t-109.5 40.5v49h640
q305 0 459.5 -103t155.5 -285zM954 1037q0 153 -84 246.5t-252 101.5l-75 2v-676l90 4q147 6 234 90t87 232z" />
    <glyph glyph-name="racute" unicode="&#x155;" horiz-adv-x="936" 
d="M449 1102h-62l133 376h331v-7zM488 1007l-1 -282q72 149 138.5 216.5t142.5 67.5q65 0 99 -45.5t34 -116.5q0 -63 -23 -109q-53 20 -144 20q-75 0 -143 -18.5t-101 -48.5v-524q0 -60 23.5 -82.5t104.5 -35.5v-49h-572v49q72 12 93.5 33t21.5 75v636q0 49 -11.5 66.5
t-52.5 31.5l-51 16v46z" />
    <glyph glyph-name="Rcommaaccent" unicode="&#x156;" horiz-adv-x="1437" 
d="M1308 1056q1 -123 -75 -210.5t-207 -123.5l202 -422q69 -138 108.5 -187.5t83.5 -65.5v-47h-411l-311 655h-155v-478q0 -64 24 -88.5t102 -39.5v-49h-616v49q84 16 109.5 42t25.5 93v1076q0 69 -25.5 94.5t-109.5 40.5v49h640q305 0 459.5 -103t155.5 -285zM954 1037
q0 153 -84 246.5t-252 101.5l-75 2v-676l90 4q147 6 234 90t87 232zM739 -458q-71 0 -129 25t-86 66v44q52 -42 134 -42q48 0 76 18.5t28 51.5t-28.5 51.5t-73.5 18.5q-43 1 -76 -14v43q23 39 72 64.5t114 25.5q91 0 150 -47t59 -127q0 -81 -66.5 -129.5t-173.5 -48.5z" />
    <glyph glyph-name="rcommaaccent" unicode="&#x157;" horiz-adv-x="936" 
d="M488 1007l-1 -282q72 149 138.5 216.5t142.5 67.5q65 0 99 -45.5t34 -116.5q0 -63 -23 -109q-53 20 -144 20q-75 0 -143 -18.5t-101 -48.5v-524q0 -60 23.5 -82.5t104.5 -35.5v-49h-572v49q72 12 93.5 33t21.5 75v636q0 49 -11.5 66.5t-52.5 31.5l-51 16v46zM319 -458
q-71 0 -129 25t-86 66v44q52 -42 135 -42q47 0 75 18.5t28 51.5t-28.5 51.5t-73.5 18.5q-43 1 -76 -14v43q23 39 72 64.5t114 25.5q92 0 151 -47t59 -127q0 -81 -67 -129.5t-174 -48.5z" />
    <glyph glyph-name="Rcaron" unicode="&#x158;" horiz-adv-x="1437" 
d="M940 1837h60l-209 -289h-184l-210 289h63l239 -135zM1308 1056q1 -123 -75 -210.5t-207 -123.5l202 -422q69 -138 108.5 -187.5t83.5 -65.5v-47h-411l-311 655h-155v-478q0 -64 24 -88.5t102 -39.5v-49h-616v49q84 16 109.5 42t25.5 93v1076q0 69 -25.5 94.5t-109.5 40.5
v49h640q305 0 459.5 -103t155.5 -285zM954 1037q0 153 -84 246.5t-252 101.5l-75 2v-676l90 4q147 6 234 90t87 232z" />
    <glyph glyph-name="rcaron" unicode="&#x159;" horiz-adv-x="936" 
d="M779 1503h62l-229 -375h-180l-230 375h63l256 -184zM488 1007l-1 -282q72 149 138.5 216.5t142.5 67.5q65 0 99 -45.5t34 -116.5q0 -63 -23 -109q-53 20 -144 20q-75 0 -143 -18.5t-101 -48.5v-524q0 -60 23.5 -82.5t104.5 -35.5v-49h-572v49q72 12 93.5 33t21.5 75v636
q0 49 -11.5 66.5t-52.5 31.5l-51 16v46z" />
    <glyph glyph-name="Sacute" unicode="&#x15a;" horiz-adv-x="1250" 
d="M596 1529l-62 1l116 289h331v-6zM590 -23q-149 0 -275.5 27t-205.5 72l-14 392h47q41 -197 163 -310t279 -113q122 0 196 65.5t74 171.5q0 96 -60.5 160.5t-193.5 110.5l-126 42q-385 130 -385 440q0 202 157 317t419 115q136 0 243.5 -24.5t166.5 -64.5l9 -349h-47
q-39 172 -135.5 271t-233.5 99q-125 0 -194 -59.5t-69 -156.5q0 -92 61.5 -152t191.5 -105l125 -43q387 -130 387 -454q0 -139 -77.5 -243t-208 -156.5t-294.5 -52.5z" />
    <glyph glyph-name="sacute" unicode="&#x15b;" horiz-adv-x="977" 
d="M428 1102h-62l133 376h331v-7zM76 691q0 150 123 235.5t337 85.5q102 0 185.5 -17t128.5 -41l4 -263h-47q-29 122 -98.5 189t-168.5 67q-85 0 -132 -36.5t-47 -97.5q0 -55 41 -90t130 -64l83 -26q148 -48 221.5 -126.5t73.5 -201.5q0 -100 -61 -174.5t-165.5 -112
t-237.5 -37.5q-106 0 -205.5 22t-157.5 57l-10 284h47q30 -134 119.5 -215.5t200.5 -81.5q85 0 135 38.5t50 100.5q0 58 -39.5 96t-126.5 67l-83 26q-146 48 -223 123t-77 193z" />
    <glyph glyph-name="Scircumflex" unicode="&#x15c;" horiz-adv-x="1250" 
d="M430 1529h-60l209 289h185l209 -289h-62l-240 136zM590 -23q-149 0 -275.5 27t-205.5 72l-14 392h47q41 -197 163 -310t279 -113q122 0 196 65.5t74 171.5q0 96 -60.5 160.5t-193.5 110.5l-126 42q-385 130 -385 440q0 202 157 317t419 115q136 0 243.5 -24.5
t166.5 -64.5l9 -349h-47q-39 172 -135.5 271t-233.5 99q-125 0 -194 -59.5t-69 -156.5q0 -92 61.5 -152t191.5 -105l125 -43q387 -130 387 -454q0 -139 -77.5 -243t-208 -156.5t-294.5 -52.5z" />
    <glyph glyph-name="scircumflex" unicode="&#x15d;" horiz-adv-x="977" 
d="M244 1102h-63l230 376h180l229 -376h-62l-257 184zM76 691q0 150 123 235.5t337 85.5q102 0 185.5 -17t128.5 -41l4 -263h-47q-29 122 -98.5 189t-168.5 67q-85 0 -132 -36.5t-47 -97.5q0 -55 41 -90t130 -64l83 -26q148 -48 221.5 -126.5t73.5 -201.5q0 -100 -61 -174.5
t-165.5 -112t-237.5 -37.5q-106 0 -205.5 22t-157.5 57l-10 284h47q30 -134 119.5 -215.5t200.5 -81.5q85 0 135 38.5t50 100.5q0 58 -39.5 96t-126.5 67l-83 26q-146 48 -223 123t-77 193z" />
    <glyph glyph-name="Scedilla" unicode="&#x15e;" horiz-adv-x="1250" 
d="M586 -458q-73 0 -130.5 25.5t-84.5 68.5l1 47q46 -35 121 -35q46 0 74.5 19.5t28.5 54.5q0 34 -27.5 53.5t-71.5 19.5q-30 0 -48 -9l-1 40l125 151q-143 1 -265 28.5t-199 70.5l-14 392h47q41 -197 163 -310t279 -113q122 0 196 65.5t74 171.5q0 96 -60.5 160.5
t-193.5 110.5l-126 42q-385 130 -385 440q0 202 157 317t419 115q136 0 243.5 -24.5t166.5 -64.5l9 -349h-47q-39 172 -135.5 271t-233.5 99q-125 0 -194 -59.5t-69 -156.5q0 -92 61.5 -152t191.5 -105l125 -43q387 -130 387 -454q0 -198 -149 -318.5t-383 -132.5l-66 -78
q20 3 40 3q91 0 153.5 -49t62.5 -130q0 -84 -70 -133t-172 -49z" />
    <glyph glyph-name="scedilla" unicode="&#x15f;" horiz-adv-x="977" 
d="M440 -458q-73 0 -130.5 25.5t-84.5 68.5l1 47q44 -35 121 -35q46 0 74.5 19.5t28.5 54.5q0 34 -27.5 53.5t-71.5 19.5q-32 0 -48 -9l-1 40l128 155q-103 2 -197.5 24t-149.5 55l-10 284h47q30 -134 119.5 -215.5t200.5 -81.5q85 0 135 38.5t50 100.5q0 58 -39.5 96
t-126.5 67l-83 26q-146 48 -223 123t-77 193q0 150 123 235.5t337 85.5q102 0 185.5 -17t128.5 -41l4 -263h-47q-29 122 -98.5 189t-168.5 67q-85 0 -132 -36.5t-47 -97.5q0 -55 41 -90t130 -64l83 -26q148 -48 221.5 -126.5t73.5 -201.5q0 -141 -115 -226.5t-300 -95.5
l-69 -83q18 3 39 3q92 0 154.5 -49t62.5 -130q0 -84 -70 -133t-172 -49z" />
    <glyph glyph-name="Scaron" unicode="&#x160;" horiz-adv-x="1250" 
d="M911 1837h61l-210 -289h-184l-209 289h62l240 -135zM590 -23q-149 0 -275.5 27t-205.5 72l-14 392h47q41 -197 163 -310t279 -113q122 0 196 65.5t74 171.5q0 96 -60.5 160.5t-193.5 110.5l-126 42q-385 130 -385 440q0 202 157 317t419 115q136 0 243.5 -24.5
t166.5 -64.5l9 -349h-47q-39 172 -135.5 271t-233.5 99q-125 0 -194 -59.5t-69 -156.5q0 -92 61.5 -152t191.5 -105l125 -43q387 -130 387 -454q0 -139 -77.5 -243t-208 -156.5t-294.5 -52.5z" />
    <glyph glyph-name="scaron" unicode="&#x161;" horiz-adv-x="977" 
d="M758 1503h62l-229 -375h-180l-230 375h63l257 -184zM76 691q0 150 123 235.5t337 85.5q102 0 185.5 -17t128.5 -41l4 -263h-47q-29 122 -98.5 189t-168.5 67q-85 0 -132 -36.5t-47 -97.5q0 -55 41 -90t130 -64l83 -26q148 -48 221.5 -126.5t73.5 -201.5
q0 -100 -61 -174.5t-165.5 -112t-237.5 -37.5q-106 0 -205.5 22t-157.5 57l-10 284h47q30 -134 119.5 -215.5t200.5 -81.5q85 0 135 38.5t50 100.5q0 58 -39.5 96t-126.5 67l-83 26q-146 48 -223 123t-77 193z" />
    <glyph glyph-name="Tcedilla" unicode="&#x162;" horiz-adv-x="1353" 
d="M651 -458q-73 0 -130.5 25.5t-84.5 68.5l1 47q45 -35 121 -35q46 0 74 19.5t28 54.5q0 34 -27 53.5t-71 19.5q-32 0 -48 -9l-1 40l138 174h-297v49q90 13 117.5 43.5t27.5 106.5v1188l-45 -4q-120 -11 -189 -43t-111 -99.5t-68 -189.5h-47l13 393h1248l14 -393h-47
q-38 178 -115 246.5t-253 85.5l-45 4v-1188q0 -77 27.5 -107t118.5 -43v-49h-286l-80 -100q20 3 43 3q91 0 153.5 -49t62.5 -130q0 -84 -70 -133t-172 -49z" />
    <glyph glyph-name="tcedilla" unicode="&#x163;" horiz-adv-x="740" 
d="M151 291v611h-113v43l402 294h38v-260l240 15v-92l-240 15v-627q0 -183 139 -183q70 0 113 40v-50q-31 -43 -99 -76t-150 -40l-68 -81q18 3 39 3q92 0 154.5 -49t62.5 -130q0 -84 -70 -133t-172 -49q-73 0 -130.5 25.5t-84.5 68.5l1 47q44 -35 121 -35q46 0 74.5 19.5
t28.5 54.5q0 34 -27.5 53.5t-71.5 19.5q-32 0 -48 -9l-1 40l128 155q-121 9 -193.5 85.5t-72.5 224.5z" />
    <glyph glyph-name="Tcaron" unicode="&#x164;" horiz-adv-x="1353" 
d="M931 1837h60l-209 -289h-185l-209 289h62l240 -135zM1300 1444l14 -393h-47q-38 178 -115 246.5t-253 85.5l-45 4v-1188q0 -77 27.5 -107t118.5 -43v-49h-646v49q90 13 117.5 43.5t27.5 106.5v1188l-45 -4q-120 -11 -189 -43t-111 -99.5t-68 -189.5h-47l13 393h1248z" />
    <glyph glyph-name="tcaron" unicode="&#x165;" horiz-adv-x="740" 
d="M659 1090h-50l45 414h236zM151 291v611h-113v43l402 294h38v-260l240 15v-92l-240 15v-627q0 -183 139 -183q70 0 113 40v-50q-33 -48 -111.5 -82.5t-168.5 -34.5q-135 0 -217 76.5t-82 234.5z" />
    <glyph glyph-name="Tbar" unicode="&#x166;" horiz-adv-x="1353" 
d="M223 710v60h276v617l-45 -4q-120 -11 -189 -43t-111 -99.5t-68 -189.5h-47l13 393h1248l14 -393h-47q-38 178 -115 246.5t-253 85.5l-45 4v-617h276v-60h-276v-511q0 -77 27.5 -107t118.5 -43v-49h-646v49q90 13 117.5 43t27.5 107v511h-276z" />
    <glyph glyph-name="tbar" unicode="&#x167;" horiz-adv-x="740" 
d="M151 291v262h-98v60h98v289h-113v43l402 294h38v-260l240 15v-92l-240 15v-304h260v-60h-260v-263q0 -183 139 -183q70 0 113 40v-50q-33 -48 -111.5 -82.5t-168.5 -34.5q-135 0 -217 76.5t-82 234.5z" />
    <glyph glyph-name="Utilde" unicode="&#x168;" horiz-adv-x="1505" 
d="M954 1546q-71 0 -156 55l-29 19q-58 37 -93 37q-71 0 -75 -119h-56q-8 142 39.5 209.5t132.5 67.5q71 0 156 -56l30 -19q55 -36 93 -36q70 0 74 118h56q9 -142 -39 -209t-133 -67zM161 1265q0 66 -24 91t-102 39v49h616v-49q-84 -16 -109.5 -41.5t-25.5 -93.5v-700
q0 -228 101 -343.5t273 -115.5q174 0 277 123t99 339l-10 613q-3 123 -29 163t-117 55v50h372v-50q-82 -13 -106 -53.5t-27 -161.5l-10 -633q-4 -262 -152 -415.5t-419 -153.5q-102 0 -191.5 21t-166 66.5t-131.5 112t-86.5 163.5t-31.5 215v710z" />
    <glyph glyph-name="utilde" unicode="&#x169;" horiz-adv-x="1292" 
d="M768 1151q-79 0 -168 60l-32 22q-60 41 -100 41q-39 0 -59.5 -31t-21.5 -102h-57q-9 155 41 228.5t141 73.5q78 0 169 -61l31 -22q61 -41 101 -41q39 0 59.5 30.5t21.5 101.5h57q9 -154 -41 -227t-142 -73zM469 1007v-687q0 -100 44.5 -151t129.5 -51q56 0 100 25t67 67
v583q0 49 -11 66.5t-53 31.5l-52 16v46l445 54v-810q0 -49 11 -66.5t52 -32.5l51 -15v-46l-441 -49v184q-39 -88 -128.5 -140t-213.5 -52q-152 0 -241 81.5t-89 240.5v491q0 49 -11 66.5t-52 31.5l-52 16v46z" />
    <glyph glyph-name="Umacron" unicode="&#x16a;" horiz-adv-x="1505" 
d="M554 1588v142h564v-142h-564zM161 1265q0 66 -24 91t-102 39v49h616v-49q-84 -16 -109.5 -41.5t-25.5 -93.5v-700q0 -228 101 -343.5t273 -115.5q174 0 277 123t99 339l-10 613q-3 123 -29 163t-117 55v50h372v-50q-82 -13 -106 -53.5t-27 -161.5l-10 -633
q-4 -262 -152 -415.5t-419 -153.5q-102 0 -191.5 21t-166 66.5t-131.5 112t-86.5 163.5t-31.5 215v710z" />
    <glyph glyph-name="umacron" unicode="&#x16b;" horiz-adv-x="1292" 
d="M327 1198v167h627v-167h-627zM469 1007v-687q0 -100 44.5 -151t129.5 -51q56 0 100 25t67 67v583q0 49 -11 66.5t-53 31.5l-52 16v46l445 54v-810q0 -49 11 -66.5t52 -32.5l51 -15v-46l-441 -49v184q-39 -88 -128.5 -140t-213.5 -52q-152 0 -241 81.5t-89 240.5v491
q0 49 -11 66.5t-52 31.5l-52 16v46z" />
    <glyph glyph-name="Ubreve" unicode="&#x16c;" horiz-adv-x="1505" 
d="M836 1567q-134 0 -209.5 79t-75.5 187q0 22 4 52h55v-2q0 -68 63.5 -111.5t161.5 -43.5q99 0 163 43t64 112v2h54q4 -30 4 -52q0 -108 -75 -187t-209 -79zM161 1265q0 66 -24 91t-102 39v49h616v-49q-84 -16 -109.5 -41.5t-25.5 -93.5v-700q0 -228 101 -343.5t273 -115.5
q174 0 277 123t99 339l-10 613q-3 123 -29 163t-117 55v50h372v-50q-82 -13 -106 -53.5t-27 -161.5l-10 -633q-4 -262 -152 -415.5t-419 -153.5q-102 0 -191.5 21t-166 66.5t-131.5 112t-86.5 163.5t-31.5 215v710z" />
    <glyph glyph-name="ubreve" unicode="&#x16d;" horiz-adv-x="1292" 
d="M641 1133q-150 0 -233 90.5t-83 213.5q0 36 5 60h57v-3q0 -77 72 -125.5t182 -48.5t181.5 48.5t71.5 125.5v3h57q5 -23 5 -60q0 -58 -20 -111.5t-57.5 -97t-99 -69.5t-138.5 -26zM469 1007v-687q0 -100 44.5 -151t129.5 -51q56 0 100 25t67 67v583q0 49 -11 66.5
t-53 31.5l-52 16v46l445 54v-810q0 -49 11 -66.5t52 -32.5l51 -15v-46l-441 -49v184q-39 -88 -128.5 -140t-213.5 -52q-152 0 -241 81.5t-89 240.5v491q0 49 -11 66.5t-52 31.5l-52 16v46z" />
    <glyph glyph-name="Uring" unicode="&#x16e;" horiz-adv-x="1505" 
d="M571 1722q0 79 75 127.5t190 48.5t189.5 -48.5t74.5 -127.5t-74.5 -126.5t-189.5 -47.5t-190 48t-75 126zM754 1722q0 -57 22.5 -92t59.5 -35t59.5 35t22.5 92t-22.5 92.5t-59.5 35.5t-59.5 -35.5t-22.5 -92.5zM161 1265q0 66 -24 91t-102 39v49h616v-49
q-84 -16 -109.5 -41.5t-25.5 -93.5v-700q0 -228 101 -343.5t273 -115.5q174 0 277 123t99 339l-10 613q-3 123 -29 163t-117 55v50h372v-50q-82 -13 -106 -53.5t-27 -161.5l-10 -633q-4 -262 -152 -415.5t-419 -153.5q-102 0 -191.5 21t-166 66.5t-131.5 112t-86.5 163.5
t-31.5 215v710z" />
    <glyph glyph-name="uring" unicode="&#x16f;" horiz-adv-x="1292" 
d="M347 1301q0 87 83 140.5t211 53.5q127 0 210 -53.5t83 -139.5q0 -88 -82.5 -140.5t-210.5 -52.5q-129 0 -211.5 52.5t-82.5 139.5zM550 1301q0 -64 25 -103t66 -39t65.5 39t24.5 104q0 63 -24.5 103t-65.5 40t-66 -40.5t-25 -103.5zM469 1007v-687q0 -100 44.5 -151
t129.5 -51q56 0 100 25t67 67v583q0 49 -11 66.5t-53 31.5l-52 16v46l445 54v-810q0 -49 11 -66.5t52 -32.5l51 -15v-46l-441 -49v184q-39 -88 -128.5 -140t-213.5 -52q-152 0 -241 81.5t-89 240.5v491q0 49 -11 66.5t-52 31.5l-52 16v46z" />
    <glyph glyph-name="Uhungarumlaut" unicode="&#x170;" horiz-adv-x="1505" 
d="M673 1818l270 1v-6l-232 -284h-63zM1040 1818l295 1v-6l-337 -284h-70zM161 1265q0 66 -24 91t-102 39v49h616v-49q-84 -16 -109.5 -41.5t-25.5 -93.5v-700q0 -228 101 -343.5t273 -115.5q174 0 277 123t99 339l-10 613q-3 123 -29 163t-117 55v50h372v-50
q-82 -13 -106 -53.5t-27 -161.5l-10 -633q-4 -262 -152 -415.5t-419 -153.5q-102 0 -191.5 21t-166 66.5t-131.5 112t-86.5 163.5t-31.5 215v710z" />
    <glyph glyph-name="uhungarumlaut" unicode="&#x171;" horiz-adv-x="1292" 
d="M467 1478h273v-7l-253 -369h-64zM857 1478h297v-7l-358 -369h-69zM469 1007v-687q0 -100 44.5 -151t129.5 -51q56 0 100 25t67 67v583q0 49 -11 66.5t-53 31.5l-52 16v46l445 54v-810q0 -49 11 -66.5t52 -32.5l51 -15v-46l-441 -49v184q-39 -88 -128.5 -140t-213.5 -52
q-152 0 -241 81.5t-89 240.5v491q0 49 -11 66.5t-52 31.5l-52 16v46z" />
    <glyph glyph-name="Uogonek" unicode="&#x172;" horiz-adv-x="1505" 
d="M819 -479q-92 0 -151.5 54t-59.5 139q0 75 46 144t125 119h-11q-102 0 -191.5 21t-166 66.5t-131.5 112t-86.5 163.5t-31.5 215v710q0 66 -24 91t-102 39v49h616v-49q-84 -16 -109.5 -41.5t-25.5 -93.5v-700q0 -228 101 -343.5t273 -115.5q173 0 276.5 123t99.5 339
l-10 613q-2 122 -28.5 162.5t-117.5 55.5v50h372v-50q-82 -13 -106 -53.5t-27 -161.5l-10 -633q-4 -241 -130.5 -391.5t-359.5 -173.5q-27 -46 -27 -116q0 -80 41.5 -134.5t97.5 -54.5q50 0 77 32v-48q-21 -63 -81 -101t-138 -38z" />
    <glyph glyph-name="uogonek" unicode="&#x173;" horiz-adv-x="1292" 
d="M469 1007v-687q0 -100 44.5 -151t129.5 -51q56 0 100 25t67 67v583q0 49 -11 66.5t-53 31.5l-52 16v46l445 54v-810q0 -49 11 -66.5t52 -32.5l51 -15v-46q-164 -129 -164 -262q0 -51 26.5 -78.5t65.5 -27.5q55 0 80 27l1 -48q-29 -58 -90.5 -92.5t-137.5 -34.5
q-85 0 -142 47t-57 124q0 163 274 303l69 33l-366 -40v184q-39 -88 -128.5 -140t-213.5 -52q-152 0 -241 81.5t-89 240.5v491q0 49 -11 66.5t-52 31.5l-52 16v46z" />
    <glyph glyph-name="Wcircumflex" unicode="&#x174;" horiz-adv-x="2226" 
d="M981 1529h-60l209 289h185l209 -289h-62l-240 136zM176 1178q-37 121 -74 162.5t-111 54.5v49h668v-49q-97 -14 -118 -57t11 -161l242 -868l237 874q17 63 21.5 98t-6.5 59.5t-36 35.5t-74 19v49h623v-49q-63 -10 -86.5 -29.5t-23 -57.5t23.5 -122l240 -878l230 841
q28 89 25.5 140.5t-29.5 73t-96 32.5v49h396v-49q-54 -9 -85 -30.5t-57 -71.5t-57 -151l-359 -1145h-224l-342 1154l-352 -1154h-221z" />
    <glyph glyph-name="wcircumflex" unicode="&#x175;" horiz-adv-x="1722" 
d="M711 1102h-62l230 376h180l229 -376h-62l-257 184zM148 780q-31 88 -61.5 119.5t-90.5 44.5v50h584v-50q-52 -7 -72.5 -25t-19.5 -55.5t22 -114.5l133 -455l140 457q21 75 22 112.5t-19 55.5t-69 25v50h550v-50q-51 -7 -71 -25t-18.5 -56t23.5 -114l136 -455l137 453
q32 112 18.5 149t-87.5 48v50h320v-50q-42 -9 -66.5 -25t-48 -57t-51.5 -122l-263 -742h-176l-259 724l-258 -724h-177z" />
    <glyph glyph-name="Ycircumflex" unicode="&#x176;" horiz-adv-x="1381" 
d="M556 1529h-60l209 289h185l209 -289h-62l-240 136zM206 1194q-65 112 -104.5 149.5t-108.5 51.5v49h654v-49q-91 -13 -103 -54.5t47 -154.5l247 -456l220 433q45 88 53 133.5t-16.5 67t-91.5 31.5v49h385v-49q-73 -14 -116.5 -57t-119.5 -176l-283 -495v-468
q0 -77 27.5 -107t118.5 -43v-49h-646v49q90 13 117.5 43.5t27.5 106.5v446z" />
    <glyph glyph-name="ycircumflex" unicode="&#x177;" horiz-adv-x="1077" 
d="M321 1102h-63l230 376h180l229 -376h-62l-257 184zM150 780q-38 92 -66.5 122t-87.5 42v50h595v-50q-86 -11 -100.5 -46t20.5 -135l157 -448l154 444q36 103 21.5 138t-99.5 47v50h338v-50q-62 -12 -94 -47.5t-77 -145.5l-193 -471l-133 -317l-151 -423h-241v4
q73 75 161 192t144 215z" />
    <glyph glyph-name="Ydieresis" unicode="&#x178;" horiz-adv-x="1381" 
d="M614 1553q-53 0 -90 35t-37 87q0 51 37 86t90 35t89.5 -35t36.5 -86q0 -52 -36.5 -87t-89.5 -35zM952 1553q-53 0 -89.5 35t-36.5 87q0 51 36.5 86t89.5 35t90 -35t37 -86q0 -52 -37 -87t-90 -35zM206 1194q-65 112 -104.5 149.5t-108.5 51.5v49h654v-49
q-91 -13 -103 -54.5t47 -154.5l247 -456l220 433q45 88 53 133.5t-16.5 67t-91.5 31.5v49h385v-49q-73 -14 -116.5 -57t-119.5 -176l-283 -495v-468q0 -77 27.5 -107t118.5 -43v-49h-646v49q90 13 117.5 43.5t27.5 106.5v446z" />
    <glyph glyph-name="Zacute" unicode="&#x179;" horiz-adv-x="1302" 
d="M616 1529l-63 1l116 289h331v-6zM1217 0h-1145v47l753 1340l-221 -8q-164 -7 -253.5 -39t-135.5 -97t-76 -192h-46l15 393h1111v-47l-754 -1340l237 9q125 5 202 22t134 59t89 107t57 174h47z" />
    <glyph glyph-name="zacute" unicode="&#x17a;" horiz-adv-x="968" 
d="M425 1102h-62l133 376h331v-7zM71 994h844v-45l-506 -894l163 6q143 8 206 69t94 224h47l-6 -354h-864v45l506 893l-137 -6q-101 -7 -158.5 -33t-91.5 -80t-58 -155h-47z" />
    <glyph glyph-name="Zdotaccent" unicode="&#x17b;" horiz-adv-x="1302" 
d="M676 1546q-57 0 -96.5 37t-39.5 91q0 55 39.5 91.5t96.5 36.5t96.5 -36.5t39.5 -91.5q0 -54 -39.5 -91t-96.5 -37zM1217 0h-1145v47l753 1340l-221 -8q-164 -7 -253.5 -39t-135.5 -97t-76 -192h-46l15 393h1111v-47l-754 -1340l237 9q125 5 202 22t134 59t89 107t57 174
h47z" />
    <glyph glyph-name="zdotaccent" unicode="&#x17c;" horiz-adv-x="968" 
d="M498 1146q-67 0 -113.5 43t-46.5 107q0 65 46.5 108t113.5 43t113.5 -43t46.5 -108q0 -64 -46.5 -107t-113.5 -43zM71 994h844v-45l-506 -894l163 6q143 8 206 69t94 224h47l-6 -354h-864v45l506 893l-137 -6q-101 -7 -158.5 -33t-91.5 -80t-58 -155h-47z" />
    <glyph glyph-name="Zcaron" unicode="&#x17d;" horiz-adv-x="1302" 
d="M931 1837h60l-209 -289h-185l-209 289h62l240 -135zM1217 0h-1145v47l753 1340l-221 -8q-164 -7 -253.5 -39t-135.5 -97t-76 -192h-46l15 393h1111v-47l-754 -1340l237 9q125 5 202 22t134 59t89 107t57 174h47z" />
    <glyph glyph-name="zcaron" unicode="&#x17e;" horiz-adv-x="968" 
d="M755 1503h62l-229 -375h-180l-230 375h63l256 -184zM71 994h844v-45l-506 -894l163 6q143 8 206 69t94 224h47l-6 -354h-864v45l506 893l-137 -6q-101 -7 -158.5 -33t-91.5 -80t-58 -155h-47z" />
    <glyph glyph-name="Schwa" unicode="&#x18f;" horiz-adv-x="1523" 
d="M700 -23q-306 0 -475.5 169t-169.5 452q0 36 7 99l990 -1v21q0 320 -111.5 501t-311.5 181q-162 0 -271 -114.5t-150 -299.5h-47l10 391q64 42 188.5 67t285.5 25q169 0 312 -47.5t251.5 -138.5t169.5 -234.5t61 -324.5q0 -163 -50 -300.5t-143 -236t-233 -154
t-313 -55.5zM402 547q0 -81 9 -151.5t31 -136t56 -112t86 -74.5t119 -28q85 0 150.5 42.5t106.5 122.5t63.5 186t27.5 240l-645 -3q-4 -36 -4 -86z" />
    <glyph glyph-name="florin" unicode="&#x192;" horiz-adv-x="1226" 
d="M373 299l86 476h-257v44h264l29 157q43 252 169 371.5t314 119.5q116 0 177 -51t61 -134q0 -51 -34.5 -85.5t-83.5 -34.5q-51 0 -85 34t-34 84q0 42 24 72.5t63 39.5q-18 2 -28 2q-74 0 -116.5 -55.5t-67.5 -193.5l-59 -326h305v-44h-313l-56 -307q-43 -252 -170 -371.5
t-314 -119.5q-115 0 -176.5 51.5t-61.5 133.5q0 51 34.5 85.5t83.5 34.5q51 0 85.5 -34.5t34.5 -84.5q0 -42 -25.5 -73t-65.5 -39q15 -3 30 -3q74 0 117.5 56.5t69.5 194.5z" />
    <glyph glyph-name="Ohorn" unicode="&#x1a0;" horiz-adv-x="1714" 
d="M83 720q0 209 93.5 378.5t268.5 269t399 99.5q60 0 158 -11.5t142 -11.5q118 0 184.5 62.5t67.5 161.5q0 41 -11.5 79t-28.5 57h49q96 -32 153 -98t57 -143q-1 -89 -78 -136.5t-206 -47.5q-68 0 -143 15q191 -84 307 -260t116 -409q0 -156 -55 -293.5t-153 -238
t-241.5 -158.5t-311.5 -58q-160 0 -300.5 53.5t-243.5 149t-163 235.5t-60 305zM476 734q0 -204 45 -359.5t131.5 -242.5t202.5 -87q126 0 208.5 85.5t119 231t36.5 349.5t-45.5 359.5t-132 242t-201.5 86.5q-126 0 -208.5 -85t-119 -230.5t-36.5 -349.5z" />
    <glyph glyph-name="ohorn" unicode="&#x1a1;" horiz-adv-x="1354" 
d="M629 -20q-246 0 -402 140t-156 373q0 227 157.5 373.5t395.5 146.5q52 0 129 -9.5t111 -9.5q121 0 189.5 58.5t68.5 151.5q0 41 -11.5 79t-28.5 58h49q95 -33 150.5 -97.5t55.5 -139.5q-1 -81 -73.5 -127t-192.5 -46q-82 0 -165 20q130 -54 208 -172t78 -278
q0 -151 -73.5 -270.5t-201.5 -185t-288 -65.5zM636 46q102 0 154.5 116t52.5 327q0 215 -57 336.5t-159 121.5q-103 0 -155.5 -116t-52.5 -327q0 -215 57.5 -336.5t159.5 -121.5z" />
    <glyph glyph-name="Uhorn" unicode="&#x1af;" horiz-adv-x="1668" 
d="M167 547v710q0 70 -26.5 96t-115.5 42v49h652v-49q-98 -16 -126.5 -42t-28.5 -96v-705q0 -226 101 -338.5t277 -112.5q173 0 273.5 119.5t99.5 326.5l-7 665q0 102 -27 134t-127 48v50h75q130 0 201 63.5t71 160.5q0 41 -11 79t-28 57h48q93 -32 148 -96.5t55 -139.5
q0 -80 -63.5 -126t-172.5 -46q-43 0 -82 9l-7 -867q-2 -258 -152.5 -409.5t-418.5 -151.5q-128 0 -236 34t-192 101t-132 178.5t-48 256.5z" />
    <glyph glyph-name="uhorn" unicode="&#x1b0;" horiz-adv-x="1395" 
d="M466 1007v-687q0 -202 173 -202q57 0 100.5 25t66.5 67v583q0 49 -11.5 66t-55.5 32l-53 16v46l120 11q188 18 271.5 79t83.5 163q0 89 -39 134h49q98 -30 157 -94t59 -138q-1 -75 -56.5 -117t-141.5 -42q-22 0 -54 4v-756q0 -49 11.5 -66.5t55.5 -31.5l56 -17v-45
l-450 -49v184q-39 -88 -128 -140t-213 -52q-152 0 -241 81.5t-89 240.5v491q0 49 -12 66t-56 32l-52 16v46z" />
    <glyph glyph-name="uni01C4" unicode="&#x1c4;" horiz-adv-x="2914" 
d="M2542 1837h60l-209 -289h-185l-209 289h63l239 -135zM1538 746q0 -140 -45.5 -260.5t-126.5 -208.5t-191.5 -151t-243 -94.5t-278.5 -31.5h-600v49q84 16 109.5 41.5t25.5 93.5v1076q0 68 -25.5 93.5t-109.5 41.5v49h591q271 0 471 -79t311.5 -237.5t111.5 -381.5z
M2828 0h-1145v47l753 1340l-220 -8q-165 -7 -254 -39t-135.5 -97t-76.5 -192h-46l16 393h1110v-47l-754 -1340l238 9q125 5 201.5 22t134 59t89.5 107t57 174h46zM1146 723q1 193 -61 339.5t-184 232t-291 90.5l-67 2v-1330l67 2q251 8 393.5 185.5t142.5 478.5z" />
    <glyph glyph-name="uni01C5" unicode="&#x1c5;" horiz-adv-x="2580" 
d="M2367 1503h62l-229 -375h-181l-229 375h62l257 -184zM1538 746q0 -140 -45.5 -260.5t-126.5 -208.5t-191.5 -151t-243 -94.5t-278.5 -31.5h-600v49q84 16 109.5 41.5t25.5 93.5v1076q0 68 -25.5 93.5t-109.5 41.5v49h591q271 0 471 -79t311.5 -237.5t111.5 -381.5z
M1146 723q1 193 -61 339.5t-184 232t-291 90.5l-67 2v-1330l67 2q251 8 393.5 185.5t142.5 478.5zM1682 994h845v-45l-507 -894l163 6q144 8 207 69t94 224h47l-6 -354h-864v45l505 893l-137 -6q-147 -10 -209.5 -65t-98.5 -203h-46z" />
    <glyph glyph-name="uni01C6" unicode="&#x1c6;" horiz-adv-x="2251" 
d="M2037 1503h63l-230 -375h-180l-229 375h62l257 -184zM71 487q0 243 132.5 384.5t328.5 141.5q91 0 163 -34t104 -91v395q0 49 -11 66.5t-53 31.5l-52 17v46l445 51v-1298q0 -49 11.5 -66.5t53.5 -31.5l52 -17v-45l-443 -49v185q-37 -89 -124 -141t-201 -52
q-175 0 -290.5 136.5t-115.5 370.5zM1353 994h845v-45l-507 -894l163 6q144 8 207 69t94 224h47l-6 -354h-864v45l505 893l-137 -6q-147 -10 -210 -65t-98 -203h-46zM410 517q0 -187 62 -293t162 -106q116 0 165 95v616q-17 38 -60 63t-95 25q-106 0 -170 -105.5t-64 -294.5
z" />
    <glyph glyph-name="uni01C7" unicode="&#x1c7;" horiz-adv-x="1924" 
d="M1141 0h-1088v49q84 16 109.5 41.5t25.5 93.5v1076q0 68 -25 93.5t-110 41.5v49h636v-49q-91 -14 -118.5 -43t-27.5 -103v-1192l145 6q132 7 210 43.5t127.5 117t82.5 228.5h48zM1736 276q0 -133 -38 -236t-119 -182.5t-187 -139t-262 -119.5l-20 43q154 101 212.5 241.5
t58.5 413.5v963q0 68 -25 93.5t-110 41.5v49h625v-49q-84 -16 -109.5 -41.5t-25.5 -93.5v-984z" />
    <glyph glyph-name="uni01C8" unicode="&#x1c8;" horiz-adv-x="1810" 
d="M1489 1138q-70 0 -118.5 45.5t-48.5 112.5q0 68 48.5 113.5t118.5 45.5t119 -45.5t49 -113.5q0 -67 -49 -112.5t-119 -45.5zM1141 0h-1088v49q84 16 109.5 41.5t25.5 93.5v1076q0 68 -25 93.5t-110 41.5v49h636v-49q-91 -14 -118.5 -43t-27.5 -103v-1192l145 6
q132 7 210 43.5t127.5 117t82.5 228.5h48zM1674 1007v-785q0 -130 -19.5 -220t-72 -166t-126.5 -134.5t-200 -132.5l-73 -44l-27 40q112 101 150.5 218t38.5 354v656q0 49 -11 66.5t-53 31.5l-51 16v46z" />
    <glyph glyph-name="uni01C9" unicode="&#x1c9;" horiz-adv-x="1261" 
d="M490 1498v-1339q0 -55 21.5 -76t93.5 -34v-49h-559v49q72 13 93.5 34t21.5 76v1124q0 49 -11 66.5t-53 31.5l-51 17v46zM941 1138q-70 0 -119 45.5t-49 112.5q0 68 49 113.5t119 45.5t119 -45.5t49 -113.5q0 -67 -49 -112.5t-119 -45.5zM1125 1007v-785
q0 -130 -19.5 -220t-71.5 -166t-126.5 -134.5t-200.5 -132.5l-73 -44l-27 40q113 101 151.5 218t38.5 354v656q0 49 -11.5 66.5t-52.5 31.5l-51 16v46z" />
    <glyph glyph-name="uni01CA" unicode="&#x1ca;" horiz-adv-x="2204" 
d="M535 1444l700 -1100l-19 832q-3 124 -29 164.5t-117 53.5v50h380v-49q-86 -14 -111 -55t-27 -162l-15 -1178h-270l-790 1236l19 -968q2 -123 28.5 -164t116.5 -54v-50h-380v49q86 14 111 55t27 162l13 966q0 78 -27.5 112.5t-105.5 50.5v49h496zM2016 276
q0 -133 -38 -236t-119 -182.5t-187 -139t-262 -119.5l-20 43q154 101 212.5 241.5t58.5 413.5v963q0 68 -25 93.5t-109 41.5v49h624v-49q-84 -16 -109.5 -41.5t-25.5 -93.5v-984z" />
    <glyph glyph-name="uni01CB" unicode="&#x1cb;" horiz-adv-x="2089" 
d="M1770 1138q-70 0 -119 45.5t-49 112.5q0 68 49 113.5t119 45.5t119 -45.5t49 -113.5q0 -67 -49 -112.5t-119 -45.5zM535 1444l700 -1100l-19 832q-3 124 -29 164.5t-117 53.5v50h380v-49q-86 -14 -111 -55t-27 -162l-15 -1178h-270l-790 1236l19 -968q2 -123 28.5 -164
t116.5 -54v-50h-380v49q86 14 111 55t27 162l13 966q0 78 -27.5 112.5t-105.5 50.5v49h496zM1954 1007v-785q0 -130 -19.5 -220t-72 -166t-126.5 -134.5t-200 -132.5l-73 -44l-27 40q113 101 151 217.5t38 354.5v656q0 49 -11 66.5t-53 31.5l-51 16v46z" />
    <glyph glyph-name="uni01CC" unicode="&#x1cc;" horiz-adv-x="1939" 
d="M1619 1138q-70 0 -119 45.5t-49 112.5q0 68 49 113.5t119 45.5t119 -45.5t49 -113.5q0 -67 -49 -112.5t-119 -45.5zM488 1007v-186q38 88 128.5 140t215.5 52q157 0 248.5 -81t91.5 -238v-535q0 -55 21.5 -76t94.5 -34v-49h-544v49q63 11 81.5 31t18.5 73v522
q0 99 -46.5 150t-132.5 51q-60 0 -106 -25.5t-69 -68.5v-629q0 -53 18 -72.5t82 -31.5v-49h-544v49q72 13 93.5 34t21.5 76v634q0 49 -11 66.5t-53 31.5l-51 16v46zM1803 1007v-785q0 -130 -19.5 -220t-71.5 -166t-126.5 -134.5t-200.5 -132.5l-73 -44l-27 40
q113 101 151.5 218t38.5 354v656q0 49 -11.5 66.5t-52.5 31.5l-51 16v46z" />
    <glyph glyph-name="Acaron" unicode="&#x1cd;" horiz-adv-x="1441" 
d="M971 1837h60l-209 -289h-184l-210 289h63l239 -135zM1259 266q43 -120 80 -161.5t113 -55.5v-49h-672v49q97 14 117 58.5t-19 167.5l-74 220h-448l-65 -197q-30 -94 -30.5 -142.5t28.5 -72t100 -34.5v-49h-401v49q79 14 117 60t90 193l411 1145h234zM378 565h403
l-204 610z" />
    <glyph glyph-name="acaron" unicode="&#x1ce;" horiz-adv-x="1156" 
d="M793 1503h62l-229 -375h-181l-229 375h63l256 -184zM359 -20q-129 0 -210 67t-81 175q0 116 98.5 192t322.5 121l196 40v105q0 133 -61.5 193.5t-181.5 60.5q-82 0 -150 -31q48 -10 79.5 -48t31.5 -89q0 -60 -43 -101t-105 -41t-104.5 39.5t-42.5 99.5q0 106 122.5 178
t324.5 72q217 0 334 -83.5t117 -254.5v-479q0 -60 26 -89t70 -29q22 0 39 5v-46q-74 -52 -204 -52q-94 0 -163 43t-83 122q-29 -77 -119.5 -123.5t-212.5 -46.5zM391 273q0 -79 40.5 -123.5t104.5 -44.5q107 0 149 84v330l-70 -16q-121 -28 -172.5 -84t-51.5 -146z" />
    <glyph glyph-name="Icaron" unicode="&#x1cf;" horiz-adv-x="731" 
d="M620 1837h60l-209 -289h-184l-210 289h63l239 -135zM543 184q0 -68 25 -93.5t109 -41.5v-49h-624v49q85 16 110 41.5t25 93.5v1076q0 68 -25 93.5t-110 41.5v49h624v-49q-84 -16 -109 -41.5t-25 -93.5v-1076z" />
    <glyph glyph-name="icaron" unicode="&#x1d0;" horiz-adv-x="644" 
d="M538 1503h56l-206 -375h-163l-206 375h57l230 -184zM490 1007v-848q0 -55 21.5 -76t93.5 -34v-49h-559v49q72 13 93.5 34t21.5 76v634q0 49 -11 66.5t-53 31.5l-51 16v46z" />
    <glyph glyph-name="Ocaron" unicode="&#x1d1;" horiz-adv-x="1694" 
d="M1098 1837h60l-209 -289h-185l-209 289h62l240 -135zM83 720q0 209 93.5 378.5t268.5 269t399 99.5q160 0 300.5 -53t243.5 -148.5t163 -235.5t60 -305q0 -156 -55 -293.5t-153 -238t-241.5 -158.5t-311.5 -58q-160 0 -300.5 53.5t-243.5 149t-163 235.5t-60 305z
M476 734q0 -204 45 -359.5t131.5 -242.5t202.5 -87q126 0 208.5 85.5t119 231t36.5 349.5t-45.5 359.5t-132 242t-201.5 86.5q-126 0 -208.5 -85t-119 -230.5t-36.5 -349.5z" />
    <glyph glyph-name="ocaron" unicode="&#x1d2;" horiz-adv-x="1263" 
d="M888 1503h62l-229 -375h-180l-230 375h63l256 -184zM629 -20q-243 0 -400.5 140.5t-157.5 372.5q0 151 73.5 270t201.5 184.5t287 65.5q244 0 401.5 -140.5t157.5 -371.5q0 -151 -73.5 -270.5t-201.5 -185t-288 -65.5zM636 46q100 0 153.5 117t53.5 327q0 214 -58 335.5
t-158 121.5q-101 0 -154.5 -116.5t-53.5 -326.5q0 -214 58 -336t159 -122z" />
    <glyph glyph-name="Ucaron" unicode="&#x1d3;" horiz-adv-x="1505" 
d="M1091 1837h60l-209 -289h-185l-209 289h62l240 -135zM161 1265q0 66 -24 91t-102 39v49h616v-49q-84 -16 -109.5 -41.5t-25.5 -93.5v-700q0 -228 101 -343.5t273 -115.5q174 0 277 123t99 339l-10 613q-3 123 -29 163t-117 55v50h372v-50q-82 -13 -106 -53.5t-27 -161.5
l-10 -633q-4 -262 -152 -415.5t-419 -153.5q-102 0 -191.5 21t-166 66.5t-131.5 112t-86.5 163.5t-31.5 215v710z" />
    <glyph glyph-name="ucaron" unicode="&#x1d4;" horiz-adv-x="1292" 
d="M898 1503h62l-229 -375h-181l-229 375h63l256 -184zM469 1007v-687q0 -100 44.5 -151t129.5 -51q56 0 100 25t67 67v583q0 49 -11 66.5t-53 31.5l-52 16v46l445 54v-810q0 -49 11 -66.5t52 -32.5l51 -15v-46l-441 -49v184q-39 -88 -128.5 -140t-213.5 -52
q-152 0 -241 81.5t-89 240.5v491q0 49 -11 66.5t-52 31.5l-52 16v46z" />
    <glyph glyph-name="Udieresismacron" unicode="&#x1d5;" horiz-adv-x="1505" 
d="M535 1833v115h602v-115h-602zM679 1556h-10q-44 0 -74 25.5t-30 64.5t30 64.5t74 25.5h10q45 0 75 -25.5t30 -64.5t-30 -64.5t-75 -25.5zM1002 1556h-10q-45 0 -75 25.5t-30 64.5t30 64.5t75 25.5h10q44 0 74 -25.5t30 -64.5t-30 -64.5t-74 -25.5zM161 1265q0 66 -24 91
t-102 39v49h616v-49q-84 -16 -109.5 -41.5t-25.5 -93.5v-700q0 -228 101 -343.5t273 -115.5q174 0 277 123t99 339l-10 613q-3 123 -29 163t-117 55v50h372v-50q-82 -13 -106 -53.5t-27 -161.5l-10 -633q-4 -262 -152 -415.5t-419 -153.5q-102 0 -191.5 21t-166 66.5
t-131.5 112t-86.5 163.5t-31.5 215v710z" />
    <glyph glyph-name="udieresismacron" unicode="&#x1d6;" horiz-adv-x="1292" 
d="M347 1429v136h586v-136h-586zM476 1108h-10q-47 0 -79 30t-32 75q0 46 32 76.5t79 30.5h10q46 0 78.5 -30.5t32.5 -76.5q0 -45 -32.5 -75t-78.5 -30zM815 1108h-10q-46 0 -78 30t-32 75q0 46 32 76.5t78 30.5h10q47 0 79 -30.5t32 -76.5q0 -45 -32 -75t-79 -30zM469 1007
v-687q0 -100 44.5 -151t129.5 -51q56 0 100 25t67 67v583q0 49 -11 66.5t-53 31.5l-52 16v46l445 54v-810q0 -49 11 -66.5t52 -32.5l51 -15v-46l-441 -49v184q-39 -88 -128.5 -140t-213.5 -52q-152 0 -241 81.5t-89 240.5v491q0 49 -11 66.5t-52 31.5l-52 16v46z" />
    <glyph glyph-name="Udieresisacute" unicode="&#x1d7;" horiz-adv-x="1505" 
d="M1136 1859l-600 -85v42l600 191v-148zM679 1556h-10q-44 0 -74 25.5t-30 64.5t30 64.5t74 25.5h10q45 0 75 -25.5t30 -64.5t-30 -64.5t-75 -25.5zM1002 1556h-10q-45 0 -75 25.5t-30 64.5t30 64.5t75 25.5h10q44 0 74 -25.5t30 -64.5t-30 -64.5t-74 -25.5zM161 1265
q0 66 -24 91t-102 39v49h616v-49q-84 -16 -109.5 -41.5t-25.5 -93.5v-700q0 -228 101 -343.5t273 -115.5q174 0 277 123t99 339l-10 613q-3 123 -29 163t-117 55v50h372v-50q-82 -13 -106 -53.5t-27 -161.5l-10 -633q-4 -262 -152 -415.5t-419 -153.5q-102 0 -191.5 21
t-166 66.5t-131.5 112t-86.5 163.5t-31.5 215v710z" />
    <glyph glyph-name="udieresisacute" unicode="&#x1d8;" horiz-adv-x="1292" 
d="M933 1478l-585 -100v49l585 224v-173zM476 1108h-10q-47 0 -79 30t-32 75q0 46 32 76.5t79 30.5h10q46 0 78.5 -30.5t32.5 -76.5q0 -45 -32.5 -75t-78.5 -30zM815 1108h-10q-46 0 -78 30t-32 75q0 46 32 76.5t78 30.5h10q47 0 79 -30.5t32 -76.5q0 -45 -32 -75t-79 -30z
M469 1007v-687q0 -100 44.5 -151t129.5 -51q56 0 100 25t67 67v583q0 49 -11 66.5t-53 31.5l-52 16v46l445 54v-810q0 -49 11 -66.5t52 -32.5l51 -15v-46l-441 -49v184q-39 -88 -128.5 -140t-213.5 -52q-152 0 -241 81.5t-89 240.5v491q0 49 -11 66.5t-52 31.5l-52 16v46z
" />
    <glyph glyph-name="Udieresiscaron" unicode="&#x1d9;" horiz-adv-x="1505" 
d="M1136 1999v-41l-280 -176h-40l-280 176v41l300 -79zM679 1556h-10q-44 0 -74 25.5t-30 64.5t30 64.5t74 25.5h10q45 0 75 -25.5t30 -64.5t-30 -64.5t-75 -25.5zM1002 1556h-10q-45 0 -75 25.5t-30 64.5t30 64.5t75 25.5h10q44 0 74 -25.5t30 -64.5t-30 -64.5t-74 -25.5z
M161 1265q0 66 -24 91t-102 39v49h616v-49q-84 -16 -109.5 -41.5t-25.5 -93.5v-700q0 -228 101 -343.5t273 -115.5q174 0 277 123t99 339l-10 613q-3 123 -29 163t-117 55v50h372v-50q-82 -13 -106 -53.5t-27 -161.5l-10 -633q-4 -262 -152 -415.5t-419 -153.5
q-102 0 -191.5 21t-166 66.5t-131.5 112t-86.5 163.5t-31.5 215v710z" />
    <glyph glyph-name="udieresiscaron" unicode="&#x1da;" horiz-adv-x="1292" 
d="M933 1634v-51l-273 -215h-38l-274 215v51l293 -97zM476 1108h-10q-47 0 -79 30t-32 75q0 46 32 76.5t79 30.5h10q46 0 78.5 -30.5t32.5 -76.5q0 -45 -32.5 -75t-78.5 -30zM815 1108h-10q-46 0 -78 30t-32 75q0 46 32 76.5t78 30.5h10q47 0 79 -30.5t32 -76.5
q0 -45 -32 -75t-79 -30zM469 1007v-687q0 -100 44.5 -151t129.5 -51q56 0 100 25t67 67v583q0 49 -11 66.5t-53 31.5l-52 16v46l445 54v-810q0 -49 11 -66.5t52 -32.5l51 -15v-46l-441 -49v184q-39 -88 -128.5 -140t-213.5 -52q-152 0 -241 81.5t-89 240.5v491
q0 49 -11 66.5t-52 31.5l-52 16v46z" />
    <glyph glyph-name="Udieresisgrave" unicode="&#x1db;" horiz-adv-x="1505" 
d="M536 1859v148l600 -191v-42zM679 1556h-10q-44 0 -74 25.5t-30 64.5t30 64.5t74 25.5h10q45 0 75 -25.5t30 -64.5t-30 -64.5t-75 -25.5zM1002 1556h-10q-45 0 -75 25.5t-30 64.5t30 64.5t75 25.5h10q44 0 74 -25.5t30 -64.5t-30 -64.5t-74 -25.5zM161 1265q0 66 -24 91
t-102 39v49h616v-49q-84 -16 -109.5 -41.5t-25.5 -93.5v-700q0 -228 101 -343.5t273 -115.5q174 0 277 123t99 339l-10 613q-3 123 -29 163t-117 55v50h372v-50q-82 -13 -106 -53.5t-27 -161.5l-10 -633q-4 -262 -152 -415.5t-419 -153.5q-102 0 -191.5 21t-166 66.5
t-131.5 112t-86.5 163.5t-31.5 215v710z" />
    <glyph glyph-name="udieresisgrave" unicode="&#x1dc;" horiz-adv-x="1292" 
d="M348 1478v173l585 -224v-49zM476 1108h-10q-47 0 -79 30t-32 75q0 46 32 76.5t79 30.5h10q46 0 78.5 -30.5t32.5 -76.5q0 -45 -32.5 -75t-78.5 -30zM815 1108h-10q-46 0 -78 30t-32 75q0 46 32 76.5t78 30.5h10q47 0 79 -30.5t32 -76.5q0 -45 -32 -75t-79 -30zM469 1007
v-687q0 -100 44.5 -151t129.5 -51q56 0 100 25t67 67v583q0 49 -11 66.5t-53 31.5l-52 16v46l445 54v-810q0 -49 11 -66.5t52 -32.5l51 -15v-46l-441 -49v184q-39 -88 -128.5 -140t-213.5 -52q-152 0 -241 81.5t-89 240.5v491q0 49 -11 66.5t-52 31.5l-52 16v46z" />
    <glyph glyph-name="Adieresismacron" unicode="&#x1de;" horiz-adv-x="1441" 
d="M416 1833v115h601v-115h-601zM560 1556h-10q-44 0 -74.5 25.5t-30.5 64.5t30.5 64.5t74.5 25.5h10q45 0 75 -25.5t30 -64.5t-30 -64.5t-75 -25.5zM882 1556h-10q-44 0 -74.5 25.5t-30.5 64.5t30.5 64.5t74.5 25.5h10q44 0 74.5 -25.5t30.5 -64.5t-30.5 -64.5t-74.5 -25.5
zM1259 266q43 -120 80 -161.5t113 -55.5v-49h-672v49q97 14 117 58.5t-19 167.5l-74 220h-448l-65 -197q-30 -94 -30.5 -142.5t28.5 -72t100 -34.5v-49h-401v49q79 14 117 60t90 193l411 1145h234zM378 565h403l-204 610z" />
    <glyph glyph-name="adieresismacron" unicode="&#x1df;" horiz-adv-x="1156" 
d="M242 1429v136h586v-136h-586zM371 1108h-10q-47 0 -79 30t-32 75q0 46 32 76.5t79 30.5h10q46 0 78.5 -30.5t32.5 -76.5q0 -45 -32.5 -75t-78.5 -30zM710 1108h-10q-46 0 -78.5 30t-32.5 75q0 46 32.5 76.5t78.5 30.5h10q47 0 79 -30.5t32 -76.5q0 -45 -32 -75t-79 -30z
M359 -20q-129 0 -210 67t-81 175q0 116 98.5 192t322.5 121l196 40v105q0 133 -61.5 193.5t-181.5 60.5q-82 0 -150 -31q48 -10 79.5 -48t31.5 -89q0 -60 -43 -101t-105 -41t-104.5 39.5t-42.5 99.5q0 106 122.5 178t324.5 72q217 0 334 -83.5t117 -254.5v-479q0 -60 26 -89
t70 -29q22 0 39 5v-46q-74 -52 -204 -52q-94 0 -163 43t-83 122q-29 -77 -119.5 -123.5t-212.5 -46.5zM391 273q0 -79 40.5 -123.5t104.5 -44.5q107 0 149 84v330l-70 -16q-121 -28 -172.5 -84t-51.5 -146z" />
    <glyph glyph-name="Adotmacron" unicode="&#x1e0;" horiz-adv-x="1441" 
d="M416 1808v116h601v-116h-601zM716 1549q-48 0 -80 27.5t-32 69.5t32.5 69.5t79.5 27.5q48 0 80 -27.5t32 -69.5t-32 -69.5t-80 -27.5zM1259 266q43 -120 80 -161.5t113 -55.5v-49h-672v49q97 14 117 58.5t-19 167.5l-74 220h-448l-65 -197q-30 -94 -30.5 -142.5t28.5 -72
t100 -34.5v-49h-401v49q79 14 117 60t90 193l411 1145h234zM378 565h403l-204 610z" />
    <glyph glyph-name="adotmacron" unicode="&#x1e1;" horiz-adv-x="1156" 
d="M242 1417v136h586v-136h-586zM535 1104q-50 0 -83.5 32t-33.5 81q0 50 34 82.5t83 32.5q50 0 84 -32.5t34 -82.5q0 -49 -34 -81t-84 -32zM359 -20q-129 0 -210 67t-81 175q0 116 98.5 192t322.5 121l196 40v105q0 133 -61.5 193.5t-181.5 60.5q-82 0 -150 -31
q48 -10 79.5 -48t31.5 -89q0 -60 -43 -101t-105 -41t-104.5 39.5t-42.5 99.5q0 106 122.5 178t324.5 72q217 0 334 -83.5t117 -254.5v-479q0 -60 26 -89t70 -29q22 0 39 5v-46q-74 -52 -204 -52q-94 0 -163 43t-83 122q-29 -77 -119.5 -123.5t-212.5 -46.5zM391 273
q0 -79 40.5 -123.5t104.5 -44.5q107 0 149 84v330l-70 -16q-121 -28 -172.5 -84t-51.5 -146z" />
    <glyph glyph-name="AEmacron" unicode="&#x1e2;" horiz-adv-x="1920" 
d="M927 1588v142h565v-142h-565zM1806 1444l14 -392h-47q-30 125 -73 191t-119.5 98t-210.5 39l-150 7l5 -620l173 5q91 4 126.5 48t57.5 164h44l3 -490h-43q-12 61 -24 97t-33 62.5t-51.5 38t-78.5 13.5l-174 5l6 -653l177 9q105 6 170.5 23.5t113.5 60t76 107t51 171.5h47
l-14 -428h-1078v49q79 14 103 38.5t24 89.5l-5 442h-425l-142 -307q-46 -100 -52.5 -152.5t19.5 -76t94 -34.5v-49h-407v49q77 14 125 63.5t124 203.5l555 1128h1019zM828 1385l-324 -696h392l-7 696h-61z" />
    <glyph glyph-name="aemacron" unicode="&#x1e3;" horiz-adv-x="1663" 
d="M542 1198v167h626v-167h-626zM363 -20q-132 0 -214 65t-82 179q0 250 427 320l197 34v79q0 143 -67 212t-186 69q-83 0 -153 -32q48 -9 79.5 -45.5t31.5 -85.5q0 -59 -43 -98.5t-107 -39.5q-61 0 -101.5 38.5t-40.5 96.5q0 102 114 171.5t298 69.5q118 0 205.5 -32
t128.5 -94q54 59 137 92.5t178 33.5q200 0 316.5 -113.5t116.5 -300.5q0 -40 -5 -70h-613q19 -194 119.5 -302.5t252.5 -108.5q69 0 129 22.5t100 59.5v-49q-57 -77 -164.5 -124t-240.5 -47q-156 0 -282.5 79t-176.5 218q-13 -144 -109 -220.5t-245 -76.5zM976 613
q0 -5 0.5 -13.5t0.5 -12.5l331 3q1 18 1 67q0 138 -36.5 214t-111.5 76q-86 0 -135.5 -87t-49.5 -247zM524 110q73 0 120 57t47 175v180l-79 -16q-117 -24 -170.5 -81t-53.5 -148q0 -79 37 -123t99 -44z" />
    <glyph glyph-name="Gcaron" unicode="&#x1e6;" horiz-adv-x="1562" 
d="M1130 1837h60l-209 -289h-184l-210 289h63l239 -135zM83 722q0 143 41 264.5t114.5 209t174.5 149.5t222 92t255 30q158 0 277.5 -25t182.5 -67l10 -391h-47q-42 187 -147.5 301t-260.5 114q-201 0 -315 -180t-114 -483q0 -189 46.5 -343.5t142.5 -251t227 -96.5
q136 0 204 59v417q0 68 -25.5 92.5t-109.5 34.5v49h579v-49q-79 -10 -103.5 -35t-24.5 -92v-403q-89 -66 -234.5 -103.5t-303.5 -37.5q-232 0 -412 92.5t-279.5 262t-99.5 390.5z" />
    <glyph glyph-name="gcaron" unicode="&#x1e7;" horiz-adv-x="1170" 
d="M833 1503h62l-229 -375h-181l-229 375h63l256 -184zM82 684q0 147 135 238t343 91q133 0 246 -41l339 23v-92l-277 21q82 -29 129.5 -92.5t47.5 -143.5q0 -146 -136 -232t-342 -86q-51 0 -117 8q-110 -23 -110 -98q0 -89 171 -89h168q211 0 319.5 -80t108.5 -228
q0 -163 -156.5 -267t-389.5 -104q-238 0 -377 62.5t-140 166.5q0 83 92 133t285 59q-152 0 -244.5 58.5t-92.5 156.5q1 97 85 161.5t236 81.5q-144 22 -233.5 98.5t-89.5 194.5zM404 696q0 -122 43.5 -193.5t119.5 -71.5t117 68t41 188q0 121 -43.5 193t-119.5 72
q-77 0 -117.5 -68t-40.5 -188zM318 -239q0 -81 67 -132t181 -51q123 0 198.5 52t75.5 139q0 154 -211 154h-151q-77 -8 -118.5 -50.5t-41.5 -111.5z" />
    <glyph glyph-name="Kcaron" unicode="&#x1e8;" horiz-adv-x="1461" 
d="M1045 1837h60l-209 -289h-185l-209 289h62l240 -135zM543 177q0 -65 24 -89.5t102 -38.5v-49h-616v49q84 16 109.5 41.5t25.5 93.5v1076q0 68 -25.5 93.5t-109.5 41.5v49h616v-50q-78 -13 -102 -38t-24 -89v-498l102 1l364 432q84 100 79 139.5t-101 53.5v49h433v-49
q-88 -20 -159.5 -67.5t-184.5 -160.5l-186 -194l348 -640q89 -159 133.5 -213t94.5 -73v-47h-430l-390 707l-103 1v-531z" />
    <glyph glyph-name="kcaron" unicode="&#x1e9;" horiz-adv-x="1230" 
d="M569 1867h60l-209 -289h-184l-210 289h63l240 -136zM836 0l-262 479l-84 1v-327q0 -53 18 -72.5t82 -31.5v-49h-544v49q72 13 93.5 34t21.5 76v1124q0 49 -11 66.5t-53 31.5l-51 17v46l444 54v-959l82 2l229 241q68 67 60.5 106.5t-96.5 55.5v50h419v-50
q-84 -19 -148.5 -55.5t-169.5 -126.5l-55 -50l233 -426q68 -129 109 -176.5t88 -62.5v-47h-405z" />
    <glyph glyph-name="Oogonek" unicode="&#x1ea;" horiz-adv-x="1694" 
d="M83 720q0 209 93.5 378.5t268.5 269t399 99.5q160 0 300.5 -53t243.5 -148.5t163 -235.5t60 -305q0 -202 -88.5 -368.5t-253.5 -268t-378 -110.5q-25 -45 -25 -113q0 -80 41 -134.5t98 -54.5q49 0 76 32l1 -48q-22 -63 -82 -101t-138 -38q-91 0 -151 54t-60 139
q0 75 46 144t126 120q-208 6 -375.5 98t-266 260.5t-98.5 383.5zM476 734q0 -204 45 -359.5t131.5 -242.5t202.5 -87q125 0 208 85.5t119.5 231t36.5 349.5t-45.5 359.5t-132 242t-201.5 86.5q-126 0 -208.5 -85t-119 -230.5t-36.5 -349.5z" />
    <glyph glyph-name="oogonek" unicode="&#x1eb;" horiz-adv-x="1263" 
d="M653 -479q-87 0 -146.5 53t-59.5 137q0 145 165 269q-237 6 -389 146t-152 367q0 151 73.5 270t201.5 184.5t287 65.5q244 0 401.5 -140.5t157.5 -371.5q0 -217 -144.5 -360.5t-369.5 -158.5q-16 -42 -16 -89q0 -92 42 -158t99 -66q43 0 67 27v-48q-23 -56 -82 -91.5
t-135 -35.5zM636 46q100 0 153.5 117t53.5 327q0 214 -58 335.5t-158 121.5q-101 0 -154.5 -116.5t-53.5 -326.5q0 -214 58 -336t159 -122z" />
    <glyph glyph-name="Oogonekmacron" unicode="&#x1ec;" horiz-adv-x="1694" 
d="M561 1588v142h565v-142h-565zM83 720q0 209 93.5 378.5t268.5 269t399 99.5q160 0 300.5 -53t243.5 -148.5t163 -235.5t60 -305q0 -202 -88.5 -368.5t-253.5 -268t-378 -110.5q-25 -45 -25 -113q0 -80 41 -134.5t98 -54.5q49 0 76 32l1 -48q-22 -63 -82 -101t-138 -38
q-91 0 -151 54t-60 139q0 75 46 144t126 120q-208 6 -375.5 98t-266 260.5t-98.5 383.5zM476 734q0 -204 45 -359.5t131.5 -242.5t202.5 -87q125 0 208 85.5t119.5 231t36.5 349.5t-45.5 359.5t-132 242t-201.5 86.5q-126 0 -208.5 -85t-119 -230.5t-36.5 -349.5z" />
    <glyph glyph-name="oogonekmacron" unicode="&#x1ed;" horiz-adv-x="1263" 
d="M317 1198v167h627v-167h-627zM653 -479q-87 0 -146.5 53t-59.5 137q0 145 165 269q-237 6 -389 146t-152 367q0 151 73.5 270t201.5 184.5t287 65.5q244 0 401.5 -140.5t157.5 -371.5q0 -217 -144.5 -360.5t-369.5 -158.5q-16 -42 -16 -89q0 -92 42 -158t99 -66
q43 0 67 27v-48q-23 -56 -82 -91.5t-135 -35.5zM636 46q100 0 153.5 117t53.5 327q0 214 -58 335.5t-158 121.5q-101 0 -154.5 -116.5t-53.5 -326.5q0 -214 58 -336t159 -122z" />
    <glyph glyph-name="uni01F1" unicode="&#x1f1;" horiz-adv-x="2914" 
d="M1538 746q0 -140 -45.5 -260.5t-126.5 -208.5t-191.5 -151t-243 -94.5t-278.5 -31.5h-600v49q84 16 109.5 41.5t25.5 93.5v1076q0 68 -25.5 93.5t-109.5 41.5v49h591q271 0 471 -79t311.5 -237.5t111.5 -381.5zM2828 0h-1145v47l753 1340l-220 -8q-165 -7 -254 -39
t-135.5 -97t-76.5 -192h-46l16 393h1110v-47l-754 -1340l238 9q125 5 201.5 22t134 59t89.5 107t57 174h46zM1146 723q1 193 -61 339.5t-184 232t-291 90.5l-67 2v-1330l67 2q251 8 393.5 185.5t142.5 478.5z" />
    <glyph glyph-name="uni01F2" unicode="&#x1f2;" horiz-adv-x="2580" 
d="M1538 746q0 -140 -45.5 -260.5t-126.5 -208.5t-191.5 -151t-243 -94.5t-278.5 -31.5h-600v49q84 16 109.5 41.5t25.5 93.5v1076q0 68 -25.5 93.5t-109.5 41.5v49h591q271 0 471 -79t311.5 -237.5t111.5 -381.5zM1146 723q1 193 -61 339.5t-184 232t-291 90.5l-67 2v-1330
l67 2q251 8 393.5 185.5t142.5 478.5zM1682 994h845v-45l-507 -894l163 6q144 8 207 69t94 224h47l-6 -354h-864v45l505 893l-137 -6q-147 -10 -209.5 -65t-98.5 -203h-46z" />
    <glyph glyph-name="uni01F3" unicode="&#x1f3;" horiz-adv-x="2251" 
d="M71 487q0 243 132.5 384.5t328.5 141.5q91 0 163 -34t104 -91v395q0 49 -11 66.5t-53 31.5l-52 17v46l445 51v-1298q0 -49 11.5 -66.5t53.5 -31.5l52 -17v-45l-443 -49v185q-37 -89 -124 -141t-201 -52q-175 0 -290.5 136.5t-115.5 370.5zM1353 994h845v-45l-507 -894
l163 6q144 8 207 69t94 224h47l-6 -354h-864v45l505 893l-137 -6q-147 -10 -210 -65t-98 -203h-46zM410 517q0 -187 62 -293t162 -106q116 0 165 95v616q-17 38 -60 63t-95 25q-106 0 -170 -105.5t-64 -294.5z" />
    <glyph glyph-name="Gacute" unicode="&#x1f4;" horiz-adv-x="1562" 
d="M815 1529l-62 1l115 289h332v-6zM83 722q0 143 41 264.5t114.5 209t174.5 149.5t222 92t255 30q158 0 277.5 -25t182.5 -67l10 -391h-47q-42 187 -147.5 301t-260.5 114q-201 0 -315 -180t-114 -483q0 -189 46.5 -343.5t142.5 -251t227 -96.5q136 0 204 59v417
q0 68 -25.5 92.5t-109.5 34.5v49h579v-49q-79 -10 -103.5 -35t-24.5 -92v-403q-89 -66 -234.5 -103.5t-303.5 -37.5q-232 0 -412 92.5t-279.5 262t-99.5 390.5z" />
    <glyph glyph-name="gacute" unicode="&#x1f5;" horiz-adv-x="1170" 
d="M502 1102h-62l133 376h332v-7zM82 684q0 147 135 238t343 91q133 0 246 -41l339 23v-92l-277 21q82 -29 129.5 -92.5t47.5 -143.5q0 -146 -136 -232t-342 -86q-51 0 -117 8q-110 -23 -110 -98q0 -89 171 -89h168q211 0 319.5 -80t108.5 -228q0 -163 -156.5 -267
t-389.5 -104q-238 0 -377 62.5t-140 166.5q0 83 92 133t285 59q-152 0 -244.5 58.5t-92.5 156.5q1 97 85 161.5t236 81.5q-144 22 -233.5 98.5t-89.5 194.5zM404 696q0 -122 43.5 -193.5t119.5 -71.5t117 68t41 188q0 121 -43.5 193t-119.5 72q-77 0 -117.5 -68t-40.5 -188z
M318 -239q0 -81 67 -132t181 -51q123 0 198.5 52t75.5 139q0 154 -211 154h-151q-77 -8 -118.5 -50.5t-41.5 -111.5z" />
    <glyph glyph-name="Ngrave" unicode="&#x1f8;" horiz-adv-x="1473" 
d="M861 1529l-388 283v6h343l106 -289h-61zM535 1444l700 -1100l-19 832q-3 124 -29 164.5t-117 53.5v50h380v-49q-86 -14 -111 -55t-27 -162l-15 -1178h-270l-790 1236l19 -968q2 -123 28.5 -164t116.5 -54v-50h-380v49q86 14 111 55t27 162l13 966q0 78 -27.5 112.5
t-105.5 50.5v49h496z" />
    <glyph glyph-name="ngrave" unicode="&#x1f9;" horiz-adv-x="1323" 
d="M740 1102l-407 369v7h344l125 -376h-62zM488 1007v-186q38 88 128.5 140t215.5 52q157 0 248.5 -81t91.5 -238v-535q0 -55 21.5 -76t94.5 -34v-49h-544v49q63 11 81.5 31t18.5 73v522q0 99 -46.5 150t-132.5 51q-60 0 -106 -25.5t-69 -68.5v-629q0 -53 18 -72.5t82 -31.5
v-49h-544v49q72 13 93.5 34t21.5 76v634q0 49 -11 66.5t-53 31.5l-51 16v46z" />
    <glyph glyph-name="Aringacute" unicode="&#x1fa;" horiz-adv-x="1441" 
d="M1016 1842l-600 -84v41l600 191v-148zM744 1532h-56q-106 0 -171 26.5t-65 71.5q0 44 65 70.5t171 26.5h56q107 0 171.5 -26.5t64.5 -70.5q0 -45 -64.5 -71.5t-171.5 -26.5zM730 1568q32 0 50.5 16.5t18.5 45.5q0 28 -18.5 45t-50.5 17h-28q-32 0 -50.5 -17t-18.5 -45
q0 -29 18 -45.5t51 -16.5h28zM1259 266q43 -120 80 -161.5t113 -55.5v-49h-672v49q97 14 117 58.5t-19 167.5l-74 220h-448l-65 -197q-30 -94 -30.5 -142.5t28.5 -72t100 -34.5v-49h-401v49q79 14 117 60t90 193l411 1145h234zM378 565h403l-204 610z" />
    <glyph glyph-name="aringacute" unicode="&#x1fb;" horiz-adv-x="1156" 
d="M828 1480l-585 -99v49l585 224v-174zM565 1091h-59q-112 0 -180.5 35.5t-68.5 94.5t68.5 95t180.5 36h59q112 0 180 -36t68 -95t-68 -94.5t-180 -35.5zM549 1138q34 0 53.5 23t19.5 60q0 38 -19 60.5t-54 22.5h-28q-34 0 -53.5 -23t-19.5 -60t19.5 -60t53.5 -23h28z
M359 -20q-129 0 -210 67t-81 175q0 116 98.5 192t322.5 121l196 40v105q0 133 -61.5 193.5t-181.5 60.5q-82 0 -150 -31q48 -10 79.5 -48t31.5 -89q0 -60 -43 -101t-105 -41t-104.5 39.5t-42.5 99.5q0 106 122.5 178t324.5 72q217 0 334 -83.5t117 -254.5v-479q0 -60 26 -89
t70 -29q22 0 39 5v-46q-74 -52 -204 -52q-94 0 -163 43t-83 122q-29 -77 -119.5 -123.5t-212.5 -46.5zM391 273q0 -79 40.5 -123.5t104.5 -44.5q107 0 149 84v330l-70 -16q-121 -28 -172.5 -84t-51.5 -146z" />
    <glyph glyph-name="AEacute" unicode="&#x1fc;" horiz-adv-x="1920" 
d="M1149 1529l-62 1l115 289h332v-6zM1806 1444l14 -392h-47q-30 125 -73 191t-119.5 98t-210.5 39l-150 7l5 -620l173 5q91 4 126.5 48t57.5 164h44l3 -490h-43q-12 61 -24 97t-33 62.5t-51.5 38t-78.5 13.5l-174 5l6 -653l177 9q105 6 170.5 23.5t113.5 60t76 107
t51 171.5h47l-14 -428h-1078v49q79 14 103 38.5t24 89.5l-5 442h-425l-142 -307q-46 -100 -52.5 -152.5t19.5 -76t94 -34.5v-49h-407v49q77 14 125 63.5t124 203.5l555 1128h1019zM828 1385l-324 -696h392l-7 696h-61z" />
    <glyph glyph-name="aeacute" unicode="&#x1fd;" horiz-adv-x="1663" 
d="M782 1102h-62l133 376h332v-7zM363 -20q-132 0 -214 65t-82 179q0 250 427 320l197 34v79q0 143 -67 212t-186 69q-83 0 -153 -32q48 -9 79.5 -45.5t31.5 -85.5q0 -59 -43 -98.5t-107 -39.5q-61 0 -101.5 38.5t-40.5 96.5q0 102 114 171.5t298 69.5q118 0 205.5 -32
t128.5 -94q54 59 137 92.5t178 33.5q200 0 316.5 -113.5t116.5 -300.5q0 -40 -5 -70h-613q19 -194 119.5 -302.5t252.5 -108.5q69 0 129 22.5t100 59.5v-49q-57 -77 -164.5 -124t-240.5 -47q-156 0 -282.5 79t-176.5 218q-13 -144 -109 -220.5t-245 -76.5zM976 613
q0 -5 0.5 -13.5t0.5 -12.5l331 3q1 18 1 67q0 138 -36.5 214t-111.5 76q-86 0 -135.5 -87t-49.5 -247zM524 110q73 0 120 57t47 175v180l-79 -16q-117 -24 -170.5 -81t-53.5 -148q0 -79 37 -123t99 -44z" />
    <glyph glyph-name="Oslashacute" unicode="&#x1fe;" horiz-adv-x="1694" 
d="M783 1529l-62 1l115 289h332v-6zM83 720q0 209 93.5 378.5t268.5 269t399 99.5q290 0 497 -162l133 143l45 -44l-129 -140q221 -210 221 -539q0 -156 -55 -293.5t-153 -238t-241.5 -158.5t-311.5 -58q-291 0 -497 163l-132 -144l-46 44l130 141q-106 99 -164 236.5
t-58 302.5zM476 734q0 -182 37 -328l648 703q-48 138 -130.5 214t-190.5 76q-126 0 -208.5 -85t-119 -230.5t-36.5 -349.5zM1219 711q0 181 -37 327l-648 -702q48 -138 130.5 -214.5t190.5 -76.5q125 0 208 85.5t119.5 231t36.5 349.5z" />
    <glyph glyph-name="oslashacute" unicode="&#x1ff;" horiz-adv-x="1254" 
d="M555 1101h-62l133 376h332v-7zM625 -20q-207 0 -355 106l-94 -95l-42 42l90 92q-153 140 -153 367q0 228 158.5 373t399.5 145q211 0 359 -108l98 101l43 -43l-95 -97q149 -141 149 -364q0 -150 -73 -269t-200 -184.5t-285 -65.5zM411 504q0 -98 12 -176l395 402
q-26 104 -76.5 160.5t-118.5 56.5q-102 0 -157 -117t-55 -326zM631 45q102 0 157.5 117.5t55.5 325.5q0 94 -12 170l-394 -401q26 -102 76 -157t117 -55z" />
    <glyph glyph-name="Adblgrave" unicode="&#x200;" horiz-adv-x="1441" 
d="M551 1818l110 -289h-68l-338 283v6h296zM917 1818l26 -289h-64l-231 283v6h269zM1259 266q43 -120 80 -161.5t113 -55.5v-49h-672v49q97 14 117 58.5t-19 167.5l-74 220h-448l-65 -197q-30 -94 -30.5 -142.5t28.5 -72t100 -34.5v-49h-401v49q79 14 117 60t90 193
l411 1145h234zM378 565h403l-204 610z" />
    <glyph glyph-name="adblgrave" unicode="&#x201;" horiz-adv-x="1156" 
d="M320 1478l129 -376h-67l-359 369v7h297zM711 1478l44 -376h-65l-252 369v7h273zM359 -20q-129 0 -210 67t-81 175q0 116 98.5 192t322.5 121l196 40v105q0 133 -61.5 193.5t-181.5 60.5q-82 0 -150 -31q48 -10 79.5 -48t31.5 -89q0 -60 -43 -101t-105 -41t-104.5 39.5
t-42.5 99.5q0 106 122.5 178t324.5 72q217 0 334 -83.5t117 -254.5v-479q0 -60 26 -89t70 -29q22 0 39 5v-46q-74 -52 -204 -52q-94 0 -163 43t-83 122q-29 -77 -119.5 -123.5t-212.5 -46.5zM391 273q0 -79 40.5 -123.5t104.5 -44.5q107 0 149 84v330l-70 -16
q-121 -28 -172.5 -84t-51.5 -146z" />
    <glyph glyph-name="Ainvertedbreve" unicode="&#x202;" horiz-adv-x="1441" 
d="M716 1885q134 0 209 -79t75 -186q0 -32 -4 -53h-54v3q0 68 -64 111.5t-162 43.5t-162 -43t-64 -112v-3h-54q-4 21 -4 53q0 108 75 186.5t209 78.5zM1259 266q43 -120 80 -161.5t113 -55.5v-49h-672v49q97 14 117 58.5t-19 167.5l-74 220h-448l-65 -197
q-30 -94 -30.5 -142.5t28.5 -72t100 -34.5v-49h-401v49q79 14 117 60t90 193l411 1145h234zM378 565h403l-204 610z" />
    <glyph glyph-name="ainvertedbreve" unicode="&#x203;" horiz-adv-x="1156" 
d="M535 1472q150 0 233 -90.5t83 -213.5q0 -38 -5 -60h-57v3q0 77 -72 125.5t-182 48.5t-181.5 -48.5t-71.5 -125.5v-3h-57q-5 22 -5 60q0 58 20 111.5t57.5 97t99 69.5t138.5 26zM359 -20q-129 0 -210 67t-81 175q0 116 98.5 192t322.5 121l196 40v105q0 133 -61.5 193.5
t-181.5 60.5q-82 0 -150 -31q48 -10 79.5 -48t31.5 -89q0 -60 -43 -101t-105 -41t-104.5 39.5t-42.5 99.5q0 106 122.5 178t324.5 72q217 0 334 -83.5t117 -254.5v-479q0 -60 26 -89t70 -29q22 0 39 5v-46q-74 -52 -204 -52q-94 0 -163 43t-83 122q-29 -77 -119.5 -123.5
t-212.5 -46.5zM391 273q0 -79 40.5 -123.5t104.5 -44.5q107 0 149 84v330l-70 -16q-121 -28 -172.5 -84t-51.5 -146z" />
    <glyph glyph-name="Edblgrave" unicode="&#x204;" horiz-adv-x="1282" 
d="M516 1818l111 -289h-69l-337 283v6h295zM883 1818l25 -289h-64l-230 283v6h269zM1167 1444l14 -393h-47q-22 94 -50.5 152.5t-77.5 97.5t-117 56.5t-174 22.5l-172 7v-620l201 5q93 4 130 48t61 164h43v-490h-43q-23 119 -60.5 163t-130.5 48l-201 5v-653l204 9
q110 5 179.5 22.5t120.5 60t80.5 107.5t53.5 172h47l-14 -428h-1161v49q84 16 109.5 41.5t25.5 93.5v1076q0 68 -25.5 93.5t-109.5 41.5v49h1114z" />
    <glyph glyph-name="edblgrave" unicode="&#x205;" horiz-adv-x="1098" 
d="M376 1478l129 -376h-67l-360 369v7h298zM767 1478l43 -376h-64l-252 369v7h273zM71 495q0 229 143 373.5t376 144.5q205 0 324 -115t119 -304q0 -26 -5 -69h-623q19 -192 121 -299.5t256 -107.5q71 0 132 24t100 64l1 -49q-55 -83 -163.5 -130t-247.5 -47
q-149 0 -269.5 61.5t-192 180t-71.5 273.5zM400 611q0 -19 1 -29l342 4q1 19 1 69q0 138 -38.5 215t-115.5 77q-91 0 -140.5 -87.5t-49.5 -248.5z" />
    <glyph glyph-name="Einvertedbreve" unicode="&#x206;" horiz-adv-x="1282" 
d="M681 1885q134 0 209.5 -79t75.5 -186q0 -21 -4 -53h-54v3q0 68 -64.5 111.5t-162.5 43.5t-161.5 -43t-63.5 -112v-3h-55q-3 24 -3 53q0 107 74.5 186t208.5 79zM1167 1444l14 -393h-47q-22 94 -50.5 152.5t-77.5 97.5t-117 56.5t-174 22.5l-172 7v-620l201 5q93 4 130 48
t61 164h43v-490h-43q-23 119 -60.5 163t-130.5 48l-201 5v-653l204 9q110 5 179.5 22.5t120.5 60t80.5 107.5t53.5 172h47l-14 -428h-1161v49q84 16 109.5 41.5t25.5 93.5v1076q0 68 -25.5 93.5t-109.5 41.5v49h1114z" />
    <glyph glyph-name="einvertedbreve" unicode="&#x207;" horiz-adv-x="1098" 
d="M591 1472q150 0 233 -90.5t83 -213.5q0 -30 -5 -60h-57v3q0 77 -72 125.5t-182 48.5q-111 0 -182.5 -48.5t-71.5 -125.5v-3h-56q-5 22 -5 60q0 58 20 111.5t57.5 97t99 69.5t138.5 26zM71 495q0 229 143 373.5t376 144.5q205 0 324 -115t119 -304q0 -26 -5 -69h-623
q19 -192 121 -299.5t256 -107.5q71 0 132 24t100 64l1 -49q-55 -83 -163.5 -130t-247.5 -47q-149 0 -269.5 61.5t-192 180t-71.5 273.5zM400 611q0 -19 1 -29l342 4q1 19 1 69q0 138 -38.5 215t-115.5 77q-91 0 -140.5 -87.5t-49.5 -248.5z" />
    <glyph glyph-name="Idblgrave" unicode="&#x208;" horiz-adv-x="731" 
d="M200 1818l110 -289h-68l-338 283v6h296zM566 1818l26 -289h-64l-231 283v6h269zM543 184q0 -68 25 -93.5t109 -41.5v-49h-624v49q85 16 110 41.5t25 93.5v1076q0 68 -25 93.5t-110 41.5v49h624v-49q-84 -16 -109 -41.5t-25 -93.5v-1076z" />
    <glyph glyph-name="idblgrave" unicode="&#x209;" horiz-adv-x="644" 
d="M91 1478l130 -376h-68l-359 369v7h297zM482 1478l44 -376h-65l-251 369v7h272zM490 1007v-848q0 -55 21.5 -76t93.5 -34v-49h-559v49q72 13 93.5 34t21.5 76v634q0 49 -11 66.5t-53 31.5l-51 16v46z" />
    <glyph glyph-name="Iinvertedbreve" unicode="&#x20a;" horiz-adv-x="731" 
d="M365 1885q134 0 209 -79t75 -186q0 -32 -4 -53h-54v3q0 68 -64 111.5t-162 43.5t-162 -43t-64 -112v-3h-54q-4 32 -4 53q0 108 75 186.5t209 78.5zM543 184q0 -68 25 -93.5t109 -41.5v-49h-624v49q85 16 110 41.5t25 93.5v1076q0 68 -25 93.5t-110 41.5v49h624v-49
q-84 -16 -109 -41.5t-25 -93.5v-1076z" />
    <glyph glyph-name="iinvertedbreve" unicode="&#x20b;" horiz-adv-x="644" 
d="M307 1472q91 0 157.5 -45.5t96.5 -112.5t30 -146q0 -30 -5 -60h-51v3q0 77 -65 125.5t-163 48.5q-100 0 -164.5 -48.5t-64.5 -125.5v-3h-51q-4 24 -4 60q0 79 30 146t96 112.5t158 45.5zM490 1007v-848q0 -55 21.5 -76t93.5 -34v-49h-559v49q72 13 93.5 34t21.5 76v634
q0 49 -11 66.5t-53 31.5l-51 16v46z" />
    <glyph glyph-name="Odblgrave" unicode="&#x20c;" horiz-adv-x="1694" 
d="M678 1818l110 -289h-68l-338 283v6h296zM1044 1818l26 -289h-64l-231 283v6h269zM83 720q0 209 93.5 378.5t268.5 269t399 99.5q160 0 300.5 -53t243.5 -148.5t163 -235.5t60 -305q0 -156 -55 -293.5t-153 -238t-241.5 -158.5t-311.5 -58q-160 0 -300.5 53.5t-243.5 149
t-163 235.5t-60 305zM476 734q0 -204 45 -359.5t131.5 -242.5t202.5 -87q126 0 208.5 85.5t119 231t36.5 349.5t-45.5 359.5t-132 242t-201.5 86.5q-126 0 -208.5 -85t-119 -230.5t-36.5 -349.5z" />
    <glyph glyph-name="odblgrave" unicode="&#x20d;" horiz-adv-x="1263" 
d="M416 1478l129 -376h-68l-359 369v7h298zM806 1478l44 -376h-65l-251 369v7h272zM629 -20q-243 0 -400.5 140.5t-157.5 372.5q0 151 73.5 270t201.5 184.5t287 65.5q244 0 401.5 -140.5t157.5 -371.5q0 -151 -73.5 -270.5t-201.5 -185t-288 -65.5zM636 46q100 0 153.5 117
t53.5 327q0 214 -58 335.5t-158 121.5q-101 0 -154.5 -116.5t-53.5 -326.5q0 -214 58 -336t159 -122z" />
    <glyph glyph-name="Oinvertedbreve" unicode="&#x20e;" horiz-adv-x="1694" 
d="M843 1885q134 0 209 -79t75 -186q0 -21 -4 -53h-54v3q0 68 -64 111.5t-162 43.5q-99 0 -162.5 -43t-63.5 -112v-3h-54q-4 21 -4 53q0 108 75 186.5t209 78.5zM83 720q0 209 93.5 378.5t268.5 269t399 99.5q160 0 300.5 -53t243.5 -148.5t163 -235.5t60 -305
q0 -156 -55 -293.5t-153 -238t-241.5 -158.5t-311.5 -58q-160 0 -300.5 53.5t-243.5 149t-163 235.5t-60 305zM476 734q0 -204 45 -359.5t131.5 -242.5t202.5 -87q126 0 208.5 85.5t119 231t36.5 349.5t-45.5 359.5t-132 242t-201.5 86.5q-126 0 -208.5 -85t-119 -230.5
t-36.5 -349.5z" />
    <glyph glyph-name="oinvertedbreve" unicode="&#x20f;" horiz-adv-x="1263" 
d="M631 1472q77 0 138.5 -26t99 -69.5t57.5 -97t20 -111.5q0 -36 -4 -60h-57v3q0 77 -72 125.5t-182 48.5q-111 0 -182.5 -48.5t-71.5 -125.5v-3h-57q-5 30 -5 60q0 123 83 213.5t233 90.5zM629 -20q-243 0 -400.5 140.5t-157.5 372.5q0 151 73.5 270t201.5 184.5t287 65.5
q244 0 401.5 -140.5t157.5 -371.5q0 -151 -73.5 -270.5t-201.5 -185t-288 -65.5zM636 46q100 0 153.5 117t53.5 327q0 214 -58 335.5t-158 121.5q-101 0 -154.5 -116.5t-53.5 -326.5q0 -214 58 -336t159 -122z" />
    <glyph glyph-name="Rdblgrave" unicode="&#x210;" horiz-adv-x="1437" 
d="M520 1818l110 -289h-68l-338 283v6h296zM886 1818l26 -289h-64l-231 283v6h269zM1308 1056q1 -123 -75 -210.5t-207 -123.5l202 -422q69 -138 108.5 -187.5t83.5 -65.5v-47h-411l-311 655h-155v-478q0 -64 24 -88.5t102 -39.5v-49h-616v49q84 16 109.5 42t25.5 93v1076
q0 69 -25.5 94.5t-109.5 40.5v49h640q305 0 459.5 -103t155.5 -285zM954 1037q0 153 -84 246.5t-252 101.5l-75 2v-676l90 4q147 6 234 90t87 232z" />
    <glyph glyph-name="rdblgrave" unicode="&#x211;" horiz-adv-x="936" 
d="M306 1478l130 -376h-68l-359 369v7h297zM697 1478l44 -376h-65l-251 369v7h272zM488 1007l-1 -282q72 149 138.5 216.5t142.5 67.5q65 0 99 -45.5t34 -116.5q0 -63 -23 -109q-53 20 -144 20q-75 0 -143 -18.5t-101 -48.5v-524q0 -60 23.5 -82.5t104.5 -35.5v-49h-572v49
q72 12 93.5 33t21.5 75v636q0 49 -11.5 66.5t-52.5 31.5l-51 16v46z" />
    <glyph glyph-name="Rinvertedbreve" unicode="&#x212;" horiz-adv-x="1437" 
d="M685 1885q134 0 209 -79t75 -186q0 -32 -4 -53h-54v3q0 68 -64 111.5t-162 43.5t-162 -43t-64 -112v-3h-54q-4 32 -4 53q0 108 75 186.5t209 78.5zM1308 1056q1 -123 -75 -210.5t-207 -123.5l202 -422q69 -138 108.5 -187.5t83.5 -65.5v-47h-411l-311 655h-155v-478
q0 -64 24 -88.5t102 -39.5v-49h-616v49q84 16 109.5 42t25.5 93v1076q0 69 -25.5 94.5t-109.5 40.5v49h640q305 0 459.5 -103t155.5 -285zM954 1037q0 153 -84 246.5t-252 101.5l-75 2v-676l90 4q147 6 234 90t87 232z" />
    <glyph glyph-name="rinvertedbreve" unicode="&#x213;" horiz-adv-x="936" 
d="M522 1472q77 0 138.5 -26t99 -69.5t57.5 -97t20 -111.5q0 -36 -4 -60h-57v3q0 77 -72 125.5t-182 48.5q-111 0 -182.5 -48.5t-71.5 -125.5v-3h-57q-5 30 -5 60q0 123 83 213.5t233 90.5zM488 1007l-1 -282q72 149 138.5 216.5t142.5 67.5q65 0 99 -45.5t34 -116.5
q0 -63 -23 -109q-53 20 -144 20q-75 0 -143 -18.5t-101 -48.5v-524q0 -60 23.5 -82.5t104.5 -35.5v-49h-572v49q72 12 93.5 33t21.5 75v636q0 49 -11.5 66.5t-52.5 31.5l-51 16v46z" />
    <glyph glyph-name="Udblgrave" unicode="&#x214;" horiz-adv-x="1505" 
d="M670 1818l110 -289h-68l-337 283v6h295zM1037 1818l25 -289h-64l-230 283v6h269zM161 1265q0 66 -24 91t-102 39v49h616v-49q-84 -16 -109.5 -41.5t-25.5 -93.5v-700q0 -228 101 -343.5t273 -115.5q174 0 277 123t99 339l-10 613q-3 123 -29 163t-117 55v50h372v-50
q-82 -13 -106 -53.5t-27 -161.5l-10 -633q-4 -262 -152 -415.5t-419 -153.5q-102 0 -191.5 21t-166 66.5t-131.5 112t-86.5 163.5t-31.5 215v710z" />
    <glyph glyph-name="udblgrave" unicode="&#x215;" horiz-adv-x="1292" 
d="M425 1478l130 -376h-68l-359 369v7h297zM816 1478l44 -376h-65l-251 369v7h272zM469 1007v-687q0 -100 44.5 -151t129.5 -51q56 0 100 25t67 67v583q0 49 -11 66.5t-53 31.5l-52 16v46l445 54v-810q0 -49 11 -66.5t52 -32.5l51 -15v-46l-441 -49v184q-39 -88 -128.5 -140
t-213.5 -52q-152 0 -241 81.5t-89 240.5v491q0 49 -11 66.5t-52 31.5l-52 16v46z" />
    <glyph glyph-name="Uinvertedbreve" unicode="&#x216;" horiz-adv-x="1505" 
d="M835 1885q134 0 209.5 -79t75.5 -186q0 -21 -4 -53h-54v3q0 68 -64.5 111.5t-162.5 43.5t-161.5 -43t-63.5 -112v-3h-55q-4 32 -4 53q0 107 75 186t209 79zM161 1265q0 66 -24 91t-102 39v49h616v-49q-84 -16 -109.5 -41.5t-25.5 -93.5v-700q0 -228 101 -343.5
t273 -115.5q174 0 277 123t99 339l-10 613q-3 123 -29 163t-117 55v50h372v-50q-82 -13 -106 -53.5t-27 -161.5l-10 -633q-4 -262 -152 -415.5t-419 -153.5q-102 0 -191.5 21t-166 66.5t-131.5 112t-86.5 163.5t-31.5 215v710z" />
    <glyph glyph-name="uinvertedbreve" unicode="&#x217;" horiz-adv-x="1292" 
d="M641 1472q77 0 138.5 -26t99 -69.5t57.5 -97t20 -111.5q0 -38 -5 -60h-57v3q0 77 -71.5 125.5t-181.5 48.5q-111 0 -182.5 -48.5t-71.5 -125.5v-3h-57q-5 22 -5 60q0 123 83 213.5t233 90.5zM469 1007v-687q0 -100 44.5 -151t129.5 -51q56 0 100 25t67 67v583
q0 49 -11 66.5t-53 31.5l-52 16v46l445 54v-810q0 -49 11 -66.5t52 -32.5l51 -15v-46l-441 -49v184q-39 -88 -128.5 -140t-213.5 -52q-152 0 -241 81.5t-89 240.5v491q0 49 -11 66.5t-52 31.5l-52 16v46z" />
    <glyph glyph-name="Scommaaccent" unicode="&#x218;" horiz-adv-x="1250" 
d="M590 -23q-149 0 -275.5 27t-205.5 72l-14 392h47q41 -197 163 -310t279 -113q122 0 196 65.5t74 171.5q0 96 -60.5 160.5t-193.5 110.5l-126 42q-385 130 -385 440q0 202 157 317t419 115q136 0 243.5 -24.5t166.5 -64.5l9 -349h-47q-39 172 -135.5 271t-233.5 99
q-125 0 -194 -59.5t-69 -156.5q0 -92 61.5 -152t191.5 -105l125 -43q387 -130 387 -454q0 -139 -77.5 -243t-208 -156.5t-294.5 -52.5zM602 -458q-71 0 -129 25t-86 66l1 44q51 -42 134 -42q47 0 75 18.5t28 51.5t-28.5 51.5t-73.5 18.5q-43 1 -76 -14v43q24 39 72.5 64.5
t113.5 25.5q92 0 151 -47t59 -127q0 -81 -67 -129.5t-174 -48.5z" />
    <glyph glyph-name="scommaaccent" unicode="&#x219;" horiz-adv-x="977" 
d="M76 691q0 150 123 235.5t337 85.5q102 0 185.5 -17t128.5 -41l4 -263h-47q-29 122 -98.5 189t-168.5 67q-85 0 -132 -36.5t-47 -97.5q0 -55 41 -90t130 -64l83 -26q148 -48 221.5 -126.5t73.5 -201.5q0 -100 -61 -174.5t-165.5 -112t-237.5 -37.5q-106 0 -205.5 22
t-157.5 57l-10 284h47q30 -134 119.5 -215.5t200.5 -81.5q85 0 135 38.5t50 100.5q0 58 -39.5 96t-126.5 67l-83 26q-146 48 -223 123t-77 193zM456 -458q-71 0 -129 25t-86 66v44q53 -42 134 -42q48 0 76 18.5t28 51.5t-28.5 51.5t-73.5 18.5q-42 1 -77 -14v43
q24 39 73 64.5t114 25.5q91 0 150 -47t59 -127q0 -81 -66.5 -129.5t-173.5 -48.5z" />
    <glyph glyph-name="Tcommaaccent" unicode="&#x21a;" horiz-adv-x="1353" 
d="M1300 1444l14 -393h-47q-38 178 -115 246.5t-253 85.5l-45 4v-1188q0 -77 27.5 -107t118.5 -43v-49h-646v49q90 13 117.5 43.5t27.5 106.5v1188l-45 -4q-120 -11 -189 -43t-111 -99.5t-68 -189.5h-47l13 393h1248zM667 -458q-71 0 -129 25t-86 66v44q52 -42 134 -42
q48 0 75.5 18.5t27.5 51.5t-28 51.5t-73 18.5q-42 1 -77 -14v43q24 39 73 64.5t113 25.5q92 0 151 -47t59 -127q0 -81 -66.5 -129.5t-173.5 -48.5z" />
    <glyph glyph-name="tcommaaccent" unicode="&#x21b;" horiz-adv-x="740" 
d="M151 291v611h-113v43l402 294h38v-260l240 15v-92l-240 15v-627q0 -183 139 -183q70 0 113 40v-50q-33 -48 -111.5 -82.5t-168.5 -34.5q-135 0 -217 76.5t-82 234.5zM443 -458q-71 0 -129 25t-86 66v44q52 -42 134 -42q48 0 76 18.5t28 51.5t-28.5 51.5t-73.5 18.5
q-43 1 -76 -14v43q23 39 72 64.5t114 25.5q91 0 150 -47t59 -127q0 -81 -66.5 -129.5t-173.5 -48.5z" />
    <glyph glyph-name="Hcaron" unicode="&#x21e;" horiz-adv-x="1660" 
d="M1085 1837h60l-209 -289h-185l-209 289h62l240 -136zM543 177q0 -65 24 -89.5t102 -38.5v-49h-616v49q84 16 109.5 41.5t25.5 93.5v1076q0 68 -25 93.5t-110 41.5v49h616v-50q-78 -13 -102 -38t-24 -89v-497h574v497q0 65 -24 89.5t-102 38.5v49h616v-49
q-84 -15 -109.5 -40.5t-25.5 -94.5v-1076q0 -68 25.5 -94t109.5 -41v-49h-616v49q78 14 102 38.5t24 89.5v530h-574v-530z" />
    <glyph glyph-name="hcaron" unicode="&#x21f;" horiz-adv-x="1323" 
d="M558 1874h60l-209 -289h-185l-209 289h62l240 -135zM490 1498l-2 -675q40 87 130 138.5t214 51.5q157 0 248.5 -81t91.5 -238v-535q0 -55 21.5 -76t94.5 -34v-49h-544v49q63 11 81.5 31t18.5 73v522q0 99 -46.5 150t-132.5 51q-60 0 -106 -25.5t-69 -68.5v-629
q0 -53 18 -72.5t82 -31.5v-49h-544v49q72 13 93.5 34t21.5 76v1124q0 49 -11 66.5t-53 31.5l-51 17v46z" />
    <glyph glyph-name="Adotaccent" unicode="&#x226;" horiz-adv-x="1441" 
d="M716 1546q-57 0 -96.5 37t-39.5 91q0 55 39.5 91.5t96.5 36.5t96.5 -36.5t39.5 -91.5q0 -54 -39.5 -91t-96.5 -37zM1259 266q43 -120 80 -161.5t113 -55.5v-49h-672v49q97 14 117 58.5t-19 167.5l-74 220h-448l-65 -197q-30 -94 -30.5 -142.5t28.5 -72t100 -34.5v-49
h-401v49q79 14 117 60t90 193l411 1145h234zM378 565h403l-204 610z" />
    <glyph glyph-name="adotaccent" unicode="&#x227;" horiz-adv-x="1156" 
d="M535 1146q-67 0 -113 43t-46 107q0 65 46 108t113 43t113.5 -43t46.5 -108q0 -64 -46.5 -107t-113.5 -43zM359 -20q-129 0 -210 67t-81 175q0 116 98.5 192t322.5 121l196 40v105q0 133 -61.5 193.5t-181.5 60.5q-82 0 -150 -31q48 -10 79.5 -48t31.5 -89q0 -60 -43 -101
t-105 -41t-104.5 39.5t-42.5 99.5q0 106 122.5 178t324.5 72q217 0 334 -83.5t117 -254.5v-479q0 -60 26 -89t70 -29q22 0 39 5v-46q-74 -52 -204 -52q-94 0 -163 43t-83 122q-29 -77 -119.5 -123.5t-212.5 -46.5zM391 273q0 -79 40.5 -123.5t104.5 -44.5q107 0 149 84v330
l-70 -16q-121 -28 -172.5 -84t-51.5 -146z" />
    <glyph glyph-name="Ecedilla" unicode="&#x228;" horiz-adv-x="1282" 
d="M644 -458q-73 0 -130.5 25.5t-84.5 68.5l1 47q46 -35 121 -35q46 0 74.5 19.5t28.5 54.5q0 34 -27.5 53.5t-71.5 19.5q-30 0 -48 -9l-1 40l144 174h-597v49q84 16 109.5 41.5t25.5 93.5v1076q0 68 -25.5 93.5t-109.5 41.5v49h1114l14 -393h-47q-22 94 -50.5 152.5
t-77.5 97.5t-117 56.5t-174 22.5l-172 7v-620l201 5q93 4 130 48t61 164h43v-490h-43q-23 119 -60.5 163t-130.5 48l-201 5v-653l204 9q110 5 179.5 22.5t120.5 60t80.5 107.5t53.5 172h47l-14 -428h-507v-8l-77 -92q20 3 40 3q91 0 153.5 -49t62.5 -130q0 -84 -70 -133
t-172 -49z" />
    <glyph glyph-name="ecedilla" unicode="&#x229;" horiz-adv-x="1098" 
d="M71 495q0 229 143 373.5t376 144.5q205 0 324 -115t119 -304q0 -26 -5 -69h-623q19 -192 121 -299.5t256 -107.5q71 0 132 24t100 64l1 -49q-52 -79 -153.5 -125.5t-231.5 -50.5l-67 -81q18 3 39 3q92 0 154.5 -49t62.5 -130q0 -84 -70.5 -133t-171.5 -49q-73 0 -131 26
t-85 68l1 47q45 -35 122 -35q45 0 73.5 19.5t28.5 54.5q0 34 -27 53.5t-71 19.5q-31 0 -49 -9l-1 40l129 155q-216 12 -356 151.5t-140 362.5zM400 611q0 -19 1 -29l342 4q1 19 1 69q0 138 -38.5 215t-115.5 77q-91 0 -140.5 -87.5t-49.5 -248.5z" />
    <glyph glyph-name="Odieresismacron" unicode="&#x22a;" horiz-adv-x="1694" 
d="M542 1833v115h602v-115h-602zM687 1556h-10q-44 0 -74.5 25.5t-30.5 64.5t30.5 64.5t74.5 25.5h10q45 0 75 -25.5t30 -64.5t-30 -64.5t-75 -25.5zM1009 1556h-10q-45 0 -75 25.5t-30 64.5t30 64.5t75 25.5h10q44 0 74.5 -25.5t30.5 -64.5t-30.5 -64.5t-74.5 -25.5z
M83 720q0 209 93.5 378.5t268.5 269t399 99.5q160 0 300.5 -53t243.5 -148.5t163 -235.5t60 -305q0 -156 -55 -293.5t-153 -238t-241.5 -158.5t-311.5 -58q-160 0 -300.5 53.5t-243.5 149t-163 235.5t-60 305zM476 734q0 -204 45 -359.5t131.5 -242.5t202.5 -87
q126 0 208.5 85.5t119 231t36.5 349.5t-45.5 359.5t-132 242t-201.5 86.5q-126 0 -208.5 -85t-119 -230.5t-36.5 -349.5z" />
    <glyph glyph-name="odieresismacron" unicode="&#x22b;" horiz-adv-x="1263" 
d="M338 1429v136h586v-136h-586zM466 1108h-10q-47 0 -78.5 30t-31.5 75q0 46 31.5 76.5t78.5 30.5h10q47 0 79 -30.5t32 -76.5q0 -45 -32 -75t-79 -30zM806 1108h-10q-47 0 -79 30t-32 75q0 46 32 76.5t79 30.5h10q46 0 78 -30.5t32 -76.5q0 -45 -32 -75t-78 -30zM629 -20
q-243 0 -400.5 140.5t-157.5 372.5q0 151 73.5 270t201.5 184.5t287 65.5q244 0 401.5 -140.5t157.5 -371.5q0 -151 -73.5 -270.5t-201.5 -185t-288 -65.5zM636 46q100 0 153.5 117t53.5 327q0 214 -58 335.5t-158 121.5q-101 0 -154.5 -116.5t-53.5 -326.5q0 -214 58 -336
t159 -122z" />
    <glyph glyph-name="Otildemacron" unicode="&#x22c;" horiz-adv-x="1694" 
d="M542 1832v116h602v-116h-602zM967 1563q-60 0 -146 25l-37 10q-61 18 -102 18q-80 0 -81 -67h-57q-1 87 45.5 133.5t130.5 46.5q61 0 146 -23l37 -11q67 -19 103 -19q78 0 81 68h56q1 -87 -45.5 -134t-130.5 -47zM83 720q0 209 93.5 378.5t268.5 269t399 99.5
q160 0 300.5 -53t243.5 -148.5t163 -235.5t60 -305q0 -156 -55 -293.5t-153 -238t-241.5 -158.5t-311.5 -58q-160 0 -300.5 53.5t-243.5 149t-163 235.5t-60 305zM476 734q0 -204 45 -359.5t131.5 -242.5t202.5 -87q126 0 208.5 85.5t119 231t36.5 349.5t-45.5 359.5
t-132 242t-201.5 86.5q-126 0 -208.5 -85t-119 -230.5t-36.5 -349.5z" />
    <glyph glyph-name="otildemacron" unicode="&#x22d;" horiz-adv-x="1263" 
d="M338 1429v136h586v-136h-586zM751 1123q-60 0 -142 28l-36 12q-65 21 -100 21q-78 0 -79 -79h-55q-2 103 44 157.5t128 54.5q60 0 142 -28l35 -12q64 -22 101 -22q78 0 79 80h55q2 -103 -43.5 -157.5t-128.5 -54.5zM629 -20q-243 0 -400.5 140.5t-157.5 372.5
q0 151 73.5 270t201.5 184.5t287 65.5q244 0 401.5 -140.5t157.5 -371.5q0 -151 -73.5 -270.5t-201.5 -185t-288 -65.5zM636 46q100 0 153.5 117t53.5 327q0 214 -58 335.5t-158 121.5q-101 0 -154.5 -116.5t-53.5 -326.5q0 -214 58 -336t159 -122z" />
    <glyph glyph-name="Odotaccent" unicode="&#x22e;" horiz-adv-x="1694" 
d="M843 1546q-57 0 -96.5 37t-39.5 91q0 55 39.5 91.5t96.5 36.5t96.5 -36.5t39.5 -91.5q0 -54 -39.5 -91t-96.5 -37zM83 720q0 209 93.5 378.5t268.5 269t399 99.5q160 0 300.5 -53t243.5 -148.5t163 -235.5t60 -305q0 -156 -55 -293.5t-153 -238t-241.5 -158.5t-311.5 -58
q-160 0 -300.5 53.5t-243.5 149t-163 235.5t-60 305zM476 734q0 -204 45 -359.5t131.5 -242.5t202.5 -87q126 0 208.5 85.5t119 231t36.5 349.5t-45.5 359.5t-132 242t-201.5 86.5q-126 0 -208.5 -85t-119 -230.5t-36.5 -349.5z" />
    <glyph glyph-name="odotaccent" unicode="&#x22f;" horiz-adv-x="1263" 
d="M631 1146q-67 0 -113.5 43t-46.5 107q0 65 46.5 108t113.5 43t113.5 -43t46.5 -108q0 -64 -46.5 -107t-113.5 -43zM629 -20q-243 0 -400.5 140.5t-157.5 372.5q0 151 73.5 270t201.5 184.5t287 65.5q244 0 401.5 -140.5t157.5 -371.5q0 -151 -73.5 -270.5t-201.5 -185
t-288 -65.5zM636 46q100 0 153.5 117t53.5 327q0 214 -58 335.5t-158 121.5q-101 0 -154.5 -116.5t-53.5 -326.5q0 -214 58 -336t159 -122z" />
    <glyph glyph-name="Odotaccentmacron" unicode="&#x230;" horiz-adv-x="1694" 
d="M542 1808v116h602v-116h-602zM843 1549q-48 0 -80 27.5t-32 69.5t32.5 69.5t79.5 27.5q48 0 80 -27.5t32 -69.5t-32 -69.5t-80 -27.5zM83 720q0 209 93.5 378.5t268.5 269t399 99.5q160 0 300.5 -53t243.5 -148.5t163 -235.5t60 -305q0 -156 -55 -293.5t-153 -238
t-241.5 -158.5t-311.5 -58q-160 0 -300.5 53.5t-243.5 149t-163 235.5t-60 305zM476 734q0 -204 45 -359.5t131.5 -242.5t202.5 -87q126 0 208.5 85.5t119 231t36.5 349.5t-45.5 359.5t-132 242t-201.5 86.5q-126 0 -208.5 -85t-119 -230.5t-36.5 -349.5z" />
    <glyph glyph-name="odotaccentmacron" unicode="&#x231;" horiz-adv-x="1263" 
d="M338 1417v136h586v-136h-586zM631 1104q-50 0 -84 32t-34 81q0 50 34 82.5t84 32.5t84 -32.5t34 -82.5q0 -49 -34 -81t-84 -32zM629 -20q-243 0 -400.5 140.5t-157.5 372.5q0 151 73.5 270t201.5 184.5t287 65.5q244 0 401.5 -140.5t157.5 -371.5q0 -151 -73.5 -270.5
t-201.5 -185t-288 -65.5zM636 46q100 0 153.5 117t53.5 327q0 214 -58 335.5t-158 121.5q-101 0 -154.5 -116.5t-53.5 -326.5q0 -214 58 -336t159 -122z" />
    <glyph glyph-name="Ymacron" unicode="&#x232;" horiz-adv-x="1381" 
d="M501 1588v142h564v-142h-564zM206 1194q-65 112 -104.5 149.5t-108.5 51.5v49h654v-49q-91 -13 -103 -54.5t47 -154.5l247 -456l220 433q45 88 53 133.5t-16.5 67t-91.5 31.5v49h385v-49q-73 -14 -116.5 -57t-119.5 -176l-283 -495v-468q0 -77 27.5 -107t118.5 -43v-49
h-646v49q90 13 117.5 43.5t27.5 106.5v446z" />
    <glyph glyph-name="ymacron" unicode="&#x233;" horiz-adv-x="1077" 
d="M264 1198v167h627v-167h-627zM150 780q-38 92 -66.5 122t-87.5 42v50h595v-50q-86 -11 -100.5 -46t20.5 -135l157 -448l154 444q36 103 21.5 138t-99.5 47v50h338v-50q-62 -12 -94 -47.5t-77 -145.5l-193 -471l-133 -317l-151 -423h-241v4q73 75 161 192t144 215z" />
    <glyph glyph-name="dotlessj" unicode="&#x237;" horiz-adv-x="616" 
d="M480 1007v-785q0 -130 -19.5 -220t-71.5 -166t-126.5 -134.5t-200.5 -132.5l-73 -44l-27 40q113 101 151.5 218t38.5 354v656q0 49 -11.5 66.5t-52.5 31.5l-51 16v46z" />
    <glyph glyph-name="schwa" unicode="&#x259;" horiz-adv-x="1098" 
d="M1027 499q0 -230 -143 -374.5t-376 -144.5q-205 0 -324 115t-119 304q0 27 5 70h623q-19 192 -121 299.5t-256 107.5q-71 0 -131.5 -24t-100.5 -65l-1 50q55 82 164 129t248 47q149 0 269.5 -61.5t191.5 -179.5t71 -273zM354 339q0 -139 38.5 -216t116.5 -77
q90 0 139 87.5t49 248.5v29l-341 -4q-2 -36 -2 -68z" />
    <glyph glyph-name="g.1" unicode="&#x261;" horiz-adv-x="1267" 
d="M71 500q0 120 37 218.5t101 162.5t148.5 98.5t180.5 34.5q102 0 180.5 -40t111.5 -106l113 126h191v-939q-1 -256 -164 -397.5t-444 -141.5q-183 0 -280 70t-97 177q0 59 40.5 99.5t98.5 40.5q59 0 100.5 -40.5t41.5 -99.5q0 -53 -33 -91.5t-82 -45.5q60 -31 152 -31
q331 0 335 391l3 211q-36 -88 -122.5 -139t-201.5 -51q-84 0 -158.5 33.5t-130.5 95t-88.5 155.5t-32.5 209zM410 533q0 -182 63.5 -286.5t162.5 -104.5q117 0 166 96v592q-17 38 -60 62.5t-96 24.5q-106 0 -171 -102t-65 -282z" />
    <glyph glyph-name="quoteright" unicode="&#x2019;" horiz-adv-x="529" 
d="M109 900l-16 46q68 14 109 55t41 101q0 63 -44.5 103.5t-115.5 44.5q0 92 48.5 153t131.5 61q82 0 133 -59.5t51 -156.5q0 -136 -99 -231t-239 -117z" />
    <glyph glyph-name="quoteright" unicode="&#x2bc;" horiz-adv-x="529" 
d="M109 900l-16 46q68 14 109 55t41 101q0 63 -44.5 103.5t-115.5 44.5q0 92 48.5 153t131.5 61q82 0 133 -59.5t51 -156.5q0 -136 -99 -231t-239 -117z" />
    <glyph glyph-name="circumflex" unicode="&#x2c6;" horiz-adv-x="1024" 
d="M255 1102h-63l230 376h180l230 -376h-63l-257 184z" />
    <glyph glyph-name="caron" unicode="&#x2c7;" horiz-adv-x="1024" 
d="M769 1503h63l-230 -375h-180l-230 375h63l257 -184z" />
    <glyph glyph-name="breve" unicode="&#x2d8;" horiz-adv-x="1024" 
d="M512 1133q-77 0 -138.5 26t-99.5 69.5t-58 97t-20 111.5q0 28 5 60h57v-3q0 -77 72 -125.5t182 -48.5q111 0 182.5 48.5t71.5 125.5v3h57q5 -30 5 -60q0 -58 -20 -111.5t-58 -97t-99.5 -69.5t-138.5 -26z" />
    <glyph glyph-name="dotaccent" unicode="&#x2d9;" horiz-adv-x="1024" 
d="M512 1146q-67 0 -113.5 43t-46.5 107q0 65 46.5 108t113.5 43t113.5 -43t46.5 -108q0 -64 -46.5 -107t-113.5 -43z" />
    <glyph glyph-name="ring" unicode="&#x2da;" horiz-adv-x="1024" 
d="M219 1301q0 87 82.5 140.5t210.5 53.5t210.5 -53.5t82.5 -139.5q0 -88 -82.5 -140.5t-210.5 -52.5t-210.5 52.5t-82.5 139.5zM421 1301q0 -64 25 -103t66 -39t66 39t25 104q0 63 -25 103t-66 40t-66 -40.5t-25 -103.5z" />
    <glyph glyph-name="ogonek" unicode="&#x2db;" horiz-adv-x="1024" 
d="M295 -476q-86 0 -142 46t-56 125q0 188 365 341l57 1q-185 -130 -185 -264q0 -56 29.5 -86.5t74.5 -30.5q58 0 88 32v-49q-28 -52 -91 -83.5t-140 -31.5z" />
    <glyph glyph-name="tilde" unicode="&#x2dc;" horiz-adv-x="1024" 
d="M639 1151q-78 0 -167 60l-32 22q-62 41 -101 41q-38 0 -58.5 -30.5t-22.5 -102.5h-57q-9 155 41.5 228.5t141.5 73.5q77 0 168 -61l32 -22q61 -41 100 -41t59.5 30.5t22.5 101.5h57q9 -154 -42 -227t-142 -73z" />
    <glyph glyph-name="hungarumlaut" unicode="&#x2dd;" horiz-adv-x="1024" 
d="M338 1478h273v-7l-253 -369h-63zM729 1478h297v-7l-358 -369h-69z" />
    <glyph glyph-name="gravecmb" unicode="&#x300;" 
d="M74 1102l-407 369v7h344l125 -376h-62z" />
    <glyph glyph-name="acutecmb" unicode="&#x301;" 
d="M-73 1102h-62l133 376h332v-7z" />
    <glyph glyph-name="circumflexcmb" unicode="&#x302;" 
d="M-257 1102h-63l230 376h180l230 -376h-63l-257 184z" />
    <glyph glyph-name="tildecmb" unicode="&#x303;" 
d="M127 1151q-78 0 -167 60l-32 22q-62 41 -101 41q-38 0 -58.5 -30.5t-22.5 -102.5h-57q-9 155 41.5 228.5t141.5 73.5q77 0 168 -61l32 -22q62 -41 100 -41q39 0 59.5 30.5t22.5 101.5h57q9 -154 -42 -227t-142 -73z" />
    <glyph glyph-name="macroncmb" unicode="&#x304;" 
d="M-314 1198v167h627v-167h-627z" />
    <glyph glyph-name="brevecmb" unicode="&#x306;" 
d="M0 1133q-77 0 -138.5 26t-99.5 69.5t-58 97t-20 111.5q0 28 5 60h57v-3q0 -77 72 -125.5t182 -48.5q111 0 182.5 48.5t71.5 125.5v3h57q5 -30 5 -60q0 -58 -20 -111.5t-58 -97t-99.5 -69.5t-138.5 -26z" />
    <glyph glyph-name="dotaccentcmb" unicode="&#x307;" 
d="M0 1146q-67 0 -113.5 43t-46.5 107q0 65 46.5 108t113.5 43t113.5 -43t46.5 -108q0 -64 -46.5 -107t-113.5 -43z" />
    <glyph glyph-name="dieresiscmb" unicode="&#x308;" 
d="M-228 1155q-63 0 -107 41t-44 101q0 61 44 101.5t107 40.5t107 -40.5t44 -101.5q0 -60 -44 -101t-107 -41zM228 1155q-63 0 -107 41t-44 101q0 61 44 101.5t107 40.5t107 -40.5t44 -101.5q0 -60 -44 -101t-107 -41z" />
    <glyph glyph-name="hookabovecmb" unicode="&#x309;" 
d="M46 1492q89 0 146 -43.5t57 -113.5t-64.5 -125t-210.5 -102h-59q127 76 127 157q0 40 -31 63.5t-82 23.5q-82 0 -127 -45l-1 43q30 62 94.5 102t150.5 40z" />
    <glyph glyph-name="ringcmb" unicode="&#x30a;" 
d="M-293 1301q0 87 82.5 140.5t210.5 53.5t210.5 -53.5t82.5 -139.5q0 -88 -82.5 -140.5t-210.5 -52.5t-210.5 52.5t-82.5 139.5zM-91 1301q0 -64 25 -103t66 -39t66 39t25 104q0 63 -25 103t-66 40t-66 -40.5t-25 -103.5z" />
    <glyph glyph-name="hungarumlautcmb" unicode="&#x30b;" 
d="M-174 1478h273v-7l-253 -369h-63zM217 1478h297v-7l-358 -369h-69z" />
    <glyph glyph-name="caroncmb" unicode="&#x30c;" 
d="M257 1503h63l-230 -375h-180l-230 375h63l257 -184z" />
    <glyph glyph-name="dblgravecmb" unicode="&#x30f;" 
d="M-215 1478l129 -376h-68l-359 369v7h298zM175 1478l44 -376h-65l-251 369v7h272z" />
    <glyph glyph-name="invertedbrevecmb" unicode="&#x311;" 
d="M0 1472q77 0 138.5 -26t99.5 -69.5t58 -97t20 -111.5q0 -30 -5 -60h-57v3q0 77 -72 125.5t-182 48.5q-111 0 -182.5 -48.5t-71.5 -125.5v-3h-57q-5 30 -5 60q0 58 20 111.5t58 97t99.5 69.5t138.5 26z" />
    <glyph glyph-name="horncmb" unicode="&#x31b;" 
d="M189 1332h57q78 -23 128.5 -71.5t50.5 -111.5q0 -193 -447 -194v39q134 0 195 52.5t61 136.5q0 94 -45 149z" />
    <glyph glyph-name="dotbelowcmb" unicode="&#x323;" 
d="M0 -418q-62 0 -105.5 39t-43.5 96q0 58 43.5 97t105.5 39t105.5 -39t43.5 -97q0 -57 -43.5 -96t-105.5 -39z" />
    <glyph glyph-name="dieresisbelowcmb" unicode="&#x324;" 
d="M-212 -410q-59 0 -99.5 36.5t-40.5 90.5q0 55 40.5 92t99.5 37t99.5 -37t40.5 -92q0 -54 -40.5 -90.5t-99.5 -36.5zM212 -410q-59 0 -99.5 36.5t-40.5 90.5q0 55 40.5 92t99.5 37t99.5 -37t40.5 -92q0 -54 -40.5 -90.5t-99.5 -36.5z" />
    <glyph glyph-name="ringbelowcmb" unicode="&#x325;" 
d="M-293 -283q0 81 82.5 130.5t210.5 49.5t210.5 -49.5t82.5 -130.5q0 -82 -82.5 -130.5t-210.5 -48.5t-210.5 49t-82.5 130zM-91 -283q0 -59 25 -94.5t66 -35.5t66 35.5t25 94.5q0 58 -25 94.5t-66 36.5t-66 -36.5t-25 -94.5z" />
    <glyph glyph-name="commaaccentcmb" unicode="&#x326;" 
d="M-12 -458q-71 0 -129 25t-86 66v44q52 -42 134 -42q48 0 75.5 18.5t27.5 51.5t-28 51.5t-73 18.5q-42 1 -77 -14v43q24 39 73 64.5t114 25.5q91 0 150 -47t59 -127q0 -81 -66.5 -129.5t-173.5 -48.5z" />
    <glyph glyph-name="cedillacmb" unicode="&#x327;" 
d="M-25 -458q-73 0 -131 26t-85 68l1 47q45 -35 122 -35q45 0 73.5 19.5t28.5 54.5q0 34 -27.5 53.5t-71.5 19.5q-30 0 -48 -9l-1 40l160 192h41v-26l-76 -92q18 3 39 3q92 0 154.5 -49t62.5 -130q0 -84 -70.5 -133t-171.5 -49z" />
    <glyph glyph-name="ogonekcmb" unicode="&#x328;" 
d="M-217 -476q-86 0 -142 46t-56 125q0 188 365 341l57 1q-185 -130 -185 -264q0 -56 30 -86.5t74 -30.5q58 0 88 32v-49q-28 -52 -91 -83.5t-140 -31.5z" />
    <glyph glyph-name="circumflexbelowcmb" unicode="&#x32d;" 
d="M-239 -451h-58l213 338h168l213 -338h-58l-239 165z" />
    <glyph glyph-name="brevebelowcmb" unicode="&#x32e;" 
d="M0 -446q-140 0 -217 81t-77 192q0 26 5 54h53v-3q0 -69 67 -112.5t169 -43.5q103 0 169.5 43.5t66.5 112.5v3h53q5 -27 5 -54q0 -111 -77 -192t-217 -81z" />
    <glyph glyph-name="tildebelowcmb" unicode="&#x330;" 
d="M118 -413q-73 0 -155 54l-30 20q-56 37 -94 37q-72 0 -75 -120h-53q-9 140 38 206t132 66q71 0 156 -55l30 -19q57 -38 93 -38q73 0 76 119h53q8 -138 -39 -204t-132 -66z" />
    <glyph glyph-name="macronbelowcmb" unicode="&#x332;" 
d="M-292 -357v150h583v-150h-583z" />
    <glyph glyph-name="macronbelowcmb" unicode="&#x331;" 
d="M-292 -357v150h583v-150h-583z" />
    <glyph glyph-name="numeralsigngreek" unicode="&#x374;" horiz-adv-x="264" 
d="M42 1031h-50l44 413h237z" />
    <glyph glyph-name="lownumeralsigngreek" unicode="&#x375;" horiz-adv-x="264" 
d="M223 21h50l-45 -413h-236z" />
    <glyph glyph-name="tonosgreek" unicode="&#x384;" horiz-adv-x="1024" 
d="M505 1102h-65l35 376h282v-7z" />
    <glyph glyph-name="dieresistonosgreek" unicode="&#x385;" horiz-adv-x="1024" 
d="M498 1102h-61l7 376h270v-7zM231 1144q-57 0 -96.5 36.5t-39.5 90.5q0 55 39.5 92t96.5 37t96.5 -37t39.5 -92q0 -54 -39.5 -90.5t-96.5 -36.5zM832 1144q-57 0 -96.5 36.5t-39.5 90.5q0 55 39.5 92t96.5 37t96.5 -37t39.5 -92q0 -54 -39.5 -90.5t-96.5 -36.5z" />
    <glyph glyph-name="Alphatonosgreek" unicode="&#x386;" horiz-adv-x="1441" 
d="M1259 266q43 -120 80 -161.5t113 -55.5v-49h-672v49q97 14 117 58.5t-19 167.5l-74 220h-448l-65 -197q-30 -94 -30.5 -142.5t28.5 -72t100 -34.5v-49h-401v49q79 14 117 60t90 193l411 1145h234zM207 1068h-65l34 376h283v-7zM378 565h403l-204 610z" />
    <glyph glyph-name="anoteleiagreek" unicode="&#x387;" horiz-adv-x="529" 
d="M264 673q-70 0 -120.5 50.5t-50.5 120.5q0 71 50 121.5t121 50.5t121.5 -50.5t50.5 -121.5t-50.5 -121t-121.5 -50z" />
    <glyph glyph-name="Epsilontonosgreek" unicode="&#x388;" horiz-adv-x="1618" 
d="M1503 1444l14 -393h-47q-22 94 -50.5 152.5t-77.5 97.5t-117 56.5t-173 22.5l-173 7v-620l202 5q93 4 129.5 48t60.5 164h44v-490h-44q-23 118 -60 162.5t-130 48.5l-202 5v-653l204 9q111 5 180 22.5t120.5 60t81 107.5t53.5 172h47l-15 -428h-1160v49q84 16 109 41.5
t25 93.5v1076q0 68 -25 93.5t-109 41.5v49h1113zM72 1068h-65l35 376h283v-7z" />
    <glyph glyph-name="Etatonosgreek" unicode="&#x389;" horiz-adv-x="1996" 
d="M879 177q0 -65 24 -89.5t103 -38.5v-49h-616v49q84 16 109 41.5t25 93.5v1076q0 68 -25 93.5t-109 41.5v49h616v-50q-78 -13 -102.5 -38t-24.5 -89v-497h575v497q0 65 -24 89.5t-103 38.5v49h616v-49q-84 -15 -109.5 -41t-25.5 -94v-1076q0 -68 26 -94t109 -41v-49h-616
v49q79 14 103 38.5t24 89.5v530h-575v-530zM72 1068h-65l35 376h283v-7z" />
    <glyph glyph-name="Iotatonosgreek" unicode="&#x38a;" horiz-adv-x="1067" 
d="M879 184q0 -68 25.5 -93.5t109.5 -41.5v-49h-624v49q84 16 109 41.5t25 93.5v1076q0 68 -25 93.5t-109 41.5v49h624v-49q-84 -16 -109.5 -41.5t-25.5 -93.5v-1076zM72 1068h-65l35 376h283v-7z" />
    <glyph glyph-name="Omicrontonosgreek" unicode="&#x38c;" horiz-adv-x="1788" 
d="M177 720q0 209 93.5 378.5t268.5 269t399 99.5q160 0 300.5 -53t243.5 -148.5t163 -235.5t60 -305q0 -156 -55 -293.5t-153 -238t-241.5 -158.5t-311.5 -58q-160 0 -300.5 53.5t-243.5 149t-163 235.5t-60 305zM72 1068h-65l35 376h283v-7zM570 734q0 -204 45 -359.5
t131.5 -242.5t202.5 -87q126 0 208.5 85.5t119 231t36.5 349.5t-45.5 359.5t-132 242t-201.5 86.5q-95 0 -166 -47.5t-113.5 -137t-63.5 -209t-21 -271.5z" />
    <glyph glyph-name="Upsilontonosgreek" unicode="&#x38e;" horiz-adv-x="1754" 
d="M579 1194q-65 113 -104 150t-108 51v49h654v-49q-91 -13 -103 -54.5t47 -154.5l247 -456l220 433q64 129 53 173.5t-108 58.5v49h384v-49q-73 -14 -116 -56.5t-120 -176.5l-282 -495v-468q0 -77 27.5 -107t118.5 -43v-49h-647v49q90 13 118 43.5t28 106.5v446zM72 1068
h-65l35 376h283v-7z" />
    <glyph glyph-name="Omegatonosgreek" unicode="&#x38f;" horiz-adv-x="1771" 
d="M239 0l-53 424h40q53 -125 188.5 -174t394.5 -51v95q-267 26 -430.5 182t-163.5 386q0 126 51.5 236t145 192t234 129t310.5 47t311.5 -47t235.5 -128t146 -188.5t52 -229.5q0 -233 -161.5 -390.5t-433.5 -188.5v-95q262 2 397 51.5t187 173.5h39l-52 -424h-631v331
q291 105 291 526q0 253 -100.5 397.5t-283.5 144.5q-180 0 -277 -139t-97 -382q0 -215 73.5 -355.5t217.5 -190.5v-332h-631zM72 1068h-65l35 376h283v-7z" />
    <glyph glyph-name="iotadieresistonosgreek" unicode="&#x390;" horiz-adv-x="719" 
d="M283 1102h-61l7 376h270v-7zM16 1144q-57 0 -96.5 36.5t-39.5 90.5q0 55 39.5 92t96.5 37t96.5 -37t39.5 -92q0 -54 -39.5 -90.5t-96.5 -36.5zM617 1144q-57 0 -96.5 36.5t-39.5 90.5q0 55 39.5 92t96.5 37t96.5 -37t39.5 -92q0 -54 -39.5 -90.5t-96.5 -36.5zM125 994
h340q-21 -465 -21 -672q-1 -89 38 -132.5t111 -43.5q76 0 126 37v-48q-44 -68 -124 -111.5t-177 -43.5q-278 0 -282 305z" />
    <glyph glyph-name="Alphagreek" unicode="&#x391;" horiz-adv-x="1441" 
d="M1259 266q43 -120 80 -161.5t113 -55.5v-49h-672v49q97 14 117 58.5t-19 167.5l-74 220h-448l-65 -197q-30 -94 -30.5 -142.5t28.5 -72t100 -34.5v-49h-401v49q79 14 117 60t90 193l411 1145h234zM378 565h403l-204 610z" />
    <glyph glyph-name="Betagreek" unicode="&#x392;" horiz-adv-x="1445" 
d="M1371 418q0 -84 -37.5 -153.5t-101.5 -118t-151.5 -82t-186.5 -49t-207 -15.5h-634v49q84 16 109.5 41.5t25.5 93.5v1076q0 68 -25 93.5t-110 41.5v49h634q295 0 458.5 -87t163.5 -256q0 -96 -62.5 -167.5t-159 -107t-215.5 -41.5q230 -9 364.5 -103.5t134.5 -263.5z
M950 1080q0 137 -81.5 218t-249.5 86l-76 3v-595l128 1q135 2 207 74t72 213zM997 403q0 146 -85.5 236t-240.5 93l-128 3v-678l76 3q182 6 280 95t98 248z" />
    <glyph glyph-name="Gammagreek" unicode="&#x393;" horiz-adv-x="1180" 
d="M1127 1444l13 -365h-47q-20 91 -46.5 145.5t-73 90t-109.5 49.5t-165 18l-156 5v-1188q0 -77 27.5 -107t118.5 -43v-49h-636v49q85 16 110 41.5t25 93.5v1076q0 68 -25 93.5t-110 41.5v49h1074z" />
    <glyph glyph-name="Deltagreek" unicode="&#x394;" horiz-adv-x="1339" 
d="M40 0v181l513 1267h233l512 -1267v-181h-1258zM134 220h774l-372 973z" />
    <glyph glyph-name="Epsilongreek" unicode="&#x395;" horiz-adv-x="1282" 
d="M1167 1444l14 -393h-47q-22 94 -50.5 152.5t-77.5 97.5t-117 56.5t-174 22.5l-172 7v-620l201 5q93 4 130 48t61 164h43v-490h-43q-23 119 -60.5 163t-130.5 48l-201 5v-653l204 9q110 5 179.5 22.5t120.5 60t80.5 107.5t53.5 172h47l-14 -428h-1161v49q84 16 109.5 41.5
t25.5 93.5v1076q0 68 -25.5 93.5t-109.5 41.5v49h1114z" />
    <glyph glyph-name="Zetagreek" unicode="&#x396;" horiz-adv-x="1302" 
d="M1217 0h-1145v47l753 1340l-221 -8q-164 -7 -253.5 -39t-135.5 -97t-76 -192h-46l15 393h1111v-47l-754 -1340l237 9q125 5 202 22t134 59t89 107t57 174h47z" />
    <glyph glyph-name="Etagreek" unicode="&#x397;" horiz-adv-x="1660" 
d="M543 177q0 -65 24 -89.5t102 -38.5v-49h-616v49q84 16 109.5 41.5t25.5 93.5v1076q0 68 -25 93.5t-110 41.5v49h616v-50q-78 -13 -102 -38t-24 -89v-497h574v497q0 65 -24 89.5t-102 38.5v49h616v-49q-84 -15 -109.5 -40.5t-25.5 -94.5v-1076q0 -68 25.5 -94t109.5 -41
v-49h-616v49q78 14 102 38.5t24 89.5v530h-574v-530z" />
    <glyph glyph-name="Thetagreek" unicode="&#x398;" horiz-adv-x="1706" 
d="M855 -23q-160 0 -301.5 53.5t-245.5 148.5t-164.5 235t-60.5 305q0 156 55.5 293.5t154 238t243.5 158.5t315 58q160 0 301.5 -53.5t245.5 -148.5t164.5 -235.5t60.5 -305.5q0 -156 -55.5 -293.5t-154.5 -237.5t-243.5 -158t-314.5 -58zM858 39q398 0 398 672
q0 321 -108.5 507.5t-299.5 186.5q-398 0 -398 -672q0 -319 108.5 -506.5t299.5 -187.5zM591 483v479h39q16 -104 60 -153t138 -49h52q94 0 138.5 49t59.5 153h40v-479h-40q-15 106 -59.5 156t-138.5 50h-52q-94 0 -138 -50t-60 -156h-39z" />
    <glyph glyph-name="Iotagreek" unicode="&#x399;" horiz-adv-x="731" 
d="M543 184q0 -68 25 -93.5t109 -41.5v-49h-624v49q85 16 110 41.5t25 93.5v1076q0 68 -25 93.5t-110 41.5v49h624v-49q-84 -16 -109 -41.5t-25 -93.5v-1076z" />
    <glyph glyph-name="Kappagreek" unicode="&#x39a;" horiz-adv-x="1461" 
d="M543 177q0 -65 24 -89.5t102 -38.5v-49h-616v49q84 16 109.5 41.5t25.5 93.5v1076q0 68 -25.5 93.5t-109.5 41.5v49h616v-50q-78 -13 -102 -38t-24 -89v-498l102 1l364 432q84 100 79 139.5t-101 53.5v49h433v-49q-88 -20 -159.5 -67.5t-184.5 -160.5l-186 -194l348 -640
q89 -159 133.5 -213t94.5 -73v-47h-430l-390 707l-103 1v-531z" />
    <glyph glyph-name="Lambdagreek" unicode="&#x39b;" horiz-adv-x="1431" 
d="M1246 260q40 -116 78.5 -157t110.5 -54v-49h-673v49q96 15 118.5 55.5t-11.5 153.5l-296 915l-291 -897q-39 -123 -18 -167.5t124 -59.5v-49h-392v49q76 13 114.5 55.5t82.5 169.5l406 1173h233z" />
    <glyph glyph-name="Mugreek" unicode="&#x39c;" horiz-adv-x="1848" 
d="M574 1444l361 -1057l332 1058l512 -1v-49q-83 -13 -109 -40t-24 -95l33 -1076q2 -70 27.5 -96t110.5 -39v-49h-623v49q83 13 109 38.5t24 93.5l-30 1083l-321 -924l-94 -340h-179l-439 1267l-5 -1006q-1 -119 23.5 -157.5t114.5 -53.5v-50h-379v49q86 13 112 53t31 158
l36 977q3 76 -24.5 110.5t-105.5 47.5v49h507z" />
    <glyph glyph-name="Nugreek" unicode="&#x39d;" horiz-adv-x="1473" 
d="M535 1444l700 -1100l-19 832q-3 124 -29 164.5t-117 53.5v50h380v-49q-86 -14 -111 -55t-27 -162l-15 -1178h-270l-790 1236l19 -968q2 -123 28.5 -164t116.5 -54v-50h-380v49q86 14 111 55t27 162l13 966q0 78 -27.5 112.5t-105.5 50.5v49h496z" />
    <glyph glyph-name="Xigreek" unicode="&#x39e;" horiz-adv-x="1350" 
d="M1259 1444l19 -442h-47q-15 53 -34 88t-46.5 59.5t-71 37t-97.5 18t-136 5.5h-343q-82 0 -136 -5.5t-97.5 -18t-70.5 -37t-46 -59.5t-34 -88h-47l20 442h1167zM627 697q-96 0 -150 -19.5t-80 -60.5t-41 -119h-45v457h45q15 -76 41 -116t79.5 -59t150.5 -19h96
q97 0 150.5 19t79.5 59t41 116h44v-457h-44q-15 78 -41 119t-80 60.5t-150 19.5h-96zM1281 0h-1212l-17 495h46q26 -108 68.5 -160t120 -72t227.5 -20h322q91 0 150 6.5t105.5 21.5t75.5 45t48.5 72t35.5 107h47z" />
    <glyph glyph-name="Omicrongreek" unicode="&#x39f;" horiz-adv-x="1694" 
d="M83 720q0 209 93.5 378.5t268.5 269t399 99.5q160 0 300.5 -53t243.5 -148.5t163 -235.5t60 -305q0 -156 -55 -293.5t-153 -238t-241.5 -158.5t-311.5 -58q-160 0 -300.5 53.5t-243.5 149t-163 235.5t-60 305zM476 734q0 -204 45 -359.5t131.5 -242.5t202.5 -87
q126 0 208.5 85.5t119 231t36.5 349.5t-45.5 359.5t-132 242t-201.5 86.5q-126 0 -208.5 -85t-119 -230.5t-36.5 -349.5z" />
    <glyph glyph-name="Pigreek" unicode="&#x3a0;" horiz-adv-x="1622" 
d="M1434 184q0 -68 25.5 -93.5t109.5 -41.5v-49h-616v49q78 14 102 38.5t24 89.5v1205h-536v-1205q0 -65 24 -89.5t102 -38.5v-49h-616v49q84 16 109.5 41.5t25.5 93.5v1076q0 68 -25.5 93.5t-109.5 41.5v49h1516v-49q-84 -16 -109.5 -41.5t-25.5 -93.5v-1076z" />
    <glyph glyph-name="Rhogreek" unicode="&#x3a1;" horiz-adv-x="1406" 
d="M1332 1026q0 -108 -50 -194t-138 -140t-205 -82.5t-254 -28.5h-142v-382q0 -77 27.5 -107t118.5 -43v-49h-636v49q84 16 109.5 41.5t25.5 93.5v1076q0 68 -25.5 93.5t-109.5 41.5v49h632q311 0 479 -107.5t168 -310.5zM958 1011q0 166 -86 266t-258 107l-71 3v-749l71 3
q167 7 255.5 106t88.5 264z" />
    <glyph glyph-name="Sigmagreek" unicode="&#x3a3;" horiz-adv-x="1281" 
d="M1157 1444l13 -390h-46q-23 93 -51 149t-79 96t-125.5 57.5t-191.5 22.5l-234 9l374 -564v-17l-607 -559h520q93 0 155 7t110 23.5t78.5 48.5t51 76t38.5 112h53l-15 -515h-1146v181l483 489l-494 727v47h1113z" />
    <glyph glyph-name="Taugreek" unicode="&#x3a4;" horiz-adv-x="1353" 
d="M1300 1444l14 -393h-47q-38 178 -115 246.5t-253 85.5l-45 4v-1188q0 -77 27.5 -107t118.5 -43v-49h-646v49q90 13 117.5 43.5t27.5 106.5v1188l-45 -4q-120 -11 -189 -43t-111 -99.5t-68 -189.5h-47l13 393h1248z" />
    <glyph glyph-name="Upsilongreek" unicode="&#x3a5;" horiz-adv-x="1381" 
d="M206 1194q-65 112 -104.5 149.5t-108.5 51.5v49h654v-49q-91 -13 -103 -54.5t47 -154.5l247 -456l220 433q45 88 53 133.5t-16.5 67t-91.5 31.5v49h385v-49q-73 -14 -116.5 -57t-119.5 -176l-283 -495v-468q0 -77 27.5 -107t118.5 -43v-49h-646v49q90 13 117.5 43.5
t27.5 106.5v446z" />
    <glyph glyph-name="Phigreek" unicode="&#x3a6;" horiz-adv-x="1937" 
d="M69 722q0 162 95 279t258 176t381 65v3q0 76 -28 106.5t-118 43.5v49h623v-49q-90 -13 -118 -43.5t-28 -106.5v-3q338 -10 536 -147.5t198 -374.5q0 -162 -93 -278t-256.5 -175.5t-384.5 -65.5v-2q0 -76 28 -106.5t118 -43.5v-49h-623v49q90 13 118 43.5t28 106.5v2
q-342 9 -538 146t-196 375zM1509 721q0 201 -97 323.5t-278 137.5v-921q172 16 273.5 139.5t101.5 320.5zM428 724q0 -202 98 -325t277 -138v921q-174 -16 -274.5 -139.5t-100.5 -318.5z" />
    <glyph glyph-name="Chigreek" unicode="&#x3a7;" horiz-adv-x="1418" 
d="M280 299l259 383l-308 507q-63 104 -105 145t-107 60v50h663v-49q-52 -9 -77 -20t-30.5 -34.5t7 -54.5t45.5 -87l218 -358l193 321q54 90 67 134t-9.5 66t-91.5 33v49h398v-49q-78 -14 -130 -60t-145 -185l-248 -365l322 -530q61 -103 105 -144.5t112 -61.5v-49h-668v49
q96 16 106 56t-52 140l-231 380l-205 -340q-55 -91 -68 -136t9.5 -67t91.5 -33v-49h-400v49q78 14 130 60.5t149 189.5z" />
    <glyph glyph-name="Psigreek" unicode="&#x3a8;" horiz-adv-x="1907" 
d="M1120 199q0 -76 27.5 -106.5t117.5 -43.5v-49h-622v49q90 13 117.5 43.5t27.5 106.5v316q-134 4 -231 30t-171 81.5t-118.5 145t-62.5 219.5l-31 228q-13 93 -43 126.5t-98 36.5v50q79 12 159 12q138 0 210 -62t95 -214l33 -233q27 -184 84 -264.5t174 -93.5v690
q0 65 -24 89.5t-102 37.5v50h584v-50q-78 -13 -102 -37.5t-24 -89.5v-690q117 13 173 93.5t84 264.5l34 233q22 152 94 214t210 62q81 0 158 -12v-50q-67 -3 -96.5 -37t-42.5 -126l-32 -228q-18 -129 -62.5 -219t-118.5 -145t-171 -81.5t-230 -30.5v-316z" />
    <glyph glyph-name="Omegagreek" unicode="&#x2126;" horiz-adv-x="1617" 
d="M85 0l-53 424h40q53 -125 188.5 -174t394.5 -51v95q-267 26 -430.5 182t-163.5 386q0 126 51.5 236t145 192t234 129t309.5 47q170 0 312 -47t236 -128t145.5 -188.5t51.5 -229.5q0 -233 -161 -390.5t-433 -188.5v-95q262 2 397 51.5t187 173.5h39l-53 -424h-630v331
q291 105 291 526q0 253 -101 397.5t-284 144.5q-180 0 -276.5 -139t-96.5 -382q0 -215 73.5 -355.5t217.5 -190.5v-332h-631z" />
    </font>
</defs>
</svg>
