<svg width="185" height="184" viewBox="0 0 185 184" fill="none" xmlns="http://www.w3.org/2000/svg">
<path d="M12.1152 91.9918C12.1152 76.181 16.8037 60.7253 25.5877 47.5791C34.3717 34.4329 46.8568 24.1867 61.464 18.1361C76.0713 12.0856 92.1447 10.5025 107.652 13.5871C123.159 16.6716 137.403 24.2852 148.583 35.4651C159.763 46.645 167.376 60.8891 170.461 76.3961C173.545 91.9031 171.962 107.977 165.912 122.584C159.861 137.191 149.615 149.676 136.469 158.46C123.323 167.244 107.867 171.933 92.056 171.933C70.8628 171.905 50.5453 163.474 35.5594 148.488C20.5734 133.503 12.1424 113.185 12.1152 91.9918ZM13.9982 91.9918C14.0016 107.429 18.5825 122.519 27.1617 135.354C35.7408 148.188 47.9329 158.19 62.1964 164.096C76.4599 170.001 92.1542 171.544 107.295 168.53C122.435 165.517 136.342 158.081 147.257 147.164C158.172 136.247 165.605 122.338 168.615 107.197C171.626 92.0554 170.079 76.3615 164.17 62.0993C158.262 47.8371 148.257 35.6471 135.421 27.0708C122.585 18.4944 107.494 13.9169 92.056 13.9169C71.3578 13.9396 51.5141 22.1731 36.8798 36.8106C22.2456 51.448 14.0163 71.2935 13.9982 91.9918Z" fill="#76688B"/>
<path d="M92.0612 20.7636V31.702C76.0845 31.7292 60.7707 38.0914 49.4783 49.3934C38.1859 60.6955 31.8367 76.0146 31.8232 91.9913H20.8848C20.9029 73.115 28.406 55.0163 41.7488 41.6639C55.0915 28.3115 73.1849 20.7953 92.0612 20.7636Z" fill="#76688B"/>
<path d="M92.8328 158.923H94.4419L94.75 167.481H92.9355L92.8328 158.923ZM87.4749 167.345L88.0056 158.786H89.5975L89.3065 167.345H87.4749ZM97.66 158.786L99.2691 158.632L100.176 167.19L98.379 167.362L97.66 158.786ZM82.0485 166.899L83.1783 158.426L84.7874 158.614L83.863 167.173L82.0485 166.899ZM102.453 158.204L104.045 157.93L105.569 166.352L103.857 166.66L102.453 158.204ZM76.6906 165.992L78.4024 157.604C78.9273 157.719 79.458 157.821 79.9944 157.913L78.4366 166.335L76.6906 165.992ZM107.143 157.194L108.718 156.817L110.841 165.102L109.129 165.53L107.143 157.194ZM71.3327 164.606L73.6949 156.372L75.2355 156.8L73.0958 165.085L71.3327 164.606ZM111.851 155.876L113.409 155.362L116.13 163.476L114.419 164.041L111.851 155.876ZM66.1973 162.86L69.1245 154.814L70.6651 155.345L67.9091 163.459L66.1973 162.86ZM116.421 154.301L117.911 153.702L121.231 161.593L119.52 162.261L116.421 154.301ZM61.1304 160.823L64.6396 153.017L66.1288 153.667L62.808 161.542C62.2431 161.353 61.6953 161.097 61.1304 160.857V160.823ZM120.838 152.452L122.293 151.733L126.161 159.368L124.535 160.172L120.838 152.452ZM56.2347 158.46L60.3088 150.928C60.7881 151.202 61.2673 151.442 61.7467 151.682L57.8438 159.299L56.2347 158.46ZM125.117 150.21L126.504 149.405L130.92 156.731L129.397 157.587L125.117 150.21ZM51.5101 155.687L56.132 148.481L57.4842 149.336L53.0678 156.663C52.5714 156.303 52.0408 155.995 51.5272 155.653L51.5101 155.687ZM129.208 147.659L130.527 146.752L135.474 153.753L133.967 154.78L129.208 147.659ZM47.0423 152.589L52.1777 145.742L53.4787 146.7L48.5316 153.684L47.0423 152.589ZM133.128 144.852L134.395 143.842L139.822 150.449C139.342 150.843 138.88 151.219 138.401 151.579L133.128 144.852ZM42.7971 149.182L48.3946 142.712L49.6271 143.739L44.1836 150.346C43.807 149.936 43.2421 149.542 42.7971 149.148V149.182ZM136.843 141.736L138.024 140.641L143.913 146.854L142.578 148.087L136.843 141.736ZM38.8086 145.485L44.8341 139.408L45.9981 140.538L40.0924 146.735L38.8086 145.485ZM140.318 138.364C140.695 137.97 141.054 137.594 141.413 137.183L147.73 142.969L146.48 144.304L140.318 138.364ZM35.0769 141.496L41.5304 135.882L42.6088 137.08L36.2922 142.849L35.0769 141.496ZM143.536 134.769L144.546 133.52L151.273 138.826L150.127 140.23L143.536 134.769ZM31.6533 137.268L38.5005 132.133L39.4762 133.417L32.7659 138.723L31.6533 137.268ZM146.498 130.935L147.422 129.617L154.492 134.427C154.149 134.94 153.807 135.42 153.447 135.916L146.498 130.935ZM28.5378 132.801L35.7445 128.162L36.6175 129.497L29.5478 134.307L28.5378 132.801ZM149.168 126.912L150.007 125.525L157.402 129.805L156.477 131.363L149.168 126.912ZM25.7647 128.11L33.2795 124.002C33.5363 124.481 33.793 124.943 34.0669 125.406L26.6891 129.668C26.3467 129.137 26.0557 128.607 25.7647 128.076V128.11ZM151.547 122.684C151.804 122.205 152.044 121.725 152.283 121.246L159.969 124.995C159.713 125.543 159.439 126.09 159.148 126.621L151.547 122.684ZM23.334 123.249L31.1226 119.705C31.3452 120.185 31.5677 120.664 31.8073 121.143L24.1043 124.892C23.8304 124.321 23.5508 123.762 23.2655 123.215L23.334 123.249ZM153.619 118.216C153.824 117.72 154.047 117.206 154.235 116.71L162.178 119.894C161.955 120.459 161.732 121.023 161.493 121.605L153.619 118.216ZM21.2456 118.216L29.2739 115.238C29.4622 115.734 29.6505 116.248 29.8559 116.744L21.9132 119.928C21.6735 119.312 21.5537 118.747 21.2456 118.216ZM155.365 113.8L155.878 112.259L164.026 114.844C163.855 115.426 163.65 116.008 163.461 116.556L155.365 113.8ZM19.5338 113.081L27.7675 110.684C27.9045 111.198 28.0756 111.711 28.2297 112.225L20.0645 114.792C19.8419 114.159 19.705 113.594 19.5338 113.081ZM156.785 109.144C156.922 108.613 157.059 108.099 157.179 107.569L165.516 109.572C165.362 110.154 165.225 110.736 165.07 111.283L156.785 109.144ZM18.2328 107.706L26.6035 105.994C26.7062 106.507 26.826 107.038 26.963 107.552L18.6266 109.537C18.4725 108.904 18.3355 108.305 18.2157 107.706H18.2328ZM157.864 104.419C157.967 103.888 158.052 103.358 158.138 102.844L166.594 104.214C166.491 104.813 166.389 105.412 166.269 106.011L157.864 104.419ZM17.2914 102.331L25.7647 101.184C25.7647 101.714 25.9188 102.245 26.0044 102.759L17.5653 104.145C17.4454 103.546 17.3598 102.93 17.2742 102.331H17.2914ZM158.497 99.6602C158.497 99.1125 158.617 98.5818 158.651 98.034L167.21 98.8043C167.21 99.4206 167.09 100.02 167.022 100.602L158.497 99.6602ZM16.658 96.9213L25.217 96.3565C25.217 96.8871 25.2169 97.4349 25.3368 98.0683L16.7778 98.8043C16.812 98.1367 16.7607 97.5376 16.7264 96.9213H16.658ZM158.874 94.8158V93.2239L167.433 93.3608C167.433 93.9771 167.433 94.5933 167.433 95.1925L158.874 94.8158ZM16.5039 91.9914V91.4607H25.0629V93.0527L16.5039 93.2068V91.9914ZM158.84 88.3795L167.399 87.9173C167.399 88.5165 167.399 89.1156 167.399 89.7318L158.84 90.0057C158.959 89.4579 158.925 88.9102 158.908 88.3795H158.84ZM16.6066 87.8317C16.6066 87.2326 16.6066 86.6335 16.7264 86.0343L25.2854 86.6848C25.2854 87.2326 25.2854 87.7633 25.1656 88.311L16.6066 87.8317ZM158.497 83.5694L167.056 82.4909L167.262 84.3054L158.703 85.1613C158.6 84.6307 158.497 84.1 158.497 83.5694ZM17.1887 82.4225C17.1887 81.8062 17.3427 81.2071 17.4454 80.608L25.9017 81.9089C25.9017 82.4396 25.7476 82.9531 25.6791 83.4838L17.1887 82.4225ZM157.693 78.8448L166.08 77.133C166.2 77.715 166.32 78.3142 166.423 78.8448L157.984 80.317C157.898 79.8377 157.795 79.3241 157.693 78.8448ZM18.0616 77.133C18.1815 76.5339 18.3013 75.9519 18.4382 75.4212L26.7747 77.3042C26.672 77.8177 26.5521 78.3484 26.4494 78.8791L18.0616 77.133ZM156.58 74.1887L164.814 71.912C164.985 72.4941 165.139 73.0647 165.276 73.6238L156.991 75.7293L156.58 74.1887ZM19.3284 71.8264C19.4882 71.2444 19.6593 70.6738 19.8419 70.1147L28.0243 72.631L27.5621 74.1716L19.3284 71.8264ZM155.074 69.4813L163.136 66.6055C163.342 67.1704 163.53 67.7524 163.718 68.3173L155.604 71.0219C155.467 70.5084 155.296 69.9948 155.074 69.4813ZM20.9546 66.5199C21.16 65.955 21.3654 65.3901 21.5879 64.8081L29.5649 67.8722L29 69.3957L20.9546 66.5199ZM153.293 65.0135L161.116 61.5899C161.373 62.1377 161.596 62.7026 161.835 63.3017L153.927 66.5541C153.756 65.9893 153.55 65.5099 153.362 65.0135H153.293ZM22.9916 61.453C23.2313 60.8881 23.488 60.3403 23.7448 59.7412L31.4821 63.4044C31.2424 63.8837 31.0199 64.3801 30.8145 64.8766L22.9916 61.453ZM151.188 60.6827L158.737 56.66C159.028 57.1906 159.302 57.7384 159.576 58.269L151.924 62.1035L151.188 60.6827ZM25.4053 56.5915L26.2954 54.9824L33.7417 59.2105C33.4678 59.6727 33.2111 60.152 32.9714 60.6142L25.4053 56.5915ZM148.791 56.5915L156.049 52.0381C156.375 52.5517 156.683 53.0652 156.991 53.5787L149.647 57.9609C149.356 57.4132 149.082 56.951 148.791 56.5915ZM28.1612 51.9012L29.137 50.3777L36.2752 55.1194L35.385 56.4717L28.1612 51.9012ZM146.087 52.5859L152.934 47.4505C153.293 47.9298 153.653 48.4262 153.995 48.9398L146.96 53.8013C146.72 53.3733 146.412 52.9454 146.087 52.5003V52.5859ZM31.2253 47.4505C31.5848 46.9541 31.9614 46.4748 32.3209 45.9955L39.1681 51.2336C38.8257 51.6615 38.5176 52.0895 38.1924 52.5345L31.2253 47.4505ZM143.091 48.8542L149.613 43.308C150.007 43.7702 150.4 44.2323 150.777 44.7116L144.118 50.0867L143.091 48.8542ZM34.6147 43.1881C35.0084 42.726 35.4021 42.2638 35.8129 41.8187L42.1979 47.519C41.8385 47.9127 41.479 48.3235 41.1366 48.7344L34.6147 43.1881ZM139.839 45.2765L145.95 39.2853L147.199 40.5862L140.951 46.3207L139.839 45.2765ZM38.2951 39.1654L39.596 37.8816L45.536 44.0269L44.389 45.1738L38.2951 39.1654ZM136.329 41.9557L141.995 35.5364L143.331 36.7518L137.528 42.8971L136.329 41.9557ZM42.2664 35.4166L43.6358 34.2355L49.1478 40.7916C48.7199 41.1511 48.309 41.4935 47.9153 41.8529L42.2664 35.4166ZM132.581 38.8402L137.716 31.993L139.154 33.1057L133.779 39.7817L132.581 38.8402ZM46.4774 31.993C46.9567 31.6164 47.4532 31.257 47.9496 30.8975L52.948 37.8474L51.647 38.806L46.4774 31.993ZM128.644 36.1013L133.351 28.946L134.857 29.956L129.996 37.0086C129.534 36.5464 129.089 36.2383 128.626 35.9473L128.644 36.1013ZM50.9452 28.8604C51.4588 28.5181 51.9552 28.1928 52.4687 27.8847L56.9879 35.1598C56.5257 35.4508 56.0635 35.7247 55.6184 36.0329L50.9452 28.8604ZM124.552 33.6021L128.695 26.1216C129.243 26.4126 129.773 26.7207 130.287 27.0288L125.939 34.3895L124.552 33.6021ZM55.6527 26.0531L57.2446 25.1801L61.1989 32.7804L59.7952 33.5336L55.6527 26.0531ZM120.239 31.3939L123.851 23.6395L125.562 24.4269L121.762 32.0957L120.239 31.3939ZM60.497 23.5881L62.2088 22.8349L65.6324 30.692C65.1531 30.9146 64.6567 31.12 64.1774 31.3596L60.497 23.5881ZM115.702 29.3568L118.732 21.3628C119.314 21.5682 119.879 21.7907 120.444 22.0304L117.209 29.956L115.702 29.3568ZM65.4441 21.3285L67.1559 20.7123L69.9975 28.7748L68.474 29.3397L65.4441 21.3285ZM111.115 27.8162L113.563 19.6167L115.274 20.1474L112.638 28.2955L111.115 27.8162ZM70.6137 19.5825L72.3255 19.0861L74.568 27.3541L73.0102 27.7991L70.6137 19.5825ZM106.442 26.6009L108.273 18.2473C108.872 18.3671 109.454 18.5041 109.985 18.6581L107.948 26.9603L106.442 26.6009ZM75.886 18.2302L77.5978 17.8536L79.224 26.2585L77.6492 26.5838L75.886 18.2302ZM101.7 25.7792L102.932 17.3058L104.644 17.5797L103.206 26.0189L101.7 25.7792ZM81.2782 17.2202L83.0756 16.9806L84.0855 25.5396L82.4936 25.745L81.2782 17.2202ZM96.8898 25.1801L97.506 16.6211L99.3205 16.758L98.4989 25.317L96.8898 25.1801ZM86.7046 16.6211L88.5191 16.5184L88.9128 25.0774L87.3037 25.1801L86.7046 16.6211ZM92.0625 24.9918V16.4328H93.877L93.6716 24.9918H92.0625Z" fill="#76688B"/>
<path d="M126.465 53.8016C117.511 45.7189 105.996 41.0465 93.9414 40.6037V36.581C107.092 36.9907 119.665 42.084 129.393 50.9429L126.465 53.8016Z" fill="#76688B"/>
<path d="M90.1406 36.581V40.6037C78.0856 41.0465 66.5713 45.7189 57.6165 53.8016L54.7578 50.9429C64.4681 42.099 77.0134 37.0069 90.1406 36.581Z" fill="#76688B"/>
<path d="M54.9161 56.4724C46.4575 65.2738 41.4244 76.8094 40.7254 88.9965H36.6855C37.4087 75.7407 42.8771 63.1876 52.0917 53.6309L54.9161 56.4724Z" fill="#76688B"/>
<path d="M143.398 88.9965C142.699 76.8094 137.666 65.2738 129.207 56.4724L132.049 53.6309C141.271 63.1824 146.741 75.7385 147.455 88.9965H143.398Z" fill="#76688B"/>
<path d="M130.25 126.399C138.579 117.182 143.275 105.252 143.465 92.8308H147.505C147.317 106.319 142.196 119.271 133.109 129.241L130.25 126.399Z" fill="#76688B"/>
<path d="M40.6516 92.8308C40.8412 105.252 45.5376 117.182 53.8667 126.399L51.0251 129.241C41.9379 119.271 36.8166 106.319 36.6289 92.8308H40.6516Z" fill="#76688B"/>
<path d="M56.5408 129.137C65.6226 137.833 77.5788 142.894 90.1433 143.362V147.402C76.5112 146.937 63.5319 141.45 53.6992 131.996L56.5408 129.137Z" fill="#76688B"/>
<path d="M93.9746 143.362C106.539 142.894 118.495 137.833 127.577 129.137L130.419 131.911C120.588 141.367 107.607 146.854 93.9746 147.317V143.362Z" fill="#76688B"/>
<path d="M7.25879 100.466C9.23939 120.263 18.1017 138.739 32.3023 152.675L27.458 157.588C11.9838 142.369 2.39645 122.163 0.394531 100.551L7.25879 100.466Z" fill="#76688B"/>
<path d="M176.868 100.466H183.715C181.737 122.105 172.155 142.344 156.669 157.588L151.824 152.744C166.045 138.794 174.91 120.29 176.868 100.466Z" fill="#76688B"/>
<path d="M27.149 36.8548C14.0302 52.2288 6.83085 71.7812 6.84719 91.9916C6.84719 92.7277 6.84719 93.4638 6.84719 94.1999H1.25479e-05C1.25479e-05 93.4638 1.25479e-05 92.7277 1.25479e-05 91.9916C-0.0114909 69.9975 7.88688 48.7326 22.2533 32.0789L27.149 36.8548Z" fill="#76688B"/>
<path d="M95.1582 177.119C114.272 176.438 132.593 169.313 147.145 156.903L152.007 161.747C136.161 175.449 116.095 183.304 95.1582 184V177.119Z" fill="#76688B"/>
<path d="M152.743 32.2331C137.505 16.7116 116.895 7.62562 95.1582 6.84717V0C118.7 0.786845 141.039 10.5926 157.553 27.3887L152.743 32.2331Z" fill="#76688B"/>
<path d="M177.224 94.251C177.224 93.5149 177.224 92.7789 177.224 92.0428C177.24 71.8323 170.041 52.2799 156.922 36.9059L161.783 32.0615C176.145 48.7185 184.042 69.9812 184.037 91.9743C184.037 92.7104 184.037 93.4465 184.037 94.1825L177.224 94.251Z" fill="#76688B"/>
<path d="M88.9241 6.84717C67.2036 7.63838 46.6104 16.716 31.3736 32.2159L26.5293 27.3887C43.0437 10.5926 65.3823 0.786845 88.9241 0V6.84717Z" fill="#76688B"/>
<path d="M36.9611 156.903C51.5133 169.313 69.8348 176.438 88.9483 177.119V183.966C68.011 183.27 47.9456 175.415 32.0996 161.713L36.9611 156.903Z" fill="#76688B"/>
<path d="M59.7734 81.2924H67.4252V52.1063C67.4252 45.5733 70.0204 39.3078 74.6399 34.6883C79.2595 30.0688 85.5249 27.4736 92.0579 27.4736C98.5909 27.4736 104.856 30.0688 109.476 34.6883C114.095 39.3078 116.691 45.5733 116.691 52.1063V81.2924H124.342V52.1063C124.342 43.5439 120.941 35.3322 114.886 29.2777C108.832 23.2232 100.62 19.8219 92.0579 19.8219C83.4955 19.8219 75.2839 23.2232 69.2294 29.2777C63.1749 35.3322 59.7734 43.5439 59.7734 52.1063V81.2924Z" fill="url(#paint0_linear)"/>
<path d="M92.1899 55.3934C109.071 55.5532 125.755 59.0435 141.284 65.6642C141.284 65.6642 141.284 132.047 92.1899 162.004C43.0957 132.047 43.0957 65.6642 43.0957 65.6642C58.6252 59.0435 75.3088 55.5532 92.1899 55.3934Z" fill="url(#paint1_linear)"/>
<path d="M43.0957 65.6815C58.6252 59.0609 75.3088 55.5706 92.1899 55.4107V162.038C43.0957 132.065 43.0957 65.6815 43.0957 65.6815Z" fill="url(#paint2_linear)"/>
<path d="M91.935 157.587C46.9662 130.198 46.4355 68.9676 46.4355 68.3513V68.0432L46.7265 67.9063C61.1194 61.851 76.5769 58.7318 92.1918 58.7318C107.807 58.7318 123.264 61.851 137.657 67.9063L137.931 68.0432V68.3513C137.931 68.9676 137.417 130.147 92.4314 157.587L92.1918 157.741L91.935 157.587ZM92.1918 59.6897C76.8304 59.8592 61.6365 62.9015 47.3941 68.6595C47.4969 73.4011 49.551 130.387 92.1918 156.629C134.815 130.404 136.887 73.4011 136.972 68.6595C122.733 62.9181 107.544 59.8932 92.1918 59.741V59.6897Z" fill="white"/>
<path d="M92.052 99.2658C96.0794 99.2658 99.3443 96.0009 99.3443 91.9735C99.3443 87.9461 96.0794 84.6813 92.052 84.6813C88.0246 84.6813 84.7598 87.9461 84.7598 91.9735C84.7598 96.0009 88.0246 99.2658 92.052 99.2658Z" fill="#290658"/>
<path d="M87.3535 118.438H96.9054L94.9882 95.1571H89.2536L87.3535 118.438Z" fill="#76688B"/>
<defs>
<linearGradient id="paint0_linear" x1="-14808.2" y1="10686.2" x2="-14808.2" y2="12893.6" gradientUnits="userSpaceOnUse">
<stop stop-color="#C7B1FC"/>
<stop offset="1" stop-color="#7E4ECC"/>
</linearGradient>
<linearGradient id="paint1_linear" x1="-22471.8" y1="20850.8" x2="-22471.8" y2="27438.3" gradientUnits="userSpaceOnUse">
<stop stop-color="#C7B1FC"/>
<stop offset="1" stop-color="#7E4ECC"/>
</linearGradient>
<linearGradient id="paint2_linear" x1="-11952.9" y1="20420.2" x2="-11952.9" y2="23975.2" gradientUnits="userSpaceOnUse">
<stop stop-color="#C7B1FC"/>
<stop offset="1" stop-color="#7E4ECC"/>
</linearGradient>
</defs>
</svg>
