<svg width="232" height="210" viewBox="0 0 232 210" fill="none" xmlns="http://www.w3.org/2000/svg">
<rect x="231.882" y="87.2354" width="121.765" height="231.882" transform="rotate(90 231.882 87.2354)" fill="#4861E6"/>
<path d="M75.6682 191.413C75.6682 191.413 75.5861 191.483 75.4155 191.584L74.6703 192.02C74.0387 192.392 73.0534 192.891 71.8407 193.466C70.628 194.041 69.1564 194.66 67.4953 195.279C65.8342 195.898 63.9646 196.472 61.9751 196.978C59.9855 197.483 58.0655 197.83 56.2907 198.089C54.5159 198.348 52.9432 198.481 51.6042 198.544C50.2652 198.607 49.1789 198.626 48.4462 198.601H47.5809C47.4824 198.614 47.3826 198.614 47.2841 198.601C47.3803 198.572 47.4806 198.559 47.5809 198.563L48.4462 198.531C49.1915 198.531 50.2715 198.462 51.6042 198.367C52.9369 198.272 54.5222 198.102 56.2654 197.843C58.0086 197.584 59.9161 197.211 61.8993 196.719C63.8825 196.226 65.7268 195.632 67.3879 195.051C69.049 194.47 70.5459 193.858 71.7459 193.308C72.946 192.759 73.9439 192.297 74.6071 191.963L75.384 191.584C75.4711 191.515 75.5666 191.458 75.6682 191.413Z" fill="#263238"/>
<path d="M81.8956 195.006C81.7885 195.125 81.6677 195.231 81.5356 195.322L80.4556 196.181C80.2219 196.37 79.9566 196.573 79.6724 196.813C79.3882 197.053 79.0408 197.255 78.706 197.495C77.9986 197.975 77.2218 198.556 76.2996 199.099L74.8659 199.977C74.367 200.28 73.8238 200.558 73.2743 200.861C72.1816 201.493 70.9563 202.055 69.6805 202.668C64.0829 205.23 58.1135 206.887 51.9957 207.575C50.5809 207.701 49.2419 207.853 47.985 207.878C47.3534 207.878 46.7218 207.941 46.1597 207.935H44.4796C43.4059 207.935 42.4459 207.853 41.5932 207.802C41.17 207.802 40.7784 207.752 40.4121 207.714L39.4268 207.594L38.0562 207.411C37.8981 207.399 37.7416 207.371 37.5889 207.329C37.7484 207.312 37.9093 207.312 38.0689 207.329L39.4395 207.449L40.4247 207.543C40.7911 207.543 41.1827 207.581 41.6058 207.6C42.4522 207.632 43.4185 207.714 44.4859 207.689H46.1597C46.7407 207.689 47.3408 207.638 47.9724 207.613C49.2356 207.575 50.5556 207.417 51.9578 207.278C58.0387 206.555 63.9742 204.911 69.5605 202.402C70.8237 201.771 72.0869 201.246 73.1543 200.627C73.7038 200.331 74.2469 200.065 74.7459 199.768L76.186 198.91C77.1144 198.379 77.8976 197.817 78.605 197.349C78.9587 197.116 79.2934 196.901 79.584 196.718L80.3861 196.13L81.4977 195.322C81.6212 195.206 81.7543 195.1 81.8956 195.006Z" fill="#263238"/>
<path d="M98.9052 177.063L111.405 186.796C111.405 186.796 105.72 202.769 107.842 204.797L127.592 181.232L108.733 165.271L98.9052 177.063Z" fill="#455A64"/>
<path d="M116.487 178.662C116.746 178.495 117.058 178.429 117.362 178.475C117.667 178.522 117.945 178.678 118.142 178.915C118.32 179.167 118.396 179.477 118.352 179.783C118.309 180.088 118.15 180.365 117.908 180.557C117.633 180.736 117.301 180.807 116.977 180.756C116.653 180.705 116.359 180.535 116.152 180.279C115.997 179.997 115.955 179.665 116.036 179.353C116.117 179.04 116.315 178.771 116.588 178.599" fill="#E0E0E0"/>
<path d="M127.593 181.236L125.629 179.701L107.426 202.868C107.426 202.868 107.003 204.302 107.843 204.801L127.593 181.236Z" fill="#FAFAFA"/>
<path d="M110.962 187.08C111.082 187.174 111.593 186.644 112.459 186.385C113.324 186.126 114.038 186.233 114.082 186.088C114.126 185.943 113.318 185.557 112.301 185.886C111.284 186.214 110.835 187.016 110.962 187.08Z" fill="#263238"/>
<path d="M109.913 190.409C110.001 190.529 110.614 190.194 111.429 190.213C112.244 190.232 112.856 190.548 112.945 190.428C113.033 190.308 112.446 189.695 111.435 189.689C110.425 189.683 109.806 190.314 109.913 190.409Z" fill="#263238"/>
<path d="M111.695 194.295C111.809 194.213 111.367 193.569 110.489 193.335C109.611 193.102 108.91 193.43 108.967 193.563C109.023 193.695 109.636 193.639 110.356 193.841C111.076 194.043 111.588 194.378 111.695 194.295Z" fill="#263238"/>
<path d="M108.36 184.546C108.505 184.584 108.79 183.914 109.377 183.282C109.964 182.651 110.596 182.335 110.552 182.196C110.508 182.057 109.68 182.196 108.998 182.929C108.316 183.661 108.221 184.527 108.36 184.546Z" fill="#263238"/>
<path d="M105.876 182.54C105.92 182.578 106.369 182.187 106.855 181.353C107.127 180.862 107.339 180.34 107.487 179.799C107.579 179.478 107.648 179.151 107.695 178.82C107.725 178.626 107.725 178.427 107.695 178.233C107.681 178.087 107.617 177.95 107.513 177.847C107.409 177.743 107.273 177.678 107.127 177.664C106.999 177.656 106.871 177.677 106.752 177.726C106.634 177.775 106.528 177.852 106.445 177.949C106.319 178.098 106.215 178.263 106.135 178.441C105.984 178.745 105.861 179.062 105.769 179.389C105.615 179.937 105.549 180.506 105.573 181.075C105.542 181.601 105.675 182.124 105.952 182.572C106.034 182.572 105.895 181.985 105.952 181.075C105.982 180.549 106.08 180.029 106.242 179.528C106.342 179.235 106.462 178.95 106.602 178.675C106.748 178.372 106.925 178.157 107.089 178.189C107.152 178.189 107.171 178.189 107.196 178.321C107.218 178.466 107.218 178.613 107.196 178.757C107.152 179.079 107.095 179.389 107.026 179.679C106.901 180.196 106.728 180.699 106.508 181.182C106.26 181.617 106.049 182.071 105.876 182.54Z" fill="#263238"/>
<path d="M106.168 182.528C106.219 182.528 105.998 181.927 105.284 181.264C104.614 180.645 103.785 180.223 102.89 180.045C102.682 179.977 102.459 179.965 102.244 180.009C102.029 180.054 101.83 180.153 101.665 180.298C101.58 180.406 101.527 180.535 101.512 180.671C101.498 180.808 101.522 180.945 101.583 181.069C101.669 181.243 101.78 181.405 101.911 181.549C102.139 181.813 102.408 182.039 102.707 182.218C103.204 182.522 103.768 182.7 104.349 182.736C105.341 182.786 105.884 182.42 105.852 182.376C105.364 182.409 104.875 182.409 104.387 182.376C103.879 182.294 103.395 182.104 102.966 181.82C102.73 181.651 102.518 181.452 102.334 181.226C102.113 180.98 101.993 180.715 102.094 180.639C102.204 180.574 102.325 180.532 102.451 180.517C102.577 180.502 102.705 180.513 102.827 180.551C103.128 180.608 103.424 180.69 103.711 180.797C104.202 180.984 104.663 181.239 105.082 181.555C105.77 182.092 106.092 182.572 106.168 182.528Z" fill="#263238"/>
<path d="M162.31 131.025L168.102 145.773C168.102 145.773 185.035 144.844 186.374 147.466L158.173 159.719L148.213 137.107L162.31 131.025Z" fill="#455A64"/>
<path d="M158.851 148.345C158.618 148.547 158.466 148.827 158.425 149.133C158.385 149.439 158.458 149.75 158.63 150.006C158.822 150.247 159.099 150.406 159.405 150.45C159.71 150.493 160.021 150.418 160.272 150.239C160.521 150.027 160.682 149.73 160.724 149.405C160.766 149.081 160.686 148.752 160.5 148.484C160.272 148.254 159.966 148.12 159.642 148.109C159.319 148.098 159.004 148.212 158.763 148.427" fill="#E0E0E0"/>
<path d="M158.174 159.72L157.265 157.402L184.638 146.52C184.638 146.52 186.129 146.52 186.375 147.467L158.174 159.72Z" fill="#FAFAFA"/>
<path d="M168.496 145.435C168.553 145.574 167.864 145.94 167.41 146.698C166.955 147.456 166.809 148.176 166.664 148.176C166.519 148.176 166.374 147.292 166.974 146.408C167.574 145.523 168.471 145.296 168.496 145.435Z" fill="#263238"/>
<path d="M171.985 145.378C172.074 145.491 171.581 146.009 171.354 146.773C171.126 147.538 171.272 148.232 171.126 148.289C170.981 148.346 170.564 147.601 170.848 146.628C171.133 145.655 171.954 145.245 171.985 145.378Z" fill="#263238"/>
<path d="M175.202 148.18C175.088 148.269 174.602 147.662 174.627 146.753C174.652 145.843 175.164 145.269 175.259 145.357C175.353 145.445 175.145 146.02 175.132 146.765C175.12 147.511 175.334 148.111 175.202 148.18Z" fill="#263238"/>
<path d="M166.803 142.218C166.803 142.369 166.089 142.451 165.331 142.849C164.573 143.247 164.068 143.752 163.954 143.664C163.84 143.576 164.2 142.83 165.097 142.401C165.994 141.971 166.828 142.079 166.803 142.218Z" fill="#263238"/>
<path d="M165.584 139.269C165.175 139.599 164.687 139.817 164.169 139.9C163.615 140.019 163.049 140.072 162.482 140.058C162.148 140.057 161.815 140.032 161.484 139.982C161.286 139.964 161.092 139.915 160.91 139.837C160.774 139.781 160.663 139.68 160.593 139.551C160.524 139.422 160.502 139.273 160.531 139.13C160.558 139.004 160.614 138.886 160.695 138.786C160.777 138.686 160.88 138.607 160.998 138.555C161.175 138.472 161.365 138.418 161.56 138.397C161.892 138.339 162.228 138.312 162.564 138.315C163.134 138.324 163.699 138.422 164.238 138.605C165.16 138.928 165.602 139.344 165.571 139.389C165.539 139.433 165.021 139.168 164.137 138.959C163.624 138.84 163.098 138.785 162.571 138.795C162.261 138.807 161.953 138.843 161.649 138.902C161.32 138.953 161.061 139.06 161.017 139.224C161.017 139.288 161.017 139.313 161.118 139.37C161.251 139.425 161.392 139.461 161.535 139.477C161.844 139.528 162.156 139.562 162.47 139.578C163.001 139.606 163.534 139.582 164.061 139.509C164.562 139.39 165.071 139.309 165.584 139.269Z" fill="#263238"/>
<path d="M165.487 139.539C165.449 139.584 164.962 139.205 164.52 138.339C164.269 137.827 164.107 137.276 164.04 136.71C164.008 136.372 164.008 136.031 164.04 135.693C164.034 135.473 164.086 135.255 164.19 135.061C164.294 134.868 164.447 134.704 164.634 134.588C164.761 134.537 164.899 134.524 165.033 134.548C165.167 134.573 165.291 134.635 165.392 134.727C165.535 134.862 165.66 135.015 165.765 135.181C165.951 135.476 166.089 135.798 166.175 136.135C166.33 136.696 166.341 137.287 166.207 137.853C165.973 138.826 165.474 139.236 165.442 139.198C165.602 138.736 165.737 138.266 165.847 137.79C165.914 137.279 165.869 136.759 165.714 136.268C165.627 135.982 165.499 135.71 165.335 135.459C165.158 135.181 164.943 134.986 164.842 135.068C164.741 135.15 164.564 135.453 164.552 135.744C164.524 136.048 164.524 136.355 164.552 136.659C164.592 137.182 164.707 137.697 164.893 138.188C165.183 139.034 165.55 139.489 165.487 139.539Z" fill="#263238"/>
<path d="M142.333 83.9273C146.489 86.7821 151.807 96.9825 154.82 103.987C155.18 104.821 155.452 105.598 155.717 106.318L162.848 124.95L167.66 139.514C167.66 139.514 163.536 141.561 159.601 143.348C156.753 144.611 149.761 147.649 149.761 147.649C149.053 146.039 148.365 144.359 147.702 142.856C144.121 146.544 135.032 153.997 135.032 153.997L130.863 156.959C129.521 157.91 128 158.578 126.392 158.924C109.105 162.713 94.559 151.944 94.559 151.944L113.097 166.724L99.2581 181.314L55.4882 153.258C53.5963 152.077 52.0204 150.452 50.8969 148.526C49.7733 146.599 49.1359 144.427 49.0396 142.199C48.9856 140.194 49.3647 138.201 50.1512 136.356C53.625 128.057 63.3201 129.409 63.9517 129.32C64.5833 129.232 102.568 129.421 103.408 129.674L115.623 130.217L116.886 128.354C118.148 126.506 119.129 124.482 119.798 122.348C122.427 113.946 124.549 105.393 126.152 96.7362C128.836 81.6472 134.514 83.0115 138.942 82.9673C140.096 83.1943 141.231 83.5154 142.333 83.9273Z" fill="#263238"/>
<path d="M66.2642 136.9C66.3731 136.884 66.4838 136.884 66.5926 136.9C66.8137 136.9 67.1358 136.9 67.5464 136.9C68.7126 136.973 69.8716 137.133 71.0138 137.38C74.7848 138.238 78.3817 139.733 81.65 141.801C84.8992 143.86 87.9729 146.184 90.8398 148.749C91.9514 149.721 92.8293 150.523 93.4357 151.086L94.1241 151.717C94.2089 151.788 94.2853 151.869 94.3515 151.957C94.3515 151.957 94.2504 151.9 94.0799 151.761L93.3536 151.13L90.6882 148.875C87.793 146.358 84.7149 144.059 81.4795 141.997C78.2374 139.949 74.6865 138.437 70.9633 137.519C69.8339 137.252 68.6883 137.06 67.5337 136.944C66.719 136.9 66.2642 136.9 66.2642 136.9Z" fill="#455A64"/>
<path d="M136.364 152.955C136.253 152.94 136.143 152.915 136.036 152.879L135.133 152.614C134.343 152.368 133.206 152.027 131.823 151.515C130.19 150.934 128.645 150.13 127.231 149.128C126.402 148.52 125.643 147.821 124.97 147.043C124.264 146.201 123.63 145.301 123.076 144.353C122.039 142.511 121.133 140.599 120.366 138.63C119.621 136.83 118.945 135.226 118.282 133.919C117.766 132.885 117.182 131.887 116.532 130.931L115.976 130.173C115.85 129.996 115.787 129.902 115.799 129.895C115.812 129.889 115.888 129.965 116.027 130.129C116.166 130.293 116.381 130.533 116.658 130.862C117.353 131.795 117.974 132.781 118.515 133.811C119.204 135.119 119.911 136.723 120.669 138.51C121.447 140.463 122.354 142.362 123.385 144.195C123.93 145.128 124.554 146.013 125.248 146.841C125.901 147.604 126.636 148.293 127.44 148.894C128.826 149.896 130.341 150.708 131.943 151.307C133.301 151.843 134.432 152.222 135.202 152.5L136.093 152.829C136.188 152.861 136.279 152.903 136.364 152.955Z" fill="#455A64"/>
<path d="M130.459 94.1602C130.488 94.3418 130.503 94.5256 130.503 94.7096C130.535 95.0697 130.503 95.6002 130.592 96.276C130.74 98.192 131.042 100.093 131.495 101.96C132.177 104.728 133.064 107.44 134.148 110.076C135.348 113.07 136.838 116.285 138.379 119.677C141.43 126.479 143.748 132.814 145.567 137.362L147.708 142.724C147.954 143.356 148.144 143.823 148.289 144.189C148.365 144.354 148.426 144.525 148.472 144.701C148.377 144.547 148.296 144.384 148.232 144.214C148.074 143.854 147.86 143.381 147.601 142.774C147.057 141.511 146.287 139.705 145.365 137.45C143.47 132.94 141.139 126.618 138.095 119.828C136.554 116.443 135.063 113.216 133.882 110.209C132.801 107.545 131.931 104.799 131.28 101.998C130.842 100.117 130.573 98.1994 130.478 96.2697C130.421 95.5876 130.478 95.057 130.478 94.697C130.46 94.5187 130.454 94.3393 130.459 94.1602Z" fill="#455A64"/>
<path d="M137.451 119.07C137.259 118.945 137.083 118.797 136.927 118.628C136.605 118.331 136.156 117.87 135.632 117.277C132.909 114.156 130.973 110.429 129.985 106.407C129.802 105.643 129.682 105.011 129.625 104.575C129.577 104.349 129.556 104.118 129.562 103.887C129.619 103.887 129.79 104.84 130.194 106.35C130.749 108.315 131.5 110.219 132.436 112.034C133.381 113.843 134.506 115.551 135.796 117.131C136.807 118.338 137.495 119.033 137.451 119.07Z" fill="#455A64"/>
<path d="M82.7675 143.053C82.7233 143.091 82.1359 142.39 81.0812 141.367C78.3261 138.694 75.0221 136.653 71.3987 135.385C70.0092 134.899 69.125 134.691 69.1376 134.634C69.3511 134.64 69.5632 134.672 69.7692 134.729C70.3425 134.845 70.9095 134.991 71.4682 135.164C75.1798 136.326 78.5397 138.403 81.2391 141.202C81.6462 141.623 82.0319 142.063 82.3949 142.522C82.5423 142.682 82.6676 142.86 82.7675 143.053Z" fill="#455A64"/>
<path d="M96.3019 69.0337C96.3019 69.0337 101.86 56.9765 106.843 52.2268C106.843 52.2268 118.376 32.4451 119.273 31.1124C120.17 29.7797 138.676 7.31372 138.676 7.31372L145.428 10.5791C145.428 10.5791 134.975 29.9945 131.356 34.3273C127.737 38.66 116.197 58.4418 116.166 63.3809C116.134 68.32 119.76 82.9036 119.76 82.9036C119.76 82.9036 108.53 80.9394 108.138 80.4404C107.746 79.9414 96.3019 69.0337 96.3019 69.0337Z" fill="#8E7469"/>
<path d="M114.909 60.4772C114.96 60.5088 114.549 61.1467 114.076 62.2709C112.831 65.2187 112.609 68.4982 113.444 71.587C113.76 72.7618 114.076 73.4818 114.031 73.4818C113.987 73.4818 113.911 73.3239 113.76 73.0144C113.539 72.5764 113.357 72.1199 113.217 71.6502C112.237 68.5241 112.462 65.1445 113.848 62.1762C114.056 61.7376 114.297 61.3153 114.568 60.913C114.777 60.6161 114.89 60.4772 114.909 60.4772Z" fill="#705A53"/>
<path d="M144.006 12.6705C144.006 12.6705 149.691 10.5105 150.562 9.75885L156.329 4.65552C156.329 4.65552 156.114 4.14392 154.579 4.22603C154.162 4.22894 153.749 4.31924 153.369 4.4911C152.988 4.66297 152.647 4.91261 152.369 5.22396C152.369 5.22396 154.32 1.43436 154.106 0.916443C153.891 0.398531 153.708 0.0322022 153.108 0.000622186C152.508 -0.0309578 150.853 1.15013 150.853 1.15013C150.782 0.877063 150.624 0.634521 150.403 0.459076C150.182 0.283631 149.91 0.184794 149.628 0.17747C148.623 0.17747 147.31 1.20698 147.31 1.20698C147.31 1.20698 147.594 0.221682 146.388 0.0764136C145.548 -0.0246425 144.303 1.33961 144.303 1.33961C144.303 1.33961 144.24 -0.0435888 142.825 0.625908C141.897 1.0554 139.446 6.94191 135.972 10.5294C132.499 14.1169 144.006 12.6705 144.006 12.6705Z" fill="#8E7469"/>
<path d="M151.145 0.695738C151.215 0.752582 150.855 1.28313 150.343 1.87051C149.832 2.4579 149.364 2.90003 149.295 2.83686C149.225 2.77371 149.585 2.24947 150.097 1.65577C150.609 1.06207 151.076 0.632578 151.145 0.695738Z" fill="#705A53"/>
<path d="M147.715 0.601526C147.778 0.671002 147.412 1.08154 146.995 1.60577C146.578 2.13 146.262 2.58475 146.18 2.54054C146.098 2.49633 146.3 1.95315 146.736 1.40366C147.172 0.854166 147.658 0.53205 147.715 0.601526Z" fill="#705A53"/>
<path d="M144.28 1.27089C144.355 1.32142 144.248 1.61827 144.04 1.94038C143.831 2.2625 143.591 2.47093 143.515 2.4204C143.44 2.36987 143.553 2.07302 143.762 1.7888C143.97 1.50458 144.204 1.22036 144.28 1.27089Z" fill="#705A53"/>
<path d="M78.4151 87.6925L80.7647 83.3344L96.4662 69.3698L103.035 74.972C103.035 74.972 105.214 87.143 105.561 87.6798C105.909 88.2167 102.763 94.9622 102.763 94.9622L98.38 98.196L93.0745 99.7939L87.7249 96.737L78.4151 87.6925Z" fill="#8E7469"/>
<path d="M93.3652 204.947C93.3652 204.947 100.616 202.869 104.305 200.526C107.993 198.183 176.263 150.244 177.463 149.322C178.663 148.4 182.061 143.069 183.956 138.642C185.85 134.214 188.408 138.787 187.335 141.402C186.261 144.017 184.177 150.301 180.242 152.967C176.307 155.632 107.267 203.747 107.267 203.747C107.267 203.747 92.1715 211.383 89.4619 209.103C87.0934 207.114 93.3652 204.947 93.3652 204.947Z" fill="#FF6600"/>
<path d="M175.662 169.694C178.892 169.694 181.51 167.076 181.51 163.846C181.51 160.615 178.892 157.997 175.662 157.997C172.432 157.997 169.813 160.615 169.813 163.846C169.813 167.076 172.432 169.694 175.662 169.694Z" fill="#263238"/>
<path d="M178.756 163.611C178.802 164.223 178.666 164.834 178.364 165.368C178.062 165.901 177.609 166.334 177.062 166.61C176.515 166.887 175.898 166.995 175.289 166.921C174.68 166.846 174.107 166.594 173.642 166.194C173.177 165.794 172.841 165.266 172.677 164.675C172.512 164.084 172.526 163.458 172.717 162.876C172.908 162.293 173.268 161.78 173.75 161.402C174.233 161.023 174.817 160.797 175.428 160.75C176.248 160.689 177.06 160.956 177.684 161.492C178.308 162.029 178.693 162.791 178.756 163.611Z" fill="#455A64"/>
<path d="M126.602 202.145C126.69 203.3 126.433 204.455 125.864 205.464C125.295 206.474 124.44 207.291 123.406 207.814C122.372 208.337 121.207 208.542 120.057 208.402C118.907 208.262 117.824 207.784 116.946 207.029C116.067 206.273 115.433 205.274 115.123 204.158C114.812 203.042 114.84 201.859 115.202 200.759C115.565 199.658 116.245 198.69 117.158 197.977C118.071 197.263 119.174 196.837 120.33 196.751C121.876 196.636 123.405 197.139 124.581 198.151C125.757 199.162 126.484 200.598 126.602 202.145Z" fill="#263238"/>
<path d="M123.857 202.353C123.903 202.965 123.766 203.576 123.465 204.11C123.163 204.644 122.71 205.076 122.163 205.352C121.615 205.629 120.998 205.737 120.39 205.663C119.781 205.589 119.208 205.336 118.743 204.936C118.278 204.536 117.942 204.008 117.777 203.417C117.613 202.827 117.627 202.2 117.818 201.618C118.009 201.035 118.369 200.522 118.851 200.144C119.333 199.766 119.917 199.539 120.529 199.492C121.349 199.431 122.16 199.698 122.784 200.234C123.408 200.771 123.794 201.533 123.857 202.353Z" fill="#455A64"/>
<path d="M105.443 154.812C102.777 147.978 97.0297 137.165 97.0297 137.165C97.0297 137.165 91.7432 126.92 89.8484 122.543C89.3127 121.152 89.0531 119.67 89.0841 118.179C89.0841 112.684 87.6315 108.004 83.9997 102.882L75.1573 92.3845C75.1573 92.3845 66.0813 104.619 73.0604 117.194C75.7132 121.975 77.3174 124.053 78.448 129.725C78.448 129.725 79.0796 132.883 84.7324 140.582C90.3852 148.281 90.4168 154.351 92.9432 161.381C95.4696 168.41 106.314 181.112 106.314 181.112L117.443 180.209C117.443 180.209 108.114 161.652 105.443 154.812Z" fill="#8E7469"/>
<path d="M87.4676 114.338C87.575 114.338 87.7076 116.195 88.4213 118.368C89.135 120.541 90.114 122.158 90.0256 122.158C89.7368 121.864 89.4978 121.524 89.3182 121.153C88.3269 119.43 87.7033 117.521 87.4866 115.545C87.4184 115.146 87.412 114.739 87.4676 114.338Z" fill="#705A53"/>
<path d="M123.829 187.958C123.097 187.601 122.4 187.178 121.745 186.694L123.64 187.111L127.139 184.642L117.425 180.221C117.425 180.221 111.822 171.675 111.74 171.574L103.782 178.016L108.955 184.875C108.955 184.875 110.37 193.232 111.203 194.236C112.037 195.24 116.534 197.211 116.534 197.211C116.534 197.211 117.494 197.135 119.503 197.059C120.051 197.051 120.581 196.865 121.014 196.529C121.447 196.192 121.759 195.725 121.903 195.196C124.65 195.076 124.176 193.781 124.176 193.781C124.601 193.717 125.006 193.562 125.364 193.325C125.722 193.088 126.024 192.776 126.248 192.41C126.248 192.41 125.105 192 126.804 192.518C128.503 193.036 129.551 191.886 129.45 190.819C129.349 189.751 125.301 188.69 123.829 187.958Z" fill="#8E7469"/>
<path d="M126.479 192.315C125.445 192.245 124.429 192.006 123.473 191.607C122.477 191.31 121.538 190.849 120.694 190.243C120.738 190.161 121.988 190.729 123.58 191.298C124.563 191.588 125.531 191.927 126.479 192.315Z" fill="#705A53"/>
<path d="M118.637 192.28C118.687 192.191 119.843 192.798 121.378 193.24C122.913 193.682 124.207 193.821 124.201 193.922C123.213 194.014 122.217 193.889 121.283 193.556C120.32 193.325 119.417 192.89 118.637 192.28Z" fill="#705A53"/>
<path d="M116.205 193.682C116.249 193.682 116.401 193.972 116.875 194.225C117.515 194.53 118.189 194.757 118.883 194.901C120.513 195.28 121.89 195.179 121.896 195.28C120.879 195.528 119.815 195.509 118.807 195.223C118.08 195.075 117.384 194.803 116.748 194.421C116.256 194.086 116.161 193.682 116.205 193.682Z" fill="#705A53"/>
<path d="M93.5927 115.488C91.4895 111.603 88.7546 108.104 86.0135 104.631L86.2661 116.467C86.9735 118.134 87.7378 119.884 89.1841 120.976C90.6305 122.069 92.9737 122.202 94.0664 120.762C95.1591 119.322 94.4832 117.136 93.5927 115.488Z" fill="#8E7469"/>
<path d="M75.1946 92.3842L78.4157 87.6914C78.4157 87.6914 92.5825 96.8622 98.3743 91.0894C104.166 85.3166 94.6605 72.4003 94.6605 72.4003L96.8395 68.1749L121.245 83.2133L127.744 90.4704C125.369 102.01 122.805 112.734 119.912 122.05C119.18 124.397 118.098 126.62 116.703 128.644L115.636 130.204L95.3805 129.573L94.4331 124.248L90.3214 121.722C90.4233 119.509 90.3218 117.291 90.0182 115.097C88.2561 106.33 75.1946 92.3842 75.1946 92.3842Z" fill="#FF6600"/>
<g opacity="0.3">
<path opacity="0.3" d="M106.844 126.408C110.633 126.408 114.694 124.709 117.113 121.823C120.41 117.894 121.983 112.084 121.617 107.366C119.728 113.012 114.511 123.042 106.844 126.408Z" fill="black"/>
</g>
<path d="M102.764 110.834C103.585 109.836 104.602 109.817 105.644 110.676L105.852 110.846L105.05 111.813L104.779 111.592C104.317 111.206 103.983 111.244 103.717 111.592C103.452 111.939 103.471 112.223 103.939 112.634C105.278 113.739 107.179 111.945 109.036 113.48C110.078 114.339 110.242 115.375 109.415 116.354C108.587 117.333 107.564 117.39 106.522 116.531L106.118 116.202L106.92 115.23L107.381 115.615C107.848 116 108.183 115.931 108.454 115.615C108.726 115.299 108.726 114.945 108.259 114.56C106.92 113.455 105.019 115.249 103.155 113.714C102.113 112.83 101.943 111.825 102.764 110.834Z" fill="white"/>
<path d="M109.927 111.489L109.592 110.681L112.895 111.786C112.996 111.376 113.11 110.971 113.23 110.567L109.093 109.222L107.369 105.401L106.523 106.424L108.253 110.106L105.417 107.763L104.577 108.786L111.083 114.161L111.929 113.138L109.927 111.489Z" fill="white"/>
<path d="M113.848 108.572L113.772 108.49L113.943 108.288C114.233 107.429 114.53 106.582 114.827 105.761L109.616 102.698L108.385 104.195L113.438 109.911C113.564 109.444 113.709 109.008 113.848 108.572ZM113.848 106.646L113.033 107.631L110.147 104.416L113.848 106.646Z" fill="white"/>
<path d="M112.156 101.531L115.384 104.196L115.478 103.918C115.502 103.625 115.557 103.335 115.643 103.053C115.643 102.958 115.693 102.857 115.725 102.756L112.996 100.508L113.88 99.4404L112.952 98.6698L110.343 101.828L111.272 102.592L112.156 101.531Z" fill="white"/>
<path d="M116.721 99.2759L115.111 97.9369L116.57 96.1684L115.641 95.4042L113.336 98.1895L116.336 100.665C116.45 100.204 116.582 99.7433 116.721 99.2759Z" fill="white"/>
<path d="M114.329 106.666C114.159 107.139 113.982 107.613 113.792 108.099L113.641 108.592C113.47 109.363 113.287 110.127 113.085 110.891L113.716 111.636L114.493 110.695L113.457 109.546L114.493 108.283L115.82 109.078L116.672 108.049L114.329 106.666Z" fill="white"/>
<path d="M115.308 103.685C115.264 103.862 115.226 104.039 115.181 104.215C115.107 104.503 115.004 104.783 114.872 105.049L117.436 107.159L118.276 106.135L115.308 103.685Z" fill="white"/>
<path d="M120.903 101.064L119.444 102.833L117.549 101.26L118.711 99.8515L117.777 99.0873L116.621 100.489L116.172 100.117C116.09 100.616 115.983 101.102 115.863 101.588L119.545 104.62L120.985 102.877L121.351 101.424L120.903 101.064Z" fill="white"/>
<path d="M117.336 91.3173C117.367 91.6808 117.367 92.0464 117.336 92.4099C117.336 93.111 117.26 94.1279 117.14 95.3848C116.503 101.932 114.749 108.321 111.955 114.276C111.418 115.413 110.951 116.322 110.603 116.935C110.442 117.262 110.254 117.574 110.041 117.87C110.168 117.527 110.318 117.194 110.49 116.872C110.805 116.24 111.235 115.324 111.753 114.181C113.076 111.194 114.18 108.114 115.056 104.966C115.923 101.815 116.556 98.604 116.951 95.3595C117.102 94.0963 117.197 93.1047 117.254 92.4036C117.256 92.04 117.283 91.677 117.336 91.3173Z" fill="#263238"/>
<g opacity="0.3">
<path opacity="0.3" d="M117.223 93.321C118.486 98.2728 117.412 105.953 115.063 110.463C113.945 112.629 112.997 115.768 110.698 116.583C114.424 109.35 116.643 101.436 117.223 93.321Z" fill="black"/>
</g>
<path d="M124.781 91.265C124.752 91.3985 124.712 91.5295 124.661 91.6566C124.554 91.9408 124.421 92.2882 124.257 92.7556C123.916 93.7093 123.442 95.0988 122.893 96.8294C122.343 98.56 121.731 100.619 121.029 102.931C120.328 105.242 119.495 107.743 118.421 110.308C117.407 112.725 116.137 115.027 114.631 117.173C113.407 118.929 111.957 120.515 110.318 121.891C109.215 122.821 108.004 123.614 106.711 124.253C106.362 124.43 106.003 124.588 105.637 124.727C105.516 124.789 105.386 124.834 105.252 124.86C105.252 124.86 105.757 124.614 106.654 124.14C107.916 123.472 109.1 122.667 110.185 121.74C111.786 120.353 113.204 118.767 114.404 117.022C115.878 114.887 117.123 112.602 118.118 110.207C119.185 107.68 120.013 105.154 120.739 102.861C121.465 100.568 122.097 98.5032 122.672 96.7789C123.246 95.0546 123.758 93.6777 124.143 92.7303C124.326 92.2566 124.491 91.9029 124.598 91.6566C124.64 91.518 124.702 91.3861 124.781 91.265Z" fill="#263238"/>
<path d="M75.9531 91.3759C76.0462 91.453 76.1309 91.5398 76.2058 91.6348L76.8816 92.4243C77.4753 93.1001 78.3406 94.0728 79.4459 95.2412C80.5512 96.4097 81.9028 97.7676 83.3492 99.3466C84.9455 101.032 86.399 102.846 87.6946 104.772C88.9789 106.719 89.9626 108.848 90.6126 111.088C91.1378 112.912 91.4328 114.794 91.4905 116.69C91.5437 117.967 91.4781 119.247 91.2947 120.512C91.2379 120.96 91.1621 121.301 91.1179 121.535C91.0972 121.655 91.0676 121.773 91.0294 121.888C90.9978 121.888 91.08 121.39 91.1684 120.493C91.302 119.234 91.3337 117.967 91.2631 116.703C91.163 114.827 90.8408 112.97 90.3031 111.17C89.6463 108.967 88.6673 106.872 87.3977 104.955C86.1114 103.044 84.6752 101.239 83.1028 99.5551L79.2564 95.4055C78.17 94.2181 77.3237 93.2138 76.73 92.5127C76.4521 92.159 76.2437 91.8811 76.0984 91.6853C75.9531 91.4895 75.9531 91.3822 75.9531 91.3759Z" fill="#263238"/>
<path d="M121.59 83.6033C121.489 83.5933 121.39 83.5721 121.294 83.5401L120.473 83.3001C119.759 83.098 118.742 82.7506 117.491 82.2832C114.258 81.0579 111.137 79.5554 108.163 77.7926C105.18 76.025 102.355 74.0049 99.7181 71.7545C98.7139 70.8892 97.9181 70.1565 97.3938 69.6323L96.7938 69.0007C96.7173 68.9354 96.6512 68.8587 96.598 68.7733C96.6857 68.821 96.7665 68.8805 96.838 68.9502L97.4696 69.5123C98.0191 70.0113 98.8339 70.706 99.8571 71.5524C105.19 75.9493 111.176 79.4887 117.599 82.0432C118.824 82.5359 119.835 82.9148 120.529 83.1549L121.331 83.4517C121.425 83.4892 121.512 83.5402 121.59 83.6033Z" fill="#263238"/>
<path d="M94.9386 70.9863C95.0174 71.1229 95.0829 71.2667 95.1344 71.4158C95.2607 71.7 95.4439 72.1169 95.7154 72.6411C96.5113 74.1 97.4083 75.5013 98.3997 76.8349C98.9998 77.7002 99.6629 78.6476 100.295 79.715C100.998 80.8462 101.56 82.0595 101.968 83.3278C102.426 84.7551 102.532 86.2718 102.278 87.749C102.142 88.5302 101.873 89.2823 101.482 89.9722C101.066 90.6758 100.519 91.2932 99.8714 91.7912C98.5613 92.7132 97.0415 93.2929 95.4502 93.4776C93.9836 93.6641 92.501 93.6896 91.029 93.5534C88.5475 93.3456 86.1127 92.7577 83.8098 91.8102C82.254 91.1793 80.7715 90.3809 79.3886 89.4291C78.9022 89.0943 78.5359 88.7975 78.2959 88.6143C78.1678 88.5233 78.0493 88.4197 77.9422 88.3048C77.9422 88.2732 78.4664 88.6901 79.458 89.3217C80.854 90.2222 82.3348 90.9837 83.8792 91.5954C86.1943 92.4989 88.6323 93.0483 91.1111 93.225C92.5545 93.3503 94.0073 93.3185 95.4438 93.1302C96.9801 92.9534 98.4478 92.3954 99.7135 91.507C100.319 91.032 100.829 90.447 101.217 89.7827C101.59 89.1259 101.848 88.4104 101.981 87.6669C102.223 86.2474 102.125 84.7909 101.697 83.4162C100.882 80.7698 99.3598 78.7108 98.1976 76.9676C97.2198 75.6147 96.3497 74.1871 95.5954 72.698C95.3365 72.1611 95.1723 71.7316 95.0649 71.4348C95.0067 71.2903 94.9644 71.1399 94.9386 70.9863Z" fill="#263238"/>
<path d="M69.2634 73.9736C68.919 73.2038 68.7056 72.3819 68.6318 71.5419C68.6697 70.5945 69.2255 69.7481 69.4149 68.8134C69.8318 66.7544 68.2844 64.6827 66.3517 63.8553C64.419 63.0279 63.8253 61.7521 61.7157 62.0553C60.931 61.6012 60.0071 61.4505 59.1187 61.6316C58.2303 61.8126 57.4391 62.3129 56.8947 63.0379C56.3502 63.7628 56.0902 64.6621 56.1639 65.5657C56.2376 66.4693 56.6398 67.3146 57.2945 67.9418C57.6924 68.3334 58.204 68.6808 58.343 69.205C58.6146 70.2598 57.3451 71.0177 56.8903 72.0093C56.7142 72.4059 56.6704 72.8486 56.7655 73.272C56.8605 73.6954 57.0892 74.077 57.4179 74.3603C57.7465 74.6436 58.1576 74.8136 58.5904 74.8452C59.0232 74.8768 59.4546 74.7683 59.8209 74.5357C60.0041 75.3441 59.6125 76.1589 59.3536 76.9484C59.0946 77.7379 59.0062 78.7232 59.6251 79.2727C59.8909 79.4718 60.2098 79.5877 60.5414 79.6057C60.8731 79.6237 61.2026 79.5429 61.4884 79.3737C62.0557 79.0267 62.5476 78.5692 62.9347 78.0284C63.57 79.3131 63.8158 80.7555 63.6421 82.178C64.2954 81.8246 64.855 81.3205 65.2746 80.7076C65.6942 80.0947 65.9616 79.3906 66.0548 78.6537C66.8175 79.6547 67.1942 80.8968 67.1159 82.1528C68.1787 81.1101 68.9394 79.7993 69.3175 78.3593C69.6956 76.9193 69.6769 75.4038 69.2634 73.9736Z" fill="#263238"/>
<path d="M66.8192 68.3588C64.8107 66.5525 62.998 64.9924 60.9896 63.186C60.7503 63.9725 60.7012 64.8045 60.8463 65.6137C60.9914 66.4228 61.3266 67.1859 61.8242 67.8402C62.3219 68.4945 62.9678 69.0213 63.7088 69.3772C64.4498 69.7331 65.2648 69.9079 66.0866 69.8873C66.3597 69.8955 66.6307 69.837 66.8761 69.7168C66.995 69.6588 67.0956 69.5692 67.1669 69.4578C67.2382 69.3463 67.2774 69.2174 67.2803 69.0852C67.2552 68.9397 67.2016 68.8006 67.1224 68.6759C67.0433 68.5512 66.9402 68.4435 66.8192 68.3588Z" fill="#FF6600"/>
<path d="M62.1401 77.9133C62.1401 77.9133 62.3107 77.768 62.5444 77.4648C62.8591 77.0266 63.0291 76.5011 63.0307 75.9616C63.0252 75.16 62.7592 74.3819 62.2728 73.7447C61.6577 72.9582 60.9728 72.2289 60.2264 71.5657C59.4485 70.8738 58.8448 70.0083 58.4642 69.0393C58.2959 68.6343 58.2221 68.1963 58.2483 67.7586C58.2746 67.3208 58.4003 66.8948 58.6158 66.5129C58.7604 66.2617 58.953 66.0414 59.1828 65.8648C59.4126 65.6881 59.6749 65.5585 59.9548 65.4834C60.1076 65.4457 60.2654 65.4329 60.4222 65.4455C60.5296 65.4455 60.5801 65.4455 60.5801 65.4834C60.5801 65.5212 60.3527 65.4834 59.9927 65.6034C59.4881 65.7875 59.0696 66.152 58.8179 66.6266C58.6404 66.9784 58.5422 67.365 58.5302 67.7589C58.5182 68.1528 58.5927 68.5446 58.7485 68.9066C59.1327 69.8171 59.7178 70.629 60.4601 71.2814C61.2207 71.9571 61.9106 72.7084 62.5191 73.5236C63.031 74.2167 63.2937 75.0625 63.2644 75.9237C63.2377 76.5043 63.015 77.0586 62.6328 77.4964C62.5128 77.6805 62.3416 77.8254 62.1401 77.9133Z" fill="#455A64"/>
<path d="M84.2578 49.5183C82.0839 47.17 79.1057 45.7258 75.9156 45.4731C72.7255 45.2203 69.5571 46.1774 67.0404 48.1541L66.5225 48.5583C61.1855 53.2826 62.2087 60.4513 67.072 65.6557L81.8199 84.6037L99.8963 83.5363L99.3278 80.8394C99.3278 80.8394 95.9235 73.8918 95.4877 73.4686L94.4645 72.2054C94.4645 72.2054 99.1889 67.1526 95.0329 61.7145C93.0055 59.1186 88.4453 54.0532 84.2578 49.5183Z" fill="#8E7469"/>
<path d="M94.4703 72.2252C92.0227 74.2204 89.0371 75.4427 85.8931 75.7369C85.8931 75.7369 90.5922 78.3012 95.5756 73.6084L94.4703 72.2252Z" fill="#705A53"/>
<path d="M85.9813 53.851C86.1399 54.0491 86.2148 54.3013 86.19 54.5538C86.1652 54.8063 86.0427 55.0392 85.8487 55.2026C85.7572 55.2867 85.6498 55.3516 85.5329 55.3937C85.416 55.4358 85.2919 55.4541 85.1678 55.4476C85.0437 55.4412 84.9222 55.41 84.8102 55.356C84.6983 55.302 84.5983 55.2263 84.516 55.1332C84.3564 54.9348 84.2802 54.6821 84.3038 54.4286C84.3274 54.1751 84.4488 53.9407 84.6424 53.7752C84.7344 53.6906 84.8425 53.6253 84.9603 53.5832C85.078 53.541 85.203 53.523 85.3279 53.5301C85.4527 53.5371 85.5749 53.5692 85.6871 53.6243C85.7994 53.6794 85.8994 53.7565 85.9813 53.851Z" fill="#263238"/>
<path d="M84.7512 52.2155C84.7512 52.3923 83.8164 52.4176 82.9954 53.0681C82.1743 53.7187 81.8901 54.6092 81.7322 54.5776C81.5743 54.5461 81.6058 54.3124 81.7322 53.946C81.8938 53.4169 82.216 52.9511 82.6543 52.6134C83.0818 52.2699 83.6094 52.0748 84.1575 52.0576C84.5365 52.0197 84.7954 52.1334 84.7512 52.2155Z" fill="#263238"/>
<path d="M78.0921 60.5439C78.2526 60.7424 78.3286 60.996 78.3038 61.25C78.279 61.5041 78.1553 61.7382 77.9595 61.9018C77.868 61.9863 77.7604 62.0515 77.6431 62.0935C77.5259 62.1355 77.4014 62.1536 77.2771 62.1465C77.1527 62.1394 77.0311 62.1074 76.9194 62.0524C76.8077 61.9973 76.7082 61.9203 76.6268 61.826C76.4683 61.6279 76.3934 61.3758 76.4182 61.1232C76.4429 60.8707 76.5654 60.6379 76.7594 60.4744C76.851 60.3904 76.9583 60.3254 77.0752 60.2833C77.1922 60.2413 77.3163 60.2229 77.4404 60.2294C77.5645 60.2359 77.686 60.267 77.7979 60.321C77.9098 60.375 78.0098 60.4508 78.0921 60.5439Z" fill="#263238"/>
<path d="M76.6152 58.9472C76.6152 59.1241 75.7057 59.2504 74.9541 59.9894C74.2025 60.7283 74.0193 61.6378 73.8488 61.6252C73.6783 61.6126 73.6972 61.3726 73.7667 60.9936C73.8727 60.4511 74.1441 59.9547 74.5435 59.5725C74.9297 59.1866 75.4305 58.9362 75.971 58.8588C76.3752 58.7767 76.6152 58.8651 76.6152 58.9472Z" fill="#263238"/>
<path d="M84.9776 63.3695C85.3085 62.8904 85.6966 62.4534 86.1334 62.0684C86.3229 61.8852 86.4934 61.6831 86.4113 61.5126C86.3292 61.342 86.0766 61.1652 85.7797 61.001C85.186 60.641 84.5544 60.2746 83.8849 59.883C81.2196 58.2725 79.1163 56.8893 79.1858 56.7819C79.2553 56.6745 81.4596 57.8872 84.1249 59.4978L86.0197 60.641C86.3542 60.7918 86.6248 61.0557 86.784 61.3863C86.8103 61.485 86.8144 61.5884 86.7958 61.6889C86.7772 61.7894 86.7365 61.8845 86.6766 61.9673C86.5839 62.0903 86.4756 62.2007 86.3545 62.2958C85.9425 62.7101 85.4799 63.0709 84.9776 63.3695Z" fill="#263238"/>
<path d="M73.9238 55.2979C74.0185 55.5885 73.1153 56.1253 72.2374 57.0032C71.3595 57.8812 70.7784 58.7654 70.4942 58.6643C70.3616 58.6138 70.33 58.2917 70.4942 57.8243C70.7011 57.2253 71.0475 56.6841 71.5048 56.2453C71.955 55.7958 72.5045 55.4583 73.109 55.26C73.5575 55.1274 73.8796 55.1653 73.9238 55.2979Z" fill="#263238"/>
<path d="M83.1907 50.6047C83.1907 50.9079 82.4707 51.1605 81.776 51.6911C81.0812 52.2216 80.6138 52.809 80.3233 52.7143C80.1906 52.6701 80.1338 52.4111 80.2475 52.0321C80.421 51.5517 80.7334 51.1337 81.145 50.8312C81.5566 50.5287 82.0488 50.3553 82.5591 50.3331C82.9507 50.3331 83.1844 50.4658 83.1907 50.6047Z" fill="#263238"/>
<path d="M82.9933 65.8442C83.1259 65.7305 83.827 66.6274 85.0965 66.6653C86.366 66.7032 87.2439 65.8505 87.345 65.9705C87.446 66.0905 87.2692 66.3116 86.8776 66.64C86.3585 67.0604 85.7076 67.2841 85.0397 67.2716C84.3982 67.2614 83.7861 67.0007 83.3343 66.5453C83.0059 66.1916 82.9301 65.8884 82.9933 65.8442Z" fill="#263238"/>
<path d="M76.2048 43.4244C76.1076 43.1375 75.9176 42.8912 75.6648 42.7243C75.4121 42.5573 75.111 42.4792 74.809 42.5023C74.43 42.5023 73.9374 42.9823 73.5774 43.1023C73.024 43.2552 72.4571 43.3546 71.8847 43.3991C70.1134 43.654 68.444 44.3829 67.053 45.5087C66.8402 45.7006 66.6097 45.8719 66.3645 46.0203C66.1038 46.1416 65.8334 46.2409 65.5561 46.3171C64.3807 46.7248 63.3377 47.4434 62.5381 48.3965C61.7385 49.3496 61.2121 50.5016 61.0149 51.7299C60.9869 52.0967 60.917 52.4591 60.8064 52.81C60.6294 53.1706 60.4179 53.5133 60.1748 53.8332C59.3095 55.2227 59.278 56.9533 59.278 58.5828C59.278 59.9534 59.4232 61.5829 60.6169 62.2524C60.7984 62.3228 60.9592 62.438 61.0843 62.5871C61.1795 62.7994 61.1996 63.0378 61.1412 63.263C61.096 63.9263 61.2725 64.5859 61.6429 65.1381C62.0133 65.6903 62.5566 66.1038 63.1876 66.3136C63.118 66.4517 63.0774 66.6026 63.0682 66.757C63.059 66.9114 63.0814 67.0661 63.134 67.2115C63.1866 67.357 63.2683 67.4901 63.3742 67.6029C63.4801 67.7157 63.6078 67.8056 63.7497 67.8673C63.9288 67.9046 64.0985 67.9776 64.2486 68.0821C64.3851 68.2639 64.4564 68.4864 64.4508 68.7137C64.526 69.2243 64.7598 69.6984 65.1191 70.0689C65.4783 70.4395 65.9449 70.6879 66.4529 70.779L68.5751 71.5559L72.9016 73.1285C73.6848 72.2064 73.4068 69.8884 71.7647 67.4441C69.9204 64.6777 67.6719 61.5576 65.1013 59.4544C64.9367 59.3501 64.8137 59.1915 64.7539 59.006C64.7034 58.7344 64.9434 58.4944 65.1392 58.2986C65.9842 57.4487 66.5559 56.3656 66.781 55.1885C67.0061 54.0113 66.8742 52.7937 66.4024 51.692C67.227 51.6794 68.0305 51.4289 68.7162 50.9707C69.4019 50.5124 69.9407 49.8659 70.2678 49.1088C70.3028 48.9931 70.3608 48.8857 70.4383 48.793C70.6467 48.5782 70.9878 48.6351 71.2784 48.6919C72.7363 48.9609 74.2424 48.7388 75.5606 48.0603C75.8455 47.8531 76.1744 47.7144 76.5218 47.6553C76.8691 47.5961 77.2253 47.618 77.5628 47.7193C78.1919 47.7985 78.8285 47.7985 79.4576 47.7193C79.882 47.706 80.2885 47.5452 80.6071 47.2645C81.0934 46.7403 80.8913 45.8624 80.4808 45.275C79.4639 43.7718 78.4344 42.7928 76.2048 43.4244Z" fill="#263238"/>
<path d="M70.4954 55.4568C70.4954 55.4568 70.3818 55.5768 70.1038 55.6462C69.7077 55.7226 69.2973 55.6601 68.9417 55.4694C68.6652 55.33 68.4335 55.1158 68.2727 54.8511C68.1119 54.5865 68.0286 54.2821 68.0322 53.9725C68.0205 53.5832 68.1381 53.201 68.3667 52.8856C68.5952 52.5702 68.9218 52.3394 69.2954 52.2293C69.4183 52.2038 69.5458 52.2128 69.6639 52.2551C69.782 52.2975 69.8862 52.3716 69.9649 52.4693C70.0416 52.5788 70.0768 52.7121 70.064 52.8453C70.0513 52.9784 69.9915 53.1026 69.8954 53.1956C69.7493 53.3203 69.5792 53.4137 69.3957 53.4702C69.2121 53.5266 69.0189 53.545 68.828 53.5241C68.5179 53.5082 68.2189 53.404 67.966 53.2239C67.7131 53.0437 67.5169 52.7951 67.4006 52.5072C67.2485 52.1282 67.2485 51.7051 67.4006 51.3261C67.5143 51.0671 67.6406 50.9661 67.6532 50.9787C67.6659 50.9913 67.6027 51.124 67.5459 51.3703C67.462 51.715 67.4976 52.078 67.6469 52.3998C67.7576 52.6256 67.9279 52.8167 68.1394 52.9526C68.351 53.0884 68.5957 53.1637 68.847 53.1704C69.1249 53.1903 69.4001 53.1046 69.6175 52.9304C69.6933 52.8419 69.6996 52.7788 69.6175 52.703C69.5808 52.6623 69.534 52.6322 69.4819 52.6155C69.4297 52.5989 69.3741 52.5964 69.3207 52.6082C69.0389 52.7098 68.7954 52.896 68.6235 53.1414C68.4516 53.3868 68.3598 53.6793 68.3606 53.9788C68.3479 54.2316 68.4047 54.4831 68.525 54.7058C68.6453 54.9286 68.8244 55.114 69.0428 55.242C69.3454 55.4298 69.6975 55.5223 70.0533 55.5073C70.1992 55.4792 70.347 55.4623 70.4954 55.4568Z" fill="#263238"/>
<path d="M70.64 69.3196C70.5137 69.3196 66.0862 71.126 69.0926 74.7071C72.099 78.2883 75.0739 74.5366 74.9918 74.4292C74.9097 74.3219 70.64 69.3196 70.64 69.3196Z" fill="#8E7469"/>
<path d="M72.7928 73.9603C72.7928 73.9603 72.7928 74.0614 72.6981 74.194C72.6044 74.3824 72.4414 74.5273 72.2433 74.5982C71.8857 74.6485 71.5212 74.6018 71.1879 74.4629C70.8545 74.324 70.5646 74.0981 70.3485 73.8087C70.081 73.509 69.8846 73.1528 69.7738 72.7666C69.713 72.627 69.6871 72.4748 69.6981 72.323C69.7091 72.1712 69.7567 72.0243 69.8369 71.895C69.8939 71.8156 69.9767 71.7583 70.0711 71.733C70.1655 71.7077 70.2658 71.7158 70.3549 71.756C70.4812 71.8192 70.5191 71.9076 70.5443 71.9013C70.5696 71.895 70.5443 71.775 70.418 71.6487C70.3235 71.5781 70.2074 71.5424 70.0896 71.5476C69.9287 71.5565 69.7773 71.6266 69.6664 71.7434C69.5436 71.8952 69.4622 72.0762 69.4301 72.2688C69.398 72.4614 69.4163 72.659 69.4833 72.8424C69.5929 73.2823 69.8099 73.6881 70.1149 74.0235C70.7465 74.7309 71.6812 75.0972 72.3255 74.8067C72.4434 74.7536 72.5481 74.6751 72.6322 74.5769C72.7163 74.4786 72.7776 74.3629 72.8118 74.2382C72.8244 74.0551 72.7928 73.9603 72.7928 73.9603Z" fill="#705A53"/>
<path d="M61.2294 64.0311C61.4955 63.8793 61.772 63.7464 62.0568 63.6332C62.7241 63.3049 63.3144 62.8392 63.789 62.2666C64.2636 61.6941 64.6117 61.0276 64.8105 60.311C64.8674 60.0022 64.9476 59.6981 65.0505 59.4015C65.1414 59.715 65.1414 60.048 65.0505 60.3615C64.9025 61.1382 64.5602 61.8647 64.0555 62.4733C63.5507 63.0818 62.9001 63.5526 62.1641 63.8416C61.8744 63.9851 61.5521 64.0504 61.2294 64.0311Z" fill="#455A64"/>
<path d="M66.9959 61.3488C66.9824 61.719 66.8988 62.0834 66.7496 62.4225C66.5003 63.2956 66.0203 64.0854 65.3601 64.7089C64.6446 65.2784 63.7473 65.5701 62.8337 65.5299C62.4633 65.5564 62.0918 65.498 61.7473 65.3594C62.1052 65.3107 62.4662 65.2896 62.8273 65.2963C63.6772 65.279 64.498 64.984 65.1643 64.4562C65.7783 63.8624 66.2528 63.1398 66.5538 62.3404C66.6599 61.9929 66.8084 61.6599 66.9959 61.3488Z" fill="#455A64"/>
</svg>
