<svg width="232" height="180" viewBox="0 0 232 180" fill="none" xmlns="http://www.w3.org/2000/svg">
<rect x="231.882" y="58.2351" width="121.764" height="231.882" transform="rotate(90 231.882 58.2351)" fill="#4861E6"/>
<path d="M151.971 179.488C175.327 171.748 159.315 140.855 159.315 140.855L57.2237 150.462C55.2759 150.448 53.3446 150.82 51.541 151.556C49.7374 152.291 48.0973 153.377 46.715 154.749C45.3327 156.121 44.2357 157.754 43.4871 159.552C42.7385 161.35 42.3531 163.279 42.3531 165.227C42.3531 169.145 43.9097 172.903 46.6803 175.673C49.4509 178.444 53.2087 180 57.1269 180L151.942 179.488" fill="#263238"/>
<path d="M175.867 179.459C198.633 171.777 182.94 140.855 182.94 140.855L83.4222 150.23C73.7472 150.356 68.958 155.068 68.958 164.965C68.958 173.121 71.9863 180 83.3932 179.768L175.867 179.459Z" fill="#263238"/>
<path d="M152.765 146.069H152.485H151.653L148.469 146.204L136.763 146.785L98.1399 148.903C96.2049 148.99 94.3957 149.155 92.5574 149.174C90.7191 149.194 88.9002 149.281 87.12 149.387C85.3398 149.494 83.5886 149.629 81.8858 149.813C80.1868 149.932 78.5111 150.277 76.9032 150.838C75.3554 151.428 73.9458 152.331 72.7623 153.489C71.6463 154.634 70.7915 156.007 70.2564 157.514C69.7549 158.923 69.4109 160.383 69.2309 161.868C69.0475 163.234 68.957 164.611 68.96 165.99C68.9244 168.364 69.372 170.721 70.2758 172.917C70.9626 174.546 72.0232 175.991 73.3718 177.135C74.1949 177.847 75.1522 178.386 76.1872 178.722C76.8935 178.944 76.9032 178.877 76.1872 178.625C75.1887 178.242 74.2677 177.682 73.4686 176.971C72.1758 175.822 71.1632 174.392 70.508 172.791C69.6519 170.638 69.2374 168.335 69.2889 166.019C69.3046 164.659 69.4081 163.301 69.5985 161.955C69.7815 160.506 70.1255 159.081 70.6241 157.708C71.1429 156.259 71.9679 154.939 73.0428 153.838C74.1884 152.732 75.5483 151.873 77.0386 151.312C78.6007 150.775 80.2277 150.45 81.8762 150.345C83.5693 150.171 85.3108 150.045 87.091 149.939C88.8712 149.832 90.6708 149.764 92.509 149.735C94.3473 149.706 96.2146 149.542 98.1012 149.455L136.724 147.181L148.421 146.427L151.604 146.194L152.427 146.127C152.542 146.128 152.657 146.108 152.765 146.069Z" fill="#455A64"/>
<path d="M175.241 155.812C175.001 155.996 174.729 156.134 174.438 156.219C173.661 156.503 172.846 156.669 172.02 156.712C170.642 156.818 169.257 156.621 167.964 156.134C166.671 155.646 165.5 154.881 164.535 153.892C163.57 152.903 162.834 151.714 162.378 150.409C161.923 149.104 161.76 147.715 161.9 146.341C161.966 145.515 162.151 144.704 162.451 143.932C162.674 143.39 162.848 143.119 162.877 143.138C162.576 144.19 162.378 145.269 162.287 146.36C162.2 147.666 162.389 148.976 162.841 150.205C163.293 151.433 163.998 152.553 164.909 153.493C165.821 154.432 166.92 155.169 168.135 155.657C169.35 156.145 170.653 156.373 171.962 156.325C173.069 156.263 174.168 156.091 175.241 155.812Z" fill="#455A64"/>
<path d="M145.268 57.0106C132.603 58.4328 130.552 67.0339 124.651 75.4996L116.108 91.2603L131.81 100.887L131.268 125.075L124.844 146.476L183.988 143.138L177.399 122.82L185.274 91.7634C185.874 87.5257 187.5 79.6599 186.397 75.49C182.952 62.477 169.427 58.6747 160.119 56.256C158.184 55.7625 148.935 55.7915 147.329 56.1785" fill="#FF6600"/>
<path d="M138.592 123.199C139.346 123.058 140.125 123.222 140.759 123.654C141.486 124.074 142.072 124.7 142.443 125.453C142.894 126.393 142.97 127.469 142.656 128.462C142.368 129.463 141.715 130.319 140.827 130.862C140.101 131.284 139.265 131.48 138.428 131.423C137.662 131.438 136.921 131.149 136.367 130.62C137.029 130.88 137.727 131.034 138.437 131.075C139.195 131.069 139.937 130.858 140.585 130.465C141.365 129.965 141.939 129.201 142.203 128.314C142.468 127.426 142.405 126.473 142.027 125.628C141.706 124.944 141.204 124.362 140.575 123.944C139.959 123.591 139.289 123.339 138.592 123.199Z" fill="#FAFAFA"/>
<path d="M152.707 97.0748C152.707 97.1715 158.744 99.271 166.252 101.757C173.76 104.244 179.894 106.189 179.933 106.092C179.971 105.995 173.896 103.896 166.388 101.4C158.88 98.9034 152.707 96.978 152.707 97.0748Z" fill="#263238"/>
<g opacity="0.3">
<path opacity="0.3" d="M177.011 110.06C175.895 115.205 174.437 120.27 172.648 125.221C171.515 128.367 169.906 131.319 167.878 133.977C164.877 137.434 160.878 139.875 156.432 140.963C152 142.036 147.404 142.263 142.887 141.63L165.382 128.927L171.361 108.135L177.011 110.06Z" fill="black"/>
</g>
<path d="M131.276 124.416C131.372 123.86 131.421 123.297 131.421 122.733C131.479 121.533 131.557 119.956 131.644 118.05C131.818 114.093 132.012 108.617 132.195 102.57C132.379 96.5232 132.515 91.0471 132.582 87.09C132.582 85.155 132.582 83.5973 132.641 82.3976C132.67 81.8197 132.651 81.2404 132.582 80.6658C132.485 81.2348 132.433 81.8107 132.428 82.3879C132.37 83.5876 132.292 85.1647 132.195 87.0707C132.031 91.0278 131.828 96.5038 131.654 102.551C131.479 108.598 131.334 114.064 131.257 118.031C131.257 119.966 131.257 121.514 131.209 122.723C131.187 123.288 131.21 123.855 131.276 124.416Z" fill="#263238"/>
<path d="M118.409 87.0714C120.52 88.6232 122.735 90.0293 125.037 91.28C127.252 92.6826 129.56 93.9335 131.945 95.0243C129.838 93.4632 127.623 92.0536 125.317 90.806C123.107 89.3973 120.798 88.1493 118.409 87.0714Z" fill="#263238"/>
<path d="M147.966 77.2606C147.547 77.9055 146.889 78.3579 146.137 78.5183C145.441 78.7166 144.705 78.7319 144.001 78.5626C143.297 78.3933 142.648 78.0452 142.118 77.552C141.588 77.0588 141.194 76.4371 140.974 75.7471C140.754 75.057 140.717 74.322 140.864 73.6131C141.042 72.7912 141.46 72.0404 142.064 71.4555C142.318 71.1705 142.625 70.9384 142.969 70.7723C143.313 70.6063 143.686 70.5097 144.067 70.488C143.424 70.7895 142.832 71.1912 142.315 71.6781C141.801 72.2171 141.443 72.886 141.28 73.6131C141.112 74.5176 141.277 75.4523 141.745 76.2447C142.189 77.0532 142.916 77.6697 143.786 77.9765C144.505 78.2108 145.273 78.2475 146.011 78.083C146.702 77.9131 147.361 77.6356 147.966 77.2606Z" fill="#FAFAFA"/>
<path d="M135.512 93.9204C135.058 93.2989 134.87 92.5228 134.989 91.7628C135.05 91.0405 135.297 90.3463 135.706 89.7477C136.115 89.1491 136.672 88.6666 137.322 88.3471C137.973 88.0276 138.695 87.882 139.419 87.9244C140.143 87.9669 140.843 88.196 141.452 88.5894C142.147 89.0679 142.686 89.7411 143 90.5244C143.344 91.2092 143.403 92.0022 143.164 92.7303C143.113 92.0212 142.946 91.3252 142.671 90.6696C142.342 89.9886 141.833 89.41 141.2 88.9958C140.41 88.5271 139.481 88.3489 138.573 88.492C137.665 88.6351 136.836 89.0904 136.227 89.7795C135.75 90.3662 135.443 91.072 135.337 91.8209C135.278 92.5255 135.337 93.2351 135.512 93.9204Z" fill="#FAFAFA"/>
<path d="M135.512 115.274C135.058 114.652 134.87 113.876 134.989 113.116C135.05 112.394 135.297 111.7 135.706 111.101C136.115 110.502 136.672 110.02 137.322 109.7C137.973 109.381 138.695 109.235 139.419 109.278C140.143 109.32 140.843 109.549 141.452 109.943C142.147 110.421 142.686 111.094 143 111.878C143.344 112.562 143.403 113.355 143.164 114.084C143.113 113.374 142.946 112.678 142.671 112.023C142.342 111.342 141.833 110.763 141.2 110.349C140.414 109.887 139.492 109.711 138.59 109.853C137.689 109.994 136.864 110.443 136.257 111.123C135.779 111.71 135.472 112.416 135.366 113.164C135.297 113.871 135.346 114.584 135.512 115.274Z" fill="#FAFAFA"/>
<path d="M154.189 88.6496C153.423 88.6722 152.678 88.3904 152.119 87.8659C151.462 87.3455 150.973 86.6418 150.716 85.8438C150.417 84.8459 150.503 83.7722 150.958 82.8349C151.398 81.8895 152.174 81.1413 153.135 80.7354C153.918 80.4339 154.772 80.3667 155.592 80.5419C155.971 80.5893 156.338 80.7111 156.67 80.9004C157.002 81.0897 157.293 81.3427 157.527 81.6449C156.923 81.2984 156.271 81.0441 155.592 80.8902C154.842 80.776 154.075 80.8732 153.377 81.1708C152.538 81.5484 151.861 82.2125 151.467 83.0441C151.073 83.8756 150.989 84.8202 151.229 85.7084C151.446 86.4341 151.857 87.0865 152.419 87.595C152.948 88.0394 153.546 88.3955 154.189 88.6496Z" fill="#FAFAFA"/>
<path d="M146.61 97.183C147.271 97.5774 147.747 98.2176 147.936 98.9632C148.24 99.8537 148.233 100.821 147.917 101.707C147.6 102.593 146.993 103.346 146.193 103.842C145.394 104.339 144.45 104.549 143.515 104.44C142.58 104.33 141.71 103.907 141.047 103.24C140.469 102.752 140.105 102.057 140.031 101.305C140.354 101.94 140.779 102.519 141.289 103.017C141.857 103.52 142.554 103.855 143.302 103.985C144.211 104.112 145.136 103.917 145.916 103.433C146.695 102.948 147.28 102.205 147.568 101.334C147.771 100.602 147.771 99.8298 147.568 99.0987C147.362 98.4095 147.038 97.7614 146.61 97.183Z" fill="#FAFAFA"/>
<path d="M131.248 68.1948C131.621 68.1218 132.005 68.1245 132.377 68.2026C132.75 68.2807 133.102 68.4327 133.415 68.6495C134.142 69.0676 134.731 69.6899 135.108 70.4394C135.426 71.0959 135.566 71.8243 135.515 72.5519C135.463 73.2795 135.222 73.9809 134.814 74.586C134.407 75.1912 133.848 75.6789 133.193 76.0004C132.539 76.322 131.811 76.4662 131.083 76.4186C130.317 76.4334 129.576 76.1447 129.022 75.6155C129.686 75.8693 130.384 76.0194 131.093 76.0606C131.85 76.0628 132.594 75.8552 133.241 75.4608C134.011 74.9574 134.577 74.1959 134.837 73.3129C135.104 72.4327 135.05 71.486 134.682 70.6426C134.364 69.9575 133.862 69.3745 133.231 68.9591C132.618 68.5938 131.947 68.3354 131.248 68.1948Z" fill="#FAFAFA"/>
<path d="M157.914 93.8432C157.527 93.1797 157.42 92.3899 157.614 91.647C157.764 90.8226 158.151 90.0596 158.727 89.4508C159.468 88.718 160.453 88.284 161.494 88.2317C162.432 88.168 163.364 88.4295 164.132 88.9722C164.901 89.5149 165.458 90.3058 165.712 91.2116C165.987 91.9288 165.966 92.7254 165.654 93.4272C165.674 92.7137 165.579 92.0016 165.373 91.318C165.115 90.6075 164.667 89.9816 164.077 89.5088C163.34 88.9596 162.435 88.6859 161.517 88.7354C160.6 88.7849 159.729 89.1544 159.056 89.7797C158.522 90.313 158.144 90.9821 157.962 91.7147C157.836 92.4175 157.82 93.1355 157.914 93.8432Z" fill="#FAFAFA"/>
<path d="M148.333 109.529C149.088 109.388 149.867 109.551 150.501 109.983C151.228 110.405 151.817 111.031 152.194 111.783C152.631 112.727 152.706 113.799 152.407 114.795C152.107 115.792 151.453 116.644 150.568 117.191C149.844 117.609 149.013 117.804 148.179 117.752C147.409 117.77 146.665 117.481 146.108 116.949C146.775 117.204 147.476 117.354 148.188 117.394C148.943 117.395 149.683 117.188 150.326 116.795C151.106 116.294 151.68 115.531 151.945 114.643C152.209 113.756 152.146 112.803 151.768 111.957C151.447 111.274 150.945 110.692 150.317 110.274C149.703 109.914 149.032 109.662 148.333 109.529Z" fill="#FAFAFA"/>
<path d="M163.764 137.467C163.764 136.697 164.071 135.96 164.615 135.416C165.09 134.868 165.699 134.453 166.383 134.21C167.066 133.968 167.8 133.907 168.514 134.032C169.228 134.158 169.898 134.466 170.457 134.928C171.017 135.389 171.447 135.987 171.707 136.664C171.99 137.453 172.034 138.308 171.833 139.121C171.703 139.879 171.283 140.555 170.662 141.008C171.037 140.411 171.315 139.758 171.484 139.073C171.615 138.329 171.541 137.563 171.272 136.857C170.912 136.013 170.268 135.322 169.451 134.903C168.635 134.484 167.697 134.364 166.802 134.564C166.067 134.755 165.398 135.143 164.867 135.687C164.413 136.222 164.041 136.822 163.764 137.467Z" fill="#FAFAFA"/>
<path d="M174.958 122.096C175.337 122.144 175.703 122.266 176.035 122.455C176.367 122.644 176.659 122.897 176.893 123.199C177.534 123.889 177.917 124.779 177.977 125.719C178.037 126.659 177.77 127.59 177.222 128.356C176.639 129.221 175.751 129.833 174.735 130.069C173.918 130.249 173.066 130.181 172.287 129.875C171.554 129.652 170.938 129.148 170.575 128.472C171.124 128.922 171.741 129.282 172.403 129.536C173.123 129.768 173.893 129.798 174.629 129.623C175.513 129.374 176.282 128.824 176.803 128.068C177.324 127.312 177.565 126.397 177.483 125.483C177.394 124.732 177.096 124.021 176.622 123.431C176.145 122.897 175.583 122.446 174.958 122.096Z" fill="#FAFAFA"/>
<path d="M174.96 92.4968C175.725 92.603 176.418 93.0019 176.895 93.6095C177.457 94.2321 177.823 95.0058 177.95 95.8347C178.074 96.8676 177.816 97.9103 177.224 98.7659C176.632 99.6216 175.748 100.231 174.737 100.479C173.917 100.653 173.063 100.586 172.28 100.285C171.545 100.06 170.929 99.5518 170.568 98.8727C171.116 99.331 171.737 99.694 172.406 99.9466C173.126 100.18 173.897 100.206 174.631 100.024C175.52 99.7872 176.296 99.2412 176.819 98.4841C177.342 97.727 177.578 96.8083 177.485 95.8928C177.393 95.1428 177.095 94.433 176.624 93.8417C176.143 93.3088 175.582 92.8549 174.96 92.4968Z" fill="#FAFAFA"/>
<path d="M181.334 87.0607C180.568 87.1137 179.812 86.8674 179.225 86.3737C178.549 85.8885 178.031 85.2157 177.735 84.4387C177.4 83.4538 177.438 82.3805 177.841 81.4215C178.244 80.4625 178.984 79.6842 179.921 79.2336C180.689 78.8904 181.541 78.7827 182.369 78.924C183.123 79 183.818 79.3681 184.304 79.9495C183.676 79.6129 182.996 79.3839 182.292 79.2722C181.539 79.1979 180.78 79.3283 180.095 79.6496C179.281 80.0731 178.642 80.7691 178.288 81.616C177.934 82.4629 177.889 83.4071 178.16 84.2839C178.406 84.9988 178.845 85.6317 179.428 86.1125C180.008 86.5286 180.652 86.8488 181.334 87.0607Z" fill="#FAFAFA"/>
<path d="M170.566 70.7496C169.803 70.8063 169.049 70.5595 168.467 70.0627C167.792 69.5775 167.274 68.9047 166.977 68.1277C166.643 67.1428 166.68 66.0695 167.083 65.1105C167.486 64.1515 168.226 63.3732 169.164 62.9225C169.931 62.5788 170.783 62.471 171.611 62.6129C172.366 62.689 173.06 63.0571 173.546 63.6385C172.914 63.3132 172.235 63.0879 171.534 62.9709C170.782 62.8871 170.021 63.0144 169.338 63.3385C168.524 63.7621 167.884 64.458 167.53 65.305C167.177 66.1519 167.131 67.0961 167.403 67.9729C167.651 68.6892 168.089 69.3247 168.67 69.8111C169.251 70.219 169.89 70.5355 170.566 70.7496Z" fill="#FAFAFA"/>
<path d="M127.553 89.5489C126.789 89.6029 126.034 89.3525 125.454 88.8523C124.686 88.3096 124.129 87.5183 123.877 86.6122C123.624 85.7061 123.693 84.7408 124.07 83.8793C124.465 82.9153 125.207 82.1348 126.151 81.6928C126.918 81.3491 127.77 81.2413 128.598 81.3832C128.973 81.4173 129.337 81.5255 129.669 81.7016C130.001 81.8776 130.295 82.118 130.533 82.4087C129.905 82.0721 129.225 81.8431 128.521 81.7315C127.768 81.6571 127.009 81.7875 126.325 82.1088C125.51 82.5324 124.871 83.2283 124.517 84.0752C124.164 84.9222 124.118 85.8663 124.39 86.7431C124.638 87.4566 125.076 88.0889 125.657 88.5717C126.234 88.9946 126.874 89.3244 127.553 89.5489Z" fill="#FAFAFA"/>
<path d="M170.694 74.4845C171.074 74.5331 171.441 74.6564 171.773 74.8474C172.105 75.0383 172.396 75.2931 172.629 75.5971C173.195 76.2171 173.562 76.9921 173.684 77.8224C173.807 78.8536 173.549 79.8942 172.96 80.7492C172.37 81.6041 171.489 82.2147 170.482 82.4664C169.661 82.6417 168.807 82.5744 168.024 82.2729C167.289 82.0476 166.673 81.5395 166.312 80.8603C166.86 81.3187 167.481 81.6817 168.15 81.9343C168.87 82.1673 169.641 82.1941 170.375 82.0117C171.264 81.7751 172.037 81.2253 172.552 80.4637C173.077 79.7102 173.317 78.7946 173.229 77.8804C173.133 77.1296 172.832 76.4198 172.359 75.8293C171.877 75.2973 171.316 74.8436 170.694 74.4845Z" fill="#FAFAFA"/>
<path d="M184.264 91.5523C184.214 91.6619 184.172 91.7751 184.138 91.891C184.061 92.1328 183.945 92.4618 183.809 92.8585C183.519 93.7583 183.113 95.0354 182.6 96.6704L178.295 110.477L178.498 110.38L152.201 100.705L151.543 100.434L151.659 100.647C153.25 94.7301 155.307 88.9489 157.813 83.3576C159.761 78.7609 162.397 74.4873 165.63 70.6833C166.897 69.2574 168.391 68.0511 170.052 67.1132C171.298 66.3926 172.697 65.9782 174.134 65.9038C174.411 65.885 174.689 65.885 174.966 65.9038L175.702 65.9812C175.924 65.9812 176.137 65.9812 176.321 66.0586L176.834 66.1941L177.521 66.3682L177.753 66.4166L177.53 66.3392L176.853 66.1167L176.34 65.9715C176.156 65.9231 175.944 65.9135 175.711 65.8748L174.976 65.778C174.693 65.7589 174.408 65.7589 174.125 65.778C172.661 65.8268 171.23 66.2284 169.955 66.9487C168.257 67.8776 166.729 69.0881 165.437 70.5285C162.152 74.3313 159.476 78.6198 157.503 83.2415C154.969 88.8441 152.892 94.6422 151.292 100.579V100.734L151.437 100.792L152.104 101.063C161.954 104.749 171.087 108.029 178.43 110.738L178.575 110.796L178.624 110.641L182.803 96.7962C183.287 95.1515 183.664 93.8937 183.935 92.9262C184.051 92.4908 184.148 92.1619 184.216 91.9103C184.246 91.7933 184.262 91.6731 184.264 91.5523Z" fill="#263238"/>
<path d="M134.635 107.408L129.545 123.342C128.573 126.585 126.724 129.496 124.203 131.754C121.681 134.013 118.585 135.531 115.255 136.142L81.2477 142.528L71.9886 142.228L81.2477 130.773L106.809 122.065C108.035 121.801 109.165 121.205 110.075 120.341C110.984 119.478 111.639 118.381 111.966 117.17L122.144 95.0332L135.041 102.938L134.635 107.408Z" fill="#FFBE9D"/>
<path d="M174.439 108.906L168.895 127.046C167.939 130.307 166.103 133.242 163.589 135.529C161.075 137.816 157.98 139.367 154.643 140.011L120.636 146.474L111.386 146.174L114.531 138.279L146.207 125.75C147.438 125.473 148.57 124.864 149.479 123.989C150.389 123.114 151.04 122.006 151.364 120.787L156.095 102.53L174.439 108.906Z" fill="#FFBE9D"/>
<path d="M144.298 146.717L144.008 144.511L117.885 143.485L105.056 111.151L56.2067 114.46L72.6929 150.355L144.298 146.717Z" fill="#455A64"/>
<path d="M85.8326 132.127C86.1033 132.557 86.4953 132.896 86.959 133.102C87.4226 133.308 87.9371 133.373 88.4371 133.286C88.9372 133.2 89.4005 132.967 89.7682 132.618C90.1359 132.268 90.3916 131.817 90.5028 131.322C90.6141 130.827 90.5759 130.31 90.3931 129.836C90.2103 129.363 89.8911 128.954 89.476 128.662C89.0608 128.37 88.5684 128.208 88.061 128.196C87.5537 128.185 87.0543 128.324 86.626 128.596C86.0555 128.962 85.6522 129.537 85.5036 130.199C85.3551 130.86 85.4733 131.553 85.8326 132.127Z" fill="white"/>
<path d="M159.332 0.826172C163.164 1.08338 166.839 2.44831 169.91 4.75503C172.981 7.06176 175.316 10.2109 176.631 13.8197C177.095 15.1743 177.415 16.5771 178.005 17.8833C178.541 19.2277 179.544 20.3337 180.83 20.9986C181.797 21.434 182.881 21.4824 183.868 21.8501C184.698 22.1775 185.436 22.7002 186.02 23.374C186.605 24.0477 187.018 24.8525 187.225 25.7201C187.418 26.591 187.437 27.4915 187.281 28.3698C187.125 29.2482 186.797 30.087 186.316 30.8382C185.738 31.5209 185.345 32.3404 185.174 33.2182C185.213 33.8219 185.333 34.4175 185.532 34.9888C185.776 35.9936 185.691 37.0502 185.291 38.0034C184.89 38.9567 184.195 39.7566 183.306 40.2857C182.418 40.8149 181.384 41.0454 180.355 40.9436C179.326 40.8417 178.356 40.4129 177.589 39.7199C177.08 41.2488 176.053 42.5523 174.686 43.4061C173.235 44.093 171.097 43.4738 170.816 41.8968C170.431 42.6319 169.819 43.2237 169.072 43.5848C168.325 43.9459 167.481 44.0571 166.666 43.902C165.85 43.747 165.106 43.3339 164.544 42.7237C163.981 42.1134 163.629 41.3385 163.541 40.5132" fill="#263238"/>
<path d="M136.145 24.6286C132.991 20.9424 132.943 15.1567 135.178 10.8416C137.413 6.52655 141.66 3.5563 146.13 1.79544C152.283 -0.623317 159.627 -0.874868 165.161 2.76295C167.579 4.39209 169.519 6.63642 170.781 9.26473C172.043 11.893 172.581 14.8103 172.341 17.7159C172.1 20.6216 171.089 23.4106 169.412 25.7957C167.735 28.1807 165.453 30.0756 162.8 31.285" fill="#FF6600"/>
<path d="M172.57 15.6419C171.829 15.8215 171.068 15.9092 170.306 15.9031C169.558 16.0558 168.795 16.1176 168.032 16.0869C168.719 15.7103 169.476 15.4768 170.255 15.4003C171.035 15.3238 171.823 15.406 172.57 15.6419Z" fill="#FAFAFA"/>
<path d="M169.608 7.5988C168.95 7.82973 168.269 7.98553 167.576 8.06321C166.473 8.30509 165.641 8.66304 165.544 8.52759C166.059 7.9917 166.742 7.64992 167.479 7.56009C168.172 7.32348 168.925 7.33718 169.608 7.5988Z" fill="#FAFAFA"/>
<path d="M163.834 2.18296C163.834 2.32809 162.518 2.50224 160.931 3.02469C160.021 3.41415 159.091 3.75646 158.145 4.05024C158.863 3.30976 159.775 2.78666 160.777 2.54094C161.74 2.12799 162.802 2.00363 163.834 2.18296Z" fill="#FAFAFA"/>
<path d="M154.207 0.0444336C154.207 0.179884 153.008 0.576571 151.75 1.50537C150.492 2.43418 149.728 3.44039 149.602 3.38234C149.94 2.42744 150.596 1.61777 151.46 1.08933C152.224 0.42872 153.197 0.058754 154.207 0.0444336Z" fill="#FAFAFA"/>
<path d="M143.121 3.59453C143.198 3.71063 142.802 4.09766 142.453 4.64914C142.212 5.02646 142.057 5.39412 141.931 5.61664L141.708 5.95525V5.6263C141.708 5.51987 141.708 5.45216 141.767 5.43281C141.825 5.41346 141.873 5.43281 141.941 5.54891H141.708C141.696 5.14328 141.811 4.7439 142.037 4.40726C142.444 3.73001 143.034 3.47843 143.121 3.59453Z" fill="#FAFAFA"/>
<path d="M170.537 24.0976C170.537 24.2331 169.667 24.3105 168.651 24.0009C167.635 23.6913 166.967 23.1302 167.035 23.0334C167.103 22.9367 167.857 23.2366 168.796 23.5268C169.734 23.8171 170.547 23.9622 170.537 24.0976Z" fill="#FAFAFA"/>
<path d="M185.795 16.3095C185.795 16.3095 185.621 16.948 184.615 17.277C184.312 17.3689 183.994 17.3983 183.68 17.3634C183.365 17.3284 183.061 17.2299 182.786 17.0738C182.426 16.8505 182.127 16.5423 181.915 16.1762C181.702 15.8101 181.583 15.3973 181.567 14.9743C181.549 14.4588 181.668 13.9476 181.913 13.4936C182.158 13.0396 182.519 12.659 182.96 12.3911C183.462 12.0814 184.035 11.9054 184.625 11.88C185.214 11.8546 185.8 11.9806 186.327 12.2459C186.912 12.5235 187.423 12.9355 187.818 13.4484C188.213 13.9613 188.482 14.5604 188.601 15.1968C188.719 15.8737 188.694 16.5678 188.527 17.2344C188.361 17.901 188.056 18.5252 187.633 19.0669C187.188 19.5988 186.624 20.0199 185.988 20.297C185.352 20.574 184.66 20.6994 183.966 20.6632C182.699 20.6225 181.469 20.227 180.416 19.5216C178.74 18.2747 177.315 16.722 176.217 14.9453C175.458 13.7903 174.617 12.691 173.701 11.6558C173.034 10.9495 172.608 10.6108 172.637 10.5818C172.666 10.5528 172.763 10.6302 172.976 10.785C173.279 11.014 173.57 11.2595 173.846 11.5203C174.827 12.5132 175.717 13.5914 176.507 14.7421C177.621 16.4423 179.03 17.9299 180.667 19.1346C181.655 19.775 182.799 20.133 183.976 20.1698C184.592 20.2041 185.207 20.0942 185.773 19.849C186.339 19.6038 186.84 19.23 187.237 18.7572C187.614 18.2682 187.885 17.706 188.034 17.1064C188.182 16.5067 188.204 15.8828 188.098 15.2742C187.997 14.7095 187.763 14.1767 187.417 13.7193C187.07 13.262 186.621 12.893 186.105 12.6426C185.652 12.4137 185.149 12.3017 184.642 12.3169C184.135 12.3321 183.64 12.474 183.202 12.7297C182.812 12.9488 182.489 13.2699 182.268 13.6584C182.046 14.047 181.934 14.4884 181.944 14.9356C181.945 15.3028 182.033 15.6646 182.201 15.991C182.37 16.3174 182.613 16.599 182.912 16.8125C183.153 16.9592 183.421 17.0569 183.7 17.1001C183.978 17.1432 184.263 17.131 184.537 17.0641C185.027 16.9544 185.468 16.6898 185.795 16.3095Z" fill="#263238"/>
<path d="M163.561 11.1994C164.412 11.2889 165.198 11.6945 165.765 12.3358C166.331 12.9772 166.636 13.8077 166.619 14.663L164.684 60.842C164.606 66.2988 154.718 72.7423 148.875 72.6262C142.983 72.5005 144.714 66.2407 144.627 61.0162C144.482 52.3086 144.492 49.0965 144.482 49.1449C144.473 49.1933 137.032 47.9065 135.494 38.1831C134.72 33.3456 134.962 25.4217 135.378 18.9394C135.736 13.1344 139.606 5.9555 145.411 6.56503L163.561 11.1994Z" fill="#FFBE9D"/>
<path d="M137.905 25.2764C137.899 25.6016 138.022 25.9158 138.247 26.1511C138.471 26.3865 138.779 26.5241 139.104 26.5342C139.263 26.5474 139.423 26.5285 139.574 26.4789C139.725 26.4292 139.865 26.3497 139.985 26.2451C140.105 26.1404 140.203 26.0128 140.272 25.8696C140.342 25.7265 140.383 25.5709 140.391 25.4119C140.394 25.0816 140.266 24.7635 140.036 24.5264C139.806 24.2892 139.493 24.1521 139.162 24.1444C138.846 24.1286 138.536 24.2388 138.3 24.4509C138.064 24.663 137.922 24.9598 137.905 25.2764Z" fill="#263238"/>
<path d="M137.09 23.0813C137.245 23.2458 138.193 22.5492 139.538 22.5492C140.883 22.5492 141.86 23.2265 142.005 23.062C142.15 22.8975 141.918 22.6943 141.492 22.3847C140.908 21.9842 140.216 21.7715 139.509 21.7752C138.814 21.7764 138.137 21.9964 137.574 22.4041C137.158 22.7427 137.012 23.0813 137.09 23.0813Z" fill="#263238"/>
<path d="M151.012 25.2775C151.01 25.602 151.133 25.9148 151.357 26.1496C151.581 26.3844 151.888 26.5227 152.212 26.5353C152.371 26.5485 152.531 26.5297 152.682 26.48C152.833 26.4304 152.973 26.3508 153.093 26.2462C153.213 26.1415 153.311 26.0139 153.38 25.8708C153.45 25.7277 153.49 25.572 153.499 25.413C153.504 25.0869 153.382 24.7716 153.157 24.5348C152.933 24.2979 152.625 24.1582 152.299 24.1456C152.14 24.1351 151.981 24.1561 151.83 24.2073C151.679 24.2586 151.54 24.3391 151.421 24.4443C151.301 24.5495 151.204 24.6772 151.134 24.8202C151.063 24.9632 151.022 25.1186 151.012 25.2775Z" fill="#263238"/>
<path d="M150.277 23.3522C150.431 23.5167 151.379 22.8201 152.724 22.8201C154.069 22.8201 155.046 23.4973 155.191 23.3329C155.337 23.1684 155.104 22.9652 154.679 22.6556C154.095 22.2551 153.403 22.0424 152.695 22.0461C152 22.0426 151.321 22.263 150.76 22.6749C150.344 22.9845 150.199 23.2845 150.277 23.3522Z" fill="#263238"/>
<path d="M145.41 33.309C144.704 33.0855 143.973 32.9523 143.233 32.9123C142.885 32.9123 142.566 32.8059 142.508 32.5737C142.478 32.2192 142.56 31.8643 142.74 31.5578L143.708 28.9552C145.12 25.24 146.136 22.1827 145.981 22.1246C144.87 24.2564 143.929 26.4724 143.166 28.752L142.198 31.374C141.983 31.8025 141.935 32.2955 142.063 32.7575C142.113 32.8795 142.191 32.9883 142.29 33.0755C142.389 33.1628 142.506 33.2261 142.634 33.2606C142.823 33.3123 143.018 33.3384 143.214 33.338C143.945 33.4211 144.682 33.4113 145.41 33.309Z" fill="#263238"/>
<path d="M144.481 49.205C149.074 49.2725 153.596 48.0634 157.542 45.7123C157.542 45.7123 154.378 52.3881 144.655 51.5173L144.481 49.205Z" fill="#EB996E"/>
<path d="M145.982 36.5382C146.237 36.2173 146.57 35.9665 146.949 35.8092C147.328 35.6518 147.741 35.5931 148.149 35.6384C148.444 35.6668 148.731 35.7542 148.992 35.8955C149.253 36.0367 149.483 36.229 149.668 36.4608C149.847 36.6837 149.954 36.9565 149.973 37.2422C149.992 37.5278 149.923 37.8124 149.774 38.0572C149.56 38.3004 149.277 38.4731 148.963 38.5525C148.648 38.6319 148.317 38.6144 148.013 38.5022C147.381 38.2747 146.8 37.9264 146.301 37.4767C146.149 37.3719 146.021 37.2368 145.924 37.08C145.871 37.0064 145.844 36.9185 145.844 36.8284C145.844 36.7383 145.871 36.6504 145.924 36.5769" fill="#EB996E"/>
<path d="M149.357 34.2351C149.144 34.2351 149.134 35.6766 147.886 36.7119C146.638 37.7471 145.09 37.5826 145.081 37.7858C145.071 37.989 145.429 38.0664 146.048 38.0857C146.899 38.0956 147.727 37.8082 148.39 37.273C149.024 36.7543 149.431 36.0076 149.521 35.1929C149.618 34.5833 149.454 34.2254 149.357 34.2351Z" fill="#263238"/>
<path d="M149.68 21.0093C149.815 21.3673 151.15 21.1932 152.727 21.3867C154.304 21.5802 155.572 22.0059 155.785 21.6769C155.872 21.5221 155.649 21.1835 155.136 20.8255C154.455 20.3858 153.679 20.1139 152.872 20.0322C152.068 19.9334 151.252 20.0296 150.492 20.3128C149.912 20.545 149.622 20.8352 149.68 21.0093Z" fill="#263238"/>
<path d="M137.586 19.2128C137.828 19.5224 138.747 19.2128 139.859 19.2128C140.972 19.2128 141.911 19.4257 142.133 19.1064C142.22 18.9516 142.075 18.642 141.669 18.3518C141.113 18.0097 140.47 17.8383 139.818 17.859C139.166 17.8796 138.534 18.0914 138.002 18.4679C137.615 18.7581 137.479 19.0774 137.586 19.2128Z" fill="#263238"/>
<path d="M165.547 26.7483C165.941 26.5315 166.387 26.4285 166.837 26.4507C167.286 26.4729 167.72 26.6195 168.091 26.8741C168.991 27.3974 169.682 28.2159 170.047 29.1908C170.412 30.1657 170.428 31.2369 170.093 32.2225C169.758 33.2081 169.093 34.0475 168.209 34.598C167.326 35.1486 166.279 35.3765 165.247 35.243" fill="#FFBE9D"/>
<path d="M150.261 3.37188C146.954 3.53815 143.743 4.5365 140.925 6.2744C137.741 7.92857 135.343 10.7783 134.259 14.1983C134.122 14.5487 134.058 14.9235 134.071 15.2995C134.084 15.6756 134.175 16.0449 134.336 16.3848C134.642 16.7772 135.075 17.0502 135.561 17.1562C136.047 17.2623 136.555 17.1947 136.997 16.9653C137.868 16.4751 138.61 15.7855 139.164 14.9529C139.399 15.8493 139.928 16.6414 140.665 17.2034C141.402 17.7654 142.305 18.0652 143.232 18.0552C144.159 18.0452 145.056 17.7259 145.781 17.1482C146.505 16.5704 147.016 15.7671 147.233 14.8658C147.307 15.7973 147.738 16.6642 148.435 17.286C149.133 17.9079 150.043 18.2366 150.977 18.2037C151.909 18.1188 152.796 17.7656 153.53 17.1869C154.265 16.6082 154.817 15.8289 155.118 14.9432C155.352 16.6241 155.932 18.2383 156.821 19.684C157.284 20.3969 157.953 20.9512 158.74 21.2729C159.527 21.5945 160.393 21.668 161.223 21.4836C160.878 22.9141 160.901 24.4086 161.291 25.8277C161.803 27.2015 163.332 28.3142 164.716 27.8401C166.099 27.366 166.583 25.7793 166.902 24.3861C167.597 21.7263 167.948 18.9886 167.947 16.2397C168.035 13.4102 167.116 10.6413 165.353 8.42645C163.59 6.21159 161.098 4.69463 158.32 4.14587C155.547 3.50573 152.699 3.24536 149.855 3.37188" fill="#263238"/>
<path d="M166.252 32.339C166.252 32.2713 166.629 32.426 167.103 32.2035C167.388 32.0393 167.619 31.7951 167.767 31.501C167.915 31.207 167.973 30.876 167.935 30.5491C167.931 30.2173 167.831 29.8938 167.647 29.6175C167.464 29.3411 167.204 29.1237 166.9 28.9914C166.406 28.7882 166.048 28.885 166.029 28.8076C166.01 28.7302 166.358 28.5077 166.997 28.6528C167.376 28.7354 167.717 28.9433 167.964 29.243C168.257 29.6064 168.426 30.0538 168.448 30.5201C168.496 30.9444 168.403 31.3728 168.182 31.7386C167.962 32.1044 167.627 32.3869 167.229 32.5422C166.532 32.755 166.174 32.3777 166.252 32.339Z" fill="#EB996E"/>
<path d="M169.917 32.842C170.054 32.8653 170.187 32.9042 170.314 32.9581C170.692 33.0797 171.055 33.2419 171.398 33.4419C172.71 34.1279 173.808 35.1623 174.571 36.4315C175.096 37.3124 175.395 38.3095 175.442 39.334C175.47 40.5203 175.19 41.6937 174.629 42.7396C174.018 43.9036 173.131 44.9001 172.046 45.6421C170.878 46.4496 169.498 46.894 168.079 46.9192C166.716 46.8943 165.386 46.4993 164.231 45.7768C163.076 45.0542 162.138 44.0311 161.519 42.817C160.972 41.756 160.73 40.5632 160.823 39.3727C160.936 38.3476 161.266 37.3583 161.79 36.4702C162.531 35.1867 163.658 34.1706 165.012 33.5677C165.373 33.4023 165.753 33.2821 166.144 33.2097C166.282 33.1883 166.422 33.1883 166.56 33.2097C166.56 33.2677 165.999 33.3355 165.089 33.7805C164.023 34.3279 163.113 35.1369 162.445 36.1319C161.776 37.1269 161.371 38.2753 161.268 39.4695C161.201 40.5765 161.439 41.6806 161.955 42.6622C162.545 43.7903 163.428 44.7392 164.51 45.4097C165.592 46.0802 166.835 46.4479 168.108 46.4742C169.381 46.4226 170.618 46.0382 171.696 45.3591C172.774 44.68 173.655 43.7301 174.252 42.6042C174.76 41.695 175.027 40.6708 175.027 39.6291C175.027 38.5874 174.76 37.5632 174.252 36.654C173.537 35.4178 172.518 34.3852 171.291 33.6547C170.44 33.0839 169.898 32.8904 169.917 32.842Z" fill="#FF6600"/>
</svg>
