<svg width="245" height="170" viewBox="0 0 245 170" fill="none" xmlns="http://www.w3.org/2000/svg">
<rect x="244.375" y="47.8125" width="122.188" height="232.688" transform="rotate(90 244.375 47.8125)" fill="#4861E6"/>
<path d="M193.593 45.7679C197.473 41.1392 199.718 39.8642 202.54 36.7267C204.912 34.077 207.329 31.3608 208.726 28.0847C210.123 24.8086 210.328 20.8119 208.36 17.8462C204.769 17.1207 201.137 16.6117 197.484 16.3218C192.845 16.0668 190.688 16.1056 190.688 16.1056L188.116 23.8663L192.761 25.7621L183.249 34.3708L175.738 43.1071L179.496 53.9442L184.552 54.4099L193.593 45.7679Z" fill="#FFBE9D"/>
<path d="M200.242 18.5938C199.866 19.0519 199.454 19.4801 199.012 19.8743L195.963 22.8676C194.765 24.0373 193.668 25.085 192.847 25.8111C192.425 26.2207 191.967 26.5917 191.478 26.9198C191.857 26.466 192.269 26.0399 192.709 25.6448L195.758 22.6459C196.955 21.4763 198.053 20.4286 198.873 19.708C199.297 19.2979 199.755 18.9251 200.242 18.5938Z" fill="#EB996E"/>
<path d="M207.124 20.6437C207.085 20.6769 206.863 20.433 206.42 20.1725C205.849 19.8317 205.187 19.6749 204.524 19.7235C203.862 19.7947 203.236 20.0631 202.728 20.494C202.34 20.8266 202.174 21.1093 202.124 21.0871C202.074 21.065 202.207 20.7435 202.589 20.3443C203.095 19.8212 203.773 19.4984 204.499 19.4352C205.224 19.3721 205.947 19.5729 206.536 20.0007C206.98 20.3222 207.146 20.627 207.124 20.6437Z" fill="#EB996E"/>
<path d="M190.207 19.7432C190.611 19.6059 190.983 19.3885 191.3 19.1041C191.618 18.8196 191.875 18.4738 192.055 18.0876C192.236 17.7014 192.337 17.2827 192.352 16.8566C192.367 16.4304 192.295 16.0057 192.142 15.6079C191.746 14.9072 191.284 14.2463 190.761 13.6344C190.503 13.2526 190.284 12.8459 190.107 12.4205L189.342 10.0701C188.827 8.09669 188.4 6.10109 186.865 4.85385C185.473 3.74519 183.539 3.55672 181.942 2.75294C180.772 2.1709 179.791 1.26179 178.644 0.635397C177.496 0.00900404 176.027 -0.295879 174.913 0.391491C174.265 0.796152 173.804 1.50015 173.173 1.88264C171.814 2.70305 169.874 2.09328 168.633 3.07445C167.624 3.87823 167.524 5.36938 166.803 6.4337C166.016 7.5867 165.534 8.65101 164.281 9.29403C163.677 9.58779 163.169 10.0469 162.816 10.618C162.463 11.1891 162.279 11.8487 162.285 12.5202C162.285 13.7509 162.108 14.3107 162.075 15.5413C161.954 16.4621 161.664 17.3527 161.221 18.1689C160.866 18.9893 160.196 22.1933 160.927 22.7144L169.287 26.4783C171.931 29.0725 174.664 31.7333 178.089 33.1302L178.749 34.0172C177.962 34.117 187.114 33.2023 188.644 27.6978C188.804 26.9278 189.13 26.2016 189.597 25.5692C190.154 24.9996 190.64 24.365 191.044 23.6789C191.343 23.0194 191.423 22.2817 191.272 21.5735C191.122 20.8654 190.748 20.224 190.207 19.7432Z" fill="#263238"/>
<path d="M181.372 29.0156C183.148 27.0401 184.747 24.9125 186.15 22.6574C187.564 20.3923 188.39 17.8109 188.556 15.1463C188.556 14.7472 188.429 11.9478 188.046 11.8203C187.769 11.7371 187.553 14.2039 187.32 14.3758C185.191 16.1385 183.646 18.5036 182.885 21.1608C182.097 23.7121 181.594 26.3426 181.383 29.0045" fill="#263238"/>
<path d="M164.841 46.0915C168.683 47.5771 176.427 41.0305 176.427 41.0305L185.468 19.7442C188.2 13.6466 186.942 6.99463 180.795 4.45025L180.24 4.25069C177.416 3.25985 174.322 3.36969 171.575 4.55834C168.827 5.74698 166.629 7.92714 165.418 10.6643C163.078 15.9415 160.562 21.8063 159.575 24.7332C157.54 30.792 163.245 33.8464 163.245 33.8464C163.245 33.8464 162.718 35.2267 162.019 36.9728C160.462 40.8864 163.289 45.5982 164.869 46.0915H164.841Z" fill="#FFBE9D"/>
<path d="M163.212 33.8464C166.002 34.8131 169.011 34.9593 171.881 34.2677C171.881 34.2677 168.433 37.9873 162.602 35.3376L163.212 33.8464Z" fill="#EB996E"/>
<path d="M164.661 16.0132C164.733 16.1629 165.553 15.9079 166.479 16.235C167.404 16.562 167.92 17.2605 168.064 17.1829C168.208 17.1053 168.092 16.9113 167.87 16.5897C167.565 16.1723 167.14 15.8587 166.651 15.6917C166.17 15.5219 165.648 15.5083 165.159 15.6529C164.794 15.7749 164.627 15.9412 164.661 16.0132Z" fill="#263238"/>
<path d="M173.772 18.8017C173.838 18.9513 174.659 18.6963 175.585 19.0234C176.51 19.3505 177.031 20.0544 177.17 19.9768C177.308 19.8992 177.198 19.6997 176.976 19.3837C176.673 18.9632 176.247 18.6473 175.756 18.4801C175.275 18.3118 174.753 18.3001 174.265 18.4469C173.905 18.5633 173.733 18.7351 173.772 18.8017Z" fill="#263238"/>
<path d="M168.936 23.1279C168.501 22.8055 168.028 22.5374 167.528 22.3297C167.3 22.2243 167.09 22.0969 167.106 21.925C167.173 21.6731 167.314 21.4471 167.511 21.2764L168.841 19.7188C170.715 17.5015 172.167 15.6278 172.062 15.5558C171.957 15.4837 170.399 17.2187 168.514 19.4361L167.212 21.0104C166.96 21.2425 166.801 21.5573 166.763 21.8973C166.767 21.9927 166.793 22.0859 166.839 22.1696C166.885 22.2532 166.95 22.3251 167.029 22.3796C167.148 22.461 167.276 22.528 167.411 22.5791C167.893 22.8286 168.406 23.0132 168.936 23.1279Z" fill="#263238"/>
<path d="M171.436 24.7286C171.286 24.6676 170.937 25.6765 169.823 26.0867C168.708 26.4969 167.677 26.0146 167.605 26.1532C167.533 26.2918 167.777 26.4304 168.226 26.6022C168.813 26.8153 169.457 26.8153 170.044 26.6022C170.608 26.3964 171.07 25.9788 171.33 25.4381C171.53 25.0335 171.508 24.7286 171.436 24.7286Z" fill="#263238"/>
<path d="M176.122 13.4255C176.122 13.7082 177.092 13.9133 178.134 14.4233C179.176 14.9333 179.952 15.5319 180.174 15.3656C180.279 15.277 180.207 14.9887 179.936 14.6173C179.575 14.1431 179.105 13.7628 178.566 13.5086C178.032 13.2471 177.443 13.116 176.848 13.1262C176.393 13.1594 176.122 13.2869 176.122 13.4255Z" fill="#263238"/>
<path d="M167.266 10.6726C167.355 10.9442 168.07 10.9442 168.841 11.2269C169.611 11.5096 170.21 11.8644 170.437 11.6981C170.542 11.6149 170.515 11.3655 170.298 11.0662C170.004 10.6892 169.599 10.4139 169.14 10.279C168.686 10.1316 168.197 10.1316 167.743 10.279C167.394 10.3622 167.227 10.5451 167.266 10.6726Z" fill="#263238"/>
<path d="M183.409 24.0411C183.531 24.0411 187.987 24.2684 186.413 28.3483C184.839 32.4282 181.064 30.0113 181.103 29.8838C181.141 29.7563 183.409 24.0411 183.409 24.0411Z" fill="#FFBE9D"/>
<path d="M182.952 28.8163C182.952 28.8163 183.002 28.8939 183.102 28.9937C183.171 29.0626 183.253 29.1172 183.344 29.1543C183.434 29.1914 183.531 29.2103 183.628 29.2099C184.122 29.2099 184.737 28.6556 185.053 27.946C185.199 27.5956 185.264 27.2165 185.241 26.8374C185.253 26.695 185.23 26.5519 185.174 26.4205C185.118 26.2891 185.031 26.1734 184.92 26.0835C184.847 26.0308 184.757 26.0053 184.667 26.0114C184.577 26.0174 184.492 26.0547 184.427 26.1167C184.327 26.211 184.321 26.2997 184.299 26.2997C184.277 26.2997 184.238 26.1999 184.332 26.0391C184.395 25.9484 184.487 25.8818 184.593 25.8507C184.664 25.8286 184.739 25.8211 184.814 25.8287C184.888 25.8363 184.96 25.8589 185.025 25.895C185.178 25.9955 185.303 26.132 185.39 26.2925C185.477 26.4531 185.523 26.6326 185.524 26.8152C185.561 27.2351 185.495 27.6577 185.33 28.0458C184.986 28.8607 184.271 29.4649 183.617 29.4095C183.495 29.3988 183.377 29.3609 183.271 29.2985C183.166 29.2362 183.076 29.1509 183.007 29.0492C182.919 28.9161 182.935 28.8163 182.952 28.8163Z" fill="#EB996E"/>
<path d="M170.695 4.97363C170.179 4.35278 172.995 3.00022 174.902 2.91152C177.785 2.7674 181.787 3.56564 183.772 5.09559C186.177 6.94151 187.896 9.18654 188.284 12.191C188.595 15.2228 188.098 18.2831 186.843 21.0603C186.535 21.9383 185.997 22.7175 185.285 23.3164C184.359 23.9927 183.068 24.1257 182.602 25.3841C182.528 25.6148 182.409 25.8287 182.252 26.0133C182.095 26.1978 181.903 26.3495 181.687 26.4595C180.634 26.9528 180.024 25.8497 179.891 24.9406C179.631 22.9949 180.285 21.0603 180.928 19.1977C181.316 17.8541 181.921 16.5828 182.718 15.4338C183.184 14.8352 183.76 14.3252 184.193 13.6988C184.428 13.3996 184.597 13.0529 184.686 12.6826C184.775 12.3123 184.782 11.9271 184.708 11.5535C184.655 11.393 184.588 11.2373 184.509 11.0879C184.139 10.3693 183.585 9.76197 182.903 9.32844C182.221 8.89491 181.436 8.65077 180.628 8.62112C178.018 8.52688 173.627 8.1832 172.918 7.00248C171.892 5.30623 171.809 4.43593 171.809 4.43593L170.695 4.97363Z" fill="#263238"/>
<path d="M183.791 4.45697C182.835 3.6198 181.723 2.9813 180.518 2.57871C179.313 2.17613 178.04 2.01752 176.773 2.11215C176.1 2.14699 175.441 2.31769 174.837 2.61398C174.232 2.91027 173.693 3.32601 173.253 3.83612C172.438 4.90598 172.366 6.60778 173.336 7.52242L173.397 7.60557C174.899 8.87499 176.119 9.09118 178.087 9.17432C179.75 9.25193 181.413 8.8639 183.042 8.94705C184.815 9.03537 186.52 9.65328 187.937 10.7209C187.13 8.30439 185.7 6.14364 183.791 4.45697Z" fill="#263238"/>
<path d="M189.651 13.219C189.454 13.6046 189.189 13.9519 188.87 14.2445C188.14 14.9973 187.285 15.6164 186.342 16.0738C185.402 16.5341 184.389 16.8285 183.348 16.9441C182.921 17.0153 182.484 17.0153 182.057 16.9441C184.974 16.7356 187.696 15.4043 189.651 13.2301V13.219Z" fill="#455A64"/>
<path d="M191.02 14.548C190.992 14.7126 190.934 14.8705 190.848 15.0136C190.655 15.4232 190.424 15.8147 190.161 16.1832C189.292 17.4144 188.132 18.4121 186.785 19.0879C185.432 19.758 183.937 20.089 182.428 20.0525C181.975 20.0379 181.525 19.986 181.081 19.8973C180.915 19.8712 180.754 19.8188 180.604 19.742C180.604 19.6866 181.303 19.8418 182.434 19.8252C183.898 19.8089 185.34 19.4622 186.652 18.8108C187.952 18.1448 189.088 17.1981 189.978 16.0391C190.682 15.1688 190.976 14.5203 191.02 14.548Z" fill="#455A64"/>
<path d="M137.21 59.6588L117.586 39.1486L113.368 45.8005L118.573 55.7452C118.573 55.7452 124.244 65.0358 127.165 68.3063C130.087 71.5769 130.297 70.8729 130.297 70.8729L137.21 59.6588Z" fill="#FFBE9D"/>
<path d="M110.334 33.2105C110.267 33.1662 106.83 32.6562 105.461 32.4622C105.109 32.4083 104.75 32.4874 104.452 32.6839L102.39 34.0531L100.7 37.6396L101.204 37.9777L100.688 41.215C100.793 41.3403 100.926 41.4388 101.076 41.5025C101.226 41.5662 101.389 41.5932 101.551 41.5813C101.714 41.5694 101.871 41.5189 102.01 41.434C102.15 41.3491 102.266 41.2322 102.351 41.0931C102.93 40.3359 103.432 39.5225 103.848 38.6651L106.065 38.6263L105.966 38.8314L103.676 39.4135L102.911 41.3592L103.593 43.3714L105.134 44.7794L105.799 44.7517L107.052 45.5056C107.052 45.5056 108.322 44.3969 107.246 43.2882C107.246 43.2882 108.283 44.3082 108.854 43.9091L113.51 46.0266L117.174 42.49L118.167 39.674C118.167 39.674 112.329 33.9533 111.975 33.6817C111.453 33.4485 110.9 33.2899 110.334 33.2105Z" fill="#FFBE9D"/>
<path d="M107.263 43.2534C107.219 43.2534 107.263 42.9707 107.224 42.5494C107.149 42.0035 106.87 41.5063 106.443 41.1581L106.36 41.0916L106.276 41.0306L106.304 40.9308C106.466 40.4229 106.487 39.8809 106.365 39.362C106.292 39.1462 106.233 38.9259 106.188 38.7024C106.215 38.7024 106.404 38.8853 106.554 39.3066C106.747 39.8597 106.757 40.4604 106.581 41.0195L106.526 40.8587L106.62 40.9308C106.863 41.1231 107.061 41.3661 107.199 41.6428C107.338 41.9196 107.415 42.2233 107.424 42.5328C107.429 43.0206 107.291 43.2645 107.263 43.2534Z" fill="#EB996E"/>
<path d="M105.614 44.7566C105.789 44.5587 105.924 44.3291 106.013 44.0803C106.072 43.7697 106.059 43.4495 105.974 43.1447C105.89 42.8399 105.736 42.5588 105.525 42.3231C105.403 42.1513 105.27 41.9905 105.143 41.8298L105.093 41.7688V41.6912C105.176 41.4641 105.198 41.2187 105.154 40.9807C105.11 40.7427 105.003 40.5209 104.843 40.3386C104.599 40.0615 104.367 39.9783 104.383 39.9395C104.4 39.9007 104.649 39.9395 104.976 40.2111C105.185 40.4096 105.333 40.6643 105.401 40.9446C105.469 41.2249 105.454 41.5188 105.359 41.791L105.331 41.6524C105.464 41.8076 105.597 41.9739 105.73 42.1513C105.967 42.4589 106.139 42.8116 106.235 43.1879C106.314 43.5058 106.294 43.8402 106.179 44.1469C105.996 44.6901 105.614 44.7899 105.614 44.7566Z" fill="#EB996E"/>
<path d="M106.279 41.0583C106.323 41.1248 106.118 41.3299 105.824 41.5129C105.53 41.6958 105.27 41.7956 105.22 41.7235C105.17 41.6514 105.38 41.4519 105.674 41.269C105.968 41.086 106.234 40.9918 106.279 41.0583Z" fill="#EB996E"/>
<path d="M107.015 43.5815C106.931 43.5815 106.809 43.1879 106.46 42.7943C106.111 42.4008 105.767 42.1957 105.795 42.1181C105.823 42.0405 106.311 42.1513 106.688 42.6114C107.064 43.0715 107.092 43.5815 107.015 43.5815Z" fill="#EB996E"/>
<path d="M108.448 43.5764C108.371 43.5376 108.825 42.5121 109.002 41.154C109.18 39.7958 109.002 38.6927 109.08 38.6816C109.371 39.4853 109.444 40.3518 109.291 41.1928C109.224 42.0475 108.933 42.8696 108.448 43.5764Z" fill="#EB996E"/>
<path d="M103.711 35.6425C103.75 35.6425 103.711 35.8587 103.595 36.1691C103.448 36.5845 103.226 36.9696 102.941 37.3055C102.643 37.6525 102.233 37.884 101.782 37.9596C101.428 38.0039 101.228 37.8986 101.228 37.8654C101.228 37.8321 101.439 37.8654 101.732 37.76C102.116 37.6379 102.459 37.4137 102.725 37.1115C102.986 36.7933 103.214 36.4497 103.407 36.086C103.556 35.8143 103.678 35.6259 103.711 35.6425Z" fill="#EB996E"/>
<path d="M106.158 38.2206C106.108 38.1597 106.225 37.9878 106.347 37.7827C106.469 37.5776 106.574 37.4002 106.657 37.4169C106.74 37.4335 106.751 37.6829 106.596 37.9379C106.441 38.1929 106.202 38.2872 106.158 38.2206Z" fill="#EB996E"/>
<path d="M91.8066 32.461L91.8621 40.8591C91.8621 43.6807 103.226 43.5864 103.082 40.7815C103.082 40.6152 103.026 32.3834 103.026 32.3834L91.8066 32.461Z" fill="#455A64"/>
<path d="M102.748 33.8549C103.418 33.7468 104.101 33.7468 104.771 33.8549C105.267 33.9023 105.725 34.1385 106.052 34.5145C106.249 34.8508 106.354 35.2332 106.357 35.6232C106.473 36.3559 106.398 37.1062 106.14 37.8017C105.828 38.4153 105.302 38.8928 104.66 39.1432C104.027 39.3881 103.347 39.4866 102.67 39.4314C102.67 39.0046 102.67 38.5778 102.67 38.1509C103.069 38.1713 103.469 38.1472 103.862 38.0789C104.261 38.0135 104.627 37.8187 104.904 37.5245C105.292 36.9802 105.449 36.305 105.342 35.6454C105.345 35.3826 105.272 35.1247 105.132 34.9026C105.007 34.772 104.855 34.6713 104.686 34.6079C104.517 34.5446 104.336 34.5202 104.156 34.5367C103.68 34.537 103.209 34.6312 102.77 34.8139" fill="#455A64"/>
<path d="M98.8613 15.3354C98.7941 15.3925 98.7108 15.4273 98.623 15.4352C98.4947 15.4407 98.3671 15.4148 98.2511 15.3598C98.1352 15.3047 98.0345 15.2221 97.9578 15.1192C97.8365 14.9755 97.7578 14.8008 97.7305 14.6148C97.7128 14.5007 97.7222 14.3841 97.7578 14.2744C97.7934 14.1646 97.8543 14.0648 97.9356 13.9828C98.1366 13.7932 98.3952 13.6761 98.6703 13.65C98.9454 13.6239 99.2213 13.6903 99.4545 13.8387C99.724 14.0307 99.932 14.2969 100.053 14.605C100.174 14.913 100.203 15.2496 100.136 15.5737C99.9856 16.2919 99.6382 16.954 99.1329 17.4862C98.6029 18.0365 98.1716 18.6741 97.858 19.3709C97.7184 19.7436 97.6839 20.1475 97.7582 20.5386C97.8325 20.9296 98.0127 21.2927 98.2793 21.5882C98.8336 22.2146 99.5764 22.6304 100.164 23.2512C100.468 23.5534 100.674 23.9395 100.757 24.3599C100.827 24.7677 100.758 25.187 100.563 25.5517C100.191 26.1795 99.6665 26.7037 99.0387 27.0761C98.5211 27.3928 98.0492 27.7789 97.6362 28.2236C97.0781 28.9039 96.7604 29.7497 96.7327 30.6294C96.7353 30.9536 96.7556 31.2774 96.7937 31.5994C96.7537 31.5228 96.7257 31.4406 96.7105 31.3555C96.6543 31.1175 96.6246 30.8739 96.6218 30.6294C96.6041 29.7106 96.9081 28.8145 97.481 28.0961C97.8908 27.6228 98.3691 27.2136 98.9001 26.8821C99.4864 26.5239 99.9756 26.027 100.325 25.4353C100.493 25.1216 100.55 24.7599 100.486 24.4098C100.41 24.0429 100.227 23.7069 99.9589 23.4452C99.4046 22.8909 98.6562 22.4696 98.0575 21.7822C97.7613 21.4487 97.561 21.0412 97.4781 20.6029C97.3951 20.1646 97.4325 19.712 97.5864 19.2933C97.9165 18.5667 98.3725 17.9043 98.9334 17.3365C99.412 16.8431 99.7457 16.2275 99.8979 15.5571C99.9632 15.2766 99.9456 14.9832 99.8472 14.7126C99.7488 14.4419 99.5738 14.2057 99.3436 14.0327C99.1485 13.9024 98.9162 13.8394 98.682 13.8534C98.4478 13.8674 98.2246 13.9577 98.0465 14.1103C97.928 14.2409 97.8624 14.4108 97.8624 14.587C97.8624 14.7633 97.928 14.9332 98.0465 15.0638C98.1075 15.1572 98.1893 15.2353 98.2854 15.2921C98.3815 15.3488 98.4895 15.3826 98.6008 15.3908C98.7782 15.3686 98.8502 15.3077 98.8613 15.3354Z" fill="#263238"/>
<path d="M103.551 34.5966L107.986 34.386L113.019 35.8162L119.3 41.1765C119.3 41.1765 114.505 44.7353 112.953 43.1832C111.401 41.6311 109.588 38.1942 109.588 38.1942L107.803 37.4403C107.803 37.4403 101.944 37.4237 103.551 34.5966Z" fill="#FFBE9D"/>
<path d="M116.413 38.7011C116.323 38.6512 116.24 38.5917 116.163 38.5237L115.47 37.9694L112.976 35.8962H113.015L107.97 34.4937H107.987L103.552 34.7099L103.674 34.6378L103.635 34.7044C103.494 34.9086 103.418 35.1514 103.418 35.4001C103.418 35.6487 103.494 35.8915 103.635 36.0957C103.982 36.4638 104.426 36.7253 104.916 36.8496C105.855 37.1189 106.827 37.2606 107.804 37.2709H107.832L109.611 38.0359H109.65V38.0747C110.324 39.3691 111.078 40.6205 111.906 41.822C112.205 42.2488 112.46 42.5703 112.638 42.7865C112.739 42.8901 112.83 43.0033 112.909 43.1246C112.793 43.0398 112.685 42.9432 112.588 42.8364C112.307 42.5383 112.043 42.2256 111.795 41.8996C110.921 40.7184 110.134 39.4752 109.439 38.18L109.5 38.2355L107.71 37.4927H107.76C106.753 37.4937 105.751 37.3537 104.783 37.0769C104.239 36.9383 103.746 36.6457 103.364 36.2343C103.171 35.9928 103.073 35.6894 103.087 35.3807C103.111 35.0816 103.202 34.7918 103.353 34.5325L103.386 34.4549L103.425 34.3884H103.552L107.987 34.1888H108.031L113.054 35.6467L115.498 37.792C115.759 38.0304 115.975 38.2299 116.152 38.3851C116.33 38.5403 116.424 38.69 116.413 38.7011Z" fill="#EB996E"/>
<path d="M102.996 41.1346C102.996 41.1346 102.874 41.2399 102.619 41.3896C102.468 41.4802 102.311 41.5599 102.148 41.628C101.936 41.7316 101.717 41.8223 101.494 41.8996C100.202 42.3544 98.839 42.574 97.4695 42.5482C96.1029 42.5373 94.7473 42.3032 93.4562 41.8553C93.0664 41.7217 92.6867 41.5605 92.3198 41.373C92.0593 41.2399 91.9207 41.1568 91.9318 41.1346C91.9429 41.1124 92.536 41.3674 93.5172 41.6612C94.8024 42.0429 96.1344 42.2443 97.4751 42.2599C98.8134 42.2823 100.147 42.0953 101.427 41.7056C102.386 41.4007 102.952 41.0903 102.996 41.1346Z" fill="#263238"/>
<path d="M103.063 41.0587C102.909 39.6192 102.855 38.1708 102.902 36.7238C102.845 35.2758 102.888 33.8256 103.03 32.3834C103.177 33.8234 103.23 35.2714 103.19 36.7183C103.24 38.1663 103.198 39.6161 103.063 41.0587Z" fill="#263238"/>
<path d="M97.4956 31.856C97.4956 31.856 97.4568 31.8172 97.4014 31.7174C97.3347 31.5705 97.2863 31.416 97.2573 31.2573C97.1784 30.6618 97.2951 30.0568 97.5899 29.5334C98.041 28.781 98.6385 28.1269 99.3471 27.6098C100.203 27.0239 100.889 26.2228 101.337 25.2872C101.534 24.8091 101.554 24.2763 101.393 23.7849C101.212 23.3314 100.929 22.9255 100.567 22.5987C99.8848 21.9446 99.1531 21.3736 98.8371 20.6585C98.7015 20.3858 98.637 20.0833 98.6496 19.779C98.6622 19.4747 98.7515 19.1785 98.9092 18.9179C98.998 18.7813 99.1176 18.6674 99.2584 18.5853C99.3582 18.5299 99.4136 18.5133 99.4192 18.5244C99.2564 18.6518 99.1159 18.8054 99.0034 18.9789C98.8747 19.2243 98.8075 19.4973 98.8075 19.7744C98.8075 20.0515 98.8747 20.3244 99.0034 20.5698C99.3194 21.2184 100.018 21.7395 100.738 22.4102C101.135 22.7611 101.444 23.1995 101.642 23.6907C101.831 24.2436 101.813 24.8462 101.592 25.387C101.135 26.3682 100.42 27.2072 99.5245 27.8149C98.831 28.3008 98.238 28.9164 97.7784 29.6276C97.4824 30.1136 97.3413 30.6781 97.3737 31.2462C97.407 31.6454 97.5234 31.8449 97.4956 31.856Z" fill="#263238"/>
<path d="M24.5624 37.5839L13.7529 29.4187C13.7529 29.4187 18.4259 15.699 16.58 13.9972L0 34.3688L16.3029 47.7781L24.5624 37.5839Z" fill="#FF6600"/>
<g opacity="0.3">
<path opacity="0.3" d="M24.5624 37.5839L13.7529 29.4187C13.7529 29.4187 18.4259 15.699 16.58 13.9972L0 34.3688L16.3029 47.7781L24.5624 37.5839Z" fill="black"/>
</g>
<path d="M9.52318 36.4376C9.30346 36.5845 9.03731 36.6454 8.77555 36.6086C8.51379 36.5718 8.27476 36.4399 8.10409 36.238C7.94872 36.0255 7.88106 35.7613 7.91511 35.5002C7.94916 35.2391 8.08233 35.0012 8.28702 34.8356C8.51797 34.6738 8.80186 34.6062 9.08093 34.6463C9.36001 34.6865 9.61329 34.8315 9.78926 35.0518C9.92804 35.2912 9.96861 35.5752 9.90246 35.8439C9.8363 36.1127 9.66857 36.3453 9.43449 36.493" fill="#E0E0E0"/>
<g opacity="0.6">
<path opacity="0.6" d="M0 34.3647L1.69625 35.6508L16.9625 15.6394C16.9625 15.6394 17.3062 14.4088 16.5856 13.9764L0 34.3647Z" fill="white"/>
</g>
<path d="M14.1322 29.1652C14.0269 29.0876 13.5779 29.5477 12.8573 29.775C12.1366 30.0023 11.5102 29.9246 11.477 30.0466C11.4437 30.1685 12.1366 30.4901 13.0014 30.2018C13.8661 29.9136 14.2375 29.2206 14.1322 29.1652Z" fill="#263238"/>
<path d="M14.9854 26.3134C14.9078 26.2136 14.3867 26.5074 13.6938 26.5019C13.0009 26.4963 12.4743 26.2358 12.3967 26.3356C12.3191 26.4354 12.8291 26.9509 13.6938 26.9509C14.5586 26.9509 15.0796 26.3966 14.9854 26.3134Z" fill="#263238"/>
<path d="M13.4198 23.0199C13.3256 23.0919 13.7081 23.6352 14.462 23.8236C15.2159 24.0121 15.809 23.7239 15.7591 23.613C15.7092 23.5021 15.2048 23.5576 14.5728 23.3913C13.9409 23.225 13.5085 22.9312 13.4198 23.0199Z" fill="#263238"/>
<path d="M16.3901 31.3057C16.2681 31.2724 16.0353 31.86 15.5364 32.37C15.0375 32.88 14.5054 33.1959 14.5497 33.3179C14.5941 33.4398 15.2925 33.3179 15.869 32.6749C16.4455 32.0318 16.5287 31.3168 16.3901 31.3057Z" fill="#263238"/>
<path d="M29.8739 29.6615L20.1565 20.2379C20.1565 20.2379 26.5091 7.18898 24.8461 5.271L5.89355 23.453L20.4115 38.7636L29.8739 29.6615Z" fill="#FF6600"/>
<path d="M15.075 26.6723C14.8388 26.7918 14.5668 26.82 14.3111 26.7515C14.0554 26.683 13.834 26.5225 13.6892 26.3009C13.5623 26.0697 13.5284 25.7987 13.5943 25.5433C13.6602 25.2879 13.821 25.0672 14.044 24.9262C14.2936 24.7948 14.5839 24.7635 14.8558 24.8387C15.1277 24.9139 15.3607 25.0899 15.5074 25.3308C15.6123 25.5887 15.6132 25.8771 15.5098 26.1356C15.4064 26.394 15.2069 26.6023 14.9531 26.7167" fill="#E0E0E0"/>
<g opacity="0.6">
<path opacity="0.6" d="M5.89355 23.4572L7.41796 24.9428L25.029 6.95474C25.029 6.95474 25.5224 5.77956 24.8572 5.29175L5.89355 23.4572Z" fill="white"/>
</g>
<path d="M20.5463 20.0384C20.4576 19.9497 19.9531 20.3488 19.2103 20.4874C18.4675 20.6259 17.8578 20.4874 17.8079 20.5927C17.758 20.698 18.4065 21.1138 19.299 20.9253C20.1915 20.7368 20.6516 20.1049 20.5463 20.0384Z" fill="#263238"/>
<path d="M21.7477 17.3096C21.6812 17.1987 21.1324 17.426 20.4395 17.3096C19.7465 17.1932 19.2643 16.8883 19.1756 16.9825C19.0869 17.0768 19.5304 17.6533 20.3896 17.753C21.2488 17.8528 21.8308 17.3983 21.7477 17.3096Z" fill="#263238"/>
<path d="M20.5953 13.8422C20.49 13.9032 20.806 14.4908 21.5322 14.7679C22.2583 15.0451 22.8792 14.8345 22.8459 14.718C22.8127 14.6016 22.2916 14.5905 21.6929 14.3522C21.0942 14.1138 20.6951 13.7646 20.5953 13.8422Z" fill="#263238"/>
<path d="M22.5305 22.4355C22.4085 22.3911 22.1092 22.9233 21.5493 23.3889C20.9895 23.8545 20.4407 24.0818 20.4407 24.2093C20.4407 24.3368 21.1779 24.2869 21.8265 23.727C22.4751 23.1672 22.6247 22.4632 22.5305 22.4355Z" fill="#263238"/>
<path d="M25.6288 24.8816C25.6288 24.8816 54.7865 47.914 60.2578 48.5958L66.4663 49.6047L78.9442 54.9762L117.465 75.2591L129.544 83.696L135.746 95.4146L136.273 102.455C136.273 102.455 108.407 105.847 104.305 103.342C100.203 100.836 65.0416 74.5773 63.2179 72.5263C61.3941 70.4753 28.2396 56.5727 15.0244 33.8119L25.6288 24.8816Z" fill="#263238"/>
<path d="M10.6042 46.9633C10.6042 46.9633 31.7519 66.6032 46.5692 72.3018C55.7972 75.8946 64.7149 80.2385 73.2325 85.2897L98.0831 98.8209L130.007 84.4083L123.704 73.1055L71.8688 60.9103L19.2352 34.2303C19.2352 34.2303 10.8315 42.8613 10.6042 46.9633Z" fill="#263238"/>
<path d="M115.692 90.372C116.919 88.218 118.726 86.4521 120.908 85.2759C123.089 84.0997 125.558 83.5606 128.032 83.72" fill="#263238"/>
<path d="M118.522 78.8678C118.957 80.2511 118.969 81.7327 118.558 83.123C118.146 84.5133 117.329 85.7492 116.211 86.6728" fill="#263238"/>
<path d="M100.19 65.8667C100.397 65.9302 100.596 66.0157 100.784 66.1217C101.155 66.3046 101.687 66.5762 102.341 66.9255C103.649 67.6184 105.429 68.6217 107.33 69.8024C109.232 70.9832 110.961 72.114 112.17 72.9677C112.774 73.389 113.278 73.7382 113.589 73.9932C113.77 74.11 113.938 74.2477 114.087 74.4034C113.891 74.3177 113.705 74.2099 113.533 74.0819L112.064 73.134C110.822 72.3302 109.11 71.2271 107.186 70.0463C105.263 68.8656 103.505 67.829 102.197 67.1028L100.684 66.2215C100.505 66.1243 100.339 66.0051 100.19 65.8667Z" fill="#455A64"/>
<path d="M105.771 102.702L105.522 102.547L104.807 102.059L102.035 100.158L91.9683 93.1342L77.0568 82.6851L68.2541 76.5043L63.6032 73.2337C62.04 72.1251 60.4214 71.0386 58.7473 69.9743C55.3936 67.89 52.0233 65.9886 48.8913 63.9598C45.7593 61.9309 42.7937 59.9076 39.9721 57.9342C37.1506 55.9608 34.512 54.0816 32.0729 52.2523C29.8024 50.5599 27.6262 48.7445 25.554 46.8144C22.5512 44.0209 19.8412 40.9284 17.4663 37.5847C17.045 36.9972 16.6847 36.4761 16.3576 35.9938C16.0306 35.5116 15.8033 35.1346 15.5927 34.8131C15.382 34.4916 15.2434 34.2588 15.1326 34.0758C15.0217 33.8929 14.9829 33.8153 14.9829 33.8153C14.9829 33.8153 15.0494 33.8985 15.1548 34.0592L15.637 34.7798C15.8477 35.1013 16.1082 35.4894 16.4297 35.9495C16.7512 36.4096 17.1115 36.9362 17.5384 37.5182C19.9415 40.8272 22.6654 43.8909 25.6704 46.6647C27.7474 48.5755 29.9234 50.3758 32.1893 52.0583C34.6339 53.8765 37.3058 55.7391 40.1052 57.718C42.9045 59.697 45.8757 61.7147 49.0188 63.7214C52.1618 65.7281 55.5155 67.6405 58.8748 69.7304C60.5378 70.7781 62.2008 71.8756 63.7474 73.0009L68.3982 76.2715L77.1899 82.4633L92.0625 92.9679L102.079 100.069L104.796 102.009L105.494 102.519C105.59 102.574 105.682 102.636 105.771 102.702Z" fill="#455A64"/>
<path d="M161.875 36.9904C161.875 36.9904 151.726 42.4727 149.83 44.751C148.067 46.8796 128.421 66.5362 128.421 66.5362C128.421 66.5362 115.711 70.3167 116.226 71.3755C117.13 73.3101 120.694 76.7857 122.601 78.5818C123.444 79.3649 124.209 80.2281 124.885 81.1594C126.492 83.3767 129.635 87.7171 132.23 91.3369C134.474 94.6524 135.861 98.4733 136.265 102.457L145.229 97.5288C149.802 95.6829 152.296 90.6828 157.324 88.1052L172.424 71.8522L177.025 62.4563L178.555 39.3352L176.377 39.4904L167.934 40.599C167.934 40.599 160.623 39.8008 161.875 36.9904Z" fill="#FF6600"/>
<path d="M169.999 43.0736L176.945 40.0026C178.697 38.3122 180.548 36.7277 182.488 35.2576C182.488 35.2576 173.824 46.0504 181.429 49.6702C189.035 53.2899 195.188 43.7499 195.188 43.7499C194.312 45.1067 193.505 46.5073 192.771 47.9462C191.884 49.7866 187.372 55.6569 187.372 55.6569C187.103 57.8534 186.148 59.9094 184.645 61.5328C182.05 64.4985 179.134 69.4099 176.817 70.6682C174.5 71.9265 169.323 74.2325 169.323 74.2325C168.272 68.6248 167.953 62.9044 168.375 57.2146C169.134 48.3231 169.999 43.0736 169.999 43.0736Z" fill="#FF6600"/>
<path d="M180.78 51.7671C180.569 51.6478 180.371 51.5046 180.193 51.3403C179.677 50.9201 179.199 50.4565 178.762 49.9544C178.103 49.1997 177.655 48.2834 177.465 47.2992C177.297 46.0902 177.371 44.8598 177.681 43.6794C178.22 41.5521 179.13 39.5366 180.37 37.7259C180.83 37.0274 181.235 36.4842 181.523 36.1128C181.663 35.9122 181.822 35.7265 182 35.5585C181.896 35.7773 181.767 35.9837 181.617 36.1738C181.357 36.5618 180.98 37.1217 180.542 37.8368C179.368 39.6538 178.497 41.6495 177.964 43.7459C177.662 44.8878 177.581 46.077 177.726 47.2493C177.897 48.1971 178.309 49.0849 178.923 49.8269C179.982 51.0964 180.825 51.7227 180.78 51.7671Z" fill="#263238"/>
<path d="M179.739 60.1695C179.654 60.2203 179.565 60.263 179.473 60.297C179.295 60.3691 179.029 60.4799 178.68 60.6074C177.69 60.964 176.65 61.1623 175.598 61.195C174.86 61.2041 174.13 61.0369 173.469 60.7072C172.709 60.3037 172.1 59.6635 171.734 58.8835C170.947 57.2593 170.859 55.2526 171.025 53.2515C171.175 51.3503 171.568 49.4761 172.194 47.6749C172.769 46.2266 173.513 44.8515 174.412 43.5784C175.16 42.4697 175.82 41.6438 176.28 41.0673C176.502 40.8067 176.679 40.5906 176.834 40.4132C176.989 40.2358 177.028 40.1914 177.039 40.197C176.995 40.2858 176.941 40.3694 176.879 40.4464L176.385 41.1393C175.947 41.7325 175.315 42.5917 174.595 43.6893C173.736 44.9642 173.025 46.333 172.477 47.7691C171.875 49.5507 171.493 51.3993 171.341 53.2736C171.18 55.2526 171.269 57.2205 172.006 58.7671C172.34 59.4992 172.899 60.1052 173.602 60.4966C174.229 60.8165 174.922 60.9855 175.626 60.9899C176.658 60.9721 177.683 60.8079 178.669 60.5021L179.473 60.2416C179.558 60.2072 179.648 60.183 179.739 60.1695Z" fill="#263238"/>
<path d="M176.928 39.7296C176.539 40.0852 176.13 40.4183 175.703 40.7274C174.724 41.5255 173.81 42.4004 172.97 43.3439C172.135 44.2921 171.375 45.3041 170.697 46.3705C170.442 46.8299 170.161 47.2741 169.855 47.7009C170.015 47.1952 170.24 46.7125 170.525 46.2652C171.154 45.152 171.897 44.1078 172.743 43.1498C173.593 42.1931 174.541 41.3274 175.57 40.5666C175.986 40.232 176.442 39.9508 176.928 39.7296Z" fill="#263238"/>
<g opacity="0.3">
<path opacity="0.3" d="M177.378 39.7296C172.832 44.1963 170.141 50.2152 169.844 56.5813C169.844 57.1356 169.994 57.8728 170.548 57.8839C170.717 57.8704 170.876 57.7999 170.999 57.684C171.121 57.5681 171.201 57.4138 171.225 57.2465C171.244 56.9116 171.216 56.5757 171.142 56.2487C170.931 53.5823 171.513 50.4337 172.439 47.6122C173.364 44.7907 175.62 42.1077 177.378 39.7296Z" fill="black"/>
</g>
<g opacity="0.3">
<path opacity="0.3" d="M181.302 36.2122C179.411 38.3242 177.643 40.608 176.69 43.2743C175.736 45.9407 175.692 49.0394 177.139 51.4729C177.538 52.1436 178.342 52.8199 179.018 52.4263C179.233 52.2639 179.387 52.0347 179.458 51.7748C179.528 51.5149 179.51 51.2391 179.406 50.9906C179.183 50.5 178.896 50.0414 178.552 49.6269C177.239 47.7145 177.194 45.159 177.882 42.9417C178.569 40.7244 179.894 38.7787 181.208 36.8441" fill="black"/>
</g>
<g opacity="0.3">
<path opacity="0.3" d="M121.606 77.6538C124.841 79.7113 128.444 81.1197 132.216 81.8002C135.409 82.2991 138.663 81.7392 141.856 81.2459C150.171 79.9044 158.647 78.6904 167.017 77.676H121.606" fill="black"/>
</g>
<path d="M151.811 102.458C151.964 102.384 152.129 102.337 152.299 102.319C152.751 102.241 153.211 102.225 153.668 102.269C155.197 102.432 156.625 103.108 157.72 104.187C158.331 104.762 158.838 105.44 159.217 106.188C159.523 106.807 159.695 107.483 159.721 108.173C159.737 108.633 159.69 109.094 159.583 109.542C159.55 109.707 159.492 109.866 159.411 110.013C159.501 109.408 159.538 108.796 159.522 108.184C159.464 107.529 159.276 106.892 158.967 106.31C158.591 105.595 158.098 104.947 157.509 104.392C156.45 103.359 155.093 102.686 153.629 102.469C153.024 102.415 152.416 102.411 151.811 102.458Z" fill="#263238"/>
<path d="M153.842 102.452H101.092C97.9293 102.452 95.3656 105.016 95.3656 108.179V109.149C95.3656 112.311 97.9293 114.875 101.092 114.875H153.842C157.004 114.875 159.568 112.311 159.568 109.149V108.179C159.568 105.016 157.004 102.452 153.842 102.452Z" fill="#455A64"/>
<path d="M193.399 49.6491L192.756 49.2235C190.664 47.8368 187.843 48.4091 186.456 50.5018L148.831 107.283C147.444 109.376 148.017 112.196 150.109 113.583L150.752 114.009C152.844 115.395 155.665 114.823 157.051 112.73L194.677 55.949C196.064 53.8563 195.491 51.0358 193.399 49.6491Z" fill="#455A64"/>
<path d="M121.772 89.5862C121.883 89.5862 125.653 93.2725 126.54 95.767C127.427 98.2614 128.585 104.354 129.117 106.671C129.855 109.847 131.03 112.907 135.37 113.106L151.806 113.173C152.304 113.175 152.795 113.051 153.232 112.814C153.67 112.577 154.041 112.233 154.312 111.815L168.697 89.5862H164.201L151.645 108.289H137.41C136.917 108.297 136.43 108.191 135.985 107.979C135.539 107.768 135.149 107.456 134.844 107.07C134.641 106.815 134.494 106.52 134.411 106.205C134.09 104.919 132.964 98.2559 131.601 95.3623C130.624 93.3703 129.525 91.4412 128.308 89.5862H121.772Z" fill="#263238"/>
<path d="M136.751 110.735C136.752 110.936 136.693 111.133 136.582 111.301C136.471 111.468 136.312 111.599 136.127 111.677C135.941 111.754 135.737 111.775 135.54 111.736C135.342 111.697 135.161 111.6 135.019 111.458C134.877 111.315 134.78 111.134 134.741 110.937C134.702 110.74 134.722 110.535 134.8 110.35C134.877 110.164 135.008 110.006 135.176 109.895C135.344 109.784 135.541 109.725 135.742 109.726C136.009 109.726 136.266 109.832 136.455 110.021C136.644 110.211 136.751 110.467 136.751 110.735Z" fill="#455A64"/>
<path d="M152.657 110.735C152.658 110.936 152.599 111.133 152.488 111.301C152.377 111.468 152.219 111.599 152.033 111.677C151.848 111.754 151.643 111.775 151.446 111.736C151.249 111.697 151.067 111.6 150.925 111.458C150.783 111.315 150.686 111.134 150.647 110.937C150.608 110.74 150.629 110.535 150.706 110.35C150.784 110.164 150.915 110.006 151.082 109.895C151.25 109.784 151.447 109.725 151.648 109.726C151.915 109.727 152.171 109.834 152.36 110.023C152.549 110.212 152.655 110.468 152.657 110.735Z" fill="#455A64"/>
<path d="M171.636 86.5564H118.055C117.277 86.5564 116.647 87.1868 116.647 87.9644V88.2028C116.647 88.9804 117.277 89.6108 118.055 89.6108H171.636C172.414 89.6108 173.044 88.9804 173.044 88.2028V87.9644C173.044 87.1868 172.414 86.5564 171.636 86.5564Z" fill="#263238"/>
<path d="M140.077 86.5481H139.933H139.523L137.915 86.5813L131.906 86.6534C129.34 86.6534 126.252 86.7033 122.765 86.6922H120.071C119.162 86.6922 118.164 86.5093 117.372 86.9805C117.181 87.0879 117.03 87.2534 116.94 87.4529C116.85 87.6523 116.827 87.8753 116.873 88.0891C116.927 88.3114 117.036 88.5166 117.19 88.686C117.344 88.8554 117.538 88.9836 117.754 89.0592C118.698 89.4042 119.707 89.5385 120.709 89.4528H131.607L159.717 89.4971L168.237 89.5415L170.554 89.5692H171.153C171.221 89.5617 171.29 89.5617 171.358 89.5692H171.153H170.554L168.237 89.5969L159.717 89.6412L131.607 89.6856H120.742C119.694 89.7814 118.638 89.6373 117.654 89.2643C117.399 89.1715 117.171 89.0165 116.991 88.8132C116.811 88.6099 116.684 88.3648 116.623 88.1002C116.623 87.9672 116.59 87.8397 116.595 87.6955C116.612 87.5595 116.649 87.4267 116.706 87.302C116.83 87.0564 117.023 86.8522 117.261 86.7144C117.703 86.474 118.199 86.3518 118.702 86.3596C119.19 86.3596 119.644 86.3929 120.104 86.3984L122.793 86.4372H131.934H137.926H139.534H139.944L140.077 86.5481Z" fill="#455A64"/>
<path d="M128.419 103.446C128.335 103.259 128.272 103.064 128.231 102.864C128.114 102.426 127.976 101.888 127.815 101.256C127.405 99.4769 126.894 97.7224 126.285 96.0011C125.932 95.0671 125.506 94.1625 125.01 93.2959C124.588 92.5985 124.111 91.935 123.586 91.3114C122.671 90.2527 121.995 89.7039 122.033 89.6484C122.21 89.7539 122.375 89.8764 122.527 90.0143C122.961 90.3649 123.365 90.7505 123.735 91.1673C124.297 91.7787 124.8 92.4412 125.237 93.1463C125.757 94.0204 126.199 94.9386 126.557 95.8902C127.174 97.6199 127.661 99.3931 128.015 101.195C128.159 101.883 128.27 102.442 128.342 102.83C128.393 103.031 128.42 103.238 128.419 103.446Z" fill="#455A64"/>
<path d="M130.339 114.872H126.763V159.934H130.339V114.872Z" fill="#263238"/>
<path d="M129.617 152.714L166.773 160.025V163.906L129.617 158.312V152.714Z" fill="#263238"/>
<path d="M163.477 169.997C165.296 169.997 166.77 168.522 166.77 166.704C166.77 164.885 165.296 163.411 163.477 163.411C161.659 163.411 160.184 164.885 160.184 166.704C160.184 168.522 161.659 169.997 163.477 169.997Z" fill="#263238"/>
<path d="M128.654 152.714L98.5925 160.053V163.933L128.654 157.958V152.714Z" fill="#263238"/>
<path d="M101.885 169.997C103.704 169.997 105.178 168.522 105.178 166.704C105.178 164.885 103.704 163.411 101.885 163.411C100.067 163.411 98.5925 164.885 98.5925 166.704C98.5925 168.522 100.067 169.997 101.885 169.997Z" fill="#263238"/>
<path d="M128.562 169.997C130.38 169.997 131.855 168.522 131.855 166.704C131.855 164.885 130.38 163.411 128.562 163.411C126.743 163.411 125.269 164.885 125.269 166.704C125.269 168.522 126.743 169.997 128.562 169.997Z" fill="#263238"/>
<path d="M132.31 163.418H124.854L124.926 135.23H132.387L132.31 163.418Z" fill="#263238"/>
<path d="M132.108 135.288C130.937 135.43 129.756 135.478 128.577 135.432C127.4 135.478 126.221 135.43 125.051 135.288C126.221 135.145 127.4 135.097 128.577 135.144C129.756 135.097 130.937 135.145 132.108 135.288Z" fill="#455A64"/>
<path d="M131.875 158.644C130.704 158.787 129.523 158.835 128.344 158.788C127.165 158.835 125.984 158.787 124.813 158.644C125.984 158.501 127.165 158.453 128.344 158.5C129.523 158.453 130.704 158.501 131.875 158.644Z" fill="#455A64"/>
</svg>
