<svg width="536" height="531" viewBox="0 0 536 531" fill="none" xmlns="http://www.w3.org/2000/svg">
<path d="M57.5611 233.695C57.5561 233.604 57.5561 233.514 57.5611 233.424C57.5611 233.212 57.5611 232.965 57.5611 232.647C57.5611 231.928 57.5611 230.939 57.5611 229.655C57.5611 227.041 57.5611 223.285 57.4552 218.539L57.6318 218.716L0.270848 218.892L0.565248 218.598V226.276C0.565248 228.808 0.565248 231.292 0.565248 233.73L0.282624 233.447L41.1101 233.577L53.1687 233.659H56.4189H57.2785H57.5729C57.5729 233.659 57.4905 233.659 57.3139 233.659H56.4895H53.2982L41.3102 233.742L0.282624 233.871H0V233.589C0 231.155 0 228.67 0 226.134V218.457L0.2944 218.162L57.5847 218.28H57.7731V218.457C57.7731 223.249 57.7025 227.041 57.6789 229.679C57.6789 230.939 57.6789 231.916 57.6789 232.623C57.6789 232.929 57.6789 233.177 57.6789 233.377C57.6789 233.577 57.5729 233.706 57.5611 233.695Z" fill="#E0E0E0"/>
<path d="M65.3338 218.539C65.3251 218.441 65.3251 218.343 65.3338 218.245C65.3338 218.033 65.3338 217.774 65.3338 217.444C65.3338 216.702 65.3338 215.689 65.3338 214.406C65.3338 211.744 65.2631 208 65.216 203.383L65.428 203.595L31.0067 203.678C30.7476 203.937 31.36 203.313 31.3011 203.383V207.305C31.3011 208.612 31.3011 209.896 31.3011 211.167C31.3011 213.699 31.3011 216.16 31.3011 218.516L31.0303 218.233L55.6539 218.374L62.8255 218.445H64.7568H65.4515C65.2438 218.462 65.0351 218.462 64.8274 218.445H62.955L55.8894 218.516L31.0774 218.657H30.7947V218.374C30.7947 216.019 30.7947 213.558 30.7947 211.026V203.242L31.0891 202.948L65.5104 203.03H65.7224V203.242C65.7224 207.953 65.64 211.709 65.6046 214.394C65.6046 215.654 65.6046 216.655 65.6046 217.385C65.6046 218.115 65.3456 218.551 65.3338 218.539Z" fill="#E0E0E0"/>
<path d="M88.7796 417.012H31.4893V432.168H88.7796V417.012Z" fill="#EBEBEB"/>
<path d="M64.5563 448.137C64.5479 448.043 64.5479 447.948 64.5563 447.854V447.077C64.5563 446.37 64.5563 445.369 64.5563 444.097C64.5563 441.483 64.5563 437.727 64.4621 432.981L64.6388 433.157L7.34848 433.275C7.47801 433.146 7.05408 433.558 7.6311 432.981V448.113L7.34848 447.83L48.1759 447.96L60.2228 448.042H63.4847H64.3326H64.6388H64.3679H63.5554H60.3641L48.3761 448.125L7.34848 448.254H7.05408V433.004L7.34848 432.71L64.6388 432.828H64.8154V433.004C64.8154 437.785 64.7448 441.589 64.7212 444.227C64.7212 445.487 64.7212 446.464 64.7212 447.171C64.7212 447.477 64.7212 447.724 64.7212 447.913C64.6716 447.991 64.6165 448.066 64.5563 448.137Z" fill="#E0E0E0"/>
<path d="M535.055 375.561H477.765V390.716H535.055V375.561Z" fill="#EBEBEB"/>
<path d="M510.831 406.673C510.826 406.583 510.826 406.492 510.831 406.402V405.625C510.831 404.907 510.831 403.917 510.831 402.646C510.831 400.02 510.772 396.263 510.725 391.517L510.902 391.694L453.612 391.812L453.906 391.517V399.207C453.906 401.739 453.906 404.224 453.906 406.661L453.623 406.379L494.451 406.508L506.51 406.591H509.76H510.619H510.914C510.914 406.591 510.831 406.591 510.655 406.591H509.83H506.639L494.651 406.673L453.623 406.803H453.341V406.508C453.341 404.071 453.341 401.586 453.341 399.054V391.529C453.93 390.952 453.506 391.376 453.635 391.235L510.926 391.352H511.102V391.529C511.102 396.322 511.032 400.114 511.008 402.763C511.008 404.012 511.008 405.001 511.008 405.707C511.008 406.014 511.008 406.249 511.008 406.449C511.008 406.649 510.843 406.685 510.831 406.673Z" fill="#E0E0E0"/>
<path d="M510.513 25.9193C510.504 25.8292 510.504 25.7385 510.513 25.6484V24.8712C510.513 24.1529 510.513 23.1637 510.513 21.8801C510.513 19.2658 510.454 15.5093 510.419 10.7635L510.596 10.9402L453.305 11.0579C453.435 10.9284 453.011 11.3405 453.588 10.7635V25.9193L453.305 25.6366L494.133 25.7662L506.18 25.8486H509.442H510.29H510.596H510.325H509.512H506.309L494.274 26.0723L453.247 26.2019H452.952V10.7871L453.247 10.4927L510.537 10.6104H510.713V10.7871C510.713 15.5681 510.643 19.3718 510.619 22.0096C510.619 23.2697 510.619 24.2471 510.619 24.9536C510.619 25.2598 510.619 25.5071 510.619 25.7073C510.589 25.7804 510.554 25.8513 510.513 25.9193Z" fill="#E0E0E0"/>
<path d="M486.538 41.075C486.527 40.985 486.527 40.8942 486.538 40.8042C486.538 40.604 486.538 40.3449 486.538 40.027C486.538 39.3086 486.538 38.3194 486.538 37.0359C486.538 34.4216 486.479 30.665 486.444 25.9193L486.62 26.0959L429.33 26.2137C429.459 26.0842 429.036 26.5081 429.613 25.9193V41.075L429.33 40.7924L470.157 40.9219L482.204 41.0044H485.466H486.314H486.62H486.349H485.537H482.334L470.358 41.075L429.33 41.2046H429.036V25.99L429.33 25.6956L486.62 25.8133H486.797V25.99C486.797 30.7828 486.726 34.5747 486.703 37.2125C486.703 38.4725 486.703 39.4617 486.703 40.1565C486.703 40.4627 486.703 40.71 486.703 40.9102C486.652 40.9695 486.597 41.0246 486.538 41.075Z" fill="#E0E0E0"/>
<path d="M284.155 349.076C284.155 349.076 284.155 348.982 284.155 348.806V348.028C284.155 347.31 284.155 346.321 284.155 345.037C284.155 342.423 284.155 338.666 284.061 333.921L284.238 334.097L226.948 334.215L227.242 333.921V337.83C227.242 339.114 227.242 340.386 227.242 341.658V349.112L226.959 348.829L267.787 348.959L279.834 349.041H283.096H283.944H284.25H283.991H283.166H279.975L267.987 349.124L226.959 349.253H226.677V348.97C226.677 346.537 226.677 344.052 226.677 341.516V333.944L226.971 333.65L284.261 333.768H284.438V333.944C284.438 338.725 284.367 342.529 284.344 345.167C284.344 346.427 284.344 347.404 284.344 348.111V348.864C284.167 349.006 284.167 349.076 284.155 349.076Z" fill="#E0E0E0"/>
<path d="M291.927 333.921C291.918 333.823 291.918 333.725 291.927 333.627C291.927 333.415 291.927 333.144 291.927 332.826C291.927 332.084 291.927 331.071 291.927 329.788C291.927 327.126 291.856 323.382 291.809 318.765L292.021 318.977L257.6 319.06C257.329 319.319 257.953 318.695 257.883 318.765V326.549C257.883 329.081 257.883 331.542 257.883 333.898L257.612 333.615L282.235 333.744L289.407 333.827H291.338H292.033C291.825 333.844 291.617 333.844 291.409 333.827H289.525L282.459 333.898L257.647 334.027H257.365V333.744C257.365 331.389 257.365 328.928 257.365 326.396V318.612L257.659 318.318L292.08 318.4H292.292V318.612C292.292 323.323 292.198 327.079 292.174 329.764C292.174 331.024 292.174 332.025 292.174 332.755C292.174 333.485 291.939 333.933 291.927 333.921Z" fill="#E0E0E0"/>
<path d="M196.871 465.777V504.885H254.067H317.139V465.777H196.871Z" fill="#F5F5F5"/>
<path d="M191.819 454.849V465.777H321.343V454.849H254.067H191.819Z" fill="#E0E0E0"/>
<path d="M256.588 504.885H317.14V465.777H321.344V454.849H254.068V464.764L256.588 504.885Z" fill="#E0E0E0"/>
<path d="M238.076 472.089H213.688V477.977H238.076V472.089Z" fill="#E0E0E0"/>
<path d="M241.879 485.337H210.555V497.773H241.879V485.337Z" fill="white"/>
<path d="M215.371 415.788V454.896H272.567H335.64V415.788H215.371Z" fill="#F5F5F5"/>
<path d="M210.332 404.859V415.787H339.856V404.859H272.568H210.332Z" fill="#E0E0E0"/>
<path d="M275.088 454.895H335.64V415.787H339.856V404.859H272.568V414.774L275.088 454.895Z" fill="#E0E0E0"/>
<path d="M256.587 422.1H232.199V427.988H256.587V422.1Z" fill="#E0E0E0"/>
<path d="M260.379 435.348H229.055V447.783H260.379V435.348Z" fill="white"/>
<path d="M519.475 503.589C519.475 503.754 405.896 503.896 265.832 503.896C125.768 503.896 12.1647 503.754 12.1647 503.589C12.1647 503.425 125.685 503.283 265.82 503.283C405.955 503.283 519.475 503.425 519.475 503.589Z" fill="#263238"/>
<path d="M192.81 403.504C189.901 400.696 186.332 398.665 182.432 397.6C178.532 396.534 174.426 396.467 170.494 397.406C166.561 398.345 162.928 400.258 159.93 402.97C156.931 405.682 154.664 409.106 153.337 412.925L156.186 423.971C157.27 420.214 159.601 416.575 163.193 415.021C166.785 413.466 171.271 414.326 175.099 415.727C178.926 417.129 182.682 418.978 186.757 419.26C190.831 419.543 195.412 417.588 196.625 413.69C197.72 410.051 195.518 406.13 192.81 403.504Z" fill="#FF6600"/>
<g opacity="0.3">
<path opacity="0.3" d="M192.81 403.504C189.901 400.696 186.332 398.665 182.432 397.6C178.532 396.534 174.426 396.467 170.494 397.406C166.561 398.345 162.928 400.258 159.93 402.97C156.931 405.682 154.664 409.106 153.337 412.925L156.186 423.971C157.27 420.214 159.601 416.575 163.193 415.021C166.785 413.466 171.271 414.326 175.099 415.727C178.926 417.129 182.682 418.978 186.757 419.26C190.831 419.543 195.412 417.588 196.625 413.69C197.72 410.051 195.518 406.13 192.81 403.504Z" fill="black"/>
</g>
<path d="M123.931 440.351C117.961 434.687 118.255 424.819 121.235 417.153C124.214 409.486 130.656 403.587 137.957 399.712C145.039 395.995 152.872 393.93 160.866 393.671C168.861 393.412 176.81 394.966 184.119 398.217C180.55 398.379 177.075 399.411 173.996 401.223C170.917 403.036 168.328 405.573 166.455 408.615C163.181 414.044 162.463 420.638 159.754 426.361C156.71 432.825 151.305 437.876 144.651 440.478C137.998 443.08 130.6 443.035 123.979 440.351" fill="#FF6600"/>
<path d="M121.058 406.307C114.452 398.511 113.58 385.993 114.546 375.831C115.512 365.668 117.879 355.423 116.277 345.331C115.323 339.349 113.003 333.649 112.226 327.667C111.449 321.685 112.544 314.878 117.196 311.004C122.542 306.552 130.962 307.601 136.52 311.781C142.078 315.961 145.305 322.533 147.66 329.08C152.83 343.458 154.726 359.403 150.486 374.088C146.247 388.773 136.261 401.903 121.635 406.331" fill="#FF6600"/>
<path d="M117.891 470.275C117.865 469.977 117.865 469.677 117.891 469.38C117.891 468.791 117.891 467.919 117.891 466.801C117.973 464.563 118.185 461.325 118.692 457.38C119.279 452.728 120.125 448.113 121.224 443.555C122.6 437.961 124.723 432.579 127.536 427.551C130.363 422.528 133.831 417.893 137.851 413.762C141.119 410.384 144.744 407.371 148.662 404.777C150.31 403.599 151.9 402.763 153.278 401.962C154.656 401.161 155.916 400.62 156.929 400.137L159.284 399.136C159.559 399.011 159.842 398.905 160.132 398.818C159.878 398.98 159.61 399.118 159.331 399.23L156.976 400.325C155.986 400.843 154.785 401.503 153.443 402.233C152.1 402.963 150.511 403.94 148.885 405.094C140.295 410.967 133.165 418.73 128.042 427.787C121.966 438.385 120.305 449.584 119.092 457.404C118.55 461.36 118.28 464.587 118.127 466.824C118.127 467.896 118.009 468.756 117.973 469.392C117.973 469.688 117.945 469.983 117.891 470.275Z" fill="#263238"/>
<path d="M60.9183 375.513C48.6948 382.885 48.7301 389.644 50.7674 395.921C52.8046 402.198 60.3177 406.661 66.5355 404.294C70.0683 402.951 72.5883 399.89 74.7787 396.828C76.969 393.766 78.9945 390.469 82.0445 388.267C84.1386 386.706 86.7311 385.964 89.3338 386.182L60.9183 375.513Z" fill="#FF6600"/>
<path d="M89.3344 386.229L92.5728 387.407C91.6071 386.753 90.4945 386.348 89.3344 386.229Z" fill="#FF6600"/>
<path d="M96.5645 389.574L84.5883 385.076L89.4047 385.641C90.6766 385.776 91.8929 386.234 92.9375 386.972L96.5645 389.574Z" fill="black"/>
<g opacity="0.3">
<path opacity="0.3" d="M60.9183 375.513C48.6948 382.885 48.7301 389.644 50.7674 395.921C52.8046 402.198 60.3177 406.661 66.5355 404.294C70.0683 402.951 72.5883 399.89 74.7787 396.828C76.969 393.766 78.9945 390.469 82.0445 388.267C84.1386 386.706 86.7311 385.964 89.3338 386.182L60.9183 375.513Z" fill="black"/>
</g>
<path d="M51.7802 383.639C54.9715 379.223 62.8614 377.951 67.8427 380.106C72.8239 382.261 76.4863 386.677 79.7482 391.034C83.0102 395.391 86.2015 399.996 90.7235 403.034C95.2455 406.072 101.581 407.167 106.032 404.105C107.469 403.033 108.673 401.679 109.57 400.126C110.467 398.573 111.038 396.854 111.249 395.073C111.632 391.526 111.389 387.938 110.531 384.475C109.447 379.352 107.693 374.006 103.595 370.744C99.0138 367.117 92.6783 366.94 86.8492 367.141C80.1486 367.352 73.3539 367.859 67.0772 370.179C60.8006 372.499 54.3827 377.503 51.7684 383.65" fill="#FF6600"/>
<path d="M107.739 460.489C107.725 460.399 107.725 460.308 107.739 460.218C107.739 460.006 107.739 459.747 107.739 459.429C107.739 458.699 107.739 457.686 107.633 456.403C107.563 453.718 107.445 449.926 107.315 445.251C107.186 440.576 106.974 434.935 106.632 428.764C106.291 422.594 105.832 415.717 104.889 408.604C104.486 405.141 103.809 401.715 102.864 398.359C101.888 395.265 100.634 392.266 99.1193 389.397C97.7625 386.795 96.1867 384.313 94.4088 381.978C92.8459 379.957 91.1209 378.067 89.251 376.326C86.5286 373.807 83.4494 371.704 80.1128 370.085C79.5122 369.814 78.994 369.543 78.523 369.354L77.3454 368.895L76.6153 368.601C76.475 368.583 76.3414 368.53 76.2267 368.448L76.4858 368.518L77.2394 368.766L78.417 369.178C78.8998 369.355 79.4298 369.614 80.0303 369.873C83.4312 371.429 86.5728 373.498 89.3452 376.008C91.2503 377.755 93.0106 379.653 94.609 381.684C96.4238 384.025 98.0314 386.519 99.4137 389.138C100.966 392.027 102.244 395.055 103.229 398.182C104.199 401.558 104.888 405.008 105.29 408.498C106.232 415.646 106.679 422.488 106.997 428.717C107.315 434.947 107.468 440.493 107.563 445.204C107.657 449.914 107.692 453.73 107.704 456.356C107.704 457.639 107.704 458.652 107.704 459.394C107.704 459.712 107.704 459.971 107.704 460.183C107.722 460.284 107.734 460.386 107.739 460.489Z" fill="#263238"/>
<path d="M112.132 466.012C111.551 464.298 111.102 462.542 110.79 460.76C109.946 455.892 109.76 450.933 110.236 446.016C110.998 438.733 112.578 431.559 114.946 424.631C117.455 416.764 120.834 408.356 123.767 399.324C125.214 394.936 126.394 390.465 127.299 385.935C128.078 381.708 128.628 377.443 128.948 373.158C129.503 365.89 129.633 358.596 129.337 351.313C129.125 345.096 128.795 340.055 128.595 336.581C128.489 334.874 128.406 333.531 128.359 332.578C128.359 332.142 128.359 331.8 128.359 331.53C128.344 331.412 128.344 331.294 128.359 331.176C128.372 331.294 128.372 331.412 128.359 331.53C128.359 331.789 128.359 332.142 128.465 332.566C128.548 333.52 128.666 334.921 128.807 336.57C129.078 340.044 129.466 345.072 129.725 351.301C130.078 358.601 129.988 365.916 129.455 373.205C129.12 377.511 128.55 381.797 127.747 386.041C126.843 390.591 125.663 395.082 124.214 399.489C121.306 408.556 117.879 416.953 115.359 424.784C113.022 431.681 111.443 438.812 110.648 446.051C110.146 450.939 110.276 455.87 111.037 460.724C111.343 462.432 111.614 463.762 111.849 464.646C111.955 465.07 112.038 465.399 112.097 465.658C112.124 465.774 112.135 465.893 112.132 466.012Z" fill="#263238"/>
<path d="M142.421 471.535H85.0479L83.7408 460.489H142.421V471.535Z" fill="#455A64"/>
<path d="M91.2066 470.274L98.3782 503.4H129.561L136.273 470.274H91.2066Z" fill="#455A64"/>
<path d="M142.42 471.534C142.42 471.688 129.808 471.77 114.252 471.723C98.6954 471.676 86.0833 471.523 86.0833 471.37C86.0833 471.217 98.6954 471.134 114.252 471.181C129.808 471.228 142.42 471.381 142.42 471.534Z" fill="#455A64"/>
<path d="M132.576 487.88C131.014 486.715 129.318 485.743 127.524 484.983C125.561 484.23 123.479 483.831 121.377 483.805C118.798 483.808 116.242 484.275 113.828 485.183C111.214 486.066 108.765 487.103 106.386 487.668C104.276 488.122 102.101 488.186 99.9681 487.856C98.5277 487.651 97.1311 487.209 95.8347 486.549C95.4866 486.365 95.1521 486.157 94.8337 485.925C94.6218 485.76 94.5158 485.666 94.5276 485.654C94.5393 485.642 95.0222 485.937 95.9289 486.361C97.2254 486.953 98.6024 487.35 100.015 487.538C102.105 487.802 104.225 487.698 106.28 487.232C108.635 486.667 110.99 485.619 113.652 484.724C116.125 483.797 118.748 483.334 121.389 483.358C123.548 483.428 125.675 483.895 127.665 484.736C129.006 485.289 130.266 486.022 131.41 486.914C131.721 487.154 132.02 487.409 132.305 487.68C132.493 487.762 132.588 487.868 132.576 487.88Z" fill="#263238"/>
<path d="M132.14 490.093C130.634 488.964 129.007 488.009 127.288 487.244C125.415 486.491 123.418 486.092 121.4 486.066C118.904 486.077 116.429 486.523 114.087 487.385C111.567 488.221 109.188 489.21 106.927 489.811C104.925 490.393 102.838 490.628 100.757 490.506C99.3459 490.428 97.9666 490.059 96.7056 489.422C96.3661 489.247 96.0429 489.042 95.7399 488.81C95.528 488.657 95.422 488.563 95.4337 488.551C95.4455 488.539 95.9166 488.822 96.7998 489.234C98.0602 489.773 99.4099 490.072 100.78 490.117C102.816 490.185 104.848 489.918 106.798 489.328C109.011 488.704 111.367 487.715 113.863 486.855C116.262 485.978 118.799 485.539 121.353 485.56C123.443 485.623 125.502 486.086 127.417 486.926C128.679 487.501 129.865 488.229 130.95 489.093C131.251 489.327 131.538 489.579 131.81 489.846C132.069 489.976 132.151 490.082 132.14 490.093Z" fill="white"/>
<path d="M133.141 485.689C131.534 484.478 129.796 483.451 127.959 482.627C125.96 481.771 123.829 481.262 121.659 481.12C118.996 481.06 116.347 481.524 113.863 482.486C111.347 483.475 108.776 484.316 106.162 485.006C103.968 485.378 101.726 485.378 99.532 485.006C98.0508 484.772 96.6136 484.316 95.269 483.652C94.9067 483.469 94.5601 483.256 94.2328 483.016C94.009 482.839 93.8913 482.745 93.903 482.733C93.9148 482.721 94.4094 483.028 95.3632 483.463C96.7137 484.043 98.1355 484.439 99.5908 484.641C101.742 484.952 103.929 484.912 106.068 484.523C108.649 483.805 111.192 482.956 113.687 481.98C116.237 480.992 118.961 480.531 121.694 480.625C123.915 480.795 126.088 481.357 128.112 482.286C129.478 482.914 130.763 483.705 131.94 484.641C132.259 484.888 132.565 485.152 132.858 485.43C133.058 485.571 133.164 485.677 133.141 485.689Z" fill="white"/>
<path d="M142.927 471.581C142.927 471.734 129.973 471.852 114.111 471.852C98.2483 471.852 85.283 471.734 85.283 471.581C85.283 471.428 98.2366 471.311 114.111 471.311C129.985 471.311 142.927 471.428 142.927 471.581Z" fill="#263238"/>
<path d="M370.981 7.7959H50.4853V289.125H370.981V7.7959Z" fill="#FAFAFA"/>
<path d="M370.981 289.113C370.981 286.935 370.875 177.1 370.722 7.79617L370.981 8.05524L50.5207 8.10234L50.8269 7.79617C50.8269 110.024 50.8269 206.293 50.8269 289.113L50.556 288.842L371.052 289.113L50.556 289.384H50.2852V289.113C50.2852 206.293 50.2852 110.024 50.2852 7.79617V7.48999H50.6267H371.087H371.346V7.74906C371.087 177.112 370.981 286.935 370.981 289.113Z" fill="#263238"/>
<path d="M227.278 288.619C227.278 288.619 227.278 288.76 227.207 289.031C227.106 289.414 226.963 289.785 226.783 290.138C226.132 291.459 225.17 292.602 223.98 293.471C222.243 294.766 220.227 295.637 218.092 296.014C215.493 296.439 212.86 296.628 210.226 296.579C207.59 296.683 204.951 296.521 202.348 296.097C200.206 295.743 198.164 294.94 196.354 293.741C195.15 292.924 194.061 291.95 193.116 290.845C192.742 290.464 192.424 290.032 192.173 289.561C192.589 289.909 192.983 290.282 193.351 290.68C194.345 291.704 195.451 292.613 196.648 293.388C198.445 294.502 200.447 295.243 202.536 295.567C205.108 295.949 207.71 296.091 210.309 295.991C212.905 296.036 215.5 295.867 218.069 295.484C220.148 295.143 222.125 294.338 223.851 293.129C225.015 292.316 225.987 291.259 226.701 290.032C227.066 289.149 227.219 288.595 227.278 288.619Z" fill="#263238"/>
<path d="M391.695 0.0358887H29.783V11.0347H391.695V0.0358887Z" fill="#455A64"/>
<path d="M391.718 11.0577H29.7471V0H391.718V11.0577ZM29.806 11.0577H391.659V0.0588792H29.806V11.0577Z" fill="#263238"/>
<path d="M336.453 56.4546H83.0453V173.602H336.453V56.4546Z" fill="#FAFAFA"/>
<path d="M336.477 173.602C336.477 173.602 336.477 172.884 336.477 171.506V165.418C336.477 160.072 336.477 152.205 336.406 142.078C336.406 121.847 336.324 92.6186 336.265 56.4545L336.524 56.7136L83.1395 56.8078L83.5045 56.4545C83.5045 97.6705 83.5045 137.285 83.5045 173.602L83.163 173.261L265.102 173.426L317.659 173.52H331.696H335.335H336.571H335.393H331.861H317.894L265.409 173.614L83.2454 173.779H82.7037V173.437C82.7037 137.12 82.7037 97.4939 82.7037 56.2896V55.9246H83.0806L336.477 56.1954H336.736V56.4545C336.677 92.6539 336.63 121.964 336.606 142.243C336.606 152.335 336.606 160.189 336.536 165.524C336.536 168.174 336.536 170.234 336.536 171.565C336.536 172.896 336.477 173.602 336.477 173.602Z" fill="#263238"/>
<path d="M100.874 137.379V141.077H100.497V137.709H99.626V137.379H100.874Z" fill="#263238"/>
<path d="M101.758 139.227C101.758 138.05 102.382 137.343 103.23 137.343C104.078 137.343 104.714 138.05 104.714 139.227C104.714 140.405 104.09 141.1 103.23 141.1C102.37 141.1 101.758 140.405 101.758 139.227ZM104.325 139.227C104.325 138.238 103.878 137.685 103.23 137.685C102.582 137.685 102.147 138.238 102.147 139.227C102.147 140.217 102.594 140.758 103.23 140.758C103.866 140.758 104.325 140.205 104.325 139.227Z" fill="#263238"/>
<path d="M102.37 117.737V118.078H99.7791V117.807L101.322 116.3C101.734 115.888 101.816 115.641 101.816 115.382C101.816 115.122 101.51 114.699 100.945 114.699C100.757 114.682 100.568 114.711 100.394 114.783C100.22 114.854 100.066 114.967 99.944 115.111L99.6732 114.875C99.8378 114.695 100.041 114.554 100.267 114.462C100.493 114.371 100.737 114.331 100.98 114.345C101.734 114.345 102.158 114.722 102.158 115.346C102.153 115.576 102.096 115.802 101.99 116.007C101.883 116.211 101.731 116.388 101.546 116.524L100.297 117.701L102.37 117.737Z" fill="#263238"/>
<path d="M102.829 116.229C102.829 115.051 103.453 114.345 104.313 114.345C105.172 114.345 105.785 115.051 105.785 116.229C105.785 117.406 105.16 118.101 104.313 118.101C103.465 118.101 102.829 117.406 102.829 116.229ZM105.396 116.229C105.396 115.24 104.948 114.698 104.313 114.698C103.677 114.698 103.217 115.24 103.217 116.229C103.217 117.218 103.665 117.76 104.313 117.76C104.96 117.76 105.396 117.218 105.396 116.229Z" fill="#263238"/>
<path d="M102.299 94.0663C102.299 94.6786 101.84 95.1615 100.957 95.1615C100.467 95.1796 99.9899 95.0064 99.626 94.6786L99.8026 94.3842C100.123 94.676 100.547 94.8284 100.98 94.8082C101.593 94.8082 101.922 94.5256 101.922 94.0663C101.922 93.607 101.616 93.3244 100.933 93.3244H100.662V93.0418L101.687 91.7582H99.7791V91.4285H102.134V91.7111L101.086 93.0182C101.899 93.0065 102.299 93.4186 102.299 94.0663Z" fill="#263238"/>
<path d="M102.829 93.2311C102.829 92.0535 103.453 91.3469 104.313 91.3469C105.172 91.3469 105.785 92.0535 105.785 93.2311C105.785 94.4087 105.16 95.1152 104.313 95.1152C103.465 95.1152 102.829 94.4087 102.829 93.2311ZM105.396 93.2311C105.396 92.2419 104.948 91.7002 104.313 91.7002C103.677 91.7002 103.217 92.2419 103.217 93.2311C103.217 94.2203 103.665 94.762 104.313 94.762C104.96 94.762 105.396 94.2203 105.396 93.2311Z" fill="#263238"/>
<path d="M117.196 151.357C117.196 150.179 117.82 149.473 118.679 149.473C119.539 149.473 120.151 150.179 120.151 151.357C120.151 152.534 119.527 153.241 118.679 153.241C117.832 153.241 117.196 152.534 117.196 151.357ZM119.763 151.357C119.763 150.368 119.315 149.826 118.679 149.826C118.044 149.826 117.584 150.368 117.584 151.357C117.584 152.346 118.032 152.888 118.679 152.888C119.327 152.888 119.798 152.346 119.798 151.357H119.763Z" fill="#263238"/>
<path d="M144.528 149.508V153.206H144.151V149.85H143.35V149.508H144.528Z" fill="#263238"/>
<path d="M173.438 152.865V153.206H170.835V152.947L172.378 151.44C172.79 151.028 172.873 150.78 172.873 150.533C172.873 150.097 172.566 149.838 172.013 149.838C171.824 149.825 171.634 149.855 171.459 149.926C171.283 149.998 171.126 150.109 171 150.25L170.729 150.015C170.894 149.835 171.097 149.694 171.323 149.602C171.549 149.51 171.793 149.47 172.037 149.485C172.79 149.485 173.214 149.874 173.214 150.486C173.21 150.715 173.154 150.94 173.05 151.144C172.946 151.348 172.797 151.526 172.614 151.663L171.353 152.9L173.438 152.865Z" fill="#263238"/>
<path d="M200.712 152.146C200.712 152.758 200.264 153.241 199.369 153.241C198.88 153.259 198.402 153.086 198.038 152.758L198.227 152.464C198.385 152.61 198.57 152.723 198.773 152.796C198.975 152.869 199.19 152.9 199.404 152.888C200.017 152.888 200.358 152.605 200.358 152.146C200.358 151.687 200.04 151.416 199.357 151.416H199.087V151.133L200.111 149.85H198.227V149.508H200.582V149.779L199.534 151.098C200.311 151.133 200.712 151.557 200.712 152.146Z" fill="#263238"/>
<path d="M228.762 152.24H228.02V153.206H227.644V152.24H225.559V151.958L227.514 149.508H227.938L226.042 151.864H227.655V151.004H228.02V151.864H228.762V152.24Z" fill="#263238"/>
<path d="M255.481 152.123C255.481 152.747 255.046 153.241 254.139 153.241C253.653 153.256 253.181 153.083 252.82 152.758L252.997 152.464C253.154 152.61 253.34 152.723 253.542 152.796C253.745 152.869 253.959 152.9 254.174 152.888C254.798 152.888 255.128 152.582 255.128 152.134C255.128 151.687 254.834 151.369 253.95 151.369H253.161L253.362 149.508H255.387V149.85H253.691L253.562 151.027H254.045C255.057 151.027 255.481 151.463 255.481 152.123Z" fill="#263238"/>
<path d="M283.108 152.099C283.109 152.261 283.076 152.421 283.011 152.569C282.947 152.718 282.853 152.852 282.735 152.962C282.616 153.073 282.477 153.158 282.324 153.212C282.172 153.266 282.01 153.288 281.848 153.276C280.859 153.276 280.329 152.593 280.329 151.428C280.329 150.262 281.012 149.508 282.025 149.508C282.328 149.496 282.629 149.565 282.896 149.708L282.743 150.015C282.523 149.895 282.275 149.838 282.025 149.85C281.224 149.85 280.718 150.356 280.718 151.357C280.712 151.459 280.712 151.561 280.718 151.663C280.826 151.45 280.997 151.275 281.207 151.162C281.418 151.048 281.658 151.001 281.895 151.027C282.196 151.017 282.489 151.122 282.715 151.322C282.941 151.521 283.081 151.799 283.108 152.099ZM282.731 152.099C282.731 151.616 282.378 151.298 281.801 151.298C281.684 151.285 281.566 151.296 281.454 151.331C281.342 151.365 281.238 151.422 281.148 151.498C281.059 151.574 280.986 151.668 280.934 151.773C280.883 151.879 280.853 151.993 280.847 152.111C280.847 152.523 281.189 152.9 281.825 152.9C281.937 152.915 282.052 152.906 282.161 152.873C282.27 152.84 282.37 152.785 282.456 152.71C282.542 152.635 282.611 152.543 282.658 152.44C282.706 152.337 282.731 152.224 282.731 152.111V152.099Z" fill="#263238"/>
<path d="M310.299 149.508V149.779L308.744 153.206H308.332L309.851 149.85H307.955V150.592H307.578V149.567L310.299 149.508Z" fill="#263238"/>
<path d="M310.487 139.405C310.487 139.605 267.681 139.758 214.877 139.758C162.074 139.758 119.268 139.605 119.268 139.405C119.268 139.204 162.062 139.04 214.877 139.04C267.693 139.04 310.487 139.204 310.487 139.405Z" fill="#263238"/>
<path d="M310.487 116.288C310.487 116.489 267.681 116.642 214.877 116.642C162.074 116.642 119.268 116.489 119.268 116.288C119.268 116.088 162.062 115.923 214.877 115.923C267.693 115.923 310.487 116.088 310.487 116.288Z" fill="#263238"/>
<path d="M310.487 93.1712C310.487 93.3714 267.681 93.5245 214.877 93.5245C162.074 93.5245 119.268 93.3714 119.268 93.1712C119.268 92.971 162.062 92.8062 214.877 92.8062C267.693 92.8062 310.487 92.971 310.487 93.1712Z" fill="#263238"/>
<path d="M119.268 139.063C119.268 139.296 119.199 139.523 119.07 139.717C118.94 139.911 118.756 140.062 118.541 140.151C118.326 140.24 118.089 140.263 117.861 140.218C117.632 140.172 117.422 140.06 117.258 139.896C117.093 139.731 116.981 139.521 116.935 139.293C116.89 139.064 116.913 138.827 117.002 138.612C117.092 138.397 117.242 138.213 117.436 138.084C117.63 137.954 117.857 137.885 118.09 137.885C118.403 137.885 118.702 138.009 118.923 138.23C119.144 138.451 119.268 138.751 119.268 139.063Z" fill="#FF6600"/>
<path d="M146.754 139.063C146.754 139.296 146.685 139.523 146.556 139.717C146.426 139.911 146.242 140.062 146.027 140.151C145.812 140.24 145.575 140.263 145.347 140.218C145.118 140.172 144.909 140.06 144.744 139.896C144.579 139.731 144.467 139.521 144.422 139.293C144.376 139.064 144.4 138.827 144.489 138.612C144.578 138.397 144.729 138.213 144.922 138.084C145.116 137.954 145.344 137.885 145.577 137.885C145.889 137.885 146.188 138.009 146.409 138.23C146.63 138.451 146.754 138.751 146.754 139.063Z" fill="#FF6600"/>
<path d="M174.251 139.063C174.251 139.296 174.182 139.523 174.052 139.717C173.923 139.911 173.739 140.062 173.524 140.151C173.309 140.24 173.072 140.263 172.843 140.218C172.615 140.172 172.405 140.06 172.24 139.896C172.076 139.731 171.964 139.521 171.918 139.293C171.873 139.064 171.896 138.827 171.985 138.612C172.074 138.397 172.225 138.213 172.419 138.084C172.613 137.954 172.84 137.885 173.073 137.885C173.385 137.885 173.685 138.009 173.906 138.23C174.127 138.451 174.251 138.751 174.251 139.063Z" fill="#FF6600"/>
<path d="M201.747 139.063C201.747 139.296 201.678 139.523 201.549 139.717C201.419 139.911 201.235 140.062 201.02 140.151C200.805 140.24 200.568 140.263 200.34 140.218C200.111 140.172 199.902 140.06 199.737 139.896C199.572 139.731 199.46 139.521 199.415 139.293C199.369 139.064 199.393 138.827 199.482 138.612C199.571 138.397 199.722 138.213 199.915 138.084C200.109 137.954 200.337 137.885 200.57 137.885C200.882 137.885 201.181 138.009 201.402 138.23C201.623 138.451 201.747 138.751 201.747 139.063Z" fill="#FF6600"/>
<path d="M229.245 139.063C229.245 139.293 229.177 139.518 229.05 139.711C228.923 139.903 228.742 140.053 228.531 140.144C228.319 140.235 228.085 140.261 227.858 140.22C227.632 140.179 227.422 140.073 227.255 139.914C227.088 139.755 226.972 139.551 226.92 139.327C226.868 139.102 226.883 138.867 226.963 138.652C227.044 138.436 227.185 138.248 227.371 138.112C227.557 137.976 227.778 137.897 228.008 137.885C228.168 137.877 228.327 137.902 228.477 137.957C228.627 138.013 228.764 138.098 228.879 138.209C228.995 138.319 229.087 138.451 229.15 138.598C229.213 138.745 229.245 138.903 229.245 139.063Z" fill="#FF6600"/>
<path d="M284.226 139.063C284.226 139.296 284.157 139.523 284.028 139.717C283.899 139.911 283.715 140.062 283.499 140.151C283.284 140.24 283.048 140.263 282.819 140.218C282.591 140.172 282.381 140.06 282.216 139.896C282.051 139.731 281.939 139.521 281.894 139.293C281.848 139.064 281.872 138.827 281.961 138.612C282.05 138.397 282.201 138.213 282.395 138.084C282.588 137.954 282.816 137.885 283.049 137.885C283.361 137.885 283.661 138.009 283.882 138.23C284.102 138.451 284.226 138.751 284.226 139.063Z" fill="#FF6600"/>
<path d="M256.73 139.063C256.73 139.296 256.661 139.523 256.531 139.717C256.402 139.911 256.218 140.062 256.003 140.151C255.788 140.24 255.551 140.263 255.323 140.218C255.094 140.172 254.884 140.06 254.72 139.896C254.555 139.731 254.443 139.521 254.397 139.293C254.352 139.064 254.375 138.827 254.464 138.612C254.554 138.397 254.704 138.213 254.898 138.084C255.092 137.954 255.319 137.885 255.552 137.885C255.865 137.885 256.164 138.009 256.385 138.23C256.606 138.451 256.73 138.751 256.73 139.063Z" fill="#FF6600"/>
<path d="M311.747 139.063C311.747 139.293 311.679 139.518 311.552 139.711C311.425 139.903 311.245 140.053 311.033 140.144C310.821 140.235 310.587 140.261 310.361 140.22C310.134 140.179 309.924 140.073 309.757 139.914C309.591 139.755 309.474 139.551 309.422 139.327C309.37 139.102 309.385 138.867 309.466 138.652C309.546 138.436 309.688 138.248 309.873 138.112C310.059 137.976 310.281 137.897 310.511 137.885C310.67 137.877 310.83 137.902 310.979 137.957C311.129 138.013 311.266 138.098 311.382 138.209C311.497 138.319 311.589 138.451 311.652 138.598C311.715 138.745 311.747 138.903 311.747 139.063Z" fill="#FF6600"/>
<path d="M131.798 139.405C131.798 139.511 131.777 139.616 131.736 139.714C131.695 139.812 131.635 139.901 131.56 139.975C131.484 140.05 131.394 140.109 131.296 140.148C131.197 140.188 131.092 140.207 130.986 140.206C130.88 140.207 130.775 140.188 130.677 140.148C130.58 140.108 130.491 140.049 130.416 139.975C130.341 139.9 130.282 139.811 130.243 139.713C130.203 139.615 130.183 139.51 130.185 139.405C130.183 139.299 130.203 139.193 130.243 139.095C130.282 138.996 130.341 138.907 130.415 138.831C130.49 138.755 130.579 138.695 130.677 138.654C130.775 138.613 130.88 138.592 130.986 138.592C131.201 138.592 131.408 138.678 131.56 138.83C131.713 138.983 131.798 139.189 131.798 139.405Z" fill="#E0E0E0"/>
<path d="M159.389 139.405C159.391 139.51 159.371 139.615 159.331 139.713C159.292 139.811 159.233 139.9 159.158 139.975C159.083 140.049 158.994 140.108 158.897 140.148C158.799 140.188 158.694 140.207 158.588 140.206C158.482 140.207 158.377 140.188 158.278 140.148C158.18 140.109 158.09 140.05 158.014 139.975C157.939 139.901 157.879 139.812 157.838 139.714C157.797 139.616 157.776 139.511 157.776 139.405C157.776 139.189 157.861 138.983 158.014 138.83C158.166 138.678 158.373 138.592 158.588 138.592C158.694 138.592 158.8 138.613 158.897 138.654C158.995 138.695 159.084 138.755 159.159 138.831C159.233 138.907 159.292 138.996 159.332 139.095C159.371 139.193 159.391 139.299 159.389 139.405Z" fill="#E0E0E0"/>
<path d="M186.18 140.206C186.622 140.206 186.981 139.847 186.981 139.405C186.981 138.963 186.622 138.604 186.18 138.604C185.738 138.604 185.379 138.963 185.379 139.405C185.379 139.847 185.738 140.206 186.18 140.206Z" fill="#E0E0E0"/>
<path d="M214.584 139.405C214.56 139.602 214.464 139.784 214.316 139.915C214.167 140.047 213.975 140.12 213.777 140.12C213.578 140.12 213.387 140.047 213.238 139.915C213.089 139.784 212.994 139.602 212.97 139.405C212.956 139.291 212.967 139.175 213.001 139.065C213.035 138.955 213.093 138.854 213.169 138.768C213.245 138.682 213.339 138.613 213.444 138.566C213.548 138.519 213.662 138.495 213.777 138.495C213.892 138.495 214.005 138.519 214.11 138.566C214.215 138.613 214.309 138.682 214.385 138.768C214.461 138.854 214.518 138.955 214.553 139.065C214.587 139.175 214.597 139.291 214.584 139.405Z" fill="#E0E0E0"/>
<path d="M242.187 139.405C242.187 139.511 242.166 139.616 242.125 139.714C242.084 139.812 242.024 139.901 241.948 139.975C241.873 140.05 241.783 140.109 241.684 140.148C241.586 140.188 241.481 140.207 241.374 140.206C241.269 140.207 241.164 140.188 241.066 140.148C240.968 140.108 240.879 140.049 240.805 139.975C240.73 139.9 240.671 139.811 240.631 139.713C240.592 139.615 240.572 139.51 240.574 139.405C240.572 139.299 240.592 139.193 240.631 139.095C240.671 138.996 240.729 138.907 240.804 138.831C240.878 138.755 240.967 138.695 241.065 138.654C241.163 138.613 241.268 138.592 241.374 138.592C241.59 138.592 241.797 138.678 241.949 138.83C242.101 138.983 242.187 139.189 242.187 139.405Z" fill="#E0E0E0"/>
<path d="M269.778 139.405C269.754 139.602 269.659 139.784 269.51 139.915C269.362 140.047 269.17 140.12 268.971 140.12C268.773 140.12 268.581 140.047 268.432 139.915C268.284 139.784 268.188 139.602 268.165 139.405C268.151 139.291 268.161 139.175 268.196 139.065C268.23 138.955 268.287 138.854 268.363 138.768C268.439 138.682 268.533 138.613 268.638 138.566C268.743 138.519 268.856 138.495 268.971 138.495C269.086 138.495 269.2 138.519 269.305 138.566C269.409 138.613 269.503 138.682 269.579 138.768C269.656 138.854 269.713 138.955 269.747 139.065C269.781 139.175 269.792 139.291 269.778 139.405Z" fill="#E0E0E0"/>
<path d="M296.569 140.206C297.011 140.206 297.369 139.847 297.369 139.405C297.369 138.963 297.011 138.604 296.569 138.604C296.126 138.604 295.768 138.963 295.768 139.405C295.768 139.847 296.126 140.206 296.569 140.206Z" fill="#E0E0E0"/>
<path d="M148.543 129.183C148.543 129.779 148.367 130.362 148.035 130.857C147.704 131.353 147.233 131.74 146.682 131.968C146.132 132.196 145.525 132.256 144.941 132.139C144.356 132.023 143.819 131.736 143.397 131.314C142.975 130.893 142.688 130.356 142.572 129.771C142.456 129.186 142.515 128.58 142.744 128.029C142.972 127.478 143.358 127.007 143.854 126.676C144.35 126.345 144.933 126.168 145.529 126.168C146.328 126.168 147.095 126.486 147.66 127.051C148.226 127.616 148.543 128.383 148.543 129.183Z" fill="#FF6600"/>
<path d="M172.531 115.028C172.531 115.625 172.355 116.207 172.023 116.703C171.692 117.199 171.221 117.585 170.67 117.814C170.119 118.042 169.513 118.101 168.929 117.985C168.344 117.869 167.807 117.582 167.385 117.16C166.963 116.738 166.676 116.201 166.56 115.616C166.444 115.032 166.503 114.426 166.732 113.875C166.96 113.324 167.346 112.853 167.842 112.522C168.338 112.19 168.92 112.014 169.517 112.014C169.913 112.014 170.305 112.092 170.67 112.243C171.036 112.395 171.368 112.617 171.648 112.897C171.928 113.177 172.15 113.509 172.302 113.875C172.453 114.24 172.531 114.632 172.531 115.028Z" fill="#FF6600"/>
<path d="M202.301 116.289C202.301 116.885 202.125 117.468 201.793 117.963C201.462 118.459 200.991 118.846 200.44 119.074C199.89 119.302 199.283 119.362 198.699 119.245C198.114 119.129 197.577 118.842 197.155 118.42C196.733 117.999 196.446 117.462 196.33 116.877C196.214 116.292 196.273 115.686 196.502 115.135C196.73 114.584 197.116 114.113 197.612 113.782C198.108 113.451 198.691 113.274 199.287 113.274C200.086 113.274 200.853 113.592 201.418 114.157C201.984 114.722 202.301 115.489 202.301 116.289Z" fill="#FF6600"/>
<path d="M231.364 90.5345C231.364 91.1312 231.187 91.7145 230.855 92.2105C230.524 92.7065 230.052 93.0929 229.5 93.3207C228.949 93.5486 228.342 93.6076 227.757 93.4903C227.172 93.373 226.635 93.0847 226.214 92.6619C225.793 92.2392 225.506 91.7009 225.391 91.1153C225.276 90.5298 225.338 89.9233 225.568 89.3726C225.798 88.822 226.186 88.352 226.683 88.0221C227.181 87.6923 227.765 87.5175 228.361 87.5198C228.757 87.5198 229.148 87.5979 229.513 87.7495C229.878 87.9011 230.21 88.1234 230.489 88.4035C230.768 88.6836 230.989 89.016 231.139 89.3817C231.289 89.7474 231.366 90.1391 231.364 90.5345Z" fill="#FF6600"/>
<path d="M258.52 106.915C258.523 107.511 258.348 108.095 258.018 108.593C257.688 109.09 257.218 109.478 256.668 109.708C256.117 109.938 255.51 109.999 254.925 109.884C254.339 109.769 253.801 109.483 253.378 109.062C252.955 108.641 252.667 108.104 252.55 107.519C252.433 106.934 252.492 106.327 252.719 105.775C252.947 105.224 253.334 104.752 253.83 104.421C254.326 104.089 254.909 103.912 255.506 103.912C256.303 103.912 257.068 104.228 257.633 104.79C258.198 105.353 258.517 106.117 258.52 106.915Z" fill="#FF6600"/>
<path d="M286.005 111.272C286.008 111.869 285.833 112.454 285.502 112.951C285.172 113.449 284.701 113.837 284.15 114.067C283.598 114.296 282.991 114.357 282.405 114.241C281.82 114.125 281.281 113.838 280.859 113.415C280.437 112.993 280.149 112.455 280.033 111.869C279.917 111.283 279.978 110.676 280.208 110.125C280.437 109.573 280.826 109.103 281.323 108.772C281.821 108.442 282.405 108.267 283.002 108.269C283.799 108.269 284.563 108.585 285.126 109.149C285.689 109.712 286.005 110.476 286.005 111.272Z" fill="#FF6600"/>
<path d="M311.748 129.182C311.512 129.198 311.276 129.198 311.041 129.182C310.349 129.135 309.661 129.045 308.98 128.912C306.345 128.41 303.883 127.238 301.832 125.508C300.368 124.231 299.167 122.678 298.3 120.939C297.265 118.92 296.031 117.011 294.614 115.24C293.054 113.172 290.876 111.654 288.396 110.906C287.037 110.593 285.618 110.646 284.286 111.059C282.883 111.515 281.585 112.248 280.471 113.214C278.115 115.169 276.408 117.925 274.135 120.48C272.997 121.826 271.589 122.917 270.002 123.683C268.294 124.439 266.381 124.596 264.573 124.131C263.653 123.83 262.809 123.336 262.096 122.682C261.383 122.028 260.818 121.229 260.44 120.339C259.65 118.579 259.054 116.739 258.661 114.851C258.29 112.948 257.742 111.083 257.025 109.281C256.683 108.407 256.068 107.667 255.27 107.173C254.405 106.76 253.448 106.573 252.491 106.631C250.451 106.853 248.429 107.211 246.438 107.703C245.391 107.916 244.327 108.034 243.258 108.056C242.141 108.109 241.027 107.895 240.008 107.432C238.981 106.947 238.097 106.205 237.441 105.277C236.812 104.359 236.283 103.376 235.863 102.345C234.992 100.319 234.415 98.1762 233.626 96.1272C233.246 95.1074 232.757 94.132 232.165 93.2185C231.592 92.3392 230.773 91.6472 229.81 91.2284C229.563 91.1577 229.316 91.0635 229.068 91.0046L228.268 90.934C227.76 90.9011 227.252 91.0026 226.796 91.2284C225.864 91.8026 225.104 92.6159 224.593 93.5836C223.497 95.5787 222.643 97.6977 222.05 99.8955C221.39 102.121 220.872 104.382 220.307 106.679C219.424 110.47 218.647 114.25 217.669 117.948C217.175 119.797 216.645 121.634 215.973 123.412C215.371 125.242 214.401 126.929 213.124 128.37C212.4 129.095 211.427 129.516 210.403 129.548C209.418 129.515 208.46 129.223 207.624 128.7C206.058 127.674 204.729 126.324 203.726 124.743C201.802 121.738 200.222 118.527 199.016 115.169C197.697 112.001 196.213 108.857 193.752 106.702C192.56 105.658 191.133 104.918 189.594 104.543C188.054 104.167 186.447 104.169 184.908 104.547C183.421 104.945 182.003 105.569 180.704 106.396C179.413 107.187 178.185 108.077 177.03 109.057C174.81 110.924 172.76 112.985 170.907 115.216C168.109 117.995 165.071 120.521 161.827 122.765C158.94 124.809 155.816 126.498 152.524 127.793C149.647 128.992 146.532 129.512 143.421 129.312C140.827 129.016 138.28 128.399 135.838 127.475C132.445 126.231 129.154 124.727 125.993 122.977C124.898 122.376 124.073 121.905 123.532 121.563C122.99 121.222 122.719 121.033 122.719 121.033L123.579 121.493L126.064 122.823C129.25 124.506 132.552 125.962 135.944 127.181C138.369 128.061 140.892 128.646 143.457 128.923C146.504 129.091 149.549 128.559 152.359 127.369C155.608 126.062 158.688 124.37 161.533 122.329C164.74 120.098 167.739 117.584 170.494 114.816C172.367 112.546 174.436 110.446 176.677 108.539C177.854 107.538 179.106 106.628 180.422 105.819C181.771 104.956 183.244 104.305 184.791 103.888C186.428 103.481 188.139 103.476 189.779 103.871C191.419 104.267 192.939 105.052 194.211 106.16C196.814 108.433 198.333 111.672 199.664 114.863C200.878 118.169 202.458 121.329 204.374 124.284C205.328 125.775 206.584 127.051 208.06 128.028C208.793 128.485 209.634 128.741 210.498 128.77C211.339 128.732 212.133 128.369 212.711 127.758C213.909 126.38 214.822 124.779 215.396 123.047C216.044 121.304 216.574 119.514 217.057 117.654C218.022 113.98 218.811 110.2 219.683 106.396C220.225 104.041 220.778 101.815 221.437 99.5776C222.044 97.3137 222.93 95.1341 224.075 93.089C224.658 92.0256 225.516 91.1387 226.56 90.5218C227.125 90.2399 227.755 90.11 228.385 90.145L229.28 90.2392C229.575 90.3099 229.857 90.4158 230.152 90.4983C231.26 90.9587 232.204 91.7425 232.86 92.7475C233.484 93.7071 233.998 94.7342 234.391 95.8093C235.192 97.9054 235.769 100.037 236.617 102.003C237.465 103.97 238.524 105.937 240.42 106.714C242.316 107.491 244.436 107.291 246.438 106.938C248.461 106.446 250.514 106.092 252.585 105.878C253.658 105.814 254.729 106.029 255.694 106.502C256.616 107.066 257.33 107.912 257.731 108.916C258.463 110.759 259.018 112.668 259.392 114.616C259.772 116.458 260.348 118.254 261.111 119.974C261.447 120.797 261.957 121.539 262.605 122.149C263.253 122.758 264.025 123.221 264.867 123.506C266.542 123.931 268.31 123.79 269.896 123.106C271.409 122.371 272.753 121.328 273.841 120.044C276.078 117.583 277.833 114.78 280.259 112.767C281.432 111.763 282.793 111.002 284.263 110.529C285.679 110.105 287.181 110.061 288.62 110.4C291.189 111.185 293.439 112.774 295.038 114.933C296.463 116.73 297.694 118.672 298.712 120.727C299.544 122.437 300.699 123.968 302.115 125.238C304.119 126.963 306.524 128.158 309.11 128.711C309.779 128.86 310.455 128.974 311.135 129.053L311.748 129.182Z" fill="#FF6600"/>
<path d="M148.838 77.3336C148.838 77.5338 138.157 77.6868 124.991 77.6868C111.826 77.6868 101.157 77.5338 101.157 77.3336C101.157 77.1334 111.826 76.9685 124.991 76.9685C138.157 76.9685 148.838 77.1334 148.838 77.3336Z" fill="#263238"/>
<path d="M126.252 193.68C119.856 193.68 113.605 195.577 108.288 199.131C102.971 202.685 98.8279 207.736 96.3827 213.645C93.9375 219.555 93.3001 226.057 94.5512 232.329C95.8023 238.6 98.8856 244.36 103.411 248.879C107.937 253.398 113.701 256.473 119.974 257.715C126.248 258.957 132.749 258.31 138.655 255.856C144.561 253.402 149.606 249.251 153.152 243.929C156.698 238.607 158.586 232.353 158.577 225.958C158.564 217.393 155.153 209.183 149.092 203.131C143.032 197.079 134.817 193.68 126.252 193.68ZM126.735 245.376C122.808 245.374 118.971 244.208 115.707 242.025C112.444 239.842 109.901 236.74 108.4 233.112C106.899 229.484 106.507 225.492 107.275 221.641C108.042 217.791 109.934 214.254 112.711 211.479C115.488 208.703 119.026 206.813 122.877 206.048C126.728 205.283 130.72 205.677 134.347 207.18C137.974 208.683 141.074 211.228 143.255 214.493C145.437 217.758 146.601 221.596 146.601 225.522C146.601 228.13 146.087 230.713 145.088 233.123C144.09 235.532 142.626 237.722 140.781 239.565C138.936 241.409 136.746 242.871 134.336 243.868C131.926 244.866 129.343 245.378 126.735 245.376Z" fill="#263238"/>
<path d="M126.746 193.692V205.669C132.012 205.669 137.062 207.76 140.786 211.484C144.509 215.207 146.601 220.257 146.601 225.523C146.603 227.566 146.285 229.596 145.659 231.54L157.376 234.72C158.713 229.958 158.938 224.952 158.034 220.089C157.131 215.226 155.122 210.635 152.164 206.671C149.206 202.707 145.376 199.475 140.972 197.225C136.567 194.975 131.704 193.766 126.758 193.692H126.746Z" fill="#FF6600"/>
<path d="M106.845 225.522C106.845 221.685 107.957 217.93 110.047 214.711C112.137 211.493 115.115 208.949 118.621 207.387L113.651 196.224C107.801 198.692 102.808 202.828 99.2937 208.115C95.7796 213.403 93.9005 219.609 93.8909 225.958C93.8909 226.417 93.8909 226.865 93.8909 227.312H106.845C106.915 226.759 106.845 226.146 106.845 225.522Z" fill="#455A64"/>
<path d="M126.735 245.377C125.326 245.378 123.92 245.228 122.543 244.929C122.036 247.803 121.094 253.385 120.352 257.789C128.29 259.261 136.491 257.71 143.342 253.441C150.194 249.172 155.2 242.493 157.376 234.72L145.659 231.54C144.38 235.555 141.857 239.06 138.456 241.547C135.054 244.035 130.949 245.376 126.735 245.377Z" fill="#FF6600"/>
<g opacity="0.3">
<path opacity="0.3" d="M126.735 245.377C125.326 245.378 123.92 245.228 122.543 244.929C122.036 247.803 121.094 253.385 120.352 257.789C128.29 259.261 136.491 257.71 143.342 253.441C150.194 249.172 155.2 242.493 157.376 234.72L145.659 231.54C144.38 235.555 141.857 239.06 138.456 241.547C135.054 244.035 130.949 245.376 126.735 245.377Z" fill="black"/>
</g>
<path d="M122.448 227.136H121.271V228.678H119.61V227.136H115.654V225.958L119.116 221.248H120.894L117.691 225.675H119.657V224.298H121.271V225.675H122.448V227.136Z" fill="#263238"/>
<path d="M122.955 224.992C122.955 222.578 124.297 221.2 126.099 221.2C127.901 221.2 129.255 222.578 129.255 224.992C129.255 227.406 127.913 228.796 126.099 228.796C124.286 228.796 122.955 227.418 122.955 224.992ZM127.536 224.992C127.536 223.332 126.947 222.637 126.099 222.637C125.251 222.637 124.674 223.332 124.674 224.992C124.674 226.652 125.263 227.347 126.099 227.347C126.935 227.347 127.536 226.664 127.536 224.992Z" fill="#263238"/>
<path d="M129.95 223.262C129.988 222.912 130.127 222.581 130.35 222.308C130.573 222.035 130.869 221.833 131.204 221.725C131.539 221.617 131.898 221.608 132.238 221.699C132.578 221.791 132.884 221.979 133.12 222.24C133.356 222.502 133.511 222.826 133.566 223.173C133.622 223.521 133.576 223.877 133.434 224.199C133.292 224.521 133.06 224.795 132.765 224.988C132.471 225.181 132.127 225.285 131.775 225.287C131.518 225.289 131.263 225.236 131.027 225.132C130.792 225.028 130.581 224.875 130.408 224.684C130.236 224.493 130.106 224.267 130.027 224.022C129.948 223.777 129.922 223.518 129.95 223.262ZM132.541 223.262C132.541 222.473 132.234 222.084 131.775 222.084C131.316 222.084 131.01 222.473 131.01 223.262C131.01 224.051 131.328 224.44 131.775 224.44C132.223 224.44 132.541 224.051 132.541 223.262ZM136.156 221.319H137.463L132.446 228.667H131.198L136.156 221.319ZM134.978 226.724C135.015 226.37 135.153 226.034 135.377 225.757C135.601 225.481 135.9 225.275 136.239 225.165C136.577 225.055 136.94 225.046 137.284 225.139C137.628 225.231 137.937 225.422 138.174 225.687C138.412 225.952 138.567 226.281 138.621 226.632C138.675 226.984 138.626 227.344 138.48 227.668C138.334 227.993 138.096 228.268 137.796 228.46C137.497 228.651 137.148 228.752 136.792 228.75C136.532 228.754 136.275 228.704 136.036 228.601C135.798 228.499 135.584 228.347 135.409 228.155C135.234 227.963 135.102 227.737 135.022 227.49C134.941 227.243 134.914 226.982 134.943 226.724H134.978ZM137.557 226.724C137.557 225.947 137.263 225.546 136.792 225.546C136.321 225.546 136.026 225.935 136.026 226.724C136.026 227.513 136.344 227.902 136.792 227.902C137.239 227.902 137.522 227.501 137.522 226.724H137.557Z" fill="#263238"/>
<path d="M152.995 266.491C152.995 266.656 141.019 266.797 126.252 266.797C111.485 266.797 99.5087 266.656 99.5087 266.491C99.5087 266.326 111.485 266.185 126.252 266.185C141.019 266.185 152.995 266.315 152.995 266.491Z" fill="#263238"/>
<path d="M141.089 271.402C141.089 271.567 134.447 271.708 126.251 271.708C118.055 271.708 111.414 271.567 111.414 271.402C111.414 271.237 118.055 271.096 126.251 271.096C134.447 271.096 141.089 271.225 141.089 271.402Z" fill="#263238"/>
<path d="M214.23 192.985C207.837 192.985 201.587 194.881 196.271 198.433C190.956 201.985 186.812 207.034 184.366 212.94C181.919 218.847 181.279 225.346 182.526 231.617C183.773 237.887 186.852 243.647 191.373 248.168C195.894 252.689 201.653 255.767 207.924 257.015C214.194 258.262 220.694 257.622 226.601 255.175C232.507 252.728 237.556 248.585 241.108 243.269C244.66 237.954 246.555 231.704 246.555 225.311C246.555 216.737 243.15 208.515 237.088 202.453C231.025 196.391 222.803 192.985 214.23 192.985ZM214.713 244.682C210.789 244.68 206.953 243.514 203.691 241.334C200.428 239.153 197.885 236.054 196.383 232.428C194.881 228.803 194.486 224.814 195.25 220.964C196.014 217.115 197.901 213.578 200.673 210.801C203.446 208.024 206.979 206.13 210.827 205.36C214.675 204.589 218.665 204.976 222.293 206.472C225.921 207.968 229.024 210.506 231.211 213.764C233.398 217.023 234.57 220.856 234.579 224.781C234.581 227.39 234.068 229.974 233.07 232.385C232.072 234.796 230.609 236.986 228.764 238.832C226.919 240.677 224.728 242.14 222.317 243.138C219.906 244.135 217.322 244.648 214.713 244.647V244.682Z" fill="#263238"/>
<path d="M214.725 192.985V204.961C219.985 204.961 225.029 207.048 228.752 210.764C232.474 214.48 234.57 219.521 234.579 224.78C234.581 226.823 234.264 228.853 233.637 230.798L245.413 233.977C246.75 229.215 246.975 224.209 246.072 219.346C245.168 214.483 243.16 209.893 240.201 205.929C237.243 201.964 233.414 198.733 229.009 196.482C224.604 194.232 219.741 193.024 214.796 192.95L214.725 192.985Z" fill="#FF6600"/>
<path d="M194.859 224.781C194.859 220.943 195.971 217.188 198.061 213.969C200.151 210.751 203.129 208.207 206.635 206.646L201.665 195.482C195.808 197.953 190.809 202.096 187.295 207.393C183.78 212.691 181.905 218.906 181.905 225.263C181.905 225.723 181.905 226.17 181.905 226.618H194.859C194.894 226.029 194.859 225.417 194.859 224.781Z" fill="#263238"/>
<path d="M214.714 244.647C213.304 244.648 211.899 244.498 210.521 244.199C210.015 247.073 209.073 252.655 208.331 257.059C216.268 258.531 224.469 256.98 231.321 252.711C238.172 248.442 243.179 241.764 245.355 233.99L233.579 230.81C232.303 234.816 229.789 238.314 226.399 240.8C223.009 243.286 218.918 244.633 214.714 244.647Z" fill="#FF6600"/>
<g opacity="0.3">
<path opacity="0.3" d="M214.714 244.647C213.304 244.648 211.899 244.498 210.521 244.199C210.015 247.073 209.073 252.655 208.331 257.059C216.268 258.531 224.469 256.98 231.321 252.711C238.172 248.442 243.179 241.764 245.355 233.99L233.579 230.81C232.303 234.816 229.789 238.314 226.399 240.8C223.009 243.286 218.918 244.633 214.714 244.647Z" fill="black"/>
</g>
<path d="M209.19 226.559V227.937H203.643V226.842L206.47 224.157C207.117 223.545 207.235 223.168 207.235 222.815C207.235 222.226 206.835 221.896 206.058 221.896C205.764 221.885 205.472 221.945 205.207 222.073C204.943 222.2 204.713 222.39 204.538 222.626L203.302 221.837C203.638 221.386 204.081 221.025 204.59 220.786C205.1 220.548 205.661 220.44 206.222 220.471C207.859 220.471 208.954 221.307 208.954 222.638C208.95 223.1 208.835 223.555 208.62 223.964C208.405 224.374 208.096 224.726 207.718 224.993L206.034 226.595L209.19 226.559Z" fill="#263238"/>
<path d="M209.873 224.262C209.873 221.848 211.216 220.47 213.017 220.47C214.819 220.47 216.173 221.848 216.173 224.262C216.173 226.676 214.831 228.066 213.017 228.066C211.204 228.066 209.873 226.688 209.873 224.262ZM214.454 224.262C214.454 222.602 213.865 221.907 213.017 221.907C212.169 221.907 211.592 222.602 211.592 224.262C211.592 225.923 212.181 226.617 213.017 226.617C213.853 226.617 214.454 225.958 214.454 224.262Z" fill="#263238"/>
<path d="M216.868 222.532C216.907 222.182 217.046 221.851 217.268 221.578C217.491 221.305 217.787 221.103 218.123 220.995C218.458 220.887 218.817 220.878 219.157 220.97C219.496 221.061 219.803 221.249 220.038 221.51C220.274 221.772 220.429 222.096 220.485 222.443C220.54 222.791 220.494 223.147 220.352 223.469C220.21 223.791 219.978 224.065 219.684 224.258C219.389 224.451 219.045 224.555 218.693 224.557C218.436 224.559 218.181 224.506 217.945 224.402C217.71 224.298 217.499 224.145 217.326 223.954C217.154 223.763 217.024 223.537 216.945 223.292C216.866 223.047 216.84 222.788 216.868 222.532ZM219.459 222.532C219.459 221.755 219.153 221.354 218.693 221.354C218.234 221.354 217.928 221.743 217.928 222.532C217.928 223.321 218.246 223.71 218.693 223.71C219.141 223.71 219.459 223.321 219.459 222.532ZM223.074 220.589H224.322L219.306 227.937H218.058L223.074 220.589ZM221.896 225.994C221.935 225.644 222.074 225.312 222.298 225.039C222.521 224.766 222.818 224.564 223.154 224.456C223.489 224.348 223.849 224.34 224.189 224.433C224.529 224.525 224.835 224.714 225.071 224.977C225.306 225.239 225.46 225.564 225.514 225.913C225.569 226.261 225.521 226.618 225.377 226.939C225.233 227.261 224.999 227.534 224.703 227.726C224.408 227.918 224.063 228.02 223.71 228.02C223.447 228.025 223.186 227.974 222.945 227.869C222.704 227.765 222.488 227.609 222.312 227.414C222.137 227.218 222.006 226.987 221.928 226.735C221.85 226.484 221.827 226.219 221.861 225.959L221.896 225.994ZM224.475 225.994C224.475 225.217 224.181 224.816 223.71 224.816C223.239 224.816 222.945 225.205 222.945 225.994C222.945 226.783 223.263 227.172 223.71 227.172C224.157 227.172 224.44 226.771 224.44 225.959L224.475 225.994Z" fill="#263238"/>
<path d="M240.974 267.657C240.974 267.834 228.998 267.963 214.231 267.963C199.463 267.963 187.487 267.834 187.487 267.657C187.487 267.481 199.452 267.351 214.231 267.351C229.009 267.351 240.974 267.492 240.974 267.657Z" fill="#263238"/>
<path d="M229.068 272.568C229.068 272.745 222.426 272.886 214.23 272.886C206.034 272.886 199.392 272.745 199.392 272.568C199.392 272.391 206.034 272.262 214.23 272.262C222.426 272.262 229.068 272.403 229.068 272.568Z" fill="#263238"/>
<path d="M293.424 191.713C287.03 191.711 280.779 193.605 275.462 197.155C270.145 200.706 266 205.754 263.551 211.66C261.103 217.567 260.461 224.066 261.707 230.338C262.953 236.609 266.031 242.37 270.551 246.892C275.071 251.414 280.831 254.493 287.102 255.742C293.373 256.99 299.873 256.35 305.78 253.904C311.687 251.458 316.737 247.315 320.289 241.999C323.841 236.683 325.738 230.432 325.738 224.039C325.738 215.467 322.334 207.247 316.274 201.185C310.214 195.124 301.995 191.717 293.424 191.713ZM293.907 243.398C289.978 243.398 286.137 242.232 282.87 240.048C279.604 237.864 277.059 234.76 275.558 231.128C274.057 227.497 273.668 223.502 274.439 219.649C275.209 215.796 277.106 212.258 279.889 209.484C282.671 206.71 286.215 204.823 290.07 204.064C293.925 203.305 297.919 203.706 301.546 205.218C305.173 206.73 308.269 209.284 310.444 212.556C312.619 215.829 313.773 219.674 313.761 223.603C313.746 228.858 311.647 233.893 307.925 237.604C304.204 241.315 299.163 243.398 293.907 243.398Z" fill="#263238"/>
<path d="M293.919 191.725C293.919 195.163 293.919 199.803 293.919 203.689C297.045 203.689 300.127 204.427 302.914 205.843C305.702 207.259 308.116 209.313 309.96 211.837C311.804 214.362 313.026 217.286 313.527 220.372C314.028 223.457 313.793 226.618 312.843 229.596L324.56 232.776C325.887 228.015 326.105 223.013 325.198 218.154C324.29 213.295 322.281 208.71 319.324 204.749C316.367 200.788 312.542 197.558 308.142 195.306C303.742 193.054 298.884 191.841 293.942 191.76L293.919 191.725Z" fill="#FF6600"/>
<path d="M274.064 223.603C274.067 219.766 275.181 216.012 277.27 212.794C279.36 209.576 282.336 207.032 285.84 205.468L280.87 194.304C275.021 196.773 270.029 200.91 266.515 206.197C263.001 211.485 261.121 217.69 261.11 224.039C261.11 224.486 261.11 224.934 261.11 225.393H274.064C274.064 224.781 274.064 224.168 274.064 223.603Z" fill="#263238"/>
<path d="M293.907 243.399C292.494 243.4 291.085 243.25 289.703 242.951C289.209 245.836 288.267 251.418 287.525 255.811C295.462 257.283 303.663 255.732 310.515 251.463C317.366 247.194 322.372 240.515 324.548 232.742L312.831 229.562C311.554 233.578 309.032 237.084 305.629 239.572C302.227 242.059 298.122 243.4 293.907 243.399Z" fill="#263238"/>
<path d="M285.722 219.351V226.699H284.026V220.717H282.554V219.351H285.722Z" fill="#263238"/>
<path d="M287.018 223.026C287.018 220.6 288.36 219.223 290.162 219.223C291.964 219.223 293.306 220.6 293.306 223.026C293.306 225.452 291.975 226.818 290.162 226.818C288.348 226.818 287.018 225.452 287.018 223.026ZM291.598 223.026C291.598 221.354 291.01 220.671 290.162 220.671C289.314 220.671 288.737 221.366 288.737 223.026C288.737 224.687 289.326 225.382 290.162 225.382C290.998 225.382 291.587 224.687 291.587 223.026H291.598Z" fill="#263238"/>
<path d="M294.001 221.248C294.04 220.898 294.179 220.567 294.401 220.294C294.624 220.022 294.92 219.819 295.255 219.711C295.59 219.603 295.95 219.594 296.289 219.686C296.629 219.777 296.936 219.965 297.171 220.227C297.407 220.488 297.562 220.812 297.618 221.16C297.673 221.507 297.627 221.863 297.485 222.185C297.343 222.507 297.111 222.782 296.816 222.975C296.522 223.168 296.178 223.272 295.826 223.274C295.569 223.275 295.314 223.222 295.078 223.118C294.843 223.014 294.632 222.862 294.459 222.67C294.287 222.479 294.157 222.253 294.078 222.008C293.999 221.763 293.973 221.504 294.001 221.248ZM296.592 221.248C296.592 220.459 296.286 220.071 295.826 220.071C295.367 220.071 295.061 220.459 295.061 221.248C295.061 222.037 295.379 222.426 295.826 222.426C296.274 222.426 296.592 222.084 296.592 221.248ZM300.195 219.305H301.455L296.439 226.701H295.19L300.195 219.305ZM299.018 224.71C299.056 224.36 299.196 224.028 299.419 223.755C299.642 223.482 299.939 223.28 300.275 223.172C300.61 223.065 300.97 223.057 301.31 223.149C301.65 223.241 301.957 223.43 302.192 223.693C302.427 223.956 302.581 224.281 302.635 224.629C302.69 224.977 302.642 225.334 302.498 225.656C302.354 225.977 302.12 226.251 301.824 226.442C301.529 226.634 301.184 226.736 300.831 226.736C300.579 226.738 300.329 226.688 300.098 226.589C299.866 226.49 299.657 226.344 299.485 226.161C299.312 225.977 299.179 225.76 299.095 225.522C299.011 225.285 298.976 225.032 298.994 224.781L299.018 224.71ZM301.597 224.71C301.597 223.933 301.29 223.533 300.831 223.533C300.372 223.533 300.066 223.91 300.066 224.71C300.066 225.511 300.384 225.888 300.831 225.888C301.279 225.888 301.573 225.535 301.573 224.781L301.597 224.71Z" fill="#263238"/>
<path d="M320.168 264.995C320.168 265.172 308.192 265.301 293.425 265.301C278.657 265.301 266.669 265.172 266.669 264.995C266.669 264.818 278.646 264.689 293.425 264.689C308.203 264.689 320.168 264.818 320.168 264.995Z" fill="#263238"/>
<path d="M308.215 269.907C308.215 270.083 301.573 270.213 293.389 270.213C285.205 270.213 278.551 270.083 278.551 269.907C278.551 269.73 285.193 269.601 293.389 269.601C301.585 269.601 308.215 269.742 308.215 269.907Z" fill="#263238"/>
<path d="M388.655 487.833L390.692 478.412L366.222 475.704L364.726 489.47L373.24 494.863L388.655 487.833Z" fill="#FFCDB0"/>
<path d="M471.923 461.725L468.614 502.329L449.985 499.632L448.725 459.759L471.923 461.725Z" fill="#FFCDB0"/>
<path d="M449.926 491.614C449.926 491.614 462.432 501.706 469.392 494.287L470.781 498.232L476.257 526.024C476.446 526.904 476.301 527.822 475.851 528.602C475.4 529.381 474.676 529.965 473.819 530.24C473.16 530.447 472.456 530.464 471.787 530.289C471.118 530.114 470.513 529.754 470.039 529.25C464.987 523.822 446.487 503.767 446.888 501.259L447.465 494.582C447.528 493.897 447.797 493.247 448.236 492.718C448.676 492.188 449.264 491.803 449.926 491.614Z" fill="#FF6600"/>
<g opacity="0.6">
<path opacity="0.6" d="M473.16 530.381L447.053 498.927L446.958 500.387C446.699 501.965 447.359 502.648 448.053 503.72C450.114 506.887 455.955 514.083 469.933 529.238C470.336 529.68 470.84 530.018 471.402 530.223C471.964 530.428 472.567 530.494 473.16 530.416V530.381Z" fill="white"/>
</g>
<g opacity="0.6">
<path opacity="0.6" d="M451.528 494.887C451.938 495.225 452.207 495.703 452.281 496.229C452.355 496.754 452.229 497.288 451.929 497.725C451.585 498.141 451.098 498.413 450.564 498.487C450.03 498.561 449.487 498.432 449.044 498.126C448.802 497.966 448.597 497.756 448.442 497.511C448.287 497.266 448.186 496.991 448.146 496.704C448.105 496.417 448.126 496.124 448.207 495.846C448.288 495.567 448.427 495.309 448.615 495.089C448.803 494.868 449.035 494.69 449.297 494.565C449.559 494.441 449.845 494.374 450.135 494.369C450.424 494.363 450.712 494.419 450.979 494.533C451.245 494.646 451.485 494.816 451.681 495.029" fill="white"/>
</g>
<path d="M466.119 514.741C466.319 514.847 467.296 513.104 469.416 512.28C471.536 511.456 473.49 512.021 473.549 511.809C473.608 511.597 473.149 511.42 472.372 511.255C471.292 511.054 470.176 511.164 469.157 511.573C468.141 511.965 467.261 512.645 466.625 513.528C466.13 514.199 466.013 514.706 466.119 514.741Z" fill="#263238"/>
<path d="M468.368 519.534C468.533 519.699 469.746 518.663 471.606 518.274C473.467 517.885 475.021 518.274 475.139 518.086C475.257 517.897 473.596 517.061 471.477 517.532C469.357 518.003 468.144 519.428 468.368 519.534Z" fill="#263238"/>
<path d="M461.843 508.488C461.996 508.665 463.857 507.063 466.707 506.215C469.556 505.367 472.018 505.626 472.041 505.391C472.065 505.155 469.521 504.543 466.471 505.485C463.421 506.427 461.678 508.382 461.843 508.488Z" fill="#263238"/>
<path d="M461.832 500.151C461.914 500.375 463.928 499.716 466.472 499.798C469.015 499.881 471.005 500.622 471.088 500.422C471.17 500.222 469.239 499.103 466.495 499.044C463.751 498.986 461.726 499.987 461.832 500.151Z" fill="#263238"/>
<path d="M467.932 499.834C467.998 499.396 467.962 498.948 467.826 498.526C467.568 497.343 467.071 496.225 466.366 495.241C465.914 494.462 465.219 493.854 464.387 493.51C464.102 493.42 463.796 493.419 463.509 493.507C463.223 493.595 462.971 493.769 462.786 494.004C462.462 494.476 462.327 495.052 462.409 495.618C462.64 496.777 463.264 497.82 464.176 498.571C465.089 499.322 466.232 499.735 467.414 499.739C468.585 499.746 469.732 499.404 470.707 498.755C471.682 498.107 472.442 497.183 472.89 496.101C472.999 495.832 473.047 495.543 473.031 495.254C473.014 494.965 472.934 494.683 472.795 494.428C472.625 494.18 472.381 493.991 472.099 493.888C471.816 493.784 471.508 493.772 471.217 493.851C470.373 494.122 469.617 494.614 469.027 495.276C468.157 496.115 467.447 497.104 466.931 498.197C466.707 498.578 466.571 499.004 466.531 499.445C467.299 498.049 468.272 496.775 469.416 495.665C469.954 495.121 470.617 494.717 471.347 494.487C471.504 494.443 471.672 494.449 471.826 494.503C471.98 494.558 472.113 494.66 472.207 494.793C472.283 494.968 472.323 495.156 472.323 495.347C472.323 495.537 472.283 495.726 472.207 495.9C471.789 496.821 471.117 497.602 470.27 498.153C469.423 498.704 468.436 499.001 467.426 499.009C466.425 498.999 465.456 498.653 464.675 498.028C463.894 497.403 463.345 496.533 463.116 495.559C463.035 495.152 463.115 494.73 463.339 494.381C463.437 494.249 463.574 494.151 463.73 494.101C463.886 494.05 464.054 494.049 464.211 494.099C464.912 494.388 465.508 494.886 465.918 495.524C466.846 496.826 467.529 498.286 467.932 499.834Z" fill="#263238"/>
<path d="M477.188 225.817C477.188 226.688 486.279 257.423 486.279 257.423C486.279 257.423 500.999 286.793 496.242 304.975C493.616 314.996 481.781 377.692 481.781 377.692C481.781 377.692 477.283 425.491 474.715 446.099C472.148 466.707 471.183 477.764 471.183 477.764L448.632 476.858L443.332 384.675L441.66 312.288L411.69 403.422C411.69 403.422 405.296 431.579 401.81 443.461C398.324 455.343 390.446 480.638 390.446 480.638L366.105 477.034C366.105 477.034 368.731 432.721 371.051 421.981C373.371 411.242 381.061 372.675 381.061 372.675L387.879 335.192L395.18 274.181L401.527 250.723L409.417 224.191L477.188 225.817Z" fill="#263238"/>
<path d="M356.307 188.511C356.307 188.511 355.436 185.426 353.445 184.354C351.455 183.283 342.6 183.636 340.727 183.636C338.855 183.636 332.873 181.387 330.129 183.636C330.049 183.882 330.023 184.142 330.051 184.399C330.079 184.656 330.162 184.904 330.293 185.127C330.425 185.349 330.602 185.541 330.813 185.69C331.024 185.84 331.265 185.942 331.519 185.991C334.757 186.639 340.751 187.899 340.48 188.346C340.209 188.794 329.964 187.652 327.844 188.346L312.63 187.981C312.63 187.981 309.957 190.454 312.43 191.432V193.445C313.212 194.018 314.107 194.419 315.056 194.623C317.046 195.223 314.926 196.413 317.54 196.978C319.305 197.348 321.108 197.51 322.91 197.461L323.158 198.639C323.98 199.049 324.862 199.328 325.772 199.463C327.892 199.946 351.573 199.463 351.573 199.463L363.667 203.302L365.41 191.385L356.307 188.511Z" fill="#FFCDB0"/>
<path d="M351.432 187.922C351.432 188.146 348.547 188.416 345.544 190.124C344.269 190.855 343.149 191.826 342.247 192.986C341.92 193.514 341.567 194.025 341.187 194.516C341.256 193.874 341.501 193.263 341.893 192.75C342.733 191.441 343.876 190.354 345.226 189.582C346.567 188.823 348.029 188.301 349.548 188.04C350.163 187.88 350.802 187.84 351.432 187.922Z" fill="#EB996E"/>
<path d="M333.273 196.224C331.521 196.543 329.74 196.661 327.962 196.577C326.747 196.475 325.524 196.559 324.335 196.824C323.884 197.033 323.483 197.334 323.157 197.708C323.063 197.708 323.157 196.942 324.123 196.436C325.343 196.012 326.639 195.852 327.926 195.965C329.712 195.844 331.507 195.931 333.273 196.224Z" fill="#EB996E"/>
<path d="M332.507 192.856C331.715 193.125 330.892 193.295 330.058 193.362C328.048 193.673 326.011 193.764 323.981 193.633C322.019 193.351 320.021 193.443 318.093 193.904C317.527 194.041 317.002 194.312 316.562 194.693C316.28 194.976 316.315 195.235 316.256 195.235C316.197 195.235 316.091 194.952 316.374 194.54C316.791 194.049 317.338 193.685 317.952 193.492C318.824 193.166 319.742 192.979 320.672 192.938C321.792 192.903 322.912 192.93 324.028 193.021C326.022 193.144 328.022 193.113 330.011 192.927C330.837 192.804 331.675 192.78 332.507 192.856Z" fill="#EB996E"/>
<path d="M330.388 190.253C329.516 190.421 328.627 190.492 327.739 190.465C326.102 190.465 323.841 190.548 321.344 190.548C320.096 190.548 318.907 190.442 317.812 190.453C316.87 190.428 315.928 190.487 314.997 190.63C314.377 190.685 313.775 190.87 313.231 191.172C312.878 191.407 312.783 191.655 312.736 191.631C312.689 191.607 312.736 191.325 313.09 190.983C313.622 190.571 314.25 190.3 314.915 190.194C315.867 189.991 316.838 189.888 317.812 189.888C318.907 189.888 320.096 189.959 321.344 189.888C323.829 189.888 326.055 189.888 327.715 189.982C328.614 189.963 329.512 190.054 330.388 190.253Z" fill="#EB996E"/>
<path d="M442.001 141.312L430.402 155.526L433.028 161.39L446.7 162.403L460.713 160.095L468.521 157.292L473.537 144.409L471.983 134.247L466.519 134.47L442.001 141.312Z" fill="#FFCDB0"/>
<path d="M431.155 154.36C431.155 154.36 430.225 158.976 438.598 159.247C446.97 159.518 468.532 154.36 468.532 154.36L486.102 185.343L467.461 225.817L409.417 224.215V214.1C409.417 214.1 404.365 210.637 403.823 199.968C403.447 193.816 404.353 187.652 406.484 181.869L431.155 154.36Z" fill="white"/>
<path d="M437.832 138.321C437.832 138.321 421.817 141.065 419.815 142.066C417.813 143.067 409.805 152.075 407.309 158.328C404.812 164.581 402.599 179.843 402.599 179.843C402.599 179.843 396.345 188.852 396.345 190.347V194.351C396.345 194.351 391.635 201.605 391.635 202.359V203.113L360.77 185.602L349.1 206.61C349.1 206.61 376.185 226.005 389.139 233.895C390.753 234.876 392.678 235.213 394.531 234.84C396.383 234.467 398.027 233.411 399.136 231.881L388.938 295.472L395.321 296.473L409.558 224.262V214.147C409.558 214.147 399.278 203.548 407.945 189.146C410.959 184.153 419.721 170.634 424.431 163.887C429.142 157.139 441.106 142.584 441.106 142.584L441.165 134.788L437.832 138.321Z" fill="#FF6600"/>
<path d="M470.722 131.833L478.636 133.151L482.322 137.638C482.322 137.638 504.614 143.267 507.252 146.694C509.889 150.121 493.615 193.798 493.615 193.798L485.219 229.326C485.219 229.326 498.102 264.513 499.126 281.882L439.375 299.676C439.375 299.676 437.526 239.618 439.375 228.796C441.224 217.974 448.595 190.324 453.6 178.725C458.605 167.125 471.264 142.101 471.264 141.312C471.264 140.523 470.722 131.833 470.722 131.833Z" fill="#FF6600"/>
<g opacity="0.3">
<path opacity="0.3" d="M486.114 233.024C485.641 232.268 484.946 231.675 484.124 231.328C478.236 228.243 471.3 227.878 465.047 225.594C459.1 223.427 453.271 219.47 447.041 220.518C444.604 220.93 443.391 220.918 440.953 221.366L440.506 223.368C444.297 225.358 450.821 223.474 454.39 225.841C455.547 226.772 456.648 227.771 457.687 228.832C459.127 229.953 460.712 230.875 462.397 231.576C465.749 233.146 469.133 234.63 472.548 236.027C475.787 237.37 479.296 238.665 482.711 237.864C483.839 237.649 484.865 237.07 485.631 236.216C486.01 235.786 486.257 235.257 486.342 234.691C486.428 234.125 486.349 233.546 486.114 233.024Z" fill="black"/>
</g>
<path d="M499.209 142.927C498.314 143.28 488.481 161.874 486.197 171.189C483.912 180.504 494.875 208.872 494.875 208.872L461.149 206.623L457.875 223.263C457.875 223.263 488.94 234.45 499.209 236.97C509.478 239.49 519.77 241.08 522.761 236.97C524.563 234.442 525.808 231.56 526.412 228.515L521.843 193.575L517.509 171.424C517.509 171.424 517.05 161.603 514.765 155.892C512.481 150.181 502.636 141.549 499.209 142.927Z" fill="#FF6600"/>
<path d="M411.525 225.77C411.461 225.516 411.425 225.255 411.419 224.993C411.419 224.416 411.325 223.674 411.254 222.755C411.125 220.742 410.948 217.951 410.736 214.512C410.671 213.628 410.472 212.758 410.147 211.933C409.715 211.063 409.202 210.235 408.616 209.46C407.327 207.619 406.624 205.431 406.603 203.184C406.59 198.114 407.836 193.121 410.23 188.652C412.597 184.24 415.231 179.977 418.119 175.887C420.64 172.036 422.83 168.503 424.796 165.63C426.325 163.337 427.98 161.131 429.754 159.023C430.39 158.282 430.932 157.716 431.261 157.351C431.433 157.154 431.622 156.973 431.827 156.81C431.685 157.029 431.528 157.237 431.356 157.434L429.931 159.165C428.753 160.696 427.057 162.957 425.15 165.865C423.242 168.774 421.099 172.319 418.591 176.193C415.744 180.286 413.138 184.54 410.783 188.935C408.413 193.308 407.159 198.198 407.132 203.172C407.137 205.315 407.786 207.407 408.993 209.177C409.59 209.987 410.111 210.85 410.547 211.756C410.878 212.633 411.077 213.554 411.136 214.488C411.313 218.021 411.395 220.789 411.454 222.732C411.454 223.65 411.454 224.392 411.513 224.969C411.543 225.235 411.547 225.503 411.525 225.77Z" fill="#263238"/>
<path d="M437.75 159.212C437.692 159.454 437.605 159.687 437.491 159.907C437.209 160.563 436.886 161.2 436.525 161.815C435.152 164.044 433.545 166.12 431.732 168.009C429.027 170.748 426.557 173.711 424.348 176.865C421.818 180.83 419.838 185.12 418.46 189.618C417.722 191.939 417.105 194.298 416.612 196.684C416.054 198.872 415.796 201.126 415.846 203.384C415.94 205.527 416.894 207.388 417.448 209.272C417.914 211.038 418.093 212.867 417.978 214.689C417.907 217.986 417.978 220.648 418.084 222.497C418.131 223.352 418.166 224.059 418.19 224.616C418.208 224.863 418.208 225.111 418.19 225.358C418.115 225.122 418.071 224.876 418.06 224.628C418.001 224.145 417.919 223.45 417.836 222.508C417.683 220.671 417.518 217.998 417.53 214.689C417.621 212.911 417.427 211.13 416.953 209.413C416.135 207.494 415.572 205.474 415.281 203.408C415.202 201.096 415.448 198.785 416.011 196.542C416.463 194.152 417.037 191.785 417.73 189.453C419.134 184.896 421.172 180.56 423.783 176.57C426.027 173.404 428.549 170.444 431.32 167.726C433.148 165.883 434.789 163.863 436.219 161.697C437.243 160.131 437.632 159.189 437.75 159.212Z" fill="#263238"/>
<path d="M447.5 157.976C447.462 158.22 447.391 158.458 447.288 158.682C447.046 159.343 446.771 159.992 446.464 160.625C445.316 162.945 443.973 165.163 442.448 167.255C440.576 169.94 438.174 173.002 435.924 176.676C433.448 180.627 431.437 184.851 429.93 189.264C428.496 193.702 427.703 198.322 427.575 202.984C427.387 207.282 427.575 211.227 427.575 214.442C427.575 217.656 427.575 220.33 427.469 222.178C427.469 223.097 427.351 223.803 427.304 224.286C427.3 224.529 427.265 224.771 427.198 225.005C427.178 224.762 427.178 224.517 427.198 224.275C427.198 223.733 427.198 223.038 427.198 222.178C427.198 220.353 427.198 217.715 427.104 214.442C427.01 211.168 426.845 207.294 426.998 202.96C427.11 198.243 427.904 193.566 429.353 189.076C430.851 184.614 432.88 180.348 435.394 176.37C437.691 172.684 440.105 169.634 442.048 166.949C443.597 164.899 444.986 162.734 446.205 160.472C446.629 159.66 446.923 159.024 447.123 158.588C447.232 158.374 447.358 158.169 447.5 157.976Z" fill="#263238"/>
<path d="M455.884 156.857C455.882 157.099 455.85 157.341 455.79 157.575C455.678 158.266 455.528 158.95 455.343 159.624C454.693 162.108 453.843 164.534 452.799 166.878C451.515 169.87 449.726 173.308 447.759 177.112C445.565 181.193 443.699 185.442 442.177 189.818C439.512 197.818 437.542 206.033 436.289 214.371C435.83 217.586 435.665 220.188 435.512 222.002C435.466 222.711 435.27 223.401 434.935 224.027C434.818 224.246 434.653 224.435 434.452 224.581C434.452 224.581 434.617 224.392 434.829 223.969C435.104 223.34 435.256 222.664 435.276 221.978C435.347 220.177 435.453 217.539 435.853 214.324C436.976 205.917 438.896 197.637 441.588 189.594C443.111 185.183 445.006 180.908 447.253 176.817C449.243 173.014 451.068 169.622 452.387 166.666C453.463 164.352 454.372 161.963 455.107 159.518C455.637 157.823 455.825 156.845 455.884 156.857Z" fill="#263238"/>
<path d="M396.405 224.781C396.31 224.781 396.522 223.486 396.628 221.402C396.785 218.696 396.627 215.981 396.157 213.312C395.797 210.631 394.917 208.047 393.567 205.704C392.927 204.81 392.157 204.016 391.282 203.349C391.587 203.419 391.872 203.556 392.118 203.75C392.823 204.221 393.437 204.815 393.932 205.504C395.427 207.85 396.391 210.495 396.758 213.253C397.244 215.973 397.347 218.747 397.064 221.496C397.002 222.617 396.78 223.723 396.405 224.781Z" fill="#263238"/>
<path d="M404.388 207.411C404.2 207.211 404.042 206.985 403.917 206.74C403.531 206.055 403.204 205.338 402.94 204.597C402.035 201.833 401.832 198.886 402.351 196.024C403.21 191.831 404.637 187.774 406.59 183.965C408.627 179.62 410.676 174.757 413.279 169.834C414.558 167.436 416.04 165.151 417.707 163.004C419.315 161.066 421.025 159.215 422.829 157.458C426.362 154.137 428.458 150.392 430.566 147.401C432.674 144.41 434.499 142.125 435.818 140.583C436.478 139.805 436.996 139.217 437.373 138.828C437.541 138.613 437.734 138.419 437.95 138.251C437.807 138.48 437.646 138.697 437.467 138.899L436.007 140.736C434.747 142.325 432.957 144.645 430.931 147.648C428.906 150.651 426.727 154.49 423.23 157.846C421.451 159.603 419.765 161.45 418.178 163.381C416.536 165.502 415.078 167.759 413.821 170.129C411.23 175.004 409.169 179.867 407.108 184.201C405.146 187.957 403.689 191.956 402.775 196.095C402.234 198.896 402.368 201.786 403.163 204.526C403.5 205.517 403.91 206.481 404.388 207.411Z" fill="#263238"/>
<path d="M397.546 240.902C397.537 240.454 397.584 240.007 397.688 239.571C397.829 238.723 398.053 237.499 398.347 236.038C398.995 232.894 399.842 228.808 400.785 224.262C401.631 220.357 402.179 216.393 402.421 212.404C402.563 209.354 402.421 207.458 402.527 207.446C402.637 207.882 402.701 208.328 402.716 208.777C402.775 209.201 402.798 209.731 402.822 210.343C402.845 210.956 402.822 211.65 402.822 212.416C402.715 216.435 402.238 220.436 401.397 224.368C400.49 228.973 399.466 233.083 398.783 236.074C398.453 237.475 398.17 238.653 397.935 239.607C397.855 240.052 397.724 240.486 397.546 240.902Z" fill="#263238"/>
<path d="M481.615 138.145C481.639 138.435 481.639 138.726 481.615 139.016C481.615 139.593 481.521 140.43 481.391 141.513C481.049 144.573 480.538 147.612 479.861 150.616C478.855 155.075 477.505 159.449 475.821 163.699C474.867 166.054 473.761 168.574 472.5 171.071C472.192 171.728 471.842 172.365 471.452 172.978C470.944 173.599 470.229 174.017 469.439 174.156L465.176 175.228L463.798 175.569L463.904 175.028L468.909 178.702L469.156 178.878L468.968 179.126L453.6 199.145L449.019 205.033L447.759 206.587C447.626 206.777 447.472 206.95 447.3 207.105C447.408 206.898 447.534 206.701 447.677 206.517L448.854 204.903L453.294 198.921L468.497 178.784L468.556 179.208L463.551 175.546L463.021 175.157L463.657 175.004L465.035 174.651L469.297 173.579C469.951 173.493 470.55 173.17 470.981 172.672C471.356 172.097 471.686 171.495 471.971 170.871C473.242 168.386 474.326 165.936 475.303 163.558C477.007 159.349 478.392 155.019 479.448 150.604C480.355 146.836 480.861 143.727 481.168 141.584C481.309 140.547 481.427 139.723 481.509 139.099C481.501 138.778 481.537 138.457 481.615 138.145Z" fill="#263238"/>
<path d="M500.775 143.385C499.901 143.419 499.035 143.561 498.196 143.809C495.955 144.654 494.022 146.156 492.649 148.119C491.655 149.436 490.799 150.853 490.094 152.346C489.25 154.048 488.526 155.807 487.927 157.61C486.543 161.743 485.804 166.064 485.737 170.422C485.631 175.05 486.914 179.349 487.703 183.305C488.492 187.262 489.376 190.795 490.059 193.762C490.742 196.73 491.436 199.109 491.931 200.734C492.202 201.546 492.39 202.182 492.555 202.594C492.645 202.808 492.716 203.028 492.767 203.254C492.631 203.065 492.52 202.859 492.437 202.642C492.237 202.241 492.013 201.617 491.707 200.804C491.13 199.191 490.424 196.824 489.635 193.868C488.846 190.913 487.998 187.368 487.103 183.435C486.679 181.456 486.22 179.384 485.76 177.229C485.278 174.989 485.049 172.702 485.077 170.411C485.149 166 485.916 161.628 487.35 157.457C487.958 155.632 488.706 153.856 489.588 152.146C490.324 150.634 491.22 149.204 492.261 147.883C493.701 145.881 495.737 144.385 498.078 143.608C498.717 143.421 499.379 143.33 500.045 143.338C500.289 143.317 500.535 143.333 500.775 143.385Z" fill="#263238"/>
<path d="M486.997 233.354C486.804 233.324 486.614 233.272 486.432 233.201L484.807 232.695L478.766 230.669L457.769 223.604L457.534 223.521V223.274C458.582 218.198 459.736 212.676 460.937 206.788V206.552V206.305H461.302C474.397 206.564 486.232 207.482 494.746 208.495C498.997 208.978 502.436 209.449 504.803 209.802L507.535 210.226C507.852 210.271 508.167 210.334 508.477 210.415C508.153 210.423 507.83 210.399 507.511 210.344L504.873 210.061C502.518 209.779 499.044 209.378 494.793 208.943C486.267 208.071 474.468 207.2 461.384 206.941L461.691 206.705V206.929L458.252 223.415L458.064 223.086L478.978 230.41L484.972 232.565L486.55 233.166C486.705 233.213 486.855 233.276 486.997 233.354Z" fill="#263238"/>
<path d="M507.676 207.117C507.676 207.293 504.65 207.482 500.952 208.012C497.254 208.541 494.287 209.189 494.24 209.013C496.363 208.169 498.595 207.63 500.869 207.411C503.112 206.985 505.405 206.886 507.676 207.117Z" fill="#263238"/>
<path d="M449.915 267.363C449.829 267.108 449.758 266.849 449.703 266.586C449.501 265.91 449.088 265.316 448.525 264.89C448.109 264.589 447.624 264.395 447.114 264.328C446.605 264.26 446.086 264.319 445.605 264.501C445.021 264.72 444.518 265.112 444.162 265.624C443.807 266.136 443.617 266.745 443.617 267.369C443.617 267.992 443.807 268.601 444.162 269.113C444.518 269.626 445.021 270.018 445.605 270.236C446.087 270.415 446.604 270.473 447.114 270.405C447.623 270.337 448.107 270.146 448.525 269.848C449.088 269.422 449.501 268.828 449.703 268.152C449.76 267.885 449.83 267.622 449.915 267.363C449.915 267.363 450.021 267.669 449.915 268.211C449.776 268.991 449.357 269.695 448.737 270.189C448.268 270.566 447.71 270.817 447.117 270.918C446.523 271.019 445.914 270.967 445.346 270.766C444.643 270.518 444.035 270.058 443.605 269.449C443.175 268.841 442.944 268.114 442.944 267.369C442.944 266.624 443.175 265.897 443.605 265.288C444.035 264.68 444.643 264.22 445.346 263.971C445.914 263.77 446.523 263.718 447.117 263.819C447.71 263.92 448.268 264.171 448.737 264.548C449.36 265.041 449.779 265.745 449.915 266.527C450.021 267.068 449.95 267.375 449.915 267.363Z" fill="#263238"/>
<path d="M449.267 236.686C449.267 236.686 449.196 236.392 449.043 235.897C448.834 235.228 448.423 234.639 447.865 234.213C447.447 233.91 446.96 233.716 446.449 233.648C445.937 233.58 445.416 233.641 444.933 233.825C444.348 234.04 443.843 234.43 443.486 234.942C443.13 235.454 442.939 236.062 442.939 236.686C442.939 237.31 443.13 237.919 443.486 238.43C443.843 238.942 444.348 239.332 444.933 239.548C445.416 239.732 445.937 239.792 446.449 239.724C446.96 239.657 447.447 239.462 447.865 239.159C448.423 238.733 448.834 238.145 449.043 237.475C449.196 236.981 449.208 236.686 449.267 236.686C449.341 236.964 449.341 237.256 449.267 237.534C449.118 238.311 448.701 239.011 448.089 239.512C447.621 239.888 447.065 240.137 446.474 240.238C445.883 240.339 445.276 240.288 444.71 240.089C444.003 239.843 443.39 239.384 442.957 238.774C442.523 238.164 442.29 237.434 442.29 236.686C442.29 235.938 442.523 235.208 442.957 234.598C443.39 233.989 444.003 233.529 444.71 233.283C445.276 233.084 445.883 233.033 446.474 233.134C447.065 233.235 447.621 233.485 448.089 233.86C448.701 234.361 449.118 235.061 449.267 235.838C449.341 236.116 449.341 236.408 449.267 236.686Z" fill="#263238"/>
<g opacity="0.3">
<path opacity="0.3" d="M391.553 203.113C392.849 203.496 394.05 204.149 395.075 205.03C396.1 205.911 396.927 207 397.5 208.224C398.689 210.765 399.418 213.496 399.655 216.291C400.031 217.943 399.823 219.674 399.066 221.189C398.642 221.872 397.582 222.367 397.099 221.743C396.973 221.548 396.896 221.326 396.876 221.095C396.287 217.798 396.134 214.43 395.404 211.156C394.673 207.883 394.002 205.268 391.435 203.125" fill="black"/>
</g>
<g opacity="0.3">
<path opacity="0.3" d="M447.5 206.552C456.108 202.948 462.526 195.047 467.59 187.216C468.685 185.52 469.757 183.812 470.828 182.105C471.493 181.201 471.933 180.151 472.112 179.043C472.182 178.486 472.05 177.923 471.742 177.454C471.433 176.986 470.967 176.643 470.428 176.488C471.115 176.677 471.845 176.64 472.509 176.381C473.174 176.122 473.736 175.655 474.114 175.051C474.847 173.826 475.301 172.455 475.445 171.035C476.045 167.62 476.87 162.615 477.47 159.259C476.528 161.709 474.479 165.795 473.537 168.244C472.866 169.975 472.23 171.989 470.828 173.202C468.579 175.145 466.318 174.474 463.68 175.275C465.388 175.746 467.402 177.736 468.685 178.937C462.138 188.216 447.488 206.599 447.488 206.599" fill="black"/>
</g>
<path d="M440.305 64.2976C437.95 64.7686 435.395 64.4154 433.051 65.0748C429.66 66.0405 427.163 69.0198 425.844 72.3053C424.718 75.6513 424.11 79.1501 424.042 82.68L423.383 92.1008C423.309 94.1305 423.025 96.1471 422.535 98.1183C421.911 100.297 420.18 106.102 420.109 108.929C419.657 116.693 422.184 124.337 427.175 130.302C429.353 132.763 433.887 133.835 437.102 134.494L443.791 128.606C444.026 128.394 438.786 122.718 438.916 122.389C439.051 121.878 439.001 121.335 438.774 120.858C432.553 102.436 433.692 82.3229 441.954 64.7215" fill="#263238"/>
<path d="M441 144.28C440.824 131.974 441 127.358 441 127.428C441 127.499 430.402 125.65 428.27 111.849C427.199 104.995 427.564 93.7488 428.164 84.5517C428.706 76.3085 434.217 66.1341 442.46 67.029L468.191 73.5883C469.399 73.7205 470.514 74.3003 471.316 75.2135C472.118 76.1267 472.549 77.3072 472.525 78.5224L469.628 144.044" fill="#FFCDB0"/>
<path d="M433.24 92.8898C433.234 93.3504 433.407 93.7953 433.724 94.1296C434.041 94.464 434.476 94.6614 434.936 94.6798C435.161 94.6991 435.387 94.6729 435.602 94.6028C435.817 94.5327 436.015 94.4201 436.185 94.2718C436.356 94.1235 436.495 93.9424 436.593 93.7394C436.692 93.5364 436.749 93.3155 436.761 93.09C436.768 92.6295 436.594 92.1846 436.277 91.8502C435.961 91.5159 435.526 91.3185 435.065 91.3001C434.84 91.2808 434.614 91.307 434.399 91.3771C434.185 91.4472 433.986 91.5597 433.816 91.7081C433.646 91.8564 433.507 92.0374 433.408 92.2405C433.309 92.4435 433.252 92.6643 433.24 92.8898Z" fill="#263238"/>
<path d="M431.391 90.4049C431.603 90.6404 432.945 89.6512 434.853 89.663C436.761 89.6748 438.15 90.6286 438.386 90.3931C438.621 90.1576 438.268 89.875 437.668 89.4275C436.842 88.853 435.859 88.5485 434.853 88.556C433.864 88.5492 432.898 88.8586 432.098 89.4392C431.473 89.8867 431.285 90.2989 431.391 90.4049Z" fill="#263238"/>
<path d="M451.882 93.1599C451.875 93.6205 452.049 94.0654 452.366 94.3997C452.682 94.7341 453.117 94.9315 453.577 94.9499C453.803 94.9691 454.03 94.943 454.246 94.8731C454.461 94.8031 454.66 94.6907 454.831 94.5426C455.003 94.3944 455.142 94.2134 455.242 94.0103C455.343 93.8073 455.401 93.5862 455.414 93.3601C455.424 92.8987 455.251 92.4521 454.934 92.1171C454.617 91.782 454.18 91.5856 453.719 91.5702C453.493 91.5492 453.265 91.5742 453.049 91.6435C452.833 91.7128 452.633 91.8251 452.461 91.9736C452.29 92.1221 452.15 92.3037 452.05 92.5076C451.951 92.7114 451.893 92.9333 451.882 93.1599Z" fill="#263238"/>
<path d="M450.103 90.8053C450.315 91.0408 451.657 90.0516 453.565 90.0516C455.473 90.0516 456.862 91.0173 457.098 90.7817C457.333 90.5462 456.98 90.2636 456.38 89.8279C455.557 89.2484 454.572 88.9434 453.565 88.9565C452.576 88.9496 451.61 89.259 450.809 89.8397C450.197 90.2871 449.997 90.6993 450.103 90.8053Z" fill="#263238"/>
<path d="M443.155 104.901C442.153 104.59 441.117 104.401 440.07 104.336C439.587 104.336 439.128 104.195 439.045 103.865C438.999 103.361 439.11 102.855 439.363 102.417L440.812 98.7779C442.826 93.514 444.274 89.1804 444.062 89.1098C443.85 89.0391 442.048 93.2314 440.046 98.5306L438.657 102.252C438.347 102.837 438.255 103.513 438.398 104.16C438.47 104.331 438.579 104.484 438.718 104.608C438.856 104.733 439.02 104.825 439.199 104.878C439.468 104.946 439.745 104.986 440.023 104.996C441.066 105.107 442.12 105.075 443.155 104.901Z" fill="#263238"/>
<path d="M441 127.429C447.751 127.582 454.415 125.892 460.277 122.542C460.277 122.542 454.802 132.234 441 130.915V127.429Z" fill="#EB996E"/>
<path d="M443.956 109.494C444.318 109.039 444.791 108.685 445.329 108.465C445.867 108.244 446.452 108.165 447.029 108.234C447.452 108.271 447.862 108.395 448.235 108.597C448.608 108.8 448.935 109.077 449.196 109.411C449.448 109.728 449.597 110.115 449.622 110.519C449.648 110.924 449.548 111.326 449.337 111.672C449.032 112.015 448.631 112.258 448.185 112.369C447.74 112.48 447.271 112.455 446.841 112.296C445.945 111.976 445.121 111.484 444.415 110.848C444.197 110.699 444.012 110.507 443.873 110.283C443.802 110.179 443.764 110.055 443.764 109.929C443.764 109.803 443.802 109.68 443.873 109.576" fill="#FF6600"/>
<path d="M448.76 106.232C448.454 106.232 448.442 108.281 446.664 109.764C444.886 111.248 442.696 111.001 442.684 111.284C442.672 111.566 443.167 111.696 444.097 111.719C445.312 111.734 446.493 111.316 447.43 110.542C448.331 109.809 448.91 108.752 449.043 107.598C449.125 106.738 448.902 106.22 448.76 106.232Z" fill="#263238"/>
<path d="M449.255 85.2826C449.431 85.8008 451.339 85.5535 453.565 85.8243C455.791 86.0952 457.604 86.7193 457.91 86.2483C458.04 86.0363 457.722 85.5417 457.003 85.0707C456.032 84.4552 454.934 84.0686 453.792 83.9401C452.649 83.8116 451.492 83.9445 450.409 84.3288C449.585 84.6467 449.172 85.0353 449.255 85.2826Z" fill="#263238"/>
<path d="M432.097 87.0014C432.427 87.4253 433.746 87.0014 435.324 87.0014C436.902 87.0014 438.232 87.2958 438.539 86.8483C438.68 86.6245 438.468 86.1888 437.891 85.7884C437.112 85.2799 436.194 85.0286 435.265 85.0701C434.341 85.0855 433.444 85.3857 432.698 85.9297C432.132 86.283 431.956 86.7305 432.097 87.0014Z" fill="#263238"/>
<path d="M454.837 88.4265C455.738 88.6345 456.617 88.9262 457.463 89.2979C458.27 89.7469 459.038 90.2629 459.759 90.8406C459.191 90.0783 458.437 89.4743 457.569 89.086C456.732 88.6301 455.79 88.4027 454.837 88.4265Z" fill="#EB996E"/>
<path d="M430.025 90.0871C430.562 89.6063 431.155 89.1912 431.791 88.8506C432.46 88.5788 433.16 88.389 433.875 88.2853C433.131 88.1487 432.363 88.2691 431.697 88.6268C430.992 88.9138 430.404 89.4277 430.025 90.0871Z" fill="#EB996E"/>
<path d="M450.068 107.162C450.068 107.162 450.162 106.997 450.138 106.691C450.094 106.299 449.933 105.929 449.677 105.629C449.421 105.329 449.082 105.112 448.702 105.007C448.407 105.007 448.219 105.007 448.219 105.007C448.219 105.007 448.395 105.077 448.643 105.172C448.97 105.306 449.261 105.515 449.491 105.784C449.721 106.053 449.887 106.371 449.973 106.714C450.032 107.021 450.032 107.162 450.068 107.162Z" fill="#EB996E"/>
<path d="M452.387 108.081C452.387 108.081 452.552 107.822 452.587 107.339C452.636 106.706 452.479 106.074 452.14 105.537C451.796 105.004 451.294 104.592 450.703 104.36C450.47 104.242 450.209 104.193 449.949 104.218C449.949 104.218 450.22 104.313 450.632 104.513C451.165 104.77 451.615 105.171 451.931 105.67C452.247 106.17 452.418 106.748 452.422 107.339C452.434 107.786 452.352 108.069 452.387 108.081Z" fill="#EB996E"/>
<path d="M438.586 66.099C438.798 65.3005 439.302 64.611 439.999 64.1677C442.138 62.6206 444.567 61.5208 447.141 60.934C449.715 60.3472 452.38 60.2856 454.979 60.7527C460.177 61.7167 465.089 63.8466 469.345 66.9822C473.114 69.5965 476.67 72.7878 478.578 76.9565C479.779 79.9708 480.533 83.1447 480.815 86.3773C481.898 94.3261 484.03 102.298 483.959 110.318C483.959 113.439 484.489 118.702 483.959 122.553C483.394 126.675 479.402 131.691 475.339 132.61L466.213 133.517C466.213 133.517 471.159 116.465 470.77 110.318C470.44 104.936 470.488 99.0247 469.875 93.6667C469.855 93.2558 469.747 92.854 469.557 92.4891C469.238 92.0587 468.806 91.7246 468.309 91.5234L462.598 88.6147C460.755 87.7114 458.962 86.7089 457.228 85.6119C455.325 84.3001 453.508 82.8683 451.787 81.3254L444.38 75.0017C442.757 73.7353 441.318 72.2491 440.105 70.5857C439.519 69.7538 439.112 68.8095 438.909 67.8122C438.707 66.815 438.713 65.7865 438.928 64.7919" fill="#263238"/>
<path d="M469.228 97.4111C469.252 96.7313 469.448 96.0687 469.798 95.4851C470.147 94.9016 470.639 94.4161 471.227 94.0739C471.815 93.7318 472.48 93.5441 473.16 93.5284C473.84 93.5127 474.513 93.6695 475.116 93.9842C476.517 94.7968 477.577 96.4219 477.471 99.5307C477.129 107.845 468.851 105.784 468.851 105.548C468.851 105.313 469.063 100.85 469.228 97.4111Z" fill="#FFCDB0"/>
<path d="M471.5 102.51C471.5 102.51 471.641 102.616 471.888 102.734C472.223 102.895 472.607 102.92 472.96 102.804C473.514 102.49 473.973 102.032 474.288 101.479C474.603 100.925 474.763 100.297 474.75 99.6602C474.805 98.9464 474.696 98.2296 474.432 97.5641C474.37 97.2976 474.242 97.0507 474.062 96.8452C473.881 96.6398 473.652 96.4822 473.396 96.3865C473.231 96.3342 473.053 96.3422 472.893 96.4091C472.733 96.4759 472.603 96.5973 472.524 96.7516C472.395 96.9753 472.442 97.1402 472.406 97.1519C472.371 97.1637 472.23 97.0106 472.312 96.6691C472.362 96.4651 472.483 96.2856 472.654 96.1628C472.891 96.0005 473.183 95.9372 473.466 95.9861C473.803 96.068 474.114 96.2341 474.37 96.4689C474.625 96.7037 474.817 96.9995 474.927 97.3286C475.252 98.0686 475.39 98.8777 475.327 99.6838C475.209 101.356 474.291 102.887 473.078 103.217C472.851 103.272 472.616 103.276 472.388 103.229C472.16 103.182 471.945 103.085 471.759 102.946C471.511 102.71 471.476 102.522 471.5 102.51Z" fill="#EB996E"/>
<path d="M471.711 131.809C471.511 131.809 471.57 130.491 471.947 128.277C472.324 126.063 473.066 122.789 474.008 118.856C475.185 114.306 476.086 109.689 476.704 105.031C477.021 102.327 477.112 99.6009 476.975 96.8818C476.875 94.0351 476.314 91.2235 475.315 88.5561C474.812 87.2964 474.095 86.1331 473.195 85.1175C472.27 84.1259 471.217 83.2626 470.063 82.5504C467.755 81.1122 465.323 79.8826 462.797 78.8762C457.922 76.8743 453.27 75.3435 449.514 73.6477C445.757 71.952 442.837 69.7498 441.588 67.6419C440.34 65.534 440.411 64.1091 440.611 64.1091C440.811 64.1091 441.141 65.2867 442.554 66.9354C444.718 69.127 447.393 70.7458 450.338 71.6458C454.083 73.0825 458.723 74.3307 463.845 76.262C466.572 77.261 469.194 78.5231 471.676 80.0303C473.054 80.8486 474.318 81.8465 475.433 82.9979C476.573 84.2728 477.486 85.7348 478.129 87.3196C479.261 90.3112 479.878 93.4725 479.955 96.6698C480.067 99.5676 479.906 102.47 479.472 105.337C478.724 110.1 477.59 114.795 476.08 119.374C474.903 123.26 473.808 126.369 473.089 128.512C472.371 130.655 471.9 131.857 471.711 131.809Z" fill="#263238"/>
<path d="M479.19 130.573C479.225 130.272 479.292 129.976 479.39 129.69C479.531 129.124 479.779 128.3 480.026 127.217C480.767 124.171 481.271 121.072 481.533 117.949C481.913 113.318 481.799 108.66 481.192 104.053C480.862 101.451 480.391 98.7305 479.755 95.9513C479.202 93.0738 478.333 90.266 477.165 87.5786C475.841 84.9705 473.925 82.7082 471.571 80.9722C469.375 79.3487 467.005 77.9743 464.505 76.8742C459.724 74.7309 455.19 73.2354 451.646 71.3748C448.783 70.0122 446.18 68.159 443.956 65.8989C443.61 65.5269 443.288 65.1336 442.991 64.7213C442.753 64.4479 442.536 64.1566 442.343 63.8499C442.159 63.6121 442.001 63.3555 441.872 63.0845C441.931 63.0845 442.567 64.109 444.133 65.6752C446.399 67.8622 449.019 69.6499 451.881 70.9626C455.414 72.7643 459.948 74.201 464.835 76.3443C467.382 77.4447 469.796 78.8315 472.03 80.4776C474.463 82.2604 476.44 84.5926 477.8 87.2842C478.996 90.0145 479.88 92.8704 480.438 95.7982C481.051 98.4916 481.518 101.216 481.84 103.959C482.43 108.604 482.505 113.299 482.063 117.961C481.764 121.102 481.188 124.211 480.344 127.252C480.073 128.335 479.779 129.148 479.602 129.701C479.495 130.005 479.357 130.297 479.19 130.573Z" fill="#263238"/>
<path d="M437.844 133.317C437.578 133.335 437.31 133.335 437.044 133.317C436.276 133.338 435.508 133.299 434.747 133.199C433.501 133.059 432.337 132.508 431.438 131.633C430.443 130.354 429.631 128.943 429.024 127.441C427.053 123.748 425.651 119.777 424.867 115.665C424.494 113.216 424.281 110.746 424.231 108.27C424.137 105.714 424.102 103.053 424.231 100.332C424.479 89.4515 426.351 79.5949 429.33 73.0475C430.039 71.5835 430.995 70.2529 432.157 69.1143C433.038 68.2554 434.073 67.5685 435.207 67.0888C435.918 66.7806 436.673 66.5821 437.444 66.5C437.703 66.5 437.903 66.5 438.045 66.5C438.186 66.5 438.245 66.5 438.245 66.5C437.228 66.6155 436.236 66.8855 435.301 67.3008C434.205 67.8029 433.204 68.4923 432.345 69.338C431.236 70.467 430.328 71.7773 429.66 73.2123C426.834 79.6891 425.02 89.5103 424.785 100.297C424.714 103.006 424.785 105.655 424.785 108.211C424.831 110.658 425.028 113.1 425.374 115.524C426.125 119.603 427.47 123.551 429.366 127.241C429.939 128.716 430.703 130.109 431.638 131.386C432.474 132.229 433.561 132.779 434.735 132.952C436.726 133.329 437.844 133.235 437.844 133.317Z" fill="#263238"/>
<path d="M472.689 107.739C473.593 107.739 474.326 107.006 474.326 106.102C474.326 105.198 473.593 104.465 472.689 104.465C471.785 104.465 471.052 105.198 471.052 106.102C471.052 107.006 471.785 107.739 472.689 107.739Z" fill="#263238"/>
<path d="M364.279 486.361V487.928C364.279 487.928 337.736 498.22 337.394 503.236L389.856 503.602L389.268 486.138C381.413 489.741 373.252 490.036 364.279 486.361Z" fill="#FF6600"/>
<g opacity="0.6">
<path opacity="0.6" d="M383.886 491.673C384.39 491.828 384.819 492.164 385.09 492.616C385.362 493.068 385.457 493.604 385.358 494.122C385.22 494.631 384.891 495.068 384.439 495.342C383.988 495.616 383.449 495.706 382.933 495.594C382.399 495.43 381.945 495.072 381.662 494.59C381.379 494.108 381.286 493.538 381.402 492.992C381.6 492.476 381.991 492.058 382.492 491.825C382.993 491.592 383.565 491.563 384.087 491.743" fill="white"/>
</g>
<g opacity="0.6">
<path opacity="0.6" d="M389.833 503.59L389.692 499.386L339.455 500.563C339.455 500.563 337.1 501.564 337.371 503.213L389.833 503.59Z" fill="white"/>
</g>
<path d="M364.067 488.069C364.067 488.328 365.363 488.446 366.611 489.247C367.859 490.048 368.53 491.166 368.766 491.06C369.001 490.954 368.636 489.482 367.094 488.493C365.551 487.504 364.02 487.834 364.067 488.069Z" fill="#263238"/>
<path d="M358.557 490.307C358.498 490.554 359.605 491.002 360.464 492.085C361.324 493.168 361.571 494.322 361.83 494.322C362.089 494.322 362.254 492.862 361.159 491.52C360.064 490.177 358.557 490.06 358.557 490.307Z" fill="#263238"/>
<path d="M355.388 496.877C355.612 496.877 355.977 495.7 355.329 494.239C354.681 492.779 353.492 492.273 353.374 492.485C353.257 492.697 354.01 493.45 354.552 494.616C355.094 495.782 355.129 496.806 355.388 496.877Z" fill="#263238"/>
<path d="M448.972 208.294L429.801 199.556L416.553 200.887L410.3 208.294C410.3 208.294 410.3 210.484 411.642 210.143C412.697 209.774 413.669 209.202 414.504 208.459L414.669 214.017C414.669 214.017 416.682 216.372 418.037 214.017L419.379 218.221C419.379 218.221 420.886 220.07 422.064 218.221L424.089 223.096C424.576 222.99 425.035 222.786 425.44 222.496C425.845 222.207 426.187 221.838 426.445 221.412C426.845 220.637 426.962 219.745 426.774 218.892C426.774 218.892 433.334 220.07 436.03 220.906C438.727 221.742 451.999 221.412 451.999 221.412L457.887 223.096L460.595 209.283L448.972 208.294Z" fill="#FFCDB0"/>
<path d="M426.963 201.594C426.183 201.465 425.388 201.465 424.608 201.594C423.889 201.736 423.042 202.007 422.076 202.301C421.11 202.595 420.074 202.902 419.014 203.302C418.013 203.67 417.048 204.127 416.129 204.668C415.759 204.859 415.479 205.19 415.352 205.586C415.234 205.975 415.152 206.399 415.069 206.764C414.751 208.236 414.669 209.119 414.586 209.119C414.427 208.304 414.447 207.464 414.645 206.658C414.692 206.237 414.766 205.82 414.869 205.41C414.938 205.149 415.058 204.905 415.222 204.691C415.385 204.476 415.59 204.297 415.823 204.162C416.756 203.568 417.751 203.078 418.79 202.701C419.886 202.277 420.957 201.983 421.923 201.712C422.784 201.461 423.662 201.268 424.549 201.135C424.961 201.045 425.388 201.039 425.803 201.118C426.218 201.197 426.612 201.359 426.963 201.594Z" fill="#EB996E"/>
<path d="M428.069 205.444C427.419 205.89 426.687 206.203 425.914 206.363C424.537 206.799 422.558 207.117 420.497 207.717C420.025 207.818 419.578 208.01 419.179 208.282C418.907 208.646 418.682 209.041 418.507 209.46C418.118 210.185 417.908 210.992 417.895 211.815C417.895 212.486 418.083 213.063 418.13 213.464C418.178 213.864 418.13 214.1 418.13 214.1C418.13 214.1 418.025 213.888 417.907 213.511C417.715 212.967 417.569 212.407 417.471 211.839C417.43 210.956 417.612 210.077 418.001 209.283C418.185 208.785 418.443 208.316 418.766 207.894C419.228 207.537 419.763 207.288 420.333 207.164C422.464 206.539 424.431 206.304 425.82 205.986C426.558 205.757 427.309 205.576 428.069 205.444Z" fill="#EB996E"/>
<path d="M422.23 218.54C422.171 218.54 421.712 218.104 421.229 217.103C420.947 216.488 420.868 215.799 421.005 215.137C421.121 214.724 421.338 214.346 421.636 214.038C421.934 213.73 422.304 213.5 422.713 213.37C423.472 213.126 424.272 213.03 425.068 213.087L426.928 213.146C427.351 213.152 427.772 213.191 428.188 213.264C428.518 213.347 428.624 213.559 428.577 213.57C428.53 213.582 428.424 213.5 428.153 213.5C427.882 213.5 427.446 213.559 426.975 213.582L425.115 213.653C424.393 213.635 423.673 213.734 422.983 213.947C422.665 214.042 422.375 214.213 422.137 214.445C421.899 214.677 421.721 214.962 421.617 215.278C421.476 215.831 421.505 216.414 421.7 216.95C421.971 217.916 422.324 218.493 422.23 218.54Z" fill="#EB996E"/>
</svg>
