<svg width="225" height="48" viewBox="0 0 225 48" fill="none" xmlns="http://www.w3.org/2000/svg">
<path d="M34 38.48C31.4133 38.48 29.0533 37.88 26.92 36.68C24.7867 35.4533 23.0933 33.76 21.84 31.6C20.6133 29.4133 20 26.96 20 24.24C20 21.52 20.6133 19.08 21.84 16.92C23.0933 14.7333 24.7867 13.04 26.92 11.84C29.0533 10.6133 31.4133 10 34 10C36.6133 10 38.9867 10.6133 41.12 11.84C43.2533 13.04 44.9333 14.72 46.16 16.88C47.3867 19.04 48 21.4933 48 24.24C48 26.9867 47.3867 29.44 46.16 31.6C44.9333 33.76 43.2533 35.4533 41.12 36.68C38.9867 37.88 36.6133 38.48 34 38.48ZM34 35.32C35.9467 35.32 37.6933 34.8667 39.24 33.96C40.8133 33.0533 42.04 31.76 42.92 30.08C43.8267 28.4 44.28 26.4533 44.28 24.24C44.28 22 43.8267 20.0533 42.92 18.4C42.04 16.72 40.8267 15.4267 39.28 14.52C37.7333 13.6133 35.9733 13.16 34 13.16C32.0267 13.16 30.2667 13.6133 28.72 14.52C27.1733 15.4267 25.9467 16.72 25.04 18.4C24.16 20.0533 23.72 22 23.72 24.24C23.72 26.4533 24.16 28.4 25.04 30.08C25.9467 31.76 27.1733 33.0533 28.72 33.96C30.2933 34.8667 32.0533 35.32 34 35.32Z" fill="white"/>
<path d="M14 38.48C11.4133 38.48 9.05333 37.88 6.92 36.68C4.78667 35.4533 3.09333 33.76 1.84 31.6C0.613333 29.4133 0 26.96 0 24.24C0 21.52 0.613333 19.08 1.84 16.92C3.09333 14.7333 4.78667 13.04 6.92 11.84C9.05333 10.6133 11.4133 10 14 10C16.6133 10 18.9867 10.6133 21.12 11.84C23.2533 13.04 24.9333 14.72 26.16 16.88C27.3867 19.04 28 21.4933 28 24.24C28 26.9867 27.3867 29.44 26.16 31.6C24.9333 33.76 23.2533 35.4533 21.12 36.68C18.9867 37.88 16.6133 38.48 14 38.48ZM14 35.32C15.9467 35.32 17.6933 34.8667 19.24 33.96C20.8133 33.0533 22.04 31.76 22.92 30.08C23.8267 28.4 24.28 26.4533 24.28 24.24C24.28 22 23.8267 20.0533 22.92 18.4C22.04 16.72 20.8267 15.4267 19.28 14.52C17.7333 13.6133 15.9733 13.16 14 13.16C12.0267 13.16 10.2667 13.6133 8.72 14.52C7.17333 15.4267 5.94667 16.72 5.04 18.4C4.16 20.0533 3.72 22 3.72 24.24C3.72 26.4533 4.16 28.4 5.04 30.08C5.94667 31.76 7.17333 33.0533 8.72 33.96C10.2933 34.8667 12.0533 35.32 14 35.32Z" fill="white"/>
<path d="M73.664 12.76C76.032 12.76 78.1013 13.2187 79.872 14.136C81.664 15.032 83.04 16.3333 84 18.04C84.9813 19.7253 85.472 21.6987 85.472 23.96C85.472 26.2213 84.9813 28.184 84 29.848C83.04 31.512 81.664 32.792 79.872 33.688C78.1013 34.5627 76.032 35 73.664 35H66.4V12.76H73.664ZM73.664 32.024C76.2667 32.024 78.2613 31.32 79.648 29.912C81.0347 28.504 81.728 26.52 81.728 23.96C81.728 21.3787 81.0347 19.3627 79.648 17.912C78.2613 16.4613 76.2667 15.736 73.664 15.736H70.048V32.024H73.664ZM106.976 17.368V35H103.328V32.92C102.752 33.6453 101.994 34.2213 101.056 34.648C100.138 35.0533 99.1568 35.256 98.1115 35.256C96.7248 35.256 95.4768 34.968 94.3675 34.392C93.2795 33.816 92.4155 32.9627 91.7755 31.832C91.1568 30.7013 90.8475 29.336 90.8475 27.736V17.368H94.4635V27.192C94.4635 28.7707 94.8582 29.9867 95.6475 30.84C96.4368 31.672 97.5142 32.088 98.8795 32.088C100.245 32.088 101.322 31.672 102.112 30.84C102.922 29.9867 103.328 28.7707 103.328 27.192V17.368H106.976ZM112.493 26.104C112.493 24.3333 112.855 22.7653 113.581 21.4C114.327 20.0347 115.33 18.9787 116.589 18.232C117.869 17.464 119.277 17.08 120.813 17.08C122.199 17.08 123.405 17.3573 124.429 17.912C125.474 18.4453 126.306 19.1173 126.925 19.928V17.368H130.605V35H126.925V32.376C126.306 33.208 125.463 33.9013 124.397 34.456C123.33 35.0107 122.114 35.288 120.749 35.288C119.234 35.288 117.847 34.904 116.589 34.136C115.33 33.3467 114.327 32.2587 113.581 30.872C112.855 29.464 112.493 27.8747 112.493 26.104ZM126.925 26.168C126.925 24.952 126.669 23.896 126.157 23C125.666 22.104 125.015 21.4213 124.205 20.952C123.394 20.4827 122.519 20.248 121.581 20.248C120.642 20.248 119.767 20.4827 118.957 20.952C118.146 21.4 117.485 22.072 116.973 22.968C116.482 23.8427 116.237 24.888 116.237 26.104C116.237 27.32 116.482 28.3867 116.973 29.304C117.485 30.2213 118.146 30.9253 118.957 31.416C119.789 31.8853 120.663 32.12 121.581 32.12C122.519 32.12 123.394 31.8853 124.205 31.416C125.015 30.9467 125.666 30.264 126.157 29.368C126.669 28.4507 126.925 27.384 126.925 26.168ZM141.572 20.344V30.104C141.572 30.7653 141.722 31.2453 142.02 31.544C142.34 31.8213 142.874 31.96 143.62 31.96H145.86V35H142.98C141.338 35 140.079 34.616 139.204 33.848C138.33 33.08 137.892 31.832 137.892 30.104V20.344H135.812V17.368H137.892V12.984H141.572V17.368H145.86V20.344H141.572ZM160.263 17.08C161.607 17.08 162.801 17.368 163.847 17.944C164.913 18.52 165.745 19.3733 166.343 20.504C166.961 21.6347 167.271 23 167.271 24.6V35H163.655V25.144C163.655 23.5653 163.26 22.36 162.471 21.528C161.681 20.6747 160.604 20.248 159.239 20.248C157.873 20.248 156.785 20.6747 155.975 21.528C155.185 22.36 154.791 23.5653 154.791 25.144V35H151.143V11.32H154.791V19.416C155.409 18.6693 156.188 18.0933 157.127 17.688C158.087 17.2827 159.132 17.08 160.263 17.08ZM177.492 11.32V35H173.844V11.32H177.492ZM191.849 35.288C190.185 35.288 188.681 34.9147 187.337 34.168C185.993 33.4 184.937 32.3333 184.169 30.968C183.401 29.5813 183.017 27.9813 183.017 26.168C183.017 24.376 183.412 22.7867 184.201 21.4C184.991 20.0133 186.068 18.9467 187.433 18.2C188.799 17.4533 190.324 17.08 192.009 17.08C193.695 17.08 195.22 17.4533 196.585 18.2C197.951 18.9467 199.028 20.0133 199.817 21.4C200.607 22.7867 201.001 24.376 201.001 26.168C201.001 27.96 200.596 29.5493 199.785 30.936C198.975 32.3227 197.865 33.4 196.457 34.168C195.071 34.9147 193.535 35.288 191.849 35.288ZM191.849 32.12C192.788 32.12 193.663 31.896 194.473 31.448C195.305 31 195.977 30.328 196.489 29.432C197.001 28.536 197.257 27.448 197.257 26.168C197.257 24.888 197.012 23.8107 196.521 22.936C196.031 22.04 195.38 21.368 194.569 20.92C193.759 20.472 192.884 20.248 191.945 20.248C191.007 20.248 190.132 20.472 189.321 20.92C188.532 21.368 187.903 22.04 187.433 22.936C186.964 23.8107 186.729 24.888 186.729 26.168C186.729 28.0667 187.209 29.5387 188.169 30.584C189.151 31.608 190.377 32.12 191.849 32.12ZM215.424 17.08C216.81 17.08 218.048 17.368 219.136 17.944C220.245 18.52 221.109 19.3733 221.728 20.504C222.346 21.6347 222.656 23 222.656 24.6V35H219.04V25.144C219.04 23.5653 218.645 22.36 217.856 21.528C217.066 20.6747 215.989 20.248 214.624 20.248C213.258 20.248 212.17 20.6747 211.36 21.528C210.57 22.36 210.176 23.5653 210.176 25.144V35H206.528V17.368H210.176V19.384C210.773 18.6587 211.53 18.0933 212.448 17.688C213.386 17.2827 214.378 17.08 215.424 17.08Z" fill="white"/>
</svg>
