<svg width="174" height="48" viewBox="0 0 174 48" fill="none" xmlns="http://www.w3.org/2000/svg">
<path fill-rule="evenodd" clip-rule="evenodd" d="M27.2344 9.16406C27.2344 7.41933 28.6537 6 30.3984 6C32.1432 6 33.5625 7.41933 33.5625 9.16406C33.5625 10.9088 32.1432 12.3281 30.3984 12.3281C28.6537 12.3281 27.2344 10.9088 27.2344 9.16406ZM37.7812 10.2188C37.7812 9.02435 38.78 8.10938 39.8906 8.10938C41.0508 8.10938 42 9.05859 42 10.2188V35.5312H37.7812V30.2578C37.7812 29.6749 37.3095 29.2031 36.7266 29.2031C36.1436 29.2031 35.6719 29.6749 35.6719 30.2578V35.5312H31.2756L29.6693 29.072C30.8723 28.7798 31.8359 27.8342 32.0648 26.5665L33.5837 19.479C33.6258 19.2891 33.7313 19.0991 33.879 18.9726L37.7812 17.1585V10.2188ZM6 37.6406V40.9453C6 41.5278 6.47222 42 7.05469 42H40.9453C41.5278 42 42 41.5278 42 40.9453V37.6406H6ZM27.2344 28.0219L29.1021 35.5312H20.9063V28.1484C20.9063 27.5655 20.4345 27.0938 19.8516 27.0938C19.2686 27.0938 18.7969 27.5655 18.7969 28.1484V35.5312H6.18993L8.20086 25.8281C8.24305 25.6383 8.34852 25.4484 8.49618 25.3007L10.2891 23.4866V17.6016C10.2891 17.0109 10.7531 16.5469 11.3438 16.5469H12.6938L14.5712 10.9359C14.6977 10.5141 15.0985 10.2188 15.5625 10.2188H19.8516C20.4423 10.2188 20.9063 10.6827 20.9063 11.2734V20.7656H23.0156V16.5469C23.0156 15.3867 23.9649 14.4375 25.125 14.4375C26.23 14.4375 27.2344 15.3484 27.2344 16.5469V28.0219ZM15.5625 29.2031C16.1455 29.2031 16.6172 28.7314 16.6172 28.1484V21.8203C16.6172 21.2374 16.1455 20.7656 15.5625 20.7656C14.9796 20.7656 14.5078 21.2374 14.5078 21.8203V28.1484C14.5078 28.7314 14.9796 29.2031 15.5625 29.2031Z" fill="white"/>
<path d="M56.7 24C56.7 22.6267 57.0067 21.4 57.62 20.32C58.2467 19.2267 59.0933 18.38 60.16 17.78C61.24 17.1667 62.4467 16.86 63.78 16.86C65.34 16.86 66.7067 17.26 67.88 18.06C69.0533 18.86 69.8733 19.9667 70.34 21.38H67.12C66.8 20.7133 66.3467 20.2133 65.76 19.88C65.1867 19.5467 64.52 19.38 63.76 19.38C62.9467 19.38 62.22 19.5733 61.58 19.96C60.9533 20.3333 60.46 20.8667 60.1 21.56C59.7533 22.2533 59.58 23.0667 59.58 24C59.58 24.92 59.7533 25.7333 60.1 26.44C60.46 27.1333 60.9533 27.6733 61.58 28.06C62.22 28.4333 62.9467 28.62 63.76 28.62C64.52 28.62 65.1867 28.4533 65.76 28.12C66.3467 27.7733 66.8 27.2667 67.12 26.6H70.34C69.8733 28.0267 69.0533 29.14 67.88 29.94C66.72 30.7267 65.3533 31.12 63.78 31.12C62.4467 31.12 61.24 30.82 60.16 30.22C59.0933 29.6067 58.2467 28.76 57.62 27.68C57.0067 26.6 56.7 25.3733 56.7 24ZM72.6116 25.42C72.6116 24.3 72.8316 23.3067 73.2716 22.44C73.7249 21.5733 74.3316 20.9067 75.0916 20.44C75.8649 19.9733 76.7249 19.74 77.6716 19.74C78.4982 19.74 79.2182 19.9067 79.8316 20.24C80.4582 20.5733 80.9582 20.9933 81.3316 21.5V19.92H84.1516V31H81.3316V29.38C80.9716 29.9 80.4716 30.3333 79.8316 30.68C79.2049 31.0133 78.4782 31.18 77.6516 31.18C76.7182 31.18 75.8649 30.94 75.0916 30.46C74.3316 29.98 73.7249 29.3067 73.2716 28.44C72.8316 27.56 72.6116 26.5533 72.6116 25.42ZM81.3316 25.46C81.3316 24.78 81.1982 24.2 80.9316 23.72C80.6649 23.2267 80.3049 22.8533 79.8516 22.6C79.3982 22.3333 78.9116 22.2 78.3916 22.2C77.8716 22.2 77.3916 22.3267 76.9516 22.58C76.5116 22.8333 76.1516 23.2067 75.8716 23.7C75.6049 24.18 75.4716 24.7533 75.4716 25.42C75.4716 26.0867 75.6049 26.6733 75.8716 27.18C76.1516 27.6733 76.5116 28.0533 76.9516 28.32C77.4049 28.5867 77.8849 28.72 78.3916 28.72C78.9116 28.72 79.3982 28.5933 79.8516 28.34C80.3049 28.0733 80.6649 27.7 80.9316 27.22C81.1982 26.7267 81.3316 26.14 81.3316 25.46ZM93.6263 19.76C94.9463 19.76 96.0129 20.18 96.8263 21.02C97.6396 21.8467 98.0463 23.0067 98.0463 24.5V31H95.2463V24.88C95.2463 24 95.0263 23.3267 94.5863 22.86C94.1463 22.38 93.5463 22.14 92.7863 22.14C92.0129 22.14 91.3996 22.38 90.9463 22.86C90.5063 23.3267 90.2863 24 90.2863 24.88V31H87.4863V19.92H90.2863V21.3C90.6596 20.82 91.1329 20.4467 91.7063 20.18C92.2929 19.9 92.9329 19.76 93.6263 19.76ZM111.909 19.92L105.049 36.24H102.069L104.469 30.72L100.029 19.92H103.169L106.029 27.66L108.929 19.92H111.909ZM118.938 31.18C117.872 31.18 116.912 30.9467 116.058 30.48C115.205 30 114.532 29.3267 114.038 28.46C113.558 27.5933 113.318 26.5933 113.318 25.46C113.318 24.3267 113.565 23.3267 114.058 22.46C114.565 21.5933 115.252 20.9267 116.118 20.46C116.985 19.98 117.952 19.74 119.018 19.74C120.085 19.74 121.052 19.98 121.918 20.46C122.785 20.9267 123.465 21.5933 123.958 22.46C124.465 23.3267 124.718 24.3267 124.718 25.46C124.718 26.5933 124.458 27.5933 123.938 28.46C123.432 29.3267 122.738 30 121.858 30.48C120.992 30.9467 120.018 31.18 118.938 31.18ZM118.938 28.74C119.445 28.74 119.918 28.62 120.358 28.38C120.812 28.1267 121.172 27.7533 121.438 27.26C121.705 26.7667 121.838 26.1667 121.838 25.46C121.838 24.4067 121.558 23.6 120.998 23.04C120.452 22.4667 119.778 22.18 118.978 22.18C118.178 22.18 117.505 22.4667 116.958 23.04C116.425 23.6 116.158 24.4067 116.158 25.46C116.158 26.5133 116.418 27.3267 116.938 27.9C117.472 28.46 118.138 28.74 118.938 28.74ZM133.512 19.76C134.832 19.76 135.899 20.18 136.712 21.02C137.526 21.8467 137.932 23.0067 137.932 24.5V31H135.132V24.88C135.132 24 134.912 23.3267 134.472 22.86C134.032 22.38 133.432 22.14 132.672 22.14C131.899 22.14 131.286 22.38 130.832 22.86C130.392 23.3267 130.172 24 130.172 24.88V31H127.372V19.92H130.172V21.3C130.546 20.82 131.019 20.4467 131.592 20.18C132.179 19.9 132.819 19.76 133.512 19.76ZM142.615 18.6C142.122 18.6 141.708 18.4467 141.375 18.14C141.055 17.82 140.895 17.4267 140.895 16.96C140.895 16.4933 141.055 16.1067 141.375 15.8C141.708 15.48 142.122 15.32 142.615 15.32C143.108 15.32 143.515 15.48 143.835 15.8C144.168 16.1067 144.335 16.4933 144.335 16.96C144.335 17.4267 144.168 17.82 143.835 18.14C143.515 18.4467 143.108 18.6 142.615 18.6ZM143.995 19.92V31H141.195V19.92H143.995ZM153.501 19.76C154.821 19.76 155.888 20.18 156.701 21.02C157.515 21.8467 157.921 23.0067 157.921 24.5V31H155.121V24.88C155.121 24 154.901 23.3267 154.461 22.86C154.021 22.38 153.421 22.14 152.661 22.14C151.888 22.14 151.275 22.38 150.821 22.86C150.381 23.3267 150.161 24 150.161 24.88V31H147.361V19.92H150.161V21.3C150.535 20.82 151.008 20.4467 151.581 20.18C152.168 19.9 152.808 19.76 153.501 19.76ZM165.524 19.74C166.351 19.74 167.077 19.9067 167.704 20.24C168.331 20.56 168.824 20.98 169.184 21.5V19.92H172.004V31.08C172.004 32.1067 171.797 33.02 171.384 33.82C170.971 34.6333 170.351 35.2733 169.524 35.74C168.697 36.22 167.697 36.46 166.524 36.46C164.951 36.46 163.657 36.0933 162.644 35.36C161.644 34.6267 161.077 33.6267 160.944 32.36H163.724C163.871 32.8667 164.184 33.2667 164.664 33.56C165.157 33.8667 165.751 34.02 166.444 34.02C167.257 34.02 167.917 33.7733 168.424 33.28C168.931 32.8 169.184 32.0667 169.184 31.08V29.36C168.824 29.88 168.324 30.3133 167.684 30.66C167.057 31.0067 166.337 31.18 165.524 31.18C164.591 31.18 163.737 30.94 162.964 30.46C162.191 29.98 161.577 29.3067 161.124 28.44C160.684 27.56 160.464 26.5533 160.464 25.42C160.464 24.3 160.684 23.3067 161.124 22.44C161.577 21.5733 162.184 20.9067 162.944 20.44C163.717 19.9733 164.577 19.74 165.524 19.74ZM169.184 25.46C169.184 24.78 169.051 24.2 168.784 23.72C168.517 23.2267 168.157 22.8533 167.704 22.6C167.251 22.3333 166.764 22.2 166.244 22.2C165.724 22.2 165.244 22.3267 164.804 22.58C164.364 22.8333 164.004 23.2067 163.724 23.7C163.457 24.18 163.324 24.7533 163.324 25.42C163.324 26.0867 163.457 26.6733 163.724 27.18C164.004 27.6733 164.364 28.0533 164.804 28.32C165.257 28.5867 165.737 28.72 166.244 28.72C166.764 28.72 167.251 28.5933 167.704 28.34C168.157 28.0733 168.517 27.7 168.784 27.22C169.051 26.7267 169.184 26.14 169.184 25.46Z" fill="white"/>
</svg>
