<svg width="1136" height="406" viewBox="0 0 1136 406" fill="none" xmlns="http://www.w3.org/2000/svg">
<path d="M1132.75 41.0394C1130.51 41.0394 1129.76 41.0394 1131.26 40.2928C1134.24 38.0529 1102.14 29.8402 1075.26 25.3606C1037.18 19.3877 1023.74 17.8945 928.925 11.9216C887.115 8.93513 849.038 6.6953 843.811 5.94869C836.345 5.20208 834.105 5.94869 834.852 6.6953C835.599 7.44191 834.852 8.18852 833.359 8.18852C831.866 8.18852 831.119 7.44191 831.866 5.94869C831.866 4.45546 831.119 4.45546 828.133 4.45546C825.893 4.45546 814.694 4.45546 803.494 3.70885C792.295 2.96224 780.349 2.96224 777.363 2.96224C774.377 3.70885 771.39 3.70885 770.643 3.70885C769.897 3.70885 769.15 5.20207 769.15 7.44191C769.15 9.68174 768.404 11.175 767.657 10.4283C766.911 9.68174 766.164 8.93513 766.91 8.93513C767.657 8.18852 767.657 8.18852 766.164 7.44191C764.671 7.44191 765.417 5.94869 767.657 4.45546L771.39 1.46902H763.177C753.471 2.21563 751.978 2.21563 752.725 3.70885C753.471 4.45546 752.725 5.20208 751.978 4.45546C751.232 4.45546 748.992 4.45546 747.499 3.70885C745.259 3.70885 745.259 3.70885 746.752 4.45546C748.245 5.20208 743.019 5.20208 735.553 4.45546C721.367 2.96224 714.648 3.70885 714.648 4.45546C714.648 5.20208 719.127 5.94869 725.1 5.94869C731.073 6.6953 743.766 7.44191 753.471 8.93513C768.404 10.4283 771.39 10.4283 772.137 8.93513C772.883 8.18852 775.123 7.44191 776.616 7.44191C778.856 7.44191 779.603 6.6953 778.856 5.94869C777.363 2.96224 780.349 3.70885 783.336 6.6953C784.829 8.93513 784.829 8.93513 782.589 8.18852C781.096 7.44191 779.603 8.18852 779.603 8.93513C778.856 11.175 781.096 11.175 785.576 10.4283C787.069 9.68174 787.816 8.18852 787.816 6.6953C787.069 4.45546 788.562 3.70885 792.295 2.96224C796.775 2.21563 796.775 2.21563 793.788 3.70885C789.309 5.94869 791.549 8.93513 799.015 9.68174C799.761 9.68174 799.015 10.4283 797.522 10.4283C794.535 11.175 795.282 11.175 799.015 11.9216C804.241 12.6682 804.241 13.4148 799.761 16.4012C796.775 18.6411 796.028 18.6411 794.535 16.4012C793.042 14.908 793.042 14.908 792.295 16.4012C792.295 17.8945 791.549 18.6411 790.055 17.8945C789.309 17.8945 786.322 16.4012 783.336 14.908C779.603 13.4148 777.363 13.4148 776.616 14.1614C775.87 14.908 762.431 14.1614 743.766 12.6682C707.182 9.68174 696.729 9.68174 698.222 11.9216C695.982 16.4012 694.489 16.4012 691.503 14.908C688.516 13.4148 686.277 12.6682 686.277 13.4148C686.277 14.908 672.838 14.1614 643.72 12.6682C633.267 11.9216 625.054 11.9216 625.054 12.6682C625.054 13.4148 623.561 13.4148 621.321 13.4148C610.122 12.6682 595.19 12.6682 593.697 13.4148C592.204 14.908 567.565 13.4148 566.072 11.9216C563.832 10.4283 556.366 10.4283 553.38 11.9216C551.887 12.6682 547.407 13.4148 542.927 12.6682C522.769 11.9216 500.371 11.9216 498.131 12.6682C496.637 13.4148 485.438 13.4148 473.493 12.6682C451.841 11.9216 439.895 11.175 421.23 11.9216C416.004 11.9216 409.284 11.9216 405.551 11.9216C401.818 11.9216 389.872 11.9216 377.926 11.175C365.981 10.4283 351.048 9.68174 343.582 9.68174C327.157 9.68174 323.424 8.93513 320.437 6.6953C318.944 5.20208 315.958 5.20208 307.745 5.20208C298.039 5.20208 296.546 5.20208 298.039 2.96224C298.786 2.21563 298.786 0.722412 297.292 0.722412C296.546 0.722412 295.053 1.46902 295.053 2.96224C294.306 5.94869 284.6 5.94869 280.867 2.96224C278.627 1.46902 278.627 1.46902 280.12 2.96224C280.867 4.45546 280.867 4.45546 277.881 2.96224C275.641 1.46902 274.894 1.46902 274.148 2.21563C274.148 2.96224 271.161 3.70885 267.428 2.96224C263.695 2.96224 259.215 2.96224 257.722 3.70885C255.482 4.45546 254.736 4.45546 255.482 3.70885C255.482 2.21563 254.736 2.21563 250.256 3.70885C247.27 4.45546 243.537 5.20208 242.79 5.20208C241.297 5.20208 239.057 5.94869 236.817 6.6953C233.831 8.18852 233.831 8.18852 235.324 6.6953C236.817 5.20208 236.07 4.45546 234.577 5.20208C230.098 5.94869 229.351 8.18852 233.084 10.4283C235.324 11.9216 235.324 12.6682 233.084 14.1614C230.098 15.6546 230.098 15.6546 228.604 13.4148C227.111 11.175 223.378 11.9216 222.631 14.1614C222.631 14.908 224.125 17.1478 226.364 18.6411C228.604 20.1343 229.351 21.6275 227.858 21.6275C226.364 21.6275 225.618 22.3741 226.364 23.1207C227.111 23.8673 225.618 27.6004 223.378 30.5868C220.392 34.3199 219.645 36.5597 221.138 38.0529C223.378 40.2928 221.138 47.0123 218.152 46.2656C215.912 45.519 215.165 47.0123 214.419 49.9987C214.419 50.7453 215.912 50.7453 218.898 50.7453C222.631 50.7453 223.378 50.7453 220.392 52.2385C217.405 53.7318 217.405 54.4784 221.138 55.225C223.378 55.9716 224.871 56.7182 224.125 57.4648C223.378 58.2114 221.138 58.958 219.645 58.2114C216.659 57.4648 217.405 57.4648 219.645 60.4512C221.885 62.6911 222.631 63.4377 220.392 64.1843C218.898 64.9309 217.405 66.4241 217.405 68.664C216.659 72.397 216.659 72.397 219.645 69.4106C221.138 67.9174 222.631 67.1707 224.125 67.1707C225.618 67.1707 223.378 70.9038 220.392 72.397C218.898 73.1436 219.645 73.8902 222.631 74.6368C224.871 75.3835 226.364 76.1301 226.364 76.8767C226.364 77.6233 227.111 77.6233 229.351 76.8767C233.831 75.3835 235.324 76.8767 232.337 79.8631C230.098 82.103 230.098 83.5962 232.337 85.0894C233.831 86.5826 234.577 88.0758 232.337 89.5691C230.844 90.3157 230.098 91.8089 230.844 92.5555C231.591 93.3021 230.844 94.0487 229.351 94.0487C224.871 95.5419 227.111 97.0352 233.084 96.2886C236.817 96.2886 239.057 96.2886 239.057 97.0352C238.31 99.275 245.03 103.755 248.763 103.755C250.256 103.755 253.242 103.008 255.482 102.261C258.469 100.768 259.962 100.768 262.948 102.261C265.935 103.755 267.428 103.755 268.175 103.008C269.668 100.768 274.894 102.261 273.401 104.501C272.654 105.994 272.654 106.741 274.894 106.741C276.387 106.741 277.881 107.488 277.881 108.234C277.881 109.728 278.627 109.728 301.026 109.728C307.745 109.728 315.958 109.728 318.944 110.474C323.424 111.221 324.17 111.221 325.664 109.728C327.904 106.741 332.383 107.488 338.356 111.221C343.582 114.954 343.582 115.7 339.849 115.7C334.623 115.7 331.637 117.194 330.143 120.927C329.397 124.66 329.397 124.66 334.623 123.913C337.609 123.167 340.596 122.42 340.596 121.673C340.596 120.927 343.582 120.927 346.569 120.927C351.048 121.673 352.542 120.927 353.288 119.433C354.781 115.7 358.515 115.7 363.741 117.94C366.727 119.433 368.967 119.433 370.46 119.433C374.94 117.94 386.139 117.94 387.632 119.433C388.379 120.18 390.619 120.927 392.859 120.18C395.098 120.18 399.578 119.433 401.818 119.433C404.058 119.433 416.004 118.687 428.696 118.687C441.388 118.687 454.081 117.94 457.067 117.94C461.547 117.94 463.04 117.94 462.293 119.433C462.293 120.927 459.307 121.673 455.574 121.673C444.375 122.42 437.655 123.913 438.402 125.406C438.402 126.153 436.909 127.646 434.669 128.393C430.936 129.139 430.189 129.139 430.936 127.646C430.936 125.406 430.936 125.406 427.949 127.646C426.456 128.393 424.216 129.886 422.723 129.139C421.23 129.139 420.483 129.886 421.23 132.126C421.23 134.366 421.23 134.366 419.737 132.872C417.497 130.633 404.804 131.379 406.298 133.619C407.044 135.112 401.071 136.606 392.859 135.859C390.619 135.859 386.139 136.606 383.153 137.352C380.166 138.099 371.954 139.592 364.487 140.339C357.021 141.085 351.048 141.832 351.048 142.578C351.048 144.072 354.035 144.072 356.275 142.578C357.021 141.832 359.261 141.832 361.501 142.578C363.741 143.325 365.981 143.325 366.727 142.578C368.22 141.085 378.673 142.578 377.926 144.072C377.926 145.565 357.021 153.778 351.795 153.778C342.836 154.524 339.849 156.017 343.582 158.257C345.076 159.004 345.822 159.75 344.329 159.75C342.836 159.75 340.596 158.257 339.103 157.511C336.863 155.271 336.116 155.271 334.623 157.511C333.13 159.004 332.383 159.004 330.89 157.511C328.65 158.257 325.664 158.257 318.198 159.75C312.971 160.497 306.998 161.99 305.505 161.244C304.012 161.244 301.772 161.244 301.026 161.99C300.279 162.737 298.039 162.737 295.799 162.737C293.559 162.737 292.066 162.737 292.813 164.23C293.559 164.977 292.813 164.977 292.066 164.977C288.333 163.483 282.36 164.977 278.627 168.71C276.387 170.95 274.894 171.696 274.148 170.95C274.148 170.203 274.894 168.71 276.387 168.71C281.614 167.217 265.935 167.963 256.229 170.203C250.256 171.696 247.27 172.443 248.016 173.936C248.763 174.683 247.27 175.429 245.03 175.429C242.79 175.429 242.043 174.683 242.79 173.936C243.537 173.189 243.536 172.443 243.536 172.443C242.043 172.443 227.858 174.683 211.432 178.416C197.993 181.402 161.409 182.895 133.785 181.402C111.386 180.656 105.414 180.656 102.427 182.149C98.6941 183.642 96.4542 183.642 97.9475 181.402C98.6941 179.909 97.2009 179.909 88.9881 179.162C83.0153 179.162 79.2822 178.416 80.7754 177.669C82.2686 176.922 83.0153 176.922 81.522 176.176C79.2822 175.429 76.2958 176.922 77.789 179.162C78.5356 179.909 82.2686 180.656 86.0017 180.656C89.7347 180.656 92.7212 181.402 92.7212 182.149C92.7212 182.895 91.9746 182.895 90.4814 182.895C89.7347 182.149 88.2415 182.895 87.4949 183.642C85.2551 185.882 90.4814 188.868 99.4407 190.361C105.414 191.108 105.414 191.855 102.427 192.601C100.187 193.348 99.4407 194.095 100.187 194.841C100.934 195.588 97.9475 194.095 94.2144 191.855C86.7483 188.122 86.7483 188.122 87.4949 190.361C88.2415 191.855 87.4949 192.601 86.7483 192.601C84.5085 191.855 84.5085 195.588 86.7483 197.828C87.4949 198.574 86.7483 200.067 84.5085 201.561C82.2686 203.054 81.522 204.547 83.0153 205.294C84.5085 206.787 84.5085 206.787 82.2686 206.787C80.7754 206.787 80.0288 207.534 80.0288 208.28C80.0288 209.027 80.0288 210.52 79.2822 211.267C78.5356 212.76 78.5356 212.76 77.0424 211.267C75.5491 209.773 74.8025 210.52 71.8161 213.506C69.5763 215.746 66.5898 217.986 64.35 217.986C60.6169 218.733 59.1237 222.466 62.1102 222.466C63.6034 222.466 64.35 223.212 64.35 223.959C64.35 224.706 62.1102 224.706 59.1237 223.959C53.1508 223.212 52.4042 223.959 56.1373 227.692C58.3771 229.932 58.3771 229.932 57.6305 228.439C56.8839 226.945 57.6305 226.199 59.1237 226.199C59.8703 226.199 61.3635 227.692 61.3635 229.932C61.3635 232.918 62.8568 233.665 65.0966 232.918C68.083 232.172 68.083 232.918 66.5898 235.158C65.0966 237.398 65.8432 238.145 71.8161 240.384C77.789 242.624 78.5356 243.371 76.2958 244.864C74.0559 247.104 74.0559 247.104 79.2822 246.357C86.0017 245.611 88.9881 246.357 83.0153 247.85C80.7754 248.597 79.2822 249.344 80.0288 251.584C80.7754 254.57 78.5356 254.57 74.8025 251.584C71.8161 249.344 71.8161 249.344 71.0695 252.33C71.0695 253.823 71.0695 256.063 72.5627 256.063C73.3093 256.81 74.0559 257.556 73.3093 258.303C72.5627 259.05 71.0695 259.05 69.5763 257.556C65.8432 255.317 63.6034 256.81 66.5898 259.05C68.083 260.543 71.0695 261.289 72.5627 260.543C76.2958 260.543 77.789 262.036 74.8025 262.783C74.0559 262.783 74.8025 262.783 76.2958 262.783C77.789 262.783 81.522 263.529 84.5085 264.276C88.9881 265.769 89.7347 266.516 87.4949 269.502C85.2551 272.489 77.789 274.728 62.8568 276.968C59.1237 277.715 57.6305 278.461 59.1237 278.461C60.6169 278.461 61.3635 279.208 60.6169 279.955C59.8703 280.701 60.6169 281.448 61.3635 281.448C62.8568 281.448 62.1102 282.195 59.1237 283.688C53.8974 287.421 52.4042 289.661 52.4042 291.154C52.4042 292.647 51.6576 293.394 48.6712 292.647C45.6847 291.9 43.4449 292.647 41.2051 293.394C38.9652 294.887 37.472 294.887 35.9788 294.14C34.4856 292.647 32.9923 292.647 30.0059 293.394C27.7661 294.14 24.033 294.14 22.5398 293.394C19.5534 292.647 19.5534 293.394 19.5534 294.14C20.3 295.634 19.5534 295.634 18.0601 294.887C16.5669 294.14 15.8203 294.887 15.0737 296.38C15.0737 297.873 15.8203 298.62 16.5669 298.62C18.0601 298.62 19.5534 298.62 21.0466 298.62C22.5398 300.113 22.5398 300.86 21.0466 300.86C19.5534 301.606 19.5534 303.1 21.7932 306.086C24.7796 309.819 24.7796 310.566 21.7932 311.312C17.3135 312.059 17.3135 314.299 21.7932 313.552C24.033 313.552 26.2729 313.552 27.0195 314.299C27.7661 315.045 27.0195 315.792 24.7796 315.792C23.2864 315.792 21.7932 315.792 22.5398 316.539C23.2864 317.285 22.5398 318.032 21.0466 318.032C19.5534 318.032 18.8067 318.032 19.5534 316.539C19.5534 315.792 18.8067 315.045 17.3135 315.045C15.8203 315.045 15.0737 315.792 15.8203 316.539C16.5669 317.285 15.0737 318.032 12.8339 318.778C10.594 321.018 10.594 321.018 15.0737 322.512C21.7932 324.005 21.7932 326.245 15.0737 324.751C9.10081 323.258 3.87454 324.751 7.60759 326.245C9.10081 326.991 9.84742 327.738 8.3542 328.484C7.60759 329.231 5.36776 328.484 3.87454 326.991C2.38131 326.245 3.12792 327.738 5.36776 329.978C10.594 335.951 11.3406 341.177 6.11437 338.19C3.87454 336.697 3.12793 336.697 3.12793 338.19C3.12793 338.937 3.87454 339.684 6.11437 340.43C9.84742 341.923 9.10081 346.403 4.62115 345.656C3.12793 345.656 0.888093 345.656 0.141483 346.403C-0.605128 347.15 1.6347 347.896 6.11437 347.896C12.8339 347.896 13.5805 347.896 11.3406 351.629C9.84742 355.362 12.0873 356.856 15.0737 354.616C15.8203 353.869 17.3135 353.869 19.5534 355.362C21.0466 356.856 23.2864 356.856 24.033 356.856C24.7796 356.109 25.5262 356.856 25.5262 357.602C25.5262 358.349 24.033 359.095 23.2864 359.095C22.5398 359.095 21.0466 359.842 21.0466 360.589C21.0466 362.082 30.0059 361.335 30.7525 359.842C31.4991 359.095 32.9923 359.095 34.4856 359.095C40.4585 359.842 35.2322 362.082 26.2729 363.575C15.8203 365.068 12.8339 367.308 18.8067 368.801C21.7932 369.548 22.5398 370.295 20.3 371.041C18.8067 371.788 18.0601 373.281 18.8067 374.028C19.5534 374.774 21.0466 374.774 22.5398 374.028C24.033 373.281 27.7661 372.534 31.4991 372.534C41.9517 372.534 42.6983 373.281 41.2051 375.521C39.7118 377.014 40.4585 378.507 43.4449 380.747C47.9246 384.48 50.1644 384.48 52.4042 381.494C53.1508 380.001 53.1508 380.747 53.1508 382.24C52.4042 384.48 50.911 385.227 48.6712 385.227C46.4313 385.227 44.9381 385.227 44.9381 385.973C44.9381 388.213 43.4449 389.706 40.4585 389.706C38.2186 389.706 37.472 390.453 38.2186 391.2C38.9652 392.693 38.9652 394.186 38.9652 394.933C38.9652 396.426 38.9652 396.426 41.2051 394.933C43.4449 393.44 43.4449 393.44 45.6847 394.933C47.1779 396.426 47.1779 396.426 47.1779 394.186C47.1779 392.693 47.1779 391.2 48.6712 391.2C50.1644 391.2 50.911 391.2 50.911 392.693C50.911 394.186 51.6576 394.186 55.3907 394.186C59.1237 393.439 59.8703 394.186 57.6305 394.933C55.3907 396.426 56.8839 396.426 64.35 397.173C72.5627 397.173 72.5627 397.173 72.5627 393.439C72.5627 390.453 73.3093 389.706 75.5491 390.453C77.789 390.453 78.5356 391.946 77.789 394.186C77.0424 395.679 77.789 397.173 77.789 397.173C82.2686 397.173 83.7619 397.919 82.2686 400.159C80.7754 401.652 81.522 401.652 83.0153 400.906C84.5085 400.159 86.0017 399.412 87.4949 400.159C90.4814 401.652 92.7212 399.412 91.228 397.173C90.4814 396.426 89.7347 394.933 89.7347 394.933C89.7347 394.186 88.9881 394.186 88.2415 394.186C86.0017 394.186 81.522 390.453 81.522 388.96C81.522 387.467 82.2686 387.467 84.5085 388.96C86.0017 389.706 88.9881 390.453 91.228 390.453C94.961 389.706 94.961 390.453 94.2144 393.439C93.4678 398.666 96.4542 400.906 104.667 400.906C108.4 400.906 111.386 400.906 111.386 401.652C111.386 402.399 111.386 403.145 112.133 404.639C112.88 406.132 114.373 406.132 121.092 403.145C130.052 399.412 133.038 398.666 132.292 401.652C132.292 403.145 132.292 403.145 134.531 402.399C136.025 401.652 137.518 400.906 138.264 400.906C144.984 400.906 149.464 399.412 150.957 397.173C153.197 394.186 156.93 395.679 157.676 399.412C158.423 402.399 158.423 402.399 159.916 400.906C160.663 400.159 162.903 398.666 164.396 399.412C165.889 399.412 167.382 398.666 167.382 397.173C167.382 395.679 167.382 394.933 165.142 396.426C163.649 397.919 162.903 397.919 162.903 396.426C163.649 394.186 169.622 393.439 171.115 395.679C171.862 396.426 171.862 397.919 171.115 399.412C170.369 400.159 170.369 400.906 171.115 400.906C171.862 400.159 173.355 399.412 173.355 398.666C174.102 396.426 180.075 392.693 179.328 394.186C179.328 394.933 180.075 395.679 180.821 394.933C181.568 394.933 183.061 394.933 183.061 395.679C183.061 396.426 186.794 397.173 190.527 397.919C194.26 398.666 198.74 399.412 199.486 400.159C200.98 400.906 202.473 400.906 203.22 400.159C203.966 399.412 203.966 397.919 201.726 397.173C198.74 395.679 198.74 395.679 201.726 394.933C203.22 394.933 205.459 394.933 206.206 395.679C207.699 397.919 212.925 397.919 213.672 395.679C213.672 394.933 215.165 394.186 216.659 394.933C218.152 395.679 219.645 394.933 219.645 394.186C219.645 393.439 221.138 393.439 223.378 394.186C227.111 395.679 227.111 395.679 227.858 391.946C228.604 388.96 229.351 388.213 230.844 389.706C232.337 390.453 233.084 391.946 233.084 392.693C232.337 397.173 233.084 397.919 236.07 397.919C237.564 397.919 239.057 396.426 239.057 395.679C238.31 394.933 239.803 394.186 241.297 394.186C242.79 394.186 244.283 393.439 245.03 391.946C245.03 390.453 245.776 390.453 246.523 391.2C248.763 393.44 265.188 393.439 271.161 390.453C277.134 387.467 283.107 388.96 279.374 392.693C275.641 395.679 275.641 396.426 282.36 396.426C286.093 396.426 288.333 397.173 287.587 398.666C287.587 399.412 286.84 400.159 286.093 399.412C285.347 398.666 284.6 399.412 284.6 400.159C284.6 400.906 286.093 401.652 289.08 401.652C292.066 401.652 293.559 400.906 294.306 399.412C294.306 397.919 296.546 397.173 300.279 397.173C303.265 397.173 306.252 396.426 306.252 396.426C306.252 395.679 307.745 395.679 309.985 395.679C312.225 395.679 315.958 395.679 318.198 395.679C321.931 394.933 322.677 395.679 322.677 397.173C321.931 399.412 324.17 399.412 331.637 398.666C337.609 397.173 343.582 397.173 347.315 397.173C354.781 397.173 359.261 395.679 357.768 391.946C357.021 389.706 362.994 387.467 367.474 387.467C368.967 387.467 369.714 388.96 369.714 390.453C368.967 394.186 374.94 393.44 381.659 388.96C384.646 386.72 386.886 385.973 387.632 385.973C388.379 385.973 391.365 385.973 394.352 385.973C398.085 385.227 399.578 385.227 399.578 385.973C399.578 386.72 398.085 386.72 395.845 386.72C393.605 386.72 392.859 386.72 393.605 387.467C394.352 388.213 397.338 388.213 401.071 387.467C408.537 386.72 418.243 388.96 416.004 391.946C415.257 392.693 415.257 393.44 416.75 392.693C418.243 392.693 418.99 392.693 418.243 394.186C418.243 394.933 418.99 395.679 419.737 395.679C421.23 395.679 421.23 394.186 421.23 394.186C419.737 391.946 426.456 388.96 431.682 389.706C435.415 389.706 436.909 389.706 436.909 386.72V383.734L438.402 386.72C439.895 389.706 446.615 391.2 445.121 388.213C444.375 386.72 445.121 386.72 448.108 386.72C450.348 386.72 452.587 386.72 454.081 385.973C457.067 384.48 460.8 386.72 460.054 388.96C459.307 389.706 460.054 390.453 461.547 391.2C462.293 391.2 464.533 390.453 465.28 388.213C467.52 384.48 467.52 385.227 469.76 391.2C470.506 394.186 474.239 393.439 474.986 390.453C475.732 387.467 476.479 387.467 480.959 388.213C484.692 388.96 488.425 388.213 492.158 386.72C495.891 385.227 499.624 385.227 501.864 385.227C504.85 385.973 506.343 385.973 507.837 384.48C508.583 383.734 510.823 382.987 513.81 382.987C516.049 382.987 518.289 382.987 518.289 382.24C518.289 381.494 519.782 381.494 521.276 381.494C522.769 382.24 526.502 382.24 529.488 381.494C532.475 380.747 535.461 381.494 535.461 382.24C536.954 383.734 544.421 384.48 544.421 382.987C544.421 382.24 545.914 382.24 547.407 383.734C549.647 385.227 550.393 385.227 549.647 383.734C548.9 382.24 550.393 381.494 555.62 382.24C561.593 382.24 561.593 382.24 558.606 381.494C555.62 380.747 555.62 380.001 558.606 380.001C560.846 380.001 562.339 380.747 563.086 382.24C563.832 383.734 566.072 383.734 571.299 383.734C577.271 383.734 578.765 383.734 580.258 386.72C581.751 388.96 582.498 389.706 582.498 387.467C582.498 384.48 592.204 383.734 595.19 386.72C597.43 388.96 604.149 388.96 602.656 386.72C601.91 385.973 603.403 385.973 606.389 386.72C609.376 387.467 612.362 387.467 613.855 385.973C615.349 385.227 617.588 384.48 619.082 384.48C620.575 384.48 620.575 385.227 618.335 385.227C616.842 385.973 616.095 386.72 617.588 386.72C618.335 387.467 620.575 386.72 621.321 386.72C622.068 385.973 623.561 385.973 625.054 386.72C627.294 388.213 628.041 385.973 628.041 380.747C628.041 380.001 622.815 379.254 616.842 379.254C610.869 378.507 605.643 378.507 604.896 377.761C601.163 372.534 600.416 371.041 601.163 370.295C601.91 370.295 602.656 370.295 603.403 371.788C604.896 374.774 611.615 374.774 615.349 372.534C617.588 371.041 618.335 371.041 620.575 372.534C622.068 374.028 622.068 374.028 620.575 373.281C619.082 372.534 618.335 372.534 618.335 373.281C618.335 374.028 619.828 374.774 622.068 374.774C626.548 374.774 627.294 374.028 624.308 371.788C622.068 370.295 622.815 370.295 631.774 369.548C635.507 369.548 639.24 371.788 639.24 374.028C639.24 374.774 637.747 375.521 637 375.521C635.507 375.521 634.76 374.774 635.507 374.028C635.507 373.281 634.014 373.281 632.521 373.281C628.788 372.534 627.294 374.774 630.281 374.774C634.76 374.774 635.507 375.521 632.521 376.267C630.281 377.014 629.534 377.761 631.027 378.507C631.774 379.254 633.267 378.507 634.76 377.761C637.747 374.774 646.706 377.014 648.946 380.747C649.693 382.24 650.439 385.227 650.439 386.72C650.439 390.453 655.665 391.946 662.385 390.453L668.358 388.96L662.385 387.467C658.652 386.72 656.412 385.973 656.412 385.227C656.412 383.734 665.371 383.734 671.344 384.48C676.571 385.227 677.317 385.227 675.077 382.987C673.584 380 676.571 377.761 678.81 380.747C680.304 382.987 683.29 382.987 684.037 380.747C684.037 380.001 685.53 379.254 687.023 379.254C688.516 379.254 690.01 378.507 690.756 377.761C690.756 376.267 692.249 376.267 692.996 377.014C694.489 377.761 693.743 378.507 690.01 380.001L684.783 382.24L690.01 381.494C694.489 380.747 694.489 381.494 692.996 382.987C692.249 384.48 692.249 385.973 692.996 385.973C694.489 386.72 695.236 385.973 695.236 385.227C695.236 384.48 697.476 384.48 701.955 385.227C707.928 385.973 707.928 385.973 703.449 384.48C695.982 382.24 698.969 380.001 707.928 380.747C713.155 381.494 714.648 381.494 715.394 380.001C715.394 379.254 714.648 377.761 713.901 377.014C710.915 375.521 714.648 374.028 717.634 374.774C719.127 375.521 719.874 376.267 718.381 377.014C716.888 377.761 717.634 377.761 719.874 377.014C721.367 376.267 725.847 375.521 728.087 375.521C731.073 375.521 734.06 374.774 734.806 374.774C737.046 373.281 743.019 375.521 741.526 377.761C740.779 378.507 741.526 380.001 743.766 380.001C746.005 380.747 746.005 380.001 746.005 378.507C745.259 377.761 746.005 376.267 746.752 376.267C747.499 376.267 748.992 377.014 748.992 377.761C748.992 378.507 751.232 379.254 753.471 379.254C755.711 380 757.951 380.747 758.698 381.494C759.444 382.24 760.191 381.494 760.938 379.254C761.684 376.267 762.431 375.521 767.657 376.267C771.39 376.267 772.883 377.014 772.137 378.507C771.39 379.254 772.137 380.001 772.883 380.001C774.377 380.001 775.123 380 775.123 379.254C775.123 378.507 778.11 377.014 781.096 376.267C784.083 375.521 786.322 374.774 784.829 375.521C782.589 377.761 791.549 377.761 795.282 375.521C796.775 374.774 800.508 374.028 802.748 374.028C804.988 374.028 807.227 373.281 808.721 372.534C810.961 371.788 807.227 371.041 793.788 370.295C781.096 369.548 776.616 368.801 777.363 367.308C777.363 365.815 778.856 365.815 782.589 365.815C783.336 365.815 784.829 365.068 785.576 364.322C787.069 362.828 787.816 363.575 790.802 365.068C792.295 365.815 794.535 366.562 795.282 365.815C796.028 365.068 799.761 365.068 802.748 365.068C805.734 365.068 809.467 364.322 810.961 363.575C813.947 361.335 811.707 360.589 804.988 362.828C799.015 364.322 798.268 364.322 796.775 362.082C795.282 359.842 795.282 359.842 796.028 362.082C796.775 364.322 795.282 364.322 786.322 361.335C783.336 360.589 783.336 360.589 784.083 362.082C784.829 362.828 784.829 363.575 783.336 362.828C782.589 362.082 781.843 360.589 783.336 359.095C784.829 356.856 784.083 356.856 780.349 356.856C775.123 357.602 772.137 355.362 777.363 354.616C782.589 353.869 790.802 354.616 789.309 356.109C788.562 356.856 790.055 357.602 791.549 358.349C793.788 359.095 796.028 359.095 796.775 358.349C798.268 357.602 814.694 359.095 817.68 360.589C819.173 361.335 820.666 359.842 820.666 357.602C820.666 356.109 824.399 356.856 825.146 358.349C825.893 359.842 825.893 359.842 826.639 358.349C827.386 356.109 831.119 356.856 831.119 359.095C830.372 361.335 834.105 362.082 836.345 359.842C837.092 359.095 840.078 359.095 842.318 359.095C844.558 359.095 846.051 359.095 844.558 358.349C842.318 356.856 842.318 353.123 845.305 353.869C846.051 354.616 846.051 355.362 845.305 356.109C844.558 356.856 845.305 356.856 848.291 356.856C851.277 356.856 852.771 356.856 851.277 357.602C850.531 358.349 851.277 359.095 852.771 359.842C855.01 360.589 855.757 361.335 852.771 361.335C851.277 362.082 850.531 362.828 851.277 362.828C853.517 364.322 859.49 361.335 858.744 359.095C857.997 358.349 858.744 357.602 860.237 357.602C861.73 357.602 861.73 356.856 860.983 356.109C860.237 355.362 862.477 354.616 865.463 353.869C870.689 353.123 871.436 353.123 874.422 355.362C875.916 356.856 878.902 358.349 881.142 358.349C884.128 358.349 884.128 358.349 881.142 356.856C877.409 354.616 878.155 354.616 884.875 355.362C892.341 356.109 907.273 360.589 904.287 362.082C903.54 362.828 903.54 362.828 905.033 362.828C906.527 362.828 907.273 362.828 908.02 362.082C908.02 361.335 909.513 360.589 911.006 361.335C912.5 361.335 913.993 362.082 913.993 363.575C913.993 364.322 914.739 365.068 915.486 365.068C916.233 365.068 917.726 365.068 918.472 365.815C919.219 366.562 919.219 367.308 917.726 366.562C916.233 365.815 915.486 365.815 915.486 366.562C915.486 368.055 920.712 369.548 925.939 368.801C931.911 368.055 940.124 369.548 939.378 371.041C939.378 371.788 937.138 373.281 934.898 374.028C931.165 375.521 931.165 375.521 934.151 375.521C935.644 375.521 939.378 374.774 941.617 373.281C943.857 371.788 944.604 371.041 943.857 372.534C943.111 374.028 943.111 374.774 945.35 374.774C955.056 375.521 966.255 377.761 968.495 379.254C970.735 380.747 970.735 380.001 969.988 377.761C969.242 374.774 969.242 374.774 973.722 375.521C975.961 376.267 979.694 376.267 981.188 375.521C983.427 374.774 984.174 374.774 983.427 375.521C982.681 377.761 986.414 377.761 991.64 374.774C995.373 372.534 996.867 372.534 997.613 374.028C999.106 375.521 999.106 375.521 1001.35 374.028C1003.59 372.534 1004.33 372.534 1006.57 374.028C1010.31 376.267 1019.26 375.521 1020.76 372.534C1021.5 371.041 1021.5 370.295 1018.52 370.295C1014.04 371.041 1014.04 369.548 1018.52 367.308C1021.5 365.815 1022.25 365.815 1023.74 367.308C1025.98 369.548 1036.44 371.041 1037.18 369.548C1037.18 368.801 1037.93 366.562 1038.68 364.322C1040.92 357.602 1043.16 355.362 1046.14 357.602C1047.64 358.349 1049.13 359.095 1049.13 358.349C1049.13 357.602 1049.88 356.856 1049.88 356.109C1050.62 355.362 1050.62 353.869 1051.37 353.123C1051.37 352.376 1055.1 350.883 1058.84 350.136L1065.55 348.643L1058.84 347.896C1055.1 347.896 1051.37 347.896 1050.62 348.643C1049.88 349.389 1047.64 349.389 1045.4 347.896C1040.92 345.656 1040.92 344.163 1045.4 344.163C1049.88 344.163 1058.09 339.684 1056.6 336.697C1055.85 335.204 1056.6 335.204 1058.09 335.951C1060.33 337.444 1063.31 336.697 1064.06 335.204C1064.06 334.457 1063.31 334.457 1061.82 334.457C1060.33 334.457 1059.58 334.457 1060.33 332.964C1060.33 332.217 1059.58 330.724 1057.34 329.978C1055.85 329.231 1054.36 329.978 1054.36 330.724C1054.36 331.471 1053.61 331.471 1052.12 329.978C1051.37 328.484 1051.37 327.738 1052.86 327.738C1054.36 326.991 1054.36 326.991 1052.12 326.245C1050.62 325.498 1048.38 326.245 1047.64 326.991C1046.89 327.738 1045.4 328.484 1043.9 328.484C1042.41 328.484 1042.41 327.738 1043.16 326.991C1043.9 326.245 1043.9 324.751 1043.16 324.751C1040.92 323.258 1041.66 318.032 1043.9 318.032C1045.4 318.032 1044.65 317.285 1042.41 315.792C1040.17 314.299 1038.68 312.059 1039.42 310.566C1039.42 309.073 1039.42 308.326 1037.93 308.326C1037.18 308.326 1032.7 306.833 1028.97 304.593C1025.24 302.353 1021.5 301.606 1020.01 301.606C1019.26 301.606 1015.53 300.86 1012.55 300.113C1007.32 297.873 1007.32 297.873 1011.8 297.127C1014.04 297.127 1016.28 295.634 1017.02 294.887C1017.02 294.14 1018.52 294.887 1020.01 296.38C1023 298.62 1023 298.62 1022.25 295.634C1021.5 293.394 1022.25 291.9 1024.49 292.647C1025.98 292.647 1028.97 291.9 1030.46 291.154C1032.7 289.661 1033.45 288.914 1030.46 288.167C1028.22 287.421 1028.97 286.674 1032.7 285.928C1035.69 285.181 1037.18 285.181 1035.69 285.181C1034.2 285.181 1033.45 284.434 1033.45 282.941C1033.45 280.701 1029.72 279.208 1023 279.208C1020.01 279.208 1019.26 278.461 1021.5 277.715C1023 276.968 1024.49 275.475 1024.49 273.982C1024.49 272.489 1026.73 271.742 1030.46 272.489C1033.45 272.489 1034.94 272.489 1034.2 271.742C1033.45 270.995 1032.7 269.502 1032.7 268.009C1032.7 265.769 1034.2 265.769 1036.44 266.516C1038.68 267.262 1040.17 268.009 1040.17 268.756C1040.17 269.502 1040.92 268.756 1042.41 267.262C1044.65 264.276 1044.65 259.796 1041.66 258.303C1040.92 257.556 1040.17 256.063 1039.42 254.57C1038.68 253.077 1039.42 252.33 1040.17 253.077C1042.41 255.317 1048.38 256.81 1049.13 254.57C1049.13 253.823 1048.38 252.33 1047.64 251.584C1046.89 250.837 1046.14 250.09 1046.89 250.09C1048.38 249.344 1054.36 249.344 1057.34 250.837C1058.84 251.584 1060.33 251.584 1061.08 251.584C1061.82 250.837 1061.07 250.837 1060.33 250.837C1058.84 250.837 1057.34 249.344 1056.6 247.104C1055.1 244.117 1054.36 244.117 1052.12 245.611C1048.38 247.85 1044.65 246.357 1045.4 242.624C1046.14 238.891 1043.9 239.638 1042.41 242.624C1041.66 244.117 1040.17 244.864 1037.93 244.117C1036.44 244.117 1034.94 244.117 1034.2 244.864C1034.2 245.611 1032.7 245.611 1031.21 244.117C1028.22 241.878 1027.48 240.384 1030.46 241.131C1032.7 241.878 1035.69 238.891 1034.2 237.398C1033.45 236.651 1034.2 237.398 1035.69 238.891C1039.42 241.878 1041.66 241.878 1040.92 239.638C1040.17 238.891 1040.92 237.398 1042.41 237.398C1046.14 236.651 1037.18 231.425 1030.46 229.185C1023 226.945 1019.26 224.706 1021.5 223.959C1022.25 223.212 1021.5 223.212 1020.76 223.212C1019.26 223.212 1018.52 223.959 1018.52 223.959C1018.52 224.706 1017.02 224.706 1015.53 224.706C1012.55 223.959 1012.55 220.226 1015.53 218.733C1017.02 217.986 1017.02 217.986 1014.79 217.986C1012.55 217.986 1011.05 217.986 1011.05 217.239C1011.05 216.493 1010.31 216.493 1009.56 216.493C1008.81 216.493 1007.32 215 1005.83 213.506C1004.33 210.52 1004.33 209.773 1006.57 211.267C1008.07 212.76 1009.56 212.76 1009.56 211.267C1009.56 210.52 1008.07 209.027 1005.83 208.28C1003.59 207.534 1002.09 206.04 1002.09 205.294C1002.09 204.547 1002.84 204.547 1004.33 206.04C1005.08 206.787 1006.57 207.534 1007.32 207.534C1008.07 207.534 1006.57 206.04 1003.59 204.547C1000.6 203.054 996.12 200.814 993.133 198.574C987.161 194.841 985.667 194.841 984.921 196.334C984.921 197.081 986.414 197.828 987.907 198.574C990.147 199.321 993.133 200.814 995.373 202.307C999.106 205.294 999.106 205.294 995.373 204.547C993.133 204.547 991.64 203.8 991.64 203.054C991.64 202.307 990.894 202.307 989.4 202.307C987.907 202.307 987.907 202.307 988.654 200.814C989.4 200.067 988.654 199.321 987.161 198.574C985.667 198.574 983.428 197.081 982.681 196.334C981.188 194.095 980.441 194.095 976.708 196.334C974.468 197.828 971.482 198.574 969.242 197.828C967.002 197.081 967.749 197.828 969.988 199.321C972.975 201.561 972.975 201.561 969.988 202.307C967.749 202.307 960.283 201.561 954.31 200.814C947.59 199.321 939.378 197.828 935.644 197.828C931.165 197.081 929.672 197.081 930.418 197.828C931.911 200.067 927.432 199.321 923.699 196.334C922.205 194.841 921.459 194.095 921.459 194.095C922.205 194.095 925.192 193.348 928.925 191.855C937.884 189.615 939.378 189.615 943.857 193.348C947.59 196.334 947.59 196.334 946.844 193.348C946.097 191.855 943.857 190.361 939.378 188.868C935.644 188.122 934.151 187.375 935.644 187.375C937.884 187.375 938.631 186.628 938.631 185.882C937.884 185.135 935.644 185.135 932.658 185.135C928.925 185.882 928.178 185.882 928.178 183.642C928.178 182.149 927.432 181.402 924.445 181.402C919.966 180.656 919.966 180.656 924.445 182.149C928.178 182.895 928.178 182.895 922.952 184.389C916.979 185.882 908.766 185.882 913.246 184.389C914.739 183.642 916.233 182.149 916.233 179.909C916.979 176.922 916.979 176.176 913.246 175.429C911.006 175.429 909.513 173.936 908.766 173.189C908.766 171.696 907.273 171.696 902.794 173.189C896.074 175.429 895.327 176.176 892.341 173.936C889.355 171.696 890.101 170.203 894.581 170.95C896.821 170.95 898.314 171.696 898.314 172.443C898.314 173.189 898.314 173.936 900.554 172.443C902.794 171.696 902.794 170.95 900.554 170.203C899.061 169.456 898.314 167.963 899.807 167.217C900.554 166.47 900.554 164.977 899.807 164.977C899.061 164.977 897.567 165.723 897.567 167.217C896.821 170.95 894.581 170.203 890.848 164.977L887.861 160.497L893.834 158.257C897.567 156.764 899.061 155.271 898.314 154.524C896.821 152.284 892.341 152.284 890.101 154.524C887.861 156.764 880.395 154.524 881.142 152.284C881.888 150.045 884.875 149.298 885.622 151.538C885.622 152.284 887.115 152.284 890.848 151.538C894.581 150.791 896.074 150.791 898.314 152.284C899.807 153.031 901.3 153.778 901.3 153.031C901.3 152.284 899.807 151.538 898.314 150.044C896.074 149.298 896.074 147.805 896.821 146.311C898.314 144.818 899.06 144.818 901.3 146.311C902.794 147.058 904.287 150.045 904.287 151.538C905.033 153.778 905.78 154.524 908.02 154.524C909.513 154.524 911.006 153.778 911.006 153.031C911.006 152.284 910.26 152.284 908.766 152.284C905.033 153.031 910.26 144.072 913.993 142.578C916.979 141.085 916.979 141.085 913.993 141.085C909.513 141.085 908.02 138.845 910.26 136.606C912.5 135.112 913.246 132.872 914.739 129.139C915.486 126.9 916.233 126.9 918.472 128.393C920.712 129.886 920.712 129.886 920.712 126.9C920.712 125.406 921.459 123.167 922.205 122.42C923.699 121.673 924.445 119.433 922.952 117.194C922.205 114.954 921.459 111.967 922.205 110.474C922.952 108.234 922.952 108.234 924.445 110.474C925.939 114.207 926.685 111.221 925.192 106.741C923.699 103.755 924.445 103.755 928.178 103.008C930.418 103.008 932.658 101.515 932.658 100.768C932.658 99.275 932.658 99.275 931.165 100.022C929.672 101.515 928.925 101.515 928.178 100.022C927.432 98.5284 926.685 98.5284 925.939 99.275C922.952 101.515 918.472 99.275 920.712 95.5419C921.459 94.0487 922.952 91.0623 923.699 89.5691C925.192 85.836 931.911 82.8496 932.658 85.0894C933.405 85.836 933.405 85.836 934.151 85.0894C934.898 82.8496 940.871 81.3563 954.31 80.6097C961.029 79.8631 966.255 79.1165 966.255 79.1165C966.255 78.3699 968.495 78.3699 969.988 79.1165C972.975 79.8631 973.722 79.1165 974.468 76.8767C975.215 75.3835 976.708 73.1436 978.201 72.397C979.694 71.6504 979.695 71.6504 978.948 73.1436C976.708 76.1301 977.455 76.1301 989.4 73.1436C994.627 71.6504 1003.59 70.9038 1008.07 70.9038C1022.25 70.9038 1030.46 70.1572 1030.46 68.664C1030.46 67.9174 1034.2 67.1707 1037.93 67.1707C1041.66 67.1707 1045.4 66.4241 1045.4 65.6775C1045.4 64.9309 1046.14 64.9309 1047.64 65.6775C1048.38 66.4241 1049.88 65.6775 1049.88 64.1843C1049.88 62.6911 1052.12 61.1979 1055.1 60.4512C1057.34 59.7046 1058.84 59.7046 1058.09 60.4512C1057.34 61.1979 1059.58 61.9445 1062.57 61.9445C1068.54 62.6911 1070.78 61.1979 1066.3 59.7046C1064.06 58.958 1064.81 58.958 1067.05 57.4648C1069.29 56.7182 1070.03 56.7182 1069.29 57.4648C1069.29 58.2114 1070.03 58.958 1070.78 58.958C1071.53 58.958 1073.02 58.2114 1073.02 57.4648C1073.02 55.9716 1086.46 52.9851 1092.43 52.2385C1096.17 52.2385 1099.15 49.9987 1099.15 48.5055C1099.15 47.0123 1100.65 46.2656 1103.63 46.2656C1109.6 47.0123 1117.82 42.5326 1117.07 39.5462C1116.32 37.3063 1117.07 37.3063 1121.55 38.0529C1124.54 38.7995 1126.78 38.7995 1126.78 38.0529C1126.78 37.3063 1127.52 37.3063 1129.02 37.3063C1129.76 38.0529 1131.26 37.3063 1131.26 35.8131C1136.48 41.0394 1135.74 40.2928 1132.75 41.0394ZM756.458 9.68174C755.711 9.68174 754.218 9.68174 753.471 8.93513C751.978 8.18852 751.978 7.44191 753.471 7.44191C755.711 7.44191 757.951 8.93513 756.458 9.68174ZM225.618 34.3199C227.111 34.3199 227.858 35.0665 227.858 35.8131C227.858 36.5597 227.111 37.3063 227.111 37.3063C226.364 37.3063 225.618 36.5597 224.871 35.8131C224.125 34.3199 224.125 34.3199 225.618 34.3199ZM229.351 75.3835C226.364 76.1301 221.885 74.6369 221.885 73.1436C221.885 72.397 224.125 72.397 227.111 71.6504C233.084 71.6504 234.577 74.6368 229.351 75.3835ZM242.79 76.1301C242.043 76.8767 240.55 76.8767 239.803 76.8767C239.057 76.8767 238.31 76.1301 238.31 76.1301C238.31 75.3835 239.803 75.3835 241.297 75.3835C242.79 75.3835 243.537 75.3835 242.79 76.1301ZM252.496 88.0758C252.496 89.5691 251.749 90.3157 251.003 89.5691C250.256 88.8224 250.256 88.0758 251.003 87.3292C251.749 86.5826 252.496 86.5826 252.496 88.0758ZM254.736 96.2886C253.989 96.2886 252.496 95.5419 253.242 94.7953C253.989 94.0487 254.736 94.0487 255.482 94.0487C256.229 94.7953 256.976 95.5419 256.976 95.5419C256.976 96.2886 256.229 97.0352 254.736 96.2886ZM256.229 92.5555C254.736 91.8089 253.989 90.3157 254.736 90.3157C256.975 88.8224 259.215 90.3157 258.469 92.5555C258.469 94.0487 258.469 94.0487 256.229 92.5555ZM306.998 109.728C306.252 110.474 304.012 110.474 302.519 110.474C301.026 110.474 299.532 109.728 299.532 108.981C299.532 108.234 301.772 108.234 304.012 108.234C306.252 108.981 307.745 108.981 306.998 109.728ZM347.315 120.927C346.569 120.927 345.822 120.18 345.822 118.687C345.822 117.194 348.809 116.447 350.302 117.94C351.795 119.433 349.555 121.673 347.315 120.927ZM60.6169 392.693C59.8703 391.2 57.6305 390.453 56.8839 391.2C55.3907 391.946 55.3907 391.2 57.6305 389.706C59.1237 388.213 60.6169 387.467 61.3635 387.467C62.1102 387.467 62.1102 388.213 61.3635 388.213C60.6169 388.96 60.6169 389.706 61.3635 391.2C62.1102 391.946 62.8568 393.439 62.8568 394.186C62.8568 394.186 61.3635 393.44 60.6169 392.693ZM67.3364 388.96C67.3364 389.706 65.8432 389.706 65.0966 389.706C62.8568 388.96 62.1102 385.227 65.0966 385.227C66.5898 384.48 68.083 386.72 67.3364 388.96ZM67.3364 289.661C66.5898 289.661 65.8432 288.914 64.35 287.421C62.8568 285.928 62.8568 285.928 65.0966 286.674C68.083 287.421 69.5763 289.661 67.3364 289.661ZM80.0288 379.254C78.5356 379.254 77.789 378.507 78.5356 377.761C78.5356 377.014 79.2822 376.267 80.7754 377.014C82.2686 377.014 83.0153 377.761 82.2686 378.507C82.2686 379.254 81.522 379.254 80.0288 379.254ZM96.4542 384.48C94.2144 383.734 92.7212 381.494 94.961 381.494C97.9475 381.494 101.681 383.734 100.934 384.48C99.4407 385.227 97.9475 385.227 96.4542 384.48ZM98.6941 268.009C97.2009 268.009 96.4542 268.009 95.7076 267.262C94.961 266.516 96.4542 265.769 97.9475 265.769C101.681 265.023 102.427 266.516 98.6941 268.009ZM105.414 395.679C104.667 395.679 103.174 394.933 103.92 394.186C103.92 393.439 104.667 393.439 106.16 393.439C106.907 394.186 107.653 394.186 107.653 394.933C107.653 395.679 106.907 395.679 105.414 395.679ZM111.386 184.389C108.4 185.135 108.4 184.389 110.64 182.895C114.373 180.656 115.119 180.656 115.119 182.149C115.119 183.642 113.626 184.389 111.386 184.389ZM122.586 381.494C122.586 382.987 121.839 383.734 121.092 382.987C120.346 382.24 120.346 381.494 121.092 380.747C122.586 380.001 122.586 380.001 122.586 381.494ZM142.744 387.467C141.251 387.467 140.504 385.227 141.997 384.48C142.744 384.48 143.491 384.48 143.491 385.973C143.491 386.72 143.491 387.467 142.744 387.467ZM171.862 384.48C170.369 384.48 169.622 383.734 170.369 382.987C170.369 382.24 171.862 381.494 172.609 381.494C174.102 381.494 174.848 381.494 174.102 382.987C174.102 383.734 172.609 384.48 171.862 384.48ZM183.808 381.494C180.821 382.24 178.581 382.987 178.581 382.24C178.581 381.494 180.821 380.747 183.808 380.001C186.794 379.254 189.034 379.254 189.034 379.254C189.034 380 186.794 380.747 183.808 381.494ZM199.486 388.96C197.993 388.96 197.247 388.213 197.247 388.213C197.247 388.213 197.993 387.467 199.486 386.72C200.98 386.72 201.726 386.72 201.726 387.467C201.726 388.213 200.98 388.96 199.486 388.96ZM324.17 161.99C323.424 162.737 321.931 162.737 320.437 162.737C318.944 162.737 318.944 161.99 319.691 161.244C320.437 160.497 321.931 160.497 323.424 160.497C324.917 160.497 324.917 161.244 324.17 161.99ZM333.876 395.679C331.637 397.919 330.89 397.919 327.904 394.933C324.17 391.2 327.157 388.96 332.383 391.946C335.37 393.439 336.116 394.186 333.876 395.679ZM351.795 161.244C350.302 161.244 349.555 160.497 350.302 159.75C350.302 159.004 351.048 158.257 352.542 159.004C354.035 159.004 354.781 159.75 354.035 160.497C354.035 160.497 353.288 161.244 351.795 161.244ZM371.954 386.72C368.967 385.973 364.487 385.227 361.501 384.48L356.275 383.734L362.994 382.24C368.22 381.494 369.714 381.494 369.714 382.987C369.714 383.734 371.207 384.48 372.7 384.48C375.687 383.734 377.926 385.227 377.926 386.72C377.18 388.213 374.94 387.467 371.954 386.72ZM418.243 377.761C416.004 377.761 414.51 378.507 414.51 379.254C414.51 380 412.27 380.747 409.284 380.747C402.565 380.747 402.565 379.254 408.537 377.014C414.51 374.774 423.47 374.028 423.47 376.267C421.976 377.014 420.483 377.761 418.243 377.761ZM448.108 376.267C445.121 376.267 442.135 377.014 442.882 377.761C443.628 378.507 439.895 379.254 435.415 378.507C427.949 378.507 427.949 377.761 433.176 377.761C436.909 377.014 440.642 376.267 442.882 374.774C445.121 373.281 448.854 372.534 451.094 372.534C457.814 372.534 455.574 375.521 448.108 376.267ZM459.307 382.987C458.56 383.734 457.067 383.734 455.574 383.734C454.827 383.734 454.081 382.987 454.081 382.24C454.081 381.494 455.574 381.494 457.814 381.494C459.307 381.494 460.054 382.24 459.307 382.987ZM480.959 381.494C479.465 381.494 478.719 380.747 479.465 380.001C479.465 379.254 480.212 378.507 481.705 379.254C483.198 379.254 483.945 380.001 483.198 380.747C483.198 381.494 481.705 382.24 480.959 381.494ZM495.144 380.001C494.398 380.001 492.904 380.001 491.411 380.001C489.918 379.254 490.665 379.254 492.904 379.254C494.398 379.254 495.891 379.254 495.144 380.001ZM552.633 371.788C551.887 372.534 548.9 373.281 543.674 373.281C533.968 373.281 535.461 370.295 545.914 370.295C551.887 369.548 553.38 370.295 552.633 371.788ZM555.62 365.068C555.62 366.562 554.873 367.308 554.126 366.562C553.38 365.815 554.127 364.322 554.873 363.575C555.62 362.082 556.366 362.828 555.62 365.068ZM560.099 371.041C559.353 371.788 557.859 371.788 557.113 371.041C556.366 370.295 555.62 369.548 556.366 368.801C557.113 368.055 558.606 368.055 559.353 368.801C560.846 369.548 560.846 370.295 560.099 371.041ZM580.258 370.295C579.511 369.548 575.778 370.295 573.538 371.041C567.565 373.281 564.579 373.281 566.819 371.041C567.565 370.295 567.565 369.548 565.326 368.801C563.832 368.801 562.339 368.055 562.339 367.308C562.339 365.815 566.072 365.815 569.805 366.562C570.552 366.562 572.792 367.308 575.032 367.308C579.511 367.308 583.244 368.801 582.498 370.295C581.751 371.041 581.004 371.041 580.258 370.295ZM598.177 375.521C596.683 375.521 594.443 375.521 592.95 375.521C591.457 374.774 592.95 374.774 595.937 374.774C598.177 375.521 598.923 375.521 598.177 375.521ZM616.842 350.136C616.095 350.136 614.602 349.389 615.349 348.643C615.349 347.896 616.842 347.896 617.588 347.896C618.335 348.643 619.082 349.389 619.082 349.389C619.082 350.136 617.588 350.136 616.842 350.136ZM762.431 359.842C760.938 361.335 758.698 362.828 757.951 362.828C757.205 362.828 756.458 362.082 757.205 360.589C757.205 359.842 756.458 359.095 755.711 359.095C754.218 359.095 753.471 359.095 754.218 357.602C754.965 355.362 757.951 354.616 763.177 356.109C764.671 356.856 764.671 357.602 762.431 359.842ZM718.381 343.417C720.621 342.67 752.725 339.684 758.698 340.43C761.684 340.43 760.191 343.417 757.205 343.417C751.978 343.417 743.766 344.163 743.766 345.656C743.766 346.403 741.526 346.403 739.286 345.656C736.299 344.91 735.553 344.91 734.806 347.15C734.06 349.389 734.06 349.389 729.58 347.896C726.594 347.15 723.607 346.403 721.367 347.15C717.634 347.896 715.394 344.91 718.381 343.417ZM645.213 362.082C648.199 362.082 648.946 362.828 647.453 362.828C645.96 362.828 643.72 362.828 642.227 362.828C641.48 362.082 642.227 362.082 645.213 362.082ZM712.408 371.041C710.915 370.295 709.421 369.548 709.421 368.801C709.421 368.055 710.915 368.055 712.408 368.801C713.901 369.548 715.394 370.295 715.394 371.041C715.394 371.041 713.901 371.788 712.408 371.041ZM711.661 365.815C702.702 365.068 697.476 365.815 696.729 366.562C695.982 367.308 697.476 368.055 701.209 368.801C704.195 368.801 706.435 369.548 705.688 370.295C704.942 371.041 700.462 371.041 695.982 370.295C690.01 369.548 687.023 370.295 684.783 371.788C681.797 374.028 678.064 374.028 680.304 372.534C681.05 371.788 680.304 371.041 678.81 371.041C677.317 370.295 675.077 371.041 674.331 371.788C673.584 373.281 671.344 373.281 667.611 372.534C663.132 371.788 662.385 371.788 663.878 373.281C666.865 377.014 666.118 378.507 660.892 377.014C655.666 376.267 653.426 377.761 657.905 379.254C659.399 380 658.652 380.001 655.666 380.747C651.186 381.494 651.186 381.494 650.439 379.254C649.693 377.761 648.199 376.267 645.213 376.267C642.973 375.521 641.48 374.774 642.973 374.028C643.72 373.281 645.96 373.281 647.453 373.281C648.946 374.028 651.186 373.281 652.679 373.281C654.919 372.534 653.426 372.534 648.199 371.788C641.48 371.041 640.733 371.041 642.973 369.548C644.466 368.801 649.693 368.055 654.172 368.055C658.652 368.055 662.385 367.308 662.385 366.562C662.385 365.815 666.118 365.815 669.851 366.562C676.571 367.308 677.317 367.308 677.317 364.322C678.064 362.082 678.81 361.335 681.05 361.335C684.037 361.335 684.037 362.082 681.05 362.828C677.317 364.322 678.81 368.055 683.29 368.055C685.53 368.055 686.276 368.055 684.783 367.308C681.05 365.815 682.544 365.068 687.023 365.068C689.263 365.068 692.249 364.322 692.996 363.575C693.743 362.828 695.236 362.082 696.729 362.828C698.222 362.828 699.716 362.082 700.462 361.335C700.462 359.842 701.209 359.842 701.955 361.335C701.955 362.082 703.449 362.828 704.942 362.828C706.435 362.828 706.435 362.082 705.688 361.335C704.942 360.589 705.688 359.842 706.435 359.842C707.182 359.842 708.675 360.589 709.421 361.335C710.168 362.082 710.168 362.082 710.915 360.589C711.661 358.349 715.394 357.602 715.394 360.589C715.394 361.335 716.141 361.335 717.634 360.589C719.874 359.095 719.874 359.095 718.381 361.335C716.888 363.575 717.634 363.575 725.1 363.575C729.58 363.575 734.806 363.575 736.299 363.575C740.032 365.068 740.032 362.082 735.553 359.842C731.073 356.856 731.073 355.362 734.806 356.109C737.046 356.109 743.019 365.068 741.526 366.562C741.526 366.562 737.046 367.308 732.566 367.308C728.833 366.562 719.127 366.562 711.661 365.815ZM763.924 369.548C761.684 368.801 760.191 369.548 759.444 371.041C757.951 373.281 756.458 373.281 751.978 372.534C748.245 371.788 746.005 371.788 746.005 372.534C746.005 373.281 744.512 374.028 743.766 374.028C742.272 374.028 742.272 373.281 743.019 372.534C744.512 371.788 743.019 371.041 738.539 371.788C726.594 372.534 721.367 372.534 721.367 371.041C721.367 369.548 730.327 368.055 743.019 368.801C745.259 368.801 746.752 368.055 746.752 366.562C746.752 365.068 748.245 364.322 748.992 365.068C749.738 365.815 750.485 366.562 749.738 367.308C748.992 368.055 749.738 368.801 752.725 368.801C754.965 368.801 757.205 368.801 757.951 368.055C758.698 367.308 758.698 366.562 757.205 366.562C753.471 366.562 754.965 364.322 758.698 364.322C760.938 364.322 763.177 365.068 763.924 366.562C767.657 369.548 767.657 370.295 763.924 369.548ZM822.906 43.2792C822.906 41.786 823.653 41.0394 824.399 42.5326C825.146 44.0258 825.893 44.0258 828.133 43.2792C830.372 42.5326 831.119 42.5326 830.372 44.7724C830.372 46.2657 828.133 47.0123 825.893 47.7589C823.653 47.7589 822.16 48.5055 822.16 49.2521C822.906 49.9987 821.413 50.7453 819.92 50.7453C818.427 50.7453 816.187 50.7453 815.44 49.9987C814.694 49.2521 815.44 49.2521 816.187 49.2521C819.173 49.9987 822.16 47.7589 822.906 43.2792ZM814.694 6.6953C816.933 6.6953 819.173 7.44191 819.173 8.18852C819.173 8.93513 818.427 9.68174 817.68 8.93513C816.933 8.93513 814.694 8.18852 813.2 7.44191C810.961 6.6953 810.961 5.94869 814.694 6.6953ZM789.309 356.109C787.816 355.362 786.322 354.616 787.069 353.869C787.069 352.376 792.295 352.376 793.788 353.869C795.282 356.109 792.295 357.602 789.309 356.109ZM791.549 350.136C788.562 350.883 788.562 350.883 791.549 348.643C795.282 344.91 796.028 341.177 792.295 343.417C789.309 344.91 774.377 344.163 774.377 342.67C774.377 341.923 775.123 341.177 775.87 341.177C795.282 341.177 796.775 341.177 796.775 344.163C796.775 346.403 797.522 346.403 801.255 346.403C809.467 346.403 813.2 347.15 811.707 348.643C810.96 349.389 807.227 350.136 802.748 349.389C798.268 349.389 793.788 349.389 791.549 350.136ZM813.947 357.602C813.2 357.602 811.707 357.602 810.214 356.109C808.721 355.362 806.481 354.616 804.241 355.362C802.001 356.109 802.001 356.109 804.241 354.616C806.481 353.869 807.974 353.869 810.961 355.362C813.2 356.109 814.694 356.856 813.947 357.602ZM831.119 352.376C831.119 353.869 829.626 354.616 828.879 354.616C828.133 354.616 827.386 353.869 827.386 352.376C827.386 351.629 828.133 350.136 829.626 350.136C831.119 350.883 831.866 351.629 831.119 352.376ZM830.372 345.656C829.626 347.15 827.386 348.643 826.639 349.389C825.146 350.136 825.146 350.136 825.146 348.643C825.146 347.896 824.399 347.15 822.16 347.15C820.666 347.15 819.173 347.896 818.427 348.643C818.427 350.136 817.68 350.136 814.694 347.896C809.467 343.417 811.707 341.923 822.906 342.67C831.866 342.67 832.612 342.67 830.372 345.656ZM840.825 26.8538C840.825 26.1072 841.572 25.3606 843.065 26.1072C844.558 26.1072 845.305 26.8538 844.558 27.6004C844.558 28.347 843.811 29.0936 842.318 28.347C840.825 27.6004 840.078 27.6004 840.825 26.8538ZM845.305 53.7318C843.811 55.225 842.318 55.9716 841.571 55.225C840.078 54.4784 843.811 50.7453 846.051 50.7453C847.544 51.4919 846.798 52.9851 845.305 53.7318ZM873.676 172.443C872.183 171.696 871.436 170.95 871.436 170.95C872.183 170.95 873.676 170.95 874.422 171.696C878.155 172.443 877.409 173.189 873.676 172.443ZM876.662 162.737C875.169 162.737 875.169 162.737 875.916 161.244C877.409 159.004 878.902 159.004 878.902 160.497C878.902 161.99 877.409 162.737 876.662 162.737ZM1044.65 341.177C1046.14 341.177 1046.89 341.923 1046.14 342.67C1046.14 343.417 1045.4 344.163 1043.9 343.417C1042.41 343.417 1041.66 342.67 1042.41 341.923C1042.41 341.923 1043.16 341.177 1044.65 341.177ZM1012.55 293.394C1011.05 293.394 1010.31 292.647 1011.05 291.154C1011.05 290.407 1012.55 289.661 1013.29 289.661C1014.79 289.661 1015.53 290.407 1014.79 291.9C1014.79 292.647 1013.29 293.394 1012.55 293.394ZM1026.73 287.421C1030.46 287.421 1031.21 288.167 1031.21 291.154C1031.21 293.394 1029.72 294.887 1028.97 294.887C1027.48 294.887 1021.5 289.661 1022.25 288.167C1021.5 287.421 1024.49 287.421 1026.73 287.421ZM1026.73 278.461L1021.5 279.208C1018.52 279.208 1016.28 279.208 1015.53 278.461C1014.79 276.222 1017.02 276.222 1022.25 277.715L1026.73 278.461ZM1017.02 231.425C1018.52 230.678 1024.49 232.172 1024.49 232.918C1024.49 232.918 1022.25 232.918 1020.01 232.918C1017.77 232.172 1016.28 231.425 1017.02 231.425ZM1010.31 271.742C1011.8 270.995 1014.04 270.249 1015.53 270.249C1017.02 270.249 1017.02 270.249 1015.53 270.995C1014.04 270.995 1013.29 272.489 1013.29 274.728C1013.29 277.715 1013.29 277.715 1010.31 275.475C1008.07 273.982 1007.32 273.235 1010.31 271.742ZM910.26 184.389C911.753 184.389 913.246 185.135 913.246 185.882C913.246 186.628 911.753 187.375 910.26 186.628C908.766 186.628 907.273 185.882 907.273 185.135C907.273 184.389 908.766 184.389 910.26 184.389ZM899.807 160.497C900.554 161.244 901.3 161.99 901.3 161.99C901.3 161.99 900.554 162.737 899.061 162.737C898.314 162.737 896.821 161.99 897.567 161.244C897.567 160.497 898.314 159.75 899.807 160.497ZM889.355 170.95C890.101 171.696 890.848 171.696 890.848 172.443C890.848 172.443 890.101 173.189 888.608 173.189C887.861 173.189 886.368 172.443 887.115 171.696C887.115 170.95 888.608 170.203 889.355 170.95ZM881.888 178.416C878.902 178.416 878.155 176.176 881.142 175.429C883.382 175.429 884.128 175.429 884.128 176.922C884.128 177.669 882.635 178.416 881.888 178.416ZM893.834 156.764C892.341 156.764 891.594 156.764 892.341 155.271C892.341 154.524 893.834 153.778 894.581 153.778C896.074 153.778 896.821 154.524 896.074 155.271C896.074 155.271 895.327 156.017 893.834 156.764ZM914.739 132.126C909.513 132.872 908.02 132.126 910.26 129.886C912.5 127.646 919.966 127.646 919.966 130.633C919.966 130.633 917.726 131.379 914.739 132.126ZM919.966 122.42C915.486 123.167 913.246 121.673 917.726 120.18C919.966 119.433 920.712 118.687 918.472 117.94C916.979 117.194 916.979 115.7 917.726 113.461L919.966 110.474L922.205 113.461C925.192 117.94 923.699 121.673 919.966 122.42ZM925.939 108.234C927.432 108.234 928.178 108.234 928.178 109.728C928.178 110.474 927.432 111.967 926.685 111.221C924.445 111.221 923.699 108.981 925.939 108.234Z" fill="#3B50BE"/>
</svg>
