<svg width="150" height="150" viewBox="0 0 150 150" fill="none" xmlns="http://www.w3.org/2000/svg">
<path d="M120.745 0C137.414 3.4539 149.981 18.4783 149.981 36.525C149.981 54.5716 137.414 69.596 120.745 73.0499V0ZM106.148 73.0068V0C89.4789 3.4539 76.9121 18.4783 76.9121 36.525C76.9121 54.5284 89.4789 69.5529 106.148 73.0068Z" fill="#376CBB"/>
<path d="M73.0258 73.0067V0H0V73.0067H73.0258ZM10.969 10.9661H62.1V62.0838H10.969V10.9661Z" fill="#F36573"/>
<path d="M150 113.461C150 93.2984 133.633 76.9355 113.465 76.9355C93.2978 76.9355 76.9307 93.2984 76.9307 113.461C76.9307 133.623 93.2978 149.985 113.465 149.985C133.633 149.985 150 133.623 150 113.461ZM102.496 113.461C102.496 107.416 107.419 102.494 113.465 102.494C119.511 102.494 124.434 107.416 124.434 113.461C124.434 119.505 119.511 124.427 113.465 124.427C107.419 124.427 102.496 119.505 102.496 113.461Z" fill="#FFEEE4"/>
<path d="M0.0181427 150H73.0439L73.0439 76.9933L0.0181427 76.9933L0.0181427 150Z" fill="#E2F3FF"/>
</svg>
