<svg width="60" height="46" viewBox="0 0 60 46" fill="none" xmlns="http://www.w3.org/2000/svg">
<path d="M9.17833 0.0808105C9.17671 0.0808105 9.17489 0.0808105 9.17328 0.0808105C8.6058 0.0808105 8.07206 0.302023 7.66903 0.704045C7.26155 1.11051 7.03711 1.65172 7.03711 2.22789V34.4229C7.03711 35.6035 8.00135 36.5664 9.18681 36.5694C14.1844 36.5813 22.5574 37.6229 28.3335 43.6676V9.97458C28.3335 9.57438 28.2313 9.19841 28.0384 8.8873C23.2976 1.25253 14.1872 0.0925278 9.17833 0.0808105Z" fill="#AE7CF9"/>
<path d="M52.9642 34.4229V2.22764C52.9642 1.65148 52.7398 1.11027 52.3323 0.7038C51.9292 0.301779 51.3951 0.0805664 50.8282 0.0805664C50.8264 0.0805664 50.8246 0.0805664 50.823 0.0805664C45.8143 0.0924856 36.7039 1.25249 31.9629 8.88726C31.77 9.19837 31.668 9.57433 31.668 9.97454V43.6674C37.4441 37.6227 45.8171 36.5811 50.8147 36.5692C51.9999 36.5661 52.9642 35.6033 52.9642 34.4229Z" fill="#AE7CF9"/>
<path d="M57.8549 7.50562H56.2981V34.4231C56.2981 37.4374 53.8422 39.8954 50.8232 39.9029C46.5842 39.913 39.5946 40.7419 34.6445 45.427C43.2058 43.3308 52.2309 44.6934 57.3743 45.8655C58.0165 46.0118 58.6802 45.8607 59.1947 45.4506C59.7074 45.0415 60.0016 44.43 60.0016 43.7736V9.65229C60.0018 8.46865 59.0385 7.50562 57.8549 7.50562Z" fill="#AE7CF9"/>
<path d="M3.70345 34.4231V7.50562H2.14667C0.963236 7.50562 0 8.46865 0 9.65229V43.773C0 44.4296 0.294142 45.0409 0.806871 45.45C1.32101 45.8599 1.98405 46.0116 2.62728 45.8649C7.77073 44.6926 16.796 43.3302 25.3569 45.4263C20.4069 40.7415 13.4174 39.9128 9.17841 39.9027C6.15962 39.8954 3.70345 37.4374 3.70345 34.4231Z" fill="#AE7CF9"/>
</svg>
