<svg width="54" height="60" viewBox="0 0 54 60" fill="none" xmlns="http://www.w3.org/2000/svg">
<path d="M43.9347 38.7725C41.5585 42.036 37.7095 44.1616 33.3728 44.1616H27.2878C25.1857 44.1616 23.3957 42.827 22.7178 40.9592C21.8811 40.7096 21.0606 40.3856 20.26 39.9878C18.5644 39.1453 17.0248 38.004 15.6695 36.5901C6.8784 38.5214 0.298828 46.3547 0.298828 55.726V56.9509C0.298828 58.6348 1.6639 59.9998 3.34772 59.9998H50.6518C52.3356 59.9998 53.7007 58.6348 53.7007 56.9509V55.726C53.7006 48.4866 49.7739 42.1649 43.9347 38.7725Z" fill="#AE7CF9"/>
<path d="M12.4268 30.306C13.7371 30.306 14.8777 29.5797 15.4686 28.5079C15.4841 28.5503 15.4999 28.5925 15.5159 28.6347C15.5206 28.6473 15.5253 28.66 15.53 28.6727C16.9162 32.3215 19.6134 35.3803 23.1701 36.7168C24.0303 35.35 25.5513 34.441 27.2857 34.441H33.3707C33.9776 34.441 34.5425 34.2697 35.0378 33.9929C35.8695 33.5278 36.6174 32.348 37.0037 31.7226C37.6217 30.7218 38.1006 29.6618 38.5252 28.5061C38.7638 28.9395 39.092 29.3164 39.4852 29.6118V31.1039C39.4852 34.4754 36.7422 37.2185 33.3705 37.2185H27.2855C26.1352 37.2185 25.2025 38.1511 25.2025 39.3015C25.2025 40.452 26.1352 41.3845 27.2855 41.3845H33.3705C39.0393 41.3845 43.6511 36.7726 43.6511 31.1039V29.6118C44.4943 28.9784 45.0398 27.9701 45.0398 26.8344V20.5535V18.145C45.0398 16.9859 44.4714 15.9603 43.5985 15.3297C42.9216 6.76349 35.7347 0 26.9974 0C18.2601 0 11.0733 6.76349 10.3964 15.3296C9.52353 15.9602 8.95508 16.9859 8.95508 18.1448V26.8342C8.95508 28.757 10.5171 30.306 12.4268 30.306ZM26.9974 4.16609C33.4654 4.16609 38.8003 9.10897 39.4238 15.4157C39.0145 15.7378 38.6791 16.1493 38.4481 16.6216C36.4826 11.4936 32.095 7.92337 26.9973 7.92337C21.7897 7.92337 17.4725 11.6163 15.5542 16.6011C15.5516 16.6079 15.5491 16.6148 15.5465 16.6217C15.3155 16.1494 14.9802 15.7379 14.5708 15.4159C15.1948 9.10897 20.5295 4.16609 26.9974 4.16609Z" fill="#AE7CF9"/>
</svg>
