<svg width="71" height="70" viewBox="0 0 71 70" fill="none" xmlns="http://www.w3.org/2000/svg">
<path fill-rule="evenodd" clip-rule="evenodd" d="M27.6217 45.1423C27.6834 45.1239 27.7453 45.1024 27.8071 45.0777L34.6285 42.355L36.684 41.5068C37.1585 41.311 37.6041 41.0542 38.01 40.7436L29.4881 32.2217C29.1775 32.6276 28.9207 33.0733 28.7249 33.5478L27.7467 35.9192L25.1513 42.4218C25.1293 42.4769 25.1098 42.5319 25.0928 42.5868C24.9274 44.0291 26.1815 45.292 27.6217 45.1423ZM65.6595 13.2889L69.4323 9.51609C70.2305 8.71792 70.2305 7.42383 69.4323 6.62566L63.6033 0.796626C62.8051 -0.00154448 61.511 -0.00154448 60.7129 0.796626L56.94 4.56948L57.0037 4.63219L65.5969 13.2254L65.6595 13.2889ZM62.707 16.1164L54.1128 7.5222C50.8106 10.8245 47.0237 14.612 43.2349 18.4013L43.2267 18.4095C39.4392 22.1974 35.6503 25.9869 32.3423 29.295L40.9364 37.8892L62.707 16.1164Z" fill="#AE7CF9"/>
<path fill-rule="evenodd" clip-rule="evenodd" d="M30.9031 24.7073H1.81039C0.832114 24.7073 0.0390625 25.5003 0.0390625 26.4786V68.173C0.0390625 69.1513 0.832113 69.9443 1.81039 69.9443H51.6801C52.6584 69.9443 53.4515 69.1513 53.4515 68.173V30.9081L41.296 43.0647C40.3691 43.9916 39.2682 44.7261 38.0566 45.2261L29.6571 48.6921C29.0053 48.961 28.3534 49.116 27.7156 49.1711C27.5392 49.2146 27.3541 49.2378 27.1632 49.2378H10.5212C9.32231 49.2378 8.35045 48.3228 8.35045 47.194C8.35045 46.0652 9.32231 45.1502 10.5212 45.1502H21.2539C20.6661 43.7067 20.5978 42.0183 21.2942 40.3301L24.7595 31.9297C25.2595 30.7177 25.9941 29.6165 26.9211 28.6895L27.82 27.7905C28.7993 26.8113 29.8318 25.7787 30.9031 24.7073ZM10.3943 53.381C9.26551 53.381 8.35045 54.296 8.35045 55.4248C8.35045 56.5536 9.26551 57.4687 10.3943 57.4687H43.232C44.3608 57.4687 45.2759 56.5536 45.2759 55.4248C45.2759 54.296 44.3608 53.381 43.232 53.381H10.3943Z" fill="#AE7CF9"/>
</svg>
