<svg width="18" height="30" viewBox="0 0 18 30" fill="none" xmlns="http://www.w3.org/2000/svg">
<path d="M16.5553 16.1077L3.02453 29.6385C2.73693 29.8848 2.36703 30.0135 1.98863 29.9989C1.61023 29.9843 1.25133 29.8274 0.98353 29.5597C0.71583 29.2919 0.558929 28.933 0.544329 28.5546C0.529728 28.1762 0.65843 27.8063 0.90473 27.5187L13.368 15.0403L0.889729 2.57699C0.606628 2.2939 0.447529 1.90993 0.447529 1.50957C0.447529 1.10921 0.606628 0.725241 0.889729 0.442142C1.17283 0.159043 1.55673 0 1.95713 0C2.35743 0 2.74143 0.159043 3.02453 0.442142L16.5553 13.9729C16.6962 14.1127 16.808 14.2789 16.8844 14.4621C16.9607 14.6453 17 14.8418 17 15.0403C17 15.2388 16.9607 15.4353 16.8844 15.6185C16.808 15.8017 16.6962 15.968 16.5553 16.1077Z" fill="white"/>
</svg>
