<svg width="232" height="228" viewBox="0 0 232 228" fill="none" xmlns="http://www.w3.org/2000/svg">
<path d="M94.1856 32.6158C94.6866 32.4728 95.251 32.4395 95.7059 32.4695C96.2703 32.4362 96.7887 32.5759 97.1975 32.7787C97.6064 32.9815 98.0153 33.1844 98.3148 33.4504C98.6143 33.7164 98.8043 34.0455 98.885 34.4379C98.9656 34.8302 98.9368 35.2858 98.7813 35.5218C98.5164 35.8211 98.1881 36.0106 97.7965 36.0904C97.4049 36.1702 97.1227 36.1868 96.7138 35.984C96.3683 35.8909 96.1782 35.5617 96.0976 35.1694C96.017 34.777 95.9997 34.4944 96.2646 34.1952C96.5295 33.8959 96.5756 33.723 96.9038 33.5335C96.6044 33.2675 96.3682 33.1112 95.8499 32.9715C95.395 32.9416 94.94 32.9117 94.439 33.0547C94.0474 33.1345 93.6097 33.3872 93.2814 33.5767C92.9531 33.7662 92.6422 34.2384 92.3945 34.8202C92.1469 35.4021 92.072 36.0305 91.9511 36.8319C92.0029 37.6797 92.0087 38.7005 92.36 39.8144C92.7286 41.2109 93.1432 42.4345 93.6961 43.1394C94.2029 44.0172 94.8019 44.5492 95.3835 44.7986C95.9652 45.048 96.5929 45.1245 97.2034 44.9183C97.8138 44.7122 98.4243 44.506 98.9541 43.9075C99.5473 43.4187 99.9504 42.6008 100.054 41.5168L100.509 41.5468C100.544 42.112 100.296 42.6939 100.048 43.2758C99.8007 43.8576 99.4436 44.5027 98.8505 44.9915C98.2573 45.4802 97.6008 45.8593 96.7081 46.0821C95.706 46.368 94.7328 46.1984 93.6961 45.9191C92.6595 45.6398 91.8878 45.0612 91.2082 44.1369C90.5286 43.2125 89.9585 42.225 89.5899 40.8285C89.2213 39.432 89.2616 38.2383 89.4747 37.0912C89.6878 35.9441 90.137 34.9532 90.8856 34.2284C91.6343 33.5035 93.0107 32.8552 94.1856 32.6158Z" fill="#376CBB"/>
<path d="M110.657 30.5676C111.112 30.5975 111.567 30.6274 111.913 30.7205C112.258 30.8136 112.558 31.0796 112.748 31.4088C112.938 31.738 113.065 31.9574 113.145 32.3498C113.226 32.7421 113.024 33.1511 112.759 33.4504C112.494 33.7496 112.166 33.9391 111.775 34.0189C111.492 34.0355 111.147 33.9424 110.847 33.6764C110.548 33.4104 110.421 33.191 110.45 32.7355C110.433 32.4528 110.525 32.107 110.68 31.871C110.836 31.6349 110.991 31.3988 111.21 31.2725C111.084 31.053 110.911 31.0065 110.629 31.0231C109.891 31.0098 109.344 31.3257 108.814 31.9242C108.285 32.5226 107.928 33.1677 107.743 33.8593C107.45 34.6141 107.375 35.2425 107.473 35.9175L107.801 41.2874C107.853 42.1352 108.17 42.6839 108.578 42.8867C109.051 43.1993 109.788 43.2126 110.525 43.2259L110.56 43.7911C110.105 43.7612 109.65 43.7313 108.976 43.8277C108.239 43.8144 107.565 43.9108 106.718 43.9607C106.154 43.9939 105.589 44.0272 105.025 44.0604C104.461 44.0937 104.069 44.1734 103.787 44.1901L103.752 43.6248C104.426 43.5284 104.927 43.3854 105.255 43.1959C105.584 43.0064 105.659 42.378 105.561 41.703L105.077 33.7895C105.088 33.0513 104.881 32.4395 104.582 32.1735C104.219 31.7978 103.7 31.6581 103.027 31.7545L102.992 31.1893C103.556 31.156 104.011 31.186 104.576 31.1527C105.031 31.1827 105.532 31.0397 105.923 30.9599C106.315 30.8801 106.816 30.7371 107.144 30.5476L107.334 33.6565C107.38 33.4836 107.691 33.0114 107.939 32.4295C108.25 31.9574 108.67 31.4221 109.108 31.1694C109.546 30.9167 110.093 30.6008 110.657 30.5676Z" fill="#376CBB"/>
<path d="M122.533 31.1728C123.961 31.3723 125.124 31.871 125.867 32.9051C126.61 33.9392 126.869 35.3989 126.645 37.2842L117.747 36.2766L117.776 35.8211L124.226 36.6324C124.347 35.8311 124.358 35.093 124.37 34.3548C124.272 33.6798 124.064 33.068 123.811 32.6291C123.558 32.1902 123.085 31.8777 122.458 31.8012C121.657 31.6782 121.001 32.0572 120.252 32.7821C119.613 33.4437 119.008 34.6707 118.766 36.2733L118.829 36.383C118.783 36.5559 118.691 36.9017 118.709 37.1844C118.616 37.5302 118.634 37.8128 118.651 38.0954C118.547 39.1794 118.553 40.2001 118.887 41.0314C119.112 41.9258 119.601 42.521 120.091 43.1162C120.69 43.6482 121.271 43.8976 121.899 43.974C122.7 44.0971 123.373 44.0007 124.03 43.6216C124.75 43.3523 125.28 42.7538 125.902 41.8095L126.374 42.122C126.126 42.7039 125.815 43.1761 125.331 43.6017C124.848 44.0273 124.255 44.516 123.644 44.7222C122.924 44.9915 122.25 45.0879 121.45 44.9649C120.194 44.8119 119.267 44.4695 118.432 43.7812C117.597 43.0929 117.09 42.2151 116.693 41.2741C116.405 40.27 116.272 39.0297 116.422 37.7729C116.618 36.3431 117.05 35.0696 117.609 34.0156C118.167 32.9616 118.916 32.2368 119.855 31.8411C120.384 31.2426 121.45 31.0664 122.533 31.1728Z" fill="#376CBB"/>
<path d="M131.245 46.7704C130.209 46.4911 129.5 46.0223 129.23 45.3007C128.959 44.5792 128.861 43.9042 129.201 42.9766C129.385 42.285 129.696 41.8128 130.243 41.4969C130.79 41.1811 131.228 40.9284 131.902 40.8319C132.575 40.7355 133.14 40.7023 133.814 40.6059C134.487 40.5094 135.115 40.5859 135.68 40.5527C136.244 40.5194 136.745 40.3765 137.137 40.2967C137.528 40.2169 137.793 39.9176 137.885 39.5718L138.173 37.7963C138.358 37.1047 138.496 36.586 138.352 36.0839C138.208 35.5818 138.081 35.3623 137.782 35.0963C137.482 34.8303 137.137 34.7372 136.728 34.5344C136.382 34.4413 135.864 34.3017 135.409 34.2717C134.954 34.2418 134.453 34.3848 134.125 34.5743C134.361 34.7306 134.66 34.9966 134.85 35.3258C135.04 35.6549 134.948 36.0007 134.919 36.4563C134.827 36.8021 134.562 37.1013 134.234 37.2908C133.906 37.4804 133.56 37.3872 133.105 37.3573C132.587 37.2177 132.287 36.9517 132.207 36.5593C132.126 36.167 132.046 35.7746 132.138 35.4288C132.339 35.0198 132.431 34.674 132.76 34.4845C133.088 34.295 133.416 34.1055 133.808 34.0257C134.309 33.8827 134.81 33.7397 135.438 33.8162C136.065 33.8927 136.803 33.906 137.557 34.2019C138.248 34.3881 138.72 34.7007 139.193 35.0132C139.665 35.3258 139.964 35.5918 140.108 36.0939C140.425 36.6425 140.569 37.1446 140.494 37.773C140.419 38.4014 140.344 39.0298 140.051 39.7846L137.972 46.5443C137.88 46.8901 137.787 47.2359 137.914 47.4554C138.041 47.6749 138.104 47.7846 138.45 47.8777C138.623 47.9242 138.905 47.9076 139.077 47.9542C139.296 47.8278 139.469 47.8744 139.688 47.748L139.832 48.2501C139.44 48.3299 139.003 48.5826 138.72 48.5992C138.329 48.679 137.874 48.6491 137.465 48.4462C136.601 48.2135 136.175 47.728 136.031 47.226C135.887 46.7239 135.852 46.1586 136.1 45.5768C135.351 46.3016 134.522 46.6341 133.848 46.7305C133.174 46.8269 131.936 46.9566 131.245 46.7704ZM132.622 46.122C133.14 46.2617 133.595 46.2916 134.205 46.0855C134.816 45.8793 135.363 45.5635 135.956 45.0747L137.419 40.28C137.044 40.6425 136.653 40.7222 136.088 40.7555C135.524 40.7887 134.96 40.822 134.286 40.9184C133.612 41.0148 133.111 41.1578 132.564 41.4737C132.017 41.7895 131.596 42.3249 131.476 43.1262C131.182 43.881 131.216 44.4462 131.533 44.9948C131.74 45.6067 132.04 45.8727 132.622 46.122Z" fill="#376CBB"/>
<path d="M151.84 36.1972L149.917 39.9411L153.251 41.6735L153.05 42.0825L149.715 40.3501L145.327 49.1746C144.97 49.8197 144.895 50.4481 144.975 50.8405C145.056 51.2328 145.419 51.6086 145.828 51.8114C146.237 52.0142 146.692 52.0441 147.302 51.838C147.803 51.695 148.396 51.2062 149.082 50.3717L149.444 50.7474C148.869 51.5188 148.229 52.1805 147.4 52.513C146.634 52.9552 145.834 52.8322 144.843 52.38C144.371 52.0674 143.962 51.8646 143.662 51.5986C143.363 51.3326 143.173 51.0034 143.092 50.611C142.948 50.109 142.914 49.5437 143.052 49.025C143.19 48.5063 143.374 47.8147 143.778 46.9968L147.734 39.4457L145.517 38.385L145.718 37.976L147.936 39.0367L149.704 35.5288C150.112 35.7317 150.458 35.8248 150.867 36.0276C151.212 36.1207 151.495 36.1041 151.84 36.1972Z" fill="#376CBB"/>
<path d="M161.889 46.7806C163.133 47.6717 163.767 48.769 163.836 49.8995C163.968 51.1397 163.427 52.4764 162.448 54.0657L155.22 48.8753L155.422 48.4664L160.697 52.2968C161.227 51.6983 161.584 51.0533 161.878 50.2985C162.235 49.6534 162.31 49.025 162.275 48.4598C162.241 47.8945 161.987 47.4556 161.515 47.1431C160.916 46.611 160.069 46.6609 159.177 46.8837C158.175 47.1696 157.207 48.0208 156.148 49.2178L156.211 49.3275C156.055 49.5636 155.837 49.69 155.681 49.926C155.526 50.1621 155.37 50.3982 155.105 50.6974C154.483 51.6417 153.971 52.5229 153.804 53.4971C153.573 54.3616 153.625 55.2095 153.896 55.931C154.167 56.6525 154.483 57.2012 155.019 57.6234C155.554 58.0457 156.309 58.3416 157.046 58.3549C157.783 58.3683 158.566 58.2087 159.442 57.7033L159.695 58.1422C159.148 58.458 158.71 58.7107 157.991 58.9801C157.38 59.1862 156.643 59.1729 156.015 59.0964C155.387 59.0199 154.633 58.724 153.925 58.2552C152.917 57.5203 152.301 56.7057 151.903 55.7647C151.506 54.8238 151.5 53.803 151.604 52.719C151.817 51.5719 152.266 50.581 152.997 49.5736C153.884 48.33 154.852 47.4788 155.837 46.9103C156.821 46.3417 157.823 46.0557 158.843 46.0524C160.018 45.813 160.945 46.1555 161.889 46.7806Z" fill="#376CBB"/>
<path d="M166.647 69.9294C165.968 69.0051 165.697 68.2835 165.818 67.4822C166.002 66.7906 166.359 66.1456 167.062 65.5936C167.655 65.1048 168.156 64.9619 168.721 64.9286C169.285 64.8954 169.803 65.035 170.385 65.2844C170.967 65.5338 171.439 65.8464 172.084 66.2055C172.556 66.518 173.092 66.9403 173.673 67.1897C174.146 67.5022 174.554 67.7051 175.073 67.8447C175.418 67.9378 175.81 67.858 176.138 67.6685L177.325 66.6909C177.918 66.2022 178.292 65.8397 178.384 65.4939C178.586 65.085 178.568 64.8023 178.488 64.41C178.407 64.0176 178.217 63.6885 177.854 63.3127C177.664 62.9836 177.301 62.6078 176.893 62.405C176.53 62.0293 176.075 61.9993 175.62 61.9694C175.81 62.2986 175.827 62.5812 175.735 62.927C175.643 63.2728 175.487 63.5089 175.113 63.8713C174.785 64.0608 174.457 64.2504 174.111 64.1573C173.765 64.0642 173.529 63.9079 173.166 63.5322C172.913 63.0933 172.723 62.7641 172.925 62.3551C173.017 62.0093 173.282 61.7101 173.547 61.4108C173.875 61.2213 174.203 61.0318 174.658 61.0617C174.94 61.0451 175.395 61.075 175.804 61.2778C176.213 61.4806 176.731 61.6203 177.267 62.0426C177.803 62.4649 178.338 62.8871 178.718 63.5455C179.144 64.0309 179.461 64.5796 179.605 65.0817C179.749 65.5837 179.83 65.9761 179.801 66.4316C179.726 67.06 179.588 67.5787 179.104 68.0043C178.62 68.4299 178.2 68.9653 177.607 69.454L172.032 73.6967C171.704 73.8862 171.548 74.1223 171.393 74.3584C171.347 74.5313 171.364 74.8139 171.491 75.0333C171.617 75.2528 171.79 75.2994 172.026 75.4556C172.262 75.6119 172.435 75.6585 172.608 75.705L172.47 76.2237C172.061 76.0209 171.606 75.991 171.37 75.8347C171.134 75.6784 170.661 75.3658 170.408 74.9269C169.855 74.222 169.648 73.6102 169.959 73.1381C170.097 72.6194 170.471 72.257 170.955 71.8314C169.89 72.0076 169.026 71.7748 168.381 71.4157C167.672 70.9469 167.137 70.5246 166.647 69.9294ZM168.139 70.2387C168.502 70.6144 168.865 70.9901 169.383 71.1298C169.965 71.3792 170.592 71.4556 171.375 71.296L175.326 68.2836C174.871 68.2537 174.416 68.2237 173.944 67.9112C173.472 67.5986 172.89 67.3493 172.418 67.0367C171.836 66.7873 171.255 66.5379 170.69 66.5712C170.062 66.4947 169.452 66.7009 168.749 67.2528C168.156 67.7416 167.845 68.2137 167.707 68.7324C167.678 69.188 167.822 69.69 168.139 70.2387Z" fill="#376CBB"/>
<path d="M195.7 80.0742L178.423 86.5379C178.187 86.3816 177.951 86.2253 177.605 86.1322C177.369 85.976 177.133 85.8197 176.788 85.7266C176.551 85.5703 176.315 85.414 175.97 85.3209L175.999 84.8654C176.281 84.8488 176.563 84.8322 176.672 84.769C176.782 84.7058 177.173 84.626 177.392 84.4997L191.899 79.0501C192.619 78.7808 193.057 78.5281 193.368 78.0559C193.679 77.5838 193.598 77.1914 193.327 76.4699L193.938 76.2637C194.082 76.7658 194.226 77.2679 194.37 77.77C194.514 78.272 194.767 78.7109 194.957 79.0401C195.147 79.3693 195.401 79.8082 195.7 80.0742ZM190.966 86.0259C191.554 87.2961 191.404 88.5529 190.69 89.843C189.976 91.1331 188.507 92.1273 186.348 92.9353C184.908 93.4739 183.67 93.6036 182.478 93.5603C181.285 93.5171 180.404 93.0017 179.633 92.4232C178.861 91.8446 178.245 91.03 177.957 90.0258C177.623 89.1946 177.571 88.3467 177.801 87.4822C178.032 86.6177 178.435 85.7997 179.183 85.0749L179.108 85.7033C178.579 86.3018 178.394 86.9934 178.21 87.685C178.135 88.3135 178.124 89.0516 178.44 89.6002C178.901 90.6509 179.563 91.2927 180.819 91.4456C181.965 91.6618 183.531 91.3426 185.582 90.5978C186.912 90.1223 187.897 89.5537 188.663 89.1115C189.365 88.5596 189.959 88.0708 190.206 87.4889C190.454 86.9071 190.529 86.2786 190.258 85.5571C189.987 84.8356 189.388 84.3036 188.571 83.8979C187.753 83.4923 186.561 83.449 185.276 83.7516L185.478 83.3426C186.872 82.9769 188.127 83.1298 189.118 83.582C189.889 84.1606 190.615 84.9121 190.966 86.0259Z" fill="#376CBB"/>
<path d="M200.786 97.474L183.664 100.922C182.991 101.018 182.553 101.271 182.351 101.68C182.15 102.089 182.121 102.545 182.219 103.22L181.655 103.253C181.637 102.97 181.557 102.578 181.459 101.903C181.424 101.338 181.217 100.726 181.182 100.161C181.038 99.6584 180.94 98.9835 180.796 98.4814C180.653 97.9793 180.509 97.4772 180.491 97.1946L180.992 97.0516C181.09 97.7266 181.344 98.1655 181.643 98.4315C181.943 98.6975 182.397 98.7274 183.181 98.5678L197.342 95.8048C198.125 95.6453 198.563 95.3926 198.937 95.0301C199.202 94.7309 199.341 94.2122 199.179 93.4275L199.68 93.2845C199.715 93.8498 199.859 94.3518 199.893 94.9171C200.037 95.4192 200.118 95.8115 200.262 96.3136C200.406 96.8157 200.596 97.1448 200.786 97.474Z" fill="#376CBB"/>
<path d="M195.811 110.588C195.88 111.718 195.649 112.583 195.2 113.574C194.797 114.392 194.048 115.116 193.064 115.685C192.079 116.254 190.794 116.556 189.211 116.593C187.627 116.629 186.199 116.43 185.208 115.977C184.218 115.525 183.383 114.837 182.876 113.959C182.369 113.081 182.144 112.187 182.075 111.056C182.069 110.036 182.236 109.061 182.686 108.071C183.135 107.08 183.837 106.528 184.822 105.959C185.807 105.391 187.091 105.088 188.675 105.052C190.259 105.015 191.687 105.214 192.678 105.667C193.668 106.119 194.503 106.807 195.01 107.685C195.517 108.563 195.741 109.457 195.811 110.588ZM195.246 110.621C195.24 109.6 194.688 108.895 193.634 108.333C192.58 107.771 190.979 107.525 188.721 107.658C186.464 107.791 184.897 108.111 183.976 108.789C183.054 109.467 182.478 110.239 182.594 111.196C182.709 112.154 183.152 112.922 184.206 113.484C185.26 114.046 186.861 114.292 189.119 114.159C191.376 114.026 192.943 113.707 193.973 112.965C194.785 112.35 195.361 111.579 195.246 110.621Z" fill="#376CBB"/>
<path d="M177.14 122.977C177.261 122.175 177.491 121.311 177.785 120.556C178.078 119.801 178.499 119.266 178.983 118.84C179.466 118.415 179.967 118.272 180.595 118.348C181.223 118.425 181.695 118.737 182.012 119.286C182.329 119.834 182.599 120.556 182.651 121.404L182.087 121.437C182.006 121.045 181.816 120.716 181.517 120.45C181.217 120.184 180.808 119.981 180.353 119.951C179.553 119.828 178.942 120.034 178.476 120.742C177.946 121.341 177.606 122.268 177.393 123.415C177.272 124.217 177.261 124.955 177.359 125.63C177.457 126.305 177.727 127.026 178.044 127.575C178.361 128.124 179.006 128.483 179.633 128.559C180.152 128.699 180.653 128.556 181.027 128.194C181.401 127.831 181.759 127.186 181.908 125.929L182.196 124.154C182.334 123.635 182.473 123.116 182.611 122.598C182.749 122.079 183.014 121.78 183.279 121.48C183.544 121.181 184.045 121.038 184.563 121.178C185.191 121.254 185.663 121.567 186.153 122.162C186.642 122.757 187.04 123.698 187.345 124.985L187.08 125.284C186.873 124.672 186.665 124.061 186.412 123.622C186.158 123.183 185.859 122.917 185.404 122.887C184.886 122.747 184.511 123.11 184.39 123.911L183.843 127.007C183.676 127.981 183.337 128.908 182.697 129.57C182.121 130.341 181.229 130.564 180.255 130.395C179.455 130.272 178.81 129.913 178.148 129.271C177.485 128.629 177.151 127.798 176.863 126.794C176.858 125.773 176.835 124.469 177.14 122.977ZM187.109 124.829C187.258 123.572 187.771 122.691 188.566 121.793C189.314 121.068 190.426 120.719 191.745 120.982C193.173 121.181 194.117 121.806 194.515 122.747C195.022 123.625 195.091 124.756 194.941 126.012C194.791 127.269 194.279 128.15 193.484 129.048C192.735 129.773 191.733 130.059 190.305 129.859C188.986 129.597 187.932 129.035 187.535 128.094C187.074 127.043 186.896 125.976 187.109 124.829ZM187.564 124.859C187.489 125.487 187.633 125.989 188.059 126.475C188.485 126.96 189.349 127.193 190.668 127.455C191.987 127.718 192.943 127.605 193.553 127.399C194.1 127.083 194.411 126.611 194.549 126.092C194.624 125.464 194.48 124.962 194.054 124.476C193.628 123.991 192.701 123.648 191.445 123.495C190.126 123.233 189.17 123.346 188.623 123.662C187.949 123.758 187.638 124.23 187.564 124.859ZM192.309 129.288L192.511 128.879C192.983 129.191 193.409 129.677 193.789 130.335C194.169 130.993 194.204 131.559 194.129 132.187C194.1 132.642 193.835 132.942 193.57 133.241C193.242 133.43 192.85 133.51 192.396 133.48C191.877 133.341 191.532 133.248 191.342 132.918C191.152 132.589 191.134 132.307 191.117 132.024C191.1 131.741 191.255 131.505 191.474 131.379C191.693 131.253 192.021 131.063 192.367 131.156C192.822 131.186 193.231 131.389 193.766 131.811L193.674 132.157C193.513 131.372 193.369 130.87 193.006 130.495C193.144 129.976 192.781 129.6 192.309 129.288Z" fill="#376CBB"/>
<path d="M188.186 148.932L178.171 144.473C177.526 144.114 177.071 144.084 176.633 144.336C176.305 144.526 175.931 144.888 175.683 145.47L175.274 145.267C175.43 145.031 175.631 144.622 175.879 144.04C176.127 143.459 176.438 142.986 176.576 142.468C176.823 141.886 177.025 141.477 177.273 140.895C177.52 140.313 177.612 139.967 177.705 139.622L178.113 139.824C177.866 140.406 177.728 140.925 177.808 141.317C177.889 141.71 178.361 142.022 178.943 142.272L186.222 145.53C186.977 145.826 187.495 145.966 187.887 145.886C188.278 145.806 188.652 145.444 188.946 144.689L189.355 144.892C189.044 145.364 188.843 145.773 188.704 146.292C188.503 146.701 188.365 147.219 188.163 147.628C188.307 148.13 188.105 148.539 188.186 148.932ZM194.152 150.169C193.951 150.578 193.686 150.877 193.185 151.02C192.684 151.163 192.402 151.179 191.993 150.977C191.584 150.774 191.284 150.508 191.14 150.006C190.996 149.504 190.979 149.221 191.181 148.812C191.382 148.403 191.647 148.104 192.148 147.961C192.649 147.818 192.931 147.801 193.34 148.004C193.749 148.207 194.049 148.473 194.193 148.975C194.383 149.304 194.354 149.76 194.152 150.169Z" fill="#376CBB"/>
<path d="M181.027 161.55C180.607 162.085 180.296 162.557 179.968 162.747C179.64 162.937 179.202 163.189 178.81 163.269C178.419 163.349 177.854 163.382 177.382 163.07C176.864 162.93 176.219 162.571 175.51 162.102L169.843 158.351C169.308 157.929 168.789 157.789 168.398 157.869C168.006 157.949 167.632 158.311 167.275 158.956L166.803 158.644C166.958 158.408 167.223 158.109 167.643 157.573C167.954 157.101 168.265 156.629 168.576 156.157C168.887 155.685 169.198 155.212 169.4 154.803C169.601 154.395 169.803 153.986 169.959 153.749L170.431 154.062C170.12 154.534 169.982 155.053 169.999 155.336C170.079 155.728 170.442 156.104 170.978 156.526L177.117 160.589C177.589 160.902 177.998 161.104 178.407 161.307C178.816 161.51 179.271 161.54 179.663 161.46C180.054 161.38 180.428 161.018 180.739 160.546C181.361 159.602 181.419 158.691 181.131 157.686C180.67 156.636 180.054 155.821 178.874 155.04L174.151 151.914C173.615 151.492 173.097 151.352 172.706 151.432C172.314 151.512 172.049 151.811 171.738 152.283L171.266 151.971C171.421 151.735 171.686 151.435 171.997 150.963C172.308 150.491 172.619 150.019 172.994 149.656C173.304 149.184 173.615 148.712 173.926 148.24C174.237 147.768 174.439 147.359 174.595 147.123L175.067 147.435C174.646 147.971 174.508 148.489 174.589 148.882C174.669 149.274 174.923 149.713 175.568 150.072L182.179 154.448C182.824 154.807 183.406 155.056 183.797 154.976C184.189 154.897 184.627 154.644 185.157 154.045L185.629 154.358C185.318 154.83 184.944 155.193 184.742 155.602C184.54 156.011 184.229 156.483 184.028 156.892C183.826 157.301 183.625 157.71 183.533 158.055L181.108 156.383C181.851 157.417 182.076 158.311 182.018 159.223C181.96 160.134 181.494 160.842 181.027 161.55Z" fill="#376CBB"/>
<path d="M164.972 178.72C164.05 179.398 163.112 179.794 162.265 179.844C161.418 179.894 160.601 179.488 159.984 178.674C159.432 177.969 159.161 177.247 159.109 176.399C159.057 175.551 159.115 174.64 159.172 173.729C159.339 172.755 159.397 171.844 159.564 170.87C159.731 169.896 159.852 169.094 159.691 168.31L155.694 171.495C155.21 171.92 154.836 172.283 154.853 172.566C154.87 172.848 154.951 173.241 155.141 173.57L154.876 173.869C154.323 173.164 153.897 172.679 153.534 172.303C153.172 171.927 152.981 171.598 152.682 171.332C152.901 171.206 153.339 170.953 153.932 170.464C154.525 169.975 155.118 169.487 155.711 168.998L160.301 165.324L160.601 165.59C160.589 166.328 160.468 167.129 160.301 168.103C160.134 169.078 160.077 169.989 159.973 171.073C159.979 172.093 159.984 173.114 160.209 174.009C160.434 174.903 160.831 175.844 161.447 176.659C162.063 177.473 162.709 177.832 163.273 177.799C163.901 177.876 164.511 177.669 165.104 177.181C165.588 176.755 166.008 176.22 166.193 175.528C166.377 174.837 166.389 174.098 166.273 173.141L166.665 173.061C166.89 173.955 166.832 174.867 166.665 175.841C166.734 176.971 166.112 177.916 164.972 178.72Z" fill="#376CBB"/>
<path d="M150.971 187.827C149.986 188.396 148.811 188.635 147.729 188.529C146.646 188.422 145.719 188.08 144.774 187.455C143.83 186.83 143.15 185.905 142.453 184.698C141.756 183.491 141.515 182.314 141.555 181.121C141.595 179.927 141.808 178.78 142.43 177.836C142.989 176.781 143.847 175.993 145.004 175.471C145.989 174.903 147.055 174.727 148.137 174.833C149.22 174.939 150.257 175.219 151.092 175.907C152.036 176.532 152.825 177.393 153.413 178.664C154.109 179.871 154.351 181.048 154.311 182.241C154.271 183.435 154.058 184.582 153.436 185.526C152.814 186.471 152.128 187.305 150.971 187.827ZM151 187.372C151.984 186.803 152.497 185.922 152.583 184.555C152.67 183.189 152.238 181.683 151.27 179.754C150.62 178.374 149.877 177.34 149.105 176.762C148.443 176.12 147.625 175.714 146.888 175.701C146.087 175.578 145.477 175.784 144.866 175.99C143.881 176.559 143.369 177.44 143.282 178.806C143.196 180.173 143.628 181.679 144.596 183.608C145.246 184.988 145.989 186.022 146.761 186.6C147.533 187.179 148.241 187.648 148.869 187.724C149.669 187.847 150.343 187.751 151 187.372Z" fill="#376CBB"/>
<path d="M107.646 197.187C107.082 197.22 106.563 197.081 106.045 196.941C105.527 196.801 105.227 196.535 104.928 196.269C104.565 195.894 104.375 195.564 104.277 194.889C104.133 194.387 104.145 193.649 104.156 192.911L104.133 186.048C104.145 185.31 104.001 184.808 103.701 184.542C103.402 184.276 102.883 184.136 102.21 184.233L102.175 183.667C102.457 183.651 102.912 183.681 103.54 183.757C104.104 183.724 104.732 183.801 105.296 183.767C105.861 183.734 106.425 183.701 106.88 183.731C107.444 183.697 107.836 183.618 108.009 183.664L108.043 184.229C107.479 184.263 106.978 184.406 106.822 184.642C106.558 184.941 106.529 185.397 106.454 186.025L106.448 193.343C106.483 193.909 106.454 194.364 106.535 194.756C106.615 195.149 106.696 195.541 106.995 195.807C107.295 196.073 107.704 196.276 108.268 196.243C109.287 196.239 110.053 195.797 110.739 194.963C111.424 194.128 111.637 192.981 111.723 191.614L111.752 193.939C111.257 195.102 110.681 195.874 109.915 196.316C109.149 196.758 108.493 197.137 107.646 197.187ZM115.173 197.084C114.609 197.117 114.09 196.978 113.572 196.838C113.163 196.635 112.754 196.432 112.455 196.166C112.092 195.791 111.902 195.461 111.804 194.786C111.66 194.284 111.672 193.546 111.683 192.808L111.723 186.055C111.735 185.317 111.591 184.815 111.292 184.549C110.992 184.283 110.474 184.143 109.8 184.239L109.765 183.674C110.048 183.658 110.503 183.687 111.13 183.764C111.695 183.731 112.322 183.807 112.887 183.774C113.451 183.741 114.016 183.707 114.47 183.737C115.035 183.704 115.426 183.624 115.599 183.671L115.634 184.236C115.069 184.269 114.568 184.412 114.413 184.648C114.148 184.948 114.119 185.403 114.044 186.032L114.039 193.35C114.073 193.915 114.044 194.371 114.125 194.763C114.206 195.155 114.286 195.548 114.586 195.814C114.885 196.08 115.294 196.283 115.858 196.249C116.596 196.263 117.097 196.12 117.58 195.694C118.064 195.269 118.485 194.733 118.778 193.978C119.072 193.224 119.256 192.532 119.204 191.684L119.141 186.015C119.153 185.277 119.009 184.775 118.772 184.619C118.473 184.353 118.127 184.259 117.5 184.183L117.465 183.618C117.747 183.601 118.093 183.694 118.657 183.661C119.222 183.628 119.677 183.658 120.304 183.734C120.869 183.701 121.433 183.668 122.061 183.744C122.625 183.711 123.08 183.741 123.362 183.724L123.397 184.289C122.66 184.276 122.159 184.419 121.894 184.718C121.629 185.018 121.427 185.427 121.416 186.165L121.445 194.048C121.433 194.786 121.641 195.398 121.831 195.727C122.084 196.166 122.602 196.306 123.339 196.319L123.374 196.885C122.81 196.918 122.291 196.778 121.836 196.748C121.381 196.718 120.817 196.752 120.425 196.831C120.034 196.911 119.642 196.991 119.251 197.071L119.297 194.118C118.911 195.219 118.225 196.053 117.46 196.495C116.803 196.875 116.083 197.144 115.173 197.084Z" fill="#376CBB"/>
<path d="M93.8468 194.766L96.1389 184.08C96.3231 183.388 96.1792 182.886 95.9891 182.557C95.7991 182.228 95.2807 182.088 94.5897 181.902L94.7279 181.383C95.0734 181.476 95.419 181.569 95.9373 181.709C96.4556 181.849 97.0833 181.925 97.665 182.174C98.1833 182.314 98.811 182.391 99.3293 182.53C99.9571 182.607 100.303 182.7 100.648 182.793L100.51 183.312C99.8189 183.125 99.2545 183.159 98.9262 183.348C98.598 183.538 98.3964 183.947 98.2121 184.638L96.5305 192.339C96.3462 193.031 96.3808 193.596 96.5248 194.098C96.6688 194.6 97.1871 194.74 97.8782 194.926L97.7399 195.445C97.2216 195.305 96.7033 195.165 96.185 195.026C95.6667 194.886 95.2117 194.856 94.7568 194.826C94.584 194.78 94.3018 194.796 93.8468 194.766ZM93.8354 201.064C93.3804 201.034 93.0809 200.768 92.8275 200.329C92.5741 199.89 92.4935 199.498 92.5856 199.152C92.6144 198.696 92.8793 198.397 93.317 198.144C93.7547 197.892 94.1463 197.812 94.4919 197.905C94.8374 197.998 95.2463 198.201 95.4997 198.64C95.7531 199.079 95.8337 199.471 95.7416 199.817C95.7128 200.272 95.4479 200.572 95.0102 200.824C94.6819 201.014 94.2903 201.094 93.8354 201.064Z" fill="#376CBB"/>
<path d="M80.0999 190.414C79.5183 190.164 79.046 189.852 78.7465 189.586C78.3837 189.21 78.1937 188.881 78.0036 188.552C77.8596 188.05 77.779 187.657 77.9172 187.139C77.946 186.683 78.1303 185.991 78.5334 185.174L81.0386 178.899C81.2862 178.317 81.3611 177.689 81.171 177.36C80.981 177.031 80.6181 176.655 79.9271 176.469L80.0653 175.95C80.3014 176.106 80.7103 176.309 81.2286 176.449C81.7469 176.588 82.2192 176.901 82.8008 177.15C83.3191 177.29 83.7914 177.603 84.3097 177.742C84.828 177.882 85.2369 178.085 85.4097 178.131L85.2715 178.65C84.6898 178.401 84.2348 178.371 83.9066 178.56C83.5783 178.75 83.3134 179.049 83.0197 179.804L80.2669 186.66C80.1287 187.179 79.9271 187.587 79.8983 188.043C79.8695 188.499 79.8407 188.954 80.0308 189.283C80.2208 189.612 80.5837 189.988 81.102 190.128C82.0925 190.58 83.0485 190.467 84.0333 189.898C85.0181 189.33 85.6401 188.386 86.1354 187.222L88.2547 182.048C88.5023 181.466 88.5772 180.838 88.4505 180.618C88.2604 180.289 87.9609 180.023 87.3793 179.774L87.5175 179.255C87.7536 179.411 88.0991 179.504 88.5714 179.817C88.9803 180.02 89.5619 180.269 90.0803 180.409C90.5986 180.549 91.1802 180.798 91.7619 181.047C92.3436 181.297 92.6891 181.39 93.0346 181.483L92.8964 182.002C92.3148 181.752 91.687 181.676 91.3588 181.865C90.9672 181.945 90.6562 182.417 90.4085 182.999L87.5176 190.374C87.2239 191.129 87.0856 191.647 87.2296 192.149C87.3102 192.542 87.6731 192.918 88.4275 193.213L88.2893 193.732C87.817 193.42 87.2987 193.28 86.8898 193.077C86.4809 192.874 85.9626 192.735 85.6171 192.642C85.1621 192.612 84.7532 192.409 84.3616 192.489L85.4904 189.642C84.6956 190.54 83.8203 191.046 82.8643 191.159C81.7643 190.77 80.8544 190.71 80.0999 190.414Z" fill="#376CBB"/>
<path d="M61.7055 179.528L67.6315 170.839C67.9885 170.194 68.2995 169.722 68.2649 169.157C68.2937 168.701 67.9309 168.326 67.332 167.794L67.643 167.322C68.0058 167.697 68.478 168.01 68.8869 168.213C69.2958 168.415 69.6586 168.791 70.0675 168.994C70.4764 169.197 70.8853 169.4 71.2308 169.493L69.5665 171.917C70.4879 171.238 71.49 170.952 72.3999 171.012C73.3099 171.072 74.0643 171.368 74.7727 171.837C75.2449 172.149 75.6077 172.525 75.8611 172.964C76.1145 173.403 76.3046 173.732 76.3852 174.125C76.4658 174.517 76.3276 175.036 76.1894 175.554C76.0512 176.073 75.6308 176.608 75.1643 177.317L71.6341 182.573C71.277 183.218 70.966 183.691 71.0006 184.256C70.9718 184.711 71.3346 185.087 71.9336 185.619L71.6226 186.091C71.2597 185.715 70.7875 185.403 70.3786 185.2C69.9697 184.997 69.6069 184.622 69.198 184.419C68.7891 184.216 68.3802 184.013 68.0347 183.92L73.6497 175.704C73.9607 175.232 74.1622 174.823 74.3638 174.414C74.5654 174.005 74.6575 173.659 74.5769 173.267C74.4962 172.874 74.1968 172.608 73.6612 172.186C72.8895 171.607 71.9795 171.548 70.868 171.897C69.866 172.183 69.0079 172.971 68.2765 173.978L65.3682 178.291C65.0112 178.936 64.7002 179.408 64.7347 179.973C64.7059 180.429 65.0688 180.804 65.6677 181.336L65.3567 181.809C64.9939 181.433 64.5217 181.12 64.1128 180.917C63.7039 180.715 63.341 180.339 62.9322 180.136C62.4599 179.823 62.1144 179.73 61.7055 179.528Z" fill="#376CBB"/>
<path d="M51.3795 175.541L54.3108 172.532L51.5983 169.855L51.9726 169.493L54.6851 172.169L61.6247 165.237C62.1546 164.638 62.4655 164.166 62.4943 163.711C62.5231 163.255 62.3331 162.926 61.9703 162.55C61.6074 162.174 61.0891 162.035 60.6342 162.005C60.0698 162.038 59.3499 162.307 58.4745 162.813L58.2211 162.374C59.0331 161.759 59.8624 161.426 60.6457 161.267C61.4289 161.107 62.2467 161.513 62.909 162.154C63.2718 162.53 63.6346 162.906 63.7152 163.298C63.9053 163.627 63.9859 164.02 63.9571 164.475C63.9917 165.041 63.8535 165.559 63.5425 166.031C63.2315 166.504 62.8111 167.039 62.1719 167.701L56.1998 173.782L57.9505 175.551L57.5762 175.913L55.8254 174.144L53.0496 176.917C52.7501 176.651 52.4507 176.385 52.1512 176.119C52.0245 175.9 51.725 175.634 51.3795 175.541Z" fill="#376CBB"/>
<path d="M45.189 162.291C44.3193 161.037 43.968 159.923 44.2905 158.713C44.613 157.503 45.3905 156.322 46.9685 155.265L52.1689 162.503L51.7946 162.866L48.0166 157.586C47.2507 158.028 46.8303 158.563 46.2371 159.052C45.8167 159.587 45.3963 160.123 45.3214 160.751C45.2465 161.38 45.3272 161.772 45.6439 162.321C46.1334 162.916 46.7785 163.275 47.7978 163.271C48.8172 163.268 50.0381 162.856 51.3972 161.925L51.4433 161.752C51.6621 161.626 51.881 161.499 52.2092 161.31C52.4281 161.183 52.7563 160.994 52.9118 160.758C53.8333 160.08 54.5819 159.355 54.9851 158.537C55.3882 157.719 55.6819 156.964 55.6934 156.226C55.7049 155.488 55.4976 154.876 55.1808 154.327C54.6913 153.732 54.1557 153.31 53.5107 152.951C52.8657 152.592 52.0191 152.641 50.9537 152.818L50.8097 152.316C51.4202 152.109 51.9846 152.076 52.6123 152.153C53.24 152.229 53.9311 152.415 54.5128 152.665C55.1578 153.024 55.6934 153.446 56.2463 154.151C56.9892 155.185 57.3866 156.126 57.3923 157.147C57.3981 158.168 57.2311 159.142 56.6725 160.196C56.1139 161.25 55.3652 161.975 54.3343 162.716C53.0846 163.584 51.927 164.106 50.8156 164.455C49.7041 164.804 48.6214 164.698 47.6308 164.246C46.6402 163.794 45.8685 163.215 45.189 162.291Z" fill="#376CBB"/>
<path d="M37.9388 150.237C37.6221 149.689 37.5241 149.014 37.5529 148.558C37.5184 147.993 37.6105 147.647 37.5932 147.365C37.7775 146.673 37.3686 146.47 36.2572 146.819L35.9404 146.271C36.4414 146.128 36.8791 145.875 37.4896 145.669C38.1 145.463 38.866 145.021 39.9141 144.562L40.2309 145.11C39.6838 145.426 39.2 145.852 38.7796 146.387C38.3592 146.922 38.0482 147.395 37.9733 148.023C37.8351 148.542 37.9331 149.217 38.2037 149.938C38.5205 150.487 38.8833 150.863 39.2922 151.065C39.7011 151.268 40.2655 151.235 40.8759 151.029C41.3136 150.776 41.688 150.414 41.8895 150.005C42.0911 149.596 42.2293 149.077 42.3042 148.449C42.379 147.82 42.4539 147.192 42.5287 146.563C42.6324 145.479 42.9088 144.442 43.1392 143.577C43.3695 142.713 44.0088 142.051 45.0569 141.592C45.7135 141.213 46.3873 141.117 47.0783 141.303C47.7061 141.38 48.3511 141.739 48.7773 142.224C49.3129 142.647 49.693 143.305 50.0731 143.963C50.2631 144.292 50.3437 144.685 50.4704 144.904C50.5511 145.297 50.5684 145.579 50.5856 145.862C50.5396 146.035 50.5568 146.317 50.5108 146.49C50.4647 146.663 50.482 146.946 50.4359 147.119C50.3898 147.292 50.4532 147.401 50.6893 147.558C50.8621 147.604 51.1443 147.588 51.6453 147.445L51.9621 147.993C51.461 148.136 50.9139 148.452 50.0846 148.785C49.2553 149.117 48.4894 149.559 47.3318 150.081L47.0151 149.533C47.8904 149.027 48.4836 148.538 49.0134 147.94C49.6066 147.451 49.8542 146.869 50.1019 146.287C50.2401 145.769 50.0788 144.984 49.8082 144.262C49.5548 143.824 49.1919 143.448 48.7197 143.135C48.2474 142.823 47.5736 142.919 46.7443 143.252C46.0878 143.631 45.6041 144.056 45.4198 144.748C45.2355 145.44 45.1146 146.241 44.9475 147.215C44.936 147.953 44.7517 148.645 44.6769 149.273C44.602 149.902 44.3544 150.484 44.0434 150.956C43.7324 151.428 43.2487 151.853 42.7015 152.169C42.045 152.548 41.3712 152.645 40.8529 152.505C40.3346 152.365 39.7529 152.116 39.2807 151.804C38.6817 151.272 38.2556 150.786 37.9388 150.237Z" fill="#376CBB"/>
</svg>
