<svg width="23" height="20" viewBox="0 0 23 20" fill="none" xmlns="http://www.w3.org/2000/svg">
<path d="M7.21722 2.17392C7.21722 2.41407 7.02259 2.6087 6.78244 2.6087C6.54229 2.6087 6.34766 2.41407 6.34766 2.17392C6.34766 1.93377 6.54229 1.73914 6.78244 1.73914C7.02259 1.73914 7.21722 1.93377 7.21722 2.17392Z" fill="white"/>
<path d="M5.47845 2.17392C5.47845 2.41407 5.28382 2.6087 5.04367 2.6087C4.80352 2.6087 4.60889 2.41407 4.60889 2.17392C4.60889 1.93377 4.80352 1.73914 5.04367 1.73914C5.28382 1.73914 5.47845 1.93377 5.47845 2.17392Z" fill="white"/>
<path d="M3.73919 2.17392C3.73919 2.41407 3.54456 2.6087 3.30441 2.6087C3.06426 2.6087 2.86963 2.41407 2.86963 2.17392C2.86963 1.93377 3.06426 1.73914 3.30441 1.73914C3.54456 1.73914 3.73919 1.93377 3.73919 2.17392Z" fill="white"/>
<path d="M18.9566 6.08696H3.30441C3.06426 6.08696 2.86963 6.28159 2.86963 6.52174V9.13044C2.86963 9.37059 3.06426 9.56522 3.30441 9.56522H18.9566C19.1967 9.56522 19.3914 9.37059 19.3914 9.13044V6.52174C19.3914 6.28159 19.1967 6.08696 18.9566 6.08696ZM18.5218 8.69566H3.73919V6.95652H18.5218V8.69566Z" fill="white"/>
<path d="M11.1305 11.3044H3.30441C3.06426 11.3044 2.86963 11.499 2.86963 11.7391V16.9565C2.86963 17.1967 3.06426 17.3913 3.30441 17.3913H11.1305C11.3706 17.3913 11.5653 17.1967 11.5653 16.9565V11.7391C11.5653 11.499 11.3706 11.3044 11.1305 11.3044ZM10.6957 16.5217H3.73919V12.1739H10.6957V16.5217Z" fill="white"/>
<path d="M18.9564 11.3044H13.739C13.4988 11.3044 13.3042 11.499 13.3042 11.7391V16.9565C13.3042 17.1967 13.4988 17.3913 13.739 17.3913H18.9564C19.1965 17.3913 19.3912 17.1967 19.3912 16.9565V11.7391C19.3912 11.499 19.1965 11.3044 18.9564 11.3044ZM18.5216 16.5217H14.1738V12.1739H18.5216V16.5217Z" fill="white"/>
<path d="M11.5654 0.434783C11.5654 0.674932 11.3707 0.869565 11.1306 0.869565C10.8904 0.869565 10.6958 0.674932 10.6958 0.434783C10.6958 0.194633 10.8904 0 11.1306 0C11.3707 0 11.5654 0.194633 11.5654 0.434783Z" fill="white"/>
<path d="M20.9565 0H13.087C12.8468 0 12.6522 0.194633 12.6522 0.434783C12.6522 0.674932 12.8468 0.869565 13.087 0.869565H20.9565C21.1963 0.869565 21.3913 1.06454 21.3913 1.30435V3.47826H0.869565V1.30435C0.869565 1.06454 1.06454 0.869565 1.30435 0.869565H9.17391C9.41406 0.869565 9.6087 0.674932 9.6087 0.434783C9.6087 0.194633 9.41406 0 9.17391 0H1.30435C0.585088 0 0 0.585088 0 1.30435V18.6957C0 19.4149 0.585088 20 1.30435 20H20.9565C21.6758 20 22.2609 19.4149 22.2609 18.6957V1.30435C22.2609 0.585088 21.6758 0 20.9565 0ZM20.9565 19.1304H1.30435C1.06454 19.1304 0.869565 18.9355 0.869565 18.6957V4.34783H21.3913V18.6957C21.3913 18.9355 21.1963 19.1304 20.9565 19.1304Z" fill="white"/>
</svg>
