<svg width="21" height="20" viewBox="0 0 21 20" fill="none" xmlns="http://www.w3.org/2000/svg">
<path d="M20.5727 0H0.427348C0.19138 0 0 0.182267 0 0.406998V19.593C0 19.8177 0.19138 20 0.427348 20H17.5512C17.7872 20 17.9786 19.8177 17.9786 19.593C17.9786 19.3683 17.7872 19.186 17.5512 19.186H0.854695V0.813995H20.1453V19.593C20.1453 19.8177 20.3367 20 20.5727 20C20.8086 20 21 19.8177 21 19.593V0.406998C21 0.182267 20.8086 0 20.5727 0Z" fill="#898888"/>
<path d="M4.68748 4.23419C3.78414 4.23419 3.04932 4.93402 3.04932 5.79435C3.04932 6.65467 3.78414 7.35451 4.68748 7.35451C5.59082 7.35451 6.32565 6.65467 6.32565 5.79435C6.32565 4.93402 5.59082 4.23419 4.68748 4.23419ZM4.68748 6.54051C4.2555 6.54051 3.90401 6.20576 3.90401 5.79435C3.90401 5.38294 4.2555 5.04819 4.68748 5.04819C5.11946 5.04819 5.47095 5.38294 5.47095 5.79435C5.47095 6.20576 5.11953 6.54051 4.68748 6.54051Z" fill="#898888"/>
<path d="M17.5795 5.38733H7.60801C7.37204 5.38733 7.18066 5.5696 7.18066 5.79433C7.18066 6.01906 7.37204 6.20133 7.60801 6.20133H17.5795C17.8154 6.20133 18.0068 6.01906 18.0068 5.79433C18.0068 5.5696 17.8155 5.38733 17.5795 5.38733Z" fill="#898888"/>
<path d="M4.68748 8.43988C4.45151 8.43988 4.26013 8.62215 4.26013 8.84688C4.26013 9.07161 4.45151 9.25388 4.68748 9.25388C5.11946 9.25388 5.47095 9.58863 5.47095 10C5.47095 10.4114 5.11946 10.7462 4.68748 10.7462C4.2555 10.7462 3.90401 10.4114 3.90401 10C3.90401 9.77531 3.71263 9.59304 3.47666 9.59304C3.2407 9.59304 3.04932 9.77531 3.04932 10C3.04932 10.8604 3.78414 11.5602 4.68748 11.5602C5.59082 11.5602 6.32565 10.8604 6.32565 10C6.32565 9.13971 5.59082 8.43988 4.68748 8.43988Z" fill="#898888"/>
<path d="M17.5795 9.59302H7.60801C7.37204 9.59302 7.18066 9.77528 7.18066 10C7.18066 10.2247 7.37204 10.407 7.60801 10.407H17.5795C17.8154 10.407 18.0068 10.2247 18.0068 10C18.0068 9.77528 17.8155 9.59302 17.5795 9.59302Z" fill="#898888"/>
<path d="M4.68748 12.6455C3.78414 12.6455 3.04932 13.3454 3.04932 14.2057C3.04932 15.066 3.78414 15.7659 4.68748 15.7659C5.59082 15.7659 6.32565 15.066 6.32565 14.2057C6.32565 13.3454 5.59082 12.6455 4.68748 12.6455ZM4.68748 14.9519C4.2555 14.9519 3.90401 14.6171 3.90401 14.2057C3.90401 13.7943 4.2555 13.4595 4.68748 13.4595C5.11946 13.4595 5.47095 13.7943 5.47095 14.2057C5.47095 14.6171 5.11953 14.9519 4.68748 14.9519Z" fill="#898888"/>
<path d="M17.5795 13.7987H7.60801C7.37204 13.7987 7.18066 13.981 7.18066 14.2057C7.18066 14.4304 7.37204 14.6127 7.60801 14.6127H17.5795C17.8154 14.6127 18.0068 14.4304 18.0068 14.2057C18.0068 13.981 17.8155 13.7987 17.5795 13.7987Z" fill="#898888"/>
</svg>
