<svg width="16" height="19" viewBox="0 0 16 19" fill="none" xmlns="http://www.w3.org/2000/svg">
<path d="M11.3375 11.147L11.2883 11.1251C11.1707 11.0723 11.0523 11.0225 10.9315 10.9759C10.7998 10.9239 10.6662 10.8757 10.5306 10.8306C10.4236 10.796 10.3157 10.7636 10.2067 10.732C10.0407 10.6846 9.87302 10.6418 9.70036 10.604C9.64175 10.5921 9.58199 10.5805 9.52259 10.5701L9.48198 10.5623C9.38003 10.5426 9.27765 10.5253 9.17412 10.5103L9.14445 10.5056C9.14329 10.5056 9.1425 10.5049 9.14135 10.5049L9.11168 10.501C9.02571 10.4883 8.94017 10.4764 8.85105 10.4664L8.54786 10.4417C8.17512 10.4174 7.79102 10.4182 7.42259 10.4448L7.31517 10.4537L7.26513 10.4575L7.13971 10.4686C7.02444 10.4806 6.90997 10.4964 6.79549 10.5145L6.76187 10.5191C6.68375 10.5319 6.60556 10.5461 6.5286 10.5604C6.44306 10.5755 6.35861 10.592 6.27423 10.6101C6.11093 10.6463 5.94873 10.6876 5.79169 10.7327C5.66664 10.7681 5.54322 10.8071 5.42716 10.8464L5.34667 10.8749C5.10051 10.9609 4.85593 11.0595 4.61913 11.1678L4.55584 11.1975L4.55468 11.1991C1.78563 12.5064 0 15.2919 0 18.3144C0 18.3837 0.0046813 18.4519 0.00899779 18.5205L0.0297291 19H15.9695L15.991 18.5259C15.9957 18.4558 16 18.386 16 18.3144C16 15.2437 14.171 12.4336 11.3375 11.147ZM0.78171 18.2291C0.81533 15.5154 2.44192 13.026 4.92104 11.8793L5.00074 11.8485L5.0101 11.8396C5.20428 11.7521 5.40473 11.6724 5.60791 11.6018L5.67235 11.5791C5.78294 11.5413 5.8931 11.5067 6.00758 11.4747C6.1502 11.4334 6.29557 11.3964 6.44129 11.3641C6.51668 11.3483 6.59213 11.3332 6.66988 11.319C6.73159 11.3078 6.79293 11.2962 6.85507 11.2866L6.88553 11.2812C6.99727 11.2639 7.10944 11.248 7.22118 11.2361L7.4767 11.2141C7.81114 11.1899 8.13117 11.1864 8.51874 11.2141L8.76721 11.2346C8.82855 11.2415 8.8899 11.2496 8.96455 11.26L9.05404 11.2727C9.14743 11.2862 9.24081 11.302 9.33455 11.3194L9.37833 11.3275C9.4311 11.3371 9.48344 11.3472 9.53305 11.3575C9.68699 11.3907 9.83818 11.43 9.98823 11.4728C10.0874 11.5013 10.1859 11.5306 10.2821 11.5622C10.4039 11.6023 10.5243 11.6459 10.6435 11.6925C10.758 11.7368 10.8709 11.7842 10.9826 11.8347L11.0021 11.8436C13.5375 12.991 15.184 15.4885 15.2176 18.2285H0.78171V18.2291ZM6.06862 9.45118C6.12722 9.47547 6.18778 9.49664 6.24833 9.51787L6.37533 9.56333C6.42415 9.5818 6.47339 9.59997 6.52343 9.61538C6.98918 9.75991 7.4764 9.83428 7.97182 9.83817L8.01128 9.83895C8.18126 9.83895 8.35161 9.83008 8.51491 9.81353C8.57114 9.80813 8.62586 9.79925 8.68094 9.79002L8.80326 9.77191C8.87202 9.76303 8.94078 9.75302 9.0127 9.73916C9.06195 9.72915 9.10961 9.71643 9.15727 9.70372L9.2909 9.6702C9.35693 9.65442 9.42295 9.63859 9.48825 9.61856C9.52886 9.60585 9.56874 9.59122 9.6082 9.57652L9.71562 9.53838C9.79222 9.51217 9.86955 9.48519 9.94695 9.45322C9.97704 9.44051 10.0063 9.42666 10.0352 9.41274L10.07 9.39577C10.1759 9.34911 10.2814 9.30132 10.3861 9.24584L10.454 9.20578C10.5713 9.14024 10.6881 9.07241 10.8065 8.99265C10.8678 8.95181 10.9264 8.90593 10.9842 8.86047L11.1843 8.70707C12.3346 7.76781 12.9957 6.38951 12.9957 4.95999L12.9981 4.91915C12.9981 2.20656 10.7608 0 8.01091 0C5.38606 0 3.20229 2.02461 3.03935 4.60928L3.03504 4.67327C3.02878 4.75459 3.02373 4.83591 3.02373 4.91915C3.02294 6.90045 4.21818 8.67918 6.06862 9.45118ZM3.81413 4.7267L3.81881 4.65732C3.95633 2.47774 5.79741 0.770742 8.01049 0.770742C10.3298 0.770742 12.2162 2.63157 12.2182 4.88394L12.2158 4.92442C12.2143 6.15856 11.6563 7.32061 10.6815 8.11882L10.4959 8.25837C10.4545 8.29153 10.4126 8.32464 10.3607 8.36014C10.2669 8.42299 10.1676 8.4796 10.0668 8.53591L10.011 8.56944C9.92658 8.61417 9.83788 8.65382 9.74565 8.69429L9.64212 8.74365C9.58272 8.76794 9.52022 8.78911 9.45846 8.81034L9.32951 8.85622C9.30452 8.86545 9.27911 8.87547 9.25449 8.88278C9.20646 8.89742 9.15721 8.90863 9.10833 8.92056L8.95245 8.9599C8.91883 8.96878 8.88564 8.97802 8.85597 8.98419C8.80399 8.99421 8.75086 9.00116 8.69815 9.00848L8.54968 9.03043C8.51375 9.03661 8.47776 9.04278 8.43751 9.04662C8.30741 9.06012 8.17652 9.06743 8.04368 9.06857L8.00696 9.06821H8.00617C7.57835 9.06785 7.15832 9.005 6.75664 8.88092C6.72186 8.87013 6.68788 8.85664 6.65389 8.84392L6.50701 8.79115C6.46129 8.77532 6.416 8.7599 6.37223 8.74179C4.81246 8.09105 3.80434 6.59017 3.80434 4.91939C3.80434 4.85426 3.80945 4.79027 3.81413 4.7267Z" fill="#898888"/>
</svg>
