<svg width="180" height="271" viewBox="0 0 180 271" fill="none" xmlns="http://www.w3.org/2000/svg">
<path d="M113.617 253.68C110.742 252.593 107.476 253.91 106.323 256.624C105.36 258.891 102.917 260.414 100.246 260.414H79.7539C77.0827 260.414 74.6404 258.891 73.6773 256.624C72.5245 253.91 69.2593 252.595 66.3834 253.68C63.508 254.768 62.1113 257.849 63.264 260.563C65.9582 266.903 72.4303 271 79.7539 271H100.246C107.57 271 114.042 266.903 116.735 260.563C117.889 257.849 116.492 254.768 113.617 253.68Z" fill="#E5E5E5"/>
<path d="M179.493 226.413C177.969 219.001 173.129 212.583 166.211 208.794C167.47 207.824 168.65 206.752 169.727 205.571C175.039 199.747 177.392 192.048 176.18 184.45C174.212 172.105 168.643 160.57 160.077 151.092C153.663 143.996 145.78 138.277 136.957 134.259C147.754 123.39 154.378 108.787 154.378 92.7497C154.377 64.9966 134.55 41.5302 107.559 34.3005C111.235 30.1588 113.241 24.9844 113.241 19.5168C113.242 8.75509 103.963 0 92.5584 0C92.5579 0 92.5573 0 92.5567 0C87.9531 0 83.6412 1.41269 80.4163 3.97713C76.8521 6.81099 74.8894 10.7939 74.8888 15.1919C74.8888 18.1146 77.4002 20.4848 80.4982 20.4848C83.5957 20.4848 86.1076 18.1152 86.1076 15.1919C86.1076 13.9327 86.6248 12.8831 87.6457 12.0711C88.8506 11.1131 90.5946 10.5854 92.5573 10.5854H92.5579C97.7768 10.5854 102.023 14.5911 102.023 19.5157C102.023 22.8513 100.647 25.9869 98.147 28.3454C95.6475 30.7034 92.3251 32.0023 88.7912 32.0023C88.7906 32.0023 88.7906 32.0023 88.79 32.0023C88.6526 32.0023 88.518 32.0124 88.3833 32.0219C53.6298 32.8349 25.6227 59.7639 25.6221 92.7492C25.6221 108.786 32.2457 123.39 43.0432 134.258C34.2207 138.277 26.3373 143.995 19.9235 151.091C11.3574 160.57 5.78898 172.104 3.82008 184.449C2.60845 192.048 4.96047 199.746 10.2731 205.57C11.3501 206.751 12.5303 207.824 13.7885 208.793C6.87047 212.583 2.03012 219 0.507175 226.412C-1.02026 233.844 0.939659 241.525 5.88322 247.487L17.8957 261.971C22.749 267.823 30.1214 270.97 37.5993 270.97C41.8445 270.97 46.1244 269.956 49.996 267.846C60.6881 262.021 65.2699 249.481 60.6539 238.677L53.3667 221.619C52.8798 220.48 52.3043 219.387 51.662 218.336H92.8047C95.9027 218.336 98.4141 215.966 98.4141 213.043C98.4141 210.121 95.9027 207.75 92.8047 207.75H40.9986V196.592C40.9986 195.155 42.2371 193.987 43.7601 193.987H136.24C137.763 193.987 139.002 195.155 139.002 196.592V208.482C133.436 211.361 129.042 215.979 126.633 221.619L119.346 238.677C114.73 249.481 119.311 262.021 130.003 267.846C133.876 269.956 138.154 270.97 142.4 270.97C149.877 270.97 157.251 267.822 162.104 261.971L174.116 247.487C179.061 241.525 181.02 233.844 179.493 226.413ZM36.8403 92.7497C36.8409 65.0913 60.6887 42.5893 90 42.5888C119.311 42.5893 143.159 65.0913 143.16 92.7497C143.16 120.408 119.312 142.91 90 142.911C60.6881 142.91 36.8403 120.408 36.8403 92.7497ZM42.963 225.577L50.2501 242.636C52.7884 248.578 50.2675 255.476 44.3872 258.679C38.5074 261.883 30.9162 260.495 26.7311 255.448L14.7186 240.964C11.7776 237.418 10.6119 232.849 11.5207 228.428C12.4294 224.008 15.321 220.181 19.454 217.929C23.5865 215.678 28.5446 215.229 33.0562 216.696C37.5679 218.164 41.1786 221.402 42.963 225.577ZM136.277 172.815C133.179 172.815 130.668 175.186 130.668 178.108V183.401H49.3689V178.108C49.3689 175.186 46.8576 172.815 43.7595 172.815C40.6614 172.815 38.1501 175.186 38.1501 178.108V184.513C33.2268 186.557 29.7792 191.201 29.7792 196.593V204.067C25.5312 203.666 21.5895 201.749 18.7753 198.665C15.5964 195.179 14.189 190.572 14.9138 186.025C18.1252 165.884 32.3573 149.242 52.3374 141.984C62.9347 149.222 75.9473 153.496 90 153.496C104.053 153.496 117.065 149.222 127.663 141.984C147.643 149.242 161.875 165.884 165.086 186.025C165.811 190.572 164.404 195.179 161.224 198.665C158.41 201.749 154.468 203.666 150.22 204.067V196.593C150.22 191.215 146.79 186.581 141.887 184.529V178.108C141.887 175.186 139.376 172.815 136.277 172.815ZM165.281 240.963L153.269 255.447C149.084 260.493 141.494 261.882 135.613 258.679C129.732 255.475 127.212 248.578 129.751 242.634L137.038 225.576C138.822 221.4 142.433 218.163 146.945 216.695C148.692 216.127 150.506 215.846 152.314 215.846C155.173 215.846 158.015 216.549 160.547 217.929C164.68 220.18 167.571 224.007 168.48 228.428C169.388 232.849 168.222 237.418 165.281 240.963Z" fill="#E5E5E5"/>
<path d="M119.051 209.3C118.008 208.315 116.56 207.749 115.085 207.749C113.61 207.749 112.163 208.315 111.119 209.3C110.076 210.285 109.476 211.65 109.476 213.042C109.476 214.439 110.076 215.8 111.119 216.784C112.163 217.774 113.61 218.335 115.085 218.335C116.56 218.335 118.008 217.774 119.051 216.784C120.094 215.8 120.695 214.434 120.695 213.042C120.695 211.65 120.094 210.284 119.051 209.3Z" fill="#E5E5E5"/>
<path d="M105.465 110.826C103.059 108.985 99.5265 109.335 97.5755 111.605C95.7115 113.775 92.95 115.019 90 115.019C87.0501 115.019 84.288 113.774 82.4246 111.605C80.4742 109.334 76.9419 108.986 74.5349 110.826C72.1279 112.666 71.7583 115.999 73.7092 118.27C77.7132 122.931 83.6513 125.604 90 125.604C96.3488 125.604 102.287 122.931 106.291 118.27C108.242 115.999 107.872 112.666 105.465 110.826Z" fill="#E5E5E5"/>
<path d="M75.8255 89.0057C70.7372 84.2045 62.4577 84.2045 57.3683 89.0057C55.1779 91.0727 55.1773 94.4236 57.3683 96.4911C59.5588 98.5585 63.1107 98.5585 65.3011 96.4916C66.0152 95.8178 67.1781 95.8178 67.8927 96.4916C68.9882 97.5248 70.4236 98.0419 71.8591 98.0419C73.2945 98.0419 74.7305 97.5248 75.8255 96.4916C78.016 94.4247 78.016 91.0732 75.8255 89.0057Z" fill="#E5E5E5"/>
<path d="M122.632 89.0053C117.543 84.2046 109.263 84.2046 104.174 89.0053C101.984 91.0722 101.984 94.4237 104.174 96.4911C105.269 97.5248 106.705 98.0414 108.141 98.0414C109.576 98.0414 111.012 97.5243 112.107 96.4911C112.821 95.8179 113.984 95.8168 114.699 96.4911C116.889 98.5585 120.441 98.558 122.632 96.4906C124.822 94.4237 124.822 91.0727 122.632 89.0053Z" fill="#E5E5E5"/>
</svg>
