<svg width="35" height="25" viewBox="0 0 35 25" fill="none" xmlns="http://www.w3.org/2000/svg">
<path d="M34.9801 1.33265C34.9801 1.33148 34.9795 1.32973 34.9795 1.32857C34.9662 1.25575 34.9411 1.18934 34.9027 1.12876C34.9021 1.12818 34.9021 1.12701 34.9021 1.12643C34.9015 1.12527 34.9003 1.12468 34.8997 1.12352C34.863 1.06643 34.8188 1.0175 34.7646 0.97614C34.7535 0.967402 34.7419 0.960994 34.7302 0.952839C34.6865 0.924295 34.6417 0.900411 34.591 0.884683C34.559 0.873615 34.5263 0.87012 34.4931 0.864877C34.4675 0.861382 34.4448 0.849731 34.418 0.849731H34.4157C34.3929 0.849149 34.3772 0.851479 34.3609 0.853227C34.3557 0.853809 34.351 0.853226 34.3458 0.853809C34.3405 0.854391 34.3347 0.853809 34.3289 0.854974C34.3131 0.857304 34.2974 0.859634 34.2823 0.863129L0.46479 7.85171C0.224206 7.90181 0.0401274 8.09696 0.00575826 8.34045C-0.0286109 8.58395 0.0931374 8.82279 0.31042 8.93754L9.99902 14.0481L11.6983 23.4774C11.6971 23.4844 11.6988 23.492 11.6983 23.499C11.6924 23.5456 11.6918 23.591 11.6977 23.637C11.7006 23.6603 11.7035 23.6825 11.7093 23.7052C11.7227 23.7605 11.7443 23.8124 11.7734 23.8613C11.7792 23.8706 11.7792 23.8817 11.7856 23.891C11.7874 23.8939 11.7903 23.8963 11.7926 23.8986C11.8002 23.9097 11.8107 23.9184 11.8194 23.9295C11.8468 23.9633 11.8753 23.9941 11.908 24.0203C11.9132 24.0244 11.9167 24.0308 11.9225 24.0349C11.9313 24.0413 11.9412 24.0431 11.9499 24.0489C11.9854 24.0722 12.0221 24.0914 12.0612 24.1066C12.0769 24.1124 12.0915 24.1194 12.1078 24.124C12.1602 24.1392 12.2144 24.1497 12.2691 24.1497C12.2697 24.1497 12.2703 24.1497 12.2709 24.1497C12.2732 24.1497 12.2755 24.1485 12.2779 24.1485C12.2878 24.1491 12.2977 24.1497 12.3076 24.1497C12.4689 24.1497 12.6146 24.0774 12.7223 23.9662L19.1762 19.6636L25.9335 24.0559C26.029 24.1176 26.1397 24.1497 26.251 24.1497C26.3121 24.1497 26.3745 24.1398 26.4345 24.12C26.6022 24.064 26.7362 23.9347 26.7974 23.7681L34.9155 1.73401C34.9696 1.64605 35.0005 1.54177 35.0005 1.43051C34.9999 1.39672 34.986 1.36585 34.9801 1.33265ZM28.2316 5.24898L14.255 15.5259C14.2322 15.5428 14.2142 15.5638 14.1944 15.5836C14.1868 15.5906 14.1792 15.5964 14.1728 15.604C14.1606 15.6174 14.1495 15.6308 14.1385 15.6453C14.128 15.6593 14.1198 15.6739 14.1105 15.6885C14.0889 15.7234 14.0709 15.7595 14.0569 15.798C14.054 15.8055 14.0493 15.8114 14.047 15.8189C14.0464 15.8213 14.0441 15.8224 14.0435 15.8248L12.4416 21.0308L11.1722 13.9875L28.2316 5.24898ZM13.3445 22.1516L14.9324 16.9065L17.4047 18.5137L18.1119 18.9733L15.7095 20.5747L13.3445 22.1516Z" fill="#fff"/>
</svg>
