<svg width="223" height="48" viewBox="0 0 223 48" fill="none" xmlns="http://www.w3.org/2000/svg">
<path d="M34 47.23C31.4133 47.23 29.0533 46.63 26.92 45.43C24.7867 44.2033 23.0933 42.51 21.84 40.35C20.6133 38.1633 20 35.71 20 32.99C20 30.27 20.6133 27.83 21.84 25.67C23.0933 23.4833 24.7867 21.79 26.92 20.59C29.0533 19.3633 31.4133 18.75 34 18.75C36.6133 18.75 38.9867 19.3633 41.12 20.59C43.2533 21.79 44.9333 23.47 46.16 25.63C47.3867 27.79 48 30.2433 48 32.99C48 35.7367 47.3867 38.19 46.16 40.35C44.9333 42.51 43.2533 44.2033 41.12 45.43C38.9867 46.63 36.6133 47.23 34 47.23ZM34 44.07C35.9467 44.07 37.6933 43.6167 39.24 42.71C40.8133 41.8033 42.04 40.51 42.92 38.83C43.8267 37.15 44.28 35.2033 44.28 32.99C44.28 30.75 43.8267 28.8033 42.92 27.15C42.04 25.47 40.8267 24.1767 39.28 23.27C37.7333 22.3633 35.9733 21.91 34 21.91C32.0267 21.91 30.2667 22.3633 28.72 23.27C27.1733 24.1767 25.9467 25.47 25.04 27.15C24.16 28.8033 23.72 30.75 23.72 32.99C23.72 35.2033 24.16 37.15 25.04 38.83C25.9467 40.51 27.1733 41.8033 28.72 42.71C30.2933 43.6167 32.0533 44.07 34 44.07Z" fill="white"/>
<path d="M14 47.23C11.4133 47.23 9.05333 46.63 6.92 45.43C4.78667 44.2033 3.09333 42.51 1.84 40.35C0.613333 38.1633 0 35.71 0 32.99C0 30.27 0.613333 27.83 1.84 25.67C3.09333 23.4833 4.78667 21.79 6.92 20.59C9.05333 19.3633 11.4133 18.75 14 18.75C16.6133 18.75 18.9867 19.3633 21.12 20.59C23.2533 21.79 24.9333 23.47 26.16 25.63C27.3867 27.79 28 30.2433 28 32.99C28 35.7367 27.3867 38.19 26.16 40.35C24.9333 42.51 23.2533 44.2033 21.12 45.43C18.9867 46.63 16.6133 47.23 14 47.23ZM14 44.07C15.9467 44.07 17.6933 43.6167 19.24 42.71C20.8133 41.8033 22.04 40.51 22.92 38.83C23.8267 37.15 24.28 35.2033 24.28 32.99C24.28 30.75 23.8267 28.8033 22.92 27.15C22.04 25.47 20.8267 24.1767 19.28 23.27C17.7333 22.3633 15.9733 21.91 14 21.91C12.0267 21.91 10.2667 22.3633 8.72 23.27C7.17333 24.1767 5.94667 25.47 5.04 27.15C4.16 28.8033 3.72 30.75 3.72 32.99C3.72 35.2033 4.16 37.15 5.04 38.83C5.94667 40.51 7.17333 41.8033 8.72 42.71C10.2933 43.6167 12.0533 44.07 14 44.07Z" fill="white"/>
<path d="M9.02 15C9.02 12.4133 9.62 10.0533 10.82 7.92C12.0467 5.78667 13.74 4.09333 15.9 2.84C18.0867 1.61333 20.54 0.999999 23.26 0.999999C25.98 0.999999 28.42 1.61333 30.58 2.84C32.7667 4.09333 34.46 5.78667 35.66 7.92C36.8867 10.0533 37.5 12.4133 37.5 15C37.5 17.6133 36.8867 19.9867 35.66 22.12C34.46 24.2533 32.78 25.9333 30.62 27.16C28.46 28.3867 26.0067 29 23.26 29C20.5133 29 18.06 28.3867 15.9 27.16C13.74 25.9333 12.0467 24.2533 10.82 22.12C9.62 19.9867 9.02 17.6133 9.02 15ZM12.18 15C12.18 16.9467 12.6333 18.6933 13.54 20.24C14.4467 21.8133 15.74 23.04 17.42 23.92C19.1 24.8267 21.0467 25.28 23.26 25.28C25.5 25.28 27.4467 24.8267 29.1 23.92C30.78 23.04 32.0733 21.8267 32.98 20.28C33.8867 18.7333 34.34 16.9733 34.34 15C34.34 13.0267 33.8867 11.2667 32.98 9.72C32.0733 8.17333 30.78 6.94667 29.1 6.04C27.4467 5.16 25.5 4.72 23.26 4.72C21.0467 4.72 19.1 5.16 17.42 6.04C15.74 6.94667 14.4467 8.17333 13.54 9.72C12.6333 11.2933 12.18 13.0533 12.18 15Z" fill="white"/>
<path d="M80.7685 12.76V15.736H74.8485V35H71.2005V15.736H65.2485V12.76H80.7685ZM90.031 19.928C90.5643 19.032 91.2683 18.3387 92.143 17.848C93.039 17.336 94.095 17.08 95.311 17.08V20.856H94.383C92.9537 20.856 91.8657 21.2187 91.119 21.944C90.3937 22.6693 90.031 23.928 90.031 25.72V35H86.383V17.368H90.031V19.928ZM102.44 15.032C101.779 15.032 101.224 14.808 100.776 14.36C100.328 13.912 100.104 13.3573 100.104 12.696C100.104 12.0347 100.328 11.48 100.776 11.032C101.224 10.584 101.779 10.36 102.44 10.36C103.08 10.36 103.624 10.584 104.072 11.032C104.52 11.48 104.744 12.0347 104.744 12.696C104.744 13.3573 104.52 13.912 104.072 14.36C103.624 14.808 103.08 15.032 102.44 15.032ZM104.232 17.368V35H100.584V17.368H104.232ZM109.726 26.104C109.726 24.3333 110.088 22.7653 110.814 21.4C111.56 20.0347 112.563 18.9787 113.822 18.232C115.102 17.464 116.51 17.08 118.046 17.08C119.432 17.08 120.638 17.3573 121.662 17.912C122.707 18.4453 123.539 19.1173 124.158 19.928V17.368H127.838V35H124.158V32.376C123.539 33.208 122.696 33.9013 121.63 34.456C120.563 35.0107 119.347 35.288 117.982 35.288C116.467 35.288 115.08 34.904 113.822 34.136C112.563 33.3467 111.56 32.2587 110.814 30.872C110.088 29.464 109.726 27.8747 109.726 26.104ZM124.158 26.168C124.158 24.952 123.902 23.896 123.39 23C122.899 22.104 122.248 21.4213 121.438 20.952C120.627 20.4827 119.752 20.248 118.814 20.248C117.875 20.248 117 20.4827 116.19 20.952C115.379 21.4 114.718 22.072 114.206 22.968C113.715 23.8427 113.47 24.888 113.47 26.104C113.47 27.32 113.715 28.3867 114.206 29.304C114.718 30.2213 115.379 30.9253 116.19 31.416C117.022 31.8853 117.896 32.12 118.814 32.12C119.752 32.12 120.627 31.8853 121.438 31.416C122.248 30.9467 122.899 30.264 123.39 29.368C123.902 28.4507 124.158 27.384 124.158 26.168ZM138.805 20.344V30.104C138.805 30.7653 138.955 31.2453 139.253 31.544C139.573 31.8213 140.107 31.96 140.853 31.96H143.093V35H140.213C138.571 35 137.312 34.616 136.437 33.848C135.563 33.08 135.125 31.832 135.125 30.104V20.344H133.045V17.368H135.125V12.984H138.805V17.368H143.093V20.344H138.805ZM157.495 17.08C158.839 17.08 160.034 17.368 161.079 17.944C162.146 18.52 162.978 19.3733 163.575 20.504C164.194 21.6347 164.503 23 164.503 24.6V35H160.887V25.144C160.887 23.5653 160.493 22.36 159.703 21.528C158.914 20.6747 157.837 20.248 156.471 20.248C155.106 20.248 154.018 20.6747 153.207 21.528C152.418 22.36 152.023 23.5653 152.023 25.144V35H148.375V11.32H152.023V19.416C152.642 18.6693 153.421 18.0933 154.359 17.688C155.319 17.2827 156.365 17.08 157.495 17.08ZM174.725 11.32V35H171.077V11.32H174.725ZM189.082 35.288C187.418 35.288 185.914 34.9147 184.57 34.168C183.226 33.4 182.17 32.3333 181.402 30.968C180.634 29.5813 180.25 27.9813 180.25 26.168C180.25 24.376 180.645 22.7867 181.434 21.4C182.224 20.0133 183.301 18.9467 184.666 18.2C186.032 17.4533 187.557 17.08 189.242 17.08C190.928 17.08 192.453 17.4533 193.818 18.2C195.184 18.9467 196.261 20.0133 197.05 21.4C197.84 22.7867 198.234 24.376 198.234 26.168C198.234 27.96 197.829 29.5493 197.018 30.936C196.208 32.3227 195.098 33.4 193.69 34.168C192.304 34.9147 190.768 35.288 189.082 35.288ZM189.082 32.12C190.021 32.12 190.896 31.896 191.706 31.448C192.538 31 193.21 30.328 193.722 29.432C194.234 28.536 194.49 27.448 194.49 26.168C194.49 24.888 194.245 23.8107 193.754 22.936C193.264 22.04 192.613 21.368 191.802 20.92C190.992 20.472 190.117 20.248 189.178 20.248C188.24 20.248 187.365 20.472 186.554 20.92C185.765 21.368 185.136 22.04 184.666 22.936C184.197 23.8107 183.962 24.888 183.962 26.168C183.962 28.0667 184.442 29.5387 185.402 30.584C186.384 31.608 187.61 32.12 189.082 32.12ZM212.656 17.08C214.043 17.08 215.28 17.368 216.368 17.944C217.478 18.52 218.342 19.3733 218.96 20.504C219.579 21.6347 219.888 23 219.888 24.6V35H216.272V25.144C216.272 23.5653 215.878 22.36 215.088 21.528C214.299 20.6747 213.222 20.248 211.856 20.248C210.491 20.248 209.403 20.6747 208.592 21.528C207.803 22.36 207.408 23.5653 207.408 25.144V35H203.76V17.368H207.408V19.384C208.006 18.6587 208.763 18.0933 209.68 17.688C210.619 17.2827 211.611 17.08 212.656 17.08Z" fill="white"/>
</svg>
