<svg width="137" height="48" viewBox="0 0 137 48" fill="none" xmlns="http://www.w3.org/2000/svg">
<path fill-rule="evenodd" clip-rule="evenodd" d="M13.8281 10.8066C13.8281 10.3611 13.467 10 13.0215 10C12.576 10 12.2148 10.3611 12.2148 10.8066V25.4766L10.1271 27.9767C10.045 28.0751 10 28.1991 10 28.3273V37.125C10 37.6082 10.3917 38 10.875 38H15.168C15.6512 38 16.043 37.6082 16.043 37.125V28.3273C16.043 28.1991 15.998 28.0751 15.9159 27.9767L13.8281 25.4766V10.8066ZM31.875 32.75C32.3583 32.75 32.75 32.3582 32.75 31.875V19.625C32.75 17.2087 30.7913 15.25 28.375 15.25C25.9587 15.25 24 17.2087 24 19.625V31.875C24 32.3582 24.3917 32.75 24.875 32.75H31.875ZM28.375 10C23.0593 10 18.75 14.3093 18.75 19.625V37.1797C18.75 37.6328 19.1173 38 19.5703 38H37.1797C37.6327 38 38 37.6328 38 37.1797V19.625C38 14.3093 33.6907 10 28.375 10ZM25.6406 19.6523C25.6406 18.1365 26.8648 16.9077 28.375 16.9077C29.8852 16.9077 31.1094 18.1365 31.1094 19.6523V20.5547H25.6406V19.6523ZM25.6406 22.1953V25.8047H31.1094V22.1953H25.6406ZM25.6406 27.4453V30.8755C25.6406 31.0047 25.745 31.1094 25.8737 31.1094H30.8763C31.005 31.1094 31.1094 31.0047 31.1094 30.8755V27.4453H25.6406Z" fill="white"/>
<path d="M64.26 31L61.46 25.8H61.04V31H57.12V16.9H63.3C64.4333 16.9 65.3933 17.1 66.18 17.5C66.9667 17.8867 67.56 18.4267 67.96 19.12C68.36 19.8 68.56 20.5667 68.56 21.42C68.56 22.38 68.2933 23.2267 67.76 23.96C67.24 24.68 66.4733 25.1933 65.46 25.5L68.64 31H64.26ZM61.04 23.12H62.98C63.5133 23.12 63.9133 22.9933 64.18 22.74C64.4467 22.4867 64.58 22.12 64.58 21.64C64.58 21.1867 64.44 20.8333 64.16 20.58C63.8933 20.3133 63.5 20.18 62.98 20.18H61.04V23.12ZM70.5027 25.38C70.5027 24.22 70.7093 23.2067 71.1227 22.34C71.5493 21.4733 72.1227 20.8067 72.8427 20.34C73.576 19.8733 74.3893 19.64 75.2827 19.64C76.056 19.64 76.7227 19.7933 77.2827 20.1C77.8427 20.4067 78.276 20.82 78.5827 21.34V19.78H82.5027V31H78.5827V29.44C78.276 29.96 77.836 30.3733 77.2627 30.68C76.7027 30.9867 76.0427 31.14 75.2827 31.14C74.3893 31.14 73.576 30.9067 72.8427 30.44C72.1227 29.9733 71.5493 29.3067 71.1227 28.44C70.7093 27.56 70.5027 26.54 70.5027 25.38ZM78.5827 25.38C78.5827 24.66 78.3827 24.0933 77.9827 23.68C77.596 23.2667 77.116 23.06 76.5427 23.06C75.956 23.06 75.4693 23.2667 75.0827 23.68C74.696 24.08 74.5027 24.6467 74.5027 25.38C74.5027 26.1 74.696 26.6733 75.0827 27.1C75.4693 27.5133 75.956 27.72 76.5427 27.72C77.116 27.72 77.596 27.5133 77.9827 27.1C78.3827 26.6867 78.5827 26.1133 78.5827 25.38ZM91.5964 23.04H89.8364V31H85.8964V23.04H84.6764V19.78H85.8964V19.68C85.8964 18.24 86.3164 17.14 87.1564 16.38C88.0097 15.6067 89.2297 15.22 90.8164 15.22C91.1364 15.22 91.3831 15.2267 91.5564 15.24V18.58C91.4497 18.5667 91.3031 18.56 91.1164 18.56C90.6897 18.56 90.3764 18.66 90.1764 18.86C89.9764 19.0467 89.8631 19.3533 89.8364 19.78H91.5964V23.04ZM100.417 27.66V31H98.7173C95.8507 31 94.4173 29.58 94.4173 26.74V23.04H93.0373V19.78H94.4173V17.06H98.3573V19.78H100.397V23.04H98.3573V26.8C98.3573 27.1067 98.424 27.3267 98.5573 27.46C98.704 27.5933 98.944 27.66 99.2773 27.66H100.417ZM104.995 18.74C104.302 18.74 103.742 18.5533 103.315 18.18C102.902 17.7933 102.695 17.3133 102.695 16.74C102.695 16.1533 102.902 15.6667 103.315 15.28C103.742 14.8933 104.302 14.7 104.995 14.7C105.675 14.7 106.222 14.8933 106.635 15.28C107.062 15.6667 107.275 16.1533 107.275 16.74C107.275 17.3133 107.062 17.7933 106.635 18.18C106.222 18.5533 105.675 18.74 104.995 18.74ZM106.935 19.78V31H103.015V19.78H106.935ZM117.308 19.68C118.601 19.68 119.628 20.1133 120.388 20.98C121.148 21.8333 121.528 22.9933 121.528 24.46V31H117.608V24.98C117.608 24.34 117.441 23.84 117.108 23.48C116.774 23.1067 116.328 22.92 115.768 22.92C115.181 22.92 114.721 23.1067 114.388 23.48C114.054 23.84 113.888 24.34 113.888 24.98V31H109.968V19.78H113.888V21.38C114.234 20.8733 114.701 20.4667 115.288 20.16C115.874 19.84 116.548 19.68 117.308 19.68ZM128.619 19.64C129.379 19.64 130.039 19.7933 130.599 20.1C131.172 20.4067 131.612 20.82 131.919 21.34V19.78H135.839V30.88C135.839 31.9333 135.639 32.88 135.239 33.72C134.839 34.5733 134.212 35.2533 133.359 35.76C132.519 36.2667 131.452 36.52 130.159 36.52C128.425 36.52 127.039 36.1133 125.999 35.3C124.959 34.4867 124.365 33.38 124.219 31.98H128.079C128.159 32.34 128.359 32.62 128.679 32.82C128.999 33.02 129.412 33.12 129.919 33.12C131.252 33.12 131.919 32.3733 131.919 30.88V29.44C131.612 29.96 131.172 30.3733 130.599 30.68C130.039 30.9867 129.379 31.14 128.619 31.14C127.725 31.14 126.912 30.9067 126.179 30.44C125.459 29.9733 124.885 29.3067 124.459 28.44C124.045 27.56 123.839 26.54 123.839 25.38C123.839 24.22 124.045 23.2067 124.459 22.34C124.885 21.4733 125.459 20.8067 126.179 20.34C126.912 19.8733 127.725 19.64 128.619 19.64ZM131.919 25.38C131.919 24.66 131.719 24.0933 131.319 23.68C130.932 23.2667 130.452 23.06 129.879 23.06C129.292 23.06 128.805 23.2667 128.419 23.68C128.032 24.08 127.839 24.6467 127.839 25.38C127.839 26.1 128.032 26.6733 128.419 27.1C128.805 27.5133 129.292 27.72 129.879 27.72C130.452 27.72 130.932 27.5133 131.319 27.1C131.719 26.6867 131.919 26.1133 131.919 25.38Z" fill="white"/>
</svg>
