<svg width="48" height="48" viewBox="0 0 48 48" fill="none" xmlns="http://www.w3.org/2000/svg">
<path fill-rule="evenodd" clip-rule="evenodd" d="M22.6691 6.34202C23.1047 5.88599 23.8259 5.88599 24.2616 6.34202L31.3661 13.7957C32.0478 14.5094 31.5494 15.7037 30.5698 15.7037H27.7624V22.1723H19.2376V15.7037H16.361C15.3813 15.7037 14.8829 14.5094 15.5647 13.7957L22.6691 6.34202ZM34 24.2816H13V28.7815H34V24.2816ZM34 30.8909H13V35.3908H34V30.8909ZM13 37.5001H34V40.875C34 41.4963 33.5035 42 32.8911 42H14.1089C13.4965 42 13 41.4963 13 40.875V37.5001Z" fill="white"/>
</svg>
