<svg width="48" height="48" viewBox="0 0 48 48" fill="none" xmlns="http://www.w3.org/2000/svg">
<path fill-rule="evenodd" clip-rule="evenodd" d="M26.7446 28.6192C27.5505 27.7808 28.0006 26.6629 28.0004 25.5L31.0004 25.5C31.508 25.5006 32.0073 25.3715 32.4511 25.125C32.4833 25.2474 32.4999 25.3734 32.5004 25.5L32.5004 30.4046C32.9559 30.1396 33.4734 30 34.0004 30C34.7755 29.9999 35.5206 30.2998 36.0795 30.837C36.6384 31.3741 36.9677 32.1067 36.9984 32.8812C37.0291 33.6558 36.7588 34.4121 36.2442 34.9918C35.7295 35.5714 35.0105 35.9294 34.2378 35.9906C33.6319 36.0391 33.0257 35.9011 32.5004 35.5954L32.5004 40.5C32.5004 40.8978 32.3424 41.2794 32.0611 41.5607C31.7797 41.842 31.3982 42 31.0004 42L16.0004 42C15.6026 42 15.221 41.842 14.9397 41.5607C14.6584 41.2794 14.5004 40.8978 14.5004 40.5L14.5004 35.5954C14.0449 35.8604 13.5274 36 13.0004 36C12.2252 36.0001 11.4801 35.7002 10.9212 35.163C10.3623 34.6259 10.033 33.8933 10.0024 33.1188C9.97166 32.3442 10.242 31.5879 10.7566 31.0082C11.2713 30.4286 11.9903 30.0706 12.763 30.0094C13.3689 29.9609 13.9751 30.0989 14.5004 30.4046L14.5004 25.5C14.5009 25.3734 14.5175 25.2474 14.5497 25.125C14.9934 25.3715 15.4928 25.5006 16.0004 25.5L19.0004 25.5C19.0004 25.6174 19.0051 25.7364 19.0143 25.8538C19.1055 27.0132 19.6421 28.0922 20.5114 28.8646C21.3808 29.6371 22.5154 30.043 23.6774 29.9972C24.8395 29.9515 25.9387 29.4576 26.7446 28.6192ZM14.5004 12.4046L14.5004 7.5C14.5004 7.10218 14.6584 6.72064 14.9397 6.43933C15.221 6.15803 15.6026 6 16.0004 6L31.0004 6C31.3982 6 31.7797 6.15803 32.0611 6.43933C32.3424 6.72064 32.5004 7.10218 32.5004 7.5L32.5004 12.4046C32.0449 12.1396 31.5274 12 31.0004 12C30.2252 11.9999 29.4801 12.2998 28.9212 12.837C28.3623 13.3741 28.033 14.1067 28.0024 14.8812C27.9717 15.6558 28.242 16.4121 28.7566 16.9918C29.2713 17.5714 29.9903 17.9294 30.763 17.9906C31.3689 18.0391 31.9751 17.9011 32.5004 17.5954L32.5004 22.5C32.5004 22.8978 32.3424 23.2794 32.0611 23.5607C31.7797 23.842 31.3982 24 31.0004 24L26.0958 24C26.3608 24.4555 26.5004 24.973 26.5004 25.5C26.501 26.2755 26.2013 27.0212 25.6641 27.5805C25.1269 28.1398 24.3939 28.4694 23.619 28.5001C22.8441 28.5307 22.0874 28.2601 21.5076 27.7449C20.9279 27.2298 20.5702 26.5102 20.5096 25.737C20.4614 25.1312 20.5994 24.5252 20.905 24L16.0004 24C15.6026 24 15.221 23.842 14.9397 23.5607C14.6584 23.2794 14.5004 22.8978 14.5004 22.5L14.5004 17.5954C14.9559 17.8604 15.4734 18 16.0004 18C16.7755 18.0001 17.5206 17.7002 18.0795 17.163C18.6384 16.6259 18.9677 15.8933 18.9984 15.1188C19.0291 14.3442 18.7588 13.5879 18.2442 13.0082C17.7295 12.4286 17.0105 12.0706 16.2378 12.0094C15.6319 11.9609 15.0257 12.0988 14.5004 12.4046Z" fill="white"/>
</svg>
