<svg width="48" height="48" viewBox="0 0 48 48" fill="none" xmlns="http://www.w3.org/2000/svg">
<path d="M24 38C31.728 38 38 31.728 38 24C38 16.272 31.728 10 24 10C16.272 10 10 16.272 10 24C10 31.728 16.272 38 24 38ZM24 16.9988C25.7663 16.9988 27.3927 17.6207 28.6865 18.8223L26.7895 20.6633C26.044 19.9342 25.0232 19.5853 24 19.5853C21.578 19.5853 19.6413 21.5897 19.6413 23.9942C19.6413 26.3987 21.5722 28.403 24 28.403C25.8398 28.403 27.6633 27.325 27.9573 25.3942H24V22.9897H30.5998C30.6733 23.3735 30.7072 23.7573 30.7072 24.1575C30.7072 28.1545 28.025 30.9988 24 30.9988V31C20.1162 31 16.9988 27.8663 16.9988 23.9988C16.9988 20.1313 20.1162 16.9988 24 16.9988Z" fill="white"/>
</svg>
