<svg width="150" height="150" viewBox="0 0 150 150" fill="none" xmlns="http://www.w3.org/2000/svg">
<path d="M76.9441 73.0559V0H150V73.0559H76.9441ZM139.026 10.9735H87.8744V62.1256H139.026V10.9735Z" fill="#FFEEE4"/>
<path d="M36.5491 76.9009C56.7248 76.9009 73.0986 93.2748 73.0986 113.45C73.0986 133.626 56.7248 150 36.5491 150C16.3734 150 -0.000450134 133.626 -0.000450134 113.45C-0.000450134 93.2748 16.3734 76.9009 36.5491 76.9009ZM36.5491 135.397C48.6459 135.397 58.4529 125.59 58.4529 113.494C58.4529 101.397 48.6459 91.5898 36.5491 91.5898C24.4523 91.5898 14.6453 101.397 14.6453 113.494C14.6021 125.547 24.4523 135.397 36.5491 135.397Z" fill="#F36573"/>
<path d="M124.208 76.9009H107.013L150 119.888V102.693L124.208 76.9009ZM81.2212 76.9009H98.4159L150 128.485V145.68L81.2212 76.9009ZM76.9441 98.4159V81.2212L145.723 150H128.528L76.9441 98.4159ZM76.9441 150V132.805L94.1388 150H76.9441ZM76.9441 124.208V107.013L119.931 150H102.736L76.9441 124.208ZM132.805 76.9009H150V94.0956L132.805 76.9009Z" fill="#E2F3FF"/>
<path d="M36.5491 73.0991C16.3633 73.0991 -0.000450134 56.7353 -0.000450134 36.5495C-0.000450134 16.3638 16.3633 0 36.5491 0C56.7348 0 73.0986 16.3638 73.0986 36.5495C73.0986 56.7353 56.7348 73.0991 36.5491 73.0991Z" fill="#376CBB"/>
</svg>
