<svg width="150" height="150" viewBox="0 0 150 150" fill="none" xmlns="http://www.w3.org/2000/svg">
<path d="M73.0559 73.0559H0V47.4798H73.0559V73.0559ZM73.0559 25.576V0H0V25.576H73.0559Z" fill="#376CBB"/>
<path d="M113.451 73.0991C133.637 73.0991 150 56.7353 150 36.5495C150 16.3638 133.637 0 113.451 0C93.2652 0 76.9014 16.3638 76.9014 36.5495C76.9014 56.7353 93.2652 73.0991 113.451 73.0991Z" fill="#E2F3FF"/>
<path d="M36.5495 150C56.7353 150 73.0991 133.636 73.0991 113.45C73.0991 93.2647 56.7353 76.9009 36.5495 76.9009C16.3638 76.9009 0 93.2647 0 113.45C0 133.636 16.3638 150 36.5495 150Z" fill="#FFEEE4"/>
<path d="M76.9014 150H149.957V76.9009H76.9014V150ZM139.027 87.8744V139.026H87.8749V87.8744H139.027Z" fill="#F36573"/>
</svg>
