<svg width="64" height="64" viewBox="0 0 64 64" fill="none" xmlns="http://www.w3.org/2000/svg">
<path fill-rule="evenodd" clip-rule="evenodd" d="M32.8 11.2V8.8C32.8 8.3582 32.4418 8 32 8H23.2C22.7582 8 22.4 8.3582 22.4 8.8V11.2H32.8ZM20.8 15.2V18.4H8V15.2C8 14.7582 8.3582 14.4 8.8 14.4H20C20.4418 14.4 20.8 14.7582 20.8 15.2ZM8 55.2V51.2H20.8V55.2C20.8 55.6418 20.4418 56 20 56H8.8C8.3582 56 8 55.6418 8 55.2ZM8 48H20.8V49.6H8V48ZM32.8 48H22.4V49.6H32.8V48ZM32.8 16.8H22.4V46.4H32.8V18.4441C32.8028 18.4958 32.8106 18.5479 32.8238 18.6L33.977 23.0184L47.5246 19.4059L46.3762 15C46.2578 14.5734 45.8219 14.3184 45.3922 14.4242L33.3922 17.6242C33.0491 17.7181 32.8182 18.0203 32.8 18.3579V16.8ZM22.4 51.2V55.2C22.4 55.6418 22.7582 56 23.2 56H32C32.4418 56 32.8 55.6418 32.8 55.2V51.2H22.4ZM32.8 12.8H22.4V15.2H32.8V12.8ZM34.3809 24.5664L34.809 26.2098L48.3575 22.5969L47.9289 20.9535L34.3809 24.5664ZM54.6144 46.5816L41.0664 50.1945L40.2078 46.9059L53.7566 43.293L54.6144 46.5816ZM53.3527 41.7449L48.7617 24.1449L35.2128 27.7578L39.8039 45.3578L53.3527 41.7449ZM55.0183 48.1297L41.4695 51.7426L42.4238 55.4C42.4793 55.6062 42.6144 55.782 42.8 55.8883C42.9207 55.9613 43.059 56 43.2 56C43.2699 56 43.3398 55.9918 43.4078 55.9762L55.4078 52.7762C55.8316 52.6602 56.0843 52.2258 55.9761 51.8L55.0183 48.1297ZM8 46.4V20H20.8V46.4H8ZM11.2 30.4H17.6C18.0418 30.4 18.4 30.0418 18.4 29.6V23.2C18.4 22.7582 18.0418 22.4 17.6 22.4H11.2C10.7582 22.4 10.4 22.7582 10.4 23.2V29.6C10.4 30.0418 10.7582 30.4 11.2 30.4Z" fill="#F4F4F4"/>
</svg>
